solid ASCII
  facet normal 0.000000e+00 -1.000000e+00 -0.000000e+00
    outer loop
      vertex   2.350000e+01 1.600000e+00 1.775000e+01
      vertex   2.150000e+01 1.600000e+00 1.575000e+01
      vertex   2.350000e+01 1.600000e+00 -1.775000e+01
    endloop
  endfacet
  facet normal 0.000000e+00 -1.000000e+00 0.000000e+00
    outer loop
      vertex   2.350000e+01 1.600000e+00 -1.775000e+01
      vertex   2.150000e+01 1.600000e+00 1.575000e+01
      vertex   2.150000e+01 1.600000e+00 -1.575000e+01
    endloop
  endfacet
  facet normal 0.000000e+00 -1.000000e+00 0.000000e+00
    outer loop
      vertex   2.350000e+01 1.600000e+00 -1.775000e+01
      vertex   2.150000e+01 1.600000e+00 -1.575000e+01
      vertex   -2.150000e+01 1.600000e+00 -1.575000e+01
    endloop
  endfacet
  facet normal -0.000000e+00 -1.000000e+00 0.000000e+00
    outer loop
      vertex   2.350000e+01 1.600000e+00 1.775000e+01
      vertex   -2.350000e+01 1.600000e+00 1.775000e+01
      vertex   2.150000e+01 1.600000e+00 1.575000e+01
    endloop
  endfacet
  facet normal 0.000000e+00 -1.000000e+00 0.000000e+00
    outer loop
      vertex   2.150000e+01 1.600000e+00 1.575000e+01
      vertex   -2.350000e+01 1.600000e+00 1.775000e+01
      vertex   -2.150000e+01 1.600000e+00 1.575000e+01
    endloop
  endfacet
  facet normal -0.000000e+00 -1.000000e+00 0.000000e+00
    outer loop
      vertex   -2.150000e+01 1.600000e+00 1.575000e+01
      vertex   -2.350000e+01 1.600000e+00 1.775000e+01
      vertex   -2.350000e+01 1.600000e+00 -1.775000e+01
    endloop
  endfacet
  facet normal 0.000000e+00 -1.000000e+00 0.000000e+00
    outer loop
      vertex   -2.150000e+01 1.600000e+00 1.575000e+01
      vertex   -2.350000e+01 1.600000e+00 -1.775000e+01
      vertex   -2.150000e+01 1.600000e+00 -1.575000e+01
    endloop
  endfacet
  facet normal 0.000000e+00 -1.000000e+00 -0.000000e+00
    outer loop
      vertex   -2.150000e+01 1.600000e+00 -1.575000e+01
      vertex   -2.350000e+01 1.600000e+00 -1.775000e+01
      vertex   2.350000e+01 1.600000e+00 -1.775000e+01
    endloop
  endfacet
  facet normal 1.511793e-16 -0.000000e+00 1.000000e+00
    outer loop
      vertex   -2.350000e+01 1.600000e+00 1.775000e+01
      vertex   2.350000e+01 1.600000e+00 1.775000e+01
      vertex   -2.350000e+01 3.200000e+00 1.775000e+01
    endloop
  endfacet
  facet normal 1.511793e-16 0.000000e+00 1.000000e+00
    outer loop
      vertex   -2.350000e+01 3.200000e+00 1.775000e+01
      vertex   2.350000e+01 1.600000e+00 1.775000e+01
      vertex   2.350000e+01 3.200000e+00 1.775000e+01
    endloop
  endfacet
  facet normal -1.000000e+00 0.000000e+00 3.002293e-16
    outer loop
      vertex   -2.350000e+01 1.600000e+00 -1.775000e+01
      vertex   -2.350000e+01 1.600000e+00 1.775000e+01
      vertex   -2.350000e+01 3.200000e+00 -1.775000e+01
    endloop
  endfacet
  facet normal -1.000000e+00 0.000000e+00 3.002293e-16
    outer loop
      vertex   -2.350000e+01 3.200000e+00 -1.775000e+01
      vertex   -2.350000e+01 1.600000e+00 1.775000e+01
      vertex   -2.350000e+01 3.200000e+00 1.775000e+01
    endloop
  endfacet
  facet normal 0.000000e+00 0.000000e+00 -1.000000e+00
    outer loop
      vertex   2.350000e+01 1.600000e+00 -1.775000e+01
      vertex   -2.350000e+01 1.600000e+00 -1.775000e+01
      vertex   2.350000e+01 3.200000e+00 -1.775000e+01
    endloop
  endfacet
  facet normal -0.000000e+00 0.000000e+00 -1.000000e+00
    outer loop
      vertex   2.350000e+01 3.200000e+00 -1.775000e+01
      vertex   -2.350000e+01 1.600000e+00 -1.775000e+01
      vertex   -2.350000e+01 3.200000e+00 -1.775000e+01
    endloop
  endfacet
  facet normal 1.000000e+00 -0.000000e+00 0.000000e+00
    outer loop
      vertex   2.350000e+01 1.600000e+00 1.775000e+01
      vertex   2.350000e+01 1.600000e+00 -1.775000e+01
      vertex   2.350000e+01 3.200000e+00 1.775000e+01
    endloop
  endfacet
  facet normal 1.000000e+00 0.000000e+00 0.000000e+00
    outer loop
      vertex   2.350000e+01 3.200000e+00 1.775000e+01
      vertex   2.350000e+01 1.600000e+00 -1.775000e+01
      vertex   2.350000e+01 3.200000e+00 -1.775000e+01
    endloop
  endfacet
  facet normal -0.000000e+00 1.000000e+00 0.000000e+00
    outer loop
      vertex   8.000000e-01 3.200000e+00 -8.000000e-01
      vertex   8.000000e-01 3.200000e+00 8.000000e-01
      vertex   1.990000e+01 3.200000e+00 -8.000000e-01
    endloop
  endfacet
  facet normal 0.000000e+00 1.000000e+00 -0.000000e+00
    outer loop
      vertex   1.990000e+01 3.200000e+00 -8.000000e-01
      vertex   8.000000e-01 3.200000e+00 8.000000e-01
      vertex   1.990000e+01 3.200000e+00 8.000000e-01
    endloop
  endfacet
  facet normal -0.000000e+00 1.000000e+00 0.000000e+00
    outer loop
      vertex   1.990000e+01 3.200000e+00 -8.000000e-01
      vertex   1.990000e+01 3.200000e+00 8.000000e-01
      vertex   2.350000e+01 3.200000e+00 -1.775000e+01
    endloop
  endfacet
  facet normal 0.000000e+00 1.000000e+00 -0.000000e+00
    outer loop
      vertex   2.350000e+01 3.200000e+00 -1.775000e+01
      vertex   1.990000e+01 3.200000e+00 8.000000e-01
      vertex   2.350000e+01 3.200000e+00 1.775000e+01
    endloop
  endfacet
  facet normal 0.000000e+00 1.000000e+00 0.000000e+00
    outer loop
      vertex   2.350000e+01 3.200000e+00 1.775000e+01
      vertex   1.990000e+01 3.200000e+00 8.000000e-01
      vertex   1.990000e+01 3.200000e+00 1.415000e+01
    endloop
  endfacet
  facet normal 0.000000e+00 1.000000e+00 0.000000e+00
    outer loop
      vertex   2.350000e+01 3.200000e+00 1.775000e+01
      vertex   1.990000e+01 3.200000e+00 1.415000e+01
      vertex   8.000000e-01 3.200000e+00 1.415000e+01
    endloop
  endfacet
  facet normal 0.000000e+00 1.000000e+00 -0.000000e+00
    outer loop
      vertex   8.000000e-01 3.200000e+00 -1.415000e+01
      vertex   -8.000000e-01 3.200000e+00 -8.000000e-01
      vertex   8.000000e-01 3.200000e+00 -8.000000e-01
    endloop
  endfacet
  facet normal 0.000000e+00 1.000000e+00 0.000000e+00
    outer loop
      vertex   8.000000e-01 3.200000e+00 -8.000000e-01
      vertex   -8.000000e-01 3.200000e+00 -8.000000e-01
      vertex   -8.000000e-01 3.200000e+00 8.000000e-01
    endloop
  endfacet
  facet normal 0.000000e+00 1.000000e+00 -0.000000e+00
    outer loop
      vertex   8.000000e-01 3.200000e+00 -8.000000e-01
      vertex   -8.000000e-01 3.200000e+00 8.000000e-01
      vertex   8.000000e-01 3.200000e+00 8.000000e-01
    endloop
  endfacet
  facet normal 0.000000e+00 1.000000e+00 0.000000e+00
    outer loop
      vertex   8.000000e-01 3.200000e+00 8.000000e-01
      vertex   -8.000000e-01 3.200000e+00 8.000000e-01
      vertex   -8.000000e-01 3.200000e+00 1.415000e+01
    endloop
  endfacet
  facet normal 0.000000e+00 1.000000e+00 -0.000000e+00
    outer loop
      vertex   8.000000e-01 3.200000e+00 8.000000e-01
      vertex   -8.000000e-01 3.200000e+00 1.415000e+01
      vertex   8.000000e-01 3.200000e+00 1.415000e+01
    endloop
  endfacet
  facet normal 0.000000e+00 1.000000e+00 0.000000e+00
    outer loop
      vertex   8.000000e-01 3.200000e+00 1.415000e+01
      vertex   -8.000000e-01 3.200000e+00 1.415000e+01
      vertex   -2.350000e+01 3.200000e+00 1.775000e+01
    endloop
  endfacet
  facet normal 0.000000e+00 1.000000e+00 -0.000000e+00
    outer loop
      vertex   8.000000e-01 3.200000e+00 1.415000e+01
      vertex   -2.350000e+01 3.200000e+00 1.775000e+01
      vertex   2.350000e+01 3.200000e+00 1.775000e+01
    endloop
  endfacet
  facet normal 0.000000e+00 1.000000e+00 0.000000e+00
    outer loop
      vertex   1.990000e+01 3.200000e+00 -1.415000e+01
      vertex   2.350000e+01 3.200000e+00 -1.775000e+01
      vertex   8.000000e-01 3.200000e+00 -1.415000e+01
    endloop
  endfacet
  facet normal 0.000000e+00 1.000000e+00 0.000000e+00
    outer loop
      vertex   8.000000e-01 3.200000e+00 -1.415000e+01
      vertex   2.350000e+01 3.200000e+00 -1.775000e+01
      vertex   -2.350000e+01 3.200000e+00 -1.775000e+01
    endloop
  endfacet
  facet normal 0.000000e+00 1.000000e+00 0.000000e+00
    outer loop
      vertex   8.000000e-01 3.200000e+00 -1.415000e+01
      vertex   -2.350000e+01 3.200000e+00 -1.775000e+01
      vertex   -8.000000e-01 3.200000e+00 -1.415000e+01
    endloop
  endfacet
  facet normal 0.000000e+00 1.000000e+00 0.000000e+00
    outer loop
      vertex   -8.000000e-01 3.200000e+00 -1.415000e+01
      vertex   -2.350000e+01 3.200000e+00 -1.775000e+01
      vertex   -1.990000e+01 3.200000e+00 -1.415000e+01
    endloop
  endfacet
  facet normal 0.000000e+00 1.000000e+00 -0.000000e+00
    outer loop
      vertex   -1.990000e+01 3.200000e+00 -1.415000e+01
      vertex   -2.350000e+01 3.200000e+00 -1.775000e+01
      vertex   -1.990000e+01 3.200000e+00 -8.000000e-01
    endloop
  endfacet
  facet normal 0.000000e+00 1.000000e+00 0.000000e+00
    outer loop
      vertex   -1.990000e+01 3.200000e+00 -8.000000e-01
      vertex   -2.350000e+01 3.200000e+00 -1.775000e+01
      vertex   -2.350000e+01 3.200000e+00 1.775000e+01
    endloop
  endfacet
  facet normal 0.000000e+00 1.000000e+00 -0.000000e+00
    outer loop
      vertex   -1.990000e+01 3.200000e+00 -8.000000e-01
      vertex   -2.350000e+01 3.200000e+00 1.775000e+01
      vertex   -1.990000e+01 3.200000e+00 8.000000e-01
    endloop
  endfacet
  facet normal 0.000000e+00 1.000000e+00 0.000000e+00
    outer loop
      vertex   -1.990000e+01 3.200000e+00 8.000000e-01
      vertex   -2.350000e+01 3.200000e+00 1.775000e+01
      vertex   -1.990000e+01 3.200000e+00 1.415000e+01
    endloop
  endfacet
  facet normal -0.000000e+00 1.000000e+00 -0.000000e+00
    outer loop
      vertex   -1.990000e+01 3.200000e+00 1.415000e+01
      vertex   -2.350000e+01 3.200000e+00 1.775000e+01
      vertex   -8.000000e-01 3.200000e+00 1.415000e+01
    endloop
  endfacet
  facet normal -0.000000e+00 1.000000e+00 0.000000e+00
    outer loop
      vertex   1.990000e+01 3.200000e+00 -1.415000e+01
      vertex   1.990000e+01 3.200000e+00 -8.000000e-01
      vertex   2.350000e+01 3.200000e+00 -1.775000e+01
    endloop
  endfacet
  facet normal -0.000000e+00 1.000000e+00 0.000000e+00
    outer loop
      vertex   -1.990000e+01 3.200000e+00 -8.000000e-01
      vertex   -1.990000e+01 3.200000e+00 8.000000e-01
      vertex   -8.000000e-01 3.200000e+00 -8.000000e-01
    endloop
  endfacet
  facet normal 0.000000e+00 1.000000e+00 -0.000000e+00
    outer loop
      vertex   -8.000000e-01 3.200000e+00 -8.000000e-01
      vertex   -1.990000e+01 3.200000e+00 8.000000e-01
      vertex   -8.000000e-01 3.200000e+00 8.000000e-01
    endloop
  endfacet
  facet normal 0.000000e+00 1.000000e+00 0.000000e+00
    outer loop
      vertex   -8.000000e-01 3.200000e+00 -1.415000e+01
      vertex   -8.000000e-01 3.200000e+00 -8.000000e-01
      vertex   8.000000e-01 3.200000e+00 -1.415000e+01
    endloop
  endfacet
  facet normal -1.000000e+00 0.000000e+00 -1.995907e-16
    outer loop
      vertex   -8.000000e-01 0.000000e+00 8.000000e-01
      vertex   -8.000000e-01 0.000000e+00 1.415000e+01
      vertex   -8.000000e-01 3.200000e+00 8.000000e-01
    endloop
  endfacet
  facet normal -1.000000e+00 -5.551115e-16 -3.326511e-16
    outer loop
      vertex   -8.000000e-01 3.200000e+00 8.000000e-01
      vertex   -8.000000e-01 0.000000e+00 1.415000e+01
      vertex   -8.000000e-01 3.200000e+00 1.415000e+01
    endloop
  endfacet
  facet normal 0.000000e+00 -1.734723e-16 1.000000e+00
    outer loop
      vertex   -1.990000e+01 0.000000e+00 8.000000e-01
      vertex   -8.000000e-01 0.000000e+00 8.000000e-01
      vertex   -1.990000e+01 3.200000e+00 8.000000e-01
    endloop
  endfacet
  facet normal 2.906343e-17 0.000000e+00 1.000000e+00
    outer loop
      vertex   -1.990000e+01 3.200000e+00 8.000000e-01
      vertex   -8.000000e-01 0.000000e+00 8.000000e-01
      vertex   -8.000000e-01 3.200000e+00 8.000000e-01
    endloop
  endfacet
  facet normal 1.000000e+00 -1.110223e-15 5.322417e-16
    outer loop
      vertex   -1.990000e+01 0.000000e+00 1.415000e+01
      vertex   -1.990000e+01 0.000000e+00 8.000000e-01
      vertex   -1.990000e+01 3.200000e+00 1.415000e+01
    endloop
  endfacet
  facet normal 1.000000e+00 -1.477268e-31 2.661209e-16
    outer loop
      vertex   -1.990000e+01 3.200000e+00 1.415000e+01
      vertex   -1.990000e+01 0.000000e+00 8.000000e-01
      vertex   -1.990000e+01 3.200000e+00 8.000000e-01
    endloop
  endfacet
  facet normal -2.790089e-16 -1.548811e-31 -1.000000e+00
    outer loop
      vertex   -8.000000e-01 0.000000e+00 1.415000e+01
      vertex   -1.990000e+01 0.000000e+00 1.415000e+01
      vertex   -8.000000e-01 3.200000e+00 1.415000e+01
    endloop
  endfacet
  facet normal -2.790089e-16 4.130162e-31 -1.000000e+00
    outer loop
      vertex   -8.000000e-01 3.200000e+00 1.415000e+01
      vertex   -1.990000e+01 0.000000e+00 1.415000e+01
      vertex   -1.990000e+01 3.200000e+00 1.415000e+01
    endloop
  endfacet
  facet normal -0.000000e+00 -1.734723e-16 -1.000000e+00
    outer loop
      vertex   -8.000000e-01 0.000000e+00 -8.000000e-01
      vertex   -1.990000e+01 0.000000e+00 -8.000000e-01
      vertex   -8.000000e-01 3.200000e+00 -8.000000e-01
    endloop
  endfacet
  facet normal -2.906343e-17 0.000000e+00 -1.000000e+00
    outer loop
      vertex   -8.000000e-01 3.200000e+00 -8.000000e-01
      vertex   -1.990000e+01 0.000000e+00 -8.000000e-01
      vertex   -1.990000e+01 3.200000e+00 -8.000000e-01
    endloop
  endfacet
  facet normal -1.000000e+00 -3.469447e-16 -8.316277e-17
    outer loop
      vertex   -8.000000e-01 0.000000e+00 -1.415000e+01
      vertex   -8.000000e-01 0.000000e+00 -8.000000e-01
      vertex   -8.000000e-01 3.200000e+00 -1.415000e+01
    endloop
  endfacet
  facet normal -1.000000e+00 0.000000e+00 0.000000e+00
    outer loop
      vertex   -8.000000e-01 3.200000e+00 -1.415000e+01
      vertex   -8.000000e-01 0.000000e+00 -8.000000e-01
      vertex   -8.000000e-01 3.200000e+00 -8.000000e-01
    endloop
  endfacet
  facet normal -1.395045e-15 -1.548811e-30 1.000000e+00
    outer loop
      vertex   -1.990000e+01 0.000000e+00 -1.415000e+01
      vertex   -8.000000e-01 0.000000e+00 -1.415000e+01
      vertex   -1.990000e+01 3.200000e+00 -1.415000e+01
    endloop
  endfacet
  facet normal -1.395045e-15 0.000000e+00 1.000000e+00
    outer loop
      vertex   -1.990000e+01 3.200000e+00 -1.415000e+01
      vertex   -8.000000e-01 0.000000e+00 -1.415000e+01
      vertex   -8.000000e-01 3.200000e+00 -1.415000e+01
    endloop
  endfacet
  facet normal 1.000000e+00 0.000000e+00 -7.983626e-16
    outer loop
      vertex   -1.990000e+01 0.000000e+00 -8.000000e-01
      vertex   -1.990000e+01 0.000000e+00 -1.415000e+01
      vertex   -1.990000e+01 3.200000e+00 -8.000000e-01
    endloop
  endfacet
  facet normal 1.000000e+00 1.110223e-15 -1.064483e-15
    outer loop
      vertex   -1.990000e+01 3.200000e+00 -8.000000e-01
      vertex   -1.990000e+01 0.000000e+00 -1.415000e+01
      vertex   -1.990000e+01 3.200000e+00 -1.415000e+01
    endloop
  endfacet
  facet normal 1.000000e+00 -0.000000e+00 4.989766e-17
    outer loop
      vertex   8.000000e-01 0.000000e+00 -8.000000e-01
      vertex   8.000000e-01 0.000000e+00 -1.415000e+01
      vertex   8.000000e-01 3.200000e+00 -8.000000e-01
    endloop
  endfacet
  facet normal 1.000000e+00 2.081668e-16 0.000000e+00
    outer loop
      vertex   8.000000e-01 3.200000e+00 -8.000000e-01
      vertex   8.000000e-01 0.000000e+00 -1.415000e+01
      vertex   8.000000e-01 3.200000e+00 -1.415000e+01
    endloop
  endfacet
  facet normal -0.000000e+00 -1.734723e-16 -1.000000e+00
    outer loop
      vertex   1.990000e+01 0.000000e+00 -8.000000e-01
      vertex   8.000000e-01 0.000000e+00 -8.000000e-01
      vertex   1.990000e+01 3.200000e+00 -8.000000e-01
    endloop
  endfacet
  facet normal -2.906343e-17 0.000000e+00 -1.000000e+00
    outer loop
      vertex   1.990000e+01 3.200000e+00 -8.000000e-01
      vertex   8.000000e-01 0.000000e+00 -8.000000e-01
      vertex   8.000000e-01 3.200000e+00 -8.000000e-01
    endloop
  endfacet
  facet normal -1.000000e+00 0.000000e+00 0.000000e+00
    outer loop
      vertex   1.990000e+01 0.000000e+00 -1.415000e+01
      vertex   1.990000e+01 0.000000e+00 -8.000000e-01
      vertex   1.990000e+01 3.200000e+00 -1.415000e+01
    endloop
  endfacet
  facet normal -1.000000e+00 0.000000e+00 0.000000e+00
    outer loop
      vertex   1.990000e+01 3.200000e+00 -1.415000e+01
      vertex   1.990000e+01 0.000000e+00 -8.000000e-01
      vertex   1.990000e+01 3.200000e+00 -8.000000e-01
    endloop
  endfacet
  facet normal 1.581051e-15 3.291223e-31 1.000000e+00
    outer loop
      vertex   8.000000e-01 0.000000e+00 -1.415000e+01
      vertex   1.990000e+01 0.000000e+00 -1.415000e+01
      vertex   8.000000e-01 3.200000e+00 -1.415000e+01
    endloop
  endfacet
  facet normal 1.581051e-15 0.000000e+00 1.000000e+00
    outer loop
      vertex   8.000000e-01 3.200000e+00 -1.415000e+01
      vertex   1.990000e+01 0.000000e+00 -1.415000e+01
      vertex   1.990000e+01 3.200000e+00 -1.415000e+01
    endloop
  endfacet
  facet normal 0.000000e+00 -1.734723e-16 1.000000e+00
    outer loop
      vertex   8.000000e-01 0.000000e+00 8.000000e-01
      vertex   1.990000e+01 0.000000e+00 8.000000e-01
      vertex   8.000000e-01 3.200000e+00 8.000000e-01
    endloop
  endfacet
  facet normal 2.906343e-17 0.000000e+00 1.000000e+00
    outer loop
      vertex   8.000000e-01 3.200000e+00 8.000000e-01
      vertex   1.990000e+01 0.000000e+00 8.000000e-01
      vertex   1.990000e+01 3.200000e+00 8.000000e-01
    endloop
  endfacet
  facet normal 1.000000e+00 2.081668e-16 -4.989766e-17
    outer loop
      vertex   8.000000e-01 0.000000e+00 1.415000e+01
      vertex   8.000000e-01 0.000000e+00 8.000000e-01
      vertex   8.000000e-01 3.200000e+00 1.415000e+01
    endloop
  endfacet
  facet normal 1.000000e+00 0.000000e+00 0.000000e+00
    outer loop
      vertex   8.000000e-01 3.200000e+00 1.415000e+01
      vertex   8.000000e-01 0.000000e+00 8.000000e-01
      vertex   8.000000e-01 3.200000e+00 8.000000e-01
    endloop
  endfacet
  facet normal -9.300298e-17 0.000000e+00 -1.000000e+00
    outer loop
      vertex   1.990000e+01 0.000000e+00 1.415000e+01
      vertex   8.000000e-01 0.000000e+00 1.415000e+01
      vertex   1.990000e+01 3.200000e+00 1.415000e+01
    endloop
  endfacet
  facet normal -9.300298e-17 -1.032540e-31 -1.000000e+00
    outer loop
      vertex   1.990000e+01 3.200000e+00 1.415000e+01
      vertex   8.000000e-01 0.000000e+00 1.415000e+01
      vertex   8.000000e-01 3.200000e+00 1.415000e+01
    endloop
  endfacet
  facet normal -1.000000e+00 0.000000e+00 -2.661209e-16
    outer loop
      vertex   1.990000e+01 0.000000e+00 8.000000e-01
      vertex   1.990000e+01 0.000000e+00 1.415000e+01
      vertex   1.990000e+01 3.200000e+00 8.000000e-01
    endloop
  endfacet
  facet normal -1.000000e+00 0.000000e+00 -2.661209e-16
    outer loop
      vertex   1.990000e+01 3.200000e+00 8.000000e-01
      vertex   1.990000e+01 0.000000e+00 1.415000e+01
      vertex   1.990000e+01 3.200000e+00 1.415000e+01
    endloop
  endfacet
  facet normal 1.239319e-16 -5.503681e-31 1.000000e+00
    outer loop
      vertex   -2.150000e+01 0.000000e+00 1.575000e+01
      vertex   2.150000e+01 0.000000e+00 1.575000e+01
      vertex   -2.150000e+01 1.600000e+00 1.575000e+01
    endloop
  endfacet
  facet normal 1.239319e-16 0.000000e+00 1.000000e+00
    outer loop
      vertex   -2.150000e+01 1.600000e+00 1.575000e+01
      vertex   2.150000e+01 0.000000e+00 1.575000e+01
      vertex   2.150000e+01 1.600000e+00 1.575000e+01
    endloop
  endfacet
  facet normal -1.000000e+00 0.000000e+00 1.127846e-16
    outer loop
      vertex   -2.150000e+01 0.000000e+00 -1.575000e+01
      vertex   -2.150000e+01 0.000000e+00 1.575000e+01
      vertex   -2.150000e+01 1.600000e+00 -1.575000e+01
    endloop
  endfacet
  facet normal -1.000000e+00 4.440892e-15 3.383537e-16
    outer loop
      vertex   -2.150000e+01 1.600000e+00 -1.575000e+01
      vertex   -2.150000e+01 0.000000e+00 1.575000e+01
      vertex   -2.150000e+01 1.600000e+00 1.575000e+01
    endloop
  endfacet
  facet normal 0.000000e+00 0.000000e+00 -1.000000e+00
    outer loop
      vertex   2.150000e+01 0.000000e+00 -1.575000e+01
      vertex   -2.150000e+01 0.000000e+00 -1.575000e+01
      vertex   2.150000e+01 1.600000e+00 -1.575000e+01
    endloop
  endfacet
  facet normal -0.000000e+00 0.000000e+00 -1.000000e+00
    outer loop
      vertex   2.150000e+01 1.600000e+00 -1.575000e+01
      vertex   -2.150000e+01 0.000000e+00 -1.575000e+01
      vertex   -2.150000e+01 1.600000e+00 -1.575000e+01
    endloop
  endfacet
  facet normal 1.000000e+00 -0.000000e+00 0.000000e+00
    outer loop
      vertex   2.150000e+01 0.000000e+00 1.575000e+01
      vertex   2.150000e+01 0.000000e+00 -1.575000e+01
      vertex   2.150000e+01 1.600000e+00 1.575000e+01
    endloop
  endfacet
  facet normal 1.000000e+00 0.000000e+00 0.000000e+00
    outer loop
      vertex   2.150000e+01 1.600000e+00 1.575000e+01
      vertex   2.150000e+01 0.000000e+00 -1.575000e+01
      vertex   2.150000e+01 1.600000e+00 -1.575000e+01
    endloop
  endfacet
  facet normal 0.000000e+00 -1.000000e+00 0.000000e+00
    outer loop
      vertex   8.000000e-01 0.000000e+00 1.415000e+01
      vertex   1.990000e+01 0.000000e+00 1.415000e+01
      vertex   2.150000e+01 0.000000e+00 1.575000e+01
    endloop
  endfacet
  facet normal 0.000000e+00 -1.000000e+00 0.000000e+00
    outer loop
      vertex   2.150000e+01 0.000000e+00 1.575000e+01
      vertex   1.990000e+01 0.000000e+00 1.415000e+01
      vertex   1.990000e+01 0.000000e+00 8.000000e-01
    endloop
  endfacet
  facet normal 0.000000e+00 -1.000000e+00 0.000000e+00
    outer loop
      vertex   2.150000e+01 0.000000e+00 1.575000e+01
      vertex   1.990000e+01 0.000000e+00 8.000000e-01
      vertex   1.990000e+01 0.000000e+00 -8.000000e-01
    endloop
  endfacet
  facet normal 0.000000e+00 -1.000000e+00 0.000000e+00
    outer loop
      vertex   1.990000e+01 0.000000e+00 -8.000000e-01
      vertex   1.990000e+01 0.000000e+00 8.000000e-01
      vertex   8.000000e-01 0.000000e+00 8.000000e-01
    endloop
  endfacet
  facet normal 0.000000e+00 -1.000000e+00 0.000000e+00
    outer loop
      vertex   1.990000e+01 0.000000e+00 -8.000000e-01
      vertex   8.000000e-01 0.000000e+00 8.000000e-01
      vertex   8.000000e-01 0.000000e+00 -8.000000e-01
    endloop
  endfacet
  facet normal 0.000000e+00 -1.000000e+00 0.000000e+00
    outer loop
      vertex   8.000000e-01 0.000000e+00 -8.000000e-01
      vertex   8.000000e-01 0.000000e+00 8.000000e-01
      vertex   -8.000000e-01 0.000000e+00 8.000000e-01
    endloop
  endfacet
  facet normal 0.000000e+00 -1.000000e+00 0.000000e+00
    outer loop
      vertex   8.000000e-01 0.000000e+00 -8.000000e-01
      vertex   -8.000000e-01 0.000000e+00 8.000000e-01
      vertex   -8.000000e-01 0.000000e+00 -8.000000e-01
    endloop
  endfacet
  facet normal 0.000000e+00 -1.000000e+00 0.000000e+00
    outer loop
      vertex   -8.000000e-01 0.000000e+00 -8.000000e-01
      vertex   -8.000000e-01 0.000000e+00 8.000000e-01
      vertex   -1.990000e+01 0.000000e+00 8.000000e-01
    endloop
  endfacet
  facet normal 0.000000e+00 -1.000000e+00 0.000000e+00
    outer loop
      vertex   -8.000000e-01 0.000000e+00 -8.000000e-01
      vertex   -1.990000e+01 0.000000e+00 8.000000e-01
      vertex   -1.990000e+01 0.000000e+00 -8.000000e-01
    endloop
  endfacet
  facet normal 0.000000e+00 -1.000000e+00 0.000000e+00
    outer loop
      vertex   -1.990000e+01 0.000000e+00 -8.000000e-01
      vertex   -1.990000e+01 0.000000e+00 8.000000e-01
      vertex   -2.150000e+01 0.000000e+00 1.575000e+01
    endloop
  endfacet
  facet normal -0.000000e+00 -1.000000e+00 0.000000e+00
    outer loop
      vertex   -1.990000e+01 0.000000e+00 -8.000000e-01
      vertex   -2.150000e+01 0.000000e+00 1.575000e+01
      vertex   -2.150000e+01 0.000000e+00 -1.575000e+01
    endloop
  endfacet
  facet normal 0.000000e+00 -1.000000e+00 0.000000e+00
    outer loop
      vertex   -8.000000e-01 0.000000e+00 8.000000e-01
      vertex   8.000000e-01 0.000000e+00 8.000000e-01
      vertex   -8.000000e-01 0.000000e+00 1.415000e+01
    endloop
  endfacet
  facet normal 0.000000e+00 -1.000000e+00 0.000000e+00
    outer loop
      vertex   -8.000000e-01 0.000000e+00 1.415000e+01
      vertex   8.000000e-01 0.000000e+00 8.000000e-01
      vertex   8.000000e-01 0.000000e+00 1.415000e+01
    endloop
  endfacet
  facet normal 0.000000e+00 -1.000000e+00 0.000000e+00
    outer loop
      vertex   -8.000000e-01 0.000000e+00 1.415000e+01
      vertex   8.000000e-01 0.000000e+00 1.415000e+01
      vertex   -2.150000e+01 0.000000e+00 1.575000e+01
    endloop
  endfacet
  facet normal 0.000000e+00 -1.000000e+00 0.000000e+00
    outer loop
      vertex   -2.150000e+01 0.000000e+00 1.575000e+01
      vertex   8.000000e-01 0.000000e+00 1.415000e+01
      vertex   2.150000e+01 0.000000e+00 1.575000e+01
    endloop
  endfacet
  facet normal 0.000000e+00 -1.000000e+00 0.000000e+00
    outer loop
      vertex   1.990000e+01 0.000000e+00 -8.000000e-01
      vertex   1.990000e+01 0.000000e+00 -1.415000e+01
      vertex   2.150000e+01 0.000000e+00 -1.575000e+01
    endloop
  endfacet
  facet normal 0.000000e+00 -1.000000e+00 0.000000e+00
    outer loop
      vertex   2.150000e+01 0.000000e+00 -1.575000e+01
      vertex   1.990000e+01 0.000000e+00 -1.415000e+01
      vertex   8.000000e-01 0.000000e+00 -1.415000e+01
    endloop
  endfacet
  facet normal 0.000000e+00 -1.000000e+00 0.000000e+00
    outer loop
      vertex   2.150000e+01 0.000000e+00 -1.575000e+01
      vertex   8.000000e-01 0.000000e+00 -1.415000e+01
      vertex   -8.000000e-01 0.000000e+00 -1.415000e+01
    endloop
  endfacet
  facet normal 0.000000e+00 -1.000000e+00 0.000000e+00
    outer loop
      vertex   -8.000000e-01 0.000000e+00 -1.415000e+01
      vertex   8.000000e-01 0.000000e+00 -1.415000e+01
      vertex   -8.000000e-01 0.000000e+00 -8.000000e-01
    endloop
  endfacet
  facet normal 0.000000e+00 -1.000000e+00 0.000000e+00
    outer loop
      vertex   -8.000000e-01 0.000000e+00 -8.000000e-01
      vertex   8.000000e-01 0.000000e+00 -1.415000e+01
      vertex   8.000000e-01 0.000000e+00 -8.000000e-01
    endloop
  endfacet
  facet normal 0.000000e+00 -1.000000e+00 -0.000000e+00
    outer loop
      vertex   2.150000e+01 0.000000e+00 1.575000e+01
      vertex   1.990000e+01 0.000000e+00 -8.000000e-01
      vertex   2.150000e+01 0.000000e+00 -1.575000e+01
    endloop
  endfacet
  facet normal 0.000000e+00 -1.000000e+00 0.000000e+00
    outer loop
      vertex   -8.000000e-01 0.000000e+00 -1.415000e+01
      vertex   -1.990000e+01 0.000000e+00 -1.415000e+01
      vertex   -2.150000e+01 0.000000e+00 -1.575000e+01
    endloop
  endfacet
  facet normal 0.000000e+00 -1.000000e+00 0.000000e+00
    outer loop
      vertex   -2.150000e+01 0.000000e+00 -1.575000e+01
      vertex   -1.990000e+01 0.000000e+00 -1.415000e+01
      vertex   -1.990000e+01 0.000000e+00 -8.000000e-01
    endloop
  endfacet
  facet normal 0.000000e+00 -1.000000e+00 0.000000e+00
    outer loop
      vertex   2.150000e+01 0.000000e+00 -1.575000e+01
      vertex   -8.000000e-01 0.000000e+00 -1.415000e+01
      vertex   -2.150000e+01 0.000000e+00 -1.575000e+01
    endloop
  endfacet
  facet normal 0.000000e+00 -1.000000e+00 0.000000e+00
    outer loop
      vertex   -1.990000e+01 0.000000e+00 8.000000e-01
      vertex   -1.990000e+01 0.000000e+00 1.415000e+01
      vertex   -2.150000e+01 0.000000e+00 1.575000e+01
    endloop
  endfacet
  facet normal 0.000000e+00 -1.000000e+00 0.000000e+00
    outer loop
      vertex   -2.150000e+01 0.000000e+00 1.575000e+01
      vertex   -1.990000e+01 0.000000e+00 1.415000e+01
      vertex   -8.000000e-01 0.000000e+00 1.415000e+01
    endloop
  endfacet
endsolid
