  0
SECTION
  2
HEADER
  9
$ACADVER
  1
AC1009
  0
ENDSEC
  0
SECTION
  2
ENTITIES
  0
POLYLINE
  5
90
  8
Layer_1
  62
30
  66
1
  10
0
  20
0
  30
0
  0
VERTEX
  5
90
  8
Layer_1
  10
469.97363
  20
301.90369
  42
0.014684493
  0
VERTEX
  5
91
  8
Layer_1
  10
470.59308
  20
302.03186
  42
0.020988387
  0
VERTEX
  5
92
  8
Layer_1
  10
471.13104
  20
302.1832
  42
0.031950718
  0
VERTEX
  5
93
  8
Layer_1
  10
471.57733
  20
302.36032
  0
VERTEX
  5
94
  8
Layer_1
  10
471.57733
  20
305.28729
  42
-0.0024324345
  0
VERTEX
  5
95
  8
Layer_1
  10
471.526
  20
305.27258
  42
-0.013071325
  0
VERTEX
  5
96
  8
Layer_1
  10
471.12109
  20
305.17096
  42
-0.0093325373
  0
VERTEX
  5
97
  8
Layer_1
  10
470.63159
  20
305.07089
  42
-0.0067682693
  0
VERTEX
  5
98
  8
Layer_1
  10
470.07928
  20
304.97614
  42
-0.0026554329
  0
VERTEX
  5
99
  8
Layer_1
  10
469.96088
  20
304.95801
  42
-0.036767013
  0
VERTEX
  5
9a
  8
Layer_1
  10
468.1203
  20
304.82635
  42
-0.038712377
  0
VERTEX
  5
9b
  8
Layer_1
  10
467.33209
  20
304.8848
  42
-0.17973521
  0
VERTEX
  5
9c
  8
Layer_1
  10
465.14728
  20
306.04782
  42
-0.066753058
  0
VERTEX
  5
9d
  8
Layer_1
  10
464.59888
  20
306.86801
  42
-0.070998351
  0
VERTEX
  5
9e
  8
Layer_1
  10
464.17517
  20
308.19806
  42
-0.044155794
  0
VERTEX
  5
9f
  8
Layer_1
  10
464.06409
  20
309.55096
  0
VERTEX
  5
a0
  8
Layer_1
  10
464.06409
  20
324.4162
  0
VERTEX
  5
a1
  8
Layer_1
  10
471.39294
  20
324.4162
  0
VERTEX
  5
a2
  8
Layer_1
  10
471.39294
  20
327.38922
  0
VERTEX
  5
a3
  8
Layer_1
  10
464.06409
  20
327.38922
  0
VERTEX
  5
a4
  8
Layer_1
  10
464.06409
  20
333.24313
  0
VERTEX
  5
a5
  8
Layer_1
  10
461.85156
  20
333.24313
  0
VERTEX
  5
a6
  8
Layer_1
  10
460.23828
  20
327.85016
  0
VERTEX
  5
a7
  8
Layer_1
  10
456.61993
  20
326.25995
  0
VERTEX
  5
a8
  8
Layer_1
  10
456.61993
  20
324.4162
  0
VERTEX
  5
a9
  8
Layer_1
  10
460.23828
  20
324.4162
  0
VERTEX
  5
aa
  8
Layer_1
  10
460.23828
  20
309.38962
  42
0.058936648
  0
VERTEX
  5
ab
  8
Layer_1
  10
460.53857
  20
306.58029
  42
0.28435838
  0
VERTEX
  5
ac
  8
Layer_1
  10
464.6225
  20
302.06525
  42
0.074752279
  0
VERTEX
  5
ad
  8
Layer_1
  10
467.56714
  20
301.66891
  42
0.0032615714
  0
VERTEX
  5
ae
  8
Layer_1
  10
467.69684
  20
301.6698
  42
0.02030892
  0
VERTEX
  5
af
  8
Layer_1
  10
468.66394
  20
301.72421
  42
0.016434646
  0
VERTEX
  5
b0
  8
Layer_1
  10
469.74512
  20
301.86481
  42
0.004008616
  0
VERTEX
  5
b1
  8
Layer_1
  10
469.97363
  20
301.90369
  0
SEQEND
  0
POLYLINE
  5
b3
  8
Layer_1
  62
30
  66
1
  10
0
  20
0
  30
0
  0
VERTEX
  5
b3
  8
Layer_1
  10
498.07587
  20
310.93832
  42
0.048940816
  0
VERTEX
  5
b4
  8
Layer_1
  10
498.427
  20
314.78259
  42
0.0066325119
  0
VERTEX
  5
b5
  8
Layer_1
  10
498.41882
  20
315.38995
  42
0.055702138
  0
VERTEX
  5
b6
  8
Layer_1
  10
497.90656
  20
319.27872
  42
0.12087979
  0
VERTEX
  5
b7
  8
Layer_1
  10
495.30408
  20
324.32397
  42
0.14084929
  0
VERTEX
  5
b8
  8
Layer_1
  10
490.6546
  20
327.32281
  42
0.074514947
  0
VERTEX
  5
b9
  8
Layer_1
  10
486.88049
  20
327.85016
  42
0.045160773
  0
VERTEX
  5
ba
  8
Layer_1
  10
484.21155
  20
327.62115
  42
0.17096407
  0
VERTEX
  5
bb
  8
Layer_1
  10
478.30701
  20
324.40466
  42
0.052627733
  0
VERTEX
  5
bc
  8
Layer_1
  10
477.00891
  20
322.60461
  42
0.082033156
  0
VERTEX
  5
bd
  8
Layer_1
  10
475.56726
  20
318.62427
  42
0.048663785
  0
VERTEX
  5
be
  8
Layer_1
  10
475.21875
  20
314.78259
  42
0.040666418
  0
VERTEX
  5
bf
  8
Layer_1
  10
475.45917
  20
311.6825
  42
0.071711993
  0
VERTEX
  5
c0
  8
Layer_1
  10
476.64764
  20
307.82245
  42
0.012174505
  0
VERTEX
  5
c1
  8
Layer_1
  10
476.92609
  20
307.27716
  42
0.13556985
  0
VERTEX
  5
c2
  8
Layer_1
  10
480.70392
  20
303.25916
  42
0.063047555
  0
VERTEX
  5
c3
  8
Layer_1
  10
483.14917
  20
302.17188
  42
0.073762305
  0
VERTEX
  5
c4
  8
Layer_1
  10
486.71912
  20
301.66891
  42
0.043890025
  0
VERTEX
  5
c5
  8
Layer_1
  10
489.31335
  20
301.88571
  42
0.17228892
  0
VERTEX
  5
c6
  8
Layer_1
  10
495.31561
  20
305.13748
  42
0.050710769
  0
VERTEX
  5
c7
  8
Layer_1
  10
496.58636
  20
306.88336
  42
0.083797451
  0
VERTEX
  5
c8
  8
Layer_1
  10
498.07587
  20
310.93832
  0
SEQEND
  0
POLYLINE
  5
ca
  8
Layer_1
  62
30
  66
1
  10
0
  20
0
  30
0
  0
VERTEX
  5
ca
  8
Layer_1
  10
489.15576
  20
305.16388
  42
0.16764479
  0
VERTEX
  5
cb
  8
Layer_1
  10
492.51544
  20
307.39606
  42
0.085873143
  0
VERTEX
  5
cc
  8
Layer_1
  10
493.79425
  20
309.88702
  42
0.04973278
  0
VERTEX
  5
cd
  8
Layer_1
  10
494.33496
  20
312.44312
  42
0.029076719
  0
VERTEX
  5
ce
  8
Layer_1
  10
494.46289
  20
314.78259
  42
0.035759348
  0
VERTEX
  5
cf
  8
Layer_1
  10
494.2821
  20
317.50281
  42
0.053823934
  0
VERTEX
  5
d0
  8
Layer_1
  10
493.6615
  20
320.00922
  42
0.07612674
  0
VERTEX
  5
d1
  8
Layer_1
  10
492.51544
  20
322.09998
  42
0.18733854
  0
VERTEX
  5
d2
  8
Layer_1
  10
488.60272
  20
324.43436
  42
0.047913313
  0
VERTEX
  5
d3
  8
Layer_1
  10
486.7652
  20
324.60056
  42
0.062921508
  0
VERTEX
  5
d4
  8
Layer_1
  10
484.49847
  20
324.33505
  42
0.17113258
  0
VERTEX
  5
d5
  8
Layer_1
  10
481.0957
  20
322.13455
  42
0.085171263
  0
VERTEX
  5
d6
  8
Layer_1
  10
479.86609
  20
319.75842
  42
0.048487829
  0
VERTEX
  5
d7
  8
Layer_1
  10
479.33295
  20
317.33026
  42
0.031587645
  0
VERTEX
  5
d8
  8
Layer_1
  10
479.1828
  20
314.78259
  42
0.035826185
  0
VERTEX
  5
d9
  8
Layer_1
  10
479.36713
  20
312.01498
  42
0.053874479
  0
VERTEX
  5
da
  8
Layer_1
  10
479.99799
  20
309.47192
  42
0.073556804
  0
VERTEX
  5
db
  8
Layer_1
  10
481.11871
  20
307.40759
  42
0.19622848
  0
VERTEX
  5
dc
  8
Layer_1
  10
485.20258
  20
305.00256
  42
0.042537524
  0
VERTEX
  5
dd
  8
Layer_1
  10
486.81134
  20
304.87244
  42
0.066753735
  0
VERTEX
  5
de
  8
Layer_1
  10
489.15576
  20
305.16388
  0
SEQEND
  0
POLYLINE
  5
e0
  8
Layer_1
  62
30
  66
1
  10
0
  20
0
  30
0
  0
VERTEX
  5
e0
  8
Layer_1
  10
525.99103
  20
307.38361
  42
-0.062158477
  0
VERTEX
  5
e1
  8
Layer_1
  10
524.59668
  20
305.11444
  42
-0.20956985
  0
VERTEX
  5
e2
  8
Layer_1
  10
518.15955
  20
301.72968
  42
-0.024553772
  0
VERTEX
  5
e3
  8
Layer_1
  10
516.88751
  20
301.66891
  42
-0.063533846
  0
VERTEX
  5
e4
  8
Layer_1
  10
513.9715
  20
302.02454
  42
-0.041748882
  0
VERTEX
  5
e5
  8
Layer_1
  10
512.38184
  20
302.57928
  42
-0.13276576
  0
VERTEX
  5
e6
  8
Layer_1
  10
508.95935
  20
305.37946
  0
VERTEX
  5
e7
  8
Layer_1
  10
508.6828
  20
305.37946
  42
-0.018563224
  0
VERTEX
  5
e8
  8
Layer_1
  10
508.92047
  20
302.70386
  42
-0.012536697
  0
VERTEX
  5
e9
  8
Layer_1
  10
508.95941
  20
301.18494
  0
VERTEX
  5
ea
  8
Layer_1
  10
508.95935
  20
290.7908
  0
VERTEX
  5
eb
  8
Layer_1
  10
505.13361
  20
290.7908
  0
VERTEX
  5
ec
  8
Layer_1
  10
505.13361
  20
327.38922
  0
VERTEX
  5
ed
  8
Layer_1
  10
508.24493
  20
327.38922
  0
VERTEX
  5
ee
  8
Layer_1
  10
508.77502
  20
323.93219
  0
VERTEX
  5
ef
  8
Layer_1
  10
508.95935
  20
323.93219
  42
-0.054864326
  0
VERTEX
  5
f0
  8
Layer_1
  10
510.44855
  20
325.6236
  42
-0.073929595
  0
VERTEX
  5
f1
  8
Layer_1
  10
512.39331
  20
326.92828
  42
-0.075084549
  0
VERTEX
  5
f2
  8
Layer_1
  10
515.13977
  20
327.73111
  42
-0.035359111
  0
VERTEX
  5
f3
  8
Layer_1
  10
516.88751
  20
327.85016
  42
-0.071618496
  0
VERTEX
  5
f4
  8
Layer_1
  10
520.20044
  20
327.40729
  42
-0.15833424
  0
VERTEX
  5
f5
  8
Layer_1
  10
524.64276
  20
324.4162
  42
-0.094410295
  0
VERTEX
  5
f6
  8
Layer_1
  10
526.60303
  20
320.58914
  42
-0.05255873
  0
VERTEX
  5
f7
  8
Layer_1
  10
527.28278
  20
316.95465
  42
-0.021833285
  0
VERTEX
  5
f8
  8
Layer_1
  10
527.37384
  20
314.78259
  42
-0.042267949
  0
VERTEX
  5
f9
  8
Layer_1
  10
527.0766
  20
311.00836
  42
-0.065529987
  0
VERTEX
  5
fa
  8
Layer_1
  10
525.99103
  20
307.38361
  0
SEQEND
  0
POLYLINE
  5
fc
  8
Layer_1
  62
30
  66
1
  10
0
  20
0
  30
0
  0
VERTEX
  5
fc
  8
Layer_1
  10
514.27502
  20
324.42145
  42
-0.046980286
  0
VERTEX
  5
fd
  8
Layer_1
  10
516.33435
  20
324.60059
  42
-0.026392803
  0
VERTEX
  5
fe
  8
Layer_1
  10
517.20154
  20
324.55603
  42
-0.22067588
  0
VERTEX
  5
ff
  8
Layer_1
  10
521.5545
  20
322.07693
  42
-0.069931299
  0
VERTEX
  5
100
  8
Layer_1
  10
522.61078
  20
320.08185
  42
-0.053162646
  0
VERTEX
  5
101
  8
Layer_1
  10
523.22858
  20
317.56662
  42
-0.035562484
  0
VERTEX
  5
102
  8
Layer_1
  10
523.40979
  20
314.82867
  42
-0.02304859
  0
VERTEX
  5
103
  8
Layer_1
  10
523.32721
  20
312.95386
  42
-0.048811628
  0
VERTEX
  5
104
  8
Layer_1
  10
522.82275
  20
310.22571
  42
-0.081224918
  0
VERTEX
  5
105
  8
Layer_1
  10
521.5545
  20
307.52283
  42
-0.0080633456
  0
VERTEX
  5
106
  8
Layer_1
  10
521.40979
  20
307.32306
  42
-0.13607037
  0
VERTEX
  5
107
  8
Layer_1
  10
518.93298
  20
305.34305
  42
-0.099886619
  0
VERTEX
  5
108
  8
Layer_1
  10
516.42657
  20
304.87244
  42
-0.016040973
  0
VERTEX
  5
109
  8
Layer_1
  10
515.63843
  20
304.897
  42
-0.059889289
  0
VERTEX
  5
10a
  8
Layer_1
  10
513.54944
  20
305.26559
  42
-0.1567479
  0
VERTEX
  5
10b
  8
Layer_1
  10
510.73395
  20
307.16562
  42
-0.039355996
  0
VERTEX
  5
10c
  8
Layer_1
  10
510.23975
  20
307.92505
  42
-0.061508975
  0
VERTEX
  5
10d
  8
Layer_1
  10
509.47882
  20
309.90912
  42
-0.037609179
  0
VERTEX
  5
10e
  8
Layer_1
  10
509.08459
  20
312.16815
  42
-0.025895562
  0
VERTEX
  5
10f
  8
Layer_1
  10
508.95935
  20
314.78259
  0
VERTEX
  5
110
  8
Layer_1
  10
508.95935
  20
315.63531
  42
-0.0060089214
  0
VERTEX
  5
111
  8
Layer_1
  10
508.97211
  20
316.22211
  42
-0.031609056
  0
VERTEX
  5
112
  8
Layer_1
  10
509.18561
  20
318.52618
  42
-0.047839706
  0
VERTEX
  5
113
  8
Layer_1
  10
509.70886
  20
320.58923
  42
-0.081803094
  0
VERTEX
  5
114
  8
Layer_1
  10
510.73395
  20
322.45721
  42
-0.09834212
  0
VERTEX
  5
115
  8
Layer_1
  10
512.2475
  20
323.71783
  42
-0.079150501
  0
VERTEX
  5
116
  8
Layer_1
  10
514.27502
  20
324.42145
  0
SEQEND
  0
CIRCLE
  5
118
  8
Layer_0
  62
0
  10
403.97852
  20
391.02277
  30
0
  40
1.75
  0
CIRCLE
  5
118
  8
Layer_0
  62
0
  10
581.27173
  20
389.26544
  30
0
  40
6
  0
CIRCLE
  5
118
  8
Layer_0
  62
0
  10
583.61084
  20
304.76569
  30
0
  40
1.75
  0
CIRCLE
  5
118
  8
Layer_0
  62
0
  10
583.61084
  20
233.99664
  30
0
  40
1.75
  0
POLYLINE
  5
118
  8
Layer_0
  62
0
  66
1
  10
0
  20
0
  30
0
  0
VERTEX
  5
118
  8
Layer_0
  10
574.75
  20
266.81287
  42
0.41421356
  0
VERTEX
  5
119
  8
Layer_0
  10
576.75
  20
268.81287
  42
0.41421356
  0
VERTEX
  5
11a
  8
Layer_0
  10
574.75
  20
270.81287
  42
0.41421356
  0
VERTEX
  5
11b
  8
Layer_0
  10
572.75
  20
268.81287
  0
VERTEX
  5
11c
  8
Layer_0
  10
572.75
  20
250.07507
  42
0.41421356
  0
VERTEX
  5
11d
  8
Layer_0
  10
574.75
  20
248.07507
  42
0.41421356
  0
VERTEX
  5
11e
  8
Layer_0
  10
576.75
  20
250.07507
  42
0.41421356
  0
VERTEX
  5
11f
  8
Layer_0
  10
574.75
  20
252.07507
  0
VERTEX
  5
120
  8
Layer_0
  10
574.75
  20
266.81287
  0
SEQEND
  0
POLYLINE
  5
122
  8
Layer_1
  62
30
  66
1
  10
0
  20
0
  30
0
  0
VERTEX
  5
122
  8
Layer_1
  10
690.49377
  20
427.01697
  0
VERTEX
  5
123
  8
Layer_1
  10
654.375
  20
427.01697
  0
VERTEX
  5
124
  8
Layer_1
  10
654.375
  20
430.01697
  0
VERTEX
  5
125
  8
Layer_1
  10
625.125
  20
430.01697
  0
VERTEX
  5
126
  8
Layer_1
  10
625.125
  20
427.01697
  0
VERTEX
  5
127
  8
Layer_1
  10
595.875
  20
427.01697
  0
VERTEX
  5
128
  8
Layer_1
  10
595.875
  20
430.01697
  0
VERTEX
  5
129
  8
Layer_1
  10
566.625
  20
430.01697
  0
VERTEX
  5
12a
  8
Layer_1
  10
566.625
  20
427.01697
  0
VERTEX
  5
12b
  8
Layer_1
  10
537.375
  20
427.01697
  0
VERTEX
  5
12c
  8
Layer_1
  10
537.375
  20
430.01697
  0
VERTEX
  5
12d
  8
Layer_1
  10
508.125
  20
430.01697
  0
VERTEX
  5
12e
  8
Layer_1
  10
508.125
  20
427.01697
  0
VERTEX
  5
12f
  8
Layer_1
  10
478.875
  20
427.01697
  0
VERTEX
  5
130
  8
Layer_1
  10
478.875
  20
430.01697
  0
VERTEX
  5
131
  8
Layer_1
  10
449.625
  20
430.01697
  0
VERTEX
  5
132
  8
Layer_1
  10
449.625
  20
427.01697
  0
VERTEX
  5
133
  8
Layer_1
  10
420.375
  20
427.01697
  0
VERTEX
  5
134
  8
Layer_1
  10
420.375
  20
430.01697
  0
VERTEX
  5
135
  8
Layer_1
  10
391.125
  20
430.01697
  0
VERTEX
  5
136
  8
Layer_1
  10
391.125
  20
427.01697
  0
VERTEX
  5
137
  8
Layer_1
  10
361.875
  20
427.01697
  0
VERTEX
  5
138
  8
Layer_1
  10
361.875
  20
430.01697
  0
VERTEX
  5
139
  8
Layer_1
  10
332.625
  20
430.01697
  0
VERTEX
  5
13a
  8
Layer_1
  10
332.625
  20
427.01697
  0
VERTEX
  5
13b
  8
Layer_1
  10
303.375
  20
427.01697
  0
VERTEX
  5
13c
  8
Layer_1
  10
296.5
  20
427.01697
  0
VERTEX
  5
13d
  8
Layer_1
  10
296.5
  20
385.14197
  0
VERTEX
  5
13e
  8
Layer_1
  10
293.5
  20
385.14197
  0
VERTEX
  5
13f
  8
Layer_1
  10
293.5
  20
355.89197
  0
VERTEX
  5
140
  8
Layer_1
  10
296.5
  20
355.89197
  0
VERTEX
  5
141
  8
Layer_1
  10
296.5
  20
326.64197
  0
VERTEX
  5
142
  8
Layer_1
  10
293.5
  20
326.64197
  0
VERTEX
  5
143
  8
Layer_1
  10
293.5
  20
297.39197
  0
VERTEX
  5
144
  8
Layer_1
  10
296.5
  20
297.39197
  0
VERTEX
  5
145
  8
Layer_1
  10
296.5
  20
268.14197
  0
VERTEX
  5
146
  8
Layer_1
  10
293.5
  20
268.14197
  0
VERTEX
  5
147
  8
Layer_1
  10
293.5
  20
238.89197
  0
VERTEX
  5
148
  8
Layer_1
  10
296.5
  20
238.89197
  0
VERTEX
  5
149
  8
Layer_1
  10
296.5
  20
209.64197
  0
VERTEX
  5
14a
  8
Layer_1
  10
296.5
  20
197.01697
  0
VERTEX
  5
14b
  8
Layer_1
  10
332.625
  20
197.01697
  0
VERTEX
  5
14c
  8
Layer_1
  10
332.625
  20
194.01697
  0
VERTEX
  5
14d
  8
Layer_1
  10
361.875
  20
194.01697
  0
VERTEX
  5
14e
  8
Layer_1
  10
361.875
  20
197.01697
  0
VERTEX
  5
14f
  8
Layer_1
  10
391.125
  20
197.01697
  0
VERTEX
  5
150
  8
Layer_1
  10
391.125
  20
194.01697
  0
VERTEX
  5
151
  8
Layer_1
  10
420.375
  20
194.01697
  0
VERTEX
  5
152
  8
Layer_1
  10
420.375
  20
197.01697
  0
VERTEX
  5
153
  8
Layer_1
  10
449.625
  20
197.01697
  0
VERTEX
  5
154
  8
Layer_1
  10
449.625
  20
194.01697
  0
VERTEX
  5
155
  8
Layer_1
  10
478.875
  20
194.01697
  0
VERTEX
  5
156
  8
Layer_1
  10
478.875
  20
197.01697
  0
VERTEX
  5
157
  8
Layer_1
  10
508.125
  20
197.01697
  0
VERTEX
  5
158
  8
Layer_1
  10
508.125
  20
194.01697
  0
VERTEX
  5
159
  8
Layer_1
  10
537.375
  20
194.01697
  0
VERTEX
  5
15a
  8
Layer_1
  10
537.375
  20
197.01697
  0
VERTEX
  5
15b
  8
Layer_1
  10
566.625
  20
197.01697
  0
VERTEX
  5
15c
  8
Layer_1
  10
566.625
  20
194.01697
  0
VERTEX
  5
15d
  8
Layer_1
  10
595.875
  20
194.01697
  0
VERTEX
  5
15e
  8
Layer_1
  10
595.875
  20
197.01697
  0
VERTEX
  5
15f
  8
Layer_1
  10
625.125
  20
197.01697
  0
VERTEX
  5
160
  8
Layer_1
  10
625.125
  20
194.01697
  0
VERTEX
  5
161
  8
Layer_1
  10
654.375
  20
194.01697
  0
VERTEX
  5
162
  8
Layer_1
  10
654.375
  20
197.01697
  0
VERTEX
  5
163
  8
Layer_1
  10
683.625
  20
197.01697
  0
VERTEX
  5
164
  8
Layer_1
  10
690.49377
  20
197.01697
  0
SEQEND
  0
POLYLINE
  5
166
  8
Layer_1
  62
30
  66
1
  10
0
  20
0
  30
0
  0
VERTEX
  5
166
  8
Layer_1
  10
654.37494
  20
197.01697
  0
VERTEX
  5
167
  8
Layer_1
  10
690.49371
  20
197.01697
  0
VERTEX
  5
168
  8
Layer_1
  10
690.49371
  20
194.01697
  0
VERTEX
  5
169
  8
Layer_1
  10
654.37494
  20
194.01697
  0
VERTEX
  5
16a
  8
Layer_1
  10
654.37494
  20
197.01697
  0
SEQEND
  0
POLYLINE
  5
16c
  8
Layer_0
  62
0
  66
1
  10
0
  20
0
  30
0
  0
VERTEX
  5
16c
  8
Layer_0
  10
303.375
  20
427.01703
  0
VERTEX
  5
16d
  8
Layer_0
  10
332.625
  20
427.01703
  0
VERTEX
  5
16e
  8
Layer_0
  10
332.625
  20
430.01703
  0
VERTEX
  5
16f
  8
Layer_0
  10
361.875
  20
430.01703
  0
VERTEX
  5
170
  8
Layer_0
  10
361.875
  20
427.01703
  0
VERTEX
  5
171
  8
Layer_0
  10
391.125
  20
427.01703
  0
VERTEX
  5
172
  8
Layer_0
  10
391.125
  20
430.01703
  0
VERTEX
  5
173
  8
Layer_0
  10
420.375
  20
430.01703
  0
VERTEX
  5
174
  8
Layer_0
  10
420.375
  20
427.01703
  0
VERTEX
  5
175
  8
Layer_0
  10
449.625
  20
427.01703
  0
VERTEX
  5
176
  8
Layer_0
  10
449.625
  20
430.01703
  0
VERTEX
  5
177
  8
Layer_0
  10
478.875
  20
430.01703
  0
VERTEX
  5
178
  8
Layer_0
  10
478.875
  20
427.01703
  0
VERTEX
  5
179
  8
Layer_0
  10
508.125
  20
427.01703
  0
VERTEX
  5
17a
  8
Layer_0
  10
508.125
  20
430.01703
  0
VERTEX
  5
17b
  8
Layer_0
  10
537.375
  20
430.01703
  0
VERTEX
  5
17c
  8
Layer_0
  10
537.375
  20
427.01703
  0
VERTEX
  5
17d
  8
Layer_0
  10
566.625
  20
427.01703
  0
VERTEX
  5
17e
  8
Layer_0
  10
566.625
  20
430.01703
  0
VERTEX
  5
17f
  8
Layer_0
  10
595.875
  20
430.01703
  0
VERTEX
  5
180
  8
Layer_0
  10
595.875
  20
427.01703
  0
VERTEX
  5
181
  8
Layer_0
  10
625.125
  20
427.01703
  0
VERTEX
  5
182
  8
Layer_0
  10
625.125
  20
430.01703
  0
VERTEX
  5
183
  8
Layer_0
  10
654.375
  20
430.01703
  0
VERTEX
  5
184
  8
Layer_0
  10
654.375
  20
427.01703
  0
VERTEX
  5
185
  8
Layer_0
  10
690.5
  20
427.01703
  0
VERTEX
  5
186
  8
Layer_0
  10
690.5
  20
414.39203
  0
VERTEX
  5
187
  8
Layer_0
  10
690.5
  20
385.14203
  0
VERTEX
  5
188
  8
Layer_0
  10
693.5
  20
385.14203
  0
VERTEX
  5
189
  8
Layer_0
  10
693.5
  20
355.89203
  0
VERTEX
  5
18a
  8
Layer_0
  10
690.5
  20
355.89203
  0
VERTEX
  5
18b
  8
Layer_0
  10
690.5
  20
326.64203
  0
VERTEX
  5
18c
  8
Layer_0
  10
693.5
  20
326.64203
  0
VERTEX
  5
18d
  8
Layer_0
  10
693.5
  20
297.39203
  0
VERTEX
  5
18e
  8
Layer_0
  10
690.5
  20
297.39203
  0
VERTEX
  5
18f
  8
Layer_0
  10
690.5
  20
268.14203
  0
VERTEX
  5
190
  8
Layer_0
  10
693.5
  20
268.14203
  0
VERTEX
  5
191
  8
Layer_0
  10
693.5
  20
238.89203
  0
VERTEX
  5
192
  8
Layer_0
  10
690.5
  20
238.89203
  0
VERTEX
  5
193
  8
Layer_0
  10
690.5
  20
197.01703
  0
VERTEX
  5
194
  8
Layer_0
  10
683.625
  20
197.01703
  0
VERTEX
  5
195
  8
Layer_0
  10
654.375
  20
197.01703
  0
VERTEX
  5
196
  8
Layer_0
  10
654.375
  20
194.01703
  0
VERTEX
  5
197
  8
Layer_0
  10
625.125
  20
194.01703
  0
VERTEX
  5
198
  8
Layer_0
  10
625.125
  20
197.01703
  0
VERTEX
  5
199
  8
Layer_0
  10
595.875
  20
197.01703
  0
VERTEX
  5
19a
  8
Layer_0
  10
595.875
  20
194.01703
  0
VERTEX
  5
19b
  8
Layer_0
  10
566.625
  20
194.01703
  0
VERTEX
  5
19c
  8
Layer_0
  10
566.625
  20
197.01703
  0
VERTEX
  5
19d
  8
Layer_0
  10
537.375
  20
197.01703
  0
VERTEX
  5
19e
  8
Layer_0
  10
537.375
  20
194.01703
  0
VERTEX
  5
19f
  8
Layer_0
  10
508.125
  20
194.01703
  0
VERTEX
  5
1a0
  8
Layer_0
  10
508.125
  20
197.01703
  0
VERTEX
  5
1a1
  8
Layer_0
  10
478.875
  20
197.01703
  0
VERTEX
  5
1a2
  8
Layer_0
  10
478.875
  20
194.01703
  0
VERTEX
  5
1a3
  8
Layer_0
  10
449.625
  20
194.01703
  0
VERTEX
  5
1a4
  8
Layer_0
  10
449.625
  20
197.01703
  0
VERTEX
  5
1a5
  8
Layer_0
  10
420.375
  20
197.01703
  0
VERTEX
  5
1a6
  8
Layer_0
  10
420.375
  20
194.01703
  0
VERTEX
  5
1a7
  8
Layer_0
  10
391.125
  20
194.01703
  0
VERTEX
  5
1a8
  8
Layer_0
  10
391.125
  20
197.01703
  0
VERTEX
  5
1a9
  8
Layer_0
  10
361.875
  20
197.01703
  0
VERTEX
  5
1aa
  8
Layer_0
  10
361.875
  20
194.01703
  0
VERTEX
  5
1ab
  8
Layer_0
  10
332.625
  20
194.01703
  0
VERTEX
  5
1ac
  8
Layer_0
  10
332.625
  20
197.01703
  0
VERTEX
  5
1ad
  8
Layer_0
  10
296.5
  20
197.01703
  0
VERTEX
  5
1ae
  8
Layer_0
  10
296.5
  20
209.64203
  0
VERTEX
  5
1af
  8
Layer_0
  10
296.5
  20
238.89203
  0
VERTEX
  5
1b0
  8
Layer_0
  10
293.5
  20
238.89203
  0
VERTEX
  5
1b1
  8
Layer_0
  10
293.5
  20
268.14203
  0
VERTEX
  5
1b2
  8
Layer_0
  10
296.5
  20
268.14203
  0
VERTEX
  5
1b3
  8
Layer_0
  10
296.5
  20
297.39203
  0
VERTEX
  5
1b4
  8
Layer_0
  10
293.5
  20
297.39203
  0
VERTEX
  5
1b5
  8
Layer_0
  10
293.5
  20
326.64203
  0
VERTEX
  5
1b6
  8
Layer_0
  10
296.5
  20
326.64203
  0
VERTEX
  5
1b7
  8
Layer_0
  10
296.5
  20
355.89203
  0
VERTEX
  5
1b8
  8
Layer_0
  10
293.5
  20
355.89203
  0
VERTEX
  5
1b9
  8
Layer_0
  10
293.5
  20
385.14203
  0
VERTEX
  5
1ba
  8
Layer_0
  10
296.5
  20
385.14203
  0
VERTEX
  5
1bb
  8
Layer_0
  10
296.5
  20
427.01703
  0
VERTEX
  5
1bc
  8
Layer_0
  10
303.375
  20
427.01703
  0
SEQEND
  0
POLYLINE
  5
1be
  8
Layer_0
  62
0
  66
1
  10
0
  20
0
  30
0
  0
VERTEX
  5
1be
  8
Layer_0
  10
314.59326
  20
695.98309
  0
VERTEX
  5
1bf
  8
Layer_0
  10
343.84326
  20
695.98309
  0
VERTEX
  5
1c0
  8
Layer_0
  10
343.84326
  20
692.98309
  0
VERTEX
  5
1c1
  8
Layer_0
  10
373.09326
  20
692.98309
  0
VERTEX
  5
1c2
  8
Layer_0
  10
373.09326
  20
695.98309
  0
VERTEX
  5
1c3
  8
Layer_0
  10
402.34326
  20
695.98309
  0
VERTEX
  5
1c4
  8
Layer_0
  10
402.34326
  20
692.98309
  0
VERTEX
  5
1c5
  8
Layer_0
  10
431.59326
  20
692.98309
  0
VERTEX
  5
1c6
  8
Layer_0
  10
431.59326
  20
695.98309
  0
VERTEX
  5
1c7
  8
Layer_0
  10
460.84326
  20
695.98309
  0
VERTEX
  5
1c8
  8
Layer_0
  10
460.84326
  20
692.98309
  0
VERTEX
  5
1c9
  8
Layer_0
  10
490.09326
  20
692.98309
  0
VERTEX
  5
1ca
  8
Layer_0
  10
490.09326
  20
695.98309
  0
VERTEX
  5
1cb
  8
Layer_0
  10
519.34326
  20
695.98309
  0
VERTEX
  5
1cc
  8
Layer_0
  10
519.34326
  20
692.98309
  0
VERTEX
  5
1cd
  8
Layer_0
  10
548.59326
  20
692.98309
  0
VERTEX
  5
1ce
  8
Layer_0
  10
548.59326
  20
695.98309
  0
VERTEX
  5
1cf
  8
Layer_0
  10
577.84326
  20
695.98309
  0
VERTEX
  5
1d0
  8
Layer_0
  10
577.84326
  20
692.98309
  0
VERTEX
  5
1d1
  8
Layer_0
  10
607.09326
  20
692.98309
  0
VERTEX
  5
1d2
  8
Layer_0
  10
607.09326
  20
695.98309
  0
VERTEX
  5
1d3
  8
Layer_0
  10
636.34326
  20
695.98309
  0
VERTEX
  5
1d4
  8
Layer_0
  10
636.34326
  20
692.98309
  0
VERTEX
  5
1d5
  8
Layer_0
  10
665.59326
  20
692.98309
  0
VERTEX
  5
1d6
  8
Layer_0
  10
665.59326
  20
695.98309
  0
VERTEX
  5
1d7
  8
Layer_0
  10
704.71826
  20
695.98309
  0
VERTEX
  5
1d8
  8
Layer_0
  10
704.71826
  20
680.35809
  0
VERTEX
  5
1d9
  8
Layer_0
  10
704.71826
  20
651.10809
  0
VERTEX
  5
1da
  8
Layer_0
  10
701.71826
  20
651.10809
  0
VERTEX
  5
1db
  8
Layer_0
  10
701.71826
  20
621.85809
  0
VERTEX
  5
1dc
  8
Layer_0
  10
704.71826
  20
621.85809
  0
VERTEX
  5
1dd
  8
Layer_0
  10
704.71826
  20
592.60809
  0
VERTEX
  5
1de
  8
Layer_0
  10
701.71826
  20
592.60809
  0
VERTEX
  5
1df
  8
Layer_0
  10
701.71826
  20
563.35809
  0
VERTEX
  5
1e0
  8
Layer_0
  10
704.71826
  20
563.35809
  0
VERTEX
  5
1e1
  8
Layer_0
  10
704.71826
  20
534.10809
  0
VERTEX
  5
1e2
  8
Layer_0
  10
701.71826
  20
534.10809
  0
VERTEX
  5
1e3
  8
Layer_0
  10
701.71826
  20
504.85809
  0
VERTEX
  5
1e4
  8
Layer_0
  10
704.71826
  20
504.85809
  0
VERTEX
  5
1e5
  8
Layer_0
  10
704.71826
  20
459.98309
  0
VERTEX
  5
1e6
  8
Layer_0
  10
694.84326
  20
459.98309
  0
VERTEX
  5
1e7
  8
Layer_0
  10
665.59326
  20
459.98309
  0
VERTEX
  5
1e8
  8
Layer_0
  10
665.59326
  20
462.98309
  0
VERTEX
  5
1e9
  8
Layer_0
  10
636.34326
  20
462.98309
  0
VERTEX
  5
1ea
  8
Layer_0
  10
636.34326
  20
459.98309
  0
VERTEX
  5
1eb
  8
Layer_0
  10
607.09326
  20
459.98309
  0
VERTEX
  5
1ec
  8
Layer_0
  10
607.09326
  20
462.98309
  0
VERTEX
  5
1ed
  8
Layer_0
  10
577.84326
  20
462.98309
  0
VERTEX
  5
1ee
  8
Layer_0
  10
577.84326
  20
459.98309
  0
VERTEX
  5
1ef
  8
Layer_0
  10
548.59326
  20
459.98309
  0
VERTEX
  5
1f0
  8
Layer_0
  10
548.59326
  20
462.98309
  0
VERTEX
  5
1f1
  8
Layer_0
  10
519.34326
  20
462.98309
  0
VERTEX
  5
1f2
  8
Layer_0
  10
519.34326
  20
459.98309
  0
VERTEX
  5
1f3
  8
Layer_0
  10
490.09326
  20
459.98309
  0
VERTEX
  5
1f4
  8
Layer_0
  10
490.09326
  20
462.98309
  0
VERTEX
  5
1f5
  8
Layer_0
  10
460.84326
  20
462.98309
  0
VERTEX
  5
1f6
  8
Layer_0
  10
460.84326
  20
459.98309
  0
VERTEX
  5
1f7
  8
Layer_0
  10
431.59326
  20
459.98309
  0
VERTEX
  5
1f8
  8
Layer_0
  10
431.59326
  20
462.98309
  0
VERTEX
  5
1f9
  8
Layer_0
  10
402.34326
  20
462.98309
  0
VERTEX
  5
1fa
  8
Layer_0
  10
402.34326
  20
459.98309
  0
VERTEX
  5
1fb
  8
Layer_0
  10
373.09326
  20
459.98309
  0
VERTEX
  5
1fc
  8
Layer_0
  10
373.09326
  20
462.98309
  0
VERTEX
  5
1fd
  8
Layer_0
  10
343.84326
  20
462.98309
  0
VERTEX
  5
1fe
  8
Layer_0
  10
343.84326
  20
459.98309
  0
VERTEX
  5
1ff
  8
Layer_0
  10
304.71826
  20
459.98309
  0
VERTEX
  5
200
  8
Layer_0
  10
304.71826
  20
475.60809
  0
VERTEX
  5
201
  8
Layer_0
  10
304.71826
  20
504.85809
  0
VERTEX
  5
202
  8
Layer_0
  10
307.71826
  20
504.85809
  0
VERTEX
  5
203
  8
Layer_0
  10
307.71826
  20
534.10809
  0
VERTEX
  5
204
  8
Layer_0
  10
304.71826
  20
534.10809
  0
VERTEX
  5
205
  8
Layer_0
  10
304.71826
  20
563.35809
  0
VERTEX
  5
206
  8
Layer_0
  10
307.71826
  20
563.35809
  0
VERTEX
  5
207
  8
Layer_0
  10
307.71826
  20
592.60809
  0
VERTEX
  5
208
  8
Layer_0
  10
304.71826
  20
592.60809
  0
VERTEX
  5
209
  8
Layer_0
  10
304.71826
  20
621.85809
  0
VERTEX
  5
20a
  8
Layer_0
  10
307.71826
  20
621.85809
  0
VERTEX
  5
20b
  8
Layer_0
  10
307.71826
  20
651.10809
  0
VERTEX
  5
20c
  8
Layer_0
  10
304.71826
  20
651.10809
  0
VERTEX
  5
20d
  8
Layer_0
  10
304.71826
  20
695.98309
  0
VERTEX
  5
20e
  8
Layer_0
  10
314.59326
  20
695.98309
  0
SEQEND
  0
POLYLINE
  5
210
  8
Layer_1
  62
30
  66
1
  10
0
  20
0
  30
0
  0
VERTEX
  5
210
  8
Layer_1
  10
460.22626
  20
591.67345
  42
0.074807368
  0
VERTEX
  5
211
  8
Layer_1
  10
459.64114
  20
590.49342
  42
0.043406313
  0
VERTEX
  5
212
  8
Layer_1
  10
459.33215
  20
589.17465
  42
0.029620309
  0
VERTEX
  5
213
  8
Layer_1
  10
459.19809
  20
587.62805
  42
0.0079523531
  0
VERTEX
  5
214
  8
Layer_1
  10
459.18915
  20
587.05254
  0
VERTEX
  5
215
  8
Layer_1
  10
459.18915
  20
585.41621
  0
VERTEX
  5
216
  8
Layer_1
  10
465.61923
  20
585.41621
  0
VERTEX
  5
217
  8
Layer_1
  10
465.61923
  20
582.44316
  0
VERTEX
  5
218
  8
Layer_1
  10
459.18915
  20
582.44316
  0
VERTEX
  5
219
  8
Layer_1
  10
459.18915
  20
560.15683
  0
VERTEX
  5
21a
  8
Layer_1
  10
455.36337
  20
560.15683
  0
VERTEX
  5
21b
  8
Layer_1
  10
455.36337
  20
582.44316
  0
VERTEX
  5
21c
  8
Layer_1
  10
450.84619
  20
582.44316
  0
VERTEX
  5
21d
  8
Layer_1
  10
450.84619
  20
584.17168
  0
VERTEX
  5
21e
  8
Layer_1
  10
455.36337
  20
585.55449
  0
VERTEX
  5
21f
  8
Layer_1
  10
455.36337
  20
586.96036
  42
-0.057135724
  0
VERTEX
  5
220
  8
Layer_1
  10
455.72537
  20
590.47412
  42
-0.11609517
  0
VERTEX
  5
221
  8
Layer_1
  10
457.27911
  20
593.80428
  42
-0.18247501
  0
VERTEX
  5
222
  8
Layer_1
  10
461.4263
  20
596.09723
  42
-0.044806913
  0
VERTEX
  5
223
  8
Layer_1
  10
463.4989
  20
596.27129
  42
-0.035522372
  0
VERTEX
  5
224
  8
Layer_1
  10
465.24219
  20
596.13815
  42
-0.024805535
  0
VERTEX
  5
225
  8
Layer_1
  10
467.034
  20
595.78386
  42
-0.012212366
  0
VERTEX
  5
226
  8
Layer_1
  10
468.2005
  20
595.46465
  0
VERTEX
  5
227
  8
Layer_1
  10
467.20947
  20
592.39941
  42
0.020207045
  0
VERTEX
  5
228
  8
Layer_1
  10
465.76465
  20
592.80618
  42
0.028386485
  0
VERTEX
  5
229
  8
Layer_1
  10
464.39188
  20
593.05391
  42
0.029320268
  0
VERTEX
  5
22a
  8
Layer_1
  10
463.42978
  20
593.11386
  42
0.060876594
  0
VERTEX
  5
22b
  8
Layer_1
  10
462.18607
  20
592.97321
  42
0.1833862
  0
VERTEX
  5
22c
  8
Layer_1
  10
460.22626
  20
591.67345
  0
SEQEND
  0
POLYLINE
  5
22e
  8
Layer_1
  62
30
  66
1
  10
0
  20
0
  30
0
  0
VERTEX
  5
22e
  8
Layer_1
  10
483.02863
  20
582.27519
  42
-0.018276144
  0
VERTEX
  5
22f
  8
Layer_1
  10
484.24112
  20
582.05138
  0
VERTEX
  5
230
  8
Layer_1
  10
484.77118
  20
585.60059
  42
0.028531556
  0
VERTEX
  5
231
  8
Layer_1
  10
483.32446
  20
585.81015
  42
0.022417017
  0
VERTEX
  5
232
  8
Layer_1
  10
481.75204
  20
585.87715
  42
0.15284813
  0
VERTEX
  5
233
  8
Layer_1
  10
477.39618
  20
584.54042
  42
0.066353207
  0
VERTEX
  5
234
  8
Layer_1
  10
475.45288
  20
582.80145
  42
0.04886318
  0
VERTEX
  5
235
  8
Layer_1
  10
474.0083
  20
580.73769
  0
VERTEX
  5
236
  8
Layer_1
  10
473.82391
  20
580.73769
  0
VERTEX
  5
237
  8
Layer_1
  10
473.38605
  20
585.41621
  0
VERTEX
  5
238
  8
Layer_1
  10
470.22861
  20
585.41621
  0
VERTEX
  5
239
  8
Layer_1
  10
470.22861
  20
560.15683
  0
VERTEX
  5
23a
  8
Layer_1
  10
474.05438
  20
560.15683
  0
VERTEX
  5
23b
  8
Layer_1
  10
474.05438
  20
573.7084
  42
-0.027920403
  0
VERTEX
  5
23c
  8
Layer_1
  10
474.12473
  20
575.00243
  42
-0.15652945
  0
VERTEX
  5
23d
  8
Layer_1
  10
476.2323
  20
579.908
  42
-0.014021352
  0
VERTEX
  5
23e
  8
Layer_1
  10
476.57803
  20
580.28173
  42
-0.21006988
  0
VERTEX
  5
23f
  8
Layer_1
  10
481.47549
  20
582.39706
  42
-0.011428263
  0
VERTEX
  5
240
  8
Layer_1
  10
481.88605
  20
582.38744
  42
-0.024447891
  0
VERTEX
  5
241
  8
Layer_1
  10
483.02863
  20
582.27519
  0
SEQEND
  0
POLYLINE
  5
243
  8
Layer_1
  62
30
  66
1
  10
0
  20
0
  30
0
  0
VERTEX
  5
243
  8
Layer_1
  10
511.29816
  20
572.80957
  42
-0.048952588
  0
VERTEX
  5
244
  8
Layer_1
  10
510.94702
  20
568.9653
  42
-0.083797097
  0
VERTEX
  5
245
  8
Layer_1
  10
509.45758
  20
564.91033
  42
-0.050709705
  0
VERTEX
  5
246
  8
Layer_1
  10
508.18683
  20
563.16445
  42
-0.1722899
  0
VERTEX
  5
247
  8
Layer_1
  10
502.18457
  20
559.91268
  42
-0.043894408
  0
VERTEX
  5
248
  8
Layer_1
  10
499.59033
  20
559.69589
  42
-0.073761218
  0
VERTEX
  5
249
  8
Layer_1
  10
496.02032
  20
560.19884
  42
-0.063056028
  0
VERTEX
  5
24a
  8
Layer_1
  10
493.5751
  20
561.28613
  42
-0.13556564
  0
VERTEX
  5
24b
  8
Layer_1
  10
489.7973
  20
565.30412
  42
-0.012182441
  0
VERTEX
  5
24c
  8
Layer_1
  10
489.51886
  20
565.84941
  42
-0.071710342
  0
VERTEX
  5
24d
  8
Layer_1
  10
488.33032
  20
569.70948
  42
-0.040684484
  0
VERTEX
  5
24e
  8
Layer_1
  10
488.08997
  20
572.80957
  42
-0.048663827
  0
VERTEX
  5
24f
  8
Layer_1
  10
488.43848
  20
576.65123
  42
-0.082030798
  0
VERTEX
  5
250
  8
Layer_1
  10
489.8801
  20
580.63158
  42
-0.052642861
  0
VERTEX
  5
251
  8
Layer_1
  10
491.17822
  20
582.43164
  42
-0.17096831
  0
VERTEX
  5
252
  8
Layer_1
  10
497.0827
  20
585.64813
  42
-0.045158491
  0
VERTEX
  5
253
  8
Layer_1
  10
499.75165
  20
585.87715
  42
-0.074514887
  0
VERTEX
  5
254
  8
Layer_1
  10
503.52576
  20
585.34981
  42
-0.14084765
  0
VERTEX
  5
255
  8
Layer_1
  10
508.17529
  20
582.35098
  42
-0.12087436
  0
VERTEX
  5
256
  8
Layer_1
  10
510.77777
  20
577.30569
  42
-0.055702572
  0
VERTEX
  5
257
  8
Layer_1
  10
511.29001
  20
573.41695
  42
-0.0067458037
  0
VERTEX
  5
258
  8
Layer_1
  10
511.29816
  20
572.80957
  0
SEQEND
  0
POLYLINE
  5
25a
  8
Layer_1
  62
30
  66
1
  10
0
  20
0
  30
0
  0
VERTEX
  5
25a
  8
Layer_1
  10
507.33408
  20
572.80957
  42
-0.029096163
  0
VERTEX
  5
25b
  8
Layer_1
  10
507.20612
  20
570.4701
  42
-0.049749302
  0
VERTEX
  5
25c
  8
Layer_1
  10
506.66547
  20
567.91399
  42
-0.085862077
  0
VERTEX
  5
25d
  8
Layer_1
  10
505.38663
  20
565.42304
  42
-0.16764186
  0
VERTEX
  5
25e
  8
Layer_1
  10
502.02692
  20
563.19087
  42
-0.066759891
  0
VERTEX
  5
25f
  8
Layer_1
  10
499.68253
  20
562.89941
  42
-0.042549293
  0
VERTEX
  5
260
  8
Layer_1
  10
498.07373
  20
563.02956
  42
-0.19623517
  0
VERTEX
  5
261
  8
Layer_1
  10
493.98993
  20
565.43456
  42
-0.073560856
  0
VERTEX
  5
262
  8
Layer_1
  10
492.86914
  20
567.49889
  42
-0.053870829
  0
VERTEX
  5
263
  8
Layer_1
  10
492.23837
  20
570.04195
  42
-0.035842553
  0
VERTEX
  5
264
  8
Layer_1
  10
492.05402
  20
572.80957
  42
-0.031596561
  0
VERTEX
  5
265
  8
Layer_1
  10
492.20413
  20
575.35725
  42
-0.048480213
  0
VERTEX
  5
266
  8
Layer_1
  10
492.73727
  20
577.7854
  42
-0.085167186
  0
VERTEX
  5
267
  8
Layer_1
  10
493.96689
  20
580.16152
  42
-0.17112598
  0
VERTEX
  5
268
  8
Layer_1
  10
497.36963
  20
582.36203
  42
-0.062909349
  0
VERTEX
  5
269
  8
Layer_1
  10
499.63641
  20
582.62754
  42
-0.047907302
  0
VERTEX
  5
26a
  8
Layer_1
  10
501.47388
  20
582.46133
  42
-0.18733814
  0
VERTEX
  5
26b
  8
Layer_1
  10
505.3866
  20
580.12695
  42
-0.076110232
  0
VERTEX
  5
26c
  8
Layer_1
  10
506.53271
  20
578.03622
  42
-0.053827104
  0
VERTEX
  5
26d
  8
Layer_1
  10
507.15329
  20
575.52979
  42
-0.035755529
  0
VERTEX
  5
26e
  8
Layer_1
  10
507.33408
  20
572.80957
  0
SEQEND
  0
POLYLINE
  5
270
  8
Layer_1
  62
30
  66
1
  10
0
  20
0
  30
0
  0
VERTEX
  5
270
  8
Layer_1
  10
521.8443
  20
574.23962
  42
-0.031188785
  0
VERTEX
  5
271
  8
Layer_1
  10
522.05045
  20
576.48264
  42
-0.049903125
  0
VERTEX
  5
272
  8
Layer_1
  10
522.58725
  20
578.58348
  42
-0.08820578
  0
VERTEX
  5
273
  8
Layer_1
  10
523.67432
  20
580.48418
  42
-0.090333711
  0
VERTEX
  5
274
  8
Layer_1
  10
525.17963
  20
581.69746
  42
-0.07888532
  0
VERTEX
  5
275
  8
Layer_1
  10
527.31534
  20
582.43864
  42
-0.047060658
  0
VERTEX
  5
276
  8
Layer_1
  10
529.48212
  20
582.62753
  42
-0.026761466
  0
VERTEX
  5
277
  8
Layer_1
  10
530.56555
  20
582.57238
  42
-0.058037581
  0
VERTEX
  5
278
  8
Layer_1
  10
532.11496
  20
582.23529
  42
-0.12348976
  0
VERTEX
  5
279
  8
Layer_1
  10
533.88409
  20
581.10645
  42
-0.085901436
  0
VERTEX
  5
27a
  8
Layer_1
  10
534.71869
  20
579.7975
  42
-0.061875657
  0
VERTEX
  5
27b
  8
Layer_1
  10
535.16605
  20
578.19261
  42
-0.039356716
  0
VERTEX
  5
27c
  8
Layer_1
  10
535.28995
  20
576.49707
  0
VERTEX
  5
27d
  8
Layer_1
  10
535.28995
  20
560.15683
  0
VERTEX
  5
27e
  8
Layer_1
  10
539.11572
  20
560.15683
  0
VERTEX
  5
27f
  8
Layer_1
  10
539.11572
  20
576.63535
  42
0.032510199
  0
VERTEX
  5
280
  8
Layer_1
  10
538.98376
  20
578.80023
  42
0.056230049
  0
VERTEX
  5
281
  8
Layer_1
  10
538.42645
  20
581.13971
  42
0.11488659
  0
VERTEX
  5
282
  8
Layer_1
  10
536.81104
  20
583.67617
  42
0.080107212
  0
VERTEX
  5
283
  8
Layer_1
  10
535.00244
  20
584.90905
  42
0.068415227
  0
VERTEX
  5
284
  8
Layer_1
  10
532.51416
  20
585.67282
  42
0.042770123
  0
VERTEX
  5
285
  8
Layer_1
  10
529.94305
  20
585.87715
  42
0.020736812
  0
VERTEX
  5
286
  8
Layer_1
  10
528.90503
  20
585.83484
  42
0.092866042
  0
VERTEX
  5
287
  8
Layer_1
  10
525.21844
  20
584.85156
  42
0.0078536426
  0
VERTEX
  5
288
  8
Layer_1
  10
524.95712
  20
584.72007
  42
0.13479907
  0
VERTEX
  5
289
  8
Layer_1
  10
521.92273
  20
581.95918
  0
VERTEX
  5
28a
  8
Layer_1
  10
521.73837
  20
581.95918
  0
VERTEX
  5
28b
  8
Layer_1
  10
521.11612
  20
585.41621
  0
VERTEX
  5
28c
  8
Layer_1
  10
518.00479
  20
585.41621
  0
VERTEX
  5
28d
  8
Layer_1
  10
518.00479
  20
560.15683
  0
VERTEX
  5
28e
  8
Layer_1
  10
521.83057
  20
560.15683
  0
VERTEX
  5
28f
  8
Layer_1
  10
521.83057
  20
573.40879
  42
-0.0084979567
  0
VERTEX
  5
290
  8
Layer_1
  10
521.8443
  20
574.23962
  0
SEQEND
  0
POLYLINE
  5
292
  8
Layer_1
  62
30
  66
1
  10
0
  20
0
  30
0
  0
VERTEX
  5
292
  8
Layer_1
  10
551.63547
  20
560.09222
  42
0.07475571
  0
VERTEX
  5
293
  8
Layer_1
  10
554.58017
  20
559.6959
  42
0.0033055317
  0
VERTEX
  5
294
  8
Layer_1
  10
554.70981
  20
559.69676
  42
0.020323359
  0
VERTEX
  5
295
  8
Layer_1
  10
555.67694
  20
559.75119
  42
0.016436837
  0
VERTEX
  5
296
  8
Layer_1
  10
556.75812
  20
559.89179
  42
0.004116431
  0
VERTEX
  5
297
  8
Layer_1
  10
556.98657
  20
559.93066
  42
0.014696651
  0
VERTEX
  5
298
  8
Layer_1
  10
557.60605
  20
560.05882
  42
0.020991448
  0
VERTEX
  5
299
  8
Layer_1
  10
558.14404
  20
560.21017
  42
0.031932608
  0
VERTEX
  5
29a
  8
Layer_1
  10
558.59033
  20
560.38731
  0
VERTEX
  5
29b
  8
Layer_1
  10
558.59033
  20
563.31425
  42
-0.0022391223
  0
VERTEX
  5
29c
  8
Layer_1
  10
558.539
  20
563.29955
  42
-0.013028671
  0
VERTEX
  5
29d
  8
Layer_1
  10
558.13403
  20
563.19795
  42
-0.0093433907
  0
VERTEX
  5
29e
  8
Layer_1
  10
557.64459
  20
563.09787
  42
-0.0067337929
  0
VERTEX
  5
29f
  8
Layer_1
  10
557.09229
  20
563.00312
  42
-0.0026092296
  0
VERTEX
  5
2a0
  8
Layer_1
  10
556.97391
  20
562.98499
  42
-0.036761199
  0
VERTEX
  5
2a1
  8
Layer_1
  10
555.1333
  20
562.85331
  42
-0.038686373
  0
VERTEX
  5
2a2
  8
Layer_1
  10
554.34509
  20
562.91177
  42
-0.17972829
  0
VERTEX
  5
2a3
  8
Layer_1
  10
552.16025
  20
564.07481
  42
-0.066767307
  0
VERTEX
  5
2a4
  8
Layer_1
  10
551.61182
  20
564.895
  42
-0.070963225
  0
VERTEX
  5
2a5
  8
Layer_1
  10
551.18817
  20
566.22502
  42
-0.044138219
  0
VERTEX
  5
2a6
  8
Layer_1
  10
551.07703
  20
567.57793
  0
VERTEX
  5
2a7
  8
Layer_1
  10
551.07706
  20
582.44316
  0
VERTEX
  5
2a8
  8
Layer_1
  10
558.40594
  20
582.44316
  0
VERTEX
  5
2a9
  8
Layer_1
  10
558.40594
  20
585.41621
  0
VERTEX
  5
2aa
  8
Layer_1
  10
551.07706
  20
585.41621
  0
VERTEX
  5
2ab
  8
Layer_1
  10
551.07706
  20
591.27011
  0
VERTEX
  5
2ac
  8
Layer_1
  10
548.86456
  20
591.27011
  0
VERTEX
  5
2ad
  8
Layer_1
  10
547.25128
  20
585.87715
  0
VERTEX
  5
2ae
  8
Layer_1
  10
543.6329
  20
584.28691
  0
VERTEX
  5
2af
  8
Layer_1
  10
543.6329
  20
582.44316
  0
VERTEX
  5
2b0
  8
Layer_1
  10
547.25128
  20
582.44316
  0
VERTEX
  5
2b1
  8
Layer_1
  10
547.25128
  20
567.4166
  42
0.058936726
  0
VERTEX
  5
2b2
  8
Layer_1
  10
547.55157
  20
564.60726
  42
0.284365
  0
VERTEX
  5
2b3
  8
Layer_1
  10
551.63547
  20
560.09222
  0
SEQEND
  0
CIRCLE
  5
2b5
  8
Layer_0
  62
0
  10
369.71826
  20
513.31964
  30
0
  40
32.5
  0
CIRCLE
  5
2b5
  8
Layer_0
  62
0
  10
549.71826
  20
513.31964
  30
0
  40
32.5
  0
CIRCLE
  5
2b5
  8
Layer_0
  62
0
  10
639.71826
  20
513.31964
  30
0
  40
32.5
  0
CIRCLE
  5
2b5
  8
Layer_0
  62
0
  10
639.71826
  20
613.31964
  30
0
  40
32.5
  0
CIRCLE
  5
2b5
  8
Layer_0
  62
0
  10
459.71826
  20
613.31964
  30
0
  40
32.5
  0
CIRCLE
  5
2b5
  8
Layer_0
  62
0
  10
369.71826
  20
613.31964
  30
0
  40
32.5
  0
CIRCLE
  5
2b5
  8
Layer_0
  62
0
  10
549.71826
  20
613.31964
  30
0
  40
32.5
  0
CIRCLE
  5
2b5
  8
Layer_0
  62
0
  10
459.71826
  20
513.31964
  30
0
  40
32.5
  0
POLYLINE
  5
2b5
  8
Layer_1
  62
30
  66
1
  10
0
  20
0
  30
0
  0
VERTEX
  5
2b5
  8
Layer_1
  10
304.71826
  20
463.31964
  0
VERTEX
  5
2b6
  8
Layer_1
  10
304.71826
  20
663.31964
  0
VERTEX
  5
2b7
  8
Layer_1
  10
704.71826
  20
663.31964
  0
VERTEX
  5
2b8
  8
Layer_1
  10
704.71826
  20
463.31964
  0
VERTEX
  5
2b9
  8
Layer_1
  10
304.71826
  20
463.31964
  0
SEQEND
  0
POLYLINE
  5
2bb
  8
Layer_0
  62
0
  66
1
  10
0
  20
0
  30
0
  0
VERTEX
  5
2bb
  8
Layer_0
  10
64.375
  20
180.01697
  0
VERTEX
  5
2bc
  8
Layer_0
  10
93.625
  20
180.01697
  0
VERTEX
  5
2bd
  8
Layer_0
  10
93.625
  20
177.01697
  0
VERTEX
  5
2be
  8
Layer_0
  10
122.875
  20
177.01697
  0
VERTEX
  5
2bf
  8
Layer_0
  10
122.875
  20
180.01697
  0
VERTEX
  5
2c0
  8
Layer_0
  10
152.125
  20
180.01697
  0
VERTEX
  5
2c1
  8
Layer_0
  10
152.125
  20
177.01697
  0
VERTEX
  5
2c2
  8
Layer_0
  10
181.375
  20
177.01697
  0
VERTEX
  5
2c3
  8
Layer_0
  10
181.375
  20
180.01697
  0
VERTEX
  5
2c4
  8
Layer_0
  10
210.625
  20
180.01697
  0
VERTEX
  5
2c5
  8
Layer_0
  10
210.625
  20
177.01697
  0
VERTEX
  5
2c6
  8
Layer_0
  10
239.875
  20
177.01697
  0
VERTEX
  5
2c7
  8
Layer_0
  10
239.875
  20
180.01697
  0
VERTEX
  5
2c8
  8
Layer_0
  10
269.125
  20
180.01697
  0
VERTEX
  5
2c9
  8
Layer_0
  10
269.125
  20
177.01697
  0
VERTEX
  5
2ca
  8
Layer_0
  10
298.375
  20
177.01697
  0
VERTEX
  5
2cb
  8
Layer_0
  10
298.375
  20
180.01697
  0
VERTEX
  5
2cc
  8
Layer_0
  10
327.625
  20
180.01697
  0
VERTEX
  5
2cd
  8
Layer_0
  10
327.625
  20
177.01697
  0
VERTEX
  5
2ce
  8
Layer_0
  10
356.875
  20
177.01697
  0
VERTEX
  5
2cf
  8
Layer_0
  10
356.875
  20
180.01697
  0
VERTEX
  5
2d0
  8
Layer_0
  10
386.125
  20
180.01697
  0
VERTEX
  5
2d1
  8
Layer_0
  10
386.125
  20
177.01697
  0
VERTEX
  5
2d2
  8
Layer_0
  10
415.375
  20
177.01697
  0
VERTEX
  5
2d3
  8
Layer_0
  10
415.375
  20
180.01697
  0
VERTEX
  5
2d4
  8
Layer_0
  10
454.5
  20
180.01697
  0
VERTEX
  5
2d5
  8
Layer_0
  10
454.5
  20
164.39197
  0
VERTEX
  5
2d6
  8
Layer_0
  10
454.5
  20
135.14197
  0
VERTEX
  5
2d7
  8
Layer_0
  10
451.5
  20
135.14197
  0
VERTEX
  5
2d8
  8
Layer_0
  10
451.5
  20
105.89197
  0
VERTEX
  5
2d9
  8
Layer_0
  10
454.5
  20
105.89197
  0
VERTEX
  5
2da
  8
Layer_0
  10
454.5
  20
76.641968
  0
VERTEX
  5
2db
  8
Layer_0
  10
451.5
  20
76.641968
  0
VERTEX
  5
2dc
  8
Layer_0
  10
451.5
  20
47.391968
  0
VERTEX
  5
2dd
  8
Layer_0
  10
454.5
  20
47.391968
  0
VERTEX
  5
2de
  8
Layer_0
  10
454.5
  20
18.141968
  0
VERTEX
  5
2df
  8
Layer_0
  10
451.5
  20
18.141968
  0
VERTEX
  5
2e0
  8
Layer_0
  10
451.5
  20
-11.108032
  0
VERTEX
  5
2e1
  8
Layer_0
  10
454.5
  20
-11.108032
  0
VERTEX
  5
2e2
  8
Layer_0
  10
454.5
  20
-55.983032
  0
VERTEX
  5
2e3
  8
Layer_0
  10
444.625
  20
-55.983032
  0
VERTEX
  5
2e4
  8
Layer_0
  10
415.375
  20
-55.983032
  0
VERTEX
  5
2e5
  8
Layer_0
  10
415.375
  20
-52.983032
  0
VERTEX
  5
2e6
  8
Layer_0
  10
386.125
  20
-52.983032
  0
VERTEX
  5
2e7
  8
Layer_0
  10
386.125
  20
-55.983032
  0
VERTEX
  5
2e8
  8
Layer_0
  10
356.875
  20
-55.983032
  0
VERTEX
  5
2e9
  8
Layer_0
  10
356.875
  20
-52.983032
  0
VERTEX
  5
2ea
  8
Layer_0
  10
327.625
  20
-52.983032
  0
VERTEX
  5
2eb
  8
Layer_0
  10
327.625
  20
-55.983032
  0
VERTEX
  5
2ec
  8
Layer_0
  10
298.375
  20
-55.983032
  0
VERTEX
  5
2ed
  8
Layer_0
  10
298.375
  20
-52.983032
  0
VERTEX
  5
2ee
  8
Layer_0
  10
269.125
  20
-52.983032
  0
VERTEX
  5
2ef
  8
Layer_0
  10
269.125
  20
-55.983032
  0
VERTEX
  5
2f0
  8
Layer_0
  10
239.875
  20
-55.983032
  0
VERTEX
  5
2f1
  8
Layer_0
  10
239.875
  20
-52.983032
  0
VERTEX
  5
2f2
  8
Layer_0
  10
210.625
  20
-52.983032
  0
VERTEX
  5
2f3
  8
Layer_0
  10
210.625
  20
-55.983032
  0
VERTEX
  5
2f4
  8
Layer_0
  10
181.375
  20
-55.983032
  0
VERTEX
  5
2f5
  8
Layer_0
  10
181.375
  20
-52.983032
  0
VERTEX
  5
2f6
  8
Layer_0
  10
152.125
  20
-52.983032
  0
VERTEX
  5
2f7
  8
Layer_0
  10
152.125
  20
-55.983032
  0
VERTEX
  5
2f8
  8
Layer_0
  10
122.875
  20
-55.983032
  0
VERTEX
  5
2f9
  8
Layer_0
  10
122.875
  20
-52.983032
  0
VERTEX
  5
2fa
  8
Layer_0
  10
93.625
  20
-52.983032
  0
VERTEX
  5
2fb
  8
Layer_0
  10
93.625
  20
-55.983032
  0
VERTEX
  5
2fc
  8
Layer_0
  10
54.5
  20
-55.983032
  0
VERTEX
  5
2fd
  8
Layer_0
  10
54.5
  20
-40.358032
  0
VERTEX
  5
2fe
  8
Layer_0
  10
54.5
  20
-11.108032
  0
VERTEX
  5
2ff
  8
Layer_0
  10
57.5
  20
-11.108032
  0
VERTEX
  5
300
  8
Layer_0
  10
57.5
  20
18.141968
  0
VERTEX
  5
301
  8
Layer_0
  10
54.5
  20
18.141968
  0
VERTEX
  5
302
  8
Layer_0
  10
54.5
  20
47.391968
  0
VERTEX
  5
303
  8
Layer_0
  10
57.5
  20
47.391968
  0
VERTEX
  5
304
  8
Layer_0
  10
57.5
  20
76.641968
  0
VERTEX
  5
305
  8
Layer_0
  10
54.5
  20
76.641968
  0
VERTEX
  5
306
  8
Layer_0
  10
54.5
  20
105.89197
  0
VERTEX
  5
307
  8
Layer_0
  10
57.5
  20
105.89197
  0
VERTEX
  5
308
  8
Layer_0
  10
57.5
  20
135.14197
  0
VERTEX
  5
309
  8
Layer_0
  10
54.5
  20
135.14197
  0
VERTEX
  5
30a
  8
Layer_0
  10
54.5
  20
180.01697
  0
VERTEX
  5
30b
  8
Layer_0
  10
64.375
  20
180.01697
  0
SEQEND
  0
POLYLINE
  5
30d
  8
Layer_1
  62
30
  66
1
  10
0
  20
0
  30
0
  0
VERTEX
  5
30d
  8
Layer_1
  10
226.42896
  20
49.570923
  42
-0.062156698
  0
VERTEX
  5
30e
  8
Layer_1
  10
225.03455
  20
47.301758
  42
-0.20956719
  0
VERTEX
  5
30f
  8
Layer_1
  10
218.59747
  20
43.917053
  42
-0.024560097
  0
VERTEX
  5
310
  8
Layer_1
  10
217.32538
  20
43.856323
  42
-0.063539666
  0
VERTEX
  5
311
  8
Layer_1
  10
214.40942
  20
44.211914
  42
-0.041756961
  0
VERTEX
  5
312
  8
Layer_1
  10
212.8197
  20
44.766602
  42
-0.13276831
  0
VERTEX
  5
313
  8
Layer_1
  10
209.39728
  20
47.566833
  0
VERTEX
  5
314
  8
Layer_1
  10
209.12073
  20
47.566833
  0
VERTEX
  5
315
  8
Layer_1
  10
208.31409
  20
44.317261
  0
VERTEX
  5
316
  8
Layer_1
  10
205.57147
  20
44.317261
  0
VERTEX
  5
317
  8
Layer_1
  10
205.57147
  20
80.178162
  0
VERTEX
  5
318
  8
Layer_1
  10
209.39728
  20
80.178162
  0
VERTEX
  5
319
  8
Layer_1
  10
209.39728
  20
71.466431
  42
-0.008449351
  0
VERTEX
  5
31a
  8
Layer_1
  10
209.354
  20
68.771606
  42
-0.010474411
  0
VERTEX
  5
31b
  8
Layer_1
  10
209.22461
  20
66.362427
  42
-0.0007557943
  0
VERTEX
  5
31c
  8
Layer_1
  10
209.21289
  20
66.211792
  0
VERTEX
  5
31d
  8
Layer_1
  10
209.39728
  20
66.211792
  42
-0.22136379
  0
VERTEX
  5
31e
  8
Layer_1
  10
215.74634
  20
69.89917
  42
-0.030279187
  0
VERTEX
  5
31f
  8
Layer_1
  10
217.32538
  20
69.991455
  42
-0.071353514
  0
VERTEX
  5
320
  8
Layer_1
  10
220.61621
  20
69.552429
  42
-0.15616539
  0
VERTEX
  5
321
  8
Layer_1
  10
225.05762
  20
66.592041
  42
-0.096004192
  0
VERTEX
  5
322
  8
Layer_1
  10
227.03442
  20
62.784729
  42
-0.050939606
  0
VERTEX
  5
323
  8
Layer_1
  10
227.70239
  20
59.33728
  42
-0.024132108
  0
VERTEX
  5
324
  8
Layer_1
  10
227.81171
  20
56.969971
  42
-0.042264966
  0
VERTEX
  5
325
  8
Layer_1
  10
227.51453
  20
53.195679
  42
-0.065521509
  0
VERTEX
  5
326
  8
Layer_1
  10
226.42896
  20
49.570923
  0
SEQEND
  0
POLYLINE
  5
328
  8
Layer_1
  62
30
  66
1
  10
0
  20
0
  30
0
  0
VERTEX
  5
328
  8
Layer_1
  10
210.17755
  20
62.734985
  42
-0.078334693
  0
VERTEX
  5
329
  8
Layer_1
  10
211.12579
  20
64.540894
  42
-0.097541758
  0
VERTEX
  5
32a
  8
Layer_1
  10
212.60352
  20
65.838257
  42
-0.084076516
  0
VERTEX
  5
32b
  8
Layer_1
  10
214.69012
  20
66.60022
  42
-0.048730712
  0
VERTEX
  5
32c
  8
Layer_1
  10
216.77228
  20
66.787964
  42
-0.051081007
  0
VERTEX
  5
32d
  8
Layer_1
  10
218.56726
  20
66.615906
  42
-0.19556469
  0
VERTEX
  5
32e
  8
Layer_1
  10
222.11914
  20
64.367981
  42
-0.012365209
  0
VERTEX
  5
32f
  8
Layer_1
  10
222.29437
  20
64.109375
  42
-0.070971106
  0
VERTEX
  5
330
  8
Layer_1
  10
223.24579
  20
61.962036
  42
-0.043117532
  0
VERTEX
  5
331
  8
Layer_1
  10
223.71094
  20
59.591614
  42
-0.028548231
  0
VERTEX
  5
332
  8
Layer_1
  10
223.84766
  20
57.016052
  42
-0.029362339
  0
VERTEX
  5
333
  8
Layer_1
  10
223.7066
  20
54.447632
  42
-0.044623699
  0
VERTEX
  5
334
  8
Layer_1
  10
223.20581
  20
51.97998
  42
-0.074122504
  0
VERTEX
  5
335
  8
Layer_1
  10
222.11914
  20
49.629517
  42
-0.18008158
  0
VERTEX
  5
336
  8
Layer_1
  10
219.03076
  20
47.349854
  42
-0.072014508
  0
VERTEX
  5
337
  8
Layer_1
  10
216.86444
  20
47.059814
  42
-0.016059056
  0
VERTEX
  5
338
  8
Layer_1
  10
216.07629
  20
47.084351
  42
-0.059899682
  0
VERTEX
  5
339
  8
Layer_1
  10
213.98737
  20
47.453003
  42
-0.15675715
  0
VERTEX
  5
33a
  8
Layer_1
  10
211.17188
  20
49.353027
  42
-0.039340174
  0
VERTEX
  5
33b
  8
Layer_1
  10
210.67761
  20
50.112427
  42
-0.061502307
  0
VERTEX
  5
33c
  8
Layer_1
  10
209.91669
  20
52.096436
  42
-0.03759233
  0
VERTEX
  5
33d
  8
Layer_1
  10
209.52246
  20
54.35553
  42
-0.025883367
  0
VERTEX
  5
33e
  8
Layer_1
  10
209.39728
  20
56.969971
  42
-0.010580777
  0
VERTEX
  5
33f
  8
Layer_1
  10
209.42273
  20
58.217102
  42
-0.02959047
  0
VERTEX
  5
340
  8
Layer_1
  10
209.65808
  20
60.641602
  42
-0.045146167
  0
VERTEX
  5
341
  8
Layer_1
  10
210.17755
  20
62.734985
  0
SEQEND
  0
POLYLINE
  5
343
  8
Layer_1
  62
30
  66
1
  10
0
  20
0
  30
0
  0
VERTEX
  5
343
  8
Layer_1
  10
248.72595
  20
69.207153
  42
-0.089361882
  0
VERTEX
  5
344
  8
Layer_1
  10
250.68573
  20
67.986328
  42
-0.12031062
  0
VERTEX
  5
345
  8
Layer_1
  10
252.24902
  20
65.57489
  42
-0.058288336
  0
VERTEX
  5
346
  8
Layer_1
  10
252.76221
  20
63.353577
  42
-0.029920978
  0
VERTEX
  5
347
  8
Layer_1
  10
252.86365
  20
61.556274
  0
VERTEX
  5
348
  8
Layer_1
  10
252.86365
  20
44.317261
  0
VERTEX
  5
349
  8
Layer_1
  10
250.02893
  20
44.317261
  0
VERTEX
  5
34a
  8
Layer_1
  10
249.26837
  20
47.912537
  0
VERTEX
  5
34b
  8
Layer_1
  10
249.08398
  20
47.912537
  42
-0.030390337
  0
VERTEX
  5
34c
  8
Layer_1
  10
247.80078
  20
46.476074
  42
-0.043689253
  0
VERTEX
  5
34d
  8
Layer_1
  10
246.42114
  20
45.324585
  42
-0.045179307
  0
VERTEX
  5
34e
  8
Layer_1
  10
245.3158
  20
44.69751
  42
-0.054310437
  0
VERTEX
  5
34f
  8
Layer_1
  10
243.49365
  20
44.122437
  42
-0.037014062
  0
VERTEX
  5
350
  8
Layer_1
  10
241.58545
  20
43.882263
  42
-0.013906218
  0
VERTEX
  5
351
  8
Layer_1
  10
240.62579
  20
43.856323
  42
-0.051244027
  0
VERTEX
  5
352
  8
Layer_1
  10
238.23663
  20
44.084717
  42
-0.090088915
  0
VERTEX
  5
353
  8
Layer_1
  10
235.65515
  20
45.095215
  42
-0.043816617
  0
VERTEX
  5
354
  8
Layer_1
  10
234.7373
  20
45.792236
  42
-0.15556032
  0
VERTEX
  5
355
  8
Layer_1
  10
232.84045
  20
49.108643
  42
-0.057433324
  0
VERTEX
  5
356
  8
Layer_1
  10
232.60547
  20
51.300415
  42
-0.30032891
  0
VERTEX
  5
357
  8
Layer_1
  10
236.37079
  20
57.548096
  42
-0.06870873
  0
VERTEX
  5
358
  8
Layer_1
  10
239.86859
  20
58.767456
  42
-0.040326779
  0
VERTEX
  5
359
  8
Layer_1
  10
244.0658
  20
59.289307
  42
-0.0052123189
  0
VERTEX
  5
35a
  8
Layer_1
  10
244.84338
  20
59.32074
  0
VERTEX
  5
35b
  8
Layer_1
  10
249.13007
  20
59.458984
  0
VERTEX
  5
35c
  8
Layer_1
  10
249.13007
  20
61.026245
  42
0.036272973
  0
VERTEX
  5
35d
  8
Layer_1
  10
249.02319
  20
62.61499
  42
0.055810657
  0
VERTEX
  5
35e
  8
Layer_1
  10
248.65222
  20
64.079346
  42
0.092065442
  0
VERTEX
  5
35f
  8
Layer_1
  10
247.85095
  20
65.416626
  42
0.12416263
  0
VERTEX
  5
360
  8
Layer_1
  10
246.26013
  20
66.454346
  42
0.058627718
  0
VERTEX
  5
361
  8
Layer_1
  10
244.83447
  20
66.776123
  42
0.0284854
  0
VERTEX
  5
362
  8
Layer_1
  10
243.76013
  20
66.833984
  42
0.058182916
  0
VERTEX
  5
363
  8
Layer_1
  10
240.89355
  20
66.476563
  42
0.038451688
  0
VERTEX
  5
364
  8
Layer_1
  10
238.14703
  20
65.582764
  42
0.016380007
  0
VERTEX
  5
365
  8
Layer_1
  10
236.6156
  20
64.898071
  0
VERTEX
  5
366
  8
Layer_1
  10
235.44025
  20
67.825073
  42
-0.052315012
  0
VERTEX
  5
367
  8
Layer_1
  10
238.84479
  20
69.224487
  42
-0.0088659879
  0
VERTEX
  5
368
  8
Layer_1
  10
239.53107
  20
69.415283
  42
-0.063703536
  0
VERTEX
  5
369
  8
Layer_1
  10
243.9906
  20
69.991455
  42
-0.038224869
  0
VERTEX
  5
36a
  8
Layer_1
  10
246.4516
  20
69.817017
  42
-0.059081929
  0
VERTEX
  5
36b
  8
Layer_1
  10
248.72595
  20
69.207153
  0
SEQEND
  0
POLYLINE
  5
36d
  8
Layer_1
  62
30
  66
1
  10
0
  20
0
  30
0
  0
VERTEX
  5
36d
  8
Layer_1
  10
241.0199
  20
56.083191
  42
0.045591368
  0
VERTEX
  5
36e
  8
Layer_1
  10
239.36676
  20
55.54541
  42
0.035307415
  0
VERTEX
  5
36f
  8
Layer_1
  10
238.6322
  20
55.160767
  42
0.22832248
  0
VERTEX
  5
370
  8
Layer_1
  10
236.68652
  20
52.199219
  42
0.03925368
  0
VERTEX
  5
371
  8
Layer_1
  10
236.6156
  20
51.254333
  42
0.057884217
  0
VERTEX
  5
372
  8
Layer_1
  10
236.75085
  20
49.999878
  42
0.13045455
  0
VERTEX
  5
373
  8
Layer_1
  10
237.58667
  20
48.372925
  42
0.029110219
  0
VERTEX
  5
374
  8
Layer_1
  10
237.8717
  20
48.096924
  42
0.10726125
  0
VERTEX
  5
375
  8
Layer_1
  10
239.43182
  20
47.268372
  42
0.054658274
  0
VERTEX
  5
376
  8
Layer_1
  10
240.78894
  20
47.033813
  42
0.017357408
  0
VERTEX
  5
377
  8
Layer_1
  10
241.38635
  20
47.013672
  42
0.054422541
  0
VERTEX
  5
378
  8
Layer_1
  10
243.66113
  20
47.245178
  42
0.10840045
  0
VERTEX
  5
379
  8
Layer_1
  10
246.41571
  20
48.476563
  42
0.029981719
  0
VERTEX
  5
37a
  8
Layer_1
  10
246.99823
  20
48.972656
  42
0.14605452
  0
VERTEX
  5
37b
  8
Layer_1
  10
248.78577
  20
52.172241
  42
0.058387048
  0
VERTEX
  5
37c
  8
Layer_1
  10
249.03784
  20
54.419189
  42
0.00090143865
  0
VERTEX
  5
37d
  8
Layer_1
  10
249.0379
  20
54.457886
  0
VERTEX
  5
37e
  8
Layer_1
  10
249.0379
  20
56.739502
  0
VERTEX
  5
37f
  8
Layer_1
  10
245.2121
  20
56.578125
  42
0.020037885
  0
VERTEX
  5
380
  8
Layer_1
  10
242.96753
  20
56.415161
  42
0.028982504
  0
VERTEX
  5
381
  8
Layer_1
  10
241.0199
  20
56.083191
  0
SEQEND
  0
POLYLINE
  5
383
  8
Layer_1
  62
30
  66
1
  10
0
  20
0
  30
0
  0
VERTEX
  5
383
  8
Layer_1
  10
263.30389
  20
56.831665
  42
0.03654049
  0
VERTEX
  5
384
  8
Layer_1
  10
263.4873
  20
54.133545
  42
0.054409167
  0
VERTEX
  5
385
  8
Layer_1
  10
264.11279
  20
51.654358
  42
0.070896584
  0
VERTEX
  5
386
  8
Layer_1
  10
265.18225
  20
49.687134
  42
0.19592234
  0
VERTEX
  5
387
  8
Layer_1
  10
269.1189
  20
47.334839
  42
0.044256489
  0
VERTEX
  5
388
  8
Layer_1
  10
270.74805
  20
47.19812
  42
0.070031347
  0
VERTEX
  5
389
  8
Layer_1
  10
275.16577
  20
47.84082
  42
0.027576054
  0
VERTEX
  5
38a
  8
Layer_1
  10
277.22424
  20
48.557861
  0
VERTEX
  5
38b
  8
Layer_1
  10
277.22424
  20
45.169922
  42
-0.065151052
  0
VERTEX
  5
38c
  8
Layer_1
  10
274.56195
  20
44.227722
  42
-0.041850911
  0
VERTEX
  5
38d
  8
Layer_1
  10
271.90125
  20
43.882446
  42
-0.012640122
  0
VERTEX
  5
38e
  8
Layer_1
  10
270.84021
  20
43.856323
  42
-0.06144627
  0
VERTEX
  5
38f
  8
Layer_1
  10
267.36194
  20
44.255249
  42
-0.15393465
  0
VERTEX
  5
390
  8
Layer_1
  10
262.34747
  20
47.232666
  42
-0.11004461
  0
VERTEX
  5
391
  8
Layer_1
  10
260.04547
  20
51.459045
  42
-0.055743576
  0
VERTEX
  5
392
  8
Layer_1
  10
259.39563
  20
55.154663
  42
-0.01764154
  0
VERTEX
  5
393
  8
Layer_1
  10
259.33984
  20
56.785645
  42
-0.04572522
  0
VERTEX
  5
394
  8
Layer_1
  10
259.66669
  20
60.624146
  42
-0.074389503
  0
VERTEX
  5
395
  8
Layer_1
  10
260.94067
  20
64.453003
  42
-0.061295518
  0
VERTEX
  5
396
  8
Layer_1
  10
262.39355
  20
66.580505
  42
-0.16206137
  0
VERTEX
  5
397
  8
Layer_1
  10
267.81787
  20
69.699951
  42
-0.05498701
  0
VERTEX
  5
398
  8
Layer_1
  10
271.09375
  20
70.037537
  42
-0.053182141
  0
VERTEX
  5
399
  8
Layer_1
  10
274.73517
  20
69.645752
  42
-0.014296644
  0
VERTEX
  5
39a
  8
Layer_1
  10
275.79657
  20
69.387329
  42
-0.020260876
  0
VERTEX
  5
39b
  8
Layer_1
  10
276.75922
  20
69.082275
  42
-0.029166789
  0
VERTEX
  5
39c
  8
Layer_1
  10
277.56989
  20
68.735596
  42
-0.001184469
  0
VERTEX
  5
39d
  8
Layer_1
  10
277.59296
  20
68.723877
  0
VERTEX
  5
39e
  8
Layer_1
  10
276.4176
  20
65.474243
  42
0.028600399
  0
VERTEX
  5
39f
  8
Layer_1
  10
274.57129
  20
66.088196
  42
0.011677714
  0
VERTEX
  5
3a0
  8
Layer_1
  10
273.65198
  20
66.31543
  42
0.019358954
  0
VERTEX
  5
3a1
  8
Layer_1
  10
272.44946
  20
66.537964
  42
0.025376348
  0
VERTEX
  5
3a2
  8
Layer_1
  10
271.34192
  20
66.6427
  42
0.010087663
  0
VERTEX
  5
3a3
  8
Layer_1
  10
271.00159
  20
66.649658
  42
0.10443631
  0
VERTEX
  5
3a4
  8
Layer_1
  10
267.5553
  20
66.002014
  42
0.20907951
  0
VERTEX
  5
3a5
  8
Layer_1
  10
264.11768
  20
62.178101
  42
0.065517905
  0
VERTEX
  5
3a6
  8
Layer_1
  10
263.40002
  20
58.903687
  42
0.024544695
  0
VERTEX
  5
3a7
  8
Layer_1
  10
263.30389
  20
56.831665
  0
SEQEND
  0
POLYLINE
  5
3a9
  8
Layer_1
  62
30
  66
1
  10
0
  20
0
  30
0
  0
VERTEX
  5
3a9
  8
Layer_1
  10
286.9032
  20
58.667664
  42
0.0037384656
  0
VERTEX
  5
3aa
  8
Layer_1
  10
286.96082
  20
59.790649
  42
0.0036272508
  0
VERTEX
  5
3ab
  8
Layer_1
  10
286.98456
  20
60.444275
  42
0.0070565148
  0
VERTEX
  5
3ac
  8
Layer_1
  10
286.99609
  20
61.16449
  0
VERTEX
  5
3ad
  8
Layer_1
  10
286.99609
  20
80.178162
  0
VERTEX
  5
3ae
  8
Layer_1
  10
283.21643
  20
80.178162
  0
VERTEX
  5
3af
  8
Layer_1
  10
283.21643
  20
44.317261
  0
VERTEX
  5
3b0
  8
Layer_1
  10
286.99609
  20
44.317261
  0
VERTEX
  5
3b1
  8
Layer_1
  10
286.99609
  20
53.766479
  0
VERTEX
  5
3b2
  8
Layer_1
  10
289.87695
  20
56.255493
  0
VERTEX
  5
3b3
  8
Layer_1
  10
298.79608
  20
44.317261
  0
VERTEX
  5
3b4
  8
Layer_1
  10
303.42853
  20
44.317261
  0
VERTEX
  5
3b5
  8
Layer_1
  10
292.48126
  20
58.813721
  0
VERTEX
  5
3b6
  8
Layer_1
  10
302.71405
  20
69.576599
  0
VERTEX
  5
3b7
  8
Layer_1
  10
298.17383
  20
69.576599
  0
VERTEX
  5
3b8
  8
Layer_1
  10
290.01526
  20
60.934021
  42
0.0041382863
  0
VERTEX
  5
3b9
  8
Layer_1
  10
289.12152
  20
59.912598
  42
0.005216782
  0
VERTEX
  5
3ba
  8
Layer_1
  10
288.3418
  20
58.987427
  42
0.0082922331
  0
VERTEX
  5
3bb
  8
Layer_1
  10
287.5564
  20
58.004211
  42
0.010395855
  0
VERTEX
  5
3bc
  8
Layer_1
  10
286.99609
  20
57.246521
  0
VERTEX
  5
3bd
  8
Layer_1
  10
286.81171
  20
57.246521
  42
-1.2865361e-05
  0
VERTEX
  5
3be
  8
Layer_1
  10
286.81836
  20
57.342163
  42
0.0026576031
  0
VERTEX
  5
3bf
  8
Layer_1
  10
286.9032
  20
58.667664
  0
SEQEND
  0
CIRCLE
  5
3c1
  8
Layer_0
  62
0
  10
386.87939
  20
-17.630676
  30
0
  40
2
  0
CIRCLE
  5
3c1
  8
Layer_0
  62
0
  10
426.87939
  20
-17.630676
  30
0
  40
2
  0
POLYLINE
  5
3c1
  8
Layer_0
  62
0
  66
1
  10
0
  20
0
  30
0
  0
VERTEX
  5
3c1
  8
Layer_0
  10
420.29358
  20
-9.7948608
  0
VERTEX
  5
3c2
  8
Layer_0
  10
418.46518
  20
-7.9664307
  42
0.19891633
  0
VERTEX
  5
3c3
  8
Layer_0
  10
417.05096
  20
-7.3806763
  0
VERTEX
  5
3c4
  8
Layer_0
  10
396.70779
  20
-7.3806763
  42
0.19891633
  0
VERTEX
  5
3c5
  8
Layer_0
  10
395.29358
  20
-7.9664307
  0
VERTEX
  5
3c6
  8
Layer_0
  10
393.46518
  20
-9.7948608
  42
0.19890708
  0
VERTEX
  5
3c7
  8
Layer_0
  10
392.87939
  20
-11.209106
  0
VERTEX
  5
3c8
  8
Layer_0
  10
392.87939
  20
-25.880676
  42
0.41421356
  0
VERTEX
  5
3c9
  8
Layer_0
  10
394.87939
  20
-27.880676
  0
VERTEX
  5
3ca
  8
Layer_0
  10
418.87939
  20
-27.880676
  42
0.41421356
  0
VERTEX
  5
3cb
  8
Layer_0
  10
420.87939
  20
-25.880676
  0
VERTEX
  5
3cc
  8
Layer_0
  10
420.87939
  20
-11.209106
  42
0.19891765
  0
VERTEX
  5
3cd
  8
Layer_0
  10
420.29358
  20
-9.7948608
  0
SEQEND
  0
POLYLINE
  5
3cf
  8
Layer_0
  62
0
  66
1
  10
0
  20
0
  30
0
  0
VERTEX
  5
3cf
  8
Layer_0
  10
468.375
  20
177.01697
  0
VERTEX
  5
3d0
  8
Layer_0
  10
497.625
  20
177.01697
  0
VERTEX
  5
3d1
  8
Layer_0
  10
497.625
  20
180.01697
  0
VERTEX
  5
3d2
  8
Layer_0
  10
526.875
  20
180.01697
  0
VERTEX
  5
3d3
  8
Layer_0
  10
526.875
  20
177.01697
  0
VERTEX
  5
3d4
  8
Layer_0
  10
556.125
  20
177.01697
  0
VERTEX
  5
3d5
  8
Layer_0
  10
556.125
  20
180.01697
  0
VERTEX
  5
3d6
  8
Layer_0
  10
585.375
  20
180.01697
  0
VERTEX
  5
3d7
  8
Layer_0
  10
585.375
  20
177.01697
  0
VERTEX
  5
3d8
  8
Layer_0
  10
614.625
  20
177.01697
  0
VERTEX
  5
3d9
  8
Layer_0
  10
614.625
  20
180.01697
  0
VERTEX
  5
3da
  8
Layer_0
  10
643.875
  20
180.01697
  0
VERTEX
  5
3db
  8
Layer_0
  10
643.875
  20
177.01697
  0
VERTEX
  5
3dc
  8
Layer_0
  10
673.125
  20
177.01697
  0
VERTEX
  5
3dd
  8
Layer_0
  10
673.125
  20
180.01697
  0
VERTEX
  5
3de
  8
Layer_0
  10
702.375
  20
180.01697
  0
VERTEX
  5
3df
  8
Layer_0
  10
702.375
  20
177.01697
  0
VERTEX
  5
3e0
  8
Layer_0
  10
731.625
  20
177.01697
  0
VERTEX
  5
3e1
  8
Layer_0
  10
731.625
  20
180.01697
  0
VERTEX
  5
3e2
  8
Layer_0
  10
760.875
  20
180.01697
  0
VERTEX
  5
3e3
  8
Layer_0
  10
760.875
  20
177.01697
  0
VERTEX
  5
3e4
  8
Layer_0
  10
790.125
  20
177.01697
  0
VERTEX
  5
3e5
  8
Layer_0
  10
790.125
  20
180.01697
  0
VERTEX
  5
3e6
  8
Layer_0
  10
819.375
  20
180.01697
  0
VERTEX
  5
3e7
  8
Layer_0
  10
819.375
  20
177.01697
  0
VERTEX
  5
3e8
  8
Layer_0
  10
855.5
  20
177.01697
  0
VERTEX
  5
3e9
  8
Layer_0
  10
855.5
  20
164.39197
  0
VERTEX
  5
3ea
  8
Layer_0
  10
855.5
  20
135.14197
  0
VERTEX
  5
3eb
  8
Layer_0
  10
858.5
  20
135.14197
  0
VERTEX
  5
3ec
  8
Layer_0
  10
858.5
  20
105.89197
  0
VERTEX
  5
3ed
  8
Layer_0
  10
855.5
  20
105.89197
  0
VERTEX
  5
3ee
  8
Layer_0
  10
855.5
  20
76.641968
  0
VERTEX
  5
3ef
  8
Layer_0
  10
858.5
  20
76.641968
  0
VERTEX
  5
3f0
  8
Layer_0
  10
858.5
  20
47.391968
  0
VERTEX
  5
3f1
  8
Layer_0
  10
855.5
  20
47.391968
  0
VERTEX
  5
3f2
  8
Layer_0
  10
855.5
  20
18.141968
  0
VERTEX
  5
3f3
  8
Layer_0
  10
858.5
  20
18.141968
  0
VERTEX
  5
3f4
  8
Layer_0
  10
858.5
  20
-11.108032
  0
VERTEX
  5
3f5
  8
Layer_0
  10
855.5
  20
-11.108032
  0
VERTEX
  5
3f6
  8
Layer_0
  10
855.5
  20
-52.983032
  0
VERTEX
  5
3f7
  8
Layer_0
  10
848.625
  20
-52.983032
  0
VERTEX
  5
3f8
  8
Layer_0
  10
819.375
  20
-52.983032
  0
VERTEX
  5
3f9
  8
Layer_0
  10
819.375
  20
-55.983032
  0
VERTEX
  5
3fa
  8
Layer_0
  10
790.125
  20
-55.983032
  0
VERTEX
  5
3fb
  8
Layer_0
  10
790.125
  20
-52.983032
  0
VERTEX
  5
3fc
  8
Layer_0
  10
760.875
  20
-52.983032
  0
VERTEX
  5
3fd
  8
Layer_0
  10
760.875
  20
-55.983032
  0
VERTEX
  5
3fe
  8
Layer_0
  10
731.625
  20
-55.983032
  0
VERTEX
  5
3ff
  8
Layer_0
  10
731.625
  20
-52.983032
  0
VERTEX
  5
400
  8
Layer_0
  10
702.375
  20
-52.983032
  0
VERTEX
  5
401
  8
Layer_0
  10
702.375
  20
-55.983032
  0
VERTEX
  5
402
  8
Layer_0
  10
673.125
  20
-55.983032
  0
VERTEX
  5
403
  8
Layer_0
  10
673.125
  20
-52.983032
  0
VERTEX
  5
404
  8
Layer_0
  10
643.875
  20
-52.983032
  0
VERTEX
  5
405
  8
Layer_0
  10
643.875
  20
-55.983032
  0
VERTEX
  5
406
  8
Layer_0
  10
614.625
  20
-55.983032
  0
VERTEX
  5
407
  8
Layer_0
  10
614.625
  20
-52.983032
  0
VERTEX
  5
408
  8
Layer_0
  10
585.375
  20
-52.983032
  0
VERTEX
  5
409
  8
Layer_0
  10
585.375
  20
-55.983032
  0
VERTEX
  5
40a
  8
Layer_0
  10
556.125
  20
-55.983032
  0
VERTEX
  5
40b
  8
Layer_0
  10
556.125
  20
-52.983032
  0
VERTEX
  5
40c
  8
Layer_0
  10
526.875
  20
-52.983032
  0
VERTEX
  5
40d
  8
Layer_0
  10
526.875
  20
-55.983032
  0
VERTEX
  5
40e
  8
Layer_0
  10
497.625
  20
-55.983032
  0
VERTEX
  5
40f
  8
Layer_0
  10
497.625
  20
-52.983032
  0
VERTEX
  5
410
  8
Layer_0
  10
461.5
  20
-52.983032
  0
VERTEX
  5
411
  8
Layer_0
  10
461.5
  20
-40.358032
  0
VERTEX
  5
412
  8
Layer_0
  10
461.5
  20
-11.108032
  0
VERTEX
  5
413
  8
Layer_0
  10
458.5
  20
-11.108032
  0
VERTEX
  5
414
  8
Layer_0
  10
458.5
  20
18.141968
  0
VERTEX
  5
415
  8
Layer_0
  10
461.5
  20
18.141968
  0
VERTEX
  5
416
  8
Layer_0
  10
461.5
  20
47.391968
  0
VERTEX
  5
417
  8
Layer_0
  10
458.5
  20
47.391968
  0
VERTEX
  5
418
  8
Layer_0
  10
458.5
  20
76.641968
  0
VERTEX
  5
419
  8
Layer_0
  10
461.5
  20
76.641968
  0
VERTEX
  5
41a
  8
Layer_0
  10
461.5
  20
105.89197
  0
VERTEX
  5
41b
  8
Layer_0
  10
458.5
  20
105.89197
  0
VERTEX
  5
41c
  8
Layer_0
  10
458.5
  20
135.14197
  0
VERTEX
  5
41d
  8
Layer_0
  10
461.5
  20
135.14197
  0
VERTEX
  5
41e
  8
Layer_0
  10
461.5
  20
177.01697
  0
VERTEX
  5
41f
  8
Layer_0
  10
468.375
  20
177.01697
  0
SEQEND
  0
POLYLINE
  5
421
  8
Layer_1
  62
30
  66
1
  10
0
  20
0
  30
0
  0
VERTEX
  5
421
  8
Layer_1
  10
601.7124
  20
49.571289
  42
-0.062156698
  0
VERTEX
  5
422
  8
Layer_1
  10
600.31805
  20
47.302124
  42
-0.20956965
  0
VERTEX
  5
423
  8
Layer_1
  10
593.88092
  20
43.917358
  42
-0.024562717
  0
VERTEX
  5
424
  8
Layer_1
  10
592.60889
  20
43.856628
  42
-0.063543346
  0
VERTEX
  5
425
  8
Layer_1
  10
589.69287
  20
44.21228
  42
-0.041757405
  0
VERTEX
  5
426
  8
Layer_1
  10
588.10321
  20
44.766968
  42
-0.13277043
  0
VERTEX
  5
427
  8
Layer_1
  10
584.68073
  20
47.567139
  0
VERTEX
  5
428
  8
Layer_1
  10
584.40417
  20
47.567139
  0
VERTEX
  5
429
  8
Layer_1
  10
583.59753
  20
44.317566
  0
VERTEX
  5
42a
  8
Layer_1
  10
580.85498
  20
44.317566
  0
VERTEX
  5
42b
  8
Layer_1
  10
580.85498
  20
80.178467
  0
VERTEX
  5
42c
  8
Layer_1
  10
584.68073
  20
80.178467
  0
VERTEX
  5
42d
  8
Layer_1
  10
584.68073
  20
71.466797
  42
-0.0084578391
  0
VERTEX
  5
42e
  8
Layer_1
  10
584.63751
  20
68.771912
  42
-0.010488611
  0
VERTEX
  5
42f
  8
Layer_1
  10
584.50806
  20
66.362793
  42
-0.00060460716
  0
VERTEX
  5
430
  8
Layer_1
  10
584.49634
  20
66.212097
  0
VERTEX
  5
431
  8
Layer_1
  10
584.68073
  20
66.212097
  42
-0.22135756
  0
VERTEX
  5
432
  8
Layer_1
  10
591.02979
  20
69.899536
  42
-0.030280872
  0
VERTEX
  5
433
  8
Layer_1
  10
592.60889
  20
69.99176
  42
-0.071351743
  0
VERTEX
  5
434
  8
Layer_1
  10
595.89966
  20
69.552734
  42
-0.15616715
  0
VERTEX
  5
435
  8
Layer_1
  10
600.34113
  20
66.592407
  42
-0.096004192
  0
VERTEX
  5
436
  8
Layer_1
  10
602.31793
  20
62.785034
  42
-0.050923755
  0
VERTEX
  5
437
  8
Layer_1
  10
602.9859
  20
59.337646
  42
-0.024132065
  0
VERTEX
  5
438
  8
Layer_1
  10
603.09521
  20
56.970276
  42
-0.042267949
  0
VERTEX
  5
439
  8
Layer_1
  10
602.79797
  20
53.196045
  42
-0.065527028
  0
VERTEX
  5
43a
  8
Layer_1
  10
601.7124
  20
49.571289
  0
SEQEND
  0
POLYLINE
  5
43c
  8
Layer_1
  62
30
  66
1
  10
0
  20
0
  30
0
  0
VERTEX
  5
43c
  8
Layer_1
  10
586.40924
  20
64.541199
  42
-0.097555136
  0
VERTEX
  5
43d
  8
Layer_1
  10
587.88702
  20
65.838623
  42
-0.084082551
  0
VERTEX
  5
43e
  8
Layer_1
  10
589.97363
  20
66.600525
  42
-0.048731731
  0
VERTEX
  5
43f
  8
Layer_1
  10
592.05573
  20
66.788269
  42
-0.051065987
  0
VERTEX
  5
440
  8
Layer_1
  10
593.85077
  20
66.616272
  42
-0.19556232
  0
VERTEX
  5
441
  8
Layer_1
  10
597.40259
  20
64.368286
  42
-0.012395017
  0
VERTEX
  5
442
  8
Layer_1
  10
597.57782
  20
64.10968
  42
-0.070969434
  0
VERTEX
  5
443
  8
Layer_1
  10
598.5293
  20
61.962341
  42
-0.04310403
  0
VERTEX
  5
444
  8
Layer_1
  10
598.99438
  20
59.591919
  42
-0.028561462
  0
VERTEX
  5
445
  8
Layer_1
  10
599.13116
  20
57.016357
  42
-0.02935347
  0
VERTEX
  5
446
  8
Layer_1
  10
598.99011
  20
54.447937
  42
-0.044632411
  0
VERTEX
  5
447
  8
Layer_1
  10
598.48926
  20
51.980347
  42
-0.074122504
  0
VERTEX
  5
448
  8
Layer_1
  10
597.40265
  20
49.629883
  42
-0.18007908
  0
VERTEX
  5
449
  8
Layer_1
  10
594.31421
  20
47.350159
  42
-0.072017482
  0
VERTEX
  5
44a
  8
Layer_1
  10
592.14795
  20
47.060181
  42
-0.016059043
  0
VERTEX
  5
44b
  8
Layer_1
  10
591.35974
  20
47.084717
  42
-0.059902219
  0
VERTEX
  5
44c
  8
Layer_1
  10
589.27087
  20
47.453308
  42
-0.15676168
  0
VERTEX
  5
44d
  8
Layer_1
  10
586.45538
  20
49.353333
  42
-0.039360196
  0
VERTEX
  5
44e
  8
Layer_1
  10
585.96106
  20
50.112793
  42
-0.061488044
  0
VERTEX
  5
44f
  8
Layer_1
  10
585.2002
  20
52.096802
  42
-0.037606973
  0
VERTEX
  5
450
  8
Layer_1
  10
584.80597
  20
54.355835
  42
-0.02589644
  0
VERTEX
  5
451
  8
Layer_1
  10
584.68073
  20
56.970337
  42
-0.01057161
  0
VERTEX
  5
452
  8
Layer_1
  10
584.70618
  20
58.217407
  42
-0.029567104
  0
VERTEX
  5
453
  8
Layer_1
  10
584.94153
  20
60.641968
  42
-0.045131745
  0
VERTEX
  5
454
  8
Layer_1
  10
585.46106
  20
62.735352
  42
-0.078324522
  0
VERTEX
  5
455
  8
Layer_1
  10
586.40924
  20
64.541199
  0
SEQEND
  0
POLYLINE
  5
457
  8
Layer_1
  62
30
  66
1
  10
0
  20
0
  30
0
  0
VERTEX
  5
457
  8
Layer_1
  10
631.06079
  20
61.466431
  42
-0.055703303
  0
VERTEX
  5
458
  8
Layer_1
  10
631.57306
  20
57.577637
  42
-0.0067083816
  0
VERTEX
  5
459
  8
Layer_1
  10
631.58118
  20
56.970337
  42
-0.048940259
  0
VERTEX
  5
45a
  8
Layer_1
  10
631.23004
  20
53.125977
  42
-0.083795649
  0
VERTEX
  5
45b
  8
Layer_1
  10
629.74054
  20
49.071045
  42
-0.050714305
  0
VERTEX
  5
45c
  8
Layer_1
  10
628.46979
  20
47.325195
  42
-0.17229335
  0
VERTEX
  5
45d
  8
Layer_1
  10
622.46753
  20
44.073425
  42
-0.043892191
  0
VERTEX
  5
45e
  8
Layer_1
  10
619.87329
  20
43.856628
  42
-0.073766709
  0
VERTEX
  5
45f
  8
Layer_1
  10
616.30328
  20
44.359558
  42
-0.063040576
  0
VERTEX
  5
460
  8
Layer_1
  10
613.85809
  20
45.446899
  42
-0.13556751
  0
VERTEX
  5
461
  8
Layer_1
  10
610.08026
  20
49.464844
  42
-0.012187454
  0
VERTEX
  5
462
  8
Layer_1
  10
609.80182
  20
50.010132
  42
-0.071709736
  0
VERTEX
  5
463
  8
Layer_1
  10
608.61334
  20
53.870239
  42
-0.040666702
  0
VERTEX
  5
464
  8
Layer_1
  10
608.37292
  20
56.970337
  42
-0.048664309
  0
VERTEX
  5
465
  8
Layer_1
  10
608.72144
  20
60.812012
  42
-0.082022983
  0
VERTEX
  5
466
  8
Layer_1
  10
610.16302
  20
64.792297
  42
-0.05260983
  0
VERTEX
  5
467
  8
Layer_1
  10
611.46118
  20
66.592407
  42
-0.17095902
  0
VERTEX
  5
468
  8
Layer_1
  10
617.36566
  20
69.808838
  42
-0.045157849
  0
VERTEX
  5
469
  8
Layer_1
  10
620.03467
  20
70.037842
  42
-0.074520829
  0
VERTEX
  5
46a
  8
Layer_1
  10
623.80878
  20
69.510498
  42
-0.14084991
  0
VERTEX
  5
46b
  8
Layer_1
  10
628.45825
  20
66.511719
  42
-0.12087015
  0
VERTEX
  5
46c
  8
Layer_1
  10
631.06079
  20
61.466431
  0
SEQEND
  0
POLYLINE
  5
46e
  8
Layer_1
  62
30
  66
1
  10
0
  20
0
  30
0
  0
VERTEX
  5
46e
  8
Layer_1
  10
622.30988
  20
47.351624
  42
-0.066758421
  0
VERTEX
  5
46f
  8
Layer_1
  10
619.96552
  20
47.060181
  42
-0.042551656
  0
VERTEX
  5
470
  8
Layer_1
  10
618.35675
  20
47.190308
  42
-0.19623663
  0
VERTEX
  5
471
  8
Layer_1
  10
614.27295
  20
49.595337
  42
-0.073537875
  0
VERTEX
  5
472
  8
Layer_1
  10
613.15216
  20
51.659668
  42
-0.053875229
  0
VERTEX
  5
473
  8
Layer_1
  10
612.5213
  20
54.202698
  42
-0.03582649
  0
VERTEX
  5
474
  8
Layer_1
  10
612.33698
  20
56.970337
  42
-0.031587635
  0
VERTEX
  5
475
  8
Layer_1
  10
612.48712
  20
59.517944
  42
-0.048487281
  0
VERTEX
  5
476
  8
Layer_1
  10
613.02026
  20
61.946167
  42
-0.085176433
  0
VERTEX
  5
477
  8
Layer_1
  10
614.24988
  20
64.322266
  42
-0.17113188
  0
VERTEX
  5
478
  8
Layer_1
  10
617.65265
  20
66.522705
  42
-0.062931244
  0
VERTEX
  5
479
  8
Layer_1
  10
619.91937
  20
66.788269
  42
-0.047919409
  0
VERTEX
  5
47a
  8
Layer_1
  10
621.7569
  20
66.62207
  42
-0.18733699
  0
VERTEX
  5
47b
  8
Layer_1
  10
625.66962
  20
64.28772
  42
-0.076123822
  0
VERTEX
  5
47c
  8
Layer_1
  10
626.81567
  20
62.196899
  42
-0.053825157
  0
VERTEX
  5
47d
  8
Layer_1
  10
627.43628
  20
59.690552
  42
-0.035758493
  0
VERTEX
  5
47e
  8
Layer_1
  10
627.61707
  20
56.970276
  42
-0.029077002
  0
VERTEX
  5
47f
  8
Layer_1
  10
627.48914
  20
54.630859
  42
-0.049749959
  0
VERTEX
  5
480
  8
Layer_1
  10
626.94849
  20
52.074707
  42
-0.085860608
  0
VERTEX
  5
481
  8
Layer_1
  10
625.66962
  20
49.58374
  42
-0.16765537
  0
VERTEX
  5
482
  8
Layer_1
  10
622.30988
  20
47.351624
  0
SEQEND
  0
POLYLINE
  5
484
  8
Layer_1
  62
30
  66
1
  10
0
  20
0
  30
0
  0
VERTEX
  5
484
  8
Layer_1
  10
638.86469
  20
48.767944
  42
0.28436685
  0
VERTEX
  5
485
  8
Layer_1
  10
642.94855
  20
44.25293
  42
0.074748054
  0
VERTEX
  5
486
  8
Layer_1
  10
645.89325
  20
43.856628
  42
0.003173324
  0
VERTEX
  5
487
  8
Layer_1
  10
646.02289
  20
43.857483
  42
0.020331866
  0
VERTEX
  5
488
  8
Layer_1
  10
646.98999
  20
43.911926
  42
0.016443448
  0
VERTEX
  5
489
  8
Layer_1
  10
648.07123
  20
44.05249
  42
0.0039947521
  0
VERTEX
  5
48a
  8
Layer_1
  10
648.29968
  20
44.09137
  42
0.014667001
  0
VERTEX
  5
48b
  8
Layer_1
  10
648.91913
  20
44.219543
  42
0.020968691
  0
VERTEX
  5
48c
  8
Layer_1
  10
649.45709
  20
44.37085
  42
0.03196037
  0
VERTEX
  5
48d
  8
Layer_1
  10
649.90338
  20
44.548035
  0
VERTEX
  5
48e
  8
Layer_1
  10
649.90338
  20
47.474976
  42
-0.0029480981
  0
VERTEX
  5
48f
  8
Layer_1
  10
649.85205
  20
47.460327
  42
-0.013137518
  0
VERTEX
  5
490
  8
Layer_1
  10
649.44714
  20
47.358643
  42
-0.0092990974
  0
VERTEX
  5
491
  8
Layer_1
  10
648.95764
  20
47.258606
  42
-0.0067683561
  0
VERTEX
  5
492
  8
Layer_1
  10
648.40533
  20
47.163879
  42
-0.0027027019
  0
VERTEX
  5
493
  8
Layer_1
  10
648.28693
  20
47.145752
  42
-0.03677315
  0
VERTEX
  5
494
  8
Layer_1
  10
646.44635
  20
47.014038
  42
-0.038712571
  0
VERTEX
  5
495
  8
Layer_1
  10
645.6582
  20
47.07251
  42
-0.17972697
  0
VERTEX
  5
496
  8
Layer_1
  10
643.47333
  20
48.235535
  42
-0.066755612
  0
VERTEX
  5
497
  8
Layer_1
  10
642.92493
  20
49.055786
  42
-0.071001919
  0
VERTEX
  5
498
  8
Layer_1
  10
642.50122
  20
50.385742
  42
-0.044156481
  0
VERTEX
  5
499
  8
Layer_1
  10
642.39014
  20
51.738647
  0
VERTEX
  5
49a
  8
Layer_1
  10
642.39014
  20
66.603882
  0
VERTEX
  5
49b
  8
Layer_1
  10
649.71906
  20
66.603882
  0
VERTEX
  5
49c
  8
Layer_1
  10
649.71906
  20
69.576904
  0
VERTEX
  5
49d
  8
Layer_1
  10
642.39014
  20
69.576904
  0
VERTEX
  5
49e
  8
Layer_1
  10
642.39014
  20
75.430847
  0
VERTEX
  5
49f
  8
Layer_1
  10
640.17761
  20
75.430847
  0
VERTEX
  5
4a0
  8
Layer_1
  10
638.56433
  20
70.037842
  0
VERTEX
  5
4a1
  8
Layer_1
  10
634.94598
  20
68.447632
  0
VERTEX
  5
4a2
  8
Layer_1
  10
634.94598
  20
66.603882
  0
VERTEX
  5
4a3
  8
Layer_1
  10
638.56433
  20
66.603882
  0
VERTEX
  5
4a4
  8
Layer_1
  10
638.56433
  20
51.577332
  42
0.058951115
  0
VERTEX
  5
4a5
  8
Layer_1
  10
638.86469
  20
48.767944
  0
SEQEND
  0
POLYLINE
  5
4a7
  8
Layer_1
  62
30
  66
1
  10
0
  20
0
  30
0
  0
VERTEX
  5
4a7
  8
Layer_1
  10
664.94989
  20
47.145691
  42
-0.036757294
  0
VERTEX
  5
4a8
  8
Layer_1
  10
663.10925
  20
47.014038
  42
-0.038741007
  0
VERTEX
  5
4a9
  8
Layer_1
  10
662.32104
  20
47.07251
  42
-0.17971984
  0
VERTEX
  5
4aa
  8
Layer_1
  10
660.13617
  20
48.235535
  42
-0.066745395
  0
VERTEX
  5
4ab
  8
Layer_1
  10
659.58777
  20
49.055725
  42
-0.070965258
  0
VERTEX
  5
4ac
  8
Layer_1
  10
659.16412
  20
50.385742
  42
-0.044156588
  0
VERTEX
  5
4ad
  8
Layer_1
  10
659.05304
  20
51.738647
  0
VERTEX
  5
4ae
  8
Layer_1
  10
659.05304
  20
66.603882
  0
VERTEX
  5
4af
  8
Layer_1
  10
666.3819
  20
66.603882
  0
VERTEX
  5
4b0
  8
Layer_1
  10
666.3819
  20
69.576904
  0
VERTEX
  5
4b1
  8
Layer_1
  10
659.05304
  20
69.576904
  0
VERTEX
  5
4b2
  8
Layer_1
  10
659.05304
  20
75.430847
  0
VERTEX
  5
4b3
  8
Layer_1
  10
656.84052
  20
75.430847
  0
VERTEX
  5
4b4
  8
Layer_1
  10
655.22723
  20
70.037842
  0
VERTEX
  5
4b5
  8
Layer_1
  10
651.60889
  20
68.447632
  0
VERTEX
  5
4b6
  8
Layer_1
  10
651.60889
  20
66.603882
  0
VERTEX
  5
4b7
  8
Layer_1
  10
655.22723
  20
66.603882
  0
VERTEX
  5
4b8
  8
Layer_1
  10
655.22723
  20
51.577332
  42
0.05893532
  0
VERTEX
  5
4b9
  8
Layer_1
  10
655.52753
  20
48.767944
  42
0.28436685
  0
VERTEX
  5
4ba
  8
Layer_1
  10
659.61139
  20
44.25293
  42
0.074747816
  0
VERTEX
  5
4bb
  8
Layer_1
  10
662.55615
  20
43.856628
  42
0.0031778056
  0
VERTEX
  5
4bc
  8
Layer_1
  10
662.68573
  20
43.857483
  42
0.020327294
  0
VERTEX
  5
4bd
  8
Layer_1
  10
663.65289
  20
43.911926
  42
0.016450228
  0
VERTEX
  5
4be
  8
Layer_1
  10
664.73407
  20
44.05249
  42
0.00396013
  0
VERTEX
  5
4bf
  8
Layer_1
  10
664.96259
  20
44.09137
  42
0.014667001
  0
VERTEX
  5
4c0
  8
Layer_1
  10
665.58203
  20
44.219543
  42
0.020968691
  0
VERTEX
  5
4c1
  8
Layer_1
  10
666.12
  20
44.37085
  42
0.03196037
  0
VERTEX
  5
4c2
  8
Layer_1
  10
666.56628
  20
44.548035
  0
VERTEX
  5
4c3
  8
Layer_1
  10
666.56628
  20
47.474976
  42
-0.0029480981
  0
VERTEX
  5
4c4
  8
Layer_1
  10
666.51495
  20
47.460327
  42
-0.013137518
  0
VERTEX
  5
4c5
  8
Layer_1
  10
666.11005
  20
47.358643
  42
-0.0092990974
  0
VERTEX
  5
4c6
  8
Layer_1
  10
665.62054
  20
47.258606
  42
-0.0067683561
  0
VERTEX
  5
4c7
  8
Layer_1
  10
665.06824
  20
47.163879
  42
-0.0024574589
  0
VERTEX
  5
4c8
  8
Layer_1
  10
664.94989
  20
47.145691
  0
SEQEND
  0
POLYLINE
  5
4ca
  8
Layer_1
  62
30
  66
1
  10
0
  20
0
  30
0
  0
VERTEX
  5
4ca
  8
Layer_1
  10
679.2005
  20
69.808838
  42
-0.045169252
  0
VERTEX
  5
4cb
  8
Layer_1
  10
681.86945
  20
70.037842
  42
-0.074520829
  0
VERTEX
  5
4cc
  8
Layer_1
  10
685.64355
  20
69.510498
  42
-0.14085263
  0
VERTEX
  5
4cd
  8
Layer_1
  10
690.29303
  20
66.511719
  42
-0.12088064
  0
VERTEX
  5
4ce
  8
Layer_1
  10
692.89551
  20
61.466431
  42
-0.055703303
  0
VERTEX
  5
4cf
  8
Layer_1
  10
693.40778
  20
57.577637
  42
-0.0066330203
  0
VERTEX
  5
4d0
  8
Layer_1
  10
693.41595
  20
56.970337
  42
-0.048940259
  0
VERTEX
  5
4d1
  8
Layer_1
  10
693.06482
  20
53.125977
  42
-0.083795649
  0
VERTEX
  5
4d2
  8
Layer_1
  10
691.57532
  20
49.071045
  42
-0.050714305
  0
VERTEX
  5
4d3
  8
Layer_1
  10
690.30457
  20
47.325195
  42
-0.17229335
  0
VERTEX
  5
4d4
  8
Layer_1
  10
684.30231
  20
44.073425
  42
-0.043892191
  0
VERTEX
  5
4d5
  8
Layer_1
  10
681.70807
  20
43.856628
  42
-0.073766709
  0
VERTEX
  5
4d6
  8
Layer_1
  10
678.13806
  20
44.359558
  42
-0.063040576
  0
VERTEX
  5
4d7
  8
Layer_1
  10
675.69287
  20
45.446899
  42
-0.13556751
  0
VERTEX
  5
4d8
  8
Layer_1
  10
671.91504
  20
49.464844
  42
-0.012187454
  0
VERTEX
  5
4d9
  8
Layer_1
  10
671.6366
  20
50.010132
  42
-0.071709736
  0
VERTEX
  5
4da
  8
Layer_1
  10
670.44812
  20
53.870239
  42
-0.040681424
  0
VERTEX
  5
4db
  8
Layer_1
  10
670.2077
  20
56.970337
  42
-0.048664309
  0
VERTEX
  5
4dc
  8
Layer_1
  10
670.55621
  20
60.812012
  42
-0.082022983
  0
VERTEX
  5
4dd
  8
Layer_1
  10
671.9978
  20
64.792297
  42
-0.05260983
  0
VERTEX
  5
4de
  8
Layer_1
  10
673.29596
  20
66.592407
  42
-0.17096347
  0
VERTEX
  5
4df
  8
Layer_1
  10
679.2005
  20
69.808838
  0
SEQEND
  0
POLYLINE
  5
4e1
  8
Layer_1
  62
30
  66
1
  10
0
  20
0
  30
0
  0
VERTEX
  5
4e1
  8
Layer_1
  10
684.14465
  20
47.351624
  42
-0.066758421
  0
VERTEX
  5
4e2
  8
Layer_1
  10
681.80029
  20
47.060181
  42
-0.042551656
  0
VERTEX
  5
4e3
  8
Layer_1
  10
680.19153
  20
47.190308
  42
-0.19622895
  0
VERTEX
  5
4e4
  8
Layer_1
  10
676.10767
  20
49.595337
  42
-0.073556178
  0
VERTEX
  5
4e5
  8
Layer_1
  10
674.98694
  20
51.659668
  42
-0.053875229
  0
VERTEX
  5
4e6
  8
Layer_1
  10
674.35608
  20
54.202698
  42
-0.03582649
  0
VERTEX
  5
4e7
  8
Layer_1
  10
674.17175
  20
56.970337
  42
-0.031587635
  0
VERTEX
  5
4e8
  8
Layer_1
  10
674.3219
  20
59.517944
  42
-0.048487281
  0
VERTEX
  5
4e9
  8
Layer_1
  10
674.85504
  20
61.946167
  42
-0.085176433
  0
VERTEX
  5
4ea
  8
Layer_1
  10
676.08466
  20
64.322266
  42
-0.17113188
  0
VERTEX
  5
4eb
  8
Layer_1
  10
679.48743
  20
66.522705
  42
-0.062931244
  0
VERTEX
  5
4ec
  8
Layer_1
  10
681.75415
  20
66.788269
  42
-0.047919409
  0
VERTEX
  5
4ed
  8
Layer_1
  10
683.59167
  20
66.62207
  42
-0.18733699
  0
VERTEX
  5
4ee
  8
Layer_1
  10
687.50439
  20
64.28772
  42
-0.076123822
  0
VERTEX
  5
4ef
  8
Layer_1
  10
688.65045
  20
62.196899
  42
-0.053825157
  0
VERTEX
  5
4f0
  8
Layer_1
  10
689.27106
  20
59.690552
  42
-0.035775284
  0
VERTEX
  5
4f1
  8
Layer_1
  10
689.45184
  20
56.970276
  42
-0.029077002
  0
VERTEX
  5
4f2
  8
Layer_1
  10
689.32391
  20
54.630859
  42
-0.049732542
  0
VERTEX
  5
4f3
  8
Layer_1
  10
688.7832
  20
52.074707
  42
-0.085876212
  0
VERTEX
  5
4f4
  8
Layer_1
  10
687.50439
  20
49.58374
  42
-0.16765537
  0
VERTEX
  5
4f5
  8
Layer_1
  10
684.14465
  20
47.351624
  0
SEQEND
  0
POLYLINE
  5
4f7
  8
Layer_1
  62
30
  66
1
  10
0
  20
0
  30
0
  0
VERTEX
  5
4f7
  8
Layer_1
  10
731.8125
  20
63.940308
  42
-0.055920433
  0
VERTEX
  5
4f8
  8
Layer_1
  10
732.20532
  20
62.409546
  42
-0.036907625
  0
VERTEX
  5
4f9
  8
Layer_1
  10
732.31903
  20
60.75
  0
VERTEX
  5
4fa
  8
Layer_1
  10
732.31903
  20
44.317566
  0
VERTEX
  5
4fb
  8
Layer_1
  10
736.14484
  20
44.317566
  0
VERTEX
  5
4fc
  8
Layer_1
  10
736.14484
  20
60.796082
  42
0.034825799
  0
VERTEX
  5
4fd
  8
Layer_1
  10
735.98718
  20
63.233032
  42
0.054427161
  0
VERTEX
  5
4fe
  8
Layer_1
  10
735.42749
  20
65.523071
  42
0.10402332
  0
VERTEX
  5
4ff
  8
Layer_1
  10
734.01294
  20
67.836914
  42
0.080434969
  0
VERTEX
  5
500
  8
Layer_1
  10
732.39441
  20
69.037842
  42
0.07515625
  0
VERTEX
  5
501
  8
Layer_1
  10
730.00659
  20
69.833557
  42
0.045600701
  0
VERTEX
  5
502
  8
Layer_1
  10
727.59442
  20
70.037842
  42
0.027662132
  0
VERTEX
  5
503
  8
Layer_1
  10
726.26062
  20
69.96582
  42
0.096750855
  0
VERTEX
  5
504
  8
Layer_1
  10
722.70844
  20
68.885498
  42
0.0078662894
  0
VERTEX
  5
505
  8
Layer_1
  10
722.44452
  20
68.738281
  42
0.13511582
  0
VERTEX
  5
506
  8
Layer_1
  10
719.43585
  20
65.75116
  0
VERTEX
  5
507
  8
Layer_1
  10
719.25146
  20
65.75116
  42
0.12848725
  0
VERTEX
  5
508
  8
Layer_1
  10
717.27075
  20
68.393677
  42
0.11085954
  0
VERTEX
  5
509
  8
Layer_1
  10
714.32703
  20
69.744263
  42
0.056757468
  0
VERTEX
  5
50a
  8
Layer_1
  10
711.50769
  20
70.037842
  42
0.018847413
  0
VERTEX
  5
50b
  8
Layer_1
  10
710.68188
  20
70.007263
  42
0.10365291
  0
VERTEX
  5
50c
  8
Layer_1
  10
707.09424
  20
69.000732
  42
0.14241627
  0
VERTEX
  5
50d
  8
Layer_1
  10
704.04053
  20
66.119873
  0
VERTEX
  5
50e
  8
Layer_1
  10
703.85614
  20
66.119873
  0
VERTEX
  5
50f
  8
Layer_1
  10
703.23389
  20
69.576904
  0
VERTEX
  5
510
  8
Layer_1
  10
700.12256
  20
69.576904
  0
VERTEX
  5
511
  8
Layer_1
  10
700.12256
  20
44.317566
  0
VERTEX
  5
512
  8
Layer_1
  10
703.9483
  20
44.317566
  0
VERTEX
  5
513
  8
Layer_1
  10
703.9483
  20
57.569519
  42
-0.0084291905
  0
VERTEX
  5
514
  8
Layer_1
  10
703.96301
  20
58.465576
  42
-0.030758096
  0
VERTEX
  5
515
  8
Layer_1
  10
704.17603
  20
60.818481
  42
-0.045520814
  0
VERTEX
  5
516
  8
Layer_1
  10
704.66797
  20
62.826477
  42
-0.080097727
  0
VERTEX
  5
517
  8
Layer_1
  10
705.61926
  20
64.633423
  42
-0.081352294
  0
VERTEX
  5
518
  8
Layer_1
  10
706.80457
  20
65.73877
  42
-0.095907166
  0
VERTEX
  5
519
  8
Layer_1
  10
708.92035
  20
66.598328
  42
-0.052102361
  0
VERTEX
  5
51a
  8
Layer_1
  10
710.88544
  20
66.788269
  42
-0.019876772
  0
VERTEX
  5
51b
  8
Layer_1
  10
711.59705
  20
66.760986
  42
-0.059385155
  0
VERTEX
  5
51c
  8
Layer_1
  10
713.07281
  20
66.478333
  42
-0.13980958
  0
VERTEX
  5
51d
  8
Layer_1
  10
714.91864
  20
65.278687
  42
-0.084479774
  0
VERTEX
  5
51e
  8
Layer_1
  10
715.70276
  20
63.940308
  42
-0.055943976
  0
VERTEX
  5
51f
  8
Layer_1
  10
716.09552
  20
62.409546
  42
-0.036907551
  0
VERTEX
  5
520
  8
Layer_1
  10
716.20923
  20
60.75
  0
VERTEX
  5
521
  8
Layer_1
  10
716.20929
  20
44.317566
  0
VERTEX
  5
522
  8
Layer_1
  10
720.03503
  20
44.317566
  0
VERTEX
  5
523
  8
Layer_1
  10
720.03503
  20
58.422241
  42
0.0011990321
  0
VERTEX
  5
524
  8
Layer_1
  10
720.0351
  20
58.461548
  42
-0.034077814
  0
VERTEX
  5
525
  8
Layer_1
  10
720.18365
  20
60.74646
  42
-0.050900133
  0
VERTEX
  5
526
  8
Layer_1
  10
720.66833
  20
62.796997
  42
-0.088339859
  0
VERTEX
  5
527
  8
Layer_1
  10
721.74054
  20
64.737061
  42
-0.078408414
  0
VERTEX
  5
528
  8
Layer_1
  10
722.92621
  20
65.779663
  42
-0.090926298
  0
VERTEX
  5
529
  8
Layer_1
  10
725.01471
  20
66.597839
  42
-0.051239185
  0
VERTEX
  5
52a
  8
Layer_1
  10
727.01825
  20
66.788269
  42
-0.018551712
  0
VERTEX
  5
52b
  8
Layer_1
  10
727.67706
  20
66.764587
  42
-0.05949337
  0
VERTEX
  5
52c
  8
Layer_1
  10
729.15698
  20
66.488892
  42
-0.14115226
  0
VERTEX
  5
52d
  8
Layer_1
  10
731.02838
  20
65.278687
  42
-0.084525704
  0
VERTEX
  5
52e
  8
Layer_1
  10
731.8125
  20
63.940308
  0
SEQEND
  0
POLYLINE
  5
530
  8
Layer_0
  62
0
  66
1
  10
0
  20
0
  30
0
  0
VERTEX
  5
530
  8
Layer_0
  10
285.49988
  20
414.39215
  0
VERTEX
  5
531
  8
Layer_0
  10
285.49988
  20
385.14215
  0
VERTEX
  5
532
  8
Layer_0
  10
282.49988
  20
385.14215
  0
VERTEX
  5
533
  8
Layer_0
  10
282.49994
  20
355.89215
  0
VERTEX
  5
534
  8
Layer_0
  10
285.49994
  20
355.89215
  0
VERTEX
  5
535
  8
Layer_0
  10
285.5
  20
326.64215
  0
VERTEX
  5
536
  8
Layer_0
  10
282.5
  20
326.64215
  0
VERTEX
  5
537
  8
Layer_0
  10
282.5
  20
297.39215
  0
VERTEX
  5
538
  8
Layer_0
  10
285.5
  20
297.39215
  0
VERTEX
  5
539
  8
Layer_0
  10
285.5
  20
268.14215
  0
VERTEX
  5
53a
  8
Layer_0
  10
282.5
  20
268.14215
  0
VERTEX
  5
53b
  8
Layer_0
  10
282.50006
  20
238.89215
  0
VERTEX
  5
53c
  8
Layer_0
  10
285.50006
  20
238.89215
  0
VERTEX
  5
53d
  8
Layer_0
  10
285.50012
  20
197.01715
  0
VERTEX
  5
53e
  8
Layer_0
  10
269.87512
  20
197.01715
  0
VERTEX
  5
53f
  8
Layer_0
  10
240.62512
  20
197.01709
  0
VERTEX
  5
540
  8
Layer_0
  10
240.62512
  20
194.01709
  0
VERTEX
  5
541
  8
Layer_0
  10
211.37512
  20
194.01709
  0
VERTEX
  5
542
  8
Layer_0
  10
211.37512
  20
197.01709
  0
VERTEX
  5
543
  8
Layer_0
  10
182.12512
  20
197.01703
  0
VERTEX
  5
544
  8
Layer_0
  10
182.12512
  20
194.01703
  0
VERTEX
  5
545
  8
Layer_0
  10
152.87512
  20
194.01697
  0
VERTEX
  5
546
  8
Layer_0
  10
152.87512
  20
197.01697
  0
VERTEX
  5
547
  8
Layer_0
  10
123.62512
  20
197.01697
  0
VERTEX
  5
548
  8
Layer_0
  10
123.62512
  20
194.01697
  0
VERTEX
  5
549
  8
Layer_0
  10
94.375122
  20
194.01691
  0
VERTEX
  5
54a
  8
Layer_0
  10
94.375122
  20
197.01691
  0
VERTEX
  5
54b
  8
Layer_0
  10
49.500122
  20
197.01691
  0
VERTEX
  5
54c
  8
Layer_0
  10
49.500122
  20
209.64191
  0
VERTEX
  5
54d
  8
Layer_0
  10
49.500061
  20
238.89191
  0
VERTEX
  5
54e
  8
Layer_0
  10
52.500061
  20
238.89191
  0
VERTEX
  5
54f
  8
Layer_0
  10
52.5
  20
268.14191
  0
VERTEX
  5
550
  8
Layer_0
  10
49.5
  20
268.14191
  0
VERTEX
  5
551
  8
Layer_0
  10
49.5
  20
297.39191
  0
VERTEX
  5
552
  8
Layer_0
  10
52.5
  20
297.39191
  0
VERTEX
  5
553
  8
Layer_0
  10
52.5
  20
326.64188
  0
VERTEX
  5
554
  8
Layer_0
  10
49.5
  20
326.64188
  0
VERTEX
  5
555
  8
Layer_0
  10
49.499939
  20
355.89188
  0
VERTEX
  5
556
  8
Layer_0
  10
52.499939
  20
355.89188
  0
VERTEX
  5
557
  8
Layer_0
  10
52.499878
  20
385.14188
  0
VERTEX
  5
558
  8
Layer_0
  10
49.499878
  20
385.14188
  0
VERTEX
  5
559
  8
Layer_0
  10
49.499878
  20
427.01688
  0
VERTEX
  5
55a
  8
Layer_0
  10
65.124878
  20
427.01691
  0
VERTEX
  5
55b
  8
Layer_0
  10
94.374878
  20
427.01694
  0
VERTEX
  5
55c
  8
Layer_0
  10
94.374878
  20
430.01694
  0
VERTEX
  5
55d
  8
Layer_0
  10
123.62488
  20
430.01697
  0
VERTEX
  5
55e
  8
Layer_0
  10
123.62488
  20
427.01697
  0
VERTEX
  5
55f
  8
Layer_0
  10
152.87488
  20
427.017
  0
VERTEX
  5
560
  8
Layer_0
  10
152.87488
  20
430.017
  0
VERTEX
  5
561
  8
Layer_0
  10
182.12488
  20
430.01703
  0
VERTEX
  5
562
  8
Layer_0
  10
182.12488
  20
427.01703
  0
VERTEX
  5
563
  8
Layer_0
  10
211.37488
  20
427.01706
  0
VERTEX
  5
564
  8
Layer_0
  10
211.37488
  20
430.01706
  0
VERTEX
  5
565
  8
Layer_0
  10
240.62488
  20
430.01709
  0
VERTEX
  5
566
  8
Layer_0
  10
240.62488
  20
427.01709
  0
VERTEX
  5
567
  8
Layer_0
  10
285.49988
  20
427.01715
  0
VERTEX
  5
568
  8
Layer_0
  10
285.49988
  20
414.39215
  0
SEQEND
  0
POLYLINE
  5
56a
  8
Layer_1
  62
30
  66
1
  10
0
  20
0
  30
0
  0
VERTEX
  5
56a
  8
Layer_1
  10
177.47937
  20
349.59494
  42
-0.011485218
  0
VERTEX
  5
56b
  8
Layer_1
  10
177.46973
  20
349.18442
  42
-0.024438567
  0
VERTEX
  5
56c
  8
Layer_1
  10
177.35754
  20
348.04181
  42
-0.018291689
  0
VERTEX
  5
56d
  8
Layer_1
  10
177.13367
  20
346.82935
  0
VERTEX
  5
56e
  8
Layer_1
  10
180.68286
  20
346.29926
  42
0.028539355
  0
VERTEX
  5
56f
  8
Layer_1
  10
180.89246
  20
347.746
  42
0.022402502
  0
VERTEX
  5
570
  8
Layer_1
  10
180.95947
  20
349.31839
  42
0.15285424
  0
VERTEX
  5
571
  8
Layer_1
  10
179.62274
  20
353.67426
  42
0.066340149
  0
VERTEX
  5
572
  8
Layer_1
  10
177.88379
  20
355.61755
  42
0.048864295
  0
VERTEX
  5
573
  8
Layer_1
  10
175.82001
  20
357.06213
  0
VERTEX
  5
574
  8
Layer_1
  10
175.82001
  20
357.24652
  0
VERTEX
  5
575
  8
Layer_1
  10
180.49854
  20
357.68442
  0
VERTEX
  5
576
  8
Layer_1
  10
180.49854
  20
360.84183
  0
VERTEX
  5
577
  8
Layer_1
  10
155.23914
  20
360.8418
  0
VERTEX
  5
578
  8
Layer_1
  10
155.23914
  20
357.01602
  0
VERTEX
  5
579
  8
Layer_1
  10
168.79071
  20
357.01605
  42
-0.027927299
  0
VERTEX
  5
57a
  8
Layer_1
  10
170.08472
  20
356.94574
  42
-0.1565272
  0
VERTEX
  5
57b
  8
Layer_1
  10
174.9903
  20
354.8381
  42
-0.014093458
  0
VERTEX
  5
57c
  8
Layer_1
  10
175.36401
  20
354.4924
  42
-0.21006533
  0
VERTEX
  5
57d
  8
Layer_1
  10
177.47937
  20
349.59494
  0
SEQEND
  0
POLYLINE
  5
57f
  8
Layer_1
  62
30
  66
1
  10
0
  20
0
  30
0
  0
VERTEX
  5
57f
  8
Layer_1
  10
180.49854
  20
341.57465
  0
VERTEX
  5
580
  8
Layer_1
  10
155.23914
  20
341.57462
  0
VERTEX
  5
581
  8
Layer_1
  10
155.23914
  20
337.74884
  0
VERTEX
  5
582
  8
Layer_1
  10
180.49854
  20
337.74887
  0
VERTEX
  5
583
  8
Layer_1
  10
180.49854
  20
341.57465
  0
SEQEND
  0
POLYLINE
  5
585
  8
Layer_1
  62
30
  66
1
  10
0
  20
0
  30
0
  0
VERTEX
  5
585
  8
Layer_1
  10
189.87854
  20
339.6387
  42
0.016691387
  0
VERTEX
  5
586
  8
Layer_1
  10
189.87231
  20
339.832
  42
0.18003426
  0
VERTEX
  5
587
  8
Layer_1
  10
189.26782
  20
341.25201
  42
0.096803824
  0
VERTEX
  5
588
  8
Layer_1
  10
188.7063
  20
341.6474
  42
0.065927489
  0
VERTEX
  5
589
  8
Layer_1
  10
188.04419
  20
341.84338
  42
0.041481526
  0
VERTEX
  5
58a
  8
Layer_1
  10
187.34344
  20
341.89731
  42
0.023945203
  0
VERTEX
  5
58b
  8
Layer_1
  10
186.91138
  20
341.87747
  42
0.057717763
  0
VERTEX
  5
58c
  8
Layer_1
  10
186.20953
  20
341.73343
  42
0.11879972
  0
VERTEX
  5
58d
  8
Layer_1
  10
185.41907
  20
341.25198
  42
0.10851373
  0
VERTEX
  5
58e
  8
Layer_1
  10
184.9245
  20
340.47528
  42
0.08792865
  0
VERTEX
  5
58f
  8
Layer_1
  10
184.78528
  20
339.6387
  42
0.19938115
  0
VERTEX
  5
590
  8
Layer_1
  10
185.41907
  20
338.04846
  42
0.08153115
  0
VERTEX
  5
591
  8
Layer_1
  10
185.90198
  20
337.68381
  42
0.076281045
  0
VERTEX
  5
592
  8
Layer_1
  10
186.61798
  20
337.44217
  42
0.046092219
  0
VERTEX
  5
593
  8
Layer_1
  10
187.34351
  20
337.38013
  42
0.023745051
  0
VERTEX
  5
594
  8
Layer_1
  10
187.75793
  20
337.39893
  42
0.057867343
  0
VERTEX
  5
595
  8
Layer_1
  10
188.44452
  20
337.53946
  42
0.12598409
  0
VERTEX
  5
596
  8
Layer_1
  10
189.25635
  20
338.04846
  42
0.19672848
  0
VERTEX
  5
597
  8
Layer_1
  10
189.87854
  20
339.6387
  0
SEQEND
  0
POLYLINE
  5
599
  8
Layer_1
  62
30
  66
1
  10
0
  20
0
  30
0
  0
VERTEX
  5
599
  8
Layer_1
  10
180.49854
  20
317.69806
  0
VERTEX
  5
59a
  8
Layer_1
  10
180.49854
  20
308.96332
  0
VERTEX
  5
59b
  8
Layer_1
  10
178.07861
  20
308.96332
  0
VERTEX
  5
59c
  8
Layer_1
  10
177.52551
  20
313.64185
  42
-0.038837927
  0
VERTEX
  5
59d
  8
Layer_1
  10
176.72485
  20
313.1037
  42
-0.027799022
  0
VERTEX
  5
59e
  8
Layer_1
  10
175.81628
  20
312.65338
  42
-0.0091498195
  0
VERTEX
  5
59f
  8
Layer_1
  10
175.41669
  20
312.4895
  42
-0.061733904
  0
VERTEX
  5
5a0
  8
Layer_1
  10
173.65845
  20
312.05377
  42
-0.031302193
  0
VERTEX
  5
5a1
  8
Layer_1
  10
172.47827
  20
311.98242
  42
-0.078822372
  0
VERTEX
  5
5a2
  8
Layer_1
  10
169.75922
  20
312.38495
  42
-0.13824302
  0
VERTEX
  5
5a3
  8
Layer_1
  10
166.55518
  20
314.51764
  42
-0.11256545
  0
VERTEX
  5
5a4
  8
Layer_1
  10
164.797
  20
317.85565
  42
-0.055583923
  0
VERTEX
  5
5a5
  8
Layer_1
  10
164.36444
  20
320.61914
  42
-0.012953454
  0
VERTEX
  5
5a6
  8
Layer_1
  10
164.34265
  20
321.47775
  42
-0.029008783
  0
VERTEX
  5
5a7
  8
Layer_1
  10
164.42212
  20
322.90039
  42
-0.017026566
  0
VERTEX
  5
5a8
  8
Layer_1
  10
164.5271
  20
323.59805
  42
0.048109602
  0
VERTEX
  5
5a9
  8
Layer_1
  10
163.81714
  20
324.69534
  42
0.083311595
  0
VERTEX
  5
5aa
  8
Layer_1
  10
162.83551
  20
325.59125
  42
0.14375837
  0
VERTEX
  5
5ab
  8
Layer_1
  10
161.27747
  20
326.04102
  42
0.083404513
  0
VERTEX
  5
5ac
  8
Layer_1
  10
160.62842
  20
325.94025
  42
0.17787925
  0
VERTEX
  5
5ad
  8
Layer_1
  10
159.77582
  20
325.23993
  42
0.0071667875
  0
VERTEX
  5
5ae
  8
Layer_1
  10
159.74481
  20
325.18829
  42
0.060125906
  0
VERTEX
  5
5af
  8
Layer_1
  10
159.49976
  20
324.59323
  42
0.035126543
  0
VERTEX
  5
5b0
  8
Layer_1
  10
159.34717
  20
323.86346
  42
0.022486649
  0
VERTEX
  5
5b1
  8
Layer_1
  10
159.26807
  20
323.02164
  42
0.013094854
  0
VERTEX
  5
5b2
  8
Layer_1
  10
159.24933
  20
322.26135
  0
VERTEX
  5
5b3
  8
Layer_1
  10
159.24933
  20
317.79028
  42
-0.038118354
  0
VERTEX
  5
5b4
  8
Layer_1
  10
159.08051
  20
315.41199
  42
-0.058414032
  0
VERTEX
  5
5b5
  8
Layer_1
  10
158.48035
  20
313.16364
  42
-0.070190702
  0
VERTEX
  5
5b6
  8
Layer_1
  10
157.52081
  20
311.48694
  42
-0.1911097
  0
VERTEX
  5
5b7
  8
Layer_1
  10
153.95544
  20
309.4068
  42
-0.043618782
  0
VERTEX
  5
5b8
  8
Layer_1
  10
152.49664
  20
309.28589
  42
-0.088340265
  0
VERTEX
  5
5b9
  8
Layer_1
  10
149.6311
  20
309.75909
  42
-0.16088955
  0
VERTEX
  5
5ba
  8
Layer_1
  10
146.18781
  20
312.52057
  42
-0.003934164
  0
VERTEX
  5
5bb
  8
Layer_1
  10
146.10107
  20
312.65076
  42
-0.071122579
  0
VERTEX
  5
5bc
  8
Layer_1
  10
144.75989
  20
315.60864
  42
-0.043663058
  0
VERTEX
  5
5bd
  8
Layer_1
  10
144.10181
  20
318.8446
  42
-0.029960395
  0
VERTEX
  5
5be
  8
Layer_1
  10
143.90009
  20
322.46875
  42
-0.033625412
  0
VERTEX
  5
5bf
  8
Layer_1
  10
144.0802
  20
325.34399
  42
-0.050203679
  0
VERTEX
  5
5c0
  8
Layer_1
  10
144.69415
  20
327.99466
  42
-0.066661872
  0
VERTEX
  5
5c1
  8
Layer_1
  10
145.7439
  20
330.1088
  42
-0.12065622
  0
VERTEX
  5
5c2
  8
Layer_1
  10
147.87683
  20
332.07449
  42
-0.11189118
  0
VERTEX
  5
5c3
  8
Layer_1
  10
150.52344
  20
332.78253
  42
-0.013286817
  0
VERTEX
  5
5c4
  8
Layer_1
  10
150.95245
  20
332.79376
  42
-0.18810519
  0
VERTEX
  5
5c5
  8
Layer_1
  10
154.93958
  20
331.31876
  42
-0.10747618
  0
VERTEX
  5
5c6
  8
Layer_1
  10
156.61157
  20
329.02423
  42
-0.051654921
  0
VERTEX
  5
5c7
  8
Layer_1
  10
157.22119
  20
327.17032
  42
-0.12683314
  0
VERTEX
  5
5c8
  8
Layer_1
  10
158.46765
  20
328.71182
  42
-0.0073259603
  0
VERTEX
  5
5c9
  8
Layer_1
  10
158.58093
  20
328.7951
  42
-0.14572869
  0
VERTEX
  5
5ca
  8
Layer_1
  10
160.49792
  20
329.4462
  42
-0.0128386
  0
VERTEX
  5
5cb
  8
Layer_1
  10
160.72437
  20
329.45193
  42
-0.082065698
  0
VERTEX
  5
5cc
  8
Layer_1
  10
162.13342
  20
329.23138
  42
-0.073614978
  0
VERTEX
  5
5cd
  8
Layer_1
  10
163.14429
  20
328.71445
  42
-0.04987978
  0
VERTEX
  5
5ce
  8
Layer_1
  10
163.95972
  20
327.99136
  42
-0.033381518
  0
VERTEX
  5
5cf
  8
Layer_1
  10
164.67212
  20
327.11307
  42
-0.018063315
  0
VERTEX
  5
5d0
  8
Layer_1
  10
165.14929
  20
326.38669
  42
-0.14192516
  0
VERTEX
  5
5d1
  8
Layer_1
  10
167.48193
  20
329.30032
  42
-0.014886186
  0
VERTEX
  5
5d2
  8
Layer_1
  10
167.89191
  20
329.5787
  42
-0.12852875
  0
VERTEX
  5
5d3
  8
Layer_1
  10
171.70325
  20
330.79251
  42
-0.015852618
  0
VERTEX
  5
5d4
  8
Layer_1
  10
172.31689
  20
330.81177
  42
-0.059695766
  0
VERTEX
  5
5d5
  8
Layer_1
  10
174.93066
  20
330.521
  42
-0.1539373
  0
VERTEX
  5
5d6
  8
Layer_1
  10
178.7124
  20
328.32269
  42
-0.11093041
  0
VERTEX
  5
5d7
  8
Layer_1
  10
180.43225
  20
325.20438
  42
-0.056382434
  0
VERTEX
  5
5d8
  8
Layer_1
  10
180.91779
  20
322.47519
  42
-0.017818618
  0
VERTEX
  5
5d9
  8
Layer_1
  10
180.95947
  20
321.27036
  42
-0.033178958
  0
VERTEX
  5
5da
  8
Layer_1
  10
180.83691
  20
319.33057
  42
-0.037355965
  0
VERTEX
  5
5db
  8
Layer_1
  10
180.49854
  20
317.69806
  0
SEQEND
  0
POLYLINE
  5
5dd
  8
Layer_1
  62
30
  66
1
  10
0
  20
0
  30
0
  0
VERTEX
  5
5dd
  8
Layer_1
  10
155.39563
  20
315.10138
  42
0.035725835
  0
VERTEX
  5
5de
  8
Layer_1
  10
155.63452
  20
316.17938
  42
0.022509914
  0
VERTEX
  5
5df
  8
Layer_1
  10
155.77014
  20
317.46851
  42
0.01585316
  0
VERTEX
  5
5e0
  8
Layer_1
  10
155.81531
  20
319.01178
  0
VERTEX
  5
5e1
  8
Layer_1
  10
155.81531
  20
323.59805
  42
0.045314725
  0
VERTEX
  5
5e2
  8
Layer_1
  10
155.68134
  20
325.18304
  42
0.074362238
  0
VERTEX
  5
5e3
  8
Layer_1
  10
155.14795
  20
326.79434
  42
0.057958869
  0
VERTEX
  5
5e4
  8
Layer_1
  10
154.5708
  20
327.6543
  42
0.16845003
  0
VERTEX
  5
5e5
  8
Layer_1
  10
152.28516
  20
328.9783
  42
0.05294092
  0
VERTEX
  5
5e6
  8
Layer_1
  10
150.99854
  20
329.10626
  42
0.095022892
  0
VERTEX
  5
5e7
  8
Layer_1
  10
149.57336
  20
328.85297
  42
0.14997094
  0
VERTEX
  5
5e8
  8
Layer_1
  10
148.03485
  20
327.60324
  42
0.014910614
  0
VERTEX
  5
5e9
  8
Layer_1
  10
147.88721
  20
327.37775
  42
0.067206995
  0
VERTEX
  5
5ea
  8
Layer_1
  10
147.24121
  20
325.8707
  42
0.040446306
  0
VERTEX
  5
5eb
  8
Layer_1
  10
146.93054
  20
324.29297
  42
0.02937556
  0
VERTEX
  5
5ec
  8
Layer_1
  10
146.82709
  20
322.45413
  42
0.00078369671
  0
VERTEX
  5
5ed
  8
Layer_1
  10
146.82703
  20
322.42264
  42
0.024459282
  0
VERTEX
  5
5ee
  8
Layer_1
  10
146.94104
  20
319.91101
  42
0.035165456
  0
VERTEX
  5
5ef
  8
Layer_1
  10
147.30042
  20
317.72198
  42
0.055564073
  0
VERTEX
  5
5f0
  8
Layer_1
  10
147.97656
  20
315.81232
  42
0.02349415
  0
VERTEX
  5
5f1
  8
Layer_1
  10
148.26746
  20
315.28961
  42
0.076073378
  0
VERTEX
  5
5f2
  8
Layer_1
  10
149.35101
  20
313.99481
  42
0.18562901
  0
VERTEX
  5
5f3
  8
Layer_1
  10
152.17395
  20
312.97345
  42
0.050015661
  0
VERTEX
  5
5f4
  8
Layer_1
  10
153.20178
  20
313.06818
  42
0.088710956
  0
VERTEX
  5
5f5
  8
Layer_1
  10
154.23376
  20
313.46014
  42
0.11640914
  0
VERTEX
  5
5f6
  8
Layer_1
  10
155.0202
  20
314.24097
  42
0.064886651
  0
VERTEX
  5
5f7
  8
Layer_1
  10
155.39563
  20
315.10138
  0
SEQEND
  0
POLYLINE
  5
5f9
  8
Layer_1
  62
30
  66
1
  10
0
  20
0
  30
0
  0
VERTEX
  5
5f9
  8
Layer_1
  10
170.42877
  20
316.01044
  42
-0.28534711
  0
VERTEX
  5
5fa
  8
Layer_1
  10
167.29944
  20
319.18036
  42
-0.066205553
  0
VERTEX
  5
5fb
  8
Layer_1
  10
167.03918
  20
321.36249
  42
-0.013109613
  0
VERTEX
  5
5fc
  8
Layer_1
  10
167.05249
  20
321.88095
  42
-0.056938139
  0
VERTEX
  5
5fd
  8
Layer_1
  10
167.31836
  20
323.54398
  42
-0.11600668
  0
VERTEX
  5
5fe
  8
Layer_1
  10
168.39893
  20
325.534
  42
-0.06046382
  0
VERTEX
  5
5ff
  8
Layer_1
  10
169.14465
  20
326.17947
  42
-0.096329707
  0
VERTEX
  5
600
  8
Layer_1
  10
170.84363
  20
326.87836
  42
-0.052810092
  0
VERTEX
  5
601
  8
Layer_1
  10
172.40912
  20
327.03207
  42
-0.02071676
  0
VERTEX
  5
602
  8
Layer_1
  10
173.24207
  20
326.99881
  42
-0.057418141
  0
VERTEX
  5
603
  8
Layer_1
  10
174.84778
  20
326.69144
  42
-0.12021512
  0
VERTEX
  5
604
  8
Layer_1
  10
176.71887
  20
325.58011
  42
-0.054508971
  0
VERTEX
  5
605
  8
Layer_1
  10
177.31793
  20
324.83392
  42
-0.091486571
  0
VERTEX
  5
606
  8
Layer_1
  10
178.01453
  20
323.06723
  42
-0.051317534
  0
VERTEX
  5
607
  8
Layer_1
  10
178.17078
  20
321.43167
  42
-0.063761068
  0
VERTEX
  5
608
  8
Layer_1
  10
177.9281
  20
319.33209
  42
-0.28539975
  0
VERTEX
  5
609
  8
Layer_1
  10
174.73096
  20
316.04321
  42
-0.069312907
  0
VERTEX
  5
60a
  8
Layer_1
  10
172.47827
  20
315.76215
  42
-0.066875333
  0
VERTEX
  5
60b
  8
Layer_1
  10
170.42877
  20
316.01044
  0
SEQEND
  0
POLYLINE
  5
60d
  8
Layer_1
  62
30
  66
1
  10
0
  20
0
  30
0
  0
VERTEX
  5
60d
  8
Layer_1
  10
173.27496
  20
286.61652
  42
-0.039364349
  0
VERTEX
  5
60e
  8
Layer_1
  10
171.57947
  20
286.49261
  0
VERTEX
  5
60f
  8
Layer_1
  10
155.2392
  20
286.49255
  0
VERTEX
  5
610
  8
Layer_1
  10
155.23926
  20
282.66675
  0
VERTEX
  5
611
  8
Layer_1
  10
171.71777
  20
282.66681
  42
0.030460017
  0
VERTEX
  5
612
  8
Layer_1
  10
173.72852
  20
282.78223
  42
0.057563363
  0
VERTEX
  5
613
  8
Layer_1
  10
176.13257
  20
283.3399
  42
0.11634458
  0
VERTEX
  5
614
  8
Layer_1
  10
178.7124
  20
284.98309
  42
0.081679445
  0
VERTEX
  5
615
  8
Layer_1
  10
179.96112
  20
286.83966
  42
0.06677915
  0
VERTEX
  5
616
  8
Layer_1
  10
180.70911
  20
289.32385
  42
0.04220619
  0
VERTEX
  5
617
  8
Layer_1
  10
180.91345
  20
291.9317
  42
0.031002766
  0
VERTEX
  5
618
  8
Layer_1
  10
180.82098
  20
293.46722
  42
0.086229792
  0
VERTEX
  5
619
  8
Layer_1
  10
179.86475
  20
296.69086
  42
0.016412123
  0
VERTEX
  5
61a
  8
Layer_1
  10
179.57263
  20
297.22803
  42
0.12340766
  0
VERTEX
  5
61b
  8
Layer_1
  10
176.99548
  20
299.90588
  0
VERTEX
  5
61c
  8
Layer_1
  10
176.99548
  20
300.13635
  42
0.013035513
  0
VERTEX
  5
61d
  8
Layer_1
  10
177.77136
  20
300.04749
  42
0.012714071
  0
VERTEX
  5
61e
  8
Layer_1
  10
178.92334
  20
299.97583
  42
0.0096291425
  0
VERTEX
  5
61f
  8
Layer_1
  10
180.24506
  20
299.95203
  0
VERTEX
  5
620
  8
Layer_1
  10
191.1001
  20
299.95197
  0
VERTEX
  5
621
  8
Layer_1
  10
191.1001
  20
303.77777
  0
VERTEX
  5
622
  8
Layer_1
  10
155.2392
  20
303.77771
  0
VERTEX
  5
623
  8
Layer_1
  10
155.2392
  20
299.9519
  0
VERTEX
  5
624
  8
Layer_1
  10
168.44507
  20
299.95197
  42
-0.0083757829
  0
VERTEX
  5
625
  8
Layer_1
  10
169.27014
  20
299.93854
  42
-0.030625697
  0
VERTEX
  5
626
  8
Layer_1
  10
171.50171
  20
299.73663
  42
-0.049680744
  0
VERTEX
  5
627
  8
Layer_1
  10
173.62921
  20
299.20001
  42
-0.08699895
  0
VERTEX
  5
628
  8
Layer_1
  10
175.54352
  20
298.11981
  42
-0.092802729
  0
VERTEX
  5
629
  8
Layer_1
  10
176.78625
  20
296.58856
  42
-0.078608133
  0
VERTEX
  5
62a
  8
Layer_1
  10
177.52148
  20
294.46472
  42
-0.047018024
  0
VERTEX
  5
62b
  8
Layer_1
  10
177.7099
  20
292.30042
  42
-0.026785525
  0
VERTEX
  5
62c
  8
Layer_1
  10
177.65479
  20
291.21698
  42
-0.058019293
  0
VERTEX
  5
62d
  8
Layer_1
  10
177.31763
  20
289.6676
  42
-0.12350506
  0
VERTEX
  5
62e
  8
Layer_1
  10
176.18884
  20
287.89844
  42
-0.085902304
  0
VERTEX
  5
62f
  8
Layer_1
  10
174.87988
  20
287.0639
  42
-0.061866831
  0
VERTEX
  5
630
  8
Layer_1
  10
173.27496
  20
286.61652
  0
SEQEND
  0
POLYLINE
  5
632
  8
Layer_1
  62
30
  66
1
  10
0
  20
0
  30
0
  0
VERTEX
  5
632
  8
Layer_1
  10
158.38196
  20
263.24353
  42
-0.013055246
  0
VERTEX
  5
633
  8
Layer_1
  10
158.28033
  20
263.6485
  42
-0.0093191149
  0
VERTEX
  5
634
  8
Layer_1
  10
158.1803
  20
264.13794
  42
-0.0067280208
  0
VERTEX
  5
635
  8
Layer_1
  10
158.08551
  20
264.69025
  42
-0.0023248716
  0
VERTEX
  5
636
  8
Layer_1
  10
158.06738
  20
264.80865
  42
-0.036769751
  0
VERTEX
  5
637
  8
Layer_1
  10
157.93573
  20
266.64923
  42
-0.038712377
  0
VERTEX
  5
638
  8
Layer_1
  10
157.99414
  20
267.43744
  42
-0.17971984
  0
VERTEX
  5
639
  8
Layer_1
  10
159.15723
  20
269.62231
  42
-0.066745395
  0
VERTEX
  5
63a
  8
Layer_1
  10
159.97742
  20
270.17072
  42
-0.070932919
  0
VERTEX
  5
63b
  8
Layer_1
  10
161.30743
  20
270.59442
  42
-0.044156481
  0
VERTEX
  5
63c
  8
Layer_1
  10
162.66034
  20
270.70551
  0
VERTEX
  5
63d
  8
Layer_1
  10
177.52557
  20
270.70551
  0
VERTEX
  5
63e
  8
Layer_1
  10
177.52557
  20
263.37659
  0
VERTEX
  5
63f
  8
Layer_1
  10
180.4986
  20
263.37659
  0
VERTEX
  5
640
  8
Layer_1
  10
180.4986
  20
270.70551
  0
VERTEX
  5
641
  8
Layer_1
  10
186.35254
  20
270.70551
  0
VERTEX
  5
642
  8
Layer_1
  10
186.35254
  20
272.91803
  0
VERTEX
  5
643
  8
Layer_1
  10
180.95953
  20
274.53131
  0
VERTEX
  5
644
  8
Layer_1
  10
179.36932
  20
278.14966
  0
VERTEX
  5
645
  8
Layer_1
  10
177.52557
  20
278.14966
  0
VERTEX
  5
646
  8
Layer_1
  10
177.52557
  20
274.53131
  0
VERTEX
  5
647
  8
Layer_1
  10
162.49902
  20
274.53131
  42
0.058952917
  0
VERTEX
  5
648
  8
Layer_1
  10
159.6897
  20
274.23096
  42
0.28436324
  0
VERTEX
  5
649
  8
Layer_1
  10
155.17456
  20
270.14703
  42
0.074748054
  0
VERTEX
  5
64a
  8
Layer_1
  10
154.77832
  20
267.20233
  42
0.003173324
  0
VERTEX
  5
64b
  8
Layer_1
  10
154.77917
  20
267.07269
  42
0.020331866
  0
VERTEX
  5
64c
  8
Layer_1
  10
154.83362
  20
266.10559
  42
0.016443448
  0
VERTEX
  5
64d
  8
Layer_1
  10
154.97418
  20
265.02435
  42
0.0039947521
  0
VERTEX
  5
64e
  8
Layer_1
  10
155.01306
  20
264.7959
  42
0.014667001
  0
VERTEX
  5
64f
  8
Layer_1
  10
155.14124
  20
264.17645
  42
0.02098214
  0
VERTEX
  5
650
  8
Layer_1
  10
155.2926
  20
263.63843
  42
0.031917279
  0
VERTEX
  5
651
  8
Layer_1
  10
155.46973
  20
263.1922
  0
VERTEX
  5
652
  8
Layer_1
  10
158.39667
  20
263.1922
  42
-0.0024740636
  0
VERTEX
  5
653
  8
Layer_1
  10
158.38196
  20
263.24353
  0
SEQEND
  0
POLYLINE
  5
655
  8
Layer_0
  62
0
  66
1
  10
0
  20
0
  30
0
  0
VERTEX
  5
655
  8
Layer_0
  10
289.49988
  20
670.39212
  0
VERTEX
  5
656
  8
Layer_0
  10
289.49988
  20
641.14212
  0
VERTEX
  5
657
  8
Layer_0
  10
286.49988
  20
641.14212
  0
VERTEX
  5
658
  8
Layer_0
  10
286.49994
  20
611.89212
  0
VERTEX
  5
659
  8
Layer_0
  10
289.49994
  20
611.89212
  0
VERTEX
  5
65a
  8
Layer_0
  10
289.5
  20
582.64212
  0
VERTEX
  5
65b
  8
Layer_0
  10
286.5
  20
582.64212
  0
VERTEX
  5
65c
  8
Layer_0
  10
286.5
  20
553.39209
  0
VERTEX
  5
65d
  8
Layer_0
  10
289.5
  20
553.39209
  0
VERTEX
  5
65e
  8
Layer_0
  10
289.5
  20
524.14209
  0
VERTEX
  5
65f
  8
Layer_0
  10
286.5
  20
524.14209
  0
VERTEX
  5
660
  8
Layer_0
  10
286.50006
  20
494.89209
  0
VERTEX
  5
661
  8
Layer_0
  10
289.50006
  20
494.89209
  0
VERTEX
  5
662
  8
Layer_0
  10
289.50012
  20
453.01709
  0
VERTEX
  5
663
  8
Layer_0
  10
273.87512
  20
453.01709
  0
VERTEX
  5
664
  8
Layer_0
  10
244.62512
  20
453.01709
  0
VERTEX
  5
665
  8
Layer_0
  10
244.62512
  20
450.01709
  0
VERTEX
  5
666
  8
Layer_0
  10
215.37512
  20
450.01703
  0
VERTEX
  5
667
  8
Layer_0
  10
215.37512
  20
453.01703
  0
VERTEX
  5
668
  8
Layer_0
  10
186.12512
  20
453.01703
  0
VERTEX
  5
669
  8
Layer_0
  10
186.12512
  20
450.01703
  0
VERTEX
  5
66a
  8
Layer_0
  10
156.87512
  20
450.01697
  0
VERTEX
  5
66b
  8
Layer_0
  10
156.87512
  20
453.01697
  0
VERTEX
  5
66c
  8
Layer_0
  10
127.62512
  20
453.01691
  0
VERTEX
  5
66d
  8
Layer_0
  10
127.62512
  20
450.01691
  0
VERTEX
  5
66e
  8
Layer_0
  10
98.375122
  20
450.01691
  0
VERTEX
  5
66f
  8
Layer_0
  10
98.375122
  20
453.01691
  0
VERTEX
  5
670
  8
Layer_0
  10
53.500122
  20
453.01685
  0
VERTEX
  5
671
  8
Layer_0
  10
53.500122
  20
465.64185
  0
VERTEX
  5
672
  8
Layer_0
  10
53.500061
  20
494.89185
  0
VERTEX
  5
673
  8
Layer_0
  10
56.500061
  20
494.89185
  0
VERTEX
  5
674
  8
Layer_0
  10
56.500061
  20
524.14185
  0
VERTEX
  5
675
  8
Layer_0
  10
53.500061
  20
524.14185
  0
VERTEX
  5
676
  8
Layer_0
  10
53.5
  20
553.39185
  0
VERTEX
  5
677
  8
Layer_0
  10
56.5
  20
553.39185
  0
VERTEX
  5
678
  8
Layer_0
  10
56.499939
  20
582.64185
  0
VERTEX
  5
679
  8
Layer_0
  10
53.499939
  20
582.64185
  0
VERTEX
  5
67a
  8
Layer_0
  10
53.499939
  20
611.89185
  0
VERTEX
  5
67b
  8
Layer_0
  10
56.499939
  20
611.89185
  0
VERTEX
  5
67c
  8
Layer_0
  10
56.499878
  20
641.14185
  0
VERTEX
  5
67d
  8
Layer_0
  10
53.499878
  20
641.14185
  0
VERTEX
  5
67e
  8
Layer_0
  10
53.499878
  20
683.01685
  0
VERTEX
  5
67f
  8
Layer_0
  10
69.124878
  20
683.01688
  0
VERTEX
  5
680
  8
Layer_0
  10
98.374878
  20
683.01691
  0
VERTEX
  5
681
  8
Layer_0
  10
98.374878
  20
686.01691
  0
VERTEX
  5
682
  8
Layer_0
  10
127.62488
  20
686.01694
  0
VERTEX
  5
683
  8
Layer_0
  10
127.62488
  20
683.01694
  0
VERTEX
  5
684
  8
Layer_0
  10
156.87488
  20
683.01697
  0
VERTEX
  5
685
  8
Layer_0
  10
156.87488
  20
686.01697
  0
VERTEX
  5
686
  8
Layer_0
  10
186.12488
  20
686.017
  0
VERTEX
  5
687
  8
Layer_0
  10
186.12488
  20
683.017
  0
VERTEX
  5
688
  8
Layer_0
  10
215.37488
  20
683.01703
  0
VERTEX
  5
689
  8
Layer_0
  10
215.37488
  20
686.01703
  0
VERTEX
  5
68a
  8
Layer_0
  10
244.62488
  20
686.01706
  0
VERTEX
  5
68b
  8
Layer_0
  10
244.62488
  20
683.01706
  0
VERTEX
  5
68c
  8
Layer_0
  10
289.49988
  20
683.01712
  0
VERTEX
  5
68d
  8
Layer_0
  10
289.49988
  20
670.39212
  0
SEQEND
  0
POLYLINE
  5
68f
  8
Layer_1
  62
30
  66
1
  10
0
  20
0
  30
0
  0
VERTEX
  5
68f
  8
Layer_1
  10
189.53461
  20
601.03165
  0
VERTEX
  5
690
  8
Layer_1
  10
153.67371
  20
601.03162
  0
VERTEX
  5
691
  8
Layer_1
  10
153.67371
  20
597.20584
  0
VERTEX
  5
692
  8
Layer_1
  10
189.53467
  20
597.20587
  0
VERTEX
  5
693
  8
Layer_1
  10
189.53461
  20
601.03165
  0
SEQEND
  0
POLYLINE
  5
695
  8
Layer_1
  62
30
  66
1
  10
0
  20
0
  30
0
  0
VERTEX
  5
695
  8
Layer_1
  10
178.9549
  20
576.13159
  42
0.071378478
  0
VERTEX
  5
696
  8
Layer_1
  10
179.39404
  20
579.41367
  42
0.01724023
  0
VERTEX
  5
697
  8
Layer_1
  10
179.36243
  20
580.34625
  42
0.2128411
  0
VERTEX
  5
698
  8
Layer_1
  10
175.79871
  20
587.49161
  42
0.038433043
  0
VERTEX
  5
699
  8
Layer_1
  10
174.38324
  20
588.50104
  42
0.086507046
  0
VERTEX
  5
69a
  8
Layer_1
  10
170.07977
  20
590.1275
  42
0.049920711
  0
VERTEX
  5
69b
  8
Layer_1
  10
166.09595
  20
590.49918
  42
0.0079227349
  0
VERTEX
  5
69c
  8
Layer_1
  10
165.40558
  20
590.4884
  42
0.05736445
  0
VERTEX
  5
69d
  8
Layer_1
  10
161.56964
  20
589.95447
  42
0.12706549
  0
VERTEX
  5
69e
  8
Layer_1
  10
156.62372
  20
587.26111
  42
0.14342849
  0
VERTEX
  5
69f
  8
Layer_1
  10
153.65332
  20
582.14282
  42
0.06325028
  0
VERTEX
  5
6a0
  8
Layer_1
  10
153.21277
  20
578.42264
  42
0.0088354441
  0
VERTEX
  5
6a1
  8
Layer_1
  10
153.23163
  20
577.32056
  42
0.017718888
  0
VERTEX
  5
6a2
  8
Layer_1
  10
153.34686
  20
575.6488
  42
0.025113195
  0
VERTEX
  5
6a3
  8
Layer_1
  10
153.59308
  20
574.05524
  42
0.025715197
  0
VERTEX
  5
6a4
  8
Layer_1
  10
154.05841
  20
572.31104
  42
0.024371422
  0
VERTEX
  5
6a5
  8
Layer_1
  10
154.84912
  20
570.21796
  0
VERTEX
  5
6a6
  8
Layer_1
  10
158.26007
  20
570.21796
  42
-0.0058083101
  0
VERTEX
  5
6a7
  8
Layer_1
  10
158.05353
  20
570.71667
  42
-0.096335614
  0
VERTEX
  5
6a8
  8
Layer_1
  10
156.55457
  20
578.28436
  42
-0.056350896
  0
VERTEX
  5
6a9
  8
Layer_1
  10
156.80267
  20
580.63791
  42
-0.15425024
  0
VERTEX
  5
6aa
  8
Layer_1
  10
158.85925
  20
584.28806
  42
-0.071071237
  0
VERTEX
  5
6ab
  8
Layer_1
  10
160.53516
  20
585.43668
  42
-0.067410001
  0
VERTEX
  5
6ac
  8
Layer_1
  10
163.04126
  20
586.2662
  42
-0.042166979
  0
VERTEX
  5
6ad
  8
Layer_1
  10
165.612
  20
586.53513
  0
VERTEX
  5
6ae
  8
Layer_1
  10
165.612
  20
569.13477
  0
VERTEX
  5
6af
  8
Layer_1
  10
168.03192
  20
569.13477
  42
0.054258061
  0
VERTEX
  5
6b0
  8
Layer_1
  10
171.383
  20
569.47656
  42
0.12966141
  0
VERTEX
  5
6b1
  8
Layer_1
  10
176.27118
  20
571.90039
  42
0.14417896
  0
VERTEX
  5
6b2
  8
Layer_1
  10
178.9549
  20
576.13159
  0
SEQEND
  0
POLYLINE
  5
6b4
  8
Layer_1
  62
30
  66
1
  10
0
  20
0
  30
0
  0
VERTEX
  5
6b4
  8
Layer_1
  10
170.8194
  20
573.39465
  42
-0.040381502
  0
VERTEX
  5
6b5
  8
Layer_1
  10
168.72333
  20
573.23706
  0
VERTEX
  5
6b6
  8
Layer_1
  10
168.72333
  20
586.44293
  42
-0.01138551
  0
VERTEX
  5
6b7
  8
Layer_1
  10
169.37665
  20
586.36804
  42
-0.053267141
  0
VERTEX
  5
6b8
  8
Layer_1
  10
171.67328
  20
585.81384
  42
-0.098434485
  0
VERTEX
  5
6b9
  8
Layer_1
  10
174.2085
  20
584.31113
  42
-0.13810433
  0
VERTEX
  5
6ba
  8
Layer_1
  10
175.89111
  20
581.63831
  42
-0.073294573
  0
VERTEX
  5
6bb
  8
Layer_1
  10
176.19049
  20
579.45975
  42
-0.046482756
  0
VERTEX
  5
6bc
  8
Layer_1
  10
176.06262
  20
578.00681
  42
-0.17877099
  0
VERTEX
  5
6bd
  8
Layer_1
  10
174.26611
  20
574.8504
  42
-0.070925361
  0
VERTEX
  5
6be
  8
Layer_1
  10
172.8432
  20
573.97516
  42
-0.063535806
  0
VERTEX
  5
6bf
  8
Layer_1
  10
170.8194
  20
573.39465
  0
SEQEND
  0
POLYLINE
  5
6c1
  8
Layer_1
  62
30
  66
1
  10
0
  20
0
  30
0
  0
VERTEX
  5
6c1
  8
Layer_1
  10
186.49011
  20
554.66058
  42
-0.060874307
  0
VERTEX
  5
6c2
  8
Layer_1
  10
186.63074
  20
553.41681
  42
-0.029324563
  0
VERTEX
  5
6c3
  8
Layer_1
  10
186.5708
  20
552.45477
  42
-0.028388398
  0
VERTEX
  5
6c4
  8
Layer_1
  10
186.32312
  20
551.08203
  42
-0.02020822
  0
VERTEX
  5
6c5
  8
Layer_1
  10
185.91632
  20
549.63715
  0
VERTEX
  5
6c6
  8
Layer_1
  10
188.98157
  20
548.64612
  42
0.012212811
  0
VERTEX
  5
6c7
  8
Layer_1
  10
189.30078
  20
549.81262
  42
0.024802198
  0
VERTEX
  5
6c8
  8
Layer_1
  10
189.65503
  20
551.60443
  42
0.035521514
  0
VERTEX
  5
6c9
  8
Layer_1
  10
189.78821
  20
553.34772
  42
0.044805111
  0
VERTEX
  5
6ca
  8
Layer_1
  10
189.61414
  20
555.42035
  42
0.18247501
  0
VERTEX
  5
6cb
  8
Layer_1
  10
187.32117
  20
559.5675
  42
0.11608602
  0
VERTEX
  5
6cc
  8
Layer_1
  10
183.99103
  20
561.12122
  42
0.057139115
  0
VERTEX
  5
6cd
  8
Layer_1
  10
180.47723
  20
561.48315
  0
VERTEX
  5
6ce
  8
Layer_1
  10
179.07141
  20
561.48315
  0
VERTEX
  5
6cf
  8
Layer_1
  10
177.6886
  20
566.00037
  0
VERTEX
  5
6d0
  8
Layer_1
  10
175.96008
  20
566.00037
  0
VERTEX
  5
6d1
  8
Layer_1
  10
175.96008
  20
561.48315
  0
VERTEX
  5
6d2
  8
Layer_1
  10
153.67371
  20
561.48315
  0
VERTEX
  5
6d3
  8
Layer_1
  10
153.67371
  20
557.65741
  0
VERTEX
  5
6d4
  8
Layer_1
  10
175.96008
  20
557.65741
  0
VERTEX
  5
6d5
  8
Layer_1
  10
175.96008
  20
551.22729
  0
VERTEX
  5
6d6
  8
Layer_1
  10
178.93311
  20
551.22729
  0
VERTEX
  5
6d7
  8
Layer_1
  10
178.93311
  20
557.65741
  0
VERTEX
  5
6d8
  8
Layer_1
  10
180.56946
  20
557.65741
  42
-0.0079523429
  0
VERTEX
  5
6d9
  8
Layer_1
  10
181.14496
  20
557.6485
  42
-0.029569027
  0
VERTEX
  5
6da
  8
Layer_1
  10
182.69153
  20
557.5144
  42
-0.043390256
  0
VERTEX
  5
6db
  8
Layer_1
  10
184.01031
  20
557.20544
  42
-0.074797949
  0
VERTEX
  5
6dc
  8
Layer_1
  10
185.19037
  20
556.6203
  42
-0.18339484
  0
VERTEX
  5
6dd
  8
Layer_1
  10
186.49011
  20
554.66058
  0
SEQEND
  0
POLYLINE
  5
6df
  8
Layer_1
  62
30
  66
1
  10
0
  20
0
  30
0
  0
VERTEX
  5
6df
  8
Layer_1
  10
153.21368
  20
538.88281
  42
-0.0033055317
  0
VERTEX
  5
6e0
  8
Layer_1
  10
153.21283
  20
539.01251
  42
-0.074753678
  0
VERTEX
  5
6e1
  8
Layer_1
  10
153.60913
  20
541.95721
  42
-0.28436685
  0
VERTEX
  5
6e2
  8
Layer_1
  10
158.12415
  20
546.04108
  42
-0.058936625
  0
VERTEX
  5
6e3
  8
Layer_1
  10
160.93353
  20
546.34137
  0
VERTEX
  5
6e4
  8
Layer_1
  10
175.96008
  20
546.34137
  0
VERTEX
  5
6e5
  8
Layer_1
  10
175.96008
  20
549.95972
  0
VERTEX
  5
6e6
  8
Layer_1
  10
177.80383
  20
549.95972
  0
VERTEX
  5
6e7
  8
Layer_1
  10
179.39404
  20
546.34137
  0
VERTEX
  5
6e8
  8
Layer_1
  10
184.78705
  20
544.72815
  0
VERTEX
  5
6e9
  8
Layer_1
  10
184.78705
  20
542.51569
  0
VERTEX
  5
6ea
  8
Layer_1
  10
178.93311
  20
542.51563
  0
VERTEX
  5
6eb
  8
Layer_1
  10
178.93311
  20
535.18671
  0
VERTEX
  5
6ec
  8
Layer_1
  10
175.96008
  20
535.18671
  0
VERTEX
  5
6ed
  8
Layer_1
  10
175.96008
  20
542.51563
  0
VERTEX
  5
6ee
  8
Layer_1
  10
161.09485
  20
542.51556
  42
0.04415508
  0
VERTEX
  5
6ef
  8
Layer_1
  10
159.74194
  20
542.40448
  42
0.070970608
  0
VERTEX
  5
6f0
  8
Layer_1
  10
158.41193
  20
541.98083
  42
0.066791686
  0
VERTEX
  5
6f1
  8
Layer_1
  10
157.59174
  20
541.43237
  42
0.17973521
  0
VERTEX
  5
6f2
  8
Layer_1
  10
156.42871
  20
539.24756
  42
0.03869074
  0
VERTEX
  5
6f3
  8
Layer_1
  10
156.37024
  20
538.45935
  42
0.036763912
  0
VERTEX
  5
6f4
  8
Layer_1
  10
156.50189
  20
536.61877
  42
0.0026082445
  0
VERTEX
  5
6f5
  8
Layer_1
  10
156.52002
  20
536.50037
  42
0.0067481451
  0
VERTEX
  5
6f6
  8
Layer_1
  10
156.61481
  20
535.94806
  42
0.00935257
  0
VERTEX
  5
6f7
  8
Layer_1
  10
156.7149
  20
535.45862
  42
0.013028671
  0
VERTEX
  5
6f8
  8
Layer_1
  10
156.81647
  20
535.05365
  42
0.0025356486
  0
VERTEX
  5
6f9
  8
Layer_1
  10
156.83118
  20
535.00232
  0
VERTEX
  5
6fa
  8
Layer_1
  10
153.90424
  20
535.00232
  42
-0.031950158
  0
VERTEX
  5
6fb
  8
Layer_1
  10
153.72711
  20
535.44861
  42
-0.020988387
  0
VERTEX
  5
6fc
  8
Layer_1
  10
153.57574
  20
535.98657
  42
-0.014676777
  0
VERTEX
  5
6fd
  8
Layer_1
  10
153.44757
  20
536.60608
  42
-0.0040919813
  0
VERTEX
  5
6fe
  8
Layer_1
  10
153.40869
  20
536.83453
  42
-0.016439869
  0
VERTEX
  5
6ff
  8
Layer_1
  10
153.26813
  20
537.91571
  42
-0.020320707
  0
VERTEX
  5
700
  8
Layer_1
  10
153.21368
  20
538.88281
  0
SEQEND
  0
ENDSEC
  0
EOF
