solid ASCII
  facet normal 0.000000e+00 0.000000e+00 1.000000e+00
    outer loop
      vertex   4.244735e+01 2.578864e+00 4.000000e-01
      vertex   4.239220e+01 2.560586e+00 4.000000e-01
      vertex   4.281290e+01 2.526937e+00 4.000000e-01
    endloop
  endfacet
  facet normal 0.000000e+00 0.000000e+00 1.000000e+00
    outer loop
      vertex   4.281290e+01 2.526937e+00 4.000000e-01
      vertex   4.239220e+01 2.560586e+00 4.000000e-01
      vertex   4.233982e+01 2.534737e+00 4.000000e-01
    endloop
  endfacet
  facet normal 0.000000e+00 0.000000e+00 1.000000e+00
    outer loop
      vertex   4.281290e+01 2.526937e+00 4.000000e-01
      vertex   4.233982e+01 2.534737e+00 4.000000e-01
      vertex   4.229108e+01 2.501116e+00 4.000000e-01
    endloop
  endfacet
  facet normal -0.000000e+00 0.000000e+00 1.000000e+00
    outer loop
      vertex   4.229108e+01 2.501116e+00 4.000000e-01
      vertex   4.225575e+01 2.469428e+00 4.000000e-01
      vertex   4.281290e+01 2.526937e+00 4.000000e-01
    endloop
  endfacet
  facet normal 0.000000e+00 0.000000e+00 1.000000e+00
    outer loop
      vertex   4.281290e+01 2.526937e+00 4.000000e-01
      vertex   4.225575e+01 2.469428e+00 4.000000e-01
      vertex   4.222387e+01 2.434499e+00 4.000000e-01
    endloop
  endfacet
  facet normal 0.000000e+00 0.000000e+00 1.000000e+00
    outer loop
      vertex   4.281290e+01 2.526937e+00 4.000000e-01
      vertex   4.222387e+01 2.434499e+00 4.000000e-01
      vertex   4.219541e+01 2.396649e+00 4.000000e-01
    endloop
  endfacet
  facet normal -0.000000e+00 0.000000e+00 1.000000e+00
    outer loop
      vertex   4.219541e+01 2.396649e+00 4.000000e-01
      vertex   4.217035e+01 2.356198e+00 4.000000e-01
      vertex   4.281290e+01 2.526937e+00 4.000000e-01
    endloop
  endfacet
  facet normal 0.000000e+00 0.000000e+00 1.000000e+00
    outer loop
      vertex   4.281290e+01 2.526937e+00 4.000000e-01
      vertex   4.217035e+01 2.356198e+00 4.000000e-01
      vertex   4.214867e+01 2.313468e+00 4.000000e-01
    endloop
  endfacet
  facet normal 0.000000e+00 0.000000e+00 1.000000e+00
    outer loop
      vertex   4.281290e+01 2.526937e+00 4.000000e-01
      vertex   4.214867e+01 2.313468e+00 4.000000e-01
      vertex   4.213036e+01 2.268781e+00 4.000000e-01
    endloop
  endfacet
  facet normal -0.000000e+00 0.000000e+00 1.000000e+00
    outer loop
      vertex   4.213036e+01 2.268781e+00 4.000000e-01
      vertex   4.211539e+01 2.222456e+00 4.000000e-01
      vertex   4.281290e+01 2.526937e+00 4.000000e-01
    endloop
  endfacet
  facet normal 0.000000e+00 0.000000e+00 1.000000e+00
    outer loop
      vertex   4.281290e+01 2.526937e+00 4.000000e-01
      vertex   4.211539e+01 2.222456e+00 4.000000e-01
      vertex   4.210374e+01 2.174816e+00 4.000000e-01
    endloop
  endfacet
  facet normal 0.000000e+00 0.000000e+00 1.000000e+00
    outer loop
      vertex   4.281290e+01 2.526937e+00 4.000000e-01
      vertex   4.210374e+01 2.174816e+00 4.000000e-01
      vertex   4.209540e+01 2.126182e+00 4.000000e-01
    endloop
  endfacet
  facet normal -0.000000e+00 0.000000e+00 1.000000e+00
    outer loop
      vertex   4.209540e+01 2.126182e+00 4.000000e-01
      vertex   4.209034e+01 2.076874e+00 4.000000e-01
      vertex   4.281290e+01 2.526937e+00 4.000000e-01
    endloop
  endfacet
  facet normal 0.000000e+00 0.000000e+00 1.000000e+00
    outer loop
      vertex   4.281290e+01 2.526937e+00 4.000000e-01
      vertex   4.209034e+01 2.076874e+00 4.000000e-01
      vertex   4.305535e+01 2.086712e+00 4.000000e-01
    endloop
  endfacet
  facet normal 0.000000e+00 0.000000e+00 1.000000e+00
    outer loop
      vertex   4.281290e+01 2.526937e+00 4.000000e-01
      vertex   4.305535e+01 2.086712e+00 4.000000e-01
      vertex   4.304470e+01 2.163895e+00 4.000000e-01
    endloop
  endfacet
  facet normal 0.000000e+00 0.000000e+00 1.000000e+00
    outer loop
      vertex   4.305535e+01 2.086712e+00 4.000000e-01
      vertex   4.209034e+01 2.076874e+00 4.000000e-01
      vertex   4.305760e+01 2.008362e+00 4.000000e-01
    endloop
  endfacet
  facet normal 0.000000e+00 0.000000e+00 1.000000e+00
    outer loop
      vertex   4.305760e+01 2.008362e+00 4.000000e-01
      vertex   4.209034e+01 2.076874e+00 4.000000e-01
      vertex   4.208854e+01 2.027213e+00 4.000000e-01
    endloop
  endfacet
  facet normal 0.000000e+00 0.000000e+00 1.000000e+00
    outer loop
      vertex   4.305760e+01 2.008362e+00 4.000000e-01
      vertex   4.208854e+01 2.027213e+00 4.000000e-01
      vertex   4.208999e+01 1.977522e+00 4.000000e-01
    endloop
  endfacet
  facet normal 0.000000e+00 0.000000e+00 1.000000e+00
    outer loop
      vertex   4.305760e+01 2.008362e+00 4.000000e-01
      vertex   4.208999e+01 1.977522e+00 4.000000e-01
      vertex   4.305152e+01 1.930131e+00 4.000000e-01
    endloop
  endfacet
  facet normal 0.000000e+00 0.000000e+00 1.000000e+00
    outer loop
      vertex   4.305152e+01 1.930131e+00 4.000000e-01
      vertex   4.208999e+01 1.977522e+00 4.000000e-01
      vertex   4.209466e+01 1.928120e+00 4.000000e-01
    endloop
  endfacet
  facet normal 0.000000e+00 0.000000e+00 1.000000e+00
    outer loop
      vertex   4.305152e+01 1.930131e+00 4.000000e-01
      vertex   4.209466e+01 1.928120e+00 4.000000e-01
      vertex   4.303718e+01 1.853309e+00 4.000000e-01
    endloop
  endfacet
  facet normal 0.000000e+00 0.000000e+00 1.000000e+00
    outer loop
      vertex   4.303718e+01 1.853309e+00 4.000000e-01
      vertex   4.209466e+01 1.928120e+00 4.000000e-01
      vertex   4.210254e+01 1.879329e+00 4.000000e-01
    endloop
  endfacet
  facet normal 0.000000e+00 0.000000e+00 1.000000e+00
    outer loop
      vertex   4.303718e+01 1.853309e+00 4.000000e-01
      vertex   4.210254e+01 1.879329e+00 4.000000e-01
      vertex   4.301466e+01 1.779181e+00 4.000000e-01
    endloop
  endfacet
  facet normal 0.000000e+00 0.000000e+00 1.000000e+00
    outer loop
      vertex   4.301466e+01 1.779181e+00 4.000000e-01
      vertex   4.210254e+01 1.879329e+00 4.000000e-01
      vertex   4.298401e+01 1.709037e+00 4.000000e-01
    endloop
  endfacet
  facet normal 0.000000e+00 0.000000e+00 1.000000e+00
    outer loop
      vertex   4.298401e+01 1.709037e+00 4.000000e-01
      vertex   4.210254e+01 1.879329e+00 4.000000e-01
      vertex   4.296566e+01 1.675862e+00 4.000000e-01
    endloop
  endfacet
  facet normal 0.000000e+00 0.000000e+00 1.000000e+00
    outer loop
      vertex   4.296566e+01 1.675862e+00 4.000000e-01
      vertex   4.210254e+01 1.879329e+00 4.000000e-01
      vertex   4.294531e+01 1.644165e+00 4.000000e-01
    endloop
  endfacet
  facet normal 0.000000e+00 0.000000e+00 1.000000e+00
    outer loop
      vertex   4.294531e+01 1.644165e+00 4.000000e-01
      vertex   4.210254e+01 1.879329e+00 4.000000e-01
      vertex   4.292297e+01 1.614108e+00 4.000000e-01
    endloop
  endfacet
  facet normal 0.000000e+00 0.000000e+00 1.000000e+00
    outer loop
      vertex   4.292297e+01 1.614108e+00 4.000000e-01
      vertex   4.210254e+01 1.879329e+00 4.000000e-01
      vertex   4.289864e+01 1.585851e+00 4.000000e-01
    endloop
  endfacet
  facet normal 0.000000e+00 0.000000e+00 1.000000e+00
    outer loop
      vertex   4.289864e+01 1.585851e+00 4.000000e-01
      vertex   4.210254e+01 1.879329e+00 4.000000e-01
      vertex   4.287233e+01 1.559557e+00 4.000000e-01
    endloop
  endfacet
  facet normal 0.000000e+00 0.000000e+00 1.000000e+00
    outer loop
      vertex   4.287233e+01 1.559557e+00 4.000000e-01
      vertex   4.210254e+01 1.879329e+00 4.000000e-01
      vertex   4.284406e+01 1.535385e+00 4.000000e-01
    endloop
  endfacet
  facet normal 0.000000e+00 0.000000e+00 1.000000e+00
    outer loop
      vertex   4.284406e+01 1.535385e+00 4.000000e-01
      vertex   4.210254e+01 1.879329e+00 4.000000e-01
      vertex   4.281382e+01 1.513496e+00 4.000000e-01
    endloop
  endfacet
  facet normal 0.000000e+00 0.000000e+00 1.000000e+00
    outer loop
      vertex   4.281382e+01 1.513496e+00 4.000000e-01
      vertex   4.210254e+01 1.879329e+00 4.000000e-01
      vertex   4.278164e+01 1.494052e+00 4.000000e-01
    endloop
  endfacet
  facet normal 0.000000e+00 0.000000e+00 1.000000e+00
    outer loop
      vertex   4.278164e+01 1.494052e+00 4.000000e-01
      vertex   4.210254e+01 1.879329e+00 4.000000e-01
      vertex   4.274751e+01 1.477214e+00 4.000000e-01
    endloop
  endfacet
  facet normal 0.000000e+00 0.000000e+00 1.000000e+00
    outer loop
      vertex   4.274751e+01 1.477214e+00 4.000000e-01
      vertex   4.210254e+01 1.879329e+00 4.000000e-01
      vertex   4.271145e+01 1.463143e+00 4.000000e-01
    endloop
  endfacet
  facet normal 0.000000e+00 0.000000e+00 1.000000e+00
    outer loop
      vertex   4.271145e+01 1.463143e+00 4.000000e-01
      vertex   4.210254e+01 1.879329e+00 4.000000e-01
      vertex   4.267347e+01 1.451999e+00 4.000000e-01
    endloop
  endfacet
  facet normal 0.000000e+00 0.000000e+00 1.000000e+00
    outer loop
      vertex   4.267347e+01 1.451999e+00 4.000000e-01
      vertex   4.210254e+01 1.879329e+00 4.000000e-01
      vertex   4.263357e+01 1.443943e+00 4.000000e-01
    endloop
  endfacet
  facet normal 0.000000e+00 0.000000e+00 1.000000e+00
    outer loop
      vertex   4.263357e+01 1.443943e+00 4.000000e-01
      vertex   4.210254e+01 1.879329e+00 4.000000e-01
      vertex   4.211360e+01 1.831470e+00 4.000000e-01
    endloop
  endfacet
  facet normal 0.000000e+00 0.000000e+00 1.000000e+00
    outer loop
      vertex   4.263357e+01 1.443943e+00 4.000000e-01
      vertex   4.211360e+01 1.831470e+00 4.000000e-01
      vertex   4.212782e+01 1.784865e+00 4.000000e-01
    endloop
  endfacet
  facet normal 0.000000e+00 0.000000e+00 1.000000e+00
    outer loop
      vertex   4.212782e+01 1.784865e+00 4.000000e-01
      vertex   4.214519e+01 1.739834e+00 4.000000e-01
      vertex   4.263357e+01 1.443943e+00 4.000000e-01
    endloop
  endfacet
  facet normal 0.000000e+00 0.000000e+00 1.000000e+00
    outer loop
      vertex   4.263357e+01 1.443943e+00 4.000000e-01
      vertex   4.214519e+01 1.739834e+00 4.000000e-01
      vertex   4.216569e+01 1.696698e+00 4.000000e-01
    endloop
  endfacet
  facet normal 0.000000e+00 0.000000e+00 1.000000e+00
    outer loop
      vertex   4.263357e+01 1.443943e+00 4.000000e-01
      vertex   4.216569e+01 1.696698e+00 4.000000e-01
      vertex   4.218929e+01 1.655778e+00 4.000000e-01
    endloop
  endfacet
  facet normal 0.000000e+00 0.000000e+00 1.000000e+00
    outer loop
      vertex   4.218929e+01 1.655778e+00 4.000000e-01
      vertex   4.221598e+01 1.617397e+00 4.000000e-01
      vertex   4.263357e+01 1.443943e+00 4.000000e-01
    endloop
  endfacet
  facet normal 0.000000e+00 0.000000e+00 1.000000e+00
    outer loop
      vertex   4.263357e+01 1.443943e+00 4.000000e-01
      vertex   4.221598e+01 1.617397e+00 4.000000e-01
      vertex   4.224573e+01 1.581874e+00 4.000000e-01
    endloop
  endfacet
  facet normal 0.000000e+00 0.000000e+00 1.000000e+00
    outer loop
      vertex   4.263357e+01 1.443943e+00 4.000000e-01
      vertex   4.224573e+01 1.581874e+00 4.000000e-01
      vertex   4.227853e+01 1.549531e+00 4.000000e-01
    endloop
  endfacet
  facet normal 0.000000e+00 0.000000e+00 1.000000e+00
    outer loop
      vertex   4.227853e+01 1.549531e+00 4.000000e-01
      vertex   4.231436e+01 1.520689e+00 4.000000e-01
      vertex   4.263357e+01 1.443943e+00 4.000000e-01
    endloop
  endfacet
  facet normal 0.000000e+00 0.000000e+00 1.000000e+00
    outer loop
      vertex   4.263357e+01 1.443943e+00 4.000000e-01
      vertex   4.231436e+01 1.520689e+00 4.000000e-01
      vertex   4.235319e+01 1.495668e+00 4.000000e-01
    endloop
  endfacet
  facet normal 0.000000e+00 0.000000e+00 1.000000e+00
    outer loop
      vertex   4.263357e+01 1.443943e+00 4.000000e-01
      vertex   4.235319e+01 1.495668e+00 4.000000e-01
      vertex   4.239501e+01 1.474791e+00 4.000000e-01
    endloop
  endfacet
  facet normal 0.000000e+00 0.000000e+00 1.000000e+00
    outer loop
      vertex   4.239501e+01 1.474791e+00 4.000000e-01
      vertex   4.243980e+01 1.458379e+00 4.000000e-01
      vertex   4.263357e+01 1.443943e+00 4.000000e-01
    endloop
  endfacet
  facet normal 0.000000e+00 0.000000e+00 1.000000e+00
    outer loop
      vertex   4.263357e+01 1.443943e+00 4.000000e-01
      vertex   4.243980e+01 1.458379e+00 4.000000e-01
      vertex   4.248753e+01 1.446751e+00 4.000000e-01
    endloop
  endfacet
  facet normal 0.000000e+00 0.000000e+00 1.000000e+00
    outer loop
      vertex   4.263357e+01 1.443943e+00 4.000000e-01
      vertex   4.248753e+01 1.446751e+00 4.000000e-01
      vertex   4.253820e+01 1.440231e+00 4.000000e-01
    endloop
  endfacet
  facet normal -0.000000e+00 0.000000e+00 1.000000e+00
    outer loop
      vertex   4.253820e+01 1.440231e+00 4.000000e-01
      vertex   4.259177e+01 1.439137e+00 4.000000e-01
      vertex   4.263357e+01 1.443943e+00 4.000000e-01
    endloop
  endfacet
  facet normal 0.000000e+00 0.000000e+00 1.000000e+00
    outer loop
      vertex   4.304470e+01 2.163895e+00 4.000000e-01
      vertex   4.302558e+01 2.238622e+00 4.000000e-01
      vertex   4.281290e+01 2.526937e+00 4.000000e-01
    endloop
  endfacet
  facet normal 0.000000e+00 0.000000e+00 1.000000e+00
    outer loop
      vertex   4.281290e+01 2.526937e+00 4.000000e-01
      vertex   4.302558e+01 2.238622e+00 4.000000e-01
      vertex   4.299792e+01 2.309606e+00 4.000000e-01
    endloop
  endfacet
  facet normal 0.000000e+00 0.000000e+00 1.000000e+00
    outer loop
      vertex   4.281290e+01 2.526937e+00 4.000000e-01
      vertex   4.299792e+01 2.309606e+00 4.000000e-01
      vertex   4.286096e+01 2.494810e+00 4.000000e-01
    endloop
  endfacet
  facet normal 0.000000e+00 0.000000e+00 1.000000e+00
    outer loop
      vertex   4.286096e+01 2.494810e+00 4.000000e-01
      vertex   4.299792e+01 2.309606e+00 4.000000e-01
      vertex   4.290437e+01 2.456813e+00 4.000000e-01
    endloop
  endfacet
  facet normal 0.000000e+00 0.000000e+00 1.000000e+00
    outer loop
      vertex   4.290437e+01 2.456813e+00 4.000000e-01
      vertex   4.299792e+01 2.309606e+00 4.000000e-01
      vertex   4.294224e+01 2.413146e+00 4.000000e-01
    endloop
  endfacet
  facet normal 0.000000e+00 0.000000e+00 1.000000e+00
    outer loop
      vertex   4.294224e+01 2.413146e+00 4.000000e-01
      vertex   4.299792e+01 2.309606e+00 4.000000e-01
      vertex   4.297372e+01 2.364010e+00 4.000000e-01
    endloop
  endfacet
  facet normal 0.000000e+00 0.000000e+00 1.000000e+00
    outer loop
      vertex   4.273400e+01 2.563685e+00 4.000000e-01
      vertex   4.264953e+01 2.586099e+00 4.000000e-01
      vertex   4.281290e+01 2.526937e+00 4.000000e-01
    endloop
  endfacet
  facet normal 0.000000e+00 0.000000e+00 1.000000e+00
    outer loop
      vertex   4.281290e+01 2.526937e+00 4.000000e-01
      vertex   4.264953e+01 2.586099e+00 4.000000e-01
      vertex   4.256244e+01 2.593505e+00 4.000000e-01
    endloop
  endfacet
  facet normal 0.000000e+00 0.000000e+00 1.000000e+00
    outer loop
      vertex   4.281290e+01 2.526937e+00 4.000000e-01
      vertex   4.256244e+01 2.593505e+00 4.000000e-01
      vertex   4.250439e+01 2.589770e+00 4.000000e-01
    endloop
  endfacet
  facet normal 0.000000e+00 0.000000e+00 1.000000e+00
    outer loop
      vertex   4.250439e+01 2.589770e+00 4.000000e-01
      vertex   4.244735e+01 2.578864e+00 4.000000e-01
      vertex   4.281290e+01 2.526937e+00 4.000000e-01
    endloop
  endfacet
  facet normal 1.142073e-01 -9.934569e-01 0.000000e+00
    outer loop
      vertex   4.263357e+01 1.443943e+00 4.000000e-01
      vertex   4.259177e+01 1.439137e+00 4.000000e-01
      vertex   4.263357e+01 1.443943e+00 0.000000e+00
    endloop
  endfacet
  facet normal 1.142073e-01 -9.934569e-01 0.000000e+00
    outer loop
      vertex   4.263357e+01 1.443943e+00 0.000000e+00
      vertex   4.259177e+01 1.439137e+00 4.000000e-01
      vertex   4.259177e+01 1.439137e+00 0.000000e+00
    endloop
  endfacet
  facet normal -2.040331e-02 -9.997918e-01 -0.000000e+00
    outer loop
      vertex   4.259177e+01 1.439137e+00 4.000000e-01
      vertex   4.253820e+01 1.440231e+00 4.000000e-01
      vertex   4.259177e+01 1.439137e+00 0.000000e+00
    endloop
  endfacet
  facet normal -2.040331e-02 -9.997918e-01 0.000000e+00
    outer loop
      vertex   4.259177e+01 1.439137e+00 0.000000e+00
      vertex   4.253820e+01 1.440231e+00 4.000000e-01
      vertex   4.253820e+01 1.440231e+00 0.000000e+00
    endloop
  endfacet
  facet normal -1.276584e-01 -9.918182e-01 -0.000000e+00
    outer loop
      vertex   4.253820e+01 1.440231e+00 4.000000e-01
      vertex   4.248753e+01 1.446751e+00 4.000000e-01
      vertex   4.253820e+01 1.440231e+00 0.000000e+00
    endloop
  endfacet
  facet normal -1.276584e-01 -9.918182e-01 0.000000e+00
    outer loop
      vertex   4.253820e+01 1.440231e+00 0.000000e+00
      vertex   4.248753e+01 1.446751e+00 4.000000e-01
      vertex   4.248753e+01 1.446751e+00 0.000000e+00
    endloop
  endfacet
  facet normal -2.366621e-01 -9.715920e-01 -0.000000e+00
    outer loop
      vertex   4.248753e+01 1.446751e+00 4.000000e-01
      vertex   4.243980e+01 1.458379e+00 4.000000e-01
      vertex   4.248753e+01 1.446751e+00 0.000000e+00
    endloop
  endfacet
  facet normal -2.366621e-01 -9.715920e-01 0.000000e+00
    outer loop
      vertex   4.248753e+01 1.446751e+00 0.000000e+00
      vertex   4.243980e+01 1.458379e+00 4.000000e-01
      vertex   4.243980e+01 1.458379e+00 0.000000e+00
    endloop
  endfacet
  facet normal -3.440822e-01 -9.389395e-01 -0.000000e+00
    outer loop
      vertex   4.243980e+01 1.458379e+00 4.000000e-01
      vertex   4.239501e+01 1.474791e+00 4.000000e-01
      vertex   4.243980e+01 1.458379e+00 0.000000e+00
    endloop
  endfacet
  facet normal -3.440822e-01 -9.389395e-01 0.000000e+00
    outer loop
      vertex   4.243980e+01 1.458379e+00 0.000000e+00
      vertex   4.239501e+01 1.474791e+00 4.000000e-01
      vertex   4.239501e+01 1.474791e+00 0.000000e+00
    endloop
  endfacet
  facet normal -4.466467e-01 -8.947104e-01 -0.000000e+00
    outer loop
      vertex   4.239501e+01 1.474791e+00 4.000000e-01
      vertex   4.235319e+01 1.495668e+00 4.000000e-01
      vertex   4.239501e+01 1.474791e+00 0.000000e+00
    endloop
  endfacet
  facet normal -4.466467e-01 -8.947104e-01 0.000000e+00
    outer loop
      vertex   4.239501e+01 1.474791e+00 0.000000e+00
      vertex   4.235319e+01 1.495668e+00 4.000000e-01
      vertex   4.235319e+01 1.495668e+00 0.000000e+00
    endloop
  endfacet
  facet normal -5.416139e-01 -8.406274e-01 -0.000000e+00
    outer loop
      vertex   4.235319e+01 1.495668e+00 4.000000e-01
      vertex   4.231436e+01 1.520689e+00 4.000000e-01
      vertex   4.235319e+01 1.495668e+00 0.000000e+00
    endloop
  endfacet
  facet normal -5.416139e-01 -8.406274e-01 0.000000e+00
    outer loop
      vertex   4.235319e+01 1.495668e+00 0.000000e+00
      vertex   4.231436e+01 1.520689e+00 4.000000e-01
      vertex   4.231436e+01 1.520689e+00 0.000000e+00
    endloop
  endfacet
  facet normal -6.270917e-01 -7.789454e-01 -0.000000e+00
    outer loop
      vertex   4.231436e+01 1.520689e+00 4.000000e-01
      vertex   4.227853e+01 1.549531e+00 4.000000e-01
      vertex   4.231436e+01 1.520689e+00 0.000000e+00
    endloop
  endfacet
  facet normal -6.270917e-01 -7.789454e-01 0.000000e+00
    outer loop
      vertex   4.231436e+01 1.520689e+00 0.000000e+00
      vertex   4.227853e+01 1.549531e+00 4.000000e-01
      vertex   4.227853e+01 1.549531e+00 0.000000e+00
    endloop
  endfacet
  facet normal -7.021307e-01 -7.120481e-01 -0.000000e+00
    outer loop
      vertex   4.227853e+01 1.549531e+00 4.000000e-01
      vertex   4.224573e+01 1.581874e+00 4.000000e-01
      vertex   4.227853e+01 1.549531e+00 0.000000e+00
    endloop
  endfacet
  facet normal -7.021307e-01 -7.120481e-01 0.000000e+00
    outer loop
      vertex   4.227853e+01 1.549531e+00 0.000000e+00
      vertex   4.224573e+01 1.581874e+00 4.000000e-01
      vertex   4.224573e+01 1.581874e+00 0.000000e+00
    endloop
  endfacet
  facet normal -7.666140e-01 -6.421083e-01 -0.000000e+00
    outer loop
      vertex   4.224573e+01 1.581874e+00 4.000000e-01
      vertex   4.221598e+01 1.617397e+00 4.000000e-01
      vertex   4.224573e+01 1.581874e+00 0.000000e+00
    endloop
  endfacet
  facet normal -7.666140e-01 -6.421083e-01 0.000000e+00
    outer loop
      vertex   4.224573e+01 1.581874e+00 0.000000e+00
      vertex   4.221598e+01 1.617397e+00 4.000000e-01
      vertex   4.221598e+01 1.617397e+00 0.000000e+00
    endloop
  endfacet
  facet normal -8.210324e-01 -5.708816e-01 -0.000000e+00
    outer loop
      vertex   4.221598e+01 1.617397e+00 4.000000e-01
      vertex   4.218929e+01 1.655778e+00 4.000000e-01
      vertex   4.221598e+01 1.617397e+00 0.000000e+00
    endloop
  endfacet
  facet normal -8.210324e-01 -5.708816e-01 0.000000e+00
    outer loop
      vertex   4.221598e+01 1.617397e+00 0.000000e+00
      vertex   4.218929e+01 1.655778e+00 4.000000e-01
      vertex   4.218929e+01 1.655778e+00 0.000000e+00
    endloop
  endfacet
  facet normal -8.662361e-01 -4.996350e-01 -0.000000e+00
    outer loop
      vertex   4.218929e+01 1.655778e+00 4.000000e-01
      vertex   4.216569e+01 1.696698e+00 4.000000e-01
      vertex   4.218929e+01 1.655778e+00 0.000000e+00
    endloop
  endfacet
  facet normal -8.662361e-01 -4.996350e-01 0.000000e+00
    outer loop
      vertex   4.218929e+01 1.655778e+00 0.000000e+00
      vertex   4.216569e+01 1.696698e+00 4.000000e-01
      vertex   4.216569e+01 1.696698e+00 0.000000e+00
    endloop
  endfacet
  facet normal -9.032235e-01 -4.291706e-01 -0.000000e+00
    outer loop
      vertex   4.216569e+01 1.696698e+00 4.000000e-01
      vertex   4.214519e+01 1.739834e+00 4.000000e-01
      vertex   4.216569e+01 1.696698e+00 0.000000e+00
    endloop
  endfacet
  facet normal -9.032235e-01 -4.291706e-01 0.000000e+00
    outer loop
      vertex   4.216569e+01 1.696698e+00 0.000000e+00
      vertex   4.214519e+01 1.739834e+00 4.000000e-01
      vertex   4.214519e+01 1.739834e+00 0.000000e+00
    endloop
  endfacet
  facet normal -9.329905e-01 -3.599009e-01 -0.000000e+00
    outer loop
      vertex   4.214519e+01 1.739834e+00 4.000000e-01
      vertex   4.212782e+01 1.784865e+00 4.000000e-01
      vertex   4.214519e+01 1.739834e+00 0.000000e+00
    endloop
  endfacet
  facet normal -9.329905e-01 -3.599009e-01 0.000000e+00
    outer loop
      vertex   4.214519e+01 1.739834e+00 0.000000e+00
      vertex   4.212782e+01 1.784865e+00 4.000000e-01
      vertex   4.212782e+01 1.784865e+00 0.000000e+00
    endloop
  endfacet
  facet normal -9.564373e-01 -2.919379e-01 -0.000000e+00
    outer loop
      vertex   4.212782e+01 1.784865e+00 4.000000e-01
      vertex   4.211360e+01 1.831470e+00 4.000000e-01
      vertex   4.212782e+01 1.784865e+00 0.000000e+00
    endloop
  endfacet
  facet normal -9.564373e-01 -2.919379e-01 0.000000e+00
    outer loop
      vertex   4.212782e+01 1.784865e+00 0.000000e+00
      vertex   4.211360e+01 1.831470e+00 4.000000e-01
      vertex   4.211360e+01 1.831470e+00 0.000000e+00
    endloop
  endfacet
  facet normal -9.743181e-01 -2.251759e-01 -0.000000e+00
    outer loop
      vertex   4.211360e+01 1.831470e+00 4.000000e-01
      vertex   4.210254e+01 1.879329e+00 4.000000e-01
      vertex   4.211360e+01 1.831470e+00 0.000000e+00
    endloop
  endfacet
  facet normal -9.743181e-01 -2.251759e-01 0.000000e+00
    outer loop
      vertex   4.211360e+01 1.831470e+00 0.000000e+00
      vertex   4.210254e+01 1.879329e+00 4.000000e-01
      vertex   4.210254e+01 1.879329e+00 0.000000e+00
    endloop
  endfacet
  facet normal -9.872205e-01 -1.593605e-01 -0.000000e+00
    outer loop
      vertex   4.210254e+01 1.879329e+00 4.000000e-01
      vertex   4.209466e+01 1.928120e+00 4.000000e-01
      vertex   4.210254e+01 1.879329e+00 0.000000e+00
    endloop
  endfacet
  facet normal -9.872205e-01 -1.593605e-01 0.000000e+00
    outer loop
      vertex   4.210254e+01 1.879329e+00 0.000000e+00
      vertex   4.209466e+01 1.928120e+00 4.000000e-01
      vertex   4.209466e+01 1.928120e+00 0.000000e+00
    endloop
  endfacet
  facet normal -9.955589e-01 -9.414118e-02 -0.000000e+00
    outer loop
      vertex   4.209466e+01 1.928120e+00 4.000000e-01
      vertex   4.208999e+01 1.977522e+00 4.000000e-01
      vertex   4.209466e+01 1.928120e+00 0.000000e+00
    endloop
  endfacet
  facet normal -9.955589e-01 -9.414118e-02 0.000000e+00
    outer loop
      vertex   4.209466e+01 1.928120e+00 0.000000e+00
      vertex   4.208999e+01 1.977522e+00 4.000000e-01
      vertex   4.208999e+01 1.977522e+00 0.000000e+00
    endloop
  endfacet
  facet normal -9.995762e-01 -2.911173e-02 -0.000000e+00
    outer loop
      vertex   4.208999e+01 1.977522e+00 4.000000e-01
      vertex   4.208854e+01 2.027213e+00 4.000000e-01
      vertex   4.208999e+01 1.977522e+00 0.000000e+00
    endloop
  endfacet
  facet normal -9.995762e-01 -2.911173e-02 0.000000e+00
    outer loop
      vertex   4.208999e+01 1.977522e+00 0.000000e+00
      vertex   4.208854e+01 2.027213e+00 4.000000e-01
      vertex   4.208854e+01 2.027213e+00 0.000000e+00
    endloop
  endfacet
  facet normal -9.993461e-01 3.615843e-02 0.000000e+00
    outer loop
      vertex   4.208854e+01 2.027213e+00 4.000000e-01
      vertex   4.209034e+01 2.076874e+00 4.000000e-01
      vertex   4.208854e+01 2.027213e+00 0.000000e+00
    endloop
  endfacet
  facet normal -9.993461e-01 3.615843e-02 0.000000e+00
    outer loop
      vertex   4.208854e+01 2.027213e+00 0.000000e+00
      vertex   4.209034e+01 2.076874e+00 4.000000e-01
      vertex   4.209034e+01 2.076874e+00 0.000000e+00
    endloop
  endfacet
  facet normal -9.947745e-01 1.020967e-01 0.000000e+00
    outer loop
      vertex   4.209034e+01 2.076874e+00 4.000000e-01
      vertex   4.209540e+01 2.126182e+00 4.000000e-01
      vertex   4.209034e+01 2.076874e+00 0.000000e+00
    endloop
  endfacet
  facet normal -9.947745e-01 1.020967e-01 0.000000e+00
    outer loop
      vertex   4.209034e+01 2.076874e+00 0.000000e+00
      vertex   4.209540e+01 2.126182e+00 4.000000e-01
      vertex   4.209540e+01 2.126182e+00 0.000000e+00
    endloop
  endfacet
  facet normal -9.855991e-01 1.690990e-01 0.000000e+00
    outer loop
      vertex   4.209540e+01 2.126182e+00 4.000000e-01
      vertex   4.210374e+01 2.174816e+00 4.000000e-01
      vertex   4.209540e+01 2.126182e+00 0.000000e+00
    endloop
  endfacet
  facet normal -9.855991e-01 1.690990e-01 0.000000e+00
    outer loop
      vertex   4.209540e+01 2.126182e+00 0.000000e+00
      vertex   4.210374e+01 2.174816e+00 4.000000e-01
      vertex   4.210374e+01 2.174816e+00 0.000000e+00
    endloop
  endfacet
  facet normal -9.713884e-01 2.374964e-01 0.000000e+00
    outer loop
      vertex   4.210374e+01 2.174816e+00 4.000000e-01
      vertex   4.211539e+01 2.222456e+00 4.000000e-01
      vertex   4.210374e+01 2.174816e+00 0.000000e+00
    endloop
  endfacet
  facet normal -9.713884e-01 2.374964e-01 0.000000e+00
    outer loop
      vertex   4.210374e+01 2.174816e+00 0.000000e+00
      vertex   4.211539e+01 2.222456e+00 4.000000e-01
      vertex   4.211539e+01 2.222456e+00 0.000000e+00
    endloop
  endfacet
  facet normal -9.515441e-01 3.075124e-01 0.000000e+00
    outer loop
      vertex   4.211539e+01 2.222456e+00 4.000000e-01
      vertex   4.213036e+01 2.268781e+00 4.000000e-01
      vertex   4.211539e+01 2.222456e+00 0.000000e+00
    endloop
  endfacet
  facet normal -9.515441e-01 3.075124e-01 0.000000e+00
    outer loop
      vertex   4.211539e+01 2.222456e+00 0.000000e+00
      vertex   4.213036e+01 2.268781e+00 4.000000e-01
      vertex   4.213036e+01 2.268781e+00 0.000000e+00
    endloop
  endfacet
  facet normal -9.253119e-01 3.792070e-01 0.000000e+00
    outer loop
      vertex   4.213036e+01 2.268781e+00 4.000000e-01
      vertex   4.214867e+01 2.313468e+00 4.000000e-01
      vertex   4.213036e+01 2.268781e+00 0.000000e+00
    endloop
  endfacet
  facet normal -9.253119e-01 3.792070e-01 0.000000e+00
    outer loop
      vertex   4.213036e+01 2.268781e+00 0.000000e+00
      vertex   4.214867e+01 2.313468e+00 4.000000e-01
      vertex   4.214867e+01 2.313468e+00 0.000000e+00
    endloop
  endfacet
  facet normal -8.918115e-01 4.524072e-01 0.000000e+00
    outer loop
      vertex   4.214867e+01 2.313468e+00 4.000000e-01
      vertex   4.217035e+01 2.356198e+00 4.000000e-01
      vertex   4.214867e+01 2.313468e+00 0.000000e+00
    endloop
  endfacet
  facet normal -8.918115e-01 4.524072e-01 0.000000e+00
    outer loop
      vertex   4.214867e+01 2.313468e+00 0.000000e+00
      vertex   4.217035e+01 2.356198e+00 4.000000e-01
      vertex   4.217035e+01 2.356198e+00 0.000000e+00
    endloop
  endfacet
  facet normal -8.500966e-01 5.266268e-01 0.000000e+00
    outer loop
      vertex   4.217035e+01 2.356198e+00 4.000000e-01
      vertex   4.219541e+01 2.396649e+00 4.000000e-01
      vertex   4.217035e+01 2.356198e+00 0.000000e+00
    endloop
  endfacet
  facet normal -8.500966e-01 5.266268e-01 0.000000e+00
    outer loop
      vertex   4.217035e+01 2.356198e+00 0.000000e+00
      vertex   4.219541e+01 2.396649e+00 4.000000e-01
      vertex   4.219541e+01 2.396649e+00 0.000000e+00
    endloop
  endfacet
  facet normal -7.992582e-01 6.009878e-01 0.000000e+00
    outer loop
      vertex   4.219541e+01 2.396649e+00 4.000000e-01
      vertex   4.222387e+01 2.434499e+00 4.000000e-01
      vertex   4.219541e+01 2.396649e+00 0.000000e+00
    endloop
  endfacet
  facet normal -7.992582e-01 6.009878e-01 0.000000e+00
    outer loop
      vertex   4.219541e+01 2.396649e+00 0.000000e+00
      vertex   4.222387e+01 2.434499e+00 4.000000e-01
      vertex   4.222387e+01 2.434499e+00 0.000000e+00
    endloop
  endfacet
  facet normal -7.385797e-01 6.741661e-01 0.000000e+00
    outer loop
      vertex   4.222387e+01 2.434499e+00 4.000000e-01
      vertex   4.225575e+01 2.469428e+00 4.000000e-01
      vertex   4.222387e+01 2.434499e+00 0.000000e+00
    endloop
  endfacet
  facet normal -7.385797e-01 6.741661e-01 0.000000e+00
    outer loop
      vertex   4.222387e+01 2.434499e+00 0.000000e+00
      vertex   4.225575e+01 2.469428e+00 4.000000e-01
      vertex   4.225575e+01 2.469428e+00 0.000000e+00
    endloop
  endfacet
  facet normal -6.677374e-01 7.443969e-01 0.000000e+00
    outer loop
      vertex   4.225575e+01 2.469428e+00 4.000000e-01
      vertex   4.229108e+01 2.501116e+00 4.000000e-01
      vertex   4.225575e+01 2.469428e+00 0.000000e+00
    endloop
  endfacet
  facet normal -6.677374e-01 7.443969e-01 0.000000e+00
    outer loop
      vertex   4.225575e+01 2.469428e+00 0.000000e+00
      vertex   4.229108e+01 2.501116e+00 4.000000e-01
      vertex   4.229108e+01 2.501116e+00 0.000000e+00
    endloop
  endfacet
  facet normal -5.677957e-01 8.231695e-01 0.000000e+00
    outer loop
      vertex   4.229108e+01 2.501116e+00 4.000000e-01
      vertex   4.233982e+01 2.534737e+00 4.000000e-01
      vertex   4.229108e+01 2.501116e+00 0.000000e+00
    endloop
  endfacet
  facet normal -5.677957e-01 8.231695e-01 0.000000e+00
    outer loop
      vertex   4.229108e+01 2.501116e+00 0.000000e+00
      vertex   4.233982e+01 2.534737e+00 4.000000e-01
      vertex   4.233982e+01 2.534737e+00 0.000000e+00
    endloop
  endfacet
  facet normal -4.425370e-01 8.967502e-01 0.000000e+00
    outer loop
      vertex   4.233982e+01 2.534737e+00 4.000000e-01
      vertex   4.239220e+01 2.560586e+00 4.000000e-01
      vertex   4.233982e+01 2.534737e+00 0.000000e+00
    endloop
  endfacet
  facet normal -4.425370e-01 8.967502e-01 0.000000e+00
    outer loop
      vertex   4.233982e+01 2.534737e+00 0.000000e+00
      vertex   4.239220e+01 2.560586e+00 4.000000e-01
      vertex   4.239220e+01 2.560586e+00 0.000000e+00
    endloop
  endfacet
  facet normal -3.146126e-01 9.492202e-01 0.000000e+00
    outer loop
      vertex   4.239220e+01 2.560586e+00 4.000000e-01
      vertex   4.244735e+01 2.578864e+00 4.000000e-01
      vertex   4.239220e+01 2.560586e+00 0.000000e+00
    endloop
  endfacet
  facet normal -3.146126e-01 9.492202e-01 0.000000e+00
    outer loop
      vertex   4.239220e+01 2.560586e+00 0.000000e+00
      vertex   4.244735e+01 2.578864e+00 4.000000e-01
      vertex   4.244735e+01 2.578864e+00 0.000000e+00
    endloop
  endfacet
  facet normal -1.878079e-01 9.822058e-01 0.000000e+00
    outer loop
      vertex   4.244735e+01 2.578864e+00 4.000000e-01
      vertex   4.250439e+01 2.589770e+00 4.000000e-01
      vertex   4.244735e+01 2.578864e+00 0.000000e+00
    endloop
  endfacet
  facet normal -1.878079e-01 9.822058e-01 0.000000e+00
    outer loop
      vertex   4.244735e+01 2.578864e+00 0.000000e+00
      vertex   4.250439e+01 2.589770e+00 4.000000e-01
      vertex   4.250439e+01 2.589770e+00 0.000000e+00
    endloop
  endfacet
  facet normal -6.420017e-02 9.979370e-01 0.000000e+00
    outer loop
      vertex   4.250439e+01 2.589770e+00 4.000000e-01
      vertex   4.256244e+01 2.593505e+00 4.000000e-01
      vertex   4.250439e+01 2.589770e+00 0.000000e+00
    endloop
  endfacet
  facet normal -6.420017e-02 9.979370e-01 0.000000e+00
    outer loop
      vertex   4.250439e+01 2.589770e+00 0.000000e+00
      vertex   4.256244e+01 2.593505e+00 4.000000e-01
      vertex   4.256244e+01 2.593505e+00 0.000000e+00
    endloop
  endfacet
  facet normal 8.473149e-02 9.964038e-01 0.000000e+00
    outer loop
      vertex   4.256244e+01 2.593505e+00 4.000000e-01
      vertex   4.264953e+01 2.586099e+00 4.000000e-01
      vertex   4.256244e+01 2.593505e+00 0.000000e+00
    endloop
  endfacet
  facet normal 8.473149e-02 9.964038e-01 0.000000e+00
    outer loop
      vertex   4.256244e+01 2.593505e+00 0.000000e+00
      vertex   4.264953e+01 2.586099e+00 4.000000e-01
      vertex   4.264953e+01 2.586099e+00 0.000000e+00
    endloop
  endfacet
  facet normal 2.564806e-01 9.665494e-01 0.000000e+00
    outer loop
      vertex   4.264953e+01 2.586099e+00 4.000000e-01
      vertex   4.273400e+01 2.563685e+00 4.000000e-01
      vertex   4.264953e+01 2.586099e+00 0.000000e+00
    endloop
  endfacet
  facet normal 2.564806e-01 9.665494e-01 0.000000e+00
    outer loop
      vertex   4.264953e+01 2.586099e+00 0.000000e+00
      vertex   4.273400e+01 2.563685e+00 4.000000e-01
      vertex   4.273400e+01 2.563685e+00 0.000000e+00
    endloop
  endfacet
  facet normal 4.221758e-01 9.065140e-01 0.000000e+00
    outer loop
      vertex   4.273400e+01 2.563685e+00 4.000000e-01
      vertex   4.281290e+01 2.526937e+00 4.000000e-01
      vertex   4.273400e+01 2.563685e+00 0.000000e+00
    endloop
  endfacet
  facet normal 4.221758e-01 9.065140e-01 0.000000e+00
    outer loop
      vertex   4.273400e+01 2.563685e+00 0.000000e+00
      vertex   4.281290e+01 2.526937e+00 4.000000e-01
      vertex   4.281290e+01 2.526937e+00 0.000000e+00
    endloop
  endfacet
  facet normal 5.557597e-01 8.313430e-01 0.000000e+00
    outer loop
      vertex   4.281290e+01 2.526937e+00 4.000000e-01
      vertex   4.286096e+01 2.494810e+00 4.000000e-01
      vertex   4.281290e+01 2.526937e+00 0.000000e+00
    endloop
  endfacet
  facet normal 5.557597e-01 8.313430e-01 0.000000e+00
    outer loop
      vertex   4.281290e+01 2.526937e+00 0.000000e+00
      vertex   4.286096e+01 2.494810e+00 4.000000e-01
      vertex   4.286096e+01 2.494810e+00 0.000000e+00
    endloop
  endfacet
  facet normal 6.586906e-01 7.524139e-01 0.000000e+00
    outer loop
      vertex   4.286096e+01 2.494810e+00 4.000000e-01
      vertex   4.290437e+01 2.456813e+00 4.000000e-01
      vertex   4.286096e+01 2.494810e+00 0.000000e+00
    endloop
  endfacet
  facet normal 6.586906e-01 7.524139e-01 0.000000e+00
    outer loop
      vertex   4.286096e+01 2.494810e+00 0.000000e+00
      vertex   4.290437e+01 2.456813e+00 4.000000e-01
      vertex   4.290437e+01 2.456813e+00 0.000000e+00
    endloop
  endfacet
  facet normal 7.554187e-01 6.552424e-01 0.000000e+00
    outer loop
      vertex   4.290437e+01 2.456813e+00 4.000000e-01
      vertex   4.294224e+01 2.413146e+00 4.000000e-01
      vertex   4.290437e+01 2.456813e+00 0.000000e+00
    endloop
  endfacet
  facet normal 7.554187e-01 6.552424e-01 0.000000e+00
    outer loop
      vertex   4.290437e+01 2.456813e+00 0.000000e+00
      vertex   4.294224e+01 2.413146e+00 4.000000e-01
      vertex   4.294224e+01 2.413146e+00 0.000000e+00
    endloop
  endfacet
  facet normal 8.420501e-01 5.393993e-01 0.000000e+00
    outer loop
      vertex   4.294224e+01 2.413146e+00 4.000000e-01
      vertex   4.297372e+01 2.364010e+00 4.000000e-01
      vertex   4.294224e+01 2.413146e+00 0.000000e+00
    endloop
  endfacet
  facet normal 8.420501e-01 5.393993e-01 0.000000e+00
    outer loop
      vertex   4.294224e+01 2.413146e+00 0.000000e+00
      vertex   4.297372e+01 2.364010e+00 4.000000e-01
      vertex   4.297372e+01 2.364010e+00 0.000000e+00
    endloop
  endfacet
  facet normal 9.136749e-01 4.064457e-01 0.000000e+00
    outer loop
      vertex   4.297372e+01 2.364010e+00 4.000000e-01
      vertex   4.299792e+01 2.309606e+00 4.000000e-01
      vertex   4.297372e+01 2.364010e+00 0.000000e+00
    endloop
  endfacet
  facet normal 9.136749e-01 4.064457e-01 0.000000e+00
    outer loop
      vertex   4.297372e+01 2.364010e+00 0.000000e+00
      vertex   4.299792e+01 2.309606e+00 4.000000e-01
      vertex   4.299792e+01 2.309606e+00 0.000000e+00
    endloop
  endfacet
  facet normal 9.317507e-01 3.630988e-01 0.000000e+00
    outer loop
      vertex   4.299792e+01 2.309606e+00 4.000000e-01
      vertex   4.302558e+01 2.238622e+00 4.000000e-01
      vertex   4.299792e+01 2.309606e+00 0.000000e+00
    endloop
  endfacet
  facet normal 9.317507e-01 3.630988e-01 0.000000e+00
    outer loop
      vertex   4.299792e+01 2.309606e+00 0.000000e+00
      vertex   4.302558e+01 2.238622e+00 4.000000e-01
      vertex   4.302558e+01 2.238622e+00 0.000000e+00
    endloop
  endfacet
  facet normal 9.687878e-01 2.478916e-01 0.000000e+00
    outer loop
      vertex   4.302558e+01 2.238622e+00 4.000000e-01
      vertex   4.304470e+01 2.163895e+00 4.000000e-01
      vertex   4.302558e+01 2.238622e+00 0.000000e+00
    endloop
  endfacet
  facet normal 9.687878e-01 2.478916e-01 0.000000e+00
    outer loop
      vertex   4.302558e+01 2.238622e+00 0.000000e+00
      vertex   4.304470e+01 2.163895e+00 4.000000e-01
      vertex   4.304470e+01 2.163895e+00 0.000000e+00
    endloop
  endfacet
  facet normal 9.906132e-01 1.366946e-01 0.000000e+00
    outer loop
      vertex   4.304470e+01 2.163895e+00 4.000000e-01
      vertex   4.305535e+01 2.086712e+00 4.000000e-01
      vertex   4.304470e+01 2.163895e+00 0.000000e+00
    endloop
  endfacet
  facet normal 9.906132e-01 1.366946e-01 0.000000e+00
    outer loop
      vertex   4.304470e+01 2.163895e+00 0.000000e+00
      vertex   4.305535e+01 2.086712e+00 4.000000e-01
      vertex   4.305535e+01 2.086712e+00 0.000000e+00
    endloop
  endfacet
  facet normal 9.995878e-01 2.870780e-02 0.000000e+00
    outer loop
      vertex   4.305535e+01 2.086712e+00 4.000000e-01
      vertex   4.305760e+01 2.008362e+00 4.000000e-01
      vertex   4.305535e+01 2.086712e+00 0.000000e+00
    endloop
  endfacet
  facet normal 9.995878e-01 2.870780e-02 0.000000e+00
    outer loop
      vertex   4.305535e+01 2.086712e+00 0.000000e+00
      vertex   4.305760e+01 2.008362e+00 4.000000e-01
      vertex   4.305760e+01 2.008362e+00 0.000000e+00
    endloop
  endfacet
  facet normal 9.969938e-01 -7.748112e-02 0.000000e+00
    outer loop
      vertex   4.305760e+01 2.008362e+00 4.000000e-01
      vertex   4.305152e+01 1.930131e+00 4.000000e-01
      vertex   4.305760e+01 2.008362e+00 0.000000e+00
    endloop
  endfacet
  facet normal 9.969938e-01 -7.748112e-02 0.000000e+00
    outer loop
      vertex   4.305760e+01 2.008362e+00 0.000000e+00
      vertex   4.305152e+01 1.930131e+00 4.000000e-01
      vertex   4.305152e+01 1.930131e+00 0.000000e+00
    endloop
  endfacet
  facet normal 9.830227e-01 -1.834838e-01 0.000000e+00
    outer loop
      vertex   4.305152e+01 1.930131e+00 4.000000e-01
      vertex   4.303718e+01 1.853309e+00 4.000000e-01
      vertex   4.305152e+01 1.930131e+00 0.000000e+00
    endloop
  endfacet
  facet normal 9.830227e-01 -1.834838e-01 0.000000e+00
    outer loop
      vertex   4.305152e+01 1.930131e+00 0.000000e+00
      vertex   4.303718e+01 1.853309e+00 4.000000e-01
      vertex   4.303718e+01 1.853309e+00 0.000000e+00
    endloop
  endfacet
  facet normal 9.567893e-01 -2.907820e-01 0.000000e+00
    outer loop
      vertex   4.303718e+01 1.853309e+00 4.000000e-01
      vertex   4.301466e+01 1.779181e+00 4.000000e-01
      vertex   4.303718e+01 1.853309e+00 0.000000e+00
    endloop
  endfacet
  facet normal 9.567893e-01 -2.907820e-01 0.000000e+00
    outer loop
      vertex   4.303718e+01 1.853309e+00 0.000000e+00
      vertex   4.301466e+01 1.779181e+00 4.000000e-01
      vertex   4.301466e+01 1.779181e+00 0.000000e+00
    endloop
  endfacet
  facet normal 9.163530e-01 -4.003713e-01 0.000000e+00
    outer loop
      vertex   4.301466e+01 1.779181e+00 4.000000e-01
      vertex   4.298401e+01 1.709037e+00 4.000000e-01
      vertex   4.301466e+01 1.779181e+00 0.000000e+00
    endloop
  endfacet
  facet normal 9.163530e-01 -4.003713e-01 0.000000e+00
    outer loop
      vertex   4.301466e+01 1.779181e+00 0.000000e+00
      vertex   4.298401e+01 1.709037e+00 4.000000e-01
      vertex   4.298401e+01 1.709037e+00 0.000000e+00
    endloop
  endfacet
  facet normal 8.751055e-01 -4.839321e-01 0.000000e+00
    outer loop
      vertex   4.298401e+01 1.709037e+00 4.000000e-01
      vertex   4.296566e+01 1.675862e+00 4.000000e-01
      vertex   4.298401e+01 1.709037e+00 0.000000e+00
    endloop
  endfacet
  facet normal 8.751055e-01 -4.839321e-01 0.000000e+00
    outer loop
      vertex   4.298401e+01 1.709037e+00 0.000000e+00
      vertex   4.296566e+01 1.675862e+00 4.000000e-01
      vertex   4.296566e+01 1.675862e+00 0.000000e+00
    endloop
  endfacet
  facet normal 8.415064e-01 -5.402472e-01 0.000000e+00
    outer loop
      vertex   4.296566e+01 1.675862e+00 4.000000e-01
      vertex   4.294531e+01 1.644165e+00 4.000000e-01
      vertex   4.296566e+01 1.675862e+00 0.000000e+00
    endloop
  endfacet
  facet normal 8.415064e-01 -5.402472e-01 0.000000e+00
    outer loop
      vertex   4.296566e+01 1.675862e+00 0.000000e+00
      vertex   4.294531e+01 1.644165e+00 4.000000e-01
      vertex   4.294531e+01 1.644165e+00 0.000000e+00
    endloop
  endfacet
  facet normal 8.025423e-01 -5.965952e-01 0.000000e+00
    outer loop
      vertex   4.294531e+01 1.644165e+00 4.000000e-01
      vertex   4.292297e+01 1.614108e+00 4.000000e-01
      vertex   4.294531e+01 1.644165e+00 0.000000e+00
    endloop
  endfacet
  facet normal 8.025423e-01 -5.965952e-01 0.000000e+00
    outer loop
      vertex   4.294531e+01 1.644165e+00 0.000000e+00
      vertex   4.292297e+01 1.614108e+00 4.000000e-01
      vertex   4.292297e+01 1.614108e+00 0.000000e+00
    endloop
  endfacet
  facet normal 7.577988e-01 -6.524883e-01 0.000000e+00
    outer loop
      vertex   4.292297e+01 1.614108e+00 4.000000e-01
      vertex   4.289864e+01 1.585851e+00 4.000000e-01
      vertex   4.292297e+01 1.614108e+00 0.000000e+00
    endloop
  endfacet
  facet normal 7.577988e-01 -6.524883e-01 0.000000e+00
    outer loop
      vertex   4.292297e+01 1.614108e+00 0.000000e+00
      vertex   4.289864e+01 1.585851e+00 4.000000e-01
      vertex   4.289864e+01 1.585851e+00 0.000000e+00
    endloop
  endfacet
  facet normal 7.069473e-01 -7.072662e-01 0.000000e+00
    outer loop
      vertex   4.289864e+01 1.585851e+00 4.000000e-01
      vertex   4.287233e+01 1.559557e+00 4.000000e-01
      vertex   4.289864e+01 1.585851e+00 0.000000e+00
    endloop
  endfacet
  facet normal 7.069473e-01 -7.072662e-01 0.000000e+00
    outer loop
      vertex   4.289864e+01 1.585851e+00 0.000000e+00
      vertex   4.287233e+01 1.559557e+00 4.000000e-01
      vertex   4.287233e+01 1.559557e+00 0.000000e+00
    endloop
  endfacet
  facet normal 6.498078e-01 -7.600985e-01 0.000000e+00
    outer loop
      vertex   4.287233e+01 1.559557e+00 4.000000e-01
      vertex   4.284406e+01 1.535385e+00 4.000000e-01
      vertex   4.287233e+01 1.559557e+00 0.000000e+00
    endloop
  endfacet
  facet normal 6.498078e-01 -7.600985e-01 0.000000e+00
    outer loop
      vertex   4.287233e+01 1.559557e+00 0.000000e+00
      vertex   4.284406e+01 1.535385e+00 4.000000e-01
      vertex   4.284406e+01 1.535385e+00 0.000000e+00
    endloop
  endfacet
  facet normal 5.864176e-01 -8.100089e-01 0.000000e+00
    outer loop
      vertex   4.284406e+01 1.535385e+00 4.000000e-01
      vertex   4.281382e+01 1.513496e+00 4.000000e-01
      vertex   4.284406e+01 1.535385e+00 0.000000e+00
    endloop
  endfacet
  facet normal 5.864176e-01 -8.100089e-01 0.000000e+00
    outer loop
      vertex   4.284406e+01 1.535385e+00 0.000000e+00
      vertex   4.281382e+01 1.513496e+00 4.000000e-01
      vertex   4.281382e+01 1.513496e+00 0.000000e+00
    endloop
  endfacet
  facet normal 5.170939e-01 -8.559286e-01 0.000000e+00
    outer loop
      vertex   4.281382e+01 1.513496e+00 4.000000e-01
      vertex   4.278164e+01 1.494052e+00 4.000000e-01
      vertex   4.281382e+01 1.513496e+00 0.000000e+00
    endloop
  endfacet
  facet normal 5.170939e-01 -8.559286e-01 0.000000e+00
    outer loop
      vertex   4.281382e+01 1.513496e+00 0.000000e+00
      vertex   4.278164e+01 1.494052e+00 4.000000e-01
      vertex   4.278164e+01 1.494052e+00 0.000000e+00
    endloop
  endfacet
  facet normal 4.424765e-01 -8.967801e-01 0.000000e+00
    outer loop
      vertex   4.278164e+01 1.494052e+00 4.000000e-01
      vertex   4.274751e+01 1.477214e+00 4.000000e-01
      vertex   4.278164e+01 1.494052e+00 0.000000e+00
    endloop
  endfacet
  facet normal 4.424765e-01 -8.967801e-01 0.000000e+00
    outer loop
      vertex   4.278164e+01 1.494052e+00 0.000000e+00
      vertex   4.274751e+01 1.477214e+00 4.000000e-01
      vertex   4.274751e+01 1.477214e+00 0.000000e+00
    endloop
  endfacet
  facet normal 3.635341e-01 -9.315809e-01 0.000000e+00
    outer loop
      vertex   4.274751e+01 1.477214e+00 4.000000e-01
      vertex   4.271145e+01 1.463143e+00 4.000000e-01
      vertex   4.274751e+01 1.477214e+00 0.000000e+00
    endloop
  endfacet
  facet normal 3.635341e-01 -9.315809e-01 0.000000e+00
    outer loop
      vertex   4.274751e+01 1.477214e+00 0.000000e+00
      vertex   4.271145e+01 1.463143e+00 4.000000e-01
      vertex   4.271145e+01 1.463143e+00 0.000000e+00
    endloop
  endfacet
  facet normal 2.815241e-01 -9.595542e-01 0.000000e+00
    outer loop
      vertex   4.271145e+01 1.463143e+00 4.000000e-01
      vertex   4.267347e+01 1.451999e+00 4.000000e-01
      vertex   4.271145e+01 1.463143e+00 0.000000e+00
    endloop
  endfacet
  facet normal 2.815241e-01 -9.595542e-01 0.000000e+00
    outer loop
      vertex   4.271145e+01 1.463143e+00 0.000000e+00
      vertex   4.267347e+01 1.451999e+00 4.000000e-01
      vertex   4.267347e+01 1.451999e+00 0.000000e+00
    endloop
  endfacet
  facet normal 1.979036e-01 -9.802215e-01 0.000000e+00
    outer loop
      vertex   4.267347e+01 1.451999e+00 4.000000e-01
      vertex   4.263357e+01 1.443943e+00 4.000000e-01
      vertex   4.267347e+01 1.451999e+00 0.000000e+00
    endloop
  endfacet
  facet normal 1.979036e-01 -9.802215e-01 0.000000e+00
    outer loop
      vertex   4.267347e+01 1.451999e+00 0.000000e+00
      vertex   4.263357e+01 1.443943e+00 4.000000e-01
      vertex   4.263357e+01 1.443943e+00 0.000000e+00
    endloop
  endfacet
  facet normal 0.000000e+00 0.000000e+00 -1.000000e+00
    outer loop
      vertex   4.225575e+01 2.469428e+00 0.000000e+00
      vertex   4.229108e+01 2.501116e+00 0.000000e+00
      vertex   4.281290e+01 2.526937e+00 0.000000e+00
    endloop
  endfacet
  facet normal -0.000000e+00 0.000000e+00 -1.000000e+00
    outer loop
      vertex   4.281290e+01 2.526937e+00 0.000000e+00
      vertex   4.229108e+01 2.501116e+00 0.000000e+00
      vertex   4.233982e+01 2.534737e+00 0.000000e+00
    endloop
  endfacet
  facet normal 0.000000e+00 0.000000e+00 -1.000000e+00
    outer loop
      vertex   4.281290e+01 2.526937e+00 0.000000e+00
      vertex   4.233982e+01 2.534737e+00 0.000000e+00
      vertex   4.239220e+01 2.560586e+00 0.000000e+00
    endloop
  endfacet
  facet normal 0.000000e+00 0.000000e+00 -1.000000e+00
    outer loop
      vertex   4.239220e+01 2.560586e+00 0.000000e+00
      vertex   4.244735e+01 2.578864e+00 0.000000e+00
      vertex   4.281290e+01 2.526937e+00 0.000000e+00
    endloop
  endfacet
  facet normal 0.000000e+00 0.000000e+00 -1.000000e+00
    outer loop
      vertex   4.281290e+01 2.526937e+00 0.000000e+00
      vertex   4.244735e+01 2.578864e+00 0.000000e+00
      vertex   4.250439e+01 2.589770e+00 0.000000e+00
    endloop
  endfacet
  facet normal 0.000000e+00 0.000000e+00 -1.000000e+00
    outer loop
      vertex   4.281290e+01 2.526937e+00 0.000000e+00
      vertex   4.250439e+01 2.589770e+00 0.000000e+00
      vertex   4.256244e+01 2.593505e+00 0.000000e+00
    endloop
  endfacet
  facet normal 0.000000e+00 0.000000e+00 -1.000000e+00
    outer loop
      vertex   4.256244e+01 2.593505e+00 0.000000e+00
      vertex   4.264953e+01 2.586099e+00 0.000000e+00
      vertex   4.281290e+01 2.526937e+00 0.000000e+00
    endloop
  endfacet
  facet normal 0.000000e+00 0.000000e+00 -1.000000e+00
    outer loop
      vertex   4.281290e+01 2.526937e+00 0.000000e+00
      vertex   4.264953e+01 2.586099e+00 0.000000e+00
      vertex   4.273400e+01 2.563685e+00 0.000000e+00
    endloop
  endfacet
  facet normal -0.000000e+00 -0.000000e+00 -1.000000e+00
    outer loop
      vertex   4.286096e+01 2.494810e+00 0.000000e+00
      vertex   4.299792e+01 2.309606e+00 0.000000e+00
      vertex   4.281290e+01 2.526937e+00 0.000000e+00
    endloop
  endfacet
  facet normal 0.000000e+00 0.000000e+00 -1.000000e+00
    outer loop
      vertex   4.281290e+01 2.526937e+00 0.000000e+00
      vertex   4.299792e+01 2.309606e+00 0.000000e+00
      vertex   4.302558e+01 2.238622e+00 0.000000e+00
    endloop
  endfacet
  facet normal 0.000000e+00 0.000000e+00 -1.000000e+00
    outer loop
      vertex   4.281290e+01 2.526937e+00 0.000000e+00
      vertex   4.302558e+01 2.238622e+00 0.000000e+00
      vertex   4.304470e+01 2.163895e+00 0.000000e+00
    endloop
  endfacet
  facet normal 0.000000e+00 0.000000e+00 -1.000000e+00
    outer loop
      vertex   4.286096e+01 2.494810e+00 0.000000e+00
      vertex   4.290437e+01 2.456813e+00 0.000000e+00
      vertex   4.299792e+01 2.309606e+00 0.000000e+00
    endloop
  endfacet
  facet normal 0.000000e+00 0.000000e+00 -1.000000e+00
    outer loop
      vertex   4.299792e+01 2.309606e+00 0.000000e+00
      vertex   4.290437e+01 2.456813e+00 0.000000e+00
      vertex   4.294224e+01 2.413146e+00 0.000000e+00
    endloop
  endfacet
  facet normal 0.000000e+00 0.000000e+00 -1.000000e+00
    outer loop
      vertex   4.299792e+01 2.309606e+00 0.000000e+00
      vertex   4.294224e+01 2.413146e+00 0.000000e+00
      vertex   4.297372e+01 2.364010e+00 0.000000e+00
    endloop
  endfacet
  facet normal -0.000000e+00 -0.000000e+00 -1.000000e+00
    outer loop
      vertex   4.304470e+01 2.163895e+00 0.000000e+00
      vertex   4.305535e+01 2.086712e+00 0.000000e+00
      vertex   4.281290e+01 2.526937e+00 0.000000e+00
    endloop
  endfacet
  facet normal 0.000000e+00 -0.000000e+00 -1.000000e+00
    outer loop
      vertex   4.281290e+01 2.526937e+00 0.000000e+00
      vertex   4.305535e+01 2.086712e+00 0.000000e+00
      vertex   4.209034e+01 2.076874e+00 0.000000e+00
    endloop
  endfacet
  facet normal 0.000000e+00 0.000000e+00 -1.000000e+00
    outer loop
      vertex   4.281290e+01 2.526937e+00 0.000000e+00
      vertex   4.209034e+01 2.076874e+00 0.000000e+00
      vertex   4.209540e+01 2.126182e+00 0.000000e+00
    endloop
  endfacet
  facet normal 0.000000e+00 -0.000000e+00 -1.000000e+00
    outer loop
      vertex   4.305535e+01 2.086712e+00 0.000000e+00
      vertex   4.305760e+01 2.008362e+00 0.000000e+00
      vertex   4.209034e+01 2.076874e+00 0.000000e+00
    endloop
  endfacet
  facet normal 0.000000e+00 -0.000000e+00 -1.000000e+00
    outer loop
      vertex   4.209034e+01 2.076874e+00 0.000000e+00
      vertex   4.305760e+01 2.008362e+00 0.000000e+00
      vertex   4.208854e+01 2.027213e+00 0.000000e+00
    endloop
  endfacet
  facet normal 0.000000e+00 0.000000e+00 -1.000000e+00
    outer loop
      vertex   4.208854e+01 2.027213e+00 0.000000e+00
      vertex   4.305760e+01 2.008362e+00 0.000000e+00
      vertex   4.208999e+01 1.977522e+00 0.000000e+00
    endloop
  endfacet
  facet normal 0.000000e+00 0.000000e+00 -1.000000e+00
    outer loop
      vertex   4.208999e+01 1.977522e+00 0.000000e+00
      vertex   4.305760e+01 2.008362e+00 0.000000e+00
      vertex   4.305152e+01 1.930131e+00 0.000000e+00
    endloop
  endfacet
  facet normal 0.000000e+00 0.000000e+00 -1.000000e+00
    outer loop
      vertex   4.208999e+01 1.977522e+00 0.000000e+00
      vertex   4.305152e+01 1.930131e+00 0.000000e+00
      vertex   4.209466e+01 1.928120e+00 0.000000e+00
    endloop
  endfacet
  facet normal 0.000000e+00 0.000000e+00 -1.000000e+00
    outer loop
      vertex   4.209466e+01 1.928120e+00 0.000000e+00
      vertex   4.305152e+01 1.930131e+00 0.000000e+00
      vertex   4.303718e+01 1.853309e+00 0.000000e+00
    endloop
  endfacet
  facet normal 0.000000e+00 0.000000e+00 -1.000000e+00
    outer loop
      vertex   4.209466e+01 1.928120e+00 0.000000e+00
      vertex   4.303718e+01 1.853309e+00 0.000000e+00
      vertex   4.210254e+01 1.879329e+00 0.000000e+00
    endloop
  endfacet
  facet normal 0.000000e+00 0.000000e+00 -1.000000e+00
    outer loop
      vertex   4.210254e+01 1.879329e+00 0.000000e+00
      vertex   4.303718e+01 1.853309e+00 0.000000e+00
      vertex   4.301466e+01 1.779181e+00 0.000000e+00
    endloop
  endfacet
  facet normal 0.000000e+00 0.000000e+00 -1.000000e+00
    outer loop
      vertex   4.210254e+01 1.879329e+00 0.000000e+00
      vertex   4.301466e+01 1.779181e+00 0.000000e+00
      vertex   4.298401e+01 1.709037e+00 0.000000e+00
    endloop
  endfacet
  facet normal -0.000000e+00 0.000000e+00 -1.000000e+00
    outer loop
      vertex   4.298401e+01 1.709037e+00 0.000000e+00
      vertex   4.296566e+01 1.675862e+00 0.000000e+00
      vertex   4.210254e+01 1.879329e+00 0.000000e+00
    endloop
  endfacet
  facet normal 0.000000e+00 0.000000e+00 -1.000000e+00
    outer loop
      vertex   4.210254e+01 1.879329e+00 0.000000e+00
      vertex   4.296566e+01 1.675862e+00 0.000000e+00
      vertex   4.294531e+01 1.644165e+00 0.000000e+00
    endloop
  endfacet
  facet normal 0.000000e+00 0.000000e+00 -1.000000e+00
    outer loop
      vertex   4.210254e+01 1.879329e+00 0.000000e+00
      vertex   4.294531e+01 1.644165e+00 0.000000e+00
      vertex   4.292297e+01 1.614108e+00 0.000000e+00
    endloop
  endfacet
  facet normal -0.000000e+00 0.000000e+00 -1.000000e+00
    outer loop
      vertex   4.292297e+01 1.614108e+00 0.000000e+00
      vertex   4.289864e+01 1.585851e+00 0.000000e+00
      vertex   4.210254e+01 1.879329e+00 0.000000e+00
    endloop
  endfacet
  facet normal 0.000000e+00 0.000000e+00 -1.000000e+00
    outer loop
      vertex   4.210254e+01 1.879329e+00 0.000000e+00
      vertex   4.289864e+01 1.585851e+00 0.000000e+00
      vertex   4.287233e+01 1.559557e+00 0.000000e+00
    endloop
  endfacet
  facet normal 0.000000e+00 0.000000e+00 -1.000000e+00
    outer loop
      vertex   4.210254e+01 1.879329e+00 0.000000e+00
      vertex   4.287233e+01 1.559557e+00 0.000000e+00
      vertex   4.284406e+01 1.535385e+00 0.000000e+00
    endloop
  endfacet
  facet normal -0.000000e+00 0.000000e+00 -1.000000e+00
    outer loop
      vertex   4.284406e+01 1.535385e+00 0.000000e+00
      vertex   4.281382e+01 1.513496e+00 0.000000e+00
      vertex   4.210254e+01 1.879329e+00 0.000000e+00
    endloop
  endfacet
  facet normal 0.000000e+00 0.000000e+00 -1.000000e+00
    outer loop
      vertex   4.210254e+01 1.879329e+00 0.000000e+00
      vertex   4.281382e+01 1.513496e+00 0.000000e+00
      vertex   4.278164e+01 1.494052e+00 0.000000e+00
    endloop
  endfacet
  facet normal 0.000000e+00 0.000000e+00 -1.000000e+00
    outer loop
      vertex   4.210254e+01 1.879329e+00 0.000000e+00
      vertex   4.278164e+01 1.494052e+00 0.000000e+00
      vertex   4.274751e+01 1.477214e+00 0.000000e+00
    endloop
  endfacet
  facet normal -0.000000e+00 0.000000e+00 -1.000000e+00
    outer loop
      vertex   4.274751e+01 1.477214e+00 0.000000e+00
      vertex   4.271145e+01 1.463143e+00 0.000000e+00
      vertex   4.210254e+01 1.879329e+00 0.000000e+00
    endloop
  endfacet
  facet normal 0.000000e+00 0.000000e+00 -1.000000e+00
    outer loop
      vertex   4.210254e+01 1.879329e+00 0.000000e+00
      vertex   4.271145e+01 1.463143e+00 0.000000e+00
      vertex   4.267347e+01 1.451999e+00 0.000000e+00
    endloop
  endfacet
  facet normal 0.000000e+00 0.000000e+00 -1.000000e+00
    outer loop
      vertex   4.210254e+01 1.879329e+00 0.000000e+00
      vertex   4.267347e+01 1.451999e+00 0.000000e+00
      vertex   4.263357e+01 1.443943e+00 0.000000e+00
    endloop
  endfacet
  facet normal 0.000000e+00 0.000000e+00 -1.000000e+00
    outer loop
      vertex   4.259177e+01 1.439137e+00 0.000000e+00
      vertex   4.253820e+01 1.440231e+00 0.000000e+00
      vertex   4.263357e+01 1.443943e+00 0.000000e+00
    endloop
  endfacet
  facet normal -0.000000e+00 0.000000e+00 -1.000000e+00
    outer loop
      vertex   4.263357e+01 1.443943e+00 0.000000e+00
      vertex   4.253820e+01 1.440231e+00 0.000000e+00
      vertex   4.248753e+01 1.446751e+00 0.000000e+00
    endloop
  endfacet
  facet normal 0.000000e+00 0.000000e+00 -1.000000e+00
    outer loop
      vertex   4.263357e+01 1.443943e+00 0.000000e+00
      vertex   4.248753e+01 1.446751e+00 0.000000e+00
      vertex   4.243980e+01 1.458379e+00 0.000000e+00
    endloop
  endfacet
  facet normal 0.000000e+00 0.000000e+00 -1.000000e+00
    outer loop
      vertex   4.243980e+01 1.458379e+00 0.000000e+00
      vertex   4.239501e+01 1.474791e+00 0.000000e+00
      vertex   4.263357e+01 1.443943e+00 0.000000e+00
    endloop
  endfacet
  facet normal 0.000000e+00 0.000000e+00 -1.000000e+00
    outer loop
      vertex   4.263357e+01 1.443943e+00 0.000000e+00
      vertex   4.239501e+01 1.474791e+00 0.000000e+00
      vertex   4.235319e+01 1.495668e+00 0.000000e+00
    endloop
  endfacet
  facet normal 0.000000e+00 0.000000e+00 -1.000000e+00
    outer loop
      vertex   4.263357e+01 1.443943e+00 0.000000e+00
      vertex   4.235319e+01 1.495668e+00 0.000000e+00
      vertex   4.231436e+01 1.520689e+00 0.000000e+00
    endloop
  endfacet
  facet normal 0.000000e+00 0.000000e+00 -1.000000e+00
    outer loop
      vertex   4.231436e+01 1.520689e+00 0.000000e+00
      vertex   4.227853e+01 1.549531e+00 0.000000e+00
      vertex   4.263357e+01 1.443943e+00 0.000000e+00
    endloop
  endfacet
  facet normal 0.000000e+00 0.000000e+00 -1.000000e+00
    outer loop
      vertex   4.263357e+01 1.443943e+00 0.000000e+00
      vertex   4.227853e+01 1.549531e+00 0.000000e+00
      vertex   4.224573e+01 1.581874e+00 0.000000e+00
    endloop
  endfacet
  facet normal 0.000000e+00 0.000000e+00 -1.000000e+00
    outer loop
      vertex   4.263357e+01 1.443943e+00 0.000000e+00
      vertex   4.224573e+01 1.581874e+00 0.000000e+00
      vertex   4.221598e+01 1.617397e+00 0.000000e+00
    endloop
  endfacet
  facet normal 0.000000e+00 0.000000e+00 -1.000000e+00
    outer loop
      vertex   4.221598e+01 1.617397e+00 0.000000e+00
      vertex   4.218929e+01 1.655778e+00 0.000000e+00
      vertex   4.263357e+01 1.443943e+00 0.000000e+00
    endloop
  endfacet
  facet normal 0.000000e+00 0.000000e+00 -1.000000e+00
    outer loop
      vertex   4.263357e+01 1.443943e+00 0.000000e+00
      vertex   4.218929e+01 1.655778e+00 0.000000e+00
      vertex   4.216569e+01 1.696698e+00 0.000000e+00
    endloop
  endfacet
  facet normal 0.000000e+00 0.000000e+00 -1.000000e+00
    outer loop
      vertex   4.263357e+01 1.443943e+00 0.000000e+00
      vertex   4.216569e+01 1.696698e+00 0.000000e+00
      vertex   4.214519e+01 1.739834e+00 0.000000e+00
    endloop
  endfacet
  facet normal 0.000000e+00 0.000000e+00 -1.000000e+00
    outer loop
      vertex   4.214519e+01 1.739834e+00 0.000000e+00
      vertex   4.212782e+01 1.784865e+00 0.000000e+00
      vertex   4.263357e+01 1.443943e+00 0.000000e+00
    endloop
  endfacet
  facet normal 0.000000e+00 0.000000e+00 -1.000000e+00
    outer loop
      vertex   4.263357e+01 1.443943e+00 0.000000e+00
      vertex   4.212782e+01 1.784865e+00 0.000000e+00
      vertex   4.211360e+01 1.831470e+00 0.000000e+00
    endloop
  endfacet
  facet normal 0.000000e+00 0.000000e+00 -1.000000e+00
    outer loop
      vertex   4.263357e+01 1.443943e+00 0.000000e+00
      vertex   4.211360e+01 1.831470e+00 0.000000e+00
      vertex   4.210254e+01 1.879329e+00 0.000000e+00
    endloop
  endfacet
  facet normal 0.000000e+00 0.000000e+00 -1.000000e+00
    outer loop
      vertex   4.209540e+01 2.126182e+00 0.000000e+00
      vertex   4.210374e+01 2.174816e+00 0.000000e+00
      vertex   4.281290e+01 2.526937e+00 0.000000e+00
    endloop
  endfacet
  facet normal 0.000000e+00 0.000000e+00 -1.000000e+00
    outer loop
      vertex   4.281290e+01 2.526937e+00 0.000000e+00
      vertex   4.210374e+01 2.174816e+00 0.000000e+00
      vertex   4.211539e+01 2.222456e+00 0.000000e+00
    endloop
  endfacet
  facet normal 0.000000e+00 0.000000e+00 -1.000000e+00
    outer loop
      vertex   4.281290e+01 2.526937e+00 0.000000e+00
      vertex   4.211539e+01 2.222456e+00 0.000000e+00
      vertex   4.213036e+01 2.268781e+00 0.000000e+00
    endloop
  endfacet
  facet normal 0.000000e+00 0.000000e+00 -1.000000e+00
    outer loop
      vertex   4.213036e+01 2.268781e+00 0.000000e+00
      vertex   4.214867e+01 2.313468e+00 0.000000e+00
      vertex   4.281290e+01 2.526937e+00 0.000000e+00
    endloop
  endfacet
  facet normal 0.000000e+00 0.000000e+00 -1.000000e+00
    outer loop
      vertex   4.281290e+01 2.526937e+00 0.000000e+00
      vertex   4.214867e+01 2.313468e+00 0.000000e+00
      vertex   4.217035e+01 2.356198e+00 0.000000e+00
    endloop
  endfacet
  facet normal 0.000000e+00 0.000000e+00 -1.000000e+00
    outer loop
      vertex   4.281290e+01 2.526937e+00 0.000000e+00
      vertex   4.217035e+01 2.356198e+00 0.000000e+00
      vertex   4.219541e+01 2.396649e+00 0.000000e+00
    endloop
  endfacet
  facet normal 0.000000e+00 0.000000e+00 -1.000000e+00
    outer loop
      vertex   4.219541e+01 2.396649e+00 0.000000e+00
      vertex   4.222387e+01 2.434499e+00 0.000000e+00
      vertex   4.281290e+01 2.526937e+00 0.000000e+00
    endloop
  endfacet
  facet normal 0.000000e+00 0.000000e+00 -1.000000e+00
    outer loop
      vertex   4.281290e+01 2.526937e+00 0.000000e+00
      vertex   4.222387e+01 2.434499e+00 0.000000e+00
      vertex   4.225575e+01 2.469428e+00 0.000000e+00
    endloop
  endfacet
endsolid
