solid ASCII
  facet normal 0.000000e+00 0.000000e+00 1.000000e+00
    outer loop
      vertex   7.136890e+01 1.495580e+01 4.000000e-01
      vertex   7.084671e+01 1.505791e+01 4.000000e-01
      vertex   7.140069e+01 1.491678e+01 4.000000e-01
    endloop
  endfacet
  facet normal 0.000000e+00 0.000000e+00 1.000000e+00
    outer loop
      vertex   7.140069e+01 1.491678e+01 4.000000e-01
      vertex   7.084671e+01 1.505791e+01 4.000000e-01
      vertex   7.142975e+01 1.487614e+01 4.000000e-01
    endloop
  endfacet
  facet normal 0.000000e+00 0.000000e+00 1.000000e+00
    outer loop
      vertex   7.142975e+01 1.487614e+01 4.000000e-01
      vertex   7.084671e+01 1.505791e+01 4.000000e-01
      vertex   7.145610e+01 1.483402e+01 4.000000e-01
    endloop
  endfacet
  facet normal 0.000000e+00 0.000000e+00 1.000000e+00
    outer loop
      vertex   7.145610e+01 1.483402e+01 4.000000e-01
      vertex   7.084671e+01 1.505791e+01 4.000000e-01
      vertex   7.147975e+01 1.479058e+01 4.000000e-01
    endloop
  endfacet
  facet normal 0.000000e+00 0.000000e+00 1.000000e+00
    outer loop
      vertex   7.147975e+01 1.479058e+01 4.000000e-01
      vertex   7.084671e+01 1.505791e+01 4.000000e-01
      vertex   7.150069e+01 1.474595e+01 4.000000e-01
    endloop
  endfacet
  facet normal 0.000000e+00 0.000000e+00 1.000000e+00
    outer loop
      vertex   7.150069e+01 1.474595e+01 4.000000e-01
      vertex   7.084671e+01 1.505791e+01 4.000000e-01
      vertex   7.151895e+01 1.470028e+01 4.000000e-01
    endloop
  endfacet
  facet normal 0.000000e+00 0.000000e+00 1.000000e+00
    outer loop
      vertex   7.151895e+01 1.470028e+01 4.000000e-01
      vertex   7.084671e+01 1.505791e+01 4.000000e-01
      vertex   7.153452e+01 1.465372e+01 4.000000e-01
    endloop
  endfacet
  facet normal 0.000000e+00 0.000000e+00 1.000000e+00
    outer loop
      vertex   7.153452e+01 1.465372e+01 4.000000e-01
      vertex   7.084671e+01 1.505791e+01 4.000000e-01
      vertex   7.154741e+01 1.460642e+01 4.000000e-01
    endloop
  endfacet
  facet normal 0.000000e+00 0.000000e+00 1.000000e+00
    outer loop
      vertex   7.154741e+01 1.460642e+01 4.000000e-01
      vertex   7.084671e+01 1.505791e+01 4.000000e-01
      vertex   7.155763e+01 1.455851e+01 4.000000e-01
    endloop
  endfacet
  facet normal 0.000000e+00 0.000000e+00 1.000000e+00
    outer loop
      vertex   7.155763e+01 1.455851e+01 4.000000e-01
      vertex   7.084671e+01 1.505791e+01 4.000000e-01
      vertex   7.156520e+01 1.451014e+01 4.000000e-01
    endloop
  endfacet
  facet normal 0.000000e+00 0.000000e+00 1.000000e+00
    outer loop
      vertex   7.156520e+01 1.451014e+01 4.000000e-01
      vertex   7.084671e+01 1.505791e+01 4.000000e-01
      vertex   7.157010e+01 1.446146e+01 4.000000e-01
    endloop
  endfacet
  facet normal 0.000000e+00 0.000000e+00 1.000000e+00
    outer loop
      vertex   7.157010e+01 1.446146e+01 4.000000e-01
      vertex   7.084671e+01 1.505791e+01 4.000000e-01
      vertex   7.079397e+01 1.504065e+01 4.000000e-01
    endloop
  endfacet
  facet normal 0.000000e+00 0.000000e+00 1.000000e+00
    outer loop
      vertex   7.157010e+01 1.446146e+01 4.000000e-01
      vertex   7.079397e+01 1.504065e+01 4.000000e-01
      vertex   7.157236e+01 1.441262e+01 4.000000e-01
    endloop
  endfacet
  facet normal 0.000000e+00 0.000000e+00 1.000000e+00
    outer loop
      vertex   7.157236e+01 1.441262e+01 4.000000e-01
      vertex   7.079397e+01 1.504065e+01 4.000000e-01
      vertex   7.074342e+01 1.501936e+01 4.000000e-01
    endloop
  endfacet
  facet normal 0.000000e+00 0.000000e+00 1.000000e+00
    outer loop
      vertex   7.157236e+01 1.441262e+01 4.000000e-01
      vertex   7.074342e+01 1.501936e+01 4.000000e-01
      vertex   7.157198e+01 1.436376e+01 4.000000e-01
    endloop
  endfacet
  facet normal 0.000000e+00 0.000000e+00 1.000000e+00
    outer loop
      vertex   7.157198e+01 1.436376e+01 4.000000e-01
      vertex   7.074342e+01 1.501936e+01 4.000000e-01
      vertex   7.069516e+01 1.499427e+01 4.000000e-01
    endloop
  endfacet
  facet normal 0.000000e+00 0.000000e+00 1.000000e+00
    outer loop
      vertex   7.157198e+01 1.436376e+01 4.000000e-01
      vertex   7.069516e+01 1.499427e+01 4.000000e-01
      vertex   7.156897e+01 1.431502e+01 4.000000e-01
    endloop
  endfacet
  facet normal 0.000000e+00 0.000000e+00 1.000000e+00
    outer loop
      vertex   7.156897e+01 1.431502e+01 4.000000e-01
      vertex   7.069516e+01 1.499427e+01 4.000000e-01
      vertex   7.156333e+01 1.426655e+01 4.000000e-01
    endloop
  endfacet
  facet normal 0.000000e+00 0.000000e+00 1.000000e+00
    outer loop
      vertex   7.156333e+01 1.426655e+01 4.000000e-01
      vertex   7.069516e+01 1.499427e+01 4.000000e-01
      vertex   7.064924e+01 1.496561e+01 4.000000e-01
    endloop
  endfacet
  facet normal 0.000000e+00 0.000000e+00 1.000000e+00
    outer loop
      vertex   7.156333e+01 1.426655e+01 4.000000e-01
      vertex   7.064924e+01 1.496561e+01 4.000000e-01
      vertex   7.155507e+01 1.421849e+01 4.000000e-01
    endloop
  endfacet
  facet normal 0.000000e+00 0.000000e+00 1.000000e+00
    outer loop
      vertex   7.155507e+01 1.421849e+01 4.000000e-01
      vertex   7.064924e+01 1.496561e+01 4.000000e-01
      vertex   7.060573e+01 1.493361e+01 4.000000e-01
    endloop
  endfacet
  facet normal 0.000000e+00 0.000000e+00 1.000000e+00
    outer loop
      vertex   7.155507e+01 1.421849e+01 4.000000e-01
      vertex   7.060573e+01 1.493361e+01 4.000000e-01
      vertex   7.154420e+01 1.417100e+01 4.000000e-01
    endloop
  endfacet
  facet normal 0.000000e+00 0.000000e+00 1.000000e+00
    outer loop
      vertex   7.154420e+01 1.417100e+01 4.000000e-01
      vertex   7.060573e+01 1.493361e+01 4.000000e-01
      vertex   7.153073e+01 1.412422e+01 4.000000e-01
    endloop
  endfacet
  facet normal 0.000000e+00 0.000000e+00 1.000000e+00
    outer loop
      vertex   7.153073e+01 1.412422e+01 4.000000e-01
      vertex   7.060573e+01 1.493361e+01 4.000000e-01
      vertex   7.056471e+01 1.489850e+01 4.000000e-01
    endloop
  endfacet
  facet normal 0.000000e+00 0.000000e+00 1.000000e+00
    outer loop
      vertex   7.153073e+01 1.412422e+01 4.000000e-01
      vertex   7.056471e+01 1.489850e+01 4.000000e-01
      vertex   7.151466e+01 1.407828e+01 4.000000e-01
    endloop
  endfacet
  facet normal 0.000000e+00 0.000000e+00 1.000000e+00
    outer loop
      vertex   7.151466e+01 1.407828e+01 4.000000e-01
      vertex   7.056471e+01 1.489850e+01 4.000000e-01
      vertex   7.052625e+01 1.486051e+01 4.000000e-01
    endloop
  endfacet
  facet normal 0.000000e+00 0.000000e+00 1.000000e+00
    outer loop
      vertex   7.151466e+01 1.407828e+01 4.000000e-01
      vertex   7.052625e+01 1.486051e+01 4.000000e-01
      vertex   7.049042e+01 1.481988e+01 4.000000e-01
    endloop
  endfacet
  facet normal 0.000000e+00 0.000000e+00 1.000000e+00
    outer loop
      vertex   7.049042e+01 1.481988e+01 4.000000e-01
      vertex   7.045728e+01 1.477684e+01 4.000000e-01
      vertex   7.151466e+01 1.407828e+01 4.000000e-01
    endloop
  endfacet
  facet normal 0.000000e+00 0.000000e+00 1.000000e+00
    outer loop
      vertex   7.151466e+01 1.407828e+01 4.000000e-01
      vertex   7.045728e+01 1.477684e+01 4.000000e-01
      vertex   7.042692e+01 1.473161e+01 4.000000e-01
    endloop
  endfacet
  facet normal 0.000000e+00 0.000000e+00 1.000000e+00
    outer loop
      vertex   7.151466e+01 1.407828e+01 4.000000e-01
      vertex   7.042692e+01 1.473161e+01 4.000000e-01
      vertex   7.039939e+01 1.468442e+01 4.000000e-01
    endloop
  endfacet
  facet normal 0.000000e+00 0.000000e+00 1.000000e+00
    outer loop
      vertex   7.039939e+01 1.468442e+01 4.000000e-01
      vertex   7.037478e+01 1.463552e+01 4.000000e-01
      vertex   7.151466e+01 1.407828e+01 4.000000e-01
    endloop
  endfacet
  facet normal 0.000000e+00 0.000000e+00 1.000000e+00
    outer loop
      vertex   7.151466e+01 1.407828e+01 4.000000e-01
      vertex   7.037478e+01 1.463552e+01 4.000000e-01
      vertex   7.035315e+01 1.458513e+01 4.000000e-01
    endloop
  endfacet
  facet normal 0.000000e+00 0.000000e+00 1.000000e+00
    outer loop
      vertex   7.151466e+01 1.407828e+01 4.000000e-01
      vertex   7.035315e+01 1.458513e+01 4.000000e-01
      vertex   7.033456e+01 1.453347e+01 4.000000e-01
    endloop
  endfacet
  facet normal 0.000000e+00 0.000000e+00 1.000000e+00
    outer loop
      vertex   7.033456e+01 1.453347e+01 4.000000e-01
      vertex   7.031911e+01 1.448079e+01 4.000000e-01
      vertex   7.151466e+01 1.407828e+01 4.000000e-01
    endloop
  endfacet
  facet normal 0.000000e+00 0.000000e+00 1.000000e+00
    outer loop
      vertex   7.151466e+01 1.407828e+01 4.000000e-01
      vertex   7.031911e+01 1.448079e+01 4.000000e-01
      vertex   7.030684e+01 1.442731e+01 4.000000e-01
    endloop
  endfacet
  facet normal 0.000000e+00 0.000000e+00 1.000000e+00
    outer loop
      vertex   7.151466e+01 1.407828e+01 4.000000e-01
      vertex   7.030684e+01 1.442731e+01 4.000000e-01
      vertex   7.029784e+01 1.437327e+01 4.000000e-01
    endloop
  endfacet
  facet normal 0.000000e+00 0.000000e+00 1.000000e+00
    outer loop
      vertex   7.029784e+01 1.437327e+01 4.000000e-01
      vertex   7.029217e+01 1.431889e+01 4.000000e-01
      vertex   7.151466e+01 1.407828e+01 4.000000e-01
    endloop
  endfacet
  facet normal 0.000000e+00 0.000000e+00 1.000000e+00
    outer loop
      vertex   7.151466e+01 1.407828e+01 4.000000e-01
      vertex   7.029217e+01 1.431889e+01 4.000000e-01
      vertex   7.028991e+01 1.426440e+01 4.000000e-01
    endloop
  endfacet
  facet normal 0.000000e+00 0.000000e+00 1.000000e+00
    outer loop
      vertex   7.151466e+01 1.407828e+01 4.000000e-01
      vertex   7.028991e+01 1.426440e+01 4.000000e-01
      vertex   7.029113e+01 1.421004e+01 4.000000e-01
    endloop
  endfacet
  facet normal 0.000000e+00 0.000000e+00 1.000000e+00
    outer loop
      vertex   7.029113e+01 1.421004e+01 4.000000e-01
      vertex   7.029589e+01 1.415604e+01 4.000000e-01
      vertex   7.151466e+01 1.407828e+01 4.000000e-01
    endloop
  endfacet
  facet normal 0.000000e+00 0.000000e+00 1.000000e+00
    outer loop
      vertex   7.151466e+01 1.407828e+01 4.000000e-01
      vertex   7.029589e+01 1.415604e+01 4.000000e-01
      vertex   7.149600e+01 1.403335e+01 4.000000e-01
    endloop
  endfacet
  facet normal 0.000000e+00 0.000000e+00 1.000000e+00
    outer loop
      vertex   7.149600e+01 1.403335e+01 4.000000e-01
      vertex   7.029589e+01 1.415604e+01 4.000000e-01
      vertex   7.030427e+01 1.410263e+01 4.000000e-01
    endloop
  endfacet
  facet normal 0.000000e+00 0.000000e+00 1.000000e+00
    outer loop
      vertex   7.149600e+01 1.403335e+01 4.000000e-01
      vertex   7.030427e+01 1.410263e+01 4.000000e-01
      vertex   7.031633e+01 1.405004e+01 4.000000e-01
    endloop
  endfacet
  facet normal 0.000000e+00 0.000000e+00 1.000000e+00
    outer loop
      vertex   7.031633e+01 1.405004e+01 4.000000e-01
      vertex   7.033216e+01 1.399850e+01 4.000000e-01
      vertex   7.149600e+01 1.403335e+01 4.000000e-01
    endloop
  endfacet
  facet normal 0.000000e+00 0.000000e+00 1.000000e+00
    outer loop
      vertex   7.149600e+01 1.403335e+01 4.000000e-01
      vertex   7.033216e+01 1.399850e+01 4.000000e-01
      vertex   7.147477e+01 1.398955e+01 4.000000e-01
    endloop
  endfacet
  facet normal 0.000000e+00 0.000000e+00 1.000000e+00
    outer loop
      vertex   7.147477e+01 1.398955e+01 4.000000e-01
      vertex   7.033216e+01 1.399850e+01 4.000000e-01
      vertex   7.035181e+01 1.394825e+01 4.000000e-01
    endloop
  endfacet
  facet normal 0.000000e+00 0.000000e+00 1.000000e+00
    outer loop
      vertex   7.147477e+01 1.398955e+01 4.000000e-01
      vertex   7.035181e+01 1.394825e+01 4.000000e-01
      vertex   7.145095e+01 1.394705e+01 4.000000e-01
    endloop
  endfacet
  facet normal 0.000000e+00 0.000000e+00 1.000000e+00
    outer loop
      vertex   7.145095e+01 1.394705e+01 4.000000e-01
      vertex   7.035181e+01 1.394825e+01 4.000000e-01
      vertex   7.037537e+01 1.389950e+01 4.000000e-01
    endloop
  endfacet
  facet normal 0.000000e+00 0.000000e+00 1.000000e+00
    outer loop
      vertex   7.145095e+01 1.394705e+01 4.000000e-01
      vertex   7.037537e+01 1.389950e+01 4.000000e-01
      vertex   7.142458e+01 1.390598e+01 4.000000e-01
    endloop
  endfacet
  facet normal 0.000000e+00 0.000000e+00 1.000000e+00
    outer loop
      vertex   7.142458e+01 1.390598e+01 4.000000e-01
      vertex   7.037537e+01 1.389950e+01 4.000000e-01
      vertex   7.139564e+01 1.386649e+01 4.000000e-01
    endloop
  endfacet
  facet normal 0.000000e+00 0.000000e+00 1.000000e+00
    outer loop
      vertex   7.139564e+01 1.386649e+01 4.000000e-01
      vertex   7.037537e+01 1.389950e+01 4.000000e-01
      vertex   7.040289e+01 1.385250e+01 4.000000e-01
    endloop
  endfacet
  facet normal 0.000000e+00 0.000000e+00 1.000000e+00
    outer loop
      vertex   7.139564e+01 1.386649e+01 4.000000e-01
      vertex   7.040289e+01 1.385250e+01 4.000000e-01
      vertex   7.136415e+01 1.382872e+01 4.000000e-01
    endloop
  endfacet
  facet normal 0.000000e+00 0.000000e+00 1.000000e+00
    outer loop
      vertex   7.136415e+01 1.382872e+01 4.000000e-01
      vertex   7.040289e+01 1.385250e+01 4.000000e-01
      vertex   7.043446e+01 1.380748e+01 4.000000e-01
    endloop
  endfacet
  facet normal 0.000000e+00 0.000000e+00 1.000000e+00
    outer loop
      vertex   7.136415e+01 1.382872e+01 4.000000e-01
      vertex   7.043446e+01 1.380748e+01 4.000000e-01
      vertex   7.133011e+01 1.379282e+01 4.000000e-01
    endloop
  endfacet
  facet normal 0.000000e+00 0.000000e+00 1.000000e+00
    outer loop
      vertex   7.133011e+01 1.379282e+01 4.000000e-01
      vertex   7.043446e+01 1.380748e+01 4.000000e-01
      vertex   7.047013e+01 1.376466e+01 4.000000e-01
    endloop
  endfacet
  facet normal 0.000000e+00 0.000000e+00 1.000000e+00
    outer loop
      vertex   7.133011e+01 1.379282e+01 4.000000e-01
      vertex   7.047013e+01 1.376466e+01 4.000000e-01
      vertex   7.129354e+01 1.375894e+01 4.000000e-01
    endloop
  endfacet
  facet normal 0.000000e+00 0.000000e+00 1.000000e+00
    outer loop
      vertex   7.129354e+01 1.375894e+01 4.000000e-01
      vertex   7.047013e+01 1.376466e+01 4.000000e-01
      vertex   7.069310e+01 1.365645e+01 4.000000e-01
    endloop
  endfacet
  facet normal 0.000000e+00 0.000000e+00 1.000000e+00
    outer loop
      vertex   7.129354e+01 1.375894e+01 4.000000e-01
      vertex   7.069310e+01 1.365645e+01 4.000000e-01
      vertex   7.125444e+01 1.372721e+01 4.000000e-01
    endloop
  endfacet
  facet normal 0.000000e+00 0.000000e+00 1.000000e+00
    outer loop
      vertex   7.125444e+01 1.372721e+01 4.000000e-01
      vertex   7.069310e+01 1.365645e+01 4.000000e-01
      vertex   7.121282e+01 1.369780e+01 4.000000e-01
    endloop
  endfacet
  facet normal 0.000000e+00 0.000000e+00 1.000000e+00
    outer loop
      vertex   7.121282e+01 1.369780e+01 4.000000e-01
      vertex   7.069310e+01 1.365645e+01 4.000000e-01
      vertex   7.116548e+01 1.366244e+01 4.000000e-01
    endloop
  endfacet
  facet normal 0.000000e+00 0.000000e+00 1.000000e+00
    outer loop
      vertex   7.116548e+01 1.366244e+01 4.000000e-01
      vertex   7.069310e+01 1.365645e+01 4.000000e-01
      vertex   7.111631e+01 1.363583e+01 4.000000e-01
    endloop
  endfacet
  facet normal 0.000000e+00 0.000000e+00 1.000000e+00
    outer loop
      vertex   7.111631e+01 1.363583e+01 4.000000e-01
      vertex   7.069310e+01 1.365645e+01 4.000000e-01
      vertex   7.088040e+01 1.360614e+01 4.000000e-01
    endloop
  endfacet
  facet normal 0.000000e+00 0.000000e+00 1.000000e+00
    outer loop
      vertex   7.111631e+01 1.363583e+01 4.000000e-01
      vertex   7.088040e+01 1.360614e+01 4.000000e-01
      vertex   7.106560e+01 1.361729e+01 4.000000e-01
    endloop
  endfacet
  facet normal 0.000000e+00 0.000000e+00 1.000000e+00
    outer loop
      vertex   7.106560e+01 1.361729e+01 4.000000e-01
      vertex   7.088040e+01 1.360614e+01 4.000000e-01
      vertex   7.098732e+01 1.360312e+01 4.000000e-01
    endloop
  endfacet
  facet normal -2.823587e-02 -9.996013e-01 -0.000000e+00
    outer loop
      vertex   7.098732e+01 1.360312e+01 4.000000e-01
      vertex   7.088040e+01 1.360614e+01 4.000000e-01
      vertex   7.098732e+01 1.360312e+01 0.000000e+00
    endloop
  endfacet
  facet normal -2.823587e-02 -9.996013e-01 0.000000e+00
    outer loop
      vertex   7.098732e+01 1.360312e+01 0.000000e+00
      vertex   7.088040e+01 1.360614e+01 4.000000e-01
      vertex   7.088040e+01 1.360614e+01 0.000000e+00
    endloop
  endfacet
  facet normal -2.594263e-01 -9.657629e-01 -0.000000e+00
    outer loop
      vertex   7.088040e+01 1.360614e+01 4.000000e-01
      vertex   7.069310e+01 1.365645e+01 4.000000e-01
      vertex   7.088040e+01 1.360614e+01 0.000000e+00
    endloop
  endfacet
  facet normal -2.594263e-01 -9.657629e-01 0.000000e+00
    outer loop
      vertex   7.088040e+01 1.360614e+01 0.000000e+00
      vertex   7.069310e+01 1.365645e+01 4.000000e-01
      vertex   7.069310e+01 1.365645e+01 0.000000e+00
    endloop
  endfacet
  facet normal -4.365961e-01 -8.996576e-01 -0.000000e+00
    outer loop
      vertex   7.069310e+01 1.365645e+01 4.000000e-01
      vertex   7.047013e+01 1.376466e+01 4.000000e-01
      vertex   7.069310e+01 1.365645e+01 0.000000e+00
    endloop
  endfacet
  facet normal -4.365961e-01 -8.996576e-01 0.000000e+00
    outer loop
      vertex   7.069310e+01 1.365645e+01 0.000000e+00
      vertex   7.047013e+01 1.376466e+01 4.000000e-01
      vertex   7.047013e+01 1.376466e+01 0.000000e+00
    endloop
  endfacet
  facet normal -7.682639e-01 -6.401333e-01 -0.000000e+00
    outer loop
      vertex   7.047013e+01 1.376466e+01 4.000000e-01
      vertex   7.043446e+01 1.380748e+01 4.000000e-01
      vertex   7.047013e+01 1.376466e+01 0.000000e+00
    endloop
  endfacet
  facet normal -7.682639e-01 -6.401333e-01 0.000000e+00
    outer loop
      vertex   7.047013e+01 1.376466e+01 0.000000e+00
      vertex   7.043446e+01 1.380748e+01 4.000000e-01
      vertex   7.043446e+01 1.380748e+01 0.000000e+00
    endloop
  endfacet
  facet normal -8.188213e-01 -5.740485e-01 -0.000000e+00
    outer loop
      vertex   7.043446e+01 1.380748e+01 4.000000e-01
      vertex   7.040289e+01 1.385250e+01 4.000000e-01
      vertex   7.043446e+01 1.380748e+01 0.000000e+00
    endloop
  endfacet
  facet normal -8.188213e-01 -5.740485e-01 0.000000e+00
    outer loop
      vertex   7.043446e+01 1.380748e+01 0.000000e+00
      vertex   7.040289e+01 1.385250e+01 4.000000e-01
      vertex   7.040289e+01 1.385250e+01 0.000000e+00
    endloop
  endfacet
  facet normal -8.629184e-01 -5.053433e-01 -0.000000e+00
    outer loop
      vertex   7.040289e+01 1.385250e+01 4.000000e-01
      vertex   7.037537e+01 1.389950e+01 4.000000e-01
      vertex   7.040289e+01 1.385250e+01 0.000000e+00
    endloop
  endfacet
  facet normal -8.629184e-01 -5.053433e-01 0.000000e+00
    outer loop
      vertex   7.040289e+01 1.385250e+01 0.000000e+00
      vertex   7.037537e+01 1.389950e+01 4.000000e-01
      vertex   7.037537e+01 1.389950e+01 0.000000e+00
    endloop
  endfacet
  facet normal -9.003923e-01 -4.350790e-01 -0.000000e+00
    outer loop
      vertex   7.037537e+01 1.389950e+01 4.000000e-01
      vertex   7.035181e+01 1.394825e+01 4.000000e-01
      vertex   7.037537e+01 1.389950e+01 0.000000e+00
    endloop
  endfacet
  facet normal -9.003923e-01 -4.350790e-01 0.000000e+00
    outer loop
      vertex   7.037537e+01 1.389950e+01 0.000000e+00
      vertex   7.035181e+01 1.394825e+01 4.000000e-01
      vertex   7.035181e+01 1.394825e+01 0.000000e+00
    endloop
  endfacet
  facet normal -9.313184e-01 -3.642060e-01 -0.000000e+00
    outer loop
      vertex   7.035181e+01 1.394825e+01 4.000000e-01
      vertex   7.033216e+01 1.399850e+01 4.000000e-01
      vertex   7.035181e+01 1.394825e+01 0.000000e+00
    endloop
  endfacet
  facet normal -9.313184e-01 -3.642060e-01 0.000000e+00
    outer loop
      vertex   7.035181e+01 1.394825e+01 0.000000e+00
      vertex   7.033216e+01 1.399850e+01 4.000000e-01
      vertex   7.033216e+01 1.399850e+01 0.000000e+00
    endloop
  endfacet
  facet normal -9.559537e-01 -2.935173e-01 -0.000000e+00
    outer loop
      vertex   7.033216e+01 1.399850e+01 4.000000e-01
      vertex   7.031633e+01 1.405004e+01 4.000000e-01
      vertex   7.033216e+01 1.399850e+01 0.000000e+00
    endloop
  endfacet
  facet normal -9.559537e-01 -2.935173e-01 0.000000e+00
    outer loop
      vertex   7.033216e+01 1.399850e+01 0.000000e+00
      vertex   7.031633e+01 1.405004e+01 4.000000e-01
      vertex   7.031633e+01 1.405004e+01 0.000000e+00
    endloop
  endfacet
  facet normal -9.746747e-01 -2.236274e-01 -0.000000e+00
    outer loop
      vertex   7.031633e+01 1.405004e+01 4.000000e-01
      vertex   7.030427e+01 1.410263e+01 4.000000e-01
      vertex   7.031633e+01 1.405004e+01 0.000000e+00
    endloop
  endfacet
  facet normal -9.746747e-01 -2.236274e-01 0.000000e+00
    outer loop
      vertex   7.031633e+01 1.405004e+01 0.000000e+00
      vertex   7.030427e+01 1.410263e+01 4.000000e-01
      vertex   7.030427e+01 1.410263e+01 0.000000e+00
    endloop
  endfacet
  facet normal -9.879186e-01 -1.549735e-01 -0.000000e+00
    outer loop
      vertex   7.030427e+01 1.410263e+01 4.000000e-01
      vertex   7.029589e+01 1.415604e+01 4.000000e-01
      vertex   7.030427e+01 1.410263e+01 0.000000e+00
    endloop
  endfacet
  facet normal -9.879186e-01 -1.549735e-01 0.000000e+00
    outer loop
      vertex   7.030427e+01 1.410263e+01 0.000000e+00
      vertex   7.029589e+01 1.415604e+01 4.000000e-01
      vertex   7.029589e+01 1.415604e+01 0.000000e+00
    endloop
  endfacet
  facet normal -9.961353e-01 -8.783178e-02 -0.000000e+00
    outer loop
      vertex   7.029589e+01 1.415604e+01 4.000000e-01
      vertex   7.029113e+01 1.421004e+01 4.000000e-01
      vertex   7.029589e+01 1.415604e+01 0.000000e+00
    endloop
  endfacet
  facet normal -9.961353e-01 -8.783178e-02 0.000000e+00
    outer loop
      vertex   7.029589e+01 1.415604e+01 0.000000e+00
      vertex   7.029113e+01 1.421004e+01 4.000000e-01
      vertex   7.029113e+01 1.421004e+01 0.000000e+00
    endloop
  endfacet
  facet normal -9.997504e-01 -2.234206e-02 -0.000000e+00
    outer loop
      vertex   7.029113e+01 1.421004e+01 4.000000e-01
      vertex   7.028991e+01 1.426440e+01 4.000000e-01
      vertex   7.029113e+01 1.421004e+01 0.000000e+00
    endloop
  endfacet
  facet normal -9.997504e-01 -2.234206e-02 0.000000e+00
    outer loop
      vertex   7.029113e+01 1.421004e+01 0.000000e+00
      vertex   7.028991e+01 1.426440e+01 4.000000e-01
      vertex   7.028991e+01 1.426440e+01 0.000000e+00
    endloop
  endfacet
  facet normal -9.991400e-01 4.146436e-02 0.000000e+00
    outer loop
      vertex   7.028991e+01 1.426440e+01 4.000000e-01
      vertex   7.029217e+01 1.431889e+01 4.000000e-01
      vertex   7.028991e+01 1.426440e+01 0.000000e+00
    endloop
  endfacet
  facet normal -9.991400e-01 4.146436e-02 0.000000e+00
    outer loop
      vertex   7.028991e+01 1.426440e+01 0.000000e+00
      vertex   7.029217e+01 1.431889e+01 4.000000e-01
      vertex   7.029217e+01 1.431889e+01 0.000000e+00
    endloop
  endfacet
  facet normal -9.946152e-01 1.036371e-01 0.000000e+00
    outer loop
      vertex   7.029217e+01 1.431889e+01 4.000000e-01
      vertex   7.029784e+01 1.437327e+01 4.000000e-01
      vertex   7.029217e+01 1.431889e+01 0.000000e+00
    endloop
  endfacet
  facet normal -9.946152e-01 1.036371e-01 0.000000e+00
    outer loop
      vertex   7.029217e+01 1.431889e+01 0.000000e+00
      vertex   7.029784e+01 1.437327e+01 4.000000e-01
      vertex   7.029784e+01 1.437327e+01 0.000000e+00
    endloop
  endfacet
  facet normal -9.864135e-01 1.642816e-01 0.000000e+00
    outer loop
      vertex   7.029784e+01 1.437327e+01 4.000000e-01
      vertex   7.030684e+01 1.442731e+01 4.000000e-01
      vertex   7.029784e+01 1.437327e+01 0.000000e+00
    endloop
  endfacet
  facet normal -9.864135e-01 1.642816e-01 0.000000e+00
    outer loop
      vertex   7.029784e+01 1.437327e+01 0.000000e+00
      vertex   7.030684e+01 1.442731e+01 4.000000e-01
      vertex   7.030684e+01 1.442731e+01 0.000000e+00
    endloop
  endfacet
  facet normal -9.746955e-01 2.235367e-01 0.000000e+00
    outer loop
      vertex   7.030684e+01 1.442731e+01 4.000000e-01
      vertex   7.031911e+01 1.448079e+01 4.000000e-01
      vertex   7.030684e+01 1.442731e+01 0.000000e+00
    endloop
  endfacet
  facet normal -9.746955e-01 2.235367e-01 0.000000e+00
    outer loop
      vertex   7.030684e+01 1.442731e+01 0.000000e+00
      vertex   7.031911e+01 1.448079e+01 4.000000e-01
      vertex   7.031911e+01 1.448079e+01 0.000000e+00
    endloop
  endfacet
  facet normal -9.595450e-01 2.815553e-01 0.000000e+00
    outer loop
      vertex   7.031911e+01 1.448079e+01 4.000000e-01
      vertex   7.033456e+01 1.453347e+01 4.000000e-01
      vertex   7.031911e+01 1.448079e+01 0.000000e+00
    endloop
  endfacet
  facet normal -9.595450e-01 2.815553e-01 0.000000e+00
    outer loop
      vertex   7.031911e+01 1.448079e+01 0.000000e+00
      vertex   7.033456e+01 1.453347e+01 4.000000e-01
      vertex   7.033456e+01 1.453347e+01 0.000000e+00
    endloop
  endfacet
  facet normal -9.409708e-01 3.384877e-01 0.000000e+00
    outer loop
      vertex   7.033456e+01 1.453347e+01 4.000000e-01
      vertex   7.035315e+01 1.458513e+01 4.000000e-01
      vertex   7.033456e+01 1.453347e+01 0.000000e+00
    endloop
  endfacet
  facet normal -9.409708e-01 3.384877e-01 0.000000e+00
    outer loop
      vertex   7.033456e+01 1.453347e+01 0.000000e+00
      vertex   7.035315e+01 1.458513e+01 4.000000e-01
      vertex   7.035315e+01 1.458513e+01 0.000000e+00
    endloop
  endfacet
  facet normal -9.189109e-01 3.944652e-01 0.000000e+00
    outer loop
      vertex   7.035315e+01 1.458513e+01 4.000000e-01
      vertex   7.037478e+01 1.463552e+01 4.000000e-01
      vertex   7.035315e+01 1.458513e+01 0.000000e+00
    endloop
  endfacet
  facet normal -9.189109e-01 3.944652e-01 0.000000e+00
    outer loop
      vertex   7.035315e+01 1.458513e+01 0.000000e+00
      vertex   7.037478e+01 1.463552e+01 4.000000e-01
      vertex   7.037478e+01 1.463552e+01 0.000000e+00
    endloop
  endfacet
  facet normal -8.932369e-01 4.495862e-01 0.000000e+00
    outer loop
      vertex   7.037478e+01 1.463552e+01 4.000000e-01
      vertex   7.039939e+01 1.468442e+01 4.000000e-01
      vertex   7.037478e+01 1.463552e+01 0.000000e+00
    endloop
  endfacet
  facet normal -8.932369e-01 4.495862e-01 0.000000e+00
    outer loop
      vertex   7.037478e+01 1.463552e+01 0.000000e+00
      vertex   7.039939e+01 1.468442e+01 4.000000e-01
      vertex   7.039939e+01 1.468442e+01 0.000000e+00
    endloop
  endfacet
  facet normal -8.637618e-01 5.039003e-01 0.000000e+00
    outer loop
      vertex   7.039939e+01 1.468442e+01 4.000000e-01
      vertex   7.042692e+01 1.473161e+01 4.000000e-01
      vertex   7.039939e+01 1.468442e+01 0.000000e+00
    endloop
  endfacet
  facet normal -8.637618e-01 5.039003e-01 0.000000e+00
    outer loop
      vertex   7.039939e+01 1.468442e+01 0.000000e+00
      vertex   7.042692e+01 1.473161e+01 4.000000e-01
      vertex   7.042692e+01 1.473161e+01 0.000000e+00
    endloop
  endfacet
  facet normal -8.302488e-01 5.573930e-01 0.000000e+00
    outer loop
      vertex   7.042692e+01 1.473161e+01 4.000000e-01
      vertex   7.045728e+01 1.477684e+01 4.000000e-01
      vertex   7.042692e+01 1.473161e+01 0.000000e+00
    endloop
  endfacet
  facet normal -8.302488e-01 5.573930e-01 0.000000e+00
    outer loop
      vertex   7.042692e+01 1.473161e+01 0.000000e+00
      vertex   7.045728e+01 1.477684e+01 4.000000e-01
      vertex   7.045728e+01 1.477684e+01 0.000000e+00
    endloop
  endfacet
  facet normal -7.924248e-01 6.099696e-01 0.000000e+00
    outer loop
      vertex   7.045728e+01 1.477684e+01 4.000000e-01
      vertex   7.049042e+01 1.481988e+01 4.000000e-01
      vertex   7.045728e+01 1.477684e+01 0.000000e+00
    endloop
  endfacet
  facet normal -7.924248e-01 6.099696e-01 0.000000e+00
    outer loop
      vertex   7.045728e+01 1.477684e+01 0.000000e+00
      vertex   7.049042e+01 1.481988e+01 4.000000e-01
      vertex   7.049042e+01 1.481988e+01 0.000000e+00
    endloop
  endfacet
  facet normal -7.499991e-01 6.614388e-01 0.000000e+00
    outer loop
      vertex   7.049042e+01 1.481988e+01 4.000000e-01
      vertex   7.052625e+01 1.486051e+01 4.000000e-01
      vertex   7.049042e+01 1.481988e+01 0.000000e+00
    endloop
  endfacet
  facet normal -7.499991e-01 6.614388e-01 0.000000e+00
    outer loop
      vertex   7.049042e+01 1.481988e+01 0.000000e+00
      vertex   7.052625e+01 1.486051e+01 4.000000e-01
      vertex   7.052625e+01 1.486051e+01 0.000000e+00
    endloop
  endfacet
  facet normal -7.026885e-01 7.114976e-01 0.000000e+00
    outer loop
      vertex   7.052625e+01 1.486051e+01 4.000000e-01
      vertex   7.056471e+01 1.489850e+01 4.000000e-01
      vertex   7.052625e+01 1.486051e+01 0.000000e+00
    endloop
  endfacet
  facet normal -7.026885e-01 7.114976e-01 0.000000e+00
    outer loop
      vertex   7.052625e+01 1.486051e+01 0.000000e+00
      vertex   7.056471e+01 1.489850e+01 4.000000e-01
      vertex   7.056471e+01 1.489850e+01 0.000000e+00
    endloop
  endfacet
  facet normal -6.502500e-01 7.597203e-01 0.000000e+00
    outer loop
      vertex   7.056471e+01 1.489850e+01 4.000000e-01
      vertex   7.060573e+01 1.493361e+01 4.000000e-01
      vertex   7.056471e+01 1.489850e+01 0.000000e+00
    endloop
  endfacet
  facet normal -6.502500e-01 7.597203e-01 0.000000e+00
    outer loop
      vertex   7.056471e+01 1.489850e+01 0.000000e+00
      vertex   7.060573e+01 1.493361e+01 4.000000e-01
      vertex   7.060573e+01 1.493361e+01 0.000000e+00
    endloop
  endfacet
  facet normal -5.925219e-01 8.055544e-01 0.000000e+00
    outer loop
      vertex   7.060573e+01 1.493361e+01 4.000000e-01
      vertex   7.064924e+01 1.496561e+01 4.000000e-01
      vertex   7.060573e+01 1.493361e+01 0.000000e+00
    endloop
  endfacet
  facet normal -5.925219e-01 8.055544e-01 0.000000e+00
    outer loop
      vertex   7.060573e+01 1.493361e+01 0.000000e+00
      vertex   7.064924e+01 1.496561e+01 4.000000e-01
      vertex   7.064924e+01 1.496561e+01 0.000000e+00
    endloop
  endfacet
  facet normal -5.294710e-01 8.483280e-01 0.000000e+00
    outer loop
      vertex   7.064924e+01 1.496561e+01 4.000000e-01
      vertex   7.069516e+01 1.499427e+01 4.000000e-01
      vertex   7.064924e+01 1.496561e+01 0.000000e+00
    endloop
  endfacet
  facet normal -5.294710e-01 8.483280e-01 0.000000e+00
    outer loop
      vertex   7.064924e+01 1.496561e+01 0.000000e+00
      vertex   7.069516e+01 1.499427e+01 4.000000e-01
      vertex   7.069516e+01 1.499427e+01 0.000000e+00
    endloop
  endfacet
  facet normal -4.612421e-01 8.872743e-01 0.000000e+00
    outer loop
      vertex   7.069516e+01 1.499427e+01 4.000000e-01
      vertex   7.074342e+01 1.501936e+01 4.000000e-01
      vertex   7.069516e+01 1.499427e+01 0.000000e+00
    endloop
  endfacet
  facet normal -4.612421e-01 8.872743e-01 0.000000e+00
    outer loop
      vertex   7.069516e+01 1.499427e+01 0.000000e+00
      vertex   7.074342e+01 1.501936e+01 4.000000e-01
      vertex   7.074342e+01 1.501936e+01 0.000000e+00
    endloop
  endfacet
  facet normal -3.882018e-01 9.215744e-01 0.000000e+00
    outer loop
      vertex   7.074342e+01 1.501936e+01 4.000000e-01
      vertex   7.079397e+01 1.504065e+01 4.000000e-01
      vertex   7.074342e+01 1.501936e+01 0.000000e+00
    endloop
  endfacet
  facet normal -3.882018e-01 9.215744e-01 0.000000e+00
    outer loop
      vertex   7.074342e+01 1.501936e+01 0.000000e+00
      vertex   7.079397e+01 1.504065e+01 4.000000e-01
      vertex   7.079397e+01 1.504065e+01 0.000000e+00
    endloop
  endfacet
  facet normal -3.109684e-01 9.504203e-01 0.000000e+00
    outer loop
      vertex   7.079397e+01 1.504065e+01 4.000000e-01
      vertex   7.084671e+01 1.505791e+01 4.000000e-01
      vertex   7.079397e+01 1.504065e+01 0.000000e+00
    endloop
  endfacet
  facet normal -3.109684e-01 9.504203e-01 0.000000e+00
    outer loop
      vertex   7.079397e+01 1.504065e+01 0.000000e+00
      vertex   7.084671e+01 1.505791e+01 4.000000e-01
      vertex   7.084671e+01 1.505791e+01 0.000000e+00
    endloop
  endfacet
  facet normal 1.919070e-01 9.814131e-01 0.000000e+00
    outer loop
      vertex   7.084671e+01 1.505791e+01 4.000000e-01
      vertex   7.136890e+01 1.495580e+01 4.000000e-01
      vertex   7.084671e+01 1.505791e+01 0.000000e+00
    endloop
  endfacet
  facet normal 1.919070e-01 9.814131e-01 0.000000e+00
    outer loop
      vertex   7.084671e+01 1.505791e+01 0.000000e+00
      vertex   7.136890e+01 1.495580e+01 4.000000e-01
      vertex   7.136890e+01 1.495580e+01 0.000000e+00
    endloop
  endfacet
  facet normal 7.753129e-01 6.315773e-01 0.000000e+00
    outer loop
      vertex   7.136890e+01 1.495580e+01 4.000000e-01
      vertex   7.140069e+01 1.491678e+01 4.000000e-01
      vertex   7.136890e+01 1.495580e+01 0.000000e+00
    endloop
  endfacet
  facet normal 7.753129e-01 6.315773e-01 0.000000e+00
    outer loop
      vertex   7.136890e+01 1.495580e+01 0.000000e+00
      vertex   7.140069e+01 1.491678e+01 4.000000e-01
      vertex   7.140069e+01 1.491678e+01 0.000000e+00
    endloop
  endfacet
  facet normal 8.133896e-01 5.817194e-01 0.000000e+00
    outer loop
      vertex   7.140069e+01 1.491678e+01 4.000000e-01
      vertex   7.142975e+01 1.487614e+01 4.000000e-01
      vertex   7.140069e+01 1.491678e+01 0.000000e+00
    endloop
  endfacet
  facet normal 8.133896e-01 5.817194e-01 0.000000e+00
    outer loop
      vertex   7.140069e+01 1.491678e+01 0.000000e+00
      vertex   7.142975e+01 1.487614e+01 4.000000e-01
      vertex   7.142975e+01 1.487614e+01 0.000000e+00
    endloop
  endfacet
  facet normal 8.477315e-01 5.304256e-01 0.000000e+00
    outer loop
      vertex   7.142975e+01 1.487614e+01 4.000000e-01
      vertex   7.145610e+01 1.483402e+01 4.000000e-01
      vertex   7.142975e+01 1.487614e+01 0.000000e+00
    endloop
  endfacet
  facet normal 8.477315e-01 5.304256e-01 0.000000e+00
    outer loop
      vertex   7.142975e+01 1.487614e+01 0.000000e+00
      vertex   7.145610e+01 1.483402e+01 4.000000e-01
      vertex   7.145610e+01 1.483402e+01 0.000000e+00
    endloop
  endfacet
  facet normal 8.783364e-01 4.780431e-01 0.000000e+00
    outer loop
      vertex   7.145610e+01 1.483402e+01 4.000000e-01
      vertex   7.147975e+01 1.479058e+01 4.000000e-01
      vertex   7.145610e+01 1.483402e+01 0.000000e+00
    endloop
  endfacet
  facet normal 8.783364e-01 4.780431e-01 0.000000e+00
    outer loop
      vertex   7.145610e+01 1.483402e+01 0.000000e+00
      vertex   7.147975e+01 1.479058e+01 4.000000e-01
      vertex   7.147975e+01 1.479058e+01 0.000000e+00
    endloop
  endfacet
  facet normal 9.052522e-01 4.248746e-01 0.000000e+00
    outer loop
      vertex   7.147975e+01 1.479058e+01 4.000000e-01
      vertex   7.150069e+01 1.474595e+01 4.000000e-01
      vertex   7.147975e+01 1.479058e+01 0.000000e+00
    endloop
  endfacet
  facet normal 9.052522e-01 4.248746e-01 0.000000e+00
    outer loop
      vertex   7.147975e+01 1.479058e+01 0.000000e+00
      vertex   7.150069e+01 1.474595e+01 4.000000e-01
      vertex   7.150069e+01 1.474595e+01 0.000000e+00
    endloop
  endfacet
  facet normal 9.285633e-01 3.711741e-01 0.000000e+00
    outer loop
      vertex   7.150069e+01 1.474595e+01 4.000000e-01
      vertex   7.151895e+01 1.470028e+01 4.000000e-01
      vertex   7.150069e+01 1.474595e+01 0.000000e+00
    endloop
  endfacet
  facet normal 9.285633e-01 3.711741e-01 0.000000e+00
    outer loop
      vertex   7.150069e+01 1.474595e+01 0.000000e+00
      vertex   7.151895e+01 1.470028e+01 4.000000e-01
      vertex   7.151895e+01 1.470028e+01 0.000000e+00
    endloop
  endfacet
  facet normal 9.483767e-01 3.171461e-01 0.000000e+00
    outer loop
      vertex   7.151895e+01 1.470028e+01 4.000000e-01
      vertex   7.153452e+01 1.465372e+01 4.000000e-01
      vertex   7.151895e+01 1.470028e+01 0.000000e+00
    endloop
  endfacet
  facet normal 9.483767e-01 3.171461e-01 0.000000e+00
    outer loop
      vertex   7.151895e+01 1.470028e+01 0.000000e+00
      vertex   7.153452e+01 1.465372e+01 4.000000e-01
      vertex   7.153452e+01 1.465372e+01 0.000000e+00
    endloop
  endfacet
  facet normal 9.648101e-01 2.629477e-01 0.000000e+00
    outer loop
      vertex   7.153452e+01 1.465372e+01 4.000000e-01
      vertex   7.154741e+01 1.460642e+01 4.000000e-01
      vertex   7.153452e+01 1.465372e+01 0.000000e+00
    endloop
  endfacet
  facet normal 9.648101e-01 2.629477e-01 0.000000e+00
    outer loop
      vertex   7.153452e+01 1.465372e+01 0.000000e+00
      vertex   7.154741e+01 1.460642e+01 4.000000e-01
      vertex   7.154741e+01 1.460642e+01 0.000000e+00
    endloop
  endfacet
  facet normal 9.779813e-01 2.086925e-01 0.000000e+00
    outer loop
      vertex   7.154741e+01 1.460642e+01 4.000000e-01
      vertex   7.155763e+01 1.455851e+01 4.000000e-01
      vertex   7.154741e+01 1.460642e+01 0.000000e+00
    endloop
  endfacet
  facet normal 9.779813e-01 2.086925e-01 0.000000e+00
    outer loop
      vertex   7.154741e+01 1.460642e+01 0.000000e+00
      vertex   7.155763e+01 1.455851e+01 4.000000e-01
      vertex   7.155763e+01 1.455851e+01 0.000000e+00
    endloop
  endfacet
  facet normal 9.879996e-01 1.544566e-01 0.000000e+00
    outer loop
      vertex   7.155763e+01 1.455851e+01 4.000000e-01
      vertex   7.156520e+01 1.451014e+01 4.000000e-01
      vertex   7.155763e+01 1.455851e+01 0.000000e+00
    endloop
  endfacet
  facet normal 9.879996e-01 1.544566e-01 0.000000e+00
    outer loop
      vertex   7.155763e+01 1.455851e+01 0.000000e+00
      vertex   7.156520e+01 1.451014e+01 4.000000e-01
      vertex   7.156520e+01 1.451014e+01 0.000000e+00
    endloop
  endfacet
  facet normal 9.949588e-01 1.002846e-01 0.000000e+00
    outer loop
      vertex   7.156520e+01 1.451014e+01 4.000000e-01
      vertex   7.157010e+01 1.446146e+01 4.000000e-01
      vertex   7.156520e+01 1.451014e+01 0.000000e+00
    endloop
  endfacet
  facet normal 9.949588e-01 1.002846e-01 0.000000e+00
    outer loop
      vertex   7.156520e+01 1.451014e+01 0.000000e+00
      vertex   7.157010e+01 1.446146e+01 4.000000e-01
      vertex   7.157010e+01 1.446146e+01 0.000000e+00
    endloop
  endfacet
  facet normal 9.989324e-01 4.619694e-02 0.000000e+00
    outer loop
      vertex   7.157010e+01 1.446146e+01 4.000000e-01
      vertex   7.157236e+01 1.441262e+01 4.000000e-01
      vertex   7.157010e+01 1.446146e+01 0.000000e+00
    endloop
  endfacet
  facet normal 9.989324e-01 4.619694e-02 0.000000e+00
    outer loop
      vertex   7.157010e+01 1.446146e+01 0.000000e+00
      vertex   7.157236e+01 1.441262e+01 4.000000e-01
      vertex   7.157236e+01 1.441262e+01 0.000000e+00
    endloop
  endfacet
  facet normal 9.999696e-01 -7.803568e-03 0.000000e+00
    outer loop
      vertex   7.157236e+01 1.441262e+01 4.000000e-01
      vertex   7.157198e+01 1.436376e+01 4.000000e-01
      vertex   7.157236e+01 1.441262e+01 0.000000e+00
    endloop
  endfacet
  facet normal 9.999696e-01 -7.803568e-03 0.000000e+00
    outer loop
      vertex   7.157236e+01 1.441262e+01 0.000000e+00
      vertex   7.157198e+01 1.436376e+01 4.000000e-01
      vertex   7.157198e+01 1.436376e+01 0.000000e+00
    endloop
  endfacet
  facet normal 9.980933e-01 -6.172409e-02 0.000000e+00
    outer loop
      vertex   7.157198e+01 1.436376e+01 4.000000e-01
      vertex   7.156897e+01 1.431502e+01 4.000000e-01
      vertex   7.157198e+01 1.436376e+01 0.000000e+00
    endloop
  endfacet
  facet normal 9.980933e-01 -6.172409e-02 0.000000e+00
    outer loop
      vertex   7.157198e+01 1.436376e+01 0.000000e+00
      vertex   7.156897e+01 1.431502e+01 4.000000e-01
      vertex   7.156897e+01 1.431502e+01 0.000000e+00
    endloop
  endfacet
  facet normal 9.932988e-01 -1.155749e-01 0.000000e+00
    outer loop
      vertex   7.156897e+01 1.431502e+01 4.000000e-01
      vertex   7.156333e+01 1.426655e+01 4.000000e-01
      vertex   7.156897e+01 1.431502e+01 0.000000e+00
    endloop
  endfacet
  facet normal 9.932988e-01 -1.155749e-01 0.000000e+00
    outer loop
      vertex   7.156897e+01 1.431502e+01 0.000000e+00
      vertex   7.156333e+01 1.426655e+01 4.000000e-01
      vertex   7.156333e+01 1.426655e+01 0.000000e+00
    endloop
  endfacet
  facet normal 9.855539e-01 -1.693620e-01 0.000000e+00
    outer loop
      vertex   7.156333e+01 1.426655e+01 4.000000e-01
      vertex   7.155507e+01 1.421849e+01 4.000000e-01
      vertex   7.156333e+01 1.426655e+01 0.000000e+00
    endloop
  endfacet
  facet normal 9.855539e-01 -1.693620e-01 0.000000e+00
    outer loop
      vertex   7.156333e+01 1.426655e+01 0.000000e+00
      vertex   7.155507e+01 1.421849e+01 4.000000e-01
      vertex   7.155507e+01 1.421849e+01 0.000000e+00
    endloop
  endfacet
  facet normal 9.748001e-01 -2.230801e-01 0.000000e+00
    outer loop
      vertex   7.155507e+01 1.421849e+01 4.000000e-01
      vertex   7.154420e+01 1.417100e+01 4.000000e-01
      vertex   7.155507e+01 1.421849e+01 0.000000e+00
    endloop
  endfacet
  facet normal 9.748001e-01 -2.230801e-01 0.000000e+00
    outer loop
      vertex   7.155507e+01 1.421849e+01 0.000000e+00
      vertex   7.154420e+01 1.417100e+01 4.000000e-01
      vertex   7.154420e+01 1.417100e+01 0.000000e+00
    endloop
  endfacet
  facet normal 9.609549e-01 -2.767052e-01 0.000000e+00
    outer loop
      vertex   7.154420e+01 1.417100e+01 4.000000e-01
      vertex   7.153073e+01 1.412422e+01 4.000000e-01
      vertex   7.154420e+01 1.417100e+01 0.000000e+00
    endloop
  endfacet
  facet normal 9.609549e-01 -2.767052e-01 0.000000e+00
    outer loop
      vertex   7.154420e+01 1.417100e+01 0.000000e+00
      vertex   7.153073e+01 1.412422e+01 4.000000e-01
      vertex   7.153073e+01 1.412422e+01 0.000000e+00
    endloop
  endfacet
  facet normal 9.439154e-01 -3.301874e-01 0.000000e+00
    outer loop
      vertex   7.153073e+01 1.412422e+01 4.000000e-01
      vertex   7.151466e+01 1.407828e+01 4.000000e-01
      vertex   7.153073e+01 1.412422e+01 0.000000e+00
    endloop
  endfacet
  facet normal 9.439154e-01 -3.301874e-01 0.000000e+00
    outer loop
      vertex   7.153073e+01 1.412422e+01 0.000000e+00
      vertex   7.151466e+01 1.407828e+01 4.000000e-01
      vertex   7.151466e+01 1.407828e+01 0.000000e+00
    endloop
  endfacet
  facet normal 9.235642e-01 -3.834437e-01 0.000000e+00
    outer loop
      vertex   7.151466e+01 1.407828e+01 4.000000e-01
      vertex   7.149600e+01 1.403335e+01 4.000000e-01
      vertex   7.151466e+01 1.407828e+01 0.000000e+00
    endloop
  endfacet
  facet normal 9.235642e-01 -3.834437e-01 0.000000e+00
    outer loop
      vertex   7.151466e+01 1.407828e+01 0.000000e+00
      vertex   7.149600e+01 1.403335e+01 4.000000e-01
      vertex   7.149600e+01 1.403335e+01 0.000000e+00
    endloop
  endfacet
  facet normal 8.997762e-01 -4.363516e-01 0.000000e+00
    outer loop
      vertex   7.149600e+01 1.403335e+01 4.000000e-01
      vertex   7.147477e+01 1.398955e+01 4.000000e-01
      vertex   7.149600e+01 1.403335e+01 0.000000e+00
    endloop
  endfacet
  facet normal 8.997762e-01 -4.363516e-01 0.000000e+00
    outer loop
      vertex   7.149600e+01 1.403335e+01 0.000000e+00
      vertex   7.147477e+01 1.398955e+01 4.000000e-01
      vertex   7.147477e+01 1.398955e+01 0.000000e+00
    endloop
  endfacet
  facet normal 8.724278e-01 -4.887430e-01 0.000000e+00
    outer loop
      vertex   7.147477e+01 1.398955e+01 4.000000e-01
      vertex   7.145095e+01 1.394705e+01 4.000000e-01
      vertex   7.147477e+01 1.398955e+01 0.000000e+00
    endloop
  endfacet
  facet normal 8.724278e-01 -4.887430e-01 0.000000e+00
    outer loop
      vertex   7.147477e+01 1.398955e+01 0.000000e+00
      vertex   7.145095e+01 1.394705e+01 4.000000e-01
      vertex   7.145095e+01 1.394705e+01 0.000000e+00
    endloop
  endfacet
  facet normal 8.414083e-01 -5.403999e-01 0.000000e+00
    outer loop
      vertex   7.145095e+01 1.394705e+01 4.000000e-01
      vertex   7.142458e+01 1.390598e+01 4.000000e-01
      vertex   7.145095e+01 1.394705e+01 0.000000e+00
    endloop
  endfacet
  facet normal 8.414083e-01 -5.403999e-01 0.000000e+00
    outer loop
      vertex   7.145095e+01 1.394705e+01 0.000000e+00
      vertex   7.142458e+01 1.390598e+01 4.000000e-01
      vertex   7.142458e+01 1.390598e+01 0.000000e+00
    endloop
  endfacet
  facet normal 8.066331e-01 -5.910525e-01 0.000000e+00
    outer loop
      vertex   7.142458e+01 1.390598e+01 4.000000e-01
      vertex   7.139564e+01 1.386649e+01 4.000000e-01
      vertex   7.142458e+01 1.390598e+01 0.000000e+00
    endloop
  endfacet
  facet normal 8.066331e-01 -5.910525e-01 0.000000e+00
    outer loop
      vertex   7.142458e+01 1.390598e+01 0.000000e+00
      vertex   7.139564e+01 1.386649e+01 4.000000e-01
      vertex   7.139564e+01 1.386649e+01 0.000000e+00
    endloop
  endfacet
  facet normal 7.680581e-01 -6.403802e-01 0.000000e+00
    outer loop
      vertex   7.139564e+01 1.386649e+01 4.000000e-01
      vertex   7.136415e+01 1.382872e+01 4.000000e-01
      vertex   7.139564e+01 1.386649e+01 0.000000e+00
    endloop
  endfacet
  facet normal 7.680581e-01 -6.403802e-01 0.000000e+00
    outer loop
      vertex   7.139564e+01 1.386649e+01 0.000000e+00
      vertex   7.136415e+01 1.382872e+01 4.000000e-01
      vertex   7.136415e+01 1.382872e+01 0.000000e+00
    endloop
  endfacet
  facet normal 7.256954e-01 -6.880161e-01 0.000000e+00
    outer loop
      vertex   7.136415e+01 1.382872e+01 4.000000e-01
      vertex   7.133011e+01 1.379282e+01 4.000000e-01
      vertex   7.136415e+01 1.382872e+01 0.000000e+00
    endloop
  endfacet
  facet normal 7.256954e-01 -6.880161e-01 0.000000e+00
    outer loop
      vertex   7.136415e+01 1.382872e+01 0.000000e+00
      vertex   7.133011e+01 1.379282e+01 4.000000e-01
      vertex   7.133011e+01 1.379282e+01 0.000000e+00
    endloop
  endfacet
  facet normal 6.796277e-01 -7.335572e-01 0.000000e+00
    outer loop
      vertex   7.133011e+01 1.379282e+01 4.000000e-01
      vertex   7.129354e+01 1.375894e+01 4.000000e-01
      vertex   7.133011e+01 1.379282e+01 0.000000e+00
    endloop
  endfacet
  facet normal 6.796277e-01 -7.335572e-01 0.000000e+00
    outer loop
      vertex   7.133011e+01 1.379282e+01 0.000000e+00
      vertex   7.129354e+01 1.375894e+01 4.000000e-01
      vertex   7.129354e+01 1.375894e+01 0.000000e+00
    endloop
  endfacet
  facet normal 6.300211e-01 -7.765780e-01 0.000000e+00
    outer loop
      vertex   7.129354e+01 1.375894e+01 4.000000e-01
      vertex   7.125444e+01 1.372721e+01 4.000000e-01
      vertex   7.129354e+01 1.375894e+01 0.000000e+00
    endloop
  endfacet
  facet normal 6.300211e-01 -7.765780e-01 0.000000e+00
    outer loop
      vertex   7.129354e+01 1.375894e+01 0.000000e+00
      vertex   7.125444e+01 1.372721e+01 4.000000e-01
      vertex   7.125444e+01 1.372721e+01 0.000000e+00
    endloop
  endfacet
  facet normal 5.771332e-01 -8.166500e-01 0.000000e+00
    outer loop
      vertex   7.125444e+01 1.372721e+01 4.000000e-01
      vertex   7.121282e+01 1.369780e+01 4.000000e-01
      vertex   7.125444e+01 1.372721e+01 0.000000e+00
    endloop
  endfacet
  facet normal 5.771332e-01 -8.166500e-01 0.000000e+00
    outer loop
      vertex   7.125444e+01 1.372721e+01 0.000000e+00
      vertex   7.121282e+01 1.369780e+01 4.000000e-01
      vertex   7.121282e+01 1.369780e+01 0.000000e+00
    endloop
  endfacet
  facet normal 5.984296e-01 -8.011754e-01 0.000000e+00
    outer loop
      vertex   7.121282e+01 1.369780e+01 4.000000e-01
      vertex   7.116548e+01 1.366244e+01 4.000000e-01
      vertex   7.121282e+01 1.369780e+01 0.000000e+00
    endloop
  endfacet
  facet normal 5.984296e-01 -8.011754e-01 0.000000e+00
    outer loop
      vertex   7.121282e+01 1.369780e+01 0.000000e+00
      vertex   7.116548e+01 1.366244e+01 4.000000e-01
      vertex   7.116548e+01 1.366244e+01 0.000000e+00
    endloop
  endfacet
  facet normal 4.759300e-01 -8.794832e-01 0.000000e+00
    outer loop
      vertex   7.116548e+01 1.366244e+01 4.000000e-01
      vertex   7.111631e+01 1.363583e+01 4.000000e-01
      vertex   7.116548e+01 1.366244e+01 0.000000e+00
    endloop
  endfacet
  facet normal 4.759300e-01 -8.794832e-01 0.000000e+00
    outer loop
      vertex   7.116548e+01 1.366244e+01 0.000000e+00
      vertex   7.111631e+01 1.363583e+01 4.000000e-01
      vertex   7.111631e+01 1.363583e+01 0.000000e+00
    endloop
  endfacet
  facet normal 3.434151e-01 -9.391837e-01 0.000000e+00
    outer loop
      vertex   7.111631e+01 1.363583e+01 4.000000e-01
      vertex   7.106560e+01 1.361729e+01 4.000000e-01
      vertex   7.111631e+01 1.363583e+01 0.000000e+00
    endloop
  endfacet
  facet normal 3.434151e-01 -9.391837e-01 0.000000e+00
    outer loop
      vertex   7.111631e+01 1.363583e+01 0.000000e+00
      vertex   7.106560e+01 1.361729e+01 4.000000e-01
      vertex   7.106560e+01 1.361729e+01 0.000000e+00
    endloop
  endfacet
  facet normal 1.780990e-01 -9.840126e-01 0.000000e+00
    outer loop
      vertex   7.106560e+01 1.361729e+01 4.000000e-01
      vertex   7.098732e+01 1.360312e+01 4.000000e-01
      vertex   7.106560e+01 1.361729e+01 0.000000e+00
    endloop
  endfacet
  facet normal 1.780990e-01 -9.840126e-01 0.000000e+00
    outer loop
      vertex   7.106560e+01 1.361729e+01 0.000000e+00
      vertex   7.098732e+01 1.360312e+01 4.000000e-01
      vertex   7.098732e+01 1.360312e+01 0.000000e+00
    endloop
  endfacet
  facet normal -0.000000e+00 -0.000000e+00 -1.000000e+00
    outer loop
      vertex   7.136890e+01 1.495580e+01 0.000000e+00
      vertex   7.140069e+01 1.491678e+01 0.000000e+00
      vertex   7.084671e+01 1.505791e+01 0.000000e+00
    endloop
  endfacet
  facet normal 0.000000e+00 0.000000e+00 -1.000000e+00
    outer loop
      vertex   7.084671e+01 1.505791e+01 0.000000e+00
      vertex   7.140069e+01 1.491678e+01 0.000000e+00
      vertex   7.142975e+01 1.487614e+01 0.000000e+00
    endloop
  endfacet
  facet normal 0.000000e+00 0.000000e+00 -1.000000e+00
    outer loop
      vertex   7.084671e+01 1.505791e+01 0.000000e+00
      vertex   7.142975e+01 1.487614e+01 0.000000e+00
      vertex   7.145610e+01 1.483402e+01 0.000000e+00
    endloop
  endfacet
  facet normal -0.000000e+00 -0.000000e+00 -1.000000e+00
    outer loop
      vertex   7.145610e+01 1.483402e+01 0.000000e+00
      vertex   7.147975e+01 1.479058e+01 0.000000e+00
      vertex   7.084671e+01 1.505791e+01 0.000000e+00
    endloop
  endfacet
  facet normal 0.000000e+00 0.000000e+00 -1.000000e+00
    outer loop
      vertex   7.084671e+01 1.505791e+01 0.000000e+00
      vertex   7.147975e+01 1.479058e+01 0.000000e+00
      vertex   7.150069e+01 1.474595e+01 0.000000e+00
    endloop
  endfacet
  facet normal 0.000000e+00 0.000000e+00 -1.000000e+00
    outer loop
      vertex   7.084671e+01 1.505791e+01 0.000000e+00
      vertex   7.150069e+01 1.474595e+01 0.000000e+00
      vertex   7.151895e+01 1.470028e+01 0.000000e+00
    endloop
  endfacet
  facet normal -0.000000e+00 -0.000000e+00 -1.000000e+00
    outer loop
      vertex   7.151895e+01 1.470028e+01 0.000000e+00
      vertex   7.153452e+01 1.465372e+01 0.000000e+00
      vertex   7.084671e+01 1.505791e+01 0.000000e+00
    endloop
  endfacet
  facet normal 0.000000e+00 0.000000e+00 -1.000000e+00
    outer loop
      vertex   7.084671e+01 1.505791e+01 0.000000e+00
      vertex   7.153452e+01 1.465372e+01 0.000000e+00
      vertex   7.154741e+01 1.460642e+01 0.000000e+00
    endloop
  endfacet
  facet normal 0.000000e+00 0.000000e+00 -1.000000e+00
    outer loop
      vertex   7.084671e+01 1.505791e+01 0.000000e+00
      vertex   7.154741e+01 1.460642e+01 0.000000e+00
      vertex   7.155763e+01 1.455851e+01 0.000000e+00
    endloop
  endfacet
  facet normal -0.000000e+00 -0.000000e+00 -1.000000e+00
    outer loop
      vertex   7.155763e+01 1.455851e+01 0.000000e+00
      vertex   7.156520e+01 1.451014e+01 0.000000e+00
      vertex   7.084671e+01 1.505791e+01 0.000000e+00
    endloop
  endfacet
  facet normal 0.000000e+00 0.000000e+00 -1.000000e+00
    outer loop
      vertex   7.084671e+01 1.505791e+01 0.000000e+00
      vertex   7.156520e+01 1.451014e+01 0.000000e+00
      vertex   7.157010e+01 1.446146e+01 0.000000e+00
    endloop
  endfacet
  facet normal 0.000000e+00 -0.000000e+00 -1.000000e+00
    outer loop
      vertex   7.084671e+01 1.505791e+01 0.000000e+00
      vertex   7.157010e+01 1.446146e+01 0.000000e+00
      vertex   7.079397e+01 1.504065e+01 0.000000e+00
    endloop
  endfacet
  facet normal 0.000000e+00 0.000000e+00 -1.000000e+00
    outer loop
      vertex   7.079397e+01 1.504065e+01 0.000000e+00
      vertex   7.157010e+01 1.446146e+01 0.000000e+00
      vertex   7.157236e+01 1.441262e+01 0.000000e+00
    endloop
  endfacet
  facet normal 0.000000e+00 -0.000000e+00 -1.000000e+00
    outer loop
      vertex   7.079397e+01 1.504065e+01 0.000000e+00
      vertex   7.157236e+01 1.441262e+01 0.000000e+00
      vertex   7.074342e+01 1.501936e+01 0.000000e+00
    endloop
  endfacet
  facet normal 0.000000e+00 0.000000e+00 -1.000000e+00
    outer loop
      vertex   7.074342e+01 1.501936e+01 0.000000e+00
      vertex   7.157236e+01 1.441262e+01 0.000000e+00
      vertex   7.157198e+01 1.436376e+01 0.000000e+00
    endloop
  endfacet
  facet normal 0.000000e+00 -0.000000e+00 -1.000000e+00
    outer loop
      vertex   7.074342e+01 1.501936e+01 0.000000e+00
      vertex   7.157198e+01 1.436376e+01 0.000000e+00
      vertex   7.069516e+01 1.499427e+01 0.000000e+00
    endloop
  endfacet
  facet normal 0.000000e+00 0.000000e+00 -1.000000e+00
    outer loop
      vertex   7.069516e+01 1.499427e+01 0.000000e+00
      vertex   7.157198e+01 1.436376e+01 0.000000e+00
      vertex   7.156897e+01 1.431502e+01 0.000000e+00
    endloop
  endfacet
  facet normal 0.000000e+00 0.000000e+00 -1.000000e+00
    outer loop
      vertex   7.069516e+01 1.499427e+01 0.000000e+00
      vertex   7.156897e+01 1.431502e+01 0.000000e+00
      vertex   7.156333e+01 1.426655e+01 0.000000e+00
    endloop
  endfacet
  facet normal 0.000000e+00 -0.000000e+00 -1.000000e+00
    outer loop
      vertex   7.069516e+01 1.499427e+01 0.000000e+00
      vertex   7.156333e+01 1.426655e+01 0.000000e+00
      vertex   7.064924e+01 1.496561e+01 0.000000e+00
    endloop
  endfacet
  facet normal 0.000000e+00 0.000000e+00 -1.000000e+00
    outer loop
      vertex   7.064924e+01 1.496561e+01 0.000000e+00
      vertex   7.156333e+01 1.426655e+01 0.000000e+00
      vertex   7.155507e+01 1.421849e+01 0.000000e+00
    endloop
  endfacet
  facet normal 0.000000e+00 -0.000000e+00 -1.000000e+00
    outer loop
      vertex   7.064924e+01 1.496561e+01 0.000000e+00
      vertex   7.155507e+01 1.421849e+01 0.000000e+00
      vertex   7.060573e+01 1.493361e+01 0.000000e+00
    endloop
  endfacet
  facet normal 0.000000e+00 0.000000e+00 -1.000000e+00
    outer loop
      vertex   7.060573e+01 1.493361e+01 0.000000e+00
      vertex   7.155507e+01 1.421849e+01 0.000000e+00
      vertex   7.154420e+01 1.417100e+01 0.000000e+00
    endloop
  endfacet
  facet normal 0.000000e+00 0.000000e+00 -1.000000e+00
    outer loop
      vertex   7.060573e+01 1.493361e+01 0.000000e+00
      vertex   7.154420e+01 1.417100e+01 0.000000e+00
      vertex   7.153073e+01 1.412422e+01 0.000000e+00
    endloop
  endfacet
  facet normal 0.000000e+00 -0.000000e+00 -1.000000e+00
    outer loop
      vertex   7.060573e+01 1.493361e+01 0.000000e+00
      vertex   7.153073e+01 1.412422e+01 0.000000e+00
      vertex   7.056471e+01 1.489850e+01 0.000000e+00
    endloop
  endfacet
  facet normal 0.000000e+00 0.000000e+00 -1.000000e+00
    outer loop
      vertex   7.056471e+01 1.489850e+01 0.000000e+00
      vertex   7.153073e+01 1.412422e+01 0.000000e+00
      vertex   7.151466e+01 1.407828e+01 0.000000e+00
    endloop
  endfacet
  facet normal 0.000000e+00 -0.000000e+00 -1.000000e+00
    outer loop
      vertex   7.056471e+01 1.489850e+01 0.000000e+00
      vertex   7.151466e+01 1.407828e+01 0.000000e+00
      vertex   7.052625e+01 1.486051e+01 0.000000e+00
    endloop
  endfacet
  facet normal 0.000000e+00 -0.000000e+00 -1.000000e+00
    outer loop
      vertex   7.052625e+01 1.486051e+01 0.000000e+00
      vertex   7.151466e+01 1.407828e+01 0.000000e+00
      vertex   7.049042e+01 1.481988e+01 0.000000e+00
    endloop
  endfacet
  facet normal 0.000000e+00 -0.000000e+00 -1.000000e+00
    outer loop
      vertex   7.049042e+01 1.481988e+01 0.000000e+00
      vertex   7.151466e+01 1.407828e+01 0.000000e+00
      vertex   7.045728e+01 1.477684e+01 0.000000e+00
    endloop
  endfacet
  facet normal 0.000000e+00 -0.000000e+00 -1.000000e+00
    outer loop
      vertex   7.045728e+01 1.477684e+01 0.000000e+00
      vertex   7.151466e+01 1.407828e+01 0.000000e+00
      vertex   7.042692e+01 1.473161e+01 0.000000e+00
    endloop
  endfacet
  facet normal 0.000000e+00 -0.000000e+00 -1.000000e+00
    outer loop
      vertex   7.042692e+01 1.473161e+01 0.000000e+00
      vertex   7.151466e+01 1.407828e+01 0.000000e+00
      vertex   7.039939e+01 1.468442e+01 0.000000e+00
    endloop
  endfacet
  facet normal 0.000000e+00 -0.000000e+00 -1.000000e+00
    outer loop
      vertex   7.039939e+01 1.468442e+01 0.000000e+00
      vertex   7.151466e+01 1.407828e+01 0.000000e+00
      vertex   7.037478e+01 1.463552e+01 0.000000e+00
    endloop
  endfacet
  facet normal 0.000000e+00 -0.000000e+00 -1.000000e+00
    outer loop
      vertex   7.037478e+01 1.463552e+01 0.000000e+00
      vertex   7.151466e+01 1.407828e+01 0.000000e+00
      vertex   7.035315e+01 1.458513e+01 0.000000e+00
    endloop
  endfacet
  facet normal 0.000000e+00 -0.000000e+00 -1.000000e+00
    outer loop
      vertex   7.035315e+01 1.458513e+01 0.000000e+00
      vertex   7.151466e+01 1.407828e+01 0.000000e+00
      vertex   7.033456e+01 1.453347e+01 0.000000e+00
    endloop
  endfacet
  facet normal 0.000000e+00 -0.000000e+00 -1.000000e+00
    outer loop
      vertex   7.033456e+01 1.453347e+01 0.000000e+00
      vertex   7.151466e+01 1.407828e+01 0.000000e+00
      vertex   7.031911e+01 1.448079e+01 0.000000e+00
    endloop
  endfacet
  facet normal 0.000000e+00 -0.000000e+00 -1.000000e+00
    outer loop
      vertex   7.031911e+01 1.448079e+01 0.000000e+00
      vertex   7.151466e+01 1.407828e+01 0.000000e+00
      vertex   7.030684e+01 1.442731e+01 0.000000e+00
    endloop
  endfacet
  facet normal 0.000000e+00 -0.000000e+00 -1.000000e+00
    outer loop
      vertex   7.030684e+01 1.442731e+01 0.000000e+00
      vertex   7.151466e+01 1.407828e+01 0.000000e+00
      vertex   7.029784e+01 1.437327e+01 0.000000e+00
    endloop
  endfacet
  facet normal 0.000000e+00 -0.000000e+00 -1.000000e+00
    outer loop
      vertex   7.029784e+01 1.437327e+01 0.000000e+00
      vertex   7.151466e+01 1.407828e+01 0.000000e+00
      vertex   7.029217e+01 1.431889e+01 0.000000e+00
    endloop
  endfacet
  facet normal 0.000000e+00 -0.000000e+00 -1.000000e+00
    outer loop
      vertex   7.029217e+01 1.431889e+01 0.000000e+00
      vertex   7.151466e+01 1.407828e+01 0.000000e+00
      vertex   7.028991e+01 1.426440e+01 0.000000e+00
    endloop
  endfacet
  facet normal 0.000000e+00 0.000000e+00 -1.000000e+00
    outer loop
      vertex   7.028991e+01 1.426440e+01 0.000000e+00
      vertex   7.151466e+01 1.407828e+01 0.000000e+00
      vertex   7.029113e+01 1.421004e+01 0.000000e+00
    endloop
  endfacet
  facet normal 0.000000e+00 0.000000e+00 -1.000000e+00
    outer loop
      vertex   7.029113e+01 1.421004e+01 0.000000e+00
      vertex   7.151466e+01 1.407828e+01 0.000000e+00
      vertex   7.029589e+01 1.415604e+01 0.000000e+00
    endloop
  endfacet
  facet normal 0.000000e+00 0.000000e+00 -1.000000e+00
    outer loop
      vertex   7.029589e+01 1.415604e+01 0.000000e+00
      vertex   7.151466e+01 1.407828e+01 0.000000e+00
      vertex   7.149600e+01 1.403335e+01 0.000000e+00
    endloop
  endfacet
  facet normal 0.000000e+00 0.000000e+00 -1.000000e+00
    outer loop
      vertex   7.029589e+01 1.415604e+01 0.000000e+00
      vertex   7.149600e+01 1.403335e+01 0.000000e+00
      vertex   7.030427e+01 1.410263e+01 0.000000e+00
    endloop
  endfacet
  facet normal 0.000000e+00 0.000000e+00 -1.000000e+00
    outer loop
      vertex   7.030427e+01 1.410263e+01 0.000000e+00
      vertex   7.149600e+01 1.403335e+01 0.000000e+00
      vertex   7.031633e+01 1.405004e+01 0.000000e+00
    endloop
  endfacet
  facet normal 0.000000e+00 0.000000e+00 -1.000000e+00
    outer loop
      vertex   7.031633e+01 1.405004e+01 0.000000e+00
      vertex   7.149600e+01 1.403335e+01 0.000000e+00
      vertex   7.033216e+01 1.399850e+01 0.000000e+00
    endloop
  endfacet
  facet normal 0.000000e+00 0.000000e+00 -1.000000e+00
    outer loop
      vertex   7.033216e+01 1.399850e+01 0.000000e+00
      vertex   7.149600e+01 1.403335e+01 0.000000e+00
      vertex   7.147477e+01 1.398955e+01 0.000000e+00
    endloop
  endfacet
  facet normal 0.000000e+00 0.000000e+00 -1.000000e+00
    outer loop
      vertex   7.033216e+01 1.399850e+01 0.000000e+00
      vertex   7.147477e+01 1.398955e+01 0.000000e+00
      vertex   7.035181e+01 1.394825e+01 0.000000e+00
    endloop
  endfacet
  facet normal 0.000000e+00 0.000000e+00 -1.000000e+00
    outer loop
      vertex   7.035181e+01 1.394825e+01 0.000000e+00
      vertex   7.147477e+01 1.398955e+01 0.000000e+00
      vertex   7.145095e+01 1.394705e+01 0.000000e+00
    endloop
  endfacet
  facet normal 0.000000e+00 0.000000e+00 -1.000000e+00
    outer loop
      vertex   7.035181e+01 1.394825e+01 0.000000e+00
      vertex   7.145095e+01 1.394705e+01 0.000000e+00
      vertex   7.037537e+01 1.389950e+01 0.000000e+00
    endloop
  endfacet
  facet normal 0.000000e+00 0.000000e+00 -1.000000e+00
    outer loop
      vertex   7.037537e+01 1.389950e+01 0.000000e+00
      vertex   7.145095e+01 1.394705e+01 0.000000e+00
      vertex   7.142458e+01 1.390598e+01 0.000000e+00
    endloop
  endfacet
  facet normal 0.000000e+00 0.000000e+00 -1.000000e+00
    outer loop
      vertex   7.037537e+01 1.389950e+01 0.000000e+00
      vertex   7.142458e+01 1.390598e+01 0.000000e+00
      vertex   7.139564e+01 1.386649e+01 0.000000e+00
    endloop
  endfacet
  facet normal 0.000000e+00 0.000000e+00 -1.000000e+00
    outer loop
      vertex   7.037537e+01 1.389950e+01 0.000000e+00
      vertex   7.139564e+01 1.386649e+01 0.000000e+00
      vertex   7.040289e+01 1.385250e+01 0.000000e+00
    endloop
  endfacet
  facet normal 0.000000e+00 0.000000e+00 -1.000000e+00
    outer loop
      vertex   7.040289e+01 1.385250e+01 0.000000e+00
      vertex   7.139564e+01 1.386649e+01 0.000000e+00
      vertex   7.136415e+01 1.382872e+01 0.000000e+00
    endloop
  endfacet
  facet normal 0.000000e+00 0.000000e+00 -1.000000e+00
    outer loop
      vertex   7.040289e+01 1.385250e+01 0.000000e+00
      vertex   7.136415e+01 1.382872e+01 0.000000e+00
      vertex   7.043446e+01 1.380748e+01 0.000000e+00
    endloop
  endfacet
  facet normal 0.000000e+00 0.000000e+00 -1.000000e+00
    outer loop
      vertex   7.043446e+01 1.380748e+01 0.000000e+00
      vertex   7.136415e+01 1.382872e+01 0.000000e+00
      vertex   7.133011e+01 1.379282e+01 0.000000e+00
    endloop
  endfacet
  facet normal 0.000000e+00 0.000000e+00 -1.000000e+00
    outer loop
      vertex   7.043446e+01 1.380748e+01 0.000000e+00
      vertex   7.133011e+01 1.379282e+01 0.000000e+00
      vertex   7.047013e+01 1.376466e+01 0.000000e+00
    endloop
  endfacet
  facet normal 0.000000e+00 0.000000e+00 -1.000000e+00
    outer loop
      vertex   7.047013e+01 1.376466e+01 0.000000e+00
      vertex   7.133011e+01 1.379282e+01 0.000000e+00
      vertex   7.129354e+01 1.375894e+01 0.000000e+00
    endloop
  endfacet
  facet normal 0.000000e+00 0.000000e+00 -1.000000e+00
    outer loop
      vertex   7.047013e+01 1.376466e+01 0.000000e+00
      vertex   7.129354e+01 1.375894e+01 0.000000e+00
      vertex   7.069310e+01 1.365645e+01 0.000000e+00
    endloop
  endfacet
  facet normal 0.000000e+00 0.000000e+00 -1.000000e+00
    outer loop
      vertex   7.069310e+01 1.365645e+01 0.000000e+00
      vertex   7.129354e+01 1.375894e+01 0.000000e+00
      vertex   7.125444e+01 1.372721e+01 0.000000e+00
    endloop
  endfacet
  facet normal 0.000000e+00 0.000000e+00 -1.000000e+00
    outer loop
      vertex   7.069310e+01 1.365645e+01 0.000000e+00
      vertex   7.125444e+01 1.372721e+01 0.000000e+00
      vertex   7.121282e+01 1.369780e+01 0.000000e+00
    endloop
  endfacet
  facet normal 0.000000e+00 0.000000e+00 -1.000000e+00
    outer loop
      vertex   7.121282e+01 1.369780e+01 0.000000e+00
      vertex   7.116548e+01 1.366244e+01 0.000000e+00
      vertex   7.069310e+01 1.365645e+01 0.000000e+00
    endloop
  endfacet
  facet normal 0.000000e+00 0.000000e+00 -1.000000e+00
    outer loop
      vertex   7.069310e+01 1.365645e+01 0.000000e+00
      vertex   7.116548e+01 1.366244e+01 0.000000e+00
      vertex   7.111631e+01 1.363583e+01 0.000000e+00
    endloop
  endfacet
  facet normal 0.000000e+00 0.000000e+00 -1.000000e+00
    outer loop
      vertex   7.069310e+01 1.365645e+01 0.000000e+00
      vertex   7.111631e+01 1.363583e+01 0.000000e+00
      vertex   7.088040e+01 1.360614e+01 0.000000e+00
    endloop
  endfacet
  facet normal 0.000000e+00 0.000000e+00 -1.000000e+00
    outer loop
      vertex   7.088040e+01 1.360614e+01 0.000000e+00
      vertex   7.111631e+01 1.363583e+01 0.000000e+00
      vertex   7.106560e+01 1.361729e+01 0.000000e+00
    endloop
  endfacet
  facet normal 0.000000e+00 0.000000e+00 -1.000000e+00
    outer loop
      vertex   7.088040e+01 1.360614e+01 0.000000e+00
      vertex   7.106560e+01 1.361729e+01 0.000000e+00
      vertex   7.098732e+01 1.360312e+01 0.000000e+00
    endloop
  endfacet
endsolid
