solid ASCII
  facet normal 0.000000e+00 0.000000e+00 1.000000e+00
    outer loop
      vertex   4.514562e+01 5.258258e+00 4.000000e-01
      vertex   4.725016e+01 5.258753e+00 4.000000e-01
      vertex   4.553484e+01 7.581386e+00 4.000000e-01
    endloop
  endfacet
  facet normal -0.000000e+00 0.000000e+00 1.000000e+00
    outer loop
      vertex   4.553484e+01 7.581386e+00 4.000000e-01
      vertex   4.725016e+01 5.258753e+00 4.000000e-01
      vertex   4.767217e+01 7.586002e+00 4.000000e-01
    endloop
  endfacet
  facet normal 9.839537e-01 -1.784241e-01 0.000000e+00
    outer loop
      vertex   4.767217e+01 7.586002e+00 4.000000e-01
      vertex   4.725016e+01 5.258753e+00 4.000000e-01
      vertex   4.767217e+01 7.586002e+00 0.000000e+00
    endloop
  endfacet
  facet normal 9.839537e-01 -1.784241e-01 0.000000e+00
    outer loop
      vertex   4.767217e+01 7.586002e+00 0.000000e+00
      vertex   4.725016e+01 5.258753e+00 4.000000e-01
      vertex   4.725016e+01 5.258753e+00 0.000000e+00
    endloop
  endfacet
  facet normal 2.351123e-04 -1.000000e+00 0.000000e+00
    outer loop
      vertex   4.725016e+01 5.258753e+00 4.000000e-01
      vertex   4.514562e+01 5.258258e+00 4.000000e-01
      vertex   4.725016e+01 5.258753e+00 0.000000e+00
    endloop
  endfacet
  facet normal 2.351123e-04 -1.000000e+00 0.000000e+00
    outer loop
      vertex   4.725016e+01 5.258753e+00 0.000000e+00
      vertex   4.514562e+01 5.258258e+00 4.000000e-01
      vertex   4.514562e+01 5.258258e+00 0.000000e+00
    endloop
  endfacet
  facet normal -9.862534e-01 1.652399e-01 0.000000e+00
    outer loop
      vertex   4.514562e+01 5.258258e+00 4.000000e-01
      vertex   4.553484e+01 7.581386e+00 4.000000e-01
      vertex   4.514562e+01 5.258258e+00 0.000000e+00
    endloop
  endfacet
  facet normal -9.862534e-01 1.652399e-01 0.000000e+00
    outer loop
      vertex   4.514562e+01 5.258258e+00 0.000000e+00
      vertex   4.553484e+01 7.581386e+00 4.000000e-01
      vertex   4.553484e+01 7.581386e+00 0.000000e+00
    endloop
  endfacet
  facet normal -2.159732e-03 9.999977e-01 0.000000e+00
    outer loop
      vertex   4.553484e+01 7.581386e+00 4.000000e-01
      vertex   4.767217e+01 7.586002e+00 4.000000e-01
      vertex   4.553484e+01 7.581386e+00 0.000000e+00
    endloop
  endfacet
  facet normal -2.159732e-03 9.999977e-01 0.000000e+00
    outer loop
      vertex   4.553484e+01 7.581386e+00 0.000000e+00
      vertex   4.767217e+01 7.586002e+00 4.000000e-01
      vertex   4.767217e+01 7.586002e+00 0.000000e+00
    endloop
  endfacet
  facet normal 0.000000e+00 0.000000e+00 -1.000000e+00
    outer loop
      vertex   4.514562e+01 5.258258e+00 0.000000e+00
      vertex   4.553484e+01 7.581386e+00 0.000000e+00
      vertex   4.725016e+01 5.258753e+00 0.000000e+00
    endloop
  endfacet
  facet normal 0.000000e+00 0.000000e+00 -1.000000e+00
    outer loop
      vertex   4.725016e+01 5.258753e+00 0.000000e+00
      vertex   4.553484e+01 7.581386e+00 0.000000e+00
      vertex   4.767217e+01 7.586002e+00 0.000000e+00
    endloop
  endfacet
endsolid
