solid ASCII
  facet normal 0.000000e+00 0.000000e+00 1.000000e+00
    outer loop
      vertex   4.682142e+00 1.663599e+01 4.000000e-01
      vertex   8.597546e-01 1.663171e+01 4.000000e-01
      vertex   2.758306e+00 1.256900e+01 4.000000e-01
    endloop
  endfacet
  facet normal 0.000000e+00 0.000000e+00 1.000000e+00
    outer loop
      vertex   2.758306e+00 1.256900e+01 4.000000e-01
      vertex   8.597546e-01 1.663171e+01 4.000000e-01
      vertex   -1.143090e+00 5.275498e+00 4.000000e-01
    endloop
  endfacet
  facet normal 0.000000e+00 0.000000e+00 1.000000e+00
    outer loop
      vertex   2.758306e+00 1.256900e+01 4.000000e-01
      vertex   -1.143090e+00 5.275498e+00 4.000000e-01
      vertex   1.438325e+00 5.264061e+00 4.000000e-01
    endloop
  endfacet
  facet normal 0.000000e+00 0.000000e+00 1.000000e+00
    outer loop
      vertex   4.682142e+00 1.663599e+01 4.000000e-01
      vertex   2.758306e+00 1.256900e+01 4.000000e-01
      vertex   4.517186e+00 1.142741e+01 4.000000e-01
    endloop
  endfacet
  facet normal 0.000000e+00 0.000000e+00 1.000000e+00
    outer loop
      vertex   4.517186e+00 1.142741e+01 4.000000e-01
      vertex   2.758306e+00 1.256900e+01 4.000000e-01
      vertex   2.527410e+00 5.269232e+00 4.000000e-01
    endloop
  endfacet
  facet normal 0.000000e+00 0.000000e+00 1.000000e+00
    outer loop
      vertex   4.517186e+00 1.142741e+01 4.000000e-01
      vertex   2.527410e+00 5.269232e+00 4.000000e-01
      vertex   4.370108e+00 5.273065e+00 4.000000e-01
    endloop
  endfacet
  facet normal 0.000000e+00 0.000000e+00 1.000000e+00
    outer loop
      vertex   4.370108e+00 5.273065e+00 4.000000e-01
      vertex   6.663638e+00 1.277788e+01 4.000000e-01
      vertex   4.517186e+00 1.142741e+01 4.000000e-01
    endloop
  endfacet
  facet normal 0.000000e+00 0.000000e+00 1.000000e+00
    outer loop
      vertex   4.517186e+00 1.142741e+01 4.000000e-01
      vertex   6.663638e+00 1.277788e+01 4.000000e-01
      vertex   5.154311e+00 1.339779e+01 4.000000e-01
    endloop
  endfacet
  facet normal -0.000000e+00 0.000000e+00 1.000000e+00
    outer loop
      vertex   5.154311e+00 1.339779e+01 4.000000e-01
      vertex   6.663638e+00 1.277788e+01 4.000000e-01
      vertex   6.146294e+00 1.663964e+01 4.000000e-01
    endloop
  endfacet
  facet normal 0.000000e+00 0.000000e+00 1.000000e+00
    outer loop
      vertex   6.146294e+00 1.663964e+01 4.000000e-01
      vertex   6.663638e+00 1.277788e+01 4.000000e-01
      vertex   9.985022e+00 1.661835e+01 4.000000e-01
    endloop
  endfacet
  facet normal 0.000000e+00 0.000000e+00 1.000000e+00
    outer loop
      vertex   9.985022e+00 1.661835e+01 4.000000e-01
      vertex   6.663638e+00 1.277788e+01 4.000000e-01
      vertex   6.624450e+00 1.227564e+01 4.000000e-01
    endloop
  endfacet
  facet normal 0.000000e+00 0.000000e+00 1.000000e+00
    outer loop
      vertex   9.985022e+00 1.661835e+01 4.000000e-01
      vertex   6.624450e+00 1.227564e+01 4.000000e-01
      vertex   7.976849e+00 5.268394e+00 4.000000e-01
    endloop
  endfacet
  facet normal 0.000000e+00 0.000000e+00 1.000000e+00
    outer loop
      vertex   7.976849e+00 5.268394e+00 4.000000e-01
      vertex   6.624450e+00 1.227564e+01 4.000000e-01
      vertex   5.394091e+00 5.264868e+00 4.000000e-01
    endloop
  endfacet
  facet normal -9.849475e-01 1.728539e-01 0.000000e+00
    outer loop
      vertex   5.394091e+00 5.264868e+00 4.000000e-01
      vertex   6.624450e+00 1.227564e+01 4.000000e-01
      vertex   5.394091e+00 5.264868e+00 0.000000e+00
    endloop
  endfacet
  facet normal -9.849475e-01 1.728539e-01 0.000000e+00
    outer loop
      vertex   5.394091e+00 5.264868e+00 0.000000e+00
      vertex   6.624450e+00 1.227564e+01 4.000000e-01
      vertex   6.624450e+00 1.227564e+01 0.000000e+00
    endloop
  endfacet
  facet normal -9.969698e-01 7.779009e-02 0.000000e+00
    outer loop
      vertex   6.624450e+00 1.227564e+01 4.000000e-01
      vertex   6.663638e+00 1.277788e+01 4.000000e-01
      vertex   6.624450e+00 1.227564e+01 0.000000e+00
    endloop
  endfacet
  facet normal -9.969698e-01 7.779009e-02 0.000000e+00
    outer loop
      vertex   6.624450e+00 1.227564e+01 0.000000e+00
      vertex   6.663638e+00 1.277788e+01 4.000000e-01
      vertex   6.663638e+00 1.277788e+01 0.000000e+00
    endloop
  endfacet
  facet normal 9.563376e-01 -2.922641e-01 0.000000e+00
    outer loop
      vertex   6.663638e+00 1.277788e+01 4.000000e-01
      vertex   4.370108e+00 5.273065e+00 4.000000e-01
      vertex   6.663638e+00 1.277788e+01 0.000000e+00
    endloop
  endfacet
  facet normal 9.563376e-01 -2.922641e-01 0.000000e+00
    outer loop
      vertex   6.663638e+00 1.277788e+01 0.000000e+00
      vertex   4.370108e+00 5.273065e+00 4.000000e-01
      vertex   4.370108e+00 5.273065e+00 0.000000e+00
    endloop
  endfacet
  facet normal 2.080226e-03 -9.999978e-01 0.000000e+00
    outer loop
      vertex   4.370108e+00 5.273065e+00 4.000000e-01
      vertex   2.527410e+00 5.269232e+00 4.000000e-01
      vertex   4.370108e+00 5.273065e+00 0.000000e+00
    endloop
  endfacet
  facet normal 2.080226e-03 -9.999978e-01 0.000000e+00
    outer loop
      vertex   4.370108e+00 5.273065e+00 0.000000e+00
      vertex   2.527410e+00 5.269232e+00 4.000000e-01
      vertex   2.527410e+00 5.269232e+00 0.000000e+00
    endloop
  endfacet
  facet normal -9.995001e-01 3.161478e-02 0.000000e+00
    outer loop
      vertex   2.527410e+00 5.269232e+00 4.000000e-01
      vertex   2.758306e+00 1.256900e+01 4.000000e-01
      vertex   2.527410e+00 5.269232e+00 0.000000e+00
    endloop
  endfacet
  facet normal -9.995001e-01 3.161478e-02 0.000000e+00
    outer loop
      vertex   2.527410e+00 5.269232e+00 0.000000e+00
      vertex   2.758306e+00 1.256900e+01 4.000000e-01
      vertex   2.758306e+00 1.256900e+01 0.000000e+00
    endloop
  endfacet
  facet normal 9.840635e-01 -1.778174e-01 0.000000e+00
    outer loop
      vertex   2.758306e+00 1.256900e+01 4.000000e-01
      vertex   1.438325e+00 5.264061e+00 4.000000e-01
      vertex   2.758306e+00 1.256900e+01 0.000000e+00
    endloop
  endfacet
  facet normal 9.840635e-01 -1.778174e-01 0.000000e+00
    outer loop
      vertex   2.758306e+00 1.256900e+01 0.000000e+00
      vertex   1.438325e+00 5.264061e+00 4.000000e-01
      vertex   1.438325e+00 5.264061e+00 0.000000e+00
    endloop
  endfacet
  facet normal -4.430396e-03 -9.999902e-01 -0.000000e+00
    outer loop
      vertex   1.438325e+00 5.264061e+00 4.000000e-01
      vertex   -1.143090e+00 5.275498e+00 4.000000e-01
      vertex   1.438325e+00 5.264061e+00 0.000000e+00
    endloop
  endfacet
  facet normal -4.430396e-03 -9.999902e-01 0.000000e+00
    outer loop
      vertex   1.438325e+00 5.264061e+00 0.000000e+00
      vertex   -1.143090e+00 5.275498e+00 4.000000e-01
      vertex   -1.143090e+00 5.275498e+00 0.000000e+00
    endloop
  endfacet
  facet normal -9.848013e-01 1.736850e-01 0.000000e+00
    outer loop
      vertex   -1.143090e+00 5.275498e+00 4.000000e-01
      vertex   8.597546e-01 1.663171e+01 4.000000e-01
      vertex   -1.143090e+00 5.275498e+00 0.000000e+00
    endloop
  endfacet
  facet normal -9.848013e-01 1.736850e-01 0.000000e+00
    outer loop
      vertex   -1.143090e+00 5.275498e+00 0.000000e+00
      vertex   8.597546e-01 1.663171e+01 4.000000e-01
      vertex   8.597546e-01 1.663171e+01 0.000000e+00
    endloop
  endfacet
  facet normal -1.120186e-03 9.999994e-01 0.000000e+00
    outer loop
      vertex   8.597546e-01 1.663171e+01 4.000000e-01
      vertex   4.682142e+00 1.663599e+01 4.000000e-01
      vertex   8.597546e-01 1.663171e+01 0.000000e+00
    endloop
  endfacet
  facet normal -1.120186e-03 9.999994e-01 0.000000e+00
    outer loop
      vertex   8.597546e-01 1.663171e+01 0.000000e+00
      vertex   4.682142e+00 1.663599e+01 4.000000e-01
      vertex   4.682142e+00 1.663599e+01 0.000000e+00
    endloop
  endfacet
  facet normal 9.994989e-01 -3.165419e-02 0.000000e+00
    outer loop
      vertex   4.682142e+00 1.663599e+01 4.000000e-01
      vertex   4.517186e+00 1.142741e+01 4.000000e-01
      vertex   4.682142e+00 1.663599e+01 0.000000e+00
    endloop
  endfacet
  facet normal 9.994989e-01 -3.165419e-02 0.000000e+00
    outer loop
      vertex   4.682142e+00 1.663599e+01 0.000000e+00
      vertex   4.517186e+00 1.142741e+01 4.000000e-01
      vertex   4.517186e+00 1.142741e+01 0.000000e+00
    endloop
  endfacet
  facet normal -9.514939e-01 3.076675e-01 0.000000e+00
    outer loop
      vertex   4.517186e+00 1.142741e+01 4.000000e-01
      vertex   5.154311e+00 1.339779e+01 4.000000e-01
      vertex   4.517186e+00 1.142741e+01 0.000000e+00
    endloop
  endfacet
  facet normal -9.514939e-01 3.076675e-01 0.000000e+00
    outer loop
      vertex   4.517186e+00 1.142741e+01 0.000000e+00
      vertex   5.154311e+00 1.339779e+01 4.000000e-01
      vertex   5.154311e+00 1.339779e+01 0.000000e+00
    endloop
  endfacet
  facet normal -9.562346e-01 2.926010e-01 0.000000e+00
    outer loop
      vertex   5.154311e+00 1.339779e+01 4.000000e-01
      vertex   6.146294e+00 1.663964e+01 4.000000e-01
      vertex   5.154311e+00 1.339779e+01 0.000000e+00
    endloop
  endfacet
  facet normal -9.562346e-01 2.926010e-01 0.000000e+00
    outer loop
      vertex   5.154311e+00 1.339779e+01 0.000000e+00
      vertex   6.146294e+00 1.663964e+01 4.000000e-01
      vertex   6.146294e+00 1.663964e+01 0.000000e+00
    endloop
  endfacet
  facet normal 5.544794e-03 9.999846e-01 0.000000e+00
    outer loop
      vertex   6.146294e+00 1.663964e+01 4.000000e-01
      vertex   9.985022e+00 1.661835e+01 4.000000e-01
      vertex   6.146294e+00 1.663964e+01 0.000000e+00
    endloop
  endfacet
  facet normal 5.544794e-03 9.999846e-01 0.000000e+00
    outer loop
      vertex   6.146294e+00 1.663964e+01 0.000000e+00
      vertex   9.985022e+00 1.661835e+01 4.000000e-01
      vertex   9.985022e+00 1.661835e+01 0.000000e+00
    endloop
  endfacet
  facet normal 9.847057e-01 -1.742262e-01 0.000000e+00
    outer loop
      vertex   9.985022e+00 1.661835e+01 4.000000e-01
      vertex   7.976849e+00 5.268394e+00 4.000000e-01
      vertex   9.985022e+00 1.661835e+01 0.000000e+00
    endloop
  endfacet
  facet normal 9.847057e-01 -1.742262e-01 0.000000e+00
    outer loop
      vertex   9.985022e+00 1.661835e+01 0.000000e+00
      vertex   7.976849e+00 5.268394e+00 4.000000e-01
      vertex   7.976849e+00 5.268394e+00 0.000000e+00
    endloop
  endfacet
  facet normal 1.365352e-03 -9.999991e-01 0.000000e+00
    outer loop
      vertex   7.976849e+00 5.268394e+00 4.000000e-01
      vertex   5.394091e+00 5.264868e+00 4.000000e-01
      vertex   7.976849e+00 5.268394e+00 0.000000e+00
    endloop
  endfacet
  facet normal 1.365352e-03 -9.999991e-01 0.000000e+00
    outer loop
      vertex   7.976849e+00 5.268394e+00 0.000000e+00
      vertex   5.394091e+00 5.264868e+00 4.000000e-01
      vertex   5.394091e+00 5.264868e+00 0.000000e+00
    endloop
  endfacet
  facet normal 0.000000e+00 0.000000e+00 -1.000000e+00
    outer loop
      vertex   1.438325e+00 5.264061e+00 0.000000e+00
      vertex   -1.143090e+00 5.275498e+00 0.000000e+00
      vertex   2.758306e+00 1.256900e+01 0.000000e+00
    endloop
  endfacet
  facet normal -0.000000e+00 0.000000e+00 -1.000000e+00
    outer loop
      vertex   2.758306e+00 1.256900e+01 0.000000e+00
      vertex   -1.143090e+00 5.275498e+00 0.000000e+00
      vertex   8.597546e-01 1.663171e+01 0.000000e+00
    endloop
  endfacet
  facet normal 0.000000e+00 0.000000e+00 -1.000000e+00
    outer loop
      vertex   2.758306e+00 1.256900e+01 0.000000e+00
      vertex   8.597546e-01 1.663171e+01 0.000000e+00
      vertex   4.682142e+00 1.663599e+01 0.000000e+00
    endloop
  endfacet
  facet normal 0.000000e+00 0.000000e+00 -1.000000e+00
    outer loop
      vertex   4.682142e+00 1.663599e+01 0.000000e+00
      vertex   4.517186e+00 1.142741e+01 0.000000e+00
      vertex   2.758306e+00 1.256900e+01 0.000000e+00
    endloop
  endfacet
  facet normal 0.000000e+00 -0.000000e+00 -1.000000e+00
    outer loop
      vertex   2.758306e+00 1.256900e+01 0.000000e+00
      vertex   4.517186e+00 1.142741e+01 0.000000e+00
      vertex   2.527410e+00 5.269232e+00 0.000000e+00
    endloop
  endfacet
  facet normal 0.000000e+00 0.000000e+00 -1.000000e+00
    outer loop
      vertex   2.527410e+00 5.269232e+00 0.000000e+00
      vertex   4.517186e+00 1.142741e+01 0.000000e+00
      vertex   4.370108e+00 5.273065e+00 0.000000e+00
    endloop
  endfacet
  facet normal 0.000000e+00 0.000000e+00 -1.000000e+00
    outer loop
      vertex   4.370108e+00 5.273065e+00 0.000000e+00
      vertex   4.517186e+00 1.142741e+01 0.000000e+00
      vertex   6.663638e+00 1.277788e+01 0.000000e+00
    endloop
  endfacet
  facet normal -0.000000e+00 0.000000e+00 -1.000000e+00
    outer loop
      vertex   6.663638e+00 1.277788e+01 0.000000e+00
      vertex   4.517186e+00 1.142741e+01 0.000000e+00
      vertex   5.154311e+00 1.339779e+01 0.000000e+00
    endloop
  endfacet
  facet normal 0.000000e+00 0.000000e+00 -1.000000e+00
    outer loop
      vertex   6.663638e+00 1.277788e+01 0.000000e+00
      vertex   5.154311e+00 1.339779e+01 0.000000e+00
      vertex   6.146294e+00 1.663964e+01 0.000000e+00
    endloop
  endfacet
  facet normal 0.000000e+00 0.000000e+00 -1.000000e+00
    outer loop
      vertex   6.146294e+00 1.663964e+01 0.000000e+00
      vertex   9.985022e+00 1.661835e+01 0.000000e+00
      vertex   6.663638e+00 1.277788e+01 0.000000e+00
    endloop
  endfacet
  facet normal 0.000000e+00 -0.000000e+00 -1.000000e+00
    outer loop
      vertex   6.663638e+00 1.277788e+01 0.000000e+00
      vertex   9.985022e+00 1.661835e+01 0.000000e+00
      vertex   6.624450e+00 1.227564e+01 0.000000e+00
    endloop
  endfacet
  facet normal 0.000000e+00 0.000000e+00 -1.000000e+00
    outer loop
      vertex   6.624450e+00 1.227564e+01 0.000000e+00
      vertex   9.985022e+00 1.661835e+01 0.000000e+00
      vertex   7.976849e+00 5.268394e+00 0.000000e+00
    endloop
  endfacet
  facet normal 0.000000e+00 -0.000000e+00 -1.000000e+00
    outer loop
      vertex   6.624450e+00 1.227564e+01 0.000000e+00
      vertex   7.976849e+00 5.268394e+00 0.000000e+00
      vertex   5.394091e+00 5.264868e+00 0.000000e+00
    endloop
  endfacet
endsolid
