solid ASCII
  facet normal 0.000000e+00 0.000000e+00 1.000000e+00
    outer loop
      vertex   4.414794e+01 8.649729e-01 4.000000e-01
      vertex   4.487873e+01 2.285027e+00 4.000000e-01
      vertex   4.415432e+01 3.180254e+00 4.000000e-01
    endloop
  endfacet
  facet normal 0.000000e+00 0.000000e+00 1.000000e+00
    outer loop
      vertex   4.415432e+01 3.180254e+00 4.000000e-01
      vertex   4.487873e+01 2.285027e+00 4.000000e-01
      vertex   4.488705e+01 2.325321e+00 4.000000e-01
    endloop
  endfacet
  facet normal 0.000000e+00 0.000000e+00 1.000000e+00
    outer loop
      vertex   4.415432e+01 3.180254e+00 4.000000e-01
      vertex   4.488705e+01 2.325321e+00 4.000000e-01
      vertex   4.489934e+01 2.362948e+00 4.000000e-01
    endloop
  endfacet
  facet normal -0.000000e+00 0.000000e+00 1.000000e+00
    outer loop
      vertex   4.414794e+01 8.649729e-01 4.000000e-01
      vertex   4.485483e+01 8.644167e-01 4.000000e-01
      vertex   4.487873e+01 2.285027e+00 4.000000e-01
    endloop
  endfacet
  facet normal 0.000000e+00 0.000000e+00 1.000000e+00
    outer loop
      vertex   4.415432e+01 3.180254e+00 4.000000e-01
      vertex   4.489934e+01 2.362948e+00 4.000000e-01
      vertex   4.485083e+01 2.909111e+00 4.000000e-01
    endloop
  endfacet
  facet normal 0.000000e+00 0.000000e+00 1.000000e+00
    outer loop
      vertex   4.485083e+01 2.909111e+00 4.000000e-01
      vertex   4.489934e+01 2.362948e+00 4.000000e-01
      vertex   4.491532e+01 2.397899e+00 4.000000e-01
    endloop
  endfacet
  facet normal 0.000000e+00 0.000000e+00 1.000000e+00
    outer loop
      vertex   4.485083e+01 2.909111e+00 4.000000e-01
      vertex   4.491532e+01 2.397899e+00 4.000000e-01
      vertex   4.493470e+01 2.430161e+00 4.000000e-01
    endloop
  endfacet
  facet normal 0.000000e+00 -0.000000e+00 1.000000e+00
    outer loop
      vertex   4.493470e+01 2.430161e+00 4.000000e-01
      vertex   4.495721e+01 2.459724e+00 4.000000e-01
      vertex   4.485083e+01 2.909111e+00 4.000000e-01
    endloop
  endfacet
  facet normal 0.000000e+00 0.000000e+00 1.000000e+00
    outer loop
      vertex   4.485083e+01 2.909111e+00 4.000000e-01
      vertex   4.495721e+01 2.459724e+00 4.000000e-01
      vertex   4.498257e+01 2.486578e+00 4.000000e-01
    endloop
  endfacet
  facet normal 0.000000e+00 0.000000e+00 1.000000e+00
    outer loop
      vertex   4.485083e+01 2.909111e+00 4.000000e-01
      vertex   4.498257e+01 2.486578e+00 4.000000e-01
      vertex   4.501049e+01 2.510711e+00 4.000000e-01
    endloop
  endfacet
  facet normal 0.000000e+00 -0.000000e+00 1.000000e+00
    outer loop
      vertex   4.501049e+01 2.510711e+00 4.000000e-01
      vertex   4.504069e+01 2.532113e+00 4.000000e-01
      vertex   4.485083e+01 2.909111e+00 4.000000e-01
    endloop
  endfacet
  facet normal 0.000000e+00 0.000000e+00 1.000000e+00
    outer loop
      vertex   4.485083e+01 2.909111e+00 4.000000e-01
      vertex   4.504069e+01 2.532113e+00 4.000000e-01
      vertex   4.507289e+01 2.550772e+00 4.000000e-01
    endloop
  endfacet
  facet normal 0.000000e+00 0.000000e+00 1.000000e+00
    outer loop
      vertex   4.485083e+01 2.909111e+00 4.000000e-01
      vertex   4.507289e+01 2.550772e+00 4.000000e-01
      vertex   4.510682e+01 2.566679e+00 4.000000e-01
    endloop
  endfacet
  facet normal -0.000000e+00 0.000000e+00 1.000000e+00
    outer loop
      vertex   4.485083e+01 2.909111e+00 4.000000e-01
      vertex   4.510682e+01 2.566679e+00 4.000000e-01
      vertex   4.497763e+01 3.005857e+00 4.000000e-01
    endloop
  endfacet
  facet normal 0.000000e+00 0.000000e+00 1.000000e+00
    outer loop
      vertex   4.497763e+01 3.005857e+00 4.000000e-01
      vertex   4.510682e+01 2.566679e+00 4.000000e-01
      vertex   4.514218e+01 2.579822e+00 4.000000e-01
    endloop
  endfacet
  facet normal 0.000000e+00 0.000000e+00 1.000000e+00
    outer loop
      vertex   4.497763e+01 3.005857e+00 4.000000e-01
      vertex   4.514218e+01 2.579822e+00 4.000000e-01
      vertex   4.517870e+01 2.590191e+00 4.000000e-01
    endloop
  endfacet
  facet normal 0.000000e+00 -0.000000e+00 1.000000e+00
    outer loop
      vertex   4.517870e+01 2.590191e+00 4.000000e-01
      vertex   4.521610e+01 2.597774e+00 4.000000e-01
      vertex   4.497763e+01 3.005857e+00 4.000000e-01
    endloop
  endfacet
  facet normal -0.000000e+00 0.000000e+00 1.000000e+00
    outer loop
      vertex   4.497763e+01 3.005857e+00 4.000000e-01
      vertex   4.521610e+01 2.597774e+00 4.000000e-01
      vertex   4.511617e+01 3.086263e+00 4.000000e-01
    endloop
  endfacet
  facet normal 0.000000e+00 0.000000e+00 1.000000e+00
    outer loop
      vertex   4.511617e+01 3.086263e+00 4.000000e-01
      vertex   4.521610e+01 2.597774e+00 4.000000e-01
      vertex   4.525409e+01 2.602562e+00 4.000000e-01
    endloop
  endfacet
  facet normal 0.000000e+00 0.000000e+00 1.000000e+00
    outer loop
      vertex   4.511617e+01 3.086263e+00 4.000000e-01
      vertex   4.525409e+01 2.602562e+00 4.000000e-01
      vertex   4.529240e+01 2.604542e+00 4.000000e-01
    endloop
  endfacet
  facet normal -0.000000e+00 0.000000e+00 1.000000e+00
    outer loop
      vertex   4.511617e+01 3.086263e+00 4.000000e-01
      vertex   4.529240e+01 2.604542e+00 4.000000e-01
      vertex   4.526359e+01 3.147335e+00 4.000000e-01
    endloop
  endfacet
  facet normal 0.000000e+00 0.000000e+00 1.000000e+00
    outer loop
      vertex   4.526359e+01 3.147335e+00 4.000000e-01
      vertex   4.529240e+01 2.604542e+00 4.000000e-01
      vertex   4.533075e+01 2.603705e+00 4.000000e-01
    endloop
  endfacet
  facet normal 0.000000e+00 0.000000e+00 1.000000e+00
    outer loop
      vertex   4.526359e+01 3.147335e+00 4.000000e-01
      vertex   4.533075e+01 2.603705e+00 4.000000e-01
      vertex   4.536884e+01 2.600039e+00 4.000000e-01
    endloop
  endfacet
  facet normal -0.000000e+00 0.000000e+00 1.000000e+00
    outer loop
      vertex   4.526359e+01 3.147335e+00 4.000000e-01
      vertex   4.536884e+01 2.600039e+00 4.000000e-01
      vertex   4.537828e+01 3.178650e+00 4.000000e-01
    endloop
  endfacet
  facet normal 0.000000e+00 0.000000e+00 1.000000e+00
    outer loop
      vertex   4.537828e+01 3.178650e+00 4.000000e-01
      vertex   4.536884e+01 2.600039e+00 4.000000e-01
      vertex   4.540641e+01 2.593534e+00 4.000000e-01
    endloop
  endfacet
  facet normal -0.000000e+00 0.000000e+00 1.000000e+00
    outer loop
      vertex   4.537828e+01 3.178650e+00 4.000000e-01
      vertex   4.540641e+01 2.593534e+00 4.000000e-01
      vertex   4.549516e+01 3.196141e+00 4.000000e-01
    endloop
  endfacet
  facet normal 0.000000e+00 0.000000e+00 1.000000e+00
    outer loop
      vertex   4.549516e+01 3.196141e+00 4.000000e-01
      vertex   4.540641e+01 2.593534e+00 4.000000e-01
      vertex   4.544317e+01 2.584179e+00 4.000000e-01
    endloop
  endfacet
  facet normal -0.000000e+00 0.000000e+00 1.000000e+00
    outer loop
      vertex   4.549516e+01 3.196141e+00 4.000000e-01
      vertex   4.544317e+01 2.584179e+00 4.000000e-01
      vertex   4.561304e+01 3.198545e+00 4.000000e-01
    endloop
  endfacet
  facet normal 0.000000e+00 0.000000e+00 1.000000e+00
    outer loop
      vertex   4.561304e+01 3.198545e+00 4.000000e-01
      vertex   4.544317e+01 2.584179e+00 4.000000e-01
      vertex   4.547884e+01 2.571963e+00 4.000000e-01
    endloop
  endfacet
  facet normal 0.000000e+00 0.000000e+00 1.000000e+00
    outer loop
      vertex   4.561304e+01 3.198545e+00 4.000000e-01
      vertex   4.547884e+01 2.571963e+00 4.000000e-01
      vertex   4.569159e+01 3.191142e+00 4.000000e-01
    endloop
  endfacet
  facet normal 0.000000e+00 0.000000e+00 1.000000e+00
    outer loop
      vertex   4.569159e+01 3.191142e+00 4.000000e-01
      vertex   4.547884e+01 2.571963e+00 4.000000e-01
      vertex   4.551313e+01 2.556876e+00 4.000000e-01
    endloop
  endfacet
  facet normal 0.000000e+00 0.000000e+00 1.000000e+00
    outer loop
      vertex   4.569159e+01 3.191142e+00 4.000000e-01
      vertex   4.551313e+01 2.556876e+00 4.000000e-01
      vertex   4.576970e+01 3.176098e+00 4.000000e-01
    endloop
  endfacet
  facet normal 0.000000e+00 0.000000e+00 1.000000e+00
    outer loop
      vertex   4.576970e+01 3.176098e+00 4.000000e-01
      vertex   4.551313e+01 2.556876e+00 4.000000e-01
      vertex   4.554578e+01 2.538905e+00 4.000000e-01
    endloop
  endfacet
  facet normal 0.000000e+00 0.000000e+00 1.000000e+00
    outer loop
      vertex   4.576970e+01 3.176098e+00 4.000000e-01
      vertex   4.554578e+01 2.538905e+00 4.000000e-01
      vertex   4.584700e+01 3.153038e+00 4.000000e-01
    endloop
  endfacet
  facet normal 0.000000e+00 0.000000e+00 1.000000e+00
    outer loop
      vertex   4.584700e+01 3.153038e+00 4.000000e-01
      vertex   4.554578e+01 2.538905e+00 4.000000e-01
      vertex   4.557649e+01 2.518042e+00 4.000000e-01
    endloop
  endfacet
  facet normal 0.000000e+00 0.000000e+00 1.000000e+00
    outer loop
      vertex   4.584700e+01 3.153038e+00 4.000000e-01
      vertex   4.557649e+01 2.518042e+00 4.000000e-01
      vertex   4.592315e+01 3.121587e+00 4.000000e-01
    endloop
  endfacet
  facet normal 0.000000e+00 0.000000e+00 1.000000e+00
    outer loop
      vertex   4.592315e+01 3.121587e+00 4.000000e-01
      vertex   4.557649e+01 2.518042e+00 4.000000e-01
      vertex   4.560499e+01 2.494275e+00 4.000000e-01
    endloop
  endfacet
  facet normal 0.000000e+00 0.000000e+00 1.000000e+00
    outer loop
      vertex   4.592315e+01 3.121587e+00 4.000000e-01
      vertex   4.560499e+01 2.494275e+00 4.000000e-01
      vertex   4.598769e+01 3.094953e+00 4.000000e-01
    endloop
  endfacet
  facet normal 0.000000e+00 0.000000e+00 1.000000e+00
    outer loop
      vertex   4.598769e+01 3.094953e+00 4.000000e-01
      vertex   4.560499e+01 2.494275e+00 4.000000e-01
      vertex   4.604778e+01 3.062188e+00 4.000000e-01
    endloop
  endfacet
  facet normal 0.000000e+00 0.000000e+00 1.000000e+00
    outer loop
      vertex   4.604778e+01 3.062188e+00 4.000000e-01
      vertex   4.560499e+01 2.494275e+00 4.000000e-01
      vertex   4.563099e+01 2.467592e+00 4.000000e-01
    endloop
  endfacet
  facet normal 0.000000e+00 0.000000e+00 1.000000e+00
    outer loop
      vertex   4.604778e+01 3.062188e+00 4.000000e-01
      vertex   4.563099e+01 2.467592e+00 4.000000e-01
      vertex   4.612961e+01 3.002643e+00 4.000000e-01
    endloop
  endfacet
  facet normal 0.000000e+00 0.000000e+00 1.000000e+00
    outer loop
      vertex   4.612961e+01 3.002643e+00 4.000000e-01
      vertex   4.563099e+01 2.467592e+00 4.000000e-01
      vertex   4.620155e+01 2.932127e+00 4.000000e-01
    endloop
  endfacet
  facet normal 0.000000e+00 0.000000e+00 1.000000e+00
    outer loop
      vertex   4.620155e+01 2.932127e+00 4.000000e-01
      vertex   4.563099e+01 2.467592e+00 4.000000e-01
      vertex   4.565421e+01 2.437984e+00 4.000000e-01
    endloop
  endfacet
  facet normal 0.000000e+00 0.000000e+00 1.000000e+00
    outer loop
      vertex   4.620155e+01 2.932127e+00 4.000000e-01
      vertex   4.565421e+01 2.437984e+00 4.000000e-01
      vertex   4.628219e+01 2.823961e+00 4.000000e-01
    endloop
  endfacet
  facet normal 0.000000e+00 0.000000e+00 1.000000e+00
    outer loop
      vertex   4.628219e+01 2.823961e+00 4.000000e-01
      vertex   4.565421e+01 2.437984e+00 4.000000e-01
      vertex   4.567438e+01 2.405440e+00 4.000000e-01
    endloop
  endfacet
  facet normal 0.000000e+00 0.000000e+00 1.000000e+00
    outer loop
      vertex   4.628219e+01 2.823961e+00 4.000000e-01
      vertex   4.567438e+01 2.405440e+00 4.000000e-01
      vertex   4.634553e+01 2.703308e+00 4.000000e-01
    endloop
  endfacet
  facet normal 0.000000e+00 0.000000e+00 1.000000e+00
    outer loop
      vertex   4.634553e+01 2.703308e+00 4.000000e-01
      vertex   4.567438e+01 2.405440e+00 4.000000e-01
      vertex   4.569120e+01 2.369948e+00 4.000000e-01
    endloop
  endfacet
  facet normal 0.000000e+00 0.000000e+00 1.000000e+00
    outer loop
      vertex   4.634553e+01 2.703308e+00 4.000000e-01
      vertex   4.569120e+01 2.369948e+00 4.000000e-01
      vertex   4.640065e+01 2.541042e+00 4.000000e-01
    endloop
  endfacet
  facet normal 0.000000e+00 0.000000e+00 1.000000e+00
    outer loop
      vertex   4.640065e+01 2.541042e+00 4.000000e-01
      vertex   4.569120e+01 2.369948e+00 4.000000e-01
      vertex   4.570441e+01 2.331499e+00 4.000000e-01
    endloop
  endfacet
  facet normal 0.000000e+00 0.000000e+00 1.000000e+00
    outer loop
      vertex   4.640065e+01 2.541042e+00 4.000000e-01
      vertex   4.570441e+01 2.331499e+00 4.000000e-01
      vertex   4.643195e+01 2.339874e+00 4.000000e-01
    endloop
  endfacet
  facet normal 0.000000e+00 0.000000e+00 1.000000e+00
    outer loop
      vertex   4.643195e+01 2.339874e+00 4.000000e-01
      vertex   4.570441e+01 2.331499e+00 4.000000e-01
      vertex   4.571180e+01 2.281118e+00 4.000000e-01
    endloop
  endfacet
  facet normal 0.000000e+00 0.000000e+00 1.000000e+00
    outer loop
      vertex   4.643195e+01 2.339874e+00 4.000000e-01
      vertex   4.571180e+01 2.281118e+00 4.000000e-01
      vertex   4.643716e+01 8.595256e-01 4.000000e-01
    endloop
  endfacet
  facet normal 0.000000e+00 0.000000e+00 1.000000e+00
    outer loop
      vertex   4.643716e+01 8.595256e-01 4.000000e-01
      vertex   4.571180e+01 2.281118e+00 4.000000e-01
      vertex   4.574323e+01 8.574651e-01 4.000000e-01
    endloop
  endfacet
  facet normal 0.000000e+00 0.000000e+00 1.000000e+00
    outer loop
      vertex   4.485083e+01 2.909111e+00 4.000000e-01
      vertex   4.484830e+01 3.148957e+00 4.000000e-01
      vertex   4.415432e+01 3.180254e+00 4.000000e-01
    endloop
  endfacet
  facet normal -7.868303e-01 -6.171694e-01 -0.000000e+00
    outer loop
      vertex   4.565421e+01 2.437984e+00 4.000000e-01
      vertex   4.563099e+01 2.467592e+00 4.000000e-01
      vertex   4.565421e+01 2.437984e+00 0.000000e+00
    endloop
  endfacet
  facet normal -7.868303e-01 -6.171694e-01 0.000000e+00
    outer loop
      vertex   4.565421e+01 2.437984e+00 0.000000e+00
      vertex   4.563099e+01 2.467592e+00 4.000000e-01
      vertex   4.563099e+01 2.467592e+00 0.000000e+00
    endloop
  endfacet
  facet normal -7.161973e-01 -6.978978e-01 -0.000000e+00
    outer loop
      vertex   4.563099e+01 2.467592e+00 4.000000e-01
      vertex   4.560499e+01 2.494275e+00 4.000000e-01
      vertex   4.563099e+01 2.467592e+00 0.000000e+00
    endloop
  endfacet
  facet normal -7.161973e-01 -6.978978e-01 0.000000e+00
    outer loop
      vertex   4.563099e+01 2.467592e+00 0.000000e+00
      vertex   4.560499e+01 2.494275e+00 4.000000e-01
      vertex   4.560499e+01 2.494275e+00 0.000000e+00
    endloop
  endfacet
  facet normal -6.405108e-01 -7.679491e-01 -0.000000e+00
    outer loop
      vertex   4.560499e+01 2.494275e+00 4.000000e-01
      vertex   4.557649e+01 2.518042e+00 4.000000e-01
      vertex   4.560499e+01 2.494275e+00 0.000000e+00
    endloop
  endfacet
  facet normal -6.405108e-01 -7.679491e-01 0.000000e+00
    outer loop
      vertex   4.560499e+01 2.494275e+00 0.000000e+00
      vertex   4.557649e+01 2.518042e+00 4.000000e-01
      vertex   4.557649e+01 2.518042e+00 0.000000e+00
    endloop
  endfacet
  facet normal -5.619401e-01 -8.271779e-01 -0.000000e+00
    outer loop
      vertex   4.557649e+01 2.518042e+00 4.000000e-01
      vertex   4.554578e+01 2.538905e+00 4.000000e-01
      vertex   4.557649e+01 2.518042e+00 0.000000e+00
    endloop
  endfacet
  facet normal -5.619401e-01 -8.271779e-01 0.000000e+00
    outer loop
      vertex   4.557649e+01 2.518042e+00 0.000000e+00
      vertex   4.554578e+01 2.538905e+00 4.000000e-01
      vertex   4.554578e+01 2.538905e+00 0.000000e+00
    endloop
  endfacet
  facet normal -4.822401e-01 -8.760391e-01 -0.000000e+00
    outer loop
      vertex   4.554578e+01 2.538905e+00 4.000000e-01
      vertex   4.551313e+01 2.556876e+00 4.000000e-01
      vertex   4.554578e+01 2.538905e+00 0.000000e+00
    endloop
  endfacet
  facet normal -4.822401e-01 -8.760391e-01 0.000000e+00
    outer loop
      vertex   4.554578e+01 2.538905e+00 0.000000e+00
      vertex   4.551313e+01 2.556876e+00 4.000000e-01
      vertex   4.551313e+01 2.556876e+00 0.000000e+00
    endloop
  endfacet
  facet normal -4.026698e-01 -9.153453e-01 -0.000000e+00
    outer loop
      vertex   4.551313e+01 2.556876e+00 4.000000e-01
      vertex   4.547884e+01 2.571963e+00 4.000000e-01
      vertex   4.551313e+01 2.556876e+00 0.000000e+00
    endloop
  endfacet
  facet normal -4.026698e-01 -9.153453e-01 0.000000e+00
    outer loop
      vertex   4.551313e+01 2.556876e+00 0.000000e+00
      vertex   4.547884e+01 2.571963e+00 4.000000e-01
      vertex   4.547884e+01 2.571963e+00 0.000000e+00
    endloop
  endfacet
  facet normal -3.240100e-01 -9.460536e-01 -0.000000e+00
    outer loop
      vertex   4.547884e+01 2.571963e+00 4.000000e-01
      vertex   4.544317e+01 2.584179e+00 4.000000e-01
      vertex   4.547884e+01 2.571963e+00 0.000000e+00
    endloop
  endfacet
  facet normal -3.240100e-01 -9.460536e-01 0.000000e+00
    outer loop
      vertex   4.547884e+01 2.571963e+00 0.000000e+00
      vertex   4.544317e+01 2.584179e+00 4.000000e-01
      vertex   4.544317e+01 2.584179e+00 0.000000e+00
    endloop
  endfacet
  facet normal -2.466368e-01 -9.691080e-01 -0.000000e+00
    outer loop
      vertex   4.544317e+01 2.584179e+00 4.000000e-01
      vertex   4.540641e+01 2.593534e+00 4.000000e-01
      vertex   4.544317e+01 2.584179e+00 0.000000e+00
    endloop
  endfacet
  facet normal -2.466368e-01 -9.691080e-01 0.000000e+00
    outer loop
      vertex   4.544317e+01 2.584179e+00 0.000000e+00
      vertex   4.540641e+01 2.593534e+00 4.000000e-01
      vertex   4.540641e+01 2.593534e+00 0.000000e+00
    endloop
  endfacet
  facet normal -1.706135e-01 -9.853380e-01 -0.000000e+00
    outer loop
      vertex   4.540641e+01 2.593534e+00 4.000000e-01
      vertex   4.536884e+01 2.600039e+00 4.000000e-01
      vertex   4.540641e+01 2.593534e+00 0.000000e+00
    endloop
  endfacet
  facet normal -1.706135e-01 -9.853380e-01 0.000000e+00
    outer loop
      vertex   4.540641e+01 2.593534e+00 0.000000e+00
      vertex   4.536884e+01 2.600039e+00 4.000000e-01
      vertex   4.536884e+01 2.600039e+00 0.000000e+00
    endloop
  endfacet
  facet normal -9.578033e-02 -9.954025e-01 -0.000000e+00
    outer loop
      vertex   4.536884e+01 2.600039e+00 4.000000e-01
      vertex   4.533075e+01 2.603705e+00 4.000000e-01
      vertex   4.536884e+01 2.600039e+00 0.000000e+00
    endloop
  endfacet
  facet normal -9.578033e-02 -9.954025e-01 0.000000e+00
    outer loop
      vertex   4.536884e+01 2.600039e+00 0.000000e+00
      vertex   4.533075e+01 2.603705e+00 4.000000e-01
      vertex   4.533075e+01 2.603705e+00 0.000000e+00
    endloop
  endfacet
  facet normal -2.183051e-02 -9.997617e-01 -0.000000e+00
    outer loop
      vertex   4.533075e+01 2.603705e+00 4.000000e-01
      vertex   4.529240e+01 2.604542e+00 4.000000e-01
      vertex   4.533075e+01 2.603705e+00 0.000000e+00
    endloop
  endfacet
  facet normal -2.183051e-02 -9.997617e-01 0.000000e+00
    outer loop
      vertex   4.533075e+01 2.603705e+00 0.000000e+00
      vertex   4.529240e+01 2.604542e+00 4.000000e-01
      vertex   4.529240e+01 2.604542e+00 0.000000e+00
    endloop
  endfacet
  facet normal 5.162632e-02 -9.986665e-01 0.000000e+00
    outer loop
      vertex   4.529240e+01 2.604542e+00 4.000000e-01
      vertex   4.525409e+01 2.602562e+00 4.000000e-01
      vertex   4.529240e+01 2.604542e+00 0.000000e+00
    endloop
  endfacet
  facet normal 5.162632e-02 -9.986665e-01 0.000000e+00
    outer loop
      vertex   4.529240e+01 2.604542e+00 0.000000e+00
      vertex   4.525409e+01 2.602562e+00 4.000000e-01
      vertex   4.525409e+01 2.602562e+00 0.000000e+00
    endloop
  endfacet
  facet normal 1.250114e-01 -9.921553e-01 0.000000e+00
    outer loop
      vertex   4.525409e+01 2.602562e+00 4.000000e-01
      vertex   4.521610e+01 2.597774e+00 4.000000e-01
      vertex   4.525409e+01 2.602562e+00 0.000000e+00
    endloop
  endfacet
  facet normal 1.250114e-01 -9.921553e-01 0.000000e+00
    outer loop
      vertex   4.525409e+01 2.602562e+00 0.000000e+00
      vertex   4.521610e+01 2.597774e+00 4.000000e-01
      vertex   4.521610e+01 2.597774e+00 0.000000e+00
    endloop
  endfacet
  facet normal 1.987284e-01 -9.800546e-01 0.000000e+00
    outer loop
      vertex   4.521610e+01 2.597774e+00 4.000000e-01
      vertex   4.517870e+01 2.590191e+00 4.000000e-01
      vertex   4.521610e+01 2.597774e+00 0.000000e+00
    endloop
  endfacet
  facet normal 1.987284e-01 -9.800546e-01 0.000000e+00
    outer loop
      vertex   4.521610e+01 2.597774e+00 0.000000e+00
      vertex   4.517870e+01 2.590191e+00 4.000000e-01
      vertex   4.517870e+01 2.590191e+00 0.000000e+00
    endloop
  endfacet
  facet normal 2.731141e-01 -9.619817e-01 0.000000e+00
    outer loop
      vertex   4.517870e+01 2.590191e+00 4.000000e-01
      vertex   4.514218e+01 2.579822e+00 4.000000e-01
      vertex   4.517870e+01 2.590191e+00 0.000000e+00
    endloop
  endfacet
  facet normal 2.731141e-01 -9.619817e-01 0.000000e+00
    outer loop
      vertex   4.517870e+01 2.590191e+00 0.000000e+00
      vertex   4.514218e+01 2.579822e+00 4.000000e-01
      vertex   4.514218e+01 2.579822e+00 0.000000e+00
    endloop
  endfacet
  facet normal 3.483804e-01 -9.373532e-01 0.000000e+00
    outer loop
      vertex   4.514218e+01 2.579822e+00 4.000000e-01
      vertex   4.510682e+01 2.566679e+00 4.000000e-01
      vertex   4.514218e+01 2.579822e+00 0.000000e+00
    endloop
  endfacet
  facet normal 3.483804e-01 -9.373532e-01 0.000000e+00
    outer loop
      vertex   4.514218e+01 2.579822e+00 0.000000e+00
      vertex   4.510682e+01 2.566679e+00 4.000000e-01
      vertex   4.510682e+01 2.566679e+00 0.000000e+00
    endloop
  endfacet
  facet normal 4.245458e-01 -9.054065e-01 0.000000e+00
    outer loop
      vertex   4.510682e+01 2.566679e+00 4.000000e-01
      vertex   4.507289e+01 2.550772e+00 4.000000e-01
      vertex   4.510682e+01 2.566679e+00 0.000000e+00
    endloop
  endfacet
  facet normal 4.245458e-01 -9.054065e-01 0.000000e+00
    outer loop
      vertex   4.510682e+01 2.566679e+00 0.000000e+00
      vertex   4.507289e+01 2.550772e+00 4.000000e-01
      vertex   4.507289e+01 2.550772e+00 0.000000e+00
    endloop
  endfacet
  facet normal 5.013527e-01 -8.652430e-01 0.000000e+00
    outer loop
      vertex   4.507289e+01 2.550772e+00 4.000000e-01
      vertex   4.504069e+01 2.532113e+00 4.000000e-01
      vertex   4.507289e+01 2.550772e+00 0.000000e+00
    endloop
  endfacet
  facet normal 5.013527e-01 -8.652430e-01 0.000000e+00
    outer loop
      vertex   4.507289e+01 2.550772e+00 0.000000e+00
      vertex   4.504069e+01 2.532113e+00 4.000000e-01
      vertex   4.504069e+01 2.532113e+00 0.000000e+00
    endloop
  endfacet
  facet normal 5.781771e-01 -8.159113e-01 0.000000e+00
    outer loop
      vertex   4.504069e+01 2.532113e+00 4.000000e-01
      vertex   4.501049e+01 2.510711e+00 4.000000e-01
      vertex   4.504069e+01 2.532113e+00 0.000000e+00
    endloop
  endfacet
  facet normal 5.781771e-01 -8.159113e-01 0.000000e+00
    outer loop
      vertex   4.504069e+01 2.532113e+00 0.000000e+00
      vertex   4.501049e+01 2.510711e+00 4.000000e-01
      vertex   4.501049e+01 2.510711e+00 0.000000e+00
    endloop
  endfacet
  facet normal 6.539463e-01 -7.565409e-01 0.000000e+00
    outer loop
      vertex   4.501049e+01 2.510711e+00 4.000000e-01
      vertex   4.498257e+01 2.486578e+00 4.000000e-01
      vertex   4.501049e+01 2.510711e+00 0.000000e+00
    endloop
  endfacet
  facet normal 6.539463e-01 -7.565409e-01 0.000000e+00
    outer loop
      vertex   4.501049e+01 2.510711e+00 0.000000e+00
      vertex   4.498257e+01 2.486578e+00 4.000000e-01
      vertex   4.498257e+01 2.486578e+00 0.000000e+00
    endloop
  endfacet
  facet normal 7.270959e-01 -6.865359e-01 0.000000e+00
    outer loop
      vertex   4.498257e+01 2.486578e+00 4.000000e-01
      vertex   4.495721e+01 2.459724e+00 4.000000e-01
      vertex   4.498257e+01 2.486578e+00 0.000000e+00
    endloop
  endfacet
  facet normal 7.270959e-01 -6.865359e-01 0.000000e+00
    outer loop
      vertex   4.498257e+01 2.486578e+00 0.000000e+00
      vertex   4.495721e+01 2.459724e+00 4.000000e-01
      vertex   4.495721e+01 2.459724e+00 0.000000e+00
    endloop
  endfacet
  facet normal 7.956070e-01 -6.058131e-01 0.000000e+00
    outer loop
      vertex   4.495721e+01 2.459724e+00 4.000000e-01
      vertex   4.493470e+01 2.430161e+00 4.000000e-01
      vertex   4.495721e+01 2.459724e+00 0.000000e+00
    endloop
  endfacet
  facet normal 7.956070e-01 -6.058131e-01 0.000000e+00
    outer loop
      vertex   4.495721e+01 2.459724e+00 0.000000e+00
      vertex   4.493470e+01 2.430161e+00 4.000000e-01
      vertex   4.493470e+01 2.430161e+00 0.000000e+00
    endloop
  endfacet
  facet normal 8.571669e-01 -5.150388e-01 0.000000e+00
    outer loop
      vertex   4.493470e+01 2.430161e+00 4.000000e-01
      vertex   4.491532e+01 2.397899e+00 4.000000e-01
      vertex   4.493470e+01 2.430161e+00 0.000000e+00
    endloop
  endfacet
  facet normal 8.571669e-01 -5.150388e-01 0.000000e+00
    outer loop
      vertex   4.493470e+01 2.430161e+00 0.000000e+00
      vertex   4.491532e+01 2.397899e+00 4.000000e-01
      vertex   4.491532e+01 2.397899e+00 0.000000e+00
    endloop
  endfacet
  facet normal 9.094648e-01 -4.157809e-01 0.000000e+00
    outer loop
      vertex   4.491532e+01 2.397899e+00 4.000000e-01
      vertex   4.489934e+01 2.362948e+00 4.000000e-01
      vertex   4.491532e+01 2.397899e+00 0.000000e+00
    endloop
  endfacet
  facet normal 9.094648e-01 -4.157809e-01 0.000000e+00
    outer loop
      vertex   4.491532e+01 2.397899e+00 0.000000e+00
      vertex   4.489934e+01 2.362948e+00 4.000000e-01
      vertex   4.489934e+01 2.362948e+00 0.000000e+00
    endloop
  endfacet
  facet normal 9.505774e-01 -3.104877e-01 0.000000e+00
    outer loop
      vertex   4.489934e+01 2.362948e+00 4.000000e-01
      vertex   4.488705e+01 2.325321e+00 4.000000e-01
      vertex   4.489934e+01 2.362948e+00 0.000000e+00
    endloop
  endfacet
  facet normal 9.505774e-01 -3.104877e-01 0.000000e+00
    outer loop
      vertex   4.489934e+01 2.362948e+00 0.000000e+00
      vertex   4.488705e+01 2.325321e+00 4.000000e-01
      vertex   4.488705e+01 2.325321e+00 0.000000e+00
    endloop
  endfacet
  facet normal 9.793346e-01 -2.022468e-01 0.000000e+00
    outer loop
      vertex   4.488705e+01 2.325321e+00 4.000000e-01
      vertex   4.487873e+01 2.285027e+00 4.000000e-01
      vertex   4.488705e+01 2.325321e+00 0.000000e+00
    endloop
  endfacet
  facet normal 9.793346e-01 -2.022468e-01 0.000000e+00
    outer loop
      vertex   4.488705e+01 2.325321e+00 0.000000e+00
      vertex   4.487873e+01 2.285027e+00 4.000000e-01
      vertex   4.487873e+01 2.285027e+00 0.000000e+00
    endloop
  endfacet
  facet normal 9.998585e-01 -1.681946e-02 0.000000e+00
    outer loop
      vertex   4.487873e+01 2.285027e+00 4.000000e-01
      vertex   4.485483e+01 8.644167e-01 4.000000e-01
      vertex   4.487873e+01 2.285027e+00 0.000000e+00
    endloop
  endfacet
  facet normal 9.998585e-01 -1.681946e-02 0.000000e+00
    outer loop
      vertex   4.487873e+01 2.285027e+00 0.000000e+00
      vertex   4.485483e+01 8.644167e-01 4.000000e-01
      vertex   4.485483e+01 8.644167e-01 0.000000e+00
    endloop
  endfacet
  facet normal -7.868850e-04 -9.999997e-01 -0.000000e+00
    outer loop
      vertex   4.485483e+01 8.644167e-01 4.000000e-01
      vertex   4.414794e+01 8.649729e-01 4.000000e-01
      vertex   4.485483e+01 8.644167e-01 0.000000e+00
    endloop
  endfacet
  facet normal -7.868850e-04 -9.999997e-01 0.000000e+00
    outer loop
      vertex   4.485483e+01 8.644167e-01 0.000000e+00
      vertex   4.414794e+01 8.649729e-01 4.000000e-01
      vertex   4.414794e+01 8.649729e-01 0.000000e+00
    endloop
  endfacet
  facet normal -9.999962e-01 2.755885e-03 0.000000e+00
    outer loop
      vertex   4.414794e+01 8.649729e-01 4.000000e-01
      vertex   4.415432e+01 3.180254e+00 4.000000e-01
      vertex   4.414794e+01 8.649729e-01 0.000000e+00
    endloop
  endfacet
  facet normal -9.999962e-01 2.755885e-03 0.000000e+00
    outer loop
      vertex   4.414794e+01 8.649729e-01 0.000000e+00
      vertex   4.415432e+01 3.180254e+00 4.000000e-01
      vertex   4.415432e+01 3.180254e+00 0.000000e+00
    endloop
  endfacet
  facet normal 4.505140e-02 9.989847e-01 0.000000e+00
    outer loop
      vertex   4.415432e+01 3.180254e+00 4.000000e-01
      vertex   4.484830e+01 3.148957e+00 4.000000e-01
      vertex   4.415432e+01 3.180254e+00 0.000000e+00
    endloop
  endfacet
  facet normal 4.505140e-02 9.989847e-01 0.000000e+00
    outer loop
      vertex   4.415432e+01 3.180254e+00 0.000000e+00
      vertex   4.484830e+01 3.148957e+00 4.000000e-01
      vertex   4.484830e+01 3.148957e+00 0.000000e+00
    endloop
  endfacet
  facet normal 9.999446e-01 1.052776e-02 0.000000e+00
    outer loop
      vertex   4.484830e+01 3.148957e+00 4.000000e-01
      vertex   4.485083e+01 2.909111e+00 4.000000e-01
      vertex   4.484830e+01 3.148957e+00 0.000000e+00
    endloop
  endfacet
  facet normal 9.999446e-01 1.052776e-02 0.000000e+00
    outer loop
      vertex   4.484830e+01 3.148957e+00 0.000000e+00
      vertex   4.485083e+01 2.909111e+00 4.000000e-01
      vertex   4.485083e+01 2.909111e+00 0.000000e+00
    endloop
  endfacet
  facet normal -6.065620e-01 7.950362e-01 0.000000e+00
    outer loop
      vertex   4.485083e+01 2.909111e+00 4.000000e-01
      vertex   4.497763e+01 3.005857e+00 4.000000e-01
      vertex   4.485083e+01 2.909111e+00 0.000000e+00
    endloop
  endfacet
  facet normal -6.065620e-01 7.950362e-01 0.000000e+00
    outer loop
      vertex   4.485083e+01 2.909111e+00 0.000000e+00
      vertex   4.497763e+01 3.005857e+00 4.000000e-01
      vertex   4.497763e+01 3.005857e+00 0.000000e+00
    endloop
  endfacet
  facet normal -5.019783e-01 8.648802e-01 0.000000e+00
    outer loop
      vertex   4.497763e+01 3.005857e+00 4.000000e-01
      vertex   4.511617e+01 3.086263e+00 4.000000e-01
      vertex   4.497763e+01 3.005857e+00 0.000000e+00
    endloop
  endfacet
  facet normal -5.019783e-01 8.648802e-01 0.000000e+00
    outer loop
      vertex   4.497763e+01 3.005857e+00 0.000000e+00
      vertex   4.511617e+01 3.086263e+00 4.000000e-01
      vertex   4.511617e+01 3.086263e+00 0.000000e+00
    endloop
  endfacet
  facet normal -3.827307e-01 9.238600e-01 0.000000e+00
    outer loop
      vertex   4.511617e+01 3.086263e+00 4.000000e-01
      vertex   4.526359e+01 3.147335e+00 4.000000e-01
      vertex   4.511617e+01 3.086263e+00 0.000000e+00
    endloop
  endfacet
  facet normal -3.827307e-01 9.238600e-01 0.000000e+00
    outer loop
      vertex   4.511617e+01 3.086263e+00 0.000000e+00
      vertex   4.526359e+01 3.147335e+00 4.000000e-01
      vertex   4.526359e+01 3.147335e+00 0.000000e+00
    endloop
  endfacet
  facet normal -2.634065e-01 9.646849e-01 0.000000e+00
    outer loop
      vertex   4.526359e+01 3.147335e+00 4.000000e-01
      vertex   4.537828e+01 3.178650e+00 4.000000e-01
      vertex   4.526359e+01 3.147335e+00 0.000000e+00
    endloop
  endfacet
  facet normal -2.634065e-01 9.646849e-01 0.000000e+00
    outer loop
      vertex   4.526359e+01 3.147335e+00 0.000000e+00
      vertex   4.537828e+01 3.178650e+00 4.000000e-01
      vertex   4.537828e+01 3.178650e+00 0.000000e+00
    endloop
  endfacet
  facet normal -1.479981e-01 9.889876e-01 0.000000e+00
    outer loop
      vertex   4.537828e+01 3.178650e+00 4.000000e-01
      vertex   4.549516e+01 3.196141e+00 4.000000e-01
      vertex   4.537828e+01 3.178650e+00 0.000000e+00
    endloop
  endfacet
  facet normal -1.479981e-01 9.889876e-01 0.000000e+00
    outer loop
      vertex   4.537828e+01 3.178650e+00 0.000000e+00
      vertex   4.549516e+01 3.196141e+00 4.000000e-01
      vertex   4.549516e+01 3.196141e+00 0.000000e+00
    endloop
  endfacet
  facet normal -2.038897e-02 9.997921e-01 0.000000e+00
    outer loop
      vertex   4.549516e+01 3.196141e+00 4.000000e-01
      vertex   4.561304e+01 3.198545e+00 4.000000e-01
      vertex   4.549516e+01 3.196141e+00 0.000000e+00
    endloop
  endfacet
  facet normal -2.038897e-02 9.997921e-01 0.000000e+00
    outer loop
      vertex   4.549516e+01 3.196141e+00 0.000000e+00
      vertex   4.561304e+01 3.198545e+00 4.000000e-01
      vertex   4.561304e+01 3.198545e+00 0.000000e+00
    endloop
  endfacet
  facet normal 9.383111e-02 9.955881e-01 0.000000e+00
    outer loop
      vertex   4.561304e+01 3.198545e+00 4.000000e-01
      vertex   4.569159e+01 3.191142e+00 4.000000e-01
      vertex   4.561304e+01 3.198545e+00 0.000000e+00
    endloop
  endfacet
  facet normal 9.383111e-02 9.955881e-01 0.000000e+00
    outer loop
      vertex   4.561304e+01 3.198545e+00 0.000000e+00
      vertex   4.569159e+01 3.191142e+00 4.000000e-01
      vertex   4.569159e+01 3.191142e+00 0.000000e+00
    endloop
  endfacet
  facet normal 1.891423e-01 9.819497e-01 0.000000e+00
    outer loop
      vertex   4.569159e+01 3.191142e+00 4.000000e-01
      vertex   4.576970e+01 3.176098e+00 4.000000e-01
      vertex   4.569159e+01 3.191142e+00 0.000000e+00
    endloop
  endfacet
  facet normal 1.891423e-01 9.819497e-01 0.000000e+00
    outer loop
      vertex   4.569159e+01 3.191142e+00 0.000000e+00
      vertex   4.576970e+01 3.176098e+00 4.000000e-01
      vertex   4.576970e+01 3.176098e+00 0.000000e+00
    endloop
  endfacet
  facet normal 2.858580e-01 9.582720e-01 0.000000e+00
    outer loop
      vertex   4.576970e+01 3.176098e+00 4.000000e-01
      vertex   4.584700e+01 3.153038e+00 4.000000e-01
      vertex   4.576970e+01 3.176098e+00 0.000000e+00
    endloop
  endfacet
  facet normal 2.858580e-01 9.582720e-01 0.000000e+00
    outer loop
      vertex   4.576970e+01 3.176098e+00 0.000000e+00
      vertex   4.584700e+01 3.153038e+00 4.000000e-01
      vertex   4.584700e+01 3.153038e+00 0.000000e+00
    endloop
  endfacet
  facet normal 3.817397e-01 9.242699e-01 0.000000e+00
    outer loop
      vertex   4.584700e+01 3.153038e+00 4.000000e-01
      vertex   4.592315e+01 3.121587e+00 4.000000e-01
      vertex   4.584700e+01 3.153038e+00 0.000000e+00
    endloop
  endfacet
  facet normal 3.817397e-01 9.242699e-01 0.000000e+00
    outer loop
      vertex   4.584700e+01 3.153038e+00 0.000000e+00
      vertex   4.592315e+01 3.121587e+00 4.000000e-01
      vertex   4.592315e+01 3.121587e+00 0.000000e+00
    endloop
  endfacet
  facet normal 3.814694e-01 9.243815e-01 0.000000e+00
    outer loop
      vertex   4.592315e+01 3.121587e+00 4.000000e-01
      vertex   4.598769e+01 3.094953e+00 4.000000e-01
      vertex   4.592315e+01 3.121587e+00 0.000000e+00
    endloop
  endfacet
  facet normal 3.814694e-01 9.243815e-01 0.000000e+00
    outer loop
      vertex   4.592315e+01 3.121587e+00 0.000000e+00
      vertex   4.598769e+01 3.094953e+00 4.000000e-01
      vertex   4.598769e+01 3.094953e+00 0.000000e+00
    endloop
  endfacet
  facet normal 4.787277e-01 8.779635e-01 0.000000e+00
    outer loop
      vertex   4.598769e+01 3.094953e+00 4.000000e-01
      vertex   4.604778e+01 3.062188e+00 4.000000e-01
      vertex   4.598769e+01 3.094953e+00 0.000000e+00
    endloop
  endfacet
  facet normal 4.787277e-01 8.779635e-01 0.000000e+00
    outer loop
      vertex   4.598769e+01 3.094953e+00 0.000000e+00
      vertex   4.604778e+01 3.062188e+00 4.000000e-01
      vertex   4.604778e+01 3.062188e+00 0.000000e+00
    endloop
  endfacet
  facet normal 5.883659e-01 8.085948e-01 0.000000e+00
    outer loop
      vertex   4.604778e+01 3.062188e+00 4.000000e-01
      vertex   4.612961e+01 3.002643e+00 4.000000e-01
      vertex   4.604778e+01 3.062188e+00 0.000000e+00
    endloop
  endfacet
  facet normal 5.883659e-01 8.085948e-01 0.000000e+00
    outer loop
      vertex   4.604778e+01 3.062188e+00 0.000000e+00
      vertex   4.612961e+01 3.002643e+00 4.000000e-01
      vertex   4.612961e+01 3.002643e+00 0.000000e+00
    endloop
  endfacet
  facet normal 7.000336e-01 7.141099e-01 0.000000e+00
    outer loop
      vertex   4.612961e+01 3.002643e+00 4.000000e-01
      vertex   4.620155e+01 2.932127e+00 4.000000e-01
      vertex   4.612961e+01 3.002643e+00 0.000000e+00
    endloop
  endfacet
  facet normal 7.000336e-01 7.141099e-01 0.000000e+00
    outer loop
      vertex   4.612961e+01 3.002643e+00 0.000000e+00
      vertex   4.620155e+01 2.932127e+00 4.000000e-01
      vertex   4.620155e+01 2.932127e+00 0.000000e+00
    endloop
  endfacet
  facet normal 8.017137e-01 5.977083e-01 0.000000e+00
    outer loop
      vertex   4.620155e+01 2.932127e+00 4.000000e-01
      vertex   4.628219e+01 2.823961e+00 4.000000e-01
      vertex   4.620155e+01 2.932127e+00 0.000000e+00
    endloop
  endfacet
  facet normal 8.017137e-01 5.977083e-01 0.000000e+00
    outer loop
      vertex   4.620155e+01 2.932127e+00 0.000000e+00
      vertex   4.628219e+01 2.823961e+00 4.000000e-01
      vertex   4.628219e+01 2.823961e+00 0.000000e+00
    endloop
  endfacet
  facet normal 8.853889e-01 4.648511e-01 0.000000e+00
    outer loop
      vertex   4.628219e+01 2.823961e+00 4.000000e-01
      vertex   4.634553e+01 2.703308e+00 4.000000e-01
      vertex   4.628219e+01 2.823961e+00 0.000000e+00
    endloop
  endfacet
  facet normal 8.853889e-01 4.648511e-01 0.000000e+00
    outer loop
      vertex   4.628219e+01 2.823961e+00 0.000000e+00
      vertex   4.634553e+01 2.703308e+00 4.000000e-01
      vertex   4.634553e+01 2.703308e+00 0.000000e+00
    endloop
  endfacet
  facet normal 9.468616e-01 3.216412e-01 0.000000e+00
    outer loop
      vertex   4.634553e+01 2.703308e+00 4.000000e-01
      vertex   4.640065e+01 2.541042e+00 4.000000e-01
      vertex   4.634553e+01 2.703308e+00 0.000000e+00
    endloop
  endfacet
  facet normal 9.468616e-01 3.216412e-01 0.000000e+00
    outer loop
      vertex   4.634553e+01 2.703308e+00 0.000000e+00
      vertex   4.640065e+01 2.541042e+00 4.000000e-01
      vertex   4.640065e+01 2.541042e+00 0.000000e+00
    endloop
  endfacet
  facet normal 9.881156e-01 1.537125e-01 0.000000e+00
    outer loop
      vertex   4.640065e+01 2.541042e+00 4.000000e-01
      vertex   4.643195e+01 2.339874e+00 4.000000e-01
      vertex   4.640065e+01 2.541042e+00 0.000000e+00
    endloop
  endfacet
  facet normal 9.881156e-01 1.537125e-01 0.000000e+00
    outer loop
      vertex   4.640065e+01 2.541042e+00 0.000000e+00
      vertex   4.643195e+01 2.339874e+00 4.000000e-01
      vertex   4.643195e+01 2.339874e+00 0.000000e+00
    endloop
  endfacet
  facet normal 9.999938e-01 3.518579e-03 0.000000e+00
    outer loop
      vertex   4.643195e+01 2.339874e+00 4.000000e-01
      vertex   4.643716e+01 8.595256e-01 4.000000e-01
      vertex   4.643195e+01 2.339874e+00 0.000000e+00
    endloop
  endfacet
  facet normal 9.999938e-01 3.518579e-03 0.000000e+00
    outer loop
      vertex   4.643195e+01 2.339874e+00 0.000000e+00
      vertex   4.643716e+01 8.595256e-01 4.000000e-01
      vertex   4.643716e+01 8.595256e-01 0.000000e+00
    endloop
  endfacet
  facet normal 2.969230e-03 -9.999956e-01 0.000000e+00
    outer loop
      vertex   4.643716e+01 8.595256e-01 4.000000e-01
      vertex   4.574323e+01 8.574651e-01 4.000000e-01
      vertex   4.643716e+01 8.595256e-01 0.000000e+00
    endloop
  endfacet
  facet normal 2.969230e-03 -9.999956e-01 0.000000e+00
    outer loop
      vertex   4.643716e+01 8.595256e-01 0.000000e+00
      vertex   4.574323e+01 8.574651e-01 4.000000e-01
      vertex   4.574323e+01 8.574651e-01 0.000000e+00
    endloop
  endfacet
  facet normal -9.997564e-01 -2.207343e-02 -0.000000e+00
    outer loop
      vertex   4.574323e+01 8.574651e-01 4.000000e-01
      vertex   4.571180e+01 2.281118e+00 4.000000e-01
      vertex   4.574323e+01 8.574651e-01 0.000000e+00
    endloop
  endfacet
  facet normal -9.997564e-01 -2.207343e-02 0.000000e+00
    outer loop
      vertex   4.574323e+01 8.574651e-01 0.000000e+00
      vertex   4.571180e+01 2.281118e+00 4.000000e-01
      vertex   4.571180e+01 2.281118e+00 0.000000e+00
    endloop
  endfacet
  facet normal -9.894258e-01 -1.450402e-01 -0.000000e+00
    outer loop
      vertex   4.571180e+01 2.281118e+00 4.000000e-01
      vertex   4.570441e+01 2.331499e+00 4.000000e-01
      vertex   4.571180e+01 2.281118e+00 0.000000e+00
    endloop
  endfacet
  facet normal -9.894258e-01 -1.450402e-01 0.000000e+00
    outer loop
      vertex   4.571180e+01 2.281118e+00 0.000000e+00
      vertex   4.570441e+01 2.331499e+00 4.000000e-01
      vertex   4.570441e+01 2.331499e+00 0.000000e+00
    endloop
  endfacet
  facet normal -9.457645e-01 -3.248531e-01 -0.000000e+00
    outer loop
      vertex   4.570441e+01 2.331499e+00 4.000000e-01
      vertex   4.569120e+01 2.369948e+00 4.000000e-01
      vertex   4.570441e+01 2.331499e+00 0.000000e+00
    endloop
  endfacet
  facet normal -9.457645e-01 -3.248531e-01 0.000000e+00
    outer loop
      vertex   4.570441e+01 2.331499e+00 0.000000e+00
      vertex   4.569120e+01 2.369948e+00 4.000000e-01
      vertex   4.569120e+01 2.369948e+00 0.000000e+00
    endloop
  endfacet
  facet normal -9.035901e-01 -4.283982e-01 -0.000000e+00
    outer loop
      vertex   4.569120e+01 2.369948e+00 4.000000e-01
      vertex   4.567438e+01 2.405440e+00 4.000000e-01
      vertex   4.569120e+01 2.369948e+00 0.000000e+00
    endloop
  endfacet
  facet normal -9.035901e-01 -4.283982e-01 0.000000e+00
    outer loop
      vertex   4.569120e+01 2.369948e+00 0.000000e+00
      vertex   4.567438e+01 2.405440e+00 4.000000e-01
      vertex   4.567438e+01 2.405440e+00 0.000000e+00
    endloop
  endfacet
  facet normal -8.500398e-01 -5.267185e-01 -0.000000e+00
    outer loop
      vertex   4.567438e+01 2.405440e+00 4.000000e-01
      vertex   4.565421e+01 2.437984e+00 4.000000e-01
      vertex   4.567438e+01 2.405440e+00 0.000000e+00
    endloop
  endfacet
  facet normal -8.500398e-01 -5.267185e-01 0.000000e+00
    outer loop
      vertex   4.567438e+01 2.405440e+00 0.000000e+00
      vertex   4.565421e+01 2.437984e+00 4.000000e-01
      vertex   4.565421e+01 2.437984e+00 0.000000e+00
    endloop
  endfacet
  facet normal 0.000000e+00 0.000000e+00 -1.000000e+00
    outer loop
      vertex   4.485483e+01 8.644167e-01 0.000000e+00
      vertex   4.414794e+01 8.649729e-01 0.000000e+00
      vertex   4.487873e+01 2.285027e+00 0.000000e+00
    endloop
  endfacet
  facet normal -0.000000e+00 0.000000e+00 -1.000000e+00
    outer loop
      vertex   4.487873e+01 2.285027e+00 0.000000e+00
      vertex   4.414794e+01 8.649729e-01 0.000000e+00
      vertex   4.415432e+01 3.180254e+00 0.000000e+00
    endloop
  endfacet
  facet normal 0.000000e+00 0.000000e+00 -1.000000e+00
    outer loop
      vertex   4.487873e+01 2.285027e+00 0.000000e+00
      vertex   4.415432e+01 3.180254e+00 0.000000e+00
      vertex   4.488705e+01 2.325321e+00 0.000000e+00
    endloop
  endfacet
  facet normal 0.000000e+00 0.000000e+00 -1.000000e+00
    outer loop
      vertex   4.488705e+01 2.325321e+00 0.000000e+00
      vertex   4.415432e+01 3.180254e+00 0.000000e+00
      vertex   4.489934e+01 2.362948e+00 0.000000e+00
    endloop
  endfacet
  facet normal 0.000000e+00 0.000000e+00 -1.000000e+00
    outer loop
      vertex   4.489934e+01 2.362948e+00 0.000000e+00
      vertex   4.415432e+01 3.180254e+00 0.000000e+00
      vertex   4.485083e+01 2.909111e+00 0.000000e+00
    endloop
  endfacet
  facet normal 0.000000e+00 0.000000e+00 -1.000000e+00
    outer loop
      vertex   4.489934e+01 2.362948e+00 0.000000e+00
      vertex   4.485083e+01 2.909111e+00 0.000000e+00
      vertex   4.491532e+01 2.397899e+00 0.000000e+00
    endloop
  endfacet
  facet normal 0.000000e+00 0.000000e+00 -1.000000e+00
    outer loop
      vertex   4.491532e+01 2.397899e+00 0.000000e+00
      vertex   4.485083e+01 2.909111e+00 0.000000e+00
      vertex   4.493470e+01 2.430161e+00 0.000000e+00
    endloop
  endfacet
  facet normal 0.000000e+00 0.000000e+00 -1.000000e+00
    outer loop
      vertex   4.493470e+01 2.430161e+00 0.000000e+00
      vertex   4.485083e+01 2.909111e+00 0.000000e+00
      vertex   4.495721e+01 2.459724e+00 0.000000e+00
    endloop
  endfacet
  facet normal 0.000000e+00 0.000000e+00 -1.000000e+00
    outer loop
      vertex   4.495721e+01 2.459724e+00 0.000000e+00
      vertex   4.485083e+01 2.909111e+00 0.000000e+00
      vertex   4.498257e+01 2.486578e+00 0.000000e+00
    endloop
  endfacet
  facet normal 0.000000e+00 0.000000e+00 -1.000000e+00
    outer loop
      vertex   4.498257e+01 2.486578e+00 0.000000e+00
      vertex   4.485083e+01 2.909111e+00 0.000000e+00
      vertex   4.501049e+01 2.510711e+00 0.000000e+00
    endloop
  endfacet
  facet normal 0.000000e+00 0.000000e+00 -1.000000e+00
    outer loop
      vertex   4.501049e+01 2.510711e+00 0.000000e+00
      vertex   4.485083e+01 2.909111e+00 0.000000e+00
      vertex   4.504069e+01 2.532113e+00 0.000000e+00
    endloop
  endfacet
  facet normal 0.000000e+00 0.000000e+00 -1.000000e+00
    outer loop
      vertex   4.504069e+01 2.532113e+00 0.000000e+00
      vertex   4.485083e+01 2.909111e+00 0.000000e+00
      vertex   4.507289e+01 2.550772e+00 0.000000e+00
    endloop
  endfacet
  facet normal 0.000000e+00 0.000000e+00 -1.000000e+00
    outer loop
      vertex   4.507289e+01 2.550772e+00 0.000000e+00
      vertex   4.485083e+01 2.909111e+00 0.000000e+00
      vertex   4.510682e+01 2.566679e+00 0.000000e+00
    endloop
  endfacet
  facet normal 0.000000e+00 0.000000e+00 -1.000000e+00
    outer loop
      vertex   4.510682e+01 2.566679e+00 0.000000e+00
      vertex   4.485083e+01 2.909111e+00 0.000000e+00
      vertex   4.497763e+01 3.005857e+00 0.000000e+00
    endloop
  endfacet
  facet normal 0.000000e+00 0.000000e+00 -1.000000e+00
    outer loop
      vertex   4.510682e+01 2.566679e+00 0.000000e+00
      vertex   4.497763e+01 3.005857e+00 0.000000e+00
      vertex   4.514218e+01 2.579822e+00 0.000000e+00
    endloop
  endfacet
  facet normal 0.000000e+00 0.000000e+00 -1.000000e+00
    outer loop
      vertex   4.514218e+01 2.579822e+00 0.000000e+00
      vertex   4.497763e+01 3.005857e+00 0.000000e+00
      vertex   4.517870e+01 2.590191e+00 0.000000e+00
    endloop
  endfacet
  facet normal 0.000000e+00 0.000000e+00 -1.000000e+00
    outer loop
      vertex   4.517870e+01 2.590191e+00 0.000000e+00
      vertex   4.497763e+01 3.005857e+00 0.000000e+00
      vertex   4.521610e+01 2.597774e+00 0.000000e+00
    endloop
  endfacet
  facet normal 0.000000e+00 0.000000e+00 -1.000000e+00
    outer loop
      vertex   4.521610e+01 2.597774e+00 0.000000e+00
      vertex   4.497763e+01 3.005857e+00 0.000000e+00
      vertex   4.511617e+01 3.086263e+00 0.000000e+00
    endloop
  endfacet
  facet normal 0.000000e+00 0.000000e+00 -1.000000e+00
    outer loop
      vertex   4.521610e+01 2.597774e+00 0.000000e+00
      vertex   4.511617e+01 3.086263e+00 0.000000e+00
      vertex   4.525409e+01 2.602562e+00 0.000000e+00
    endloop
  endfacet
  facet normal 0.000000e+00 0.000000e+00 -1.000000e+00
    outer loop
      vertex   4.525409e+01 2.602562e+00 0.000000e+00
      vertex   4.511617e+01 3.086263e+00 0.000000e+00
      vertex   4.529240e+01 2.604542e+00 0.000000e+00
    endloop
  endfacet
  facet normal 0.000000e+00 0.000000e+00 -1.000000e+00
    outer loop
      vertex   4.529240e+01 2.604542e+00 0.000000e+00
      vertex   4.511617e+01 3.086263e+00 0.000000e+00
      vertex   4.526359e+01 3.147335e+00 0.000000e+00
    endloop
  endfacet
  facet normal 0.000000e+00 0.000000e+00 -1.000000e+00
    outer loop
      vertex   4.529240e+01 2.604542e+00 0.000000e+00
      vertex   4.526359e+01 3.147335e+00 0.000000e+00
      vertex   4.533075e+01 2.603705e+00 0.000000e+00
    endloop
  endfacet
  facet normal 0.000000e+00 0.000000e+00 -1.000000e+00
    outer loop
      vertex   4.533075e+01 2.603705e+00 0.000000e+00
      vertex   4.526359e+01 3.147335e+00 0.000000e+00
      vertex   4.536884e+01 2.600039e+00 0.000000e+00
    endloop
  endfacet
  facet normal 0.000000e+00 0.000000e+00 -1.000000e+00
    outer loop
      vertex   4.536884e+01 2.600039e+00 0.000000e+00
      vertex   4.526359e+01 3.147335e+00 0.000000e+00
      vertex   4.537828e+01 3.178650e+00 0.000000e+00
    endloop
  endfacet
  facet normal 0.000000e+00 0.000000e+00 -1.000000e+00
    outer loop
      vertex   4.536884e+01 2.600039e+00 0.000000e+00
      vertex   4.537828e+01 3.178650e+00 0.000000e+00
      vertex   4.540641e+01 2.593534e+00 0.000000e+00
    endloop
  endfacet
  facet normal 0.000000e+00 0.000000e+00 -1.000000e+00
    outer loop
      vertex   4.540641e+01 2.593534e+00 0.000000e+00
      vertex   4.537828e+01 3.178650e+00 0.000000e+00
      vertex   4.549516e+01 3.196141e+00 0.000000e+00
    endloop
  endfacet
  facet normal 0.000000e+00 0.000000e+00 -1.000000e+00
    outer loop
      vertex   4.540641e+01 2.593534e+00 0.000000e+00
      vertex   4.549516e+01 3.196141e+00 0.000000e+00
      vertex   4.544317e+01 2.584179e+00 0.000000e+00
    endloop
  endfacet
  facet normal 0.000000e+00 0.000000e+00 -1.000000e+00
    outer loop
      vertex   4.544317e+01 2.584179e+00 0.000000e+00
      vertex   4.549516e+01 3.196141e+00 0.000000e+00
      vertex   4.561304e+01 3.198545e+00 0.000000e+00
    endloop
  endfacet
  facet normal 0.000000e+00 0.000000e+00 -1.000000e+00
    outer loop
      vertex   4.544317e+01 2.584179e+00 0.000000e+00
      vertex   4.561304e+01 3.198545e+00 0.000000e+00
      vertex   4.547884e+01 2.571963e+00 0.000000e+00
    endloop
  endfacet
  facet normal 0.000000e+00 0.000000e+00 -1.000000e+00
    outer loop
      vertex   4.547884e+01 2.571963e+00 0.000000e+00
      vertex   4.561304e+01 3.198545e+00 0.000000e+00
      vertex   4.569159e+01 3.191142e+00 0.000000e+00
    endloop
  endfacet
  facet normal 0.000000e+00 0.000000e+00 -1.000000e+00
    outer loop
      vertex   4.547884e+01 2.571963e+00 0.000000e+00
      vertex   4.569159e+01 3.191142e+00 0.000000e+00
      vertex   4.551313e+01 2.556876e+00 0.000000e+00
    endloop
  endfacet
  facet normal 0.000000e+00 0.000000e+00 -1.000000e+00
    outer loop
      vertex   4.551313e+01 2.556876e+00 0.000000e+00
      vertex   4.569159e+01 3.191142e+00 0.000000e+00
      vertex   4.576970e+01 3.176098e+00 0.000000e+00
    endloop
  endfacet
  facet normal 0.000000e+00 0.000000e+00 -1.000000e+00
    outer loop
      vertex   4.551313e+01 2.556876e+00 0.000000e+00
      vertex   4.576970e+01 3.176098e+00 0.000000e+00
      vertex   4.554578e+01 2.538905e+00 0.000000e+00
    endloop
  endfacet
  facet normal 0.000000e+00 0.000000e+00 -1.000000e+00
    outer loop
      vertex   4.554578e+01 2.538905e+00 0.000000e+00
      vertex   4.576970e+01 3.176098e+00 0.000000e+00
      vertex   4.584700e+01 3.153038e+00 0.000000e+00
    endloop
  endfacet
  facet normal 0.000000e+00 0.000000e+00 -1.000000e+00
    outer loop
      vertex   4.554578e+01 2.538905e+00 0.000000e+00
      vertex   4.584700e+01 3.153038e+00 0.000000e+00
      vertex   4.557649e+01 2.518042e+00 0.000000e+00
    endloop
  endfacet
  facet normal 0.000000e+00 0.000000e+00 -1.000000e+00
    outer loop
      vertex   4.557649e+01 2.518042e+00 0.000000e+00
      vertex   4.584700e+01 3.153038e+00 0.000000e+00
      vertex   4.592315e+01 3.121587e+00 0.000000e+00
    endloop
  endfacet
  facet normal 0.000000e+00 0.000000e+00 -1.000000e+00
    outer loop
      vertex   4.557649e+01 2.518042e+00 0.000000e+00
      vertex   4.592315e+01 3.121587e+00 0.000000e+00
      vertex   4.560499e+01 2.494275e+00 0.000000e+00
    endloop
  endfacet
  facet normal 0.000000e+00 0.000000e+00 -1.000000e+00
    outer loop
      vertex   4.560499e+01 2.494275e+00 0.000000e+00
      vertex   4.592315e+01 3.121587e+00 0.000000e+00
      vertex   4.598769e+01 3.094953e+00 0.000000e+00
    endloop
  endfacet
  facet normal 0.000000e+00 0.000000e+00 -1.000000e+00
    outer loop
      vertex   4.560499e+01 2.494275e+00 0.000000e+00
      vertex   4.598769e+01 3.094953e+00 0.000000e+00
      vertex   4.604778e+01 3.062188e+00 0.000000e+00
    endloop
  endfacet
  facet normal 0.000000e+00 0.000000e+00 -1.000000e+00
    outer loop
      vertex   4.415432e+01 3.180254e+00 0.000000e+00
      vertex   4.484830e+01 3.148957e+00 0.000000e+00
      vertex   4.485083e+01 2.909111e+00 0.000000e+00
    endloop
  endfacet
  facet normal 0.000000e+00 0.000000e+00 -1.000000e+00
    outer loop
      vertex   4.560499e+01 2.494275e+00 0.000000e+00
      vertex   4.604778e+01 3.062188e+00 0.000000e+00
      vertex   4.563099e+01 2.467592e+00 0.000000e+00
    endloop
  endfacet
  facet normal 0.000000e+00 0.000000e+00 -1.000000e+00
    outer loop
      vertex   4.563099e+01 2.467592e+00 0.000000e+00
      vertex   4.604778e+01 3.062188e+00 0.000000e+00
      vertex   4.612961e+01 3.002643e+00 0.000000e+00
    endloop
  endfacet
  facet normal 0.000000e+00 0.000000e+00 -1.000000e+00
    outer loop
      vertex   4.563099e+01 2.467592e+00 0.000000e+00
      vertex   4.612961e+01 3.002643e+00 0.000000e+00
      vertex   4.620155e+01 2.932127e+00 0.000000e+00
    endloop
  endfacet
  facet normal 0.000000e+00 0.000000e+00 -1.000000e+00
    outer loop
      vertex   4.563099e+01 2.467592e+00 0.000000e+00
      vertex   4.620155e+01 2.932127e+00 0.000000e+00
      vertex   4.565421e+01 2.437984e+00 0.000000e+00
    endloop
  endfacet
  facet normal 0.000000e+00 0.000000e+00 -1.000000e+00
    outer loop
      vertex   4.565421e+01 2.437984e+00 0.000000e+00
      vertex   4.620155e+01 2.932127e+00 0.000000e+00
      vertex   4.628219e+01 2.823961e+00 0.000000e+00
    endloop
  endfacet
  facet normal 0.000000e+00 0.000000e+00 -1.000000e+00
    outer loop
      vertex   4.565421e+01 2.437984e+00 0.000000e+00
      vertex   4.628219e+01 2.823961e+00 0.000000e+00
      vertex   4.567438e+01 2.405440e+00 0.000000e+00
    endloop
  endfacet
  facet normal 0.000000e+00 0.000000e+00 -1.000000e+00
    outer loop
      vertex   4.567438e+01 2.405440e+00 0.000000e+00
      vertex   4.628219e+01 2.823961e+00 0.000000e+00
      vertex   4.634553e+01 2.703308e+00 0.000000e+00
    endloop
  endfacet
  facet normal 0.000000e+00 0.000000e+00 -1.000000e+00
    outer loop
      vertex   4.567438e+01 2.405440e+00 0.000000e+00
      vertex   4.634553e+01 2.703308e+00 0.000000e+00
      vertex   4.569120e+01 2.369948e+00 0.000000e+00
    endloop
  endfacet
  facet normal 0.000000e+00 0.000000e+00 -1.000000e+00
    outer loop
      vertex   4.569120e+01 2.369948e+00 0.000000e+00
      vertex   4.634553e+01 2.703308e+00 0.000000e+00
      vertex   4.640065e+01 2.541042e+00 0.000000e+00
    endloop
  endfacet
  facet normal 0.000000e+00 0.000000e+00 -1.000000e+00
    outer loop
      vertex   4.569120e+01 2.369948e+00 0.000000e+00
      vertex   4.640065e+01 2.541042e+00 0.000000e+00
      vertex   4.570441e+01 2.331499e+00 0.000000e+00
    endloop
  endfacet
  facet normal 0.000000e+00 0.000000e+00 -1.000000e+00
    outer loop
      vertex   4.570441e+01 2.331499e+00 0.000000e+00
      vertex   4.640065e+01 2.541042e+00 0.000000e+00
      vertex   4.643195e+01 2.339874e+00 0.000000e+00
    endloop
  endfacet
  facet normal 0.000000e+00 0.000000e+00 -1.000000e+00
    outer loop
      vertex   4.570441e+01 2.331499e+00 0.000000e+00
      vertex   4.643195e+01 2.339874e+00 0.000000e+00
      vertex   4.571180e+01 2.281118e+00 0.000000e+00
    endloop
  endfacet
  facet normal 0.000000e+00 0.000000e+00 -1.000000e+00
    outer loop
      vertex   4.571180e+01 2.281118e+00 0.000000e+00
      vertex   4.643195e+01 2.339874e+00 0.000000e+00
      vertex   4.643716e+01 8.595256e-01 0.000000e+00
    endloop
  endfacet
  facet normal 0.000000e+00 0.000000e+00 -1.000000e+00
    outer loop
      vertex   4.571180e+01 2.281118e+00 0.000000e+00
      vertex   4.643716e+01 8.595256e-01 0.000000e+00
      vertex   4.574323e+01 8.574651e-01 0.000000e+00
    endloop
  endfacet
endsolid
