solid ASCII
  facet normal -0.000000e+00 0.000000e+00 1.000000e+00
    outer loop
      vertex   4.236681e+01 1.464462e+01 4.000000e-01
      vertex   4.233429e+01 1.461406e+01 4.000000e-01
      vertex   4.240240e+01 1.466706e+01 4.000000e-01
    endloop
  endfacet
  facet normal -0.000000e+00 0.000000e+00 1.000000e+00
    outer loop
      vertex   4.240240e+01 1.466706e+01 4.000000e-01
      vertex   4.233429e+01 1.461406e+01 4.000000e-01
      vertex   4.244065e+01 1.468216e+01 4.000000e-01
    endloop
  endfacet
  facet normal -0.000000e+00 0.000000e+00 1.000000e+00
    outer loop
      vertex   4.244065e+01 1.468216e+01 4.000000e-01
      vertex   4.233429e+01 1.461406e+01 4.000000e-01
      vertex   4.250206e+01 1.469273e+01 4.000000e-01
    endloop
  endfacet
  facet normal 0.000000e+00 0.000000e+00 1.000000e+00
    outer loop
      vertex   4.250206e+01 1.469273e+01 4.000000e-01
      vertex   4.233429e+01 1.461406e+01 4.000000e-01
      vertex   4.284244e+01 1.267120e+01 4.000000e-01
    endloop
  endfacet
  facet normal 0.000000e+00 0.000000e+00 1.000000e+00
    outer loop
      vertex   4.250206e+01 1.469273e+01 4.000000e-01
      vertex   4.284244e+01 1.267120e+01 4.000000e-01
      vertex   4.263421e+01 1.467994e+01 4.000000e-01
    endloop
  endfacet
  facet normal 0.000000e+00 0.000000e+00 1.000000e+00
    outer loop
      vertex   4.263421e+01 1.467994e+01 4.000000e-01
      vertex   4.284244e+01 1.267120e+01 4.000000e-01
      vertex   4.306838e+01 1.371605e+01 4.000000e-01
    endloop
  endfacet
  facet normal 0.000000e+00 0.000000e+00 1.000000e+00
    outer loop
      vertex   4.263421e+01 1.467994e+01 4.000000e-01
      vertex   4.306838e+01 1.371605e+01 4.000000e-01
      vertex   4.293425e+01 1.457782e+01 4.000000e-01
    endloop
  endfacet
  facet normal 0.000000e+00 0.000000e+00 1.000000e+00
    outer loop
      vertex   4.293425e+01 1.457782e+01 4.000000e-01
      vertex   4.306838e+01 1.371605e+01 4.000000e-01
      vertex   4.311150e+01 1.406703e+01 4.000000e-01
    endloop
  endfacet
  facet normal 0.000000e+00 0.000000e+00 1.000000e+00
    outer loop
      vertex   4.293425e+01 1.457782e+01 4.000000e-01
      vertex   4.311150e+01 1.406703e+01 4.000000e-01
      vertex   4.296243e+01 1.455801e+01 4.000000e-01
    endloop
  endfacet
  facet normal 0.000000e+00 0.000000e+00 1.000000e+00
    outer loop
      vertex   4.296243e+01 1.455801e+01 4.000000e-01
      vertex   4.311150e+01 1.406703e+01 4.000000e-01
      vertex   4.298776e+01 1.453674e+01 4.000000e-01
    endloop
  endfacet
  facet normal 0.000000e+00 0.000000e+00 1.000000e+00
    outer loop
      vertex   4.298776e+01 1.453674e+01 4.000000e-01
      vertex   4.311150e+01 1.406703e+01 4.000000e-01
      vertex   4.301038e+01 1.451412e+01 4.000000e-01
    endloop
  endfacet
  facet normal 0.000000e+00 0.000000e+00 1.000000e+00
    outer loop
      vertex   4.301038e+01 1.451412e+01 4.000000e-01
      vertex   4.311150e+01 1.406703e+01 4.000000e-01
      vertex   4.303041e+01 1.449022e+01 4.000000e-01
    endloop
  endfacet
  facet normal 0.000000e+00 0.000000e+00 1.000000e+00
    outer loop
      vertex   4.303041e+01 1.449022e+01 4.000000e-01
      vertex   4.311150e+01 1.406703e+01 4.000000e-01
      vertex   4.304797e+01 1.446512e+01 4.000000e-01
    endloop
  endfacet
  facet normal 0.000000e+00 0.000000e+00 1.000000e+00
    outer loop
      vertex   4.304797e+01 1.446512e+01 4.000000e-01
      vertex   4.311150e+01 1.406703e+01 4.000000e-01
      vertex   4.307625e+01 1.441165e+01 4.000000e-01
    endloop
  endfacet
  facet normal 0.000000e+00 0.000000e+00 1.000000e+00
    outer loop
      vertex   4.307625e+01 1.441165e+01 4.000000e-01
      vertex   4.311150e+01 1.406703e+01 4.000000e-01
      vertex   4.309625e+01 1.435437e+01 4.000000e-01
    endloop
  endfacet
  facet normal 0.000000e+00 0.000000e+00 1.000000e+00
    outer loop
      vertex   4.309625e+01 1.435437e+01 4.000000e-01
      vertex   4.311150e+01 1.406703e+01 4.000000e-01
      vertex   4.311299e+01 1.426274e+01 4.000000e-01
    endloop
  endfacet
  facet normal 0.000000e+00 0.000000e+00 1.000000e+00
    outer loop
      vertex   4.189833e+01 1.214971e+01 4.000000e-01
      vertex   4.223882e+01 1.218951e+01 4.000000e-01
      vertex   4.233429e+01 1.461406e+01 4.000000e-01
    endloop
  endfacet
  facet normal 0.000000e+00 0.000000e+00 1.000000e+00
    outer loop
      vertex   4.233429e+01 1.461406e+01 4.000000e-01
      vertex   4.223882e+01 1.218951e+01 4.000000e-01
      vertex   4.248428e+01 1.223804e+01 4.000000e-01
    endloop
  endfacet
  facet normal 0.000000e+00 0.000000e+00 1.000000e+00
    outer loop
      vertex   4.233429e+01 1.461406e+01 4.000000e-01
      vertex   4.248428e+01 1.223804e+01 4.000000e-01
      vertex   4.284244e+01 1.267120e+01 4.000000e-01
    endloop
  endfacet
  facet normal 0.000000e+00 0.000000e+00 1.000000e+00
    outer loop
      vertex   4.284244e+01 1.267120e+01 4.000000e-01
      vertex   4.248428e+01 1.223804e+01 4.000000e-01
      vertex   4.256728e+01 1.227376e+01 4.000000e-01
    endloop
  endfacet
  facet normal 0.000000e+00 0.000000e+00 1.000000e+00
    outer loop
      vertex   4.284244e+01 1.267120e+01 4.000000e-01
      vertex   4.256728e+01 1.227376e+01 4.000000e-01
      vertex   4.261834e+01 1.230527e+01 4.000000e-01
    endloop
  endfacet
  facet normal 0.000000e+00 0.000000e+00 1.000000e+00
    outer loop
      vertex   4.261834e+01 1.230527e+01 4.000000e-01
      vertex   4.266533e+01 1.234395e+01 4.000000e-01
      vertex   4.284244e+01 1.267120e+01 4.000000e-01
    endloop
  endfacet
  facet normal 0.000000e+00 0.000000e+00 1.000000e+00
    outer loop
      vertex   4.284244e+01 1.267120e+01 4.000000e-01
      vertex   4.266533e+01 1.234395e+01 4.000000e-01
      vertex   4.274920e+01 1.245856e+01 4.000000e-01
    endloop
  endfacet
  facet normal 0.000000e+00 0.000000e+00 1.000000e+00
    outer loop
      vertex   4.274920e+01 1.245856e+01 4.000000e-01
      vertex   4.266533e+01 1.234395e+01 4.000000e-01
      vertex   4.270766e+01 1.239069e+01 4.000000e-01
    endloop
  endfacet
  facet normal 0.000000e+00 0.000000e+00 1.000000e+00
    outer loop
      vertex   4.274920e+01 1.245856e+01 4.000000e-01
      vertex   4.270766e+01 1.239069e+01 4.000000e-01
      vertex   4.272691e+01 1.241735e+01 4.000000e-01
    endloop
  endfacet
  facet normal 9.925360e-01 -1.219523e-01 0.000000e+00
    outer loop
      vertex   4.311150e+01 1.406703e+01 4.000000e-01
      vertex   4.306838e+01 1.371605e+01 4.000000e-01
      vertex   4.311150e+01 1.406703e+01 0.000000e+00
    endloop
  endfacet
  facet normal 9.925360e-01 -1.219523e-01 0.000000e+00
    outer loop
      vertex   4.311150e+01 1.406703e+01 0.000000e+00
      vertex   4.306838e+01 1.371605e+01 4.000000e-01
      vertex   4.306838e+01 1.371605e+01 0.000000e+00
    endloop
  endfacet
  facet normal 9.774103e-01 -2.113508e-01 0.000000e+00
    outer loop
      vertex   4.306838e+01 1.371605e+01 4.000000e-01
      vertex   4.284244e+01 1.267120e+01 4.000000e-01
      vertex   4.306838e+01 1.371605e+01 0.000000e+00
    endloop
  endfacet
  facet normal 9.774103e-01 -2.113508e-01 0.000000e+00
    outer loop
      vertex   4.306838e+01 1.371605e+01 0.000000e+00
      vertex   4.284244e+01 1.267120e+01 4.000000e-01
      vertex   4.284244e+01 1.267120e+01 0.000000e+00
    endloop
  endfacet
  facet normal 9.158199e-01 -4.015891e-01 0.000000e+00
    outer loop
      vertex   4.284244e+01 1.267120e+01 4.000000e-01
      vertex   4.274920e+01 1.245856e+01 4.000000e-01
      vertex   4.284244e+01 1.267120e+01 0.000000e+00
    endloop
  endfacet
  facet normal 9.158199e-01 -4.015891e-01 0.000000e+00
    outer loop
      vertex   4.284244e+01 1.267120e+01 0.000000e+00
      vertex   4.274920e+01 1.245856e+01 4.000000e-01
      vertex   4.274920e+01 1.245856e+01 0.000000e+00
    endloop
  endfacet
  facet normal 8.795217e-01 -4.758587e-01 0.000000e+00
    outer loop
      vertex   4.274920e+01 1.245856e+01 4.000000e-01
      vertex   4.272691e+01 1.241735e+01 4.000000e-01
      vertex   4.274920e+01 1.245856e+01 0.000000e+00
    endloop
  endfacet
  facet normal 8.795217e-01 -4.758587e-01 0.000000e+00
    outer loop
      vertex   4.274920e+01 1.245856e+01 0.000000e+00
      vertex   4.272691e+01 1.241735e+01 4.000000e-01
      vertex   4.272691e+01 1.241735e+01 0.000000e+00
    endloop
  endfacet
  facet normal 8.108125e-01 -5.853060e-01 0.000000e+00
    outer loop
      vertex   4.272691e+01 1.241735e+01 4.000000e-01
      vertex   4.270766e+01 1.239069e+01 4.000000e-01
      vertex   4.272691e+01 1.241735e+01 0.000000e+00
    endloop
  endfacet
  facet normal 8.108125e-01 -5.853060e-01 0.000000e+00
    outer loop
      vertex   4.272691e+01 1.241735e+01 0.000000e+00
      vertex   4.270766e+01 1.239069e+01 4.000000e-01
      vertex   4.270766e+01 1.239069e+01 0.000000e+00
    endloop
  endfacet
  facet normal 7.411543e-01 -6.713347e-01 0.000000e+00
    outer loop
      vertex   4.270766e+01 1.239069e+01 4.000000e-01
      vertex   4.266533e+01 1.234395e+01 4.000000e-01
      vertex   4.270766e+01 1.239069e+01 0.000000e+00
    endloop
  endfacet
  facet normal 7.411543e-01 -6.713347e-01 0.000000e+00
    outer loop
      vertex   4.270766e+01 1.239069e+01 0.000000e+00
      vertex   4.266533e+01 1.234395e+01 4.000000e-01
      vertex   4.266533e+01 1.234395e+01 0.000000e+00
    endloop
  endfacet
  facet normal 6.356374e-01 -7.719878e-01 0.000000e+00
    outer loop
      vertex   4.266533e+01 1.234395e+01 4.000000e-01
      vertex   4.261834e+01 1.230527e+01 4.000000e-01
      vertex   4.266533e+01 1.234395e+01 0.000000e+00
    endloop
  endfacet
  facet normal 6.356374e-01 -7.719878e-01 0.000000e+00
    outer loop
      vertex   4.266533e+01 1.234395e+01 0.000000e+00
      vertex   4.261834e+01 1.230527e+01 4.000000e-01
      vertex   4.261834e+01 1.230527e+01 0.000000e+00
    endloop
  endfacet
  facet normal 5.251239e-01 -8.510258e-01 0.000000e+00
    outer loop
      vertex   4.261834e+01 1.230527e+01 4.000000e-01
      vertex   4.256728e+01 1.227376e+01 4.000000e-01
      vertex   4.261834e+01 1.230527e+01 0.000000e+00
    endloop
  endfacet
  facet normal 5.251239e-01 -8.510258e-01 0.000000e+00
    outer loop
      vertex   4.261834e+01 1.230527e+01 0.000000e+00
      vertex   4.256728e+01 1.227376e+01 4.000000e-01
      vertex   4.256728e+01 1.227376e+01 0.000000e+00
    endloop
  endfacet
  facet normal 3.953583e-01 -9.185270e-01 0.000000e+00
    outer loop
      vertex   4.256728e+01 1.227376e+01 4.000000e-01
      vertex   4.248428e+01 1.223804e+01 4.000000e-01
      vertex   4.256728e+01 1.227376e+01 0.000000e+00
    endloop
  endfacet
  facet normal 3.953583e-01 -9.185270e-01 0.000000e+00
    outer loop
      vertex   4.256728e+01 1.227376e+01 0.000000e+00
      vertex   4.248428e+01 1.223804e+01 4.000000e-01
      vertex   4.248428e+01 1.223804e+01 0.000000e+00
    endloop
  endfacet
  facet normal 1.939501e-01 -9.810114e-01 0.000000e+00
    outer loop
      vertex   4.248428e+01 1.223804e+01 4.000000e-01
      vertex   4.223882e+01 1.218951e+01 4.000000e-01
      vertex   4.248428e+01 1.223804e+01 0.000000e+00
    endloop
  endfacet
  facet normal 1.939501e-01 -9.810114e-01 0.000000e+00
    outer loop
      vertex   4.248428e+01 1.223804e+01 0.000000e+00
      vertex   4.223882e+01 1.218951e+01 4.000000e-01
      vertex   4.223882e+01 1.218951e+01 0.000000e+00
    endloop
  endfacet
  facet normal 1.160831e-01 -9.932395e-01 0.000000e+00
    outer loop
      vertex   4.223882e+01 1.218951e+01 4.000000e-01
      vertex   4.189833e+01 1.214971e+01 4.000000e-01
      vertex   4.223882e+01 1.218951e+01 0.000000e+00
    endloop
  endfacet
  facet normal 1.160831e-01 -9.932395e-01 0.000000e+00
    outer loop
      vertex   4.223882e+01 1.218951e+01 0.000000e+00
      vertex   4.189833e+01 1.214971e+01 4.000000e-01
      vertex   4.189833e+01 1.214971e+01 0.000000e+00
    endloop
  endfacet
  facet normal -9.847095e-01 1.742047e-01 0.000000e+00
    outer loop
      vertex   4.189833e+01 1.214971e+01 4.000000e-01
      vertex   4.233429e+01 1.461406e+01 4.000000e-01
      vertex   4.189833e+01 1.214971e+01 0.000000e+00
    endloop
  endfacet
  facet normal -9.847095e-01 1.742047e-01 0.000000e+00
    outer loop
      vertex   4.189833e+01 1.214971e+01 0.000000e+00
      vertex   4.233429e+01 1.461406e+01 4.000000e-01
      vertex   4.233429e+01 1.461406e+01 0.000000e+00
    endloop
  endfacet
  facet normal -6.848279e-01 7.287049e-01 0.000000e+00
    outer loop
      vertex   4.233429e+01 1.461406e+01 4.000000e-01
      vertex   4.236681e+01 1.464462e+01 4.000000e-01
      vertex   4.233429e+01 1.461406e+01 0.000000e+00
    endloop
  endfacet
  facet normal -6.848279e-01 7.287049e-01 0.000000e+00
    outer loop
      vertex   4.233429e+01 1.461406e+01 0.000000e+00
      vertex   4.236681e+01 1.464462e+01 4.000000e-01
      vertex   4.236681e+01 1.464462e+01 0.000000e+00
    endloop
  endfacet
  facet normal -5.333962e-01 8.458655e-01 0.000000e+00
    outer loop
      vertex   4.236681e+01 1.464462e+01 4.000000e-01
      vertex   4.240240e+01 1.466706e+01 4.000000e-01
      vertex   4.236681e+01 1.464462e+01 0.000000e+00
    endloop
  endfacet
  facet normal -5.333962e-01 8.458655e-01 0.000000e+00
    outer loop
      vertex   4.236681e+01 1.464462e+01 0.000000e+00
      vertex   4.240240e+01 1.466706e+01 4.000000e-01
      vertex   4.240240e+01 1.466706e+01 0.000000e+00
    endloop
  endfacet
  facet normal -3.672533e-01 9.301210e-01 0.000000e+00
    outer loop
      vertex   4.240240e+01 1.466706e+01 4.000000e-01
      vertex   4.244065e+01 1.468216e+01 4.000000e-01
      vertex   4.240240e+01 1.466706e+01 0.000000e+00
    endloop
  endfacet
  facet normal -3.672533e-01 9.301210e-01 0.000000e+00
    outer loop
      vertex   4.240240e+01 1.466706e+01 0.000000e+00
      vertex   4.244065e+01 1.468216e+01 4.000000e-01
      vertex   4.244065e+01 1.468216e+01 0.000000e+00
    endloop
  endfacet
  facet normal -1.696215e-01 9.855093e-01 0.000000e+00
    outer loop
      vertex   4.244065e+01 1.468216e+01 4.000000e-01
      vertex   4.250206e+01 1.469273e+01 4.000000e-01
      vertex   4.244065e+01 1.468216e+01 0.000000e+00
    endloop
  endfacet
  facet normal -1.696215e-01 9.855093e-01 0.000000e+00
    outer loop
      vertex   4.244065e+01 1.468216e+01 0.000000e+00
      vertex   4.250206e+01 1.469273e+01 4.000000e-01
      vertex   4.250206e+01 1.469273e+01 0.000000e+00
    endloop
  endfacet
  facet normal 9.633122e-02 9.953493e-01 0.000000e+00
    outer loop
      vertex   4.250206e+01 1.469273e+01 4.000000e-01
      vertex   4.263421e+01 1.467994e+01 4.000000e-01
      vertex   4.250206e+01 1.469273e+01 0.000000e+00
    endloop
  endfacet
  facet normal 9.633122e-02 9.953493e-01 0.000000e+00
    outer loop
      vertex   4.250206e+01 1.469273e+01 0.000000e+00
      vertex   4.263421e+01 1.467994e+01 4.000000e-01
      vertex   4.263421e+01 1.467994e+01 0.000000e+00
    endloop
  endfacet
  facet normal 3.221917e-01 9.466744e-01 0.000000e+00
    outer loop
      vertex   4.263421e+01 1.467994e+01 4.000000e-01
      vertex   4.293425e+01 1.457782e+01 4.000000e-01
      vertex   4.263421e+01 1.467994e+01 0.000000e+00
    endloop
  endfacet
  facet normal 3.221917e-01 9.466744e-01 0.000000e+00
    outer loop
      vertex   4.263421e+01 1.467994e+01 0.000000e+00
      vertex   4.293425e+01 1.457782e+01 4.000000e-01
      vertex   4.293425e+01 1.457782e+01 0.000000e+00
    endloop
  endfacet
  facet normal 5.752848e-01 8.179532e-01 0.000000e+00
    outer loop
      vertex   4.293425e+01 1.457782e+01 4.000000e-01
      vertex   4.296243e+01 1.455801e+01 4.000000e-01
      vertex   4.293425e+01 1.457782e+01 0.000000e+00
    endloop
  endfacet
  facet normal 5.752848e-01 8.179532e-01 0.000000e+00
    outer loop
      vertex   4.293425e+01 1.457782e+01 0.000000e+00
      vertex   4.296243e+01 1.455801e+01 4.000000e-01
      vertex   4.296243e+01 1.455801e+01 0.000000e+00
    endloop
  endfacet
  facet normal 6.428870e-01 7.659610e-01 0.000000e+00
    outer loop
      vertex   4.296243e+01 1.455801e+01 4.000000e-01
      vertex   4.298776e+01 1.453674e+01 4.000000e-01
      vertex   4.296243e+01 1.455801e+01 0.000000e+00
    endloop
  endfacet
  facet normal 6.428870e-01 7.659610e-01 0.000000e+00
    outer loop
      vertex   4.296243e+01 1.455801e+01 0.000000e+00
      vertex   4.298776e+01 1.453674e+01 4.000000e-01
      vertex   4.298776e+01 1.453674e+01 0.000000e+00
    endloop
  endfacet
  facet normal 7.072337e-01 7.069798e-01 0.000000e+00
    outer loop
      vertex   4.298776e+01 1.453674e+01 4.000000e-01
      vertex   4.301038e+01 1.451412e+01 4.000000e-01
      vertex   4.298776e+01 1.453674e+01 0.000000e+00
    endloop
  endfacet
  facet normal 7.072337e-01 7.069798e-01 0.000000e+00
    outer loop
      vertex   4.298776e+01 1.453674e+01 0.000000e+00
      vertex   4.301038e+01 1.451412e+01 4.000000e-01
      vertex   4.301038e+01 1.451412e+01 0.000000e+00
    endloop
  endfacet
  facet normal 7.665100e-01 6.422323e-01 0.000000e+00
    outer loop
      vertex   4.301038e+01 1.451412e+01 4.000000e-01
      vertex   4.303041e+01 1.449022e+01 4.000000e-01
      vertex   4.301038e+01 1.451412e+01 0.000000e+00
    endloop
  endfacet
  facet normal 7.665100e-01 6.422323e-01 0.000000e+00
    outer loop
      vertex   4.301038e+01 1.451412e+01 0.000000e+00
      vertex   4.303041e+01 1.449022e+01 4.000000e-01
      vertex   4.303041e+01 1.449022e+01 0.000000e+00
    endloop
  endfacet
  facet normal 8.192550e-01 5.734294e-01 0.000000e+00
    outer loop
      vertex   4.303041e+01 1.449022e+01 4.000000e-01
      vertex   4.304797e+01 1.446512e+01 4.000000e-01
      vertex   4.303041e+01 1.449022e+01 0.000000e+00
    endloop
  endfacet
  facet normal 8.192550e-01 5.734294e-01 0.000000e+00
    outer loop
      vertex   4.303041e+01 1.449022e+01 0.000000e+00
      vertex   4.304797e+01 1.446512e+01 4.000000e-01
      vertex   4.304797e+01 1.446512e+01 0.000000e+00
    endloop
  endfacet
  facet normal 8.839681e-01 4.675473e-01 0.000000e+00
    outer loop
      vertex   4.304797e+01 1.446512e+01 4.000000e-01
      vertex   4.307625e+01 1.441165e+01 4.000000e-01
      vertex   4.304797e+01 1.446512e+01 0.000000e+00
    endloop
  endfacet
  facet normal 8.839681e-01 4.675473e-01 0.000000e+00
    outer loop
      vertex   4.304797e+01 1.446512e+01 0.000000e+00
      vertex   4.307625e+01 1.441165e+01 4.000000e-01
      vertex   4.307625e+01 1.441165e+01 0.000000e+00
    endloop
  endfacet
  facet normal 9.441085e-01 3.296350e-01 0.000000e+00
    outer loop
      vertex   4.307625e+01 1.441165e+01 4.000000e-01
      vertex   4.309625e+01 1.435437e+01 4.000000e-01
      vertex   4.307625e+01 1.441165e+01 0.000000e+00
    endloop
  endfacet
  facet normal 9.441085e-01 3.296350e-01 0.000000e+00
    outer loop
      vertex   4.307625e+01 1.441165e+01 0.000000e+00
      vertex   4.309625e+01 1.435437e+01 4.000000e-01
      vertex   4.309625e+01 1.435437e+01 0.000000e+00
    endloop
  endfacet
  facet normal 9.837315e-01 1.796453e-01 0.000000e+00
    outer loop
      vertex   4.309625e+01 1.435437e+01 4.000000e-01
      vertex   4.311299e+01 1.426274e+01 4.000000e-01
      vertex   4.309625e+01 1.435437e+01 0.000000e+00
    endloop
  endfacet
  facet normal 9.837315e-01 1.796453e-01 0.000000e+00
    outer loop
      vertex   4.309625e+01 1.435437e+01 0.000000e+00
      vertex   4.311299e+01 1.426274e+01 4.000000e-01
      vertex   4.311299e+01 1.426274e+01 0.000000e+00
    endloop
  endfacet
  facet normal 9.999713e-01 -7.580609e-03 0.000000e+00
    outer loop
      vertex   4.311299e+01 1.426274e+01 4.000000e-01
      vertex   4.311150e+01 1.406703e+01 4.000000e-01
      vertex   4.311299e+01 1.426274e+01 0.000000e+00
    endloop
  endfacet
  facet normal 9.999713e-01 -7.580609e-03 0.000000e+00
    outer loop
      vertex   4.311299e+01 1.426274e+01 0.000000e+00
      vertex   4.311150e+01 1.406703e+01 4.000000e-01
      vertex   4.311150e+01 1.406703e+01 0.000000e+00
    endloop
  endfacet
  facet normal 0.000000e+00 -0.000000e+00 -1.000000e+00
    outer loop
      vertex   4.236681e+01 1.464462e+01 0.000000e+00
      vertex   4.240240e+01 1.466706e+01 0.000000e+00
      vertex   4.233429e+01 1.461406e+01 0.000000e+00
    endloop
  endfacet
  facet normal 0.000000e+00 0.000000e+00 -1.000000e+00
    outer loop
      vertex   4.233429e+01 1.461406e+01 0.000000e+00
      vertex   4.240240e+01 1.466706e+01 0.000000e+00
      vertex   4.244065e+01 1.468216e+01 0.000000e+00
    endloop
  endfacet
  facet normal 0.000000e+00 0.000000e+00 -1.000000e+00
    outer loop
      vertex   4.233429e+01 1.461406e+01 0.000000e+00
      vertex   4.244065e+01 1.468216e+01 0.000000e+00
      vertex   4.250206e+01 1.469273e+01 0.000000e+00
    endloop
  endfacet
  facet normal 0.000000e+00 0.000000e+00 -1.000000e+00
    outer loop
      vertex   4.233429e+01 1.461406e+01 0.000000e+00
      vertex   4.250206e+01 1.469273e+01 0.000000e+00
      vertex   4.284244e+01 1.267120e+01 0.000000e+00
    endloop
  endfacet
  facet normal 0.000000e+00 0.000000e+00 -1.000000e+00
    outer loop
      vertex   4.284244e+01 1.267120e+01 0.000000e+00
      vertex   4.250206e+01 1.469273e+01 0.000000e+00
      vertex   4.263421e+01 1.467994e+01 0.000000e+00
    endloop
  endfacet
  facet normal 0.000000e+00 0.000000e+00 -1.000000e+00
    outer loop
      vertex   4.284244e+01 1.267120e+01 0.000000e+00
      vertex   4.263421e+01 1.467994e+01 0.000000e+00
      vertex   4.306838e+01 1.371605e+01 0.000000e+00
    endloop
  endfacet
  facet normal 0.000000e+00 0.000000e+00 -1.000000e+00
    outer loop
      vertex   4.306838e+01 1.371605e+01 0.000000e+00
      vertex   4.263421e+01 1.467994e+01 0.000000e+00
      vertex   4.293425e+01 1.457782e+01 0.000000e+00
    endloop
  endfacet
  facet normal 0.000000e+00 0.000000e+00 -1.000000e+00
    outer loop
      vertex   4.306838e+01 1.371605e+01 0.000000e+00
      vertex   4.293425e+01 1.457782e+01 0.000000e+00
      vertex   4.311150e+01 1.406703e+01 0.000000e+00
    endloop
  endfacet
  facet normal 0.000000e+00 0.000000e+00 -1.000000e+00
    outer loop
      vertex   4.311150e+01 1.406703e+01 0.000000e+00
      vertex   4.293425e+01 1.457782e+01 0.000000e+00
      vertex   4.296243e+01 1.455801e+01 0.000000e+00
    endloop
  endfacet
  facet normal 0.000000e+00 0.000000e+00 -1.000000e+00
    outer loop
      vertex   4.311150e+01 1.406703e+01 0.000000e+00
      vertex   4.296243e+01 1.455801e+01 0.000000e+00
      vertex   4.298776e+01 1.453674e+01 0.000000e+00
    endloop
  endfacet
  facet normal 0.000000e+00 0.000000e+00 -1.000000e+00
    outer loop
      vertex   4.298776e+01 1.453674e+01 0.000000e+00
      vertex   4.301038e+01 1.451412e+01 0.000000e+00
      vertex   4.311150e+01 1.406703e+01 0.000000e+00
    endloop
  endfacet
  facet normal 0.000000e+00 0.000000e+00 -1.000000e+00
    outer loop
      vertex   4.311150e+01 1.406703e+01 0.000000e+00
      vertex   4.301038e+01 1.451412e+01 0.000000e+00
      vertex   4.303041e+01 1.449022e+01 0.000000e+00
    endloop
  endfacet
  facet normal 0.000000e+00 0.000000e+00 -1.000000e+00
    outer loop
      vertex   4.311150e+01 1.406703e+01 0.000000e+00
      vertex   4.303041e+01 1.449022e+01 0.000000e+00
      vertex   4.304797e+01 1.446512e+01 0.000000e+00
    endloop
  endfacet
  facet normal 0.000000e+00 0.000000e+00 -1.000000e+00
    outer loop
      vertex   4.304797e+01 1.446512e+01 0.000000e+00
      vertex   4.307625e+01 1.441165e+01 0.000000e+00
      vertex   4.311150e+01 1.406703e+01 0.000000e+00
    endloop
  endfacet
  facet normal 0.000000e+00 0.000000e+00 -1.000000e+00
    outer loop
      vertex   4.311150e+01 1.406703e+01 0.000000e+00
      vertex   4.307625e+01 1.441165e+01 0.000000e+00
      vertex   4.309625e+01 1.435437e+01 0.000000e+00
    endloop
  endfacet
  facet normal 0.000000e+00 0.000000e+00 -1.000000e+00
    outer loop
      vertex   4.311150e+01 1.406703e+01 0.000000e+00
      vertex   4.309625e+01 1.435437e+01 0.000000e+00
      vertex   4.311299e+01 1.426274e+01 0.000000e+00
    endloop
  endfacet
  facet normal -0.000000e+00 0.000000e+00 -1.000000e+00
    outer loop
      vertex   4.274920e+01 1.245856e+01 0.000000e+00
      vertex   4.266533e+01 1.234395e+01 0.000000e+00
      vertex   4.284244e+01 1.267120e+01 0.000000e+00
    endloop
  endfacet
  facet normal 0.000000e+00 0.000000e+00 -1.000000e+00
    outer loop
      vertex   4.284244e+01 1.267120e+01 0.000000e+00
      vertex   4.266533e+01 1.234395e+01 0.000000e+00
      vertex   4.261834e+01 1.230527e+01 0.000000e+00
    endloop
  endfacet
  facet normal 0.000000e+00 0.000000e+00 -1.000000e+00
    outer loop
      vertex   4.284244e+01 1.267120e+01 0.000000e+00
      vertex   4.261834e+01 1.230527e+01 0.000000e+00
      vertex   4.256728e+01 1.227376e+01 0.000000e+00
    endloop
  endfacet
  facet normal -0.000000e+00 0.000000e+00 -1.000000e+00
    outer loop
      vertex   4.272691e+01 1.241735e+01 0.000000e+00
      vertex   4.270766e+01 1.239069e+01 0.000000e+00
      vertex   4.274920e+01 1.245856e+01 0.000000e+00
    endloop
  endfacet
  facet normal 0.000000e+00 0.000000e+00 -1.000000e+00
    outer loop
      vertex   4.274920e+01 1.245856e+01 0.000000e+00
      vertex   4.270766e+01 1.239069e+01 0.000000e+00
      vertex   4.266533e+01 1.234395e+01 0.000000e+00
    endloop
  endfacet
  facet normal -0.000000e+00 0.000000e+00 -1.000000e+00
    outer loop
      vertex   4.256728e+01 1.227376e+01 0.000000e+00
      vertex   4.248428e+01 1.223804e+01 0.000000e+00
      vertex   4.284244e+01 1.267120e+01 0.000000e+00
    endloop
  endfacet
  facet normal -0.000000e+00 0.000000e+00 -1.000000e+00
    outer loop
      vertex   4.284244e+01 1.267120e+01 0.000000e+00
      vertex   4.248428e+01 1.223804e+01 0.000000e+00
      vertex   4.233429e+01 1.461406e+01 0.000000e+00
    endloop
  endfacet
  facet normal -0.000000e+00 0.000000e+00 -1.000000e+00
    outer loop
      vertex   4.248428e+01 1.223804e+01 0.000000e+00
      vertex   4.223882e+01 1.218951e+01 0.000000e+00
      vertex   4.233429e+01 1.461406e+01 0.000000e+00
    endloop
  endfacet
  facet normal 0.000000e+00 0.000000e+00 -1.000000e+00
    outer loop
      vertex   4.233429e+01 1.461406e+01 0.000000e+00
      vertex   4.223882e+01 1.218951e+01 0.000000e+00
      vertex   4.189833e+01 1.214971e+01 0.000000e+00
    endloop
  endfacet
endsolid
