solid ASCII
  facet normal 0.000000e+00 0.000000e+00 1.000000e+00
    outer loop
      vertex   8.034721e+01 1.355012e+01 4.000000e-01
      vertex   8.025195e+01 1.309331e+01 4.000000e-01
      vertex   8.041364e+01 1.350877e+01 4.000000e-01
    endloop
  endfacet
  facet normal 0.000000e+00 0.000000e+00 1.000000e+00
    outer loop
      vertex   8.041364e+01 1.350877e+01 4.000000e-01
      vertex   8.025195e+01 1.309331e+01 4.000000e-01
      vertex   8.047313e+01 1.346264e+01 4.000000e-01
    endloop
  endfacet
  facet normal 0.000000e+00 0.000000e+00 1.000000e+00
    outer loop
      vertex   8.047313e+01 1.346264e+01 4.000000e-01
      vertex   8.025195e+01 1.309331e+01 4.000000e-01
      vertex   8.052582e+01 1.341218e+01 4.000000e-01
    endloop
  endfacet
  facet normal 0.000000e+00 0.000000e+00 1.000000e+00
    outer loop
      vertex   8.052582e+01 1.341218e+01 4.000000e-01
      vertex   8.025195e+01 1.309331e+01 4.000000e-01
      vertex   8.057185e+01 1.335783e+01 4.000000e-01
    endloop
  endfacet
  facet normal 0.000000e+00 0.000000e+00 1.000000e+00
    outer loop
      vertex   8.057185e+01 1.335783e+01 4.000000e-01
      vertex   8.025195e+01 1.309331e+01 4.000000e-01
      vertex   8.061135e+01 1.330004e+01 4.000000e-01
    endloop
  endfacet
  facet normal 0.000000e+00 0.000000e+00 1.000000e+00
    outer loop
      vertex   8.061135e+01 1.330004e+01 4.000000e-01
      vertex   8.025195e+01 1.309331e+01 4.000000e-01
      vertex   8.064447e+01 1.323924e+01 4.000000e-01
    endloop
  endfacet
  facet normal 0.000000e+00 0.000000e+00 1.000000e+00
    outer loop
      vertex   8.064447e+01 1.323924e+01 4.000000e-01
      vertex   8.025195e+01 1.309331e+01 4.000000e-01
      vertex   8.067133e+01 1.317588e+01 4.000000e-01
    endloop
  endfacet
  facet normal 0.000000e+00 0.000000e+00 1.000000e+00
    outer loop
      vertex   8.067133e+01 1.317588e+01 4.000000e-01
      vertex   8.025195e+01 1.309331e+01 4.000000e-01
      vertex   8.069208e+01 1.311040e+01 4.000000e-01
    endloop
  endfacet
  facet normal 0.000000e+00 0.000000e+00 1.000000e+00
    outer loop
      vertex   8.069208e+01 1.311040e+01 4.000000e-01
      vertex   8.025195e+01 1.309331e+01 4.000000e-01
      vertex   8.070685e+01 1.304325e+01 4.000000e-01
    endloop
  endfacet
  facet normal 0.000000e+00 0.000000e+00 1.000000e+00
    outer loop
      vertex   8.070685e+01 1.304325e+01 4.000000e-01
      vertex   8.025195e+01 1.309331e+01 4.000000e-01
      vertex   8.071578e+01 1.297487e+01 4.000000e-01
    endloop
  endfacet
  facet normal 0.000000e+00 0.000000e+00 1.000000e+00
    outer loop
      vertex   8.071578e+01 1.297487e+01 4.000000e-01
      vertex   8.025195e+01 1.309331e+01 4.000000e-01
      vertex   8.071901e+01 1.290569e+01 4.000000e-01
    endloop
  endfacet
  facet normal 0.000000e+00 0.000000e+00 1.000000e+00
    outer loop
      vertex   8.071901e+01 1.290569e+01 4.000000e-01
      vertex   8.025195e+01 1.309331e+01 4.000000e-01
      vertex   8.071666e+01 1.283617e+01 4.000000e-01
    endloop
  endfacet
  facet normal 0.000000e+00 0.000000e+00 1.000000e+00
    outer loop
      vertex   8.071666e+01 1.283617e+01 4.000000e-01
      vertex   8.025195e+01 1.309331e+01 4.000000e-01
      vertex   8.070889e+01 1.276674e+01 4.000000e-01
    endloop
  endfacet
  facet normal 0.000000e+00 0.000000e+00 1.000000e+00
    outer loop
      vertex   8.070889e+01 1.276674e+01 4.000000e-01
      vertex   8.025195e+01 1.309331e+01 4.000000e-01
      vertex   8.069582e+01 1.269786e+01 4.000000e-01
    endloop
  endfacet
  facet normal 0.000000e+00 0.000000e+00 1.000000e+00
    outer loop
      vertex   8.069582e+01 1.269786e+01 4.000000e-01
      vertex   8.025195e+01 1.309331e+01 4.000000e-01
      vertex   8.067759e+01 1.262995e+01 4.000000e-01
    endloop
  endfacet
  facet normal 0.000000e+00 0.000000e+00 1.000000e+00
    outer loop
      vertex   8.067759e+01 1.262995e+01 4.000000e-01
      vertex   8.025195e+01 1.309331e+01 4.000000e-01
      vertex   8.065433e+01 1.256346e+01 4.000000e-01
    endloop
  endfacet
  facet normal 0.000000e+00 0.000000e+00 1.000000e+00
    outer loop
      vertex   8.065433e+01 1.256346e+01 4.000000e-01
      vertex   8.025195e+01 1.309331e+01 4.000000e-01
      vertex   8.062620e+01 1.249885e+01 4.000000e-01
    endloop
  endfacet
  facet normal 0.000000e+00 0.000000e+00 1.000000e+00
    outer loop
      vertex   8.062620e+01 1.249885e+01 4.000000e-01
      vertex   8.025195e+01 1.309331e+01 4.000000e-01
      vertex   8.059331e+01 1.243654e+01 4.000000e-01
    endloop
  endfacet
  facet normal 0.000000e+00 0.000000e+00 1.000000e+00
    outer loop
      vertex   8.059331e+01 1.243654e+01 4.000000e-01
      vertex   8.025195e+01 1.309331e+01 4.000000e-01
      vertex   8.055581e+01 1.237698e+01 4.000000e-01
    endloop
  endfacet
  facet normal 0.000000e+00 0.000000e+00 1.000000e+00
    outer loop
      vertex   8.055581e+01 1.237698e+01 4.000000e-01
      vertex   8.025195e+01 1.309331e+01 4.000000e-01
      vertex   8.051384e+01 1.232062e+01 4.000000e-01
    endloop
  endfacet
  facet normal 0.000000e+00 0.000000e+00 1.000000e+00
    outer loop
      vertex   8.051384e+01 1.232062e+01 4.000000e-01
      vertex   8.025195e+01 1.309331e+01 4.000000e-01
      vertex   8.046753e+01 1.226790e+01 4.000000e-01
    endloop
  endfacet
  facet normal 0.000000e+00 0.000000e+00 1.000000e+00
    outer loop
      vertex   8.046753e+01 1.226790e+01 4.000000e-01
      vertex   8.025195e+01 1.309331e+01 4.000000e-01
      vertex   8.041701e+01 1.221925e+01 4.000000e-01
    endloop
  endfacet
  facet normal 0.000000e+00 0.000000e+00 1.000000e+00
    outer loop
      vertex   8.041701e+01 1.221925e+01 4.000000e-01
      vertex   8.025195e+01 1.309331e+01 4.000000e-01
      vertex   8.036243e+01 1.217513e+01 4.000000e-01
    endloop
  endfacet
  facet normal 0.000000e+00 0.000000e+00 1.000000e+00
    outer loop
      vertex   8.036243e+01 1.217513e+01 4.000000e-01
      vertex   8.025195e+01 1.309331e+01 4.000000e-01
      vertex   8.030392e+01 1.213598e+01 4.000000e-01
    endloop
  endfacet
  facet normal 0.000000e+00 0.000000e+00 1.000000e+00
    outer loop
      vertex   8.030392e+01 1.213598e+01 4.000000e-01
      vertex   8.025195e+01 1.309331e+01 4.000000e-01
      vertex   8.024162e+01 1.210223e+01 4.000000e-01
    endloop
  endfacet
  facet normal 0.000000e+00 -0.000000e+00 1.000000e+00
    outer loop
      vertex   8.024162e+01 1.210223e+01 4.000000e-01
      vertex   8.025195e+01 1.309331e+01 4.000000e-01
      vertex   8.017566e+01 1.207433e+01 4.000000e-01
    endloop
  endfacet
  facet normal 0.000000e+00 -0.000000e+00 1.000000e+00
    outer loop
      vertex   8.017566e+01 1.207433e+01 4.000000e-01
      vertex   8.025195e+01 1.309331e+01 4.000000e-01
      vertex   8.010619e+01 1.205273e+01 4.000000e-01
    endloop
  endfacet
  facet normal 0.000000e+00 -0.000000e+00 1.000000e+00
    outer loop
      vertex   8.010619e+01 1.205273e+01 4.000000e-01
      vertex   8.025195e+01 1.309331e+01 4.000000e-01
      vertex   8.003333e+01 1.203786e+01 4.000000e-01
    endloop
  endfacet
  facet normal 0.000000e+00 -0.000000e+00 1.000000e+00
    outer loop
      vertex   8.003333e+01 1.203786e+01 4.000000e-01
      vertex   8.025195e+01 1.309331e+01 4.000000e-01
      vertex   7.995722e+01 1.203017e+01 4.000000e-01
    endloop
  endfacet
  facet normal 9.439348e-01 -3.301319e-01 0.000000e+00
    outer loop
      vertex   8.067759e+01 1.262995e+01 4.000000e-01
      vertex   8.065433e+01 1.256346e+01 4.000000e-01
      vertex   8.067759e+01 1.262995e+01 0.000000e+00
    endloop
  endfacet
  facet normal 9.439348e-01 -3.301319e-01 0.000000e+00
    outer loop
      vertex   8.067759e+01 1.262995e+01 0.000000e+00
      vertex   8.065433e+01 1.256346e+01 4.000000e-01
      vertex   8.065433e+01 1.256346e+01 0.000000e+00
    endloop
  endfacet
  facet normal 9.168471e-01 -3.992385e-01 0.000000e+00
    outer loop
      vertex   8.065433e+01 1.256346e+01 4.000000e-01
      vertex   8.062620e+01 1.249885e+01 4.000000e-01
      vertex   8.065433e+01 1.256346e+01 0.000000e+00
    endloop
  endfacet
  facet normal 9.168471e-01 -3.992385e-01 0.000000e+00
    outer loop
      vertex   8.065433e+01 1.256346e+01 0.000000e+00
      vertex   8.062620e+01 1.249885e+01 4.000000e-01
      vertex   8.062620e+01 1.249885e+01 0.000000e+00
    endloop
  endfacet
  facet normal 8.843769e-01 -4.667734e-01 0.000000e+00
    outer loop
      vertex   8.062620e+01 1.249885e+01 4.000000e-01
      vertex   8.059331e+01 1.243654e+01 4.000000e-01
      vertex   8.062620e+01 1.249885e+01 0.000000e+00
    endloop
  endfacet
  facet normal 8.843769e-01 -4.667734e-01 0.000000e+00
    outer loop
      vertex   8.062620e+01 1.249885e+01 0.000000e+00
      vertex   8.059331e+01 1.243654e+01 4.000000e-01
      vertex   8.059331e+01 1.243654e+01 0.000000e+00
    endloop
  endfacet
  facet normal 8.462333e-01 -5.328125e-01 0.000000e+00
    outer loop
      vertex   8.059331e+01 1.243654e+01 4.000000e-01
      vertex   8.055581e+01 1.237698e+01 4.000000e-01
      vertex   8.059331e+01 1.243654e+01 0.000000e+00
    endloop
  endfacet
  facet normal 8.462333e-01 -5.328125e-01 0.000000e+00
    outer loop
      vertex   8.059331e+01 1.243654e+01 0.000000e+00
      vertex   8.055581e+01 1.237698e+01 4.000000e-01
      vertex   8.055581e+01 1.237698e+01 0.000000e+00
    endloop
  endfacet
  facet normal 8.020270e-01 -5.972878e-01 0.000000e+00
    outer loop
      vertex   8.055581e+01 1.237698e+01 4.000000e-01
      vertex   8.051384e+01 1.232062e+01 4.000000e-01
      vertex   8.055581e+01 1.237698e+01 0.000000e+00
    endloop
  endfacet
  facet normal 8.020270e-01 -5.972878e-01 0.000000e+00
    outer loop
      vertex   8.055581e+01 1.237698e+01 0.000000e+00
      vertex   8.051384e+01 1.232062e+01 4.000000e-01
      vertex   8.051384e+01 1.232062e+01 0.000000e+00
    endloop
  endfacet
  facet normal 7.513119e-01 -6.599472e-01 0.000000e+00
    outer loop
      vertex   8.051384e+01 1.232062e+01 4.000000e-01
      vertex   8.046753e+01 1.226790e+01 4.000000e-01
      vertex   8.051384e+01 1.232062e+01 0.000000e+00
    endloop
  endfacet
  facet normal 7.513119e-01 -6.599472e-01 0.000000e+00
    outer loop
      vertex   8.051384e+01 1.232062e+01 0.000000e+00
      vertex   8.046753e+01 1.226790e+01 4.000000e-01
      vertex   8.046753e+01 1.226790e+01 0.000000e+00
    endloop
  endfacet
  facet normal 6.936437e-01 -7.203183e-01 0.000000e+00
    outer loop
      vertex   8.046753e+01 1.226790e+01 4.000000e-01
      vertex   8.041701e+01 1.221925e+01 4.000000e-01
      vertex   8.046753e+01 1.226790e+01 0.000000e+00
    endloop
  endfacet
  facet normal 6.936437e-01 -7.203183e-01 0.000000e+00
    outer loop
      vertex   8.046753e+01 1.226790e+01 0.000000e+00
      vertex   8.041701e+01 1.221925e+01 4.000000e-01
      vertex   8.041701e+01 1.221925e+01 0.000000e+00
    endloop
  endfacet
  facet normal 6.286580e-01 -7.776819e-01 0.000000e+00
    outer loop
      vertex   8.041701e+01 1.221925e+01 4.000000e-01
      vertex   8.036243e+01 1.217513e+01 4.000000e-01
      vertex   8.041701e+01 1.221925e+01 0.000000e+00
    endloop
  endfacet
  facet normal 6.286580e-01 -7.776819e-01 0.000000e+00
    outer loop
      vertex   8.041701e+01 1.221925e+01 0.000000e+00
      vertex   8.036243e+01 1.217513e+01 4.000000e-01
      vertex   8.036243e+01 1.217513e+01 0.000000e+00
    endloop
  endfacet
  facet normal 5.561709e-01 -8.310679e-01 0.000000e+00
    outer loop
      vertex   8.036243e+01 1.217513e+01 4.000000e-01
      vertex   8.030392e+01 1.213598e+01 4.000000e-01
      vertex   8.036243e+01 1.217513e+01 0.000000e+00
    endloop
  endfacet
  facet normal 5.561709e-01 -8.310679e-01 0.000000e+00
    outer loop
      vertex   8.036243e+01 1.217513e+01 0.000000e+00
      vertex   8.030392e+01 1.213598e+01 4.000000e-01
      vertex   8.030392e+01 1.213598e+01 0.000000e+00
    endloop
  endfacet
  facet normal 4.762933e-01 -8.792865e-01 0.000000e+00
    outer loop
      vertex   8.030392e+01 1.213598e+01 4.000000e-01
      vertex   8.024162e+01 1.210223e+01 4.000000e-01
      vertex   8.030392e+01 1.213598e+01 0.000000e+00
    endloop
  endfacet
  facet normal 4.762933e-01 -8.792865e-01 0.000000e+00
    outer loop
      vertex   8.030392e+01 1.213598e+01 0.000000e+00
      vertex   8.024162e+01 1.210223e+01 4.000000e-01
      vertex   8.024162e+01 1.210223e+01 0.000000e+00
    endloop
  endfacet
  facet normal 3.895415e-01 -9.210089e-01 0.000000e+00
    outer loop
      vertex   8.024162e+01 1.210223e+01 4.000000e-01
      vertex   8.017566e+01 1.207433e+01 4.000000e-01
      vertex   8.024162e+01 1.210223e+01 0.000000e+00
    endloop
  endfacet
  facet normal 3.895415e-01 -9.210089e-01 0.000000e+00
    outer loop
      vertex   8.024162e+01 1.210223e+01 0.000000e+00
      vertex   8.017566e+01 1.207433e+01 4.000000e-01
      vertex   8.017566e+01 1.207433e+01 0.000000e+00
    endloop
  endfacet
  facet normal 2.969184e-01 -9.549029e-01 0.000000e+00
    outer loop
      vertex   8.017566e+01 1.207433e+01 4.000000e-01
      vertex   8.010619e+01 1.205273e+01 4.000000e-01
      vertex   8.017566e+01 1.207433e+01 0.000000e+00
    endloop
  endfacet
  facet normal 2.969184e-01 -9.549029e-01 0.000000e+00
    outer loop
      vertex   8.017566e+01 1.207433e+01 0.000000e+00
      vertex   8.010619e+01 1.205273e+01 4.000000e-01
      vertex   8.010619e+01 1.205273e+01 0.000000e+00
    endloop
  endfacet
  facet normal 1.999281e-01 -9.798106e-01 0.000000e+00
    outer loop
      vertex   8.010619e+01 1.205273e+01 4.000000e-01
      vertex   8.003333e+01 1.203786e+01 4.000000e-01
      vertex   8.010619e+01 1.205273e+01 0.000000e+00
    endloop
  endfacet
  facet normal 1.999281e-01 -9.798106e-01 0.000000e+00
    outer loop
      vertex   8.010619e+01 1.205273e+01 0.000000e+00
      vertex   8.003333e+01 1.203786e+01 4.000000e-01
      vertex   8.003333e+01 1.203786e+01 0.000000e+00
    endloop
  endfacet
  facet normal 1.005018e-01 -9.949369e-01 0.000000e+00
    outer loop
      vertex   8.003333e+01 1.203786e+01 4.000000e-01
      vertex   7.995722e+01 1.203017e+01 4.000000e-01
      vertex   8.003333e+01 1.203786e+01 0.000000e+00
    endloop
  endfacet
  facet normal 1.005018e-01 -9.949369e-01 0.000000e+00
    outer loop
      vertex   8.003333e+01 1.203786e+01 0.000000e+00
      vertex   7.995722e+01 1.203017e+01 4.000000e-01
      vertex   7.995722e+01 1.203017e+01 0.000000e+00
    endloop
  endfacet
  facet normal -9.636541e-01 2.671532e-01 0.000000e+00
    outer loop
      vertex   7.995722e+01 1.203017e+01 4.000000e-01
      vertex   8.025195e+01 1.309331e+01 4.000000e-01
      vertex   7.995722e+01 1.203017e+01 0.000000e+00
    endloop
  endfacet
  facet normal -9.636541e-01 2.671532e-01 0.000000e+00
    outer loop
      vertex   7.995722e+01 1.203017e+01 0.000000e+00
      vertex   8.025195e+01 1.309331e+01 4.000000e-01
      vertex   8.025195e+01 1.309331e+01 0.000000e+00
    endloop
  endfacet
  facet normal -9.789424e-01 2.041368e-01 0.000000e+00
    outer loop
      vertex   8.025195e+01 1.309331e+01 4.000000e-01
      vertex   8.034721e+01 1.355012e+01 4.000000e-01
      vertex   8.025195e+01 1.309331e+01 0.000000e+00
    endloop
  endfacet
  facet normal -9.789424e-01 2.041368e-01 0.000000e+00
    outer loop
      vertex   8.025195e+01 1.309331e+01 0.000000e+00
      vertex   8.034721e+01 1.355012e+01 4.000000e-01
      vertex   8.034721e+01 1.355012e+01 0.000000e+00
    endloop
  endfacet
  facet normal 5.285029e-01 8.489315e-01 0.000000e+00
    outer loop
      vertex   8.034721e+01 1.355012e+01 4.000000e-01
      vertex   8.041364e+01 1.350877e+01 4.000000e-01
      vertex   8.034721e+01 1.355012e+01 0.000000e+00
    endloop
  endfacet
  facet normal 5.285029e-01 8.489315e-01 0.000000e+00
    outer loop
      vertex   8.034721e+01 1.355012e+01 0.000000e+00
      vertex   8.041364e+01 1.350877e+01 4.000000e-01
      vertex   8.041364e+01 1.350877e+01 0.000000e+00
    endloop
  endfacet
  facet normal 6.127594e-01 7.902696e-01 0.000000e+00
    outer loop
      vertex   8.041364e+01 1.350877e+01 4.000000e-01
      vertex   8.047313e+01 1.346264e+01 4.000000e-01
      vertex   8.041364e+01 1.350877e+01 0.000000e+00
    endloop
  endfacet
  facet normal 6.127594e-01 7.902696e-01 0.000000e+00
    outer loop
      vertex   8.041364e+01 1.350877e+01 0.000000e+00
      vertex   8.047313e+01 1.346264e+01 4.000000e-01
      vertex   8.047313e+01 1.346264e+01 0.000000e+00
    endloop
  endfacet
  facet normal 6.916402e-01 7.222423e-01 0.000000e+00
    outer loop
      vertex   8.047313e+01 1.346264e+01 4.000000e-01
      vertex   8.052582e+01 1.341218e+01 4.000000e-01
      vertex   8.047313e+01 1.346264e+01 0.000000e+00
    endloop
  endfacet
  facet normal 6.916402e-01 7.222423e-01 0.000000e+00
    outer loop
      vertex   8.047313e+01 1.346264e+01 0.000000e+00
      vertex   8.052582e+01 1.341218e+01 4.000000e-01
      vertex   8.052582e+01 1.341218e+01 0.000000e+00
    endloop
  endfacet
  facet normal 7.630872e-01 6.462956e-01 0.000000e+00
    outer loop
      vertex   8.052582e+01 1.341218e+01 4.000000e-01
      vertex   8.057185e+01 1.335783e+01 4.000000e-01
      vertex   8.052582e+01 1.341218e+01 0.000000e+00
    endloop
  endfacet
  facet normal 7.630872e-01 6.462956e-01 0.000000e+00
    outer loop
      vertex   8.052582e+01 1.341218e+01 0.000000e+00
      vertex   8.057185e+01 1.335783e+01 4.000000e-01
      vertex   8.057185e+01 1.335783e+01 0.000000e+00
    endloop
  endfacet
  facet normal 8.255633e-01 5.643095e-01 0.000000e+00
    outer loop
      vertex   8.057185e+01 1.335783e+01 4.000000e-01
      vertex   8.061135e+01 1.330004e+01 4.000000e-01
      vertex   8.057185e+01 1.335783e+01 0.000000e+00
    endloop
  endfacet
  facet normal 8.255633e-01 5.643095e-01 0.000000e+00
    outer loop
      vertex   8.057185e+01 1.335783e+01 0.000000e+00
      vertex   8.061135e+01 1.330004e+01 4.000000e-01
      vertex   8.061135e+01 1.330004e+01 0.000000e+00
    endloop
  endfacet
  facet normal 8.781737e-01 4.783419e-01 0.000000e+00
    outer loop
      vertex   8.061135e+01 1.330004e+01 4.000000e-01
      vertex   8.064447e+01 1.323924e+01 4.000000e-01
      vertex   8.061135e+01 1.330004e+01 0.000000e+00
    endloop
  endfacet
  facet normal 8.781737e-01 4.783419e-01 0.000000e+00
    outer loop
      vertex   8.061135e+01 1.330004e+01 0.000000e+00
      vertex   8.064447e+01 1.323924e+01 4.000000e-01
      vertex   8.064447e+01 1.323924e+01 0.000000e+00
    endloop
  endfacet
  facet normal 9.206576e-01 3.903711e-01 0.000000e+00
    outer loop
      vertex   8.064447e+01 1.323924e+01 4.000000e-01
      vertex   8.067133e+01 1.317588e+01 4.000000e-01
      vertex   8.064447e+01 1.323924e+01 0.000000e+00
    endloop
  endfacet
  facet normal 9.206576e-01 3.903711e-01 0.000000e+00
    outer loop
      vertex   8.064447e+01 1.323924e+01 0.000000e+00
      vertex   8.067133e+01 1.317588e+01 4.000000e-01
      vertex   8.067133e+01 1.317588e+01 0.000000e+00
    endloop
  endfacet
  facet normal 9.532771e-01 3.020973e-01 0.000000e+00
    outer loop
      vertex   8.067133e+01 1.317588e+01 4.000000e-01
      vertex   8.069208e+01 1.311040e+01 4.000000e-01
      vertex   8.067133e+01 1.317588e+01 0.000000e+00
    endloop
  endfacet
  facet normal 9.532771e-01 3.020973e-01 0.000000e+00
    outer loop
      vertex   8.067133e+01 1.317588e+01 0.000000e+00
      vertex   8.069208e+01 1.311040e+01 4.000000e-01
      vertex   8.069208e+01 1.311040e+01 0.000000e+00
    endloop
  endfacet
  facet normal 9.766508e-01 2.148331e-01 0.000000e+00
    outer loop
      vertex   8.069208e+01 1.311040e+01 4.000000e-01
      vertex   8.070685e+01 1.304325e+01 4.000000e-01
      vertex   8.069208e+01 1.311040e+01 0.000000e+00
    endloop
  endfacet
  facet normal 9.766508e-01 2.148331e-01 0.000000e+00
    outer loop
      vertex   8.069208e+01 1.311040e+01 0.000000e+00
      vertex   8.070685e+01 1.304325e+01 4.000000e-01
      vertex   8.070685e+01 1.304325e+01 0.000000e+00
    endloop
  endfacet
  facet normal 9.915821e-01 1.294796e-01 0.000000e+00
    outer loop
      vertex   8.070685e+01 1.304325e+01 4.000000e-01
      vertex   8.071578e+01 1.297487e+01 4.000000e-01
      vertex   8.070685e+01 1.304325e+01 0.000000e+00
    endloop
  endfacet
  facet normal 9.915821e-01 1.294796e-01 0.000000e+00
    outer loop
      vertex   8.070685e+01 1.304325e+01 0.000000e+00
      vertex   8.071578e+01 1.297487e+01 4.000000e-01
      vertex   8.071578e+01 1.297487e+01 0.000000e+00
    endloop
  endfacet
  facet normal 9.989154e-01 4.656228e-02 0.000000e+00
    outer loop
      vertex   8.071578e+01 1.297487e+01 4.000000e-01
      vertex   8.071901e+01 1.290569e+01 4.000000e-01
      vertex   8.071578e+01 1.297487e+01 0.000000e+00
    endloop
  endfacet
  facet normal 9.989154e-01 4.656228e-02 0.000000e+00
    outer loop
      vertex   8.071578e+01 1.297487e+01 0.000000e+00
      vertex   8.071901e+01 1.290569e+01 4.000000e-01
      vertex   8.071901e+01 1.290569e+01 0.000000e+00
    endloop
  endfacet
  facet normal 9.994320e-01 -3.369839e-02 0.000000e+00
    outer loop
      vertex   8.071901e+01 1.290569e+01 4.000000e-01
      vertex   8.071666e+01 1.283617e+01 4.000000e-01
      vertex   8.071901e+01 1.290569e+01 0.000000e+00
    endloop
  endfacet
  facet normal 9.994320e-01 -3.369839e-02 0.000000e+00
    outer loop
      vertex   8.071901e+01 1.290569e+01 0.000000e+00
      vertex   8.071666e+01 1.283617e+01 4.000000e-01
      vertex   8.071666e+01 1.283617e+01 0.000000e+00
    endloop
  endfacet
  facet normal 9.937860e-01 -1.113077e-01 0.000000e+00
    outer loop
      vertex   8.071666e+01 1.283617e+01 4.000000e-01
      vertex   8.070889e+01 1.276674e+01 4.000000e-01
      vertex   8.071666e+01 1.283617e+01 0.000000e+00
    endloop
  endfacet
  facet normal 9.937860e-01 -1.113077e-01 0.000000e+00
    outer loop
      vertex   8.071666e+01 1.283617e+01 0.000000e+00
      vertex   8.070889e+01 1.276674e+01 4.000000e-01
      vertex   8.070889e+01 1.276674e+01 0.000000e+00
    endloop
  endfacet
  facet normal 9.824701e-01 -1.864203e-01 0.000000e+00
    outer loop
      vertex   8.070889e+01 1.276674e+01 4.000000e-01
      vertex   8.069582e+01 1.269786e+01 4.000000e-01
      vertex   8.070889e+01 1.276674e+01 0.000000e+00
    endloop
  endfacet
  facet normal 9.824701e-01 -1.864203e-01 0.000000e+00
    outer loop
      vertex   8.070889e+01 1.276674e+01 0.000000e+00
      vertex   8.069582e+01 1.269786e+01 4.000000e-01
      vertex   8.069582e+01 1.269786e+01 0.000000e+00
    endloop
  endfacet
  facet normal 9.658039e-01 -2.592736e-01 0.000000e+00
    outer loop
      vertex   8.069582e+01 1.269786e+01 4.000000e-01
      vertex   8.067759e+01 1.262995e+01 4.000000e-01
      vertex   8.069582e+01 1.269786e+01 0.000000e+00
    endloop
  endfacet
  facet normal 9.658039e-01 -2.592736e-01 0.000000e+00
    outer loop
      vertex   8.069582e+01 1.269786e+01 0.000000e+00
      vertex   8.067759e+01 1.262995e+01 4.000000e-01
      vertex   8.067759e+01 1.262995e+01 0.000000e+00
    endloop
  endfacet
  facet normal 0.000000e+00 0.000000e+00 -1.000000e+00
    outer loop
      vertex   7.995722e+01 1.203017e+01 0.000000e+00
      vertex   8.025195e+01 1.309331e+01 0.000000e+00
      vertex   8.003333e+01 1.203786e+01 0.000000e+00
    endloop
  endfacet
  facet normal 0.000000e+00 0.000000e+00 -1.000000e+00
    outer loop
      vertex   8.003333e+01 1.203786e+01 0.000000e+00
      vertex   8.025195e+01 1.309331e+01 0.000000e+00
      vertex   8.010619e+01 1.205273e+01 0.000000e+00
    endloop
  endfacet
  facet normal 0.000000e+00 0.000000e+00 -1.000000e+00
    outer loop
      vertex   8.010619e+01 1.205273e+01 0.000000e+00
      vertex   8.025195e+01 1.309331e+01 0.000000e+00
      vertex   8.017566e+01 1.207433e+01 0.000000e+00
    endloop
  endfacet
  facet normal 0.000000e+00 0.000000e+00 -1.000000e+00
    outer loop
      vertex   8.017566e+01 1.207433e+01 0.000000e+00
      vertex   8.025195e+01 1.309331e+01 0.000000e+00
      vertex   8.024162e+01 1.210223e+01 0.000000e+00
    endloop
  endfacet
  facet normal 0.000000e+00 0.000000e+00 -1.000000e+00
    outer loop
      vertex   8.024162e+01 1.210223e+01 0.000000e+00
      vertex   8.025195e+01 1.309331e+01 0.000000e+00
      vertex   8.030392e+01 1.213598e+01 0.000000e+00
    endloop
  endfacet
  facet normal 0.000000e+00 0.000000e+00 -1.000000e+00
    outer loop
      vertex   8.030392e+01 1.213598e+01 0.000000e+00
      vertex   8.025195e+01 1.309331e+01 0.000000e+00
      vertex   8.036243e+01 1.217513e+01 0.000000e+00
    endloop
  endfacet
  facet normal 0.000000e+00 0.000000e+00 -1.000000e+00
    outer loop
      vertex   8.036243e+01 1.217513e+01 0.000000e+00
      vertex   8.025195e+01 1.309331e+01 0.000000e+00
      vertex   8.041701e+01 1.221925e+01 0.000000e+00
    endloop
  endfacet
  facet normal 0.000000e+00 0.000000e+00 -1.000000e+00
    outer loop
      vertex   8.041701e+01 1.221925e+01 0.000000e+00
      vertex   8.025195e+01 1.309331e+01 0.000000e+00
      vertex   8.046753e+01 1.226790e+01 0.000000e+00
    endloop
  endfacet
  facet normal 0.000000e+00 0.000000e+00 -1.000000e+00
    outer loop
      vertex   8.046753e+01 1.226790e+01 0.000000e+00
      vertex   8.025195e+01 1.309331e+01 0.000000e+00
      vertex   8.051384e+01 1.232062e+01 0.000000e+00
    endloop
  endfacet
  facet normal 0.000000e+00 0.000000e+00 -1.000000e+00
    outer loop
      vertex   8.051384e+01 1.232062e+01 0.000000e+00
      vertex   8.025195e+01 1.309331e+01 0.000000e+00
      vertex   8.055581e+01 1.237698e+01 0.000000e+00
    endloop
  endfacet
  facet normal 0.000000e+00 0.000000e+00 -1.000000e+00
    outer loop
      vertex   8.055581e+01 1.237698e+01 0.000000e+00
      vertex   8.025195e+01 1.309331e+01 0.000000e+00
      vertex   8.059331e+01 1.243654e+01 0.000000e+00
    endloop
  endfacet
  facet normal 0.000000e+00 0.000000e+00 -1.000000e+00
    outer loop
      vertex   8.059331e+01 1.243654e+01 0.000000e+00
      vertex   8.025195e+01 1.309331e+01 0.000000e+00
      vertex   8.062620e+01 1.249885e+01 0.000000e+00
    endloop
  endfacet
  facet normal 0.000000e+00 0.000000e+00 -1.000000e+00
    outer loop
      vertex   8.062620e+01 1.249885e+01 0.000000e+00
      vertex   8.025195e+01 1.309331e+01 0.000000e+00
      vertex   8.065433e+01 1.256346e+01 0.000000e+00
    endloop
  endfacet
  facet normal 0.000000e+00 0.000000e+00 -1.000000e+00
    outer loop
      vertex   8.065433e+01 1.256346e+01 0.000000e+00
      vertex   8.025195e+01 1.309331e+01 0.000000e+00
      vertex   8.067759e+01 1.262995e+01 0.000000e+00
    endloop
  endfacet
  facet normal 0.000000e+00 0.000000e+00 -1.000000e+00
    outer loop
      vertex   8.067759e+01 1.262995e+01 0.000000e+00
      vertex   8.025195e+01 1.309331e+01 0.000000e+00
      vertex   8.069582e+01 1.269786e+01 0.000000e+00
    endloop
  endfacet
  facet normal 0.000000e+00 0.000000e+00 -1.000000e+00
    outer loop
      vertex   8.069582e+01 1.269786e+01 0.000000e+00
      vertex   8.025195e+01 1.309331e+01 0.000000e+00
      vertex   8.070889e+01 1.276674e+01 0.000000e+00
    endloop
  endfacet
  facet normal 0.000000e+00 0.000000e+00 -1.000000e+00
    outer loop
      vertex   8.070889e+01 1.276674e+01 0.000000e+00
      vertex   8.025195e+01 1.309331e+01 0.000000e+00
      vertex   8.071666e+01 1.283617e+01 0.000000e+00
    endloop
  endfacet
  facet normal 0.000000e+00 0.000000e+00 -1.000000e+00
    outer loop
      vertex   8.071666e+01 1.283617e+01 0.000000e+00
      vertex   8.025195e+01 1.309331e+01 0.000000e+00
      vertex   8.071901e+01 1.290569e+01 0.000000e+00
    endloop
  endfacet
  facet normal 0.000000e+00 0.000000e+00 -1.000000e+00
    outer loop
      vertex   8.071901e+01 1.290569e+01 0.000000e+00
      vertex   8.025195e+01 1.309331e+01 0.000000e+00
      vertex   8.071578e+01 1.297487e+01 0.000000e+00
    endloop
  endfacet
  facet normal 0.000000e+00 0.000000e+00 -1.000000e+00
    outer loop
      vertex   8.071578e+01 1.297487e+01 0.000000e+00
      vertex   8.025195e+01 1.309331e+01 0.000000e+00
      vertex   8.070685e+01 1.304325e+01 0.000000e+00
    endloop
  endfacet
  facet normal 0.000000e+00 0.000000e+00 -1.000000e+00
    outer loop
      vertex   8.070685e+01 1.304325e+01 0.000000e+00
      vertex   8.025195e+01 1.309331e+01 0.000000e+00
      vertex   8.069208e+01 1.311040e+01 0.000000e+00
    endloop
  endfacet
  facet normal -0.000000e+00 0.000000e+00 -1.000000e+00
    outer loop
      vertex   8.069208e+01 1.311040e+01 0.000000e+00
      vertex   8.025195e+01 1.309331e+01 0.000000e+00
      vertex   8.067133e+01 1.317588e+01 0.000000e+00
    endloop
  endfacet
  facet normal -0.000000e+00 0.000000e+00 -1.000000e+00
    outer loop
      vertex   8.067133e+01 1.317588e+01 0.000000e+00
      vertex   8.025195e+01 1.309331e+01 0.000000e+00
      vertex   8.064447e+01 1.323924e+01 0.000000e+00
    endloop
  endfacet
  facet normal -0.000000e+00 0.000000e+00 -1.000000e+00
    outer loop
      vertex   8.064447e+01 1.323924e+01 0.000000e+00
      vertex   8.025195e+01 1.309331e+01 0.000000e+00
      vertex   8.061135e+01 1.330004e+01 0.000000e+00
    endloop
  endfacet
  facet normal -0.000000e+00 0.000000e+00 -1.000000e+00
    outer loop
      vertex   8.061135e+01 1.330004e+01 0.000000e+00
      vertex   8.025195e+01 1.309331e+01 0.000000e+00
      vertex   8.057185e+01 1.335783e+01 0.000000e+00
    endloop
  endfacet
  facet normal -0.000000e+00 0.000000e+00 -1.000000e+00
    outer loop
      vertex   8.057185e+01 1.335783e+01 0.000000e+00
      vertex   8.025195e+01 1.309331e+01 0.000000e+00
      vertex   8.052582e+01 1.341218e+01 0.000000e+00
    endloop
  endfacet
  facet normal -0.000000e+00 0.000000e+00 -1.000000e+00
    outer loop
      vertex   8.052582e+01 1.341218e+01 0.000000e+00
      vertex   8.025195e+01 1.309331e+01 0.000000e+00
      vertex   8.047313e+01 1.346264e+01 0.000000e+00
    endloop
  endfacet
  facet normal -0.000000e+00 0.000000e+00 -1.000000e+00
    outer loop
      vertex   8.047313e+01 1.346264e+01 0.000000e+00
      vertex   8.025195e+01 1.309331e+01 0.000000e+00
      vertex   8.041364e+01 1.350877e+01 0.000000e+00
    endloop
  endfacet
  facet normal -0.000000e+00 0.000000e+00 -1.000000e+00
    outer loop
      vertex   8.041364e+01 1.350877e+01 0.000000e+00
      vertex   8.025195e+01 1.309331e+01 0.000000e+00
      vertex   8.034721e+01 1.355012e+01 0.000000e+00
    endloop
  endfacet
endsolid
