solid ASCII
  facet normal -0.000000e+00 0.000000e+00 1.000000e+00
    outer loop
      vertex   5.155382e+01 2.556774e+00 4.000000e-01
      vertex   5.149732e+01 2.527745e+00 4.000000e-01
      vertex   5.161267e+01 2.576686e+00 4.000000e-01
    endloop
  endfacet
  facet normal -0.000000e+00 0.000000e+00 1.000000e+00
    outer loop
      vertex   5.161267e+01 2.576686e+00 4.000000e-01
      vertex   5.149732e+01 2.527745e+00 4.000000e-01
      vertex   5.167306e+01 2.587884e+00 4.000000e-01
    endloop
  endfacet
  facet normal -0.000000e+00 0.000000e+00 1.000000e+00
    outer loop
      vertex   5.167306e+01 2.587884e+00 4.000000e-01
      vertex   5.149732e+01 2.527745e+00 4.000000e-01
      vertex   5.173415e+01 2.590769e+00 4.000000e-01
    endloop
  endfacet
  facet normal 0.000000e+00 0.000000e+00 1.000000e+00
    outer loop
      vertex   5.173415e+01 2.590769e+00 4.000000e-01
      vertex   5.149732e+01 2.527745e+00 4.000000e-01
      vertex   5.179511e+01 2.585742e+00 4.000000e-01
    endloop
  endfacet
  facet normal 0.000000e+00 0.000000e+00 1.000000e+00
    outer loop
      vertex   5.179511e+01 2.585742e+00 4.000000e-01
      vertex   5.149732e+01 2.527745e+00 4.000000e-01
      vertex   5.185512e+01 2.573204e+00 4.000000e-01
    endloop
  endfacet
  facet normal 0.000000e+00 0.000000e+00 1.000000e+00
    outer loop
      vertex   5.185512e+01 2.573204e+00 4.000000e-01
      vertex   5.149732e+01 2.527745e+00 4.000000e-01
      vertex   5.191334e+01 2.553556e+00 4.000000e-01
    endloop
  endfacet
  facet normal 0.000000e+00 0.000000e+00 1.000000e+00
    outer loop
      vertex   5.191334e+01 2.553556e+00 4.000000e-01
      vertex   5.149732e+01 2.527745e+00 4.000000e-01
      vertex   5.196896e+01 2.527200e+00 4.000000e-01
    endloop
  endfacet
  facet normal 0.000000e+00 0.000000e+00 1.000000e+00
    outer loop
      vertex   5.196896e+01 2.527200e+00 4.000000e-01
      vertex   5.149732e+01 2.527745e+00 4.000000e-01
      vertex   5.202113e+01 2.494538e+00 4.000000e-01
    endloop
  endfacet
  facet normal 0.000000e+00 0.000000e+00 1.000000e+00
    outer loop
      vertex   5.202113e+01 2.494538e+00 4.000000e-01
      vertex   5.149732e+01 2.527745e+00 4.000000e-01
      vertex   5.206904e+01 2.455970e+00 4.000000e-01
    endloop
  endfacet
  facet normal 0.000000e+00 0.000000e+00 1.000000e+00
    outer loop
      vertex   5.206904e+01 2.455970e+00 4.000000e-01
      vertex   5.149732e+01 2.527745e+00 4.000000e-01
      vertex   5.145428e+01 2.501855e+00 4.000000e-01
    endloop
  endfacet
  facet normal 0.000000e+00 0.000000e+00 1.000000e+00
    outer loop
      vertex   5.206904e+01 2.455970e+00 4.000000e-01
      vertex   5.145428e+01 2.501855e+00 4.000000e-01
      vertex   5.141510e+01 2.472197e+00 4.000000e-01
    endloop
  endfacet
  facet normal 0.000000e+00 0.000000e+00 1.000000e+00
    outer loop
      vertex   5.141510e+01 2.472197e+00 4.000000e-01
      vertex   5.137975e+01 2.439099e+00 4.000000e-01
      vertex   5.206904e+01 2.455970e+00 4.000000e-01
    endloop
  endfacet
  facet normal 0.000000e+00 0.000000e+00 1.000000e+00
    outer loop
      vertex   5.206904e+01 2.455970e+00 4.000000e-01
      vertex   5.137975e+01 2.439099e+00 4.000000e-01
      vertex   5.134818e+01 2.402889e+00 4.000000e-01
    endloop
  endfacet
  facet normal 0.000000e+00 0.000000e+00 1.000000e+00
    outer loop
      vertex   5.206904e+01 2.455970e+00 4.000000e-01
      vertex   5.134818e+01 2.402889e+00 4.000000e-01
      vertex   5.132037e+01 2.363897e+00 4.000000e-01
    endloop
  endfacet
  facet normal -0.000000e+00 0.000000e+00 1.000000e+00
    outer loop
      vertex   5.132037e+01 2.363897e+00 4.000000e-01
      vertex   5.129627e+01 2.322451e+00 4.000000e-01
      vertex   5.206904e+01 2.455970e+00 4.000000e-01
    endloop
  endfacet
  facet normal 0.000000e+00 0.000000e+00 1.000000e+00
    outer loop
      vertex   5.206904e+01 2.455970e+00 4.000000e-01
      vertex   5.129627e+01 2.322451e+00 4.000000e-01
      vertex   5.127587e+01 2.278879e+00 4.000000e-01
    endloop
  endfacet
  facet normal 0.000000e+00 0.000000e+00 1.000000e+00
    outer loop
      vertex   5.206904e+01 2.455970e+00 4.000000e-01
      vertex   5.127587e+01 2.278879e+00 4.000000e-01
      vertex   5.125911e+01 2.233511e+00 4.000000e-01
    endloop
  endfacet
  facet normal -0.000000e+00 0.000000e+00 1.000000e+00
    outer loop
      vertex   5.125911e+01 2.233511e+00 4.000000e-01
      vertex   5.124598e+01 2.186675e+00 4.000000e-01
      vertex   5.206904e+01 2.455970e+00 4.000000e-01
    endloop
  endfacet
  facet normal 0.000000e+00 0.000000e+00 1.000000e+00
    outer loop
      vertex   5.206904e+01 2.455970e+00 4.000000e-01
      vertex   5.124598e+01 2.186675e+00 4.000000e-01
      vertex   5.123643e+01 2.138699e+00 4.000000e-01
    endloop
  endfacet
  facet normal 0.000000e+00 0.000000e+00 1.000000e+00
    outer loop
      vertex   5.206904e+01 2.455970e+00 4.000000e-01
      vertex   5.123643e+01 2.138699e+00 4.000000e-01
      vertex   5.123042e+01 2.089913e+00 4.000000e-01
    endloop
  endfacet
  facet normal -0.000000e+00 0.000000e+00 1.000000e+00
    outer loop
      vertex   5.123042e+01 2.089913e+00 4.000000e-01
      vertex   5.122794e+01 2.040644e+00 4.000000e-01
      vertex   5.206904e+01 2.455970e+00 4.000000e-01
    endloop
  endfacet
  facet normal 0.000000e+00 0.000000e+00 1.000000e+00
    outer loop
      vertex   5.206904e+01 2.455970e+00 4.000000e-01
      vertex   5.122794e+01 2.040644e+00 4.000000e-01
      vertex   5.220962e+01 2.220094e+00 4.000000e-01
    endloop
  endfacet
  facet normal 0.000000e+00 0.000000e+00 1.000000e+00
    outer loop
      vertex   5.206904e+01 2.455970e+00 4.000000e-01
      vertex   5.220962e+01 2.220094e+00 4.000000e-01
      vertex   5.211185e+01 2.411898e+00 4.000000e-01
    endloop
  endfacet
  facet normal 0.000000e+00 0.000000e+00 1.000000e+00
    outer loop
      vertex   5.211185e+01 2.411898e+00 4.000000e-01
      vertex   5.220962e+01 2.220094e+00 4.000000e-01
      vertex   5.220144e+01 2.250669e+00 4.000000e-01
    endloop
  endfacet
  facet normal 0.000000e+00 0.000000e+00 1.000000e+00
    outer loop
      vertex   5.211185e+01 2.411898e+00 4.000000e-01
      vertex   5.220144e+01 2.250669e+00 4.000000e-01
      vertex   5.214874e+01 2.362723e+00 4.000000e-01
    endloop
  endfacet
  facet normal 0.000000e+00 0.000000e+00 1.000000e+00
    outer loop
      vertex   5.214874e+01 2.362723e+00 4.000000e-01
      vertex   5.220144e+01 2.250669e+00 4.000000e-01
      vertex   5.217888e+01 2.308846e+00 4.000000e-01
    endloop
  endfacet
  facet normal -0.000000e+00 0.000000e+00 1.000000e+00
    outer loop
      vertex   5.122794e+01 2.040644e+00 4.000000e-01
      vertex   5.122894e+01 1.991223e+00 4.000000e-01
      vertex   5.220962e+01 2.220094e+00 4.000000e-01
    endloop
  endfacet
  facet normal 0.000000e+00 0.000000e+00 1.000000e+00
    outer loop
      vertex   5.220962e+01 2.220094e+00 4.000000e-01
      vertex   5.122894e+01 1.991223e+00 4.000000e-01
      vertex   5.123338e+01 1.941976e+00 4.000000e-01
    endloop
  endfacet
  facet normal 0.000000e+00 0.000000e+00 1.000000e+00
    outer loop
      vertex   5.220962e+01 2.220094e+00 4.000000e-01
      vertex   5.123338e+01 1.941976e+00 4.000000e-01
      vertex   5.222182e+01 2.183925e+00 4.000000e-01
    endloop
  endfacet
  facet normal 0.000000e+00 0.000000e+00 1.000000e+00
    outer loop
      vertex   5.222182e+01 2.183925e+00 4.000000e-01
      vertex   5.123338e+01 1.941976e+00 4.000000e-01
      vertex   5.223139e+01 2.147012e+00 4.000000e-01
    endloop
  endfacet
  facet normal 0.000000e+00 0.000000e+00 1.000000e+00
    outer loop
      vertex   5.223139e+01 2.147012e+00 4.000000e-01
      vertex   5.123338e+01 1.941976e+00 4.000000e-01
      vertex   5.223838e+01 2.109514e+00 4.000000e-01
    endloop
  endfacet
  facet normal 0.000000e+00 0.000000e+00 1.000000e+00
    outer loop
      vertex   5.223838e+01 2.109514e+00 4.000000e-01
      vertex   5.123338e+01 1.941976e+00 4.000000e-01
      vertex   5.224284e+01 2.071589e+00 4.000000e-01
    endloop
  endfacet
  facet normal 0.000000e+00 0.000000e+00 1.000000e+00
    outer loop
      vertex   5.224284e+01 2.071589e+00 4.000000e-01
      vertex   5.123338e+01 1.941976e+00 4.000000e-01
      vertex   5.224441e+01 1.995091e+00 4.000000e-01
    endloop
  endfacet
  facet normal 0.000000e+00 0.000000e+00 1.000000e+00
    outer loop
      vertex   5.224441e+01 1.995091e+00 4.000000e-01
      vertex   5.123338e+01 1.941976e+00 4.000000e-01
      vertex   5.223651e+01 1.918785e+00 4.000000e-01
    endloop
  endfacet
  facet normal 0.000000e+00 0.000000e+00 1.000000e+00
    outer loop
      vertex   5.223651e+01 1.918785e+00 4.000000e-01
      vertex   5.123338e+01 1.941976e+00 4.000000e-01
      vertex   5.221958e+01 1.843938e+00 4.000000e-01
    endloop
  endfacet
  facet normal 0.000000e+00 0.000000e+00 1.000000e+00
    outer loop
      vertex   5.221958e+01 1.843938e+00 4.000000e-01
      vertex   5.123338e+01 1.941976e+00 4.000000e-01
      vertex   5.124124e+01 1.893233e+00 4.000000e-01
    endloop
  endfacet
  facet normal 0.000000e+00 0.000000e+00 1.000000e+00
    outer loop
      vertex   5.221958e+01 1.843938e+00 4.000000e-01
      vertex   5.124124e+01 1.893233e+00 4.000000e-01
      vertex   5.219406e+01 1.771815e+00 4.000000e-01
    endloop
  endfacet
  facet normal 0.000000e+00 0.000000e+00 1.000000e+00
    outer loop
      vertex   5.219406e+01 1.771815e+00 4.000000e-01
      vertex   5.124124e+01 1.893233e+00 4.000000e-01
      vertex   5.125248e+01 1.845323e+00 4.000000e-01
    endloop
  endfacet
  facet normal 0.000000e+00 0.000000e+00 1.000000e+00
    outer loop
      vertex   5.219406e+01 1.771815e+00 4.000000e-01
      vertex   5.125248e+01 1.845323e+00 4.000000e-01
      vertex   5.216037e+01 1.703684e+00 4.000000e-01
    endloop
  endfacet
  facet normal 0.000000e+00 0.000000e+00 1.000000e+00
    outer loop
      vertex   5.216037e+01 1.703684e+00 4.000000e-01
      vertex   5.125248e+01 1.845323e+00 4.000000e-01
      vertex   5.126707e+01 1.798574e+00 4.000000e-01
    endloop
  endfacet
  facet normal 0.000000e+00 0.000000e+00 1.000000e+00
    outer loop
      vertex   5.216037e+01 1.703684e+00 4.000000e-01
      vertex   5.126707e+01 1.798574e+00 4.000000e-01
      vertex   5.211894e+01 1.640811e+00 4.000000e-01
    endloop
  endfacet
  facet normal 0.000000e+00 0.000000e+00 1.000000e+00
    outer loop
      vertex   5.211894e+01 1.640811e+00 4.000000e-01
      vertex   5.126707e+01 1.798574e+00 4.000000e-01
      vertex   5.209545e+01 1.611742e+00 4.000000e-01
    endloop
  endfacet
  facet normal 0.000000e+00 0.000000e+00 1.000000e+00
    outer loop
      vertex   5.209545e+01 1.611742e+00 4.000000e-01
      vertex   5.126707e+01 1.798574e+00 4.000000e-01
      vertex   5.207020e+01 1.584463e+00 4.000000e-01
    endloop
  endfacet
  facet normal 0.000000e+00 0.000000e+00 1.000000e+00
    outer loop
      vertex   5.207020e+01 1.584463e+00 4.000000e-01
      vertex   5.126707e+01 1.798574e+00 4.000000e-01
      vertex   5.204322e+01 1.559132e+00 4.000000e-01
    endloop
  endfacet
  facet normal 0.000000e+00 0.000000e+00 1.000000e+00
    outer loop
      vertex   5.204322e+01 1.559132e+00 4.000000e-01
      vertex   5.126707e+01 1.798574e+00 4.000000e-01
      vertex   5.128497e+01 1.753315e+00 4.000000e-01
    endloop
  endfacet
  facet normal 0.000000e+00 0.000000e+00 1.000000e+00
    outer loop
      vertex   5.204322e+01 1.559132e+00 4.000000e-01
      vertex   5.128497e+01 1.753315e+00 4.000000e-01
      vertex   5.130614e+01 1.709874e+00 4.000000e-01
    endloop
  endfacet
  facet normal 0.000000e+00 0.000000e+00 1.000000e+00
    outer loop
      vertex   5.130614e+01 1.709874e+00 4.000000e-01
      vertex   5.133057e+01 1.668581e+00 4.000000e-01
      vertex   5.204322e+01 1.559132e+00 4.000000e-01
    endloop
  endfacet
  facet normal 0.000000e+00 0.000000e+00 1.000000e+00
    outer loop
      vertex   5.204322e+01 1.559132e+00 4.000000e-01
      vertex   5.133057e+01 1.668581e+00 4.000000e-01
      vertex   5.135820e+01 1.629763e+00 4.000000e-01
    endloop
  endfacet
  facet normal 0.000000e+00 0.000000e+00 1.000000e+00
    outer loop
      vertex   5.204322e+01 1.559132e+00 4.000000e-01
      vertex   5.135820e+01 1.629763e+00 4.000000e-01
      vertex   5.138901e+01 1.593750e+00 4.000000e-01
    endloop
  endfacet
  facet normal 0.000000e+00 0.000000e+00 1.000000e+00
    outer loop
      vertex   5.138901e+01 1.593750e+00 4.000000e-01
      vertex   5.142296e+01 1.560869e+00 4.000000e-01
      vertex   5.204322e+01 1.559132e+00 4.000000e-01
    endloop
  endfacet
  facet normal 0.000000e+00 0.000000e+00 1.000000e+00
    outer loop
      vertex   5.204322e+01 1.559132e+00 4.000000e-01
      vertex   5.142296e+01 1.560869e+00 4.000000e-01
      vertex   5.146001e+01 1.531451e+00 4.000000e-01
    endloop
  endfacet
  facet normal 0.000000e+00 0.000000e+00 1.000000e+00
    outer loop
      vertex   5.204322e+01 1.559132e+00 4.000000e-01
      vertex   5.146001e+01 1.531451e+00 4.000000e-01
      vertex   5.150015e+01 1.505823e+00 4.000000e-01
    endloop
  endfacet
  facet normal -0.000000e+00 0.000000e+00 1.000000e+00
    outer loop
      vertex   5.150015e+01 1.505823e+00 4.000000e-01
      vertex   5.154332e+01 1.484314e+00 4.000000e-01
      vertex   5.204322e+01 1.559132e+00 4.000000e-01
    endloop
  endfacet
  facet normal 0.000000e+00 0.000000e+00 1.000000e+00
    outer loop
      vertex   5.204322e+01 1.559132e+00 4.000000e-01
      vertex   5.154332e+01 1.484314e+00 4.000000e-01
      vertex   5.158950e+01 1.467253e+00 4.000000e-01
    endloop
  endfacet
  facet normal 0.000000e+00 0.000000e+00 1.000000e+00
    outer loop
      vertex   5.204322e+01 1.559132e+00 4.000000e-01
      vertex   5.158950e+01 1.467253e+00 4.000000e-01
      vertex   5.163865e+01 1.454968e+00 4.000000e-01
    endloop
  endfacet
  facet normal -0.000000e+00 0.000000e+00 1.000000e+00
    outer loop
      vertex   5.163865e+01 1.454968e+00 4.000000e-01
      vertex   5.169074e+01 1.447788e+00 4.000000e-01
      vertex   5.204322e+01 1.559132e+00 4.000000e-01
    endloop
  endfacet
  facet normal 0.000000e+00 0.000000e+00 1.000000e+00
    outer loop
      vertex   5.204322e+01 1.559132e+00 4.000000e-01
      vertex   5.169074e+01 1.447788e+00 4.000000e-01
      vertex   5.201458e+01 1.535907e+00 4.000000e-01
    endloop
  endfacet
  facet normal 0.000000e+00 0.000000e+00 1.000000e+00
    outer loop
      vertex   5.201458e+01 1.535907e+00 4.000000e-01
      vertex   5.169074e+01 1.447788e+00 4.000000e-01
      vertex   5.198433e+01 1.514947e+00 4.000000e-01
    endloop
  endfacet
  facet normal 0.000000e+00 0.000000e+00 1.000000e+00
    outer loop
      vertex   5.198433e+01 1.514947e+00 4.000000e-01
      vertex   5.169074e+01 1.447788e+00 4.000000e-01
      vertex   5.195252e+01 1.496409e+00 4.000000e-01
    endloop
  endfacet
  facet normal 0.000000e+00 0.000000e+00 1.000000e+00
    outer loop
      vertex   5.195252e+01 1.496409e+00 4.000000e-01
      vertex   5.169074e+01 1.447788e+00 4.000000e-01
      vertex   5.191920e+01 1.480453e+00 4.000000e-01
    endloop
  endfacet
  facet normal 0.000000e+00 0.000000e+00 1.000000e+00
    outer loop
      vertex   5.191920e+01 1.480453e+00 4.000000e-01
      vertex   5.169074e+01 1.447788e+00 4.000000e-01
      vertex   5.188444e+01 1.467236e+00 4.000000e-01
    endloop
  endfacet
  facet normal 0.000000e+00 0.000000e+00 1.000000e+00
    outer loop
      vertex   5.188444e+01 1.467236e+00 4.000000e-01
      vertex   5.169074e+01 1.447788e+00 4.000000e-01
      vertex   5.184828e+01 1.456918e+00 4.000000e-01
    endloop
  endfacet
  facet normal 0.000000e+00 0.000000e+00 1.000000e+00
    outer loop
      vertex   5.184828e+01 1.456918e+00 4.000000e-01
      vertex   5.169074e+01 1.447788e+00 4.000000e-01
      vertex   5.181077e+01 1.449655e+00 4.000000e-01
    endloop
  endfacet
  facet normal 0.000000e+00 0.000000e+00 1.000000e+00
    outer loop
      vertex   5.181077e+01 1.449655e+00 4.000000e-01
      vertex   5.169074e+01 1.447788e+00 4.000000e-01
      vertex   5.173195e+01 1.444932e+00 4.000000e-01
    endloop
  endfacet
  facet normal 0.000000e+00 0.000000e+00 1.000000e+00
    outer loop
      vertex   5.181077e+01 1.449655e+00 4.000000e-01
      vertex   5.173195e+01 1.444932e+00 4.000000e-01
      vertex   5.177198e+01 1.445607e+00 4.000000e-01
    endloop
  endfacet
  facet normal 1.037810e-01 -9.946002e-01 0.000000e+00
    outer loop
      vertex   5.181077e+01 1.449655e+00 4.000000e-01
      vertex   5.177198e+01 1.445607e+00 4.000000e-01
      vertex   5.181077e+01 1.449655e+00 0.000000e+00
    endloop
  endfacet
  facet normal 1.037810e-01 -9.946002e-01 0.000000e+00
    outer loop
      vertex   5.181077e+01 1.449655e+00 0.000000e+00
      vertex   5.177198e+01 1.445607e+00 4.000000e-01
      vertex   5.177198e+01 1.445607e+00 0.000000e+00
    endloop
  endfacet
  facet normal 1.686189e-02 -9.998578e-01 0.000000e+00
    outer loop
      vertex   5.177198e+01 1.445607e+00 4.000000e-01
      vertex   5.173195e+01 1.444932e+00 4.000000e-01
      vertex   5.177198e+01 1.445607e+00 0.000000e+00
    endloop
  endfacet
  facet normal 1.686189e-02 -9.998578e-01 0.000000e+00
    outer loop
      vertex   5.177198e+01 1.445607e+00 0.000000e+00
      vertex   5.173195e+01 1.444932e+00 4.000000e-01
      vertex   5.173195e+01 1.444932e+00 0.000000e+00
    endloop
  endfacet
  facet normal -6.913932e-02 -9.976070e-01 -0.000000e+00
    outer loop
      vertex   5.173195e+01 1.444932e+00 4.000000e-01
      vertex   5.169074e+01 1.447788e+00 4.000000e-01
      vertex   5.173195e+01 1.444932e+00 0.000000e+00
    endloop
  endfacet
  facet normal -6.913932e-02 -9.976070e-01 0.000000e+00
    outer loop
      vertex   5.173195e+01 1.444932e+00 0.000000e+00
      vertex   5.169074e+01 1.447788e+00 4.000000e-01
      vertex   5.169074e+01 1.447788e+00 0.000000e+00
    endloop
  endfacet
  facet normal -1.365458e-01 -9.906338e-01 -0.000000e+00
    outer loop
      vertex   5.169074e+01 1.447788e+00 4.000000e-01
      vertex   5.163865e+01 1.454968e+00 4.000000e-01
      vertex   5.169074e+01 1.447788e+00 0.000000e+00
    endloop
  endfacet
  facet normal -1.365458e-01 -9.906338e-01 0.000000e+00
    outer loop
      vertex   5.169074e+01 1.447788e+00 0.000000e+00
      vertex   5.163865e+01 1.454968e+00 4.000000e-01
      vertex   5.163865e+01 1.454968e+00 0.000000e+00
    endloop
  endfacet
  facet normal -2.424815e-01 -9.701560e-01 -0.000000e+00
    outer loop
      vertex   5.163865e+01 1.454968e+00 4.000000e-01
      vertex   5.158950e+01 1.467253e+00 4.000000e-01
      vertex   5.163865e+01 1.454968e+00 0.000000e+00
    endloop
  endfacet
  facet normal -2.424815e-01 -9.701560e-01 0.000000e+00
    outer loop
      vertex   5.163865e+01 1.454968e+00 0.000000e+00
      vertex   5.158950e+01 1.467253e+00 4.000000e-01
      vertex   5.158950e+01 1.467253e+00 0.000000e+00
    endloop
  endfacet
  facet normal -3.465631e-01 -9.380267e-01 -0.000000e+00
    outer loop
      vertex   5.158950e+01 1.467253e+00 4.000000e-01
      vertex   5.154332e+01 1.484314e+00 4.000000e-01
      vertex   5.158950e+01 1.467253e+00 0.000000e+00
    endloop
  endfacet
  facet normal -3.465631e-01 -9.380267e-01 0.000000e+00
    outer loop
      vertex   5.158950e+01 1.467253e+00 0.000000e+00
      vertex   5.154332e+01 1.484314e+00 4.000000e-01
      vertex   5.154332e+01 1.484314e+00 0.000000e+00
    endloop
  endfacet
  facet normal -4.459298e-01 -8.950679e-01 -0.000000e+00
    outer loop
      vertex   5.154332e+01 1.484314e+00 4.000000e-01
      vertex   5.150015e+01 1.505823e+00 4.000000e-01
      vertex   5.154332e+01 1.484314e+00 0.000000e+00
    endloop
  endfacet
  facet normal -4.459298e-01 -8.950679e-01 0.000000e+00
    outer loop
      vertex   5.154332e+01 1.484314e+00 0.000000e+00
      vertex   5.150015e+01 1.505823e+00 4.000000e-01
      vertex   5.150015e+01 1.505823e+00 0.000000e+00
    endloop
  endfacet
  facet normal -5.382081e-01 -8.428120e-01 -0.000000e+00
    outer loop
      vertex   5.150015e+01 1.505823e+00 4.000000e-01
      vertex   5.146001e+01 1.531451e+00 4.000000e-01
      vertex   5.150015e+01 1.505823e+00 0.000000e+00
    endloop
  endfacet
  facet normal -5.382081e-01 -8.428120e-01 0.000000e+00
    outer loop
      vertex   5.150015e+01 1.505823e+00 0.000000e+00
      vertex   5.146001e+01 1.531451e+00 4.000000e-01
      vertex   5.146001e+01 1.531451e+00 0.000000e+00
    endloop
  endfacet
  facet normal -6.217505e-01 -7.832154e-01 -0.000000e+00
    outer loop
      vertex   5.146001e+01 1.531451e+00 4.000000e-01
      vertex   5.142296e+01 1.560869e+00 4.000000e-01
      vertex   5.146001e+01 1.531451e+00 0.000000e+00
    endloop
  endfacet
  facet normal -6.217505e-01 -7.832154e-01 0.000000e+00
    outer loop
      vertex   5.146001e+01 1.531451e+00 0.000000e+00
      vertex   5.142296e+01 1.560869e+00 4.000000e-01
      vertex   5.142296e+01 1.560869e+00 0.000000e+00
    endloop
  endfacet
  facet normal -6.956984e-01 -7.183340e-01 -0.000000e+00
    outer loop
      vertex   5.142296e+01 1.560869e+00 4.000000e-01
      vertex   5.138901e+01 1.593750e+00 4.000000e-01
      vertex   5.142296e+01 1.560869e+00 0.000000e+00
    endloop
  endfacet
  facet normal -6.956984e-01 -7.183340e-01 0.000000e+00
    outer loop
      vertex   5.142296e+01 1.560869e+00 0.000000e+00
      vertex   5.138901e+01 1.593750e+00 4.000000e-01
      vertex   5.138901e+01 1.593750e+00 0.000000e+00
    endloop
  endfacet
  facet normal -7.598899e-01 -6.500518e-01 -0.000000e+00
    outer loop
      vertex   5.138901e+01 1.593750e+00 4.000000e-01
      vertex   5.135820e+01 1.629763e+00 4.000000e-01
      vertex   5.138901e+01 1.593750e+00 0.000000e+00
    endloop
  endfacet
  facet normal -7.598899e-01 -6.500518e-01 0.000000e+00
    outer loop
      vertex   5.138901e+01 1.593750e+00 0.000000e+00
      vertex   5.135820e+01 1.629763e+00 4.000000e-01
      vertex   5.135820e+01 1.629763e+00 0.000000e+00
    endloop
  endfacet
  facet normal -8.146797e-01 -5.799111e-01 -0.000000e+00
    outer loop
      vertex   5.135820e+01 1.629763e+00 4.000000e-01
      vertex   5.133057e+01 1.668581e+00 4.000000e-01
      vertex   5.135820e+01 1.629763e+00 0.000000e+00
    endloop
  endfacet
  facet normal -8.146797e-01 -5.799111e-01 0.000000e+00
    outer loop
      vertex   5.135820e+01 1.629763e+00 0.000000e+00
      vertex   5.133057e+01 1.668581e+00 4.000000e-01
      vertex   5.133057e+01 1.668581e+00 0.000000e+00
    endloop
  endfacet
  facet normal -8.607389e-01 -5.090467e-01 -0.000000e+00
    outer loop
      vertex   5.133057e+01 1.668581e+00 4.000000e-01
      vertex   5.130614e+01 1.709874e+00 4.000000e-01
      vertex   5.133057e+01 1.668581e+00 0.000000e+00
    endloop
  endfacet
  facet normal -8.607389e-01 -5.090467e-01 0.000000e+00
    outer loop
      vertex   5.133057e+01 1.668581e+00 0.000000e+00
      vertex   5.130614e+01 1.709874e+00 4.000000e-01
      vertex   5.130614e+01 1.709874e+00 0.000000e+00
    endloop
  endfacet
  facet normal -8.988790e-01 -4.381970e-01 -0.000000e+00
    outer loop
      vertex   5.130614e+01 1.709874e+00 4.000000e-01
      vertex   5.128497e+01 1.753315e+00 4.000000e-01
      vertex   5.130614e+01 1.709874e+00 0.000000e+00
    endloop
  endfacet
  facet normal -8.988790e-01 -4.381970e-01 0.000000e+00
    outer loop
      vertex   5.130614e+01 1.709874e+00 0.000000e+00
      vertex   5.128497e+01 1.753315e+00 4.000000e-01
      vertex   5.128497e+01 1.753315e+00 0.000000e+00
    endloop
  endfacet
  facet normal -9.299214e-01 -3.677583e-01 -0.000000e+00
    outer loop
      vertex   5.128497e+01 1.753315e+00 4.000000e-01
      vertex   5.126707e+01 1.798574e+00 4.000000e-01
      vertex   5.128497e+01 1.753315e+00 0.000000e+00
    endloop
  endfacet
  facet normal -9.299214e-01 -3.677583e-01 0.000000e+00
    outer loop
      vertex   5.128497e+01 1.753315e+00 0.000000e+00
      vertex   5.126707e+01 1.798574e+00 4.000000e-01
      vertex   5.126707e+01 1.798574e+00 0.000000e+00
    endloop
  endfacet
  facet normal -9.546112e-01 -2.978549e-01 -0.000000e+00
    outer loop
      vertex   5.126707e+01 1.798574e+00 4.000000e-01
      vertex   5.125248e+01 1.845323e+00 4.000000e-01
      vertex   5.126707e+01 1.798574e+00 0.000000e+00
    endloop
  endfacet
  facet normal -9.546112e-01 -2.978549e-01 0.000000e+00
    outer loop
      vertex   5.126707e+01 1.798574e+00 0.000000e+00
      vertex   5.125248e+01 1.845323e+00 4.000000e-01
      vertex   5.125248e+01 1.845323e+00 0.000000e+00
    endloop
  endfacet
  facet normal -9.735655e-01 -2.284081e-01 -0.000000e+00
    outer loop
      vertex   5.125248e+01 1.845323e+00 4.000000e-01
      vertex   5.124124e+01 1.893233e+00 4.000000e-01
      vertex   5.125248e+01 1.845323e+00 0.000000e+00
    endloop
  endfacet
  facet normal -9.735655e-01 -2.284081e-01 0.000000e+00
    outer loop
      vertex   5.125248e+01 1.845323e+00 0.000000e+00
      vertex   5.124124e+01 1.893233e+00 4.000000e-01
      vertex   5.124124e+01 1.893233e+00 0.000000e+00
    endloop
  endfacet
  facet normal -9.872469e-01 -1.591967e-01 -0.000000e+00
    outer loop
      vertex   5.124124e+01 1.893233e+00 4.000000e-01
      vertex   5.123338e+01 1.941976e+00 4.000000e-01
      vertex   5.124124e+01 1.893233e+00 0.000000e+00
    endloop
  endfacet
  facet normal -9.872469e-01 -1.591967e-01 0.000000e+00
    outer loop
      vertex   5.124124e+01 1.893233e+00 0.000000e+00
      vertex   5.123338e+01 1.941976e+00 4.000000e-01
      vertex   5.123338e+01 1.941976e+00 0.000000e+00
    endloop
  endfacet
  facet normal -9.959502e-01 -8.990704e-02 -0.000000e+00
    outer loop
      vertex   5.123338e+01 1.941976e+00 4.000000e-01
      vertex   5.122894e+01 1.991223e+00 4.000000e-01
      vertex   5.123338e+01 1.941976e+00 0.000000e+00
    endloop
  endfacet
  facet normal -9.959502e-01 -8.990704e-02 0.000000e+00
    outer loop
      vertex   5.123338e+01 1.941976e+00 0.000000e+00
      vertex   5.122894e+01 1.991223e+00 4.000000e-01
      vertex   5.122894e+01 1.991223e+00 0.000000e+00
    endloop
  endfacet
  facet normal -9.997965e-01 -2.017555e-02 -0.000000e+00
    outer loop
      vertex   5.122894e+01 1.991223e+00 4.000000e-01
      vertex   5.122794e+01 2.040644e+00 4.000000e-01
      vertex   5.122894e+01 1.991223e+00 0.000000e+00
    endloop
  endfacet
  facet normal -9.997965e-01 -2.017555e-02 0.000000e+00
    outer loop
      vertex   5.122894e+01 1.991223e+00 0.000000e+00
      vertex   5.122794e+01 2.040644e+00 4.000000e-01
      vertex   5.122794e+01 2.040644e+00 0.000000e+00
    endloop
  endfacet
  facet normal -9.987304e-01 5.037393e-02 0.000000e+00
    outer loop
      vertex   5.122794e+01 2.040644e+00 4.000000e-01
      vertex   5.123042e+01 2.089913e+00 4.000000e-01
      vertex   5.122794e+01 2.040644e+00 0.000000e+00
    endloop
  endfacet
  facet normal -9.987304e-01 5.037393e-02 0.000000e+00
    outer loop
      vertex   5.122794e+01 2.040644e+00 0.000000e+00
      vertex   5.123042e+01 2.089913e+00 4.000000e-01
      vertex   5.123042e+01 2.089913e+00 0.000000e+00
    endloop
  endfacet
  facet normal -9.925188e-01 1.220921e-01 0.000000e+00
    outer loop
      vertex   5.123042e+01 2.089913e+00 4.000000e-01
      vertex   5.123643e+01 2.138699e+00 4.000000e-01
      vertex   5.123042e+01 2.089913e+00 0.000000e+00
    endloop
  endfacet
  facet normal -9.925188e-01 1.220921e-01 0.000000e+00
    outer loop
      vertex   5.123042e+01 2.089913e+00 0.000000e+00
      vertex   5.123643e+01 2.138699e+00 4.000000e-01
      vertex   5.123643e+01 2.138699e+00 0.000000e+00
    endloop
  endfacet
  facet normal -9.807512e-01 1.952617e-01 0.000000e+00
    outer loop
      vertex   5.123643e+01 2.138699e+00 4.000000e-01
      vertex   5.124598e+01 2.186675e+00 4.000000e-01
      vertex   5.123643e+01 2.138699e+00 0.000000e+00
    endloop
  endfacet
  facet normal -9.807512e-01 1.952617e-01 0.000000e+00
    outer loop
      vertex   5.123643e+01 2.138699e+00 0.000000e+00
      vertex   5.124598e+01 2.186675e+00 4.000000e-01
      vertex   5.124598e+01 2.186675e+00 0.000000e+00
    endloop
  endfacet
  facet normal -9.628473e-01 2.700465e-01 0.000000e+00
    outer loop
      vertex   5.124598e+01 2.186675e+00 4.000000e-01
      vertex   5.125911e+01 2.233511e+00 4.000000e-01
      vertex   5.124598e+01 2.186675e+00 0.000000e+00
    endloop
  endfacet
  facet normal -9.628473e-01 2.700465e-01 0.000000e+00
    outer loop
      vertex   5.124598e+01 2.186675e+00 0.000000e+00
      vertex   5.125911e+01 2.233511e+00 4.000000e-01
      vertex   5.125911e+01 2.233511e+00 0.000000e+00
    endloop
  endfacet
  facet normal -9.380762e-01 3.464290e-01 0.000000e+00
    outer loop
      vertex   5.125911e+01 2.233511e+00 4.000000e-01
      vertex   5.127587e+01 2.278879e+00 4.000000e-01
      vertex   5.125911e+01 2.233511e+00 0.000000e+00
    endloop
  endfacet
  facet normal -9.380762e-01 3.464290e-01 0.000000e+00
    outer loop
      vertex   5.125911e+01 2.233511e+00 0.000000e+00
      vertex   5.127587e+01 2.278879e+00 4.000000e-01
      vertex   5.127587e+01 2.278879e+00 0.000000e+00
    endloop
  endfacet
  facet normal -9.055981e-01 4.241368e-01 0.000000e+00
    outer loop
      vertex   5.127587e+01 2.278879e+00 4.000000e-01
      vertex   5.129627e+01 2.322451e+00 4.000000e-01
      vertex   5.127587e+01 2.278879e+00 0.000000e+00
    endloop
  endfacet
  facet normal -9.055981e-01 4.241368e-01 0.000000e+00
    outer loop
      vertex   5.127587e+01 2.278879e+00 0.000000e+00
      vertex   5.129627e+01 2.322451e+00 4.000000e-01
      vertex   5.129627e+01 2.322451e+00 0.000000e+00
    endloop
  endfacet
  facet normal -8.645392e-01 5.025655e-01 0.000000e+00
    outer loop
      vertex   5.129627e+01 2.322451e+00 4.000000e-01
      vertex   5.132037e+01 2.363897e+00 4.000000e-01
      vertex   5.129627e+01 2.322451e+00 0.000000e+00
    endloop
  endfacet
  facet normal -8.645392e-01 5.025655e-01 0.000000e+00
    outer loop
      vertex   5.129627e+01 2.322451e+00 0.000000e+00
      vertex   5.132037e+01 2.363897e+00 4.000000e-01
      vertex   5.132037e+01 2.363897e+00 0.000000e+00
    endloop
  endfacet
  facet normal -8.141095e-01 5.807114e-01 0.000000e+00
    outer loop
      vertex   5.132037e+01 2.363897e+00 4.000000e-01
      vertex   5.134818e+01 2.402889e+00 4.000000e-01
      vertex   5.132037e+01 2.363897e+00 0.000000e+00
    endloop
  endfacet
  facet normal -8.141095e-01 5.807114e-01 0.000000e+00
    outer loop
      vertex   5.132037e+01 2.363897e+00 0.000000e+00
      vertex   5.134818e+01 2.402889e+00 4.000000e-01
      vertex   5.134818e+01 2.402889e+00 0.000000e+00
    endloop
  endfacet
  facet normal -7.537669e-01 6.571419e-01 0.000000e+00
    outer loop
      vertex   5.134818e+01 2.402889e+00 4.000000e-01
      vertex   5.137975e+01 2.439099e+00 4.000000e-01
      vertex   5.134818e+01 2.402889e+00 0.000000e+00
    endloop
  endfacet
  facet normal -7.537669e-01 6.571419e-01 0.000000e+00
    outer loop
      vertex   5.134818e+01 2.402889e+00 0.000000e+00
      vertex   5.137975e+01 2.439099e+00 4.000000e-01
      vertex   5.137975e+01 2.439099e+00 0.000000e+00
    endloop
  endfacet
  facet normal -6.834106e-01 7.300342e-01 0.000000e+00
    outer loop
      vertex   5.137975e+01 2.439099e+00 4.000000e-01
      vertex   5.141510e+01 2.472197e+00 4.000000e-01
      vertex   5.137975e+01 2.439099e+00 0.000000e+00
    endloop
  endfacet
  facet normal -6.834106e-01 7.300342e-01 0.000000e+00
    outer loop
      vertex   5.137975e+01 2.439099e+00 0.000000e+00
      vertex   5.141510e+01 2.472197e+00 4.000000e-01
      vertex   5.141510e+01 2.472197e+00 0.000000e+00
    endloop
  endfacet
  facet normal -6.035664e-01 7.973128e-01 0.000000e+00
    outer loop
      vertex   5.141510e+01 2.472197e+00 4.000000e-01
      vertex   5.145428e+01 2.501855e+00 4.000000e-01
      vertex   5.141510e+01 2.472197e+00 0.000000e+00
    endloop
  endfacet
  facet normal -6.035664e-01 7.973128e-01 0.000000e+00
    outer loop
      vertex   5.141510e+01 2.472197e+00 0.000000e+00
      vertex   5.145428e+01 2.501855e+00 4.000000e-01
      vertex   5.145428e+01 2.501855e+00 0.000000e+00
    endloop
  endfacet
  facet normal -5.155001e-01 8.568895e-01 0.000000e+00
    outer loop
      vertex   5.145428e+01 2.501855e+00 4.000000e-01
      vertex   5.149732e+01 2.527745e+00 4.000000e-01
      vertex   5.145428e+01 2.501855e+00 0.000000e+00
    endloop
  endfacet
  facet normal -5.155001e-01 8.568895e-01 0.000000e+00
    outer loop
      vertex   5.145428e+01 2.501855e+00 0.000000e+00
      vertex   5.149732e+01 2.527745e+00 4.000000e-01
      vertex   5.149732e+01 2.527745e+00 0.000000e+00
    endloop
  endfacet
  facet normal -4.570040e-01 8.894646e-01 0.000000e+00
    outer loop
      vertex   5.149732e+01 2.527745e+00 4.000000e-01
      vertex   5.155382e+01 2.556774e+00 4.000000e-01
      vertex   5.149732e+01 2.527745e+00 0.000000e+00
    endloop
  endfacet
  facet normal -4.570040e-01 8.894646e-01 0.000000e+00
    outer loop
      vertex   5.149732e+01 2.527745e+00 0.000000e+00
      vertex   5.155382e+01 2.556774e+00 4.000000e-01
      vertex   5.155382e+01 2.556774e+00 0.000000e+00
    endloop
  endfacet
  facet normal -3.204821e-01 9.472546e-01 0.000000e+00
    outer loop
      vertex   5.155382e+01 2.556774e+00 4.000000e-01
      vertex   5.161267e+01 2.576686e+00 4.000000e-01
      vertex   5.155382e+01 2.556774e+00 0.000000e+00
    endloop
  endfacet
  facet normal -3.204821e-01 9.472546e-01 0.000000e+00
    outer loop
      vertex   5.155382e+01 2.556774e+00 0.000000e+00
      vertex   5.161267e+01 2.576686e+00 4.000000e-01
      vertex   5.161267e+01 2.576686e+00 0.000000e+00
    endloop
  endfacet
  facet normal -1.823319e-01 9.832370e-01 0.000000e+00
    outer loop
      vertex   5.161267e+01 2.576686e+00 4.000000e-01
      vertex   5.167306e+01 2.587884e+00 4.000000e-01
      vertex   5.161267e+01 2.576686e+00 0.000000e+00
    endloop
  endfacet
  facet normal -1.823319e-01 9.832370e-01 0.000000e+00
    outer loop
      vertex   5.161267e+01 2.576686e+00 0.000000e+00
      vertex   5.167306e+01 2.587884e+00 4.000000e-01
      vertex   5.167306e+01 2.587884e+00 0.000000e+00
    endloop
  endfacet
  facet normal -4.716924e-02 9.988869e-01 0.000000e+00
    outer loop
      vertex   5.167306e+01 2.587884e+00 4.000000e-01
      vertex   5.173415e+01 2.590769e+00 4.000000e-01
      vertex   5.167306e+01 2.587884e+00 0.000000e+00
    endloop
  endfacet
  facet normal -4.716924e-02 9.988869e-01 0.000000e+00
    outer loop
      vertex   5.167306e+01 2.587884e+00 0.000000e+00
      vertex   5.173415e+01 2.590769e+00 4.000000e-01
      vertex   5.173415e+01 2.590769e+00 0.000000e+00
    endloop
  endfacet
  facet normal 8.218874e-02 9.966168e-01 0.000000e+00
    outer loop
      vertex   5.173415e+01 2.590769e+00 4.000000e-01
      vertex   5.179511e+01 2.585742e+00 4.000000e-01
      vertex   5.173415e+01 2.590769e+00 0.000000e+00
    endloop
  endfacet
  facet normal 8.218874e-02 9.966168e-01 0.000000e+00
    outer loop
      vertex   5.173415e+01 2.590769e+00 0.000000e+00
      vertex   5.179511e+01 2.585742e+00 4.000000e-01
      vertex   5.179511e+01 2.585742e+00 0.000000e+00
    endloop
  endfacet
  facet normal 2.045267e-01 9.788610e-01 0.000000e+00
    outer loop
      vertex   5.179511e+01 2.585742e+00 4.000000e-01
      vertex   5.185512e+01 2.573204e+00 4.000000e-01
      vertex   5.179511e+01 2.585742e+00 0.000000e+00
    endloop
  endfacet
  facet normal 2.045267e-01 9.788610e-01 0.000000e+00
    outer loop
      vertex   5.179511e+01 2.585742e+00 0.000000e+00
      vertex   5.185512e+01 2.573204e+00 4.000000e-01
      vertex   5.185512e+01 2.573204e+00 0.000000e+00
    endloop
  endfacet
  facet normal 3.197310e-01 9.475084e-01 0.000000e+00
    outer loop
      vertex   5.185512e+01 2.573204e+00 4.000000e-01
      vertex   5.191334e+01 2.553556e+00 4.000000e-01
      vertex   5.185512e+01 2.573204e+00 0.000000e+00
    endloop
  endfacet
  facet normal 3.197310e-01 9.475084e-01 0.000000e+00
    outer loop
      vertex   5.185512e+01 2.573204e+00 0.000000e+00
      vertex   5.191334e+01 2.553556e+00 4.000000e-01
      vertex   5.191334e+01 2.553556e+00 0.000000e+00
    endloop
  endfacet
  facet normal 4.282485e-01 9.036610e-01 0.000000e+00
    outer loop
      vertex   5.191334e+01 2.553556e+00 4.000000e-01
      vertex   5.196896e+01 2.527200e+00 4.000000e-01
      vertex   5.191334e+01 2.553556e+00 0.000000e+00
    endloop
  endfacet
  facet normal 4.282485e-01 9.036610e-01 0.000000e+00
    outer loop
      vertex   5.191334e+01 2.553556e+00 0.000000e+00
      vertex   5.196896e+01 2.527200e+00 4.000000e-01
      vertex   5.196896e+01 2.527200e+00 0.000000e+00
    endloop
  endfacet
  facet normal 5.306180e-01 8.476111e-01 0.000000e+00
    outer loop
      vertex   5.196896e+01 2.527200e+00 4.000000e-01
      vertex   5.202113e+01 2.494538e+00 4.000000e-01
      vertex   5.196896e+01 2.527200e+00 0.000000e+00
    endloop
  endfacet
  facet normal 5.306180e-01 8.476111e-01 0.000000e+00
    outer loop
      vertex   5.196896e+01 2.527200e+00 0.000000e+00
      vertex   5.202113e+01 2.494538e+00 4.000000e-01
      vertex   5.202113e+01 2.494538e+00 0.000000e+00
    endloop
  endfacet
  facet normal 6.270849e-01 7.789509e-01 0.000000e+00
    outer loop
      vertex   5.202113e+01 2.494538e+00 4.000000e-01
      vertex   5.206904e+01 2.455970e+00 4.000000e-01
      vertex   5.202113e+01 2.494538e+00 0.000000e+00
    endloop
  endfacet
  facet normal 6.270849e-01 7.789509e-01 0.000000e+00
    outer loop
      vertex   5.202113e+01 2.494538e+00 0.000000e+00
      vertex   5.206904e+01 2.455970e+00 4.000000e-01
      vertex   5.206904e+01 2.455970e+00 0.000000e+00
    endloop
  endfacet
  facet normal 7.172768e-01 6.967884e-01 0.000000e+00
    outer loop
      vertex   5.206904e+01 2.455970e+00 4.000000e-01
      vertex   5.211185e+01 2.411898e+00 4.000000e-01
      vertex   5.206904e+01 2.455970e+00 0.000000e+00
    endloop
  endfacet
  facet normal 7.172768e-01 6.967884e-01 0.000000e+00
    outer loop
      vertex   5.206904e+01 2.455970e+00 0.000000e+00
      vertex   5.211185e+01 2.411898e+00 4.000000e-01
      vertex   5.211185e+01 2.411898e+00 0.000000e+00
    endloop
  endfacet
  facet normal 7.999305e-01 6.000926e-01 0.000000e+00
    outer loop
      vertex   5.211185e+01 2.411898e+00 4.000000e-01
      vertex   5.214874e+01 2.362723e+00 4.000000e-01
      vertex   5.211185e+01 2.411898e+00 0.000000e+00
    endloop
  endfacet
  facet normal 7.999305e-01 6.000926e-01 0.000000e+00
    outer loop
      vertex   5.211185e+01 2.411898e+00 0.000000e+00
      vertex   5.214874e+01 2.362723e+00 4.000000e-01
      vertex   5.214874e+01 2.362723e+00 0.000000e+00
    endloop
  endfacet
  facet normal 8.727264e-01 4.882095e-01 0.000000e+00
    outer loop
      vertex   5.214874e+01 2.362723e+00 4.000000e-01
      vertex   5.217888e+01 2.308846e+00 4.000000e-01
      vertex   5.214874e+01 2.362723e+00 0.000000e+00
    endloop
  endfacet
  facet normal 8.727264e-01 4.882095e-01 0.000000e+00
    outer loop
      vertex   5.214874e+01 2.362723e+00 0.000000e+00
      vertex   5.217888e+01 2.308846e+00 4.000000e-01
      vertex   5.217888e+01 2.308846e+00 0.000000e+00
    endloop
  endfacet
  facet normal 9.323545e-01 3.615455e-01 0.000000e+00
    outer loop
      vertex   5.217888e+01 2.308846e+00 4.000000e-01
      vertex   5.220144e+01 2.250669e+00 4.000000e-01
      vertex   5.217888e+01 2.308846e+00 0.000000e+00
    endloop
  endfacet
  facet normal 9.323545e-01 3.615455e-01 0.000000e+00
    outer loop
      vertex   5.217888e+01 2.308846e+00 0.000000e+00
      vertex   5.220144e+01 2.250669e+00 4.000000e-01
      vertex   5.220144e+01 2.250669e+00 0.000000e+00
    endloop
  endfacet
  facet normal 9.660357e-01 2.584087e-01 0.000000e+00
    outer loop
      vertex   5.220144e+01 2.250669e+00 4.000000e-01
      vertex   5.220962e+01 2.220094e+00 4.000000e-01
      vertex   5.220144e+01 2.250669e+00 0.000000e+00
    endloop
  endfacet
  facet normal 9.660357e-01 2.584087e-01 0.000000e+00
    outer loop
      vertex   5.220144e+01 2.250669e+00 0.000000e+00
      vertex   5.220962e+01 2.220094e+00 4.000000e-01
      vertex   5.220962e+01 2.220094e+00 0.000000e+00
    endloop
  endfacet
  facet normal 9.475278e-01 3.196733e-01 0.000000e+00
    outer loop
      vertex   5.220962e+01 2.220094e+00 4.000000e-01
      vertex   5.222182e+01 2.183925e+00 4.000000e-01
      vertex   5.220962e+01 2.220094e+00 0.000000e+00
    endloop
  endfacet
  facet normal 9.475278e-01 3.196733e-01 0.000000e+00
    outer loop
      vertex   5.220962e+01 2.220094e+00 0.000000e+00
      vertex   5.222182e+01 2.183925e+00 4.000000e-01
      vertex   5.222182e+01 2.183925e+00 0.000000e+00
    endloop
  endfacet
  facet normal 9.680038e-01 2.509354e-01 0.000000e+00
    outer loop
      vertex   5.222182e+01 2.183925e+00 4.000000e-01
      vertex   5.223139e+01 2.147012e+00 4.000000e-01
      vertex   5.222182e+01 2.183925e+00 0.000000e+00
    endloop
  endfacet
  facet normal 9.680038e-01 2.509354e-01 0.000000e+00
    outer loop
      vertex   5.222182e+01 2.183925e+00 0.000000e+00
      vertex   5.223139e+01 2.147012e+00 4.000000e-01
      vertex   5.223139e+01 2.147012e+00 0.000000e+00
    endloop
  endfacet
  facet normal 9.830707e-01 1.832267e-01 0.000000e+00
    outer loop
      vertex   5.223139e+01 2.147012e+00 4.000000e-01
      vertex   5.223838e+01 2.109514e+00 4.000000e-01
      vertex   5.223139e+01 2.147012e+00 0.000000e+00
    endloop
  endfacet
  facet normal 9.830707e-01 1.832267e-01 0.000000e+00
    outer loop
      vertex   5.223139e+01 2.147012e+00 0.000000e+00
      vertex   5.223838e+01 2.109514e+00 4.000000e-01
      vertex   5.223838e+01 2.109514e+00 0.000000e+00
    endloop
  endfacet
  facet normal 9.931473e-01 1.168690e-01 0.000000e+00
    outer loop
      vertex   5.223838e+01 2.109514e+00 4.000000e-01
      vertex   5.224284e+01 2.071589e+00 4.000000e-01
      vertex   5.223838e+01 2.109514e+00 0.000000e+00
    endloop
  endfacet
  facet normal 9.931473e-01 1.168690e-01 0.000000e+00
    outer loop
      vertex   5.223838e+01 2.109514e+00 0.000000e+00
      vertex   5.224284e+01 2.071589e+00 4.000000e-01
      vertex   5.224284e+01 2.071589e+00 0.000000e+00
    endloop
  endfacet
  facet normal 9.997915e-01 2.042091e-02 0.000000e+00
    outer loop
      vertex   5.224284e+01 2.071589e+00 4.000000e-01
      vertex   5.224441e+01 1.995091e+00 4.000000e-01
      vertex   5.224284e+01 2.071589e+00 0.000000e+00
    endloop
  endfacet
  facet normal 9.997915e-01 2.042091e-02 0.000000e+00
    outer loop
      vertex   5.224284e+01 2.071589e+00 0.000000e+00
      vertex   5.224441e+01 1.995091e+00 4.000000e-01
      vertex   5.224441e+01 1.995091e+00 0.000000e+00
    endloop
  endfacet
  facet normal 9.946880e-01 -1.029357e-01 0.000000e+00
    outer loop
      vertex   5.224441e+01 1.995091e+00 4.000000e-01
      vertex   5.223651e+01 1.918785e+00 4.000000e-01
      vertex   5.224441e+01 1.995091e+00 0.000000e+00
    endloop
  endfacet
  facet normal 9.946880e-01 -1.029357e-01 0.000000e+00
    outer loop
      vertex   5.224441e+01 1.995091e+00 0.000000e+00
      vertex   5.223651e+01 1.918785e+00 4.000000e-01
      vertex   5.223651e+01 1.918785e+00 0.000000e+00
    endloop
  endfacet
  facet normal 9.753730e-01 -2.205619e-01 0.000000e+00
    outer loop
      vertex   5.223651e+01 1.918785e+00 4.000000e-01
      vertex   5.221958e+01 1.843938e+00 4.000000e-01
      vertex   5.223651e+01 1.918785e+00 0.000000e+00
    endloop
  endfacet
  facet normal 9.753730e-01 -2.205619e-01 0.000000e+00
    outer loop
      vertex   5.223651e+01 1.918785e+00 0.000000e+00
      vertex   5.221958e+01 1.843938e+00 4.000000e-01
      vertex   5.221958e+01 1.843938e+00 0.000000e+00
    endloop
  endfacet
  facet normal 9.427074e-01 -3.336205e-01 0.000000e+00
    outer loop
      vertex   5.221958e+01 1.843938e+00 4.000000e-01
      vertex   5.219406e+01 1.771815e+00 4.000000e-01
      vertex   5.221958e+01 1.843938e+00 0.000000e+00
    endloop
  endfacet
  facet normal 9.427074e-01 -3.336205e-01 0.000000e+00
    outer loop
      vertex   5.221958e+01 1.843938e+00 0.000000e+00
      vertex   5.219406e+01 1.771815e+00 4.000000e-01
      vertex   5.219406e+01 1.771815e+00 0.000000e+00
    endloop
  endfacet
  facet normal 8.963828e-01 -4.432808e-01 0.000000e+00
    outer loop
      vertex   5.219406e+01 1.771815e+00 4.000000e-01
      vertex   5.216037e+01 1.703684e+00 4.000000e-01
      vertex   5.219406e+01 1.771815e+00 0.000000e+00
    endloop
  endfacet
  facet normal 8.963828e-01 -4.432808e-01 0.000000e+00
    outer loop
      vertex   5.219406e+01 1.771815e+00 0.000000e+00
      vertex   5.216037e+01 1.703684e+00 4.000000e-01
      vertex   5.216037e+01 1.703684e+00 0.000000e+00
    endloop
  endfacet
  facet normal 8.350098e-01 -5.502351e-01 0.000000e+00
    outer loop
      vertex   5.216037e+01 1.703684e+00 4.000000e-01
      vertex   5.211894e+01 1.640811e+00 4.000000e-01
      vertex   5.216037e+01 1.703684e+00 0.000000e+00
    endloop
  endfacet
  facet normal 8.350098e-01 -5.502351e-01 0.000000e+00
    outer loop
      vertex   5.216037e+01 1.703684e+00 0.000000e+00
      vertex   5.211894e+01 1.640811e+00 4.000000e-01
      vertex   5.211894e+01 1.640811e+00 0.000000e+00
    endloop
  endfacet
  facet normal 7.778889e-01 -6.284018e-01 0.000000e+00
    outer loop
      vertex   5.211894e+01 1.640811e+00 4.000000e-01
      vertex   5.209545e+01 1.611742e+00 4.000000e-01
      vertex   5.211894e+01 1.640811e+00 0.000000e+00
    endloop
  endfacet
  facet normal 7.778889e-01 -6.284018e-01 0.000000e+00
    outer loop
      vertex   5.211894e+01 1.640811e+00 0.000000e+00
      vertex   5.209545e+01 1.611742e+00 4.000000e-01
      vertex   5.209545e+01 1.611742e+00 0.000000e+00
    endloop
  endfacet
  facet normal 7.337969e-01 -6.793690e-01 0.000000e+00
    outer loop
      vertex   5.209545e+01 1.611742e+00 4.000000e-01
      vertex   5.207020e+01 1.584463e+00 4.000000e-01
      vertex   5.209545e+01 1.611742e+00 0.000000e+00
    endloop
  endfacet
  facet normal 7.337969e-01 -6.793690e-01 0.000000e+00
    outer loop
      vertex   5.209545e+01 1.611742e+00 0.000000e+00
      vertex   5.207020e+01 1.584463e+00 4.000000e-01
      vertex   5.207020e+01 1.584463e+00 0.000000e+00
    endloop
  endfacet
  facet normal 6.845450e-01 -7.289706e-01 0.000000e+00
    outer loop
      vertex   5.207020e+01 1.584463e+00 4.000000e-01
      vertex   5.204322e+01 1.559132e+00 4.000000e-01
      vertex   5.207020e+01 1.584463e+00 0.000000e+00
    endloop
  endfacet
  facet normal 6.845450e-01 -7.289706e-01 0.000000e+00
    outer loop
      vertex   5.207020e+01 1.584463e+00 0.000000e+00
      vertex   5.204322e+01 1.559132e+00 4.000000e-01
      vertex   5.204322e+01 1.559132e+00 0.000000e+00
    endloop
  endfacet
  facet normal 6.298463e-01 -7.767198e-01 0.000000e+00
    outer loop
      vertex   5.204322e+01 1.559132e+00 4.000000e-01
      vertex   5.201458e+01 1.535907e+00 4.000000e-01
      vertex   5.204322e+01 1.559132e+00 0.000000e+00
    endloop
  endfacet
  facet normal 6.298463e-01 -7.767198e-01 0.000000e+00
    outer loop
      vertex   5.204322e+01 1.559132e+00 0.000000e+00
      vertex   5.201458e+01 1.535907e+00 4.000000e-01
      vertex   5.201458e+01 1.535907e+00 0.000000e+00
    endloop
  endfacet
  facet normal 5.695087e-01 -8.219853e-01 0.000000e+00
    outer loop
      vertex   5.201458e+01 1.535907e+00 4.000000e-01
      vertex   5.198433e+01 1.514947e+00 4.000000e-01
      vertex   5.201458e+01 1.535907e+00 0.000000e+00
    endloop
  endfacet
  facet normal 5.695087e-01 -8.219853e-01 0.000000e+00
    outer loop
      vertex   5.201458e+01 1.535907e+00 0.000000e+00
      vertex   5.198433e+01 1.514947e+00 4.000000e-01
      vertex   5.198433e+01 1.514947e+00 0.000000e+00
    endloop
  endfacet
  facet normal 5.034909e-01 -8.640005e-01 0.000000e+00
    outer loop
      vertex   5.198433e+01 1.514947e+00 4.000000e-01
      vertex   5.195252e+01 1.496409e+00 4.000000e-01
      vertex   5.198433e+01 1.514947e+00 0.000000e+00
    endloop
  endfacet
  facet normal 5.034909e-01 -8.640005e-01 0.000000e+00
    outer loop
      vertex   5.198433e+01 1.514947e+00 0.000000e+00
      vertex   5.195252e+01 1.496409e+00 4.000000e-01
      vertex   5.195252e+01 1.496409e+00 0.000000e+00
    endloop
  endfacet
  facet normal 4.319620e-01 -9.018918e-01 0.000000e+00
    outer loop
      vertex   5.195252e+01 1.496409e+00 4.000000e-01
      vertex   5.191920e+01 1.480453e+00 4.000000e-01
      vertex   5.195252e+01 1.496409e+00 0.000000e+00
    endloop
  endfacet
  facet normal 4.319620e-01 -9.018918e-01 0.000000e+00
    outer loop
      vertex   5.195252e+01 1.496409e+00 0.000000e+00
      vertex   5.191920e+01 1.480453e+00 4.000000e-01
      vertex   5.191920e+01 1.480453e+00 0.000000e+00
    endloop
  endfacet
  facet normal 3.553538e-01 -9.347319e-01 0.000000e+00
    outer loop
      vertex   5.191920e+01 1.480453e+00 4.000000e-01
      vertex   5.188444e+01 1.467236e+00 4.000000e-01
      vertex   5.191920e+01 1.480453e+00 0.000000e+00
    endloop
  endfacet
  facet normal 3.553538e-01 -9.347319e-01 0.000000e+00
    outer loop
      vertex   5.191920e+01 1.480453e+00 0.000000e+00
      vertex   5.188444e+01 1.467236e+00 4.000000e-01
      vertex   5.188444e+01 1.467236e+00 0.000000e+00
    endloop
  endfacet
  facet normal 2.743944e-01 -9.616172e-01 0.000000e+00
    outer loop
      vertex   5.188444e+01 1.467236e+00 4.000000e-01
      vertex   5.184828e+01 1.456918e+00 4.000000e-01
      vertex   5.188444e+01 1.467236e+00 0.000000e+00
    endloop
  endfacet
  facet normal 2.743944e-01 -9.616172e-01 0.000000e+00
    outer loop
      vertex   5.188444e+01 1.467236e+00 0.000000e+00
      vertex   5.184828e+01 1.456918e+00 4.000000e-01
      vertex   5.184828e+01 1.456918e+00 0.000000e+00
    endloop
  endfacet
  facet normal 1.901096e-01 -9.817629e-01 0.000000e+00
    outer loop
      vertex   5.184828e+01 1.456918e+00 4.000000e-01
      vertex   5.181077e+01 1.449655e+00 4.000000e-01
      vertex   5.184828e+01 1.456918e+00 0.000000e+00
    endloop
  endfacet
  facet normal 1.901096e-01 -9.817629e-01 0.000000e+00
    outer loop
      vertex   5.184828e+01 1.456918e+00 0.000000e+00
      vertex   5.181077e+01 1.449655e+00 4.000000e-01
      vertex   5.181077e+01 1.449655e+00 0.000000e+00
    endloop
  endfacet
  facet normal 0.000000e+00 -0.000000e+00 -1.000000e+00
    outer loop
      vertex   5.155382e+01 2.556774e+00 0.000000e+00
      vertex   5.161267e+01 2.576686e+00 0.000000e+00
      vertex   5.149732e+01 2.527745e+00 0.000000e+00
    endloop
  endfacet
  facet normal 0.000000e+00 0.000000e+00 -1.000000e+00
    outer loop
      vertex   5.149732e+01 2.527745e+00 0.000000e+00
      vertex   5.161267e+01 2.576686e+00 0.000000e+00
      vertex   5.167306e+01 2.587884e+00 0.000000e+00
    endloop
  endfacet
  facet normal 0.000000e+00 0.000000e+00 -1.000000e+00
    outer loop
      vertex   5.149732e+01 2.527745e+00 0.000000e+00
      vertex   5.167306e+01 2.587884e+00 0.000000e+00
      vertex   5.173415e+01 2.590769e+00 0.000000e+00
    endloop
  endfacet
  facet normal 0.000000e+00 -0.000000e+00 -1.000000e+00
    outer loop
      vertex   5.173415e+01 2.590769e+00 0.000000e+00
      vertex   5.179511e+01 2.585742e+00 0.000000e+00
      vertex   5.149732e+01 2.527745e+00 0.000000e+00
    endloop
  endfacet
  facet normal 0.000000e+00 0.000000e+00 -1.000000e+00
    outer loop
      vertex   5.149732e+01 2.527745e+00 0.000000e+00
      vertex   5.179511e+01 2.585742e+00 0.000000e+00
      vertex   5.185512e+01 2.573204e+00 0.000000e+00
    endloop
  endfacet
  facet normal 0.000000e+00 0.000000e+00 -1.000000e+00
    outer loop
      vertex   5.149732e+01 2.527745e+00 0.000000e+00
      vertex   5.185512e+01 2.573204e+00 0.000000e+00
      vertex   5.191334e+01 2.553556e+00 0.000000e+00
    endloop
  endfacet
  facet normal 0.000000e+00 -0.000000e+00 -1.000000e+00
    outer loop
      vertex   5.191334e+01 2.553556e+00 0.000000e+00
      vertex   5.196896e+01 2.527200e+00 0.000000e+00
      vertex   5.149732e+01 2.527745e+00 0.000000e+00
    endloop
  endfacet
  facet normal 0.000000e+00 0.000000e+00 -1.000000e+00
    outer loop
      vertex   5.149732e+01 2.527745e+00 0.000000e+00
      vertex   5.196896e+01 2.527200e+00 0.000000e+00
      vertex   5.202113e+01 2.494538e+00 0.000000e+00
    endloop
  endfacet
  facet normal 0.000000e+00 0.000000e+00 -1.000000e+00
    outer loop
      vertex   5.149732e+01 2.527745e+00 0.000000e+00
      vertex   5.202113e+01 2.494538e+00 0.000000e+00
      vertex   5.206904e+01 2.455970e+00 0.000000e+00
    endloop
  endfacet
  facet normal -0.000000e+00 -0.000000e+00 -1.000000e+00
    outer loop
      vertex   5.211185e+01 2.411898e+00 0.000000e+00
      vertex   5.220962e+01 2.220094e+00 0.000000e+00
      vertex   5.206904e+01 2.455970e+00 0.000000e+00
    endloop
  endfacet
  facet normal 0.000000e+00 -0.000000e+00 -1.000000e+00
    outer loop
      vertex   5.206904e+01 2.455970e+00 0.000000e+00
      vertex   5.220962e+01 2.220094e+00 0.000000e+00
      vertex   5.122794e+01 2.040644e+00 0.000000e+00
    endloop
  endfacet
  facet normal 0.000000e+00 0.000000e+00 -1.000000e+00
    outer loop
      vertex   5.206904e+01 2.455970e+00 0.000000e+00
      vertex   5.122794e+01 2.040644e+00 0.000000e+00
      vertex   5.123042e+01 2.089913e+00 0.000000e+00
    endloop
  endfacet
  facet normal 0.000000e+00 0.000000e+00 -1.000000e+00
    outer loop
      vertex   5.220962e+01 2.220094e+00 0.000000e+00
      vertex   5.211185e+01 2.411898e+00 0.000000e+00
      vertex   5.220144e+01 2.250669e+00 0.000000e+00
    endloop
  endfacet
  facet normal 0.000000e+00 0.000000e+00 -1.000000e+00
    outer loop
      vertex   5.220144e+01 2.250669e+00 0.000000e+00
      vertex   5.211185e+01 2.411898e+00 0.000000e+00
      vertex   5.214874e+01 2.362723e+00 0.000000e+00
    endloop
  endfacet
  facet normal 0.000000e+00 0.000000e+00 -1.000000e+00
    outer loop
      vertex   5.220144e+01 2.250669e+00 0.000000e+00
      vertex   5.214874e+01 2.362723e+00 0.000000e+00
      vertex   5.217888e+01 2.308846e+00 0.000000e+00
    endloop
  endfacet
  facet normal -0.000000e+00 0.000000e+00 -1.000000e+00
    outer loop
      vertex   5.222182e+01 2.183925e+00 0.000000e+00
      vertex   5.123338e+01 1.941976e+00 0.000000e+00
      vertex   5.220962e+01 2.220094e+00 0.000000e+00
    endloop
  endfacet
  facet normal 0.000000e+00 0.000000e+00 -1.000000e+00
    outer loop
      vertex   5.220962e+01 2.220094e+00 0.000000e+00
      vertex   5.123338e+01 1.941976e+00 0.000000e+00
      vertex   5.122894e+01 1.991223e+00 0.000000e+00
    endloop
  endfacet
  facet normal 0.000000e+00 0.000000e+00 -1.000000e+00
    outer loop
      vertex   5.220962e+01 2.220094e+00 0.000000e+00
      vertex   5.122894e+01 1.991223e+00 0.000000e+00
      vertex   5.122794e+01 2.040644e+00 0.000000e+00
    endloop
  endfacet
  facet normal 0.000000e+00 -0.000000e+00 -1.000000e+00
    outer loop
      vertex   5.222182e+01 2.183925e+00 0.000000e+00
      vertex   5.223139e+01 2.147012e+00 0.000000e+00
      vertex   5.123338e+01 1.941976e+00 0.000000e+00
    endloop
  endfacet
  facet normal 0.000000e+00 0.000000e+00 -1.000000e+00
    outer loop
      vertex   5.123338e+01 1.941976e+00 0.000000e+00
      vertex   5.223139e+01 2.147012e+00 0.000000e+00
      vertex   5.223838e+01 2.109514e+00 0.000000e+00
    endloop
  endfacet
  facet normal 0.000000e+00 0.000000e+00 -1.000000e+00
    outer loop
      vertex   5.123338e+01 1.941976e+00 0.000000e+00
      vertex   5.223838e+01 2.109514e+00 0.000000e+00
      vertex   5.224284e+01 2.071589e+00 0.000000e+00
    endloop
  endfacet
  facet normal 0.000000e+00 -0.000000e+00 -1.000000e+00
    outer loop
      vertex   5.224284e+01 2.071589e+00 0.000000e+00
      vertex   5.224441e+01 1.995091e+00 0.000000e+00
      vertex   5.123338e+01 1.941976e+00 0.000000e+00
    endloop
  endfacet
  facet normal 0.000000e+00 0.000000e+00 -1.000000e+00
    outer loop
      vertex   5.123338e+01 1.941976e+00 0.000000e+00
      vertex   5.224441e+01 1.995091e+00 0.000000e+00
      vertex   5.223651e+01 1.918785e+00 0.000000e+00
    endloop
  endfacet
  facet normal 0.000000e+00 0.000000e+00 -1.000000e+00
    outer loop
      vertex   5.123338e+01 1.941976e+00 0.000000e+00
      vertex   5.223651e+01 1.918785e+00 0.000000e+00
      vertex   5.221958e+01 1.843938e+00 0.000000e+00
    endloop
  endfacet
  facet normal 0.000000e+00 0.000000e+00 -1.000000e+00
    outer loop
      vertex   5.123338e+01 1.941976e+00 0.000000e+00
      vertex   5.221958e+01 1.843938e+00 0.000000e+00
      vertex   5.124124e+01 1.893233e+00 0.000000e+00
    endloop
  endfacet
  facet normal 0.000000e+00 0.000000e+00 -1.000000e+00
    outer loop
      vertex   5.124124e+01 1.893233e+00 0.000000e+00
      vertex   5.221958e+01 1.843938e+00 0.000000e+00
      vertex   5.219406e+01 1.771815e+00 0.000000e+00
    endloop
  endfacet
  facet normal 0.000000e+00 0.000000e+00 -1.000000e+00
    outer loop
      vertex   5.124124e+01 1.893233e+00 0.000000e+00
      vertex   5.219406e+01 1.771815e+00 0.000000e+00
      vertex   5.125248e+01 1.845323e+00 0.000000e+00
    endloop
  endfacet
  facet normal 0.000000e+00 0.000000e+00 -1.000000e+00
    outer loop
      vertex   5.125248e+01 1.845323e+00 0.000000e+00
      vertex   5.219406e+01 1.771815e+00 0.000000e+00
      vertex   5.216037e+01 1.703684e+00 0.000000e+00
    endloop
  endfacet
  facet normal 0.000000e+00 0.000000e+00 -1.000000e+00
    outer loop
      vertex   5.125248e+01 1.845323e+00 0.000000e+00
      vertex   5.216037e+01 1.703684e+00 0.000000e+00
      vertex   5.126707e+01 1.798574e+00 0.000000e+00
    endloop
  endfacet
  facet normal 0.000000e+00 0.000000e+00 -1.000000e+00
    outer loop
      vertex   5.126707e+01 1.798574e+00 0.000000e+00
      vertex   5.216037e+01 1.703684e+00 0.000000e+00
      vertex   5.211894e+01 1.640811e+00 0.000000e+00
    endloop
  endfacet
  facet normal 0.000000e+00 0.000000e+00 -1.000000e+00
    outer loop
      vertex   5.126707e+01 1.798574e+00 0.000000e+00
      vertex   5.211894e+01 1.640811e+00 0.000000e+00
      vertex   5.209545e+01 1.611742e+00 0.000000e+00
    endloop
  endfacet
  facet normal -0.000000e+00 0.000000e+00 -1.000000e+00
    outer loop
      vertex   5.209545e+01 1.611742e+00 0.000000e+00
      vertex   5.207020e+01 1.584463e+00 0.000000e+00
      vertex   5.126707e+01 1.798574e+00 0.000000e+00
    endloop
  endfacet
  facet normal 0.000000e+00 0.000000e+00 -1.000000e+00
    outer loop
      vertex   5.126707e+01 1.798574e+00 0.000000e+00
      vertex   5.207020e+01 1.584463e+00 0.000000e+00
      vertex   5.204322e+01 1.559132e+00 0.000000e+00
    endloop
  endfacet
  facet normal 0.000000e+00 0.000000e+00 -1.000000e+00
    outer loop
      vertex   5.126707e+01 1.798574e+00 0.000000e+00
      vertex   5.204322e+01 1.559132e+00 0.000000e+00
      vertex   5.128497e+01 1.753315e+00 0.000000e+00
    endloop
  endfacet
  facet normal 0.000000e+00 0.000000e+00 -1.000000e+00
    outer loop
      vertex   5.128497e+01 1.753315e+00 0.000000e+00
      vertex   5.204322e+01 1.559132e+00 0.000000e+00
      vertex   5.130614e+01 1.709874e+00 0.000000e+00
    endloop
  endfacet
  facet normal 0.000000e+00 0.000000e+00 -1.000000e+00
    outer loop
      vertex   5.130614e+01 1.709874e+00 0.000000e+00
      vertex   5.204322e+01 1.559132e+00 0.000000e+00
      vertex   5.133057e+01 1.668581e+00 0.000000e+00
    endloop
  endfacet
  facet normal 0.000000e+00 0.000000e+00 -1.000000e+00
    outer loop
      vertex   5.133057e+01 1.668581e+00 0.000000e+00
      vertex   5.204322e+01 1.559132e+00 0.000000e+00
      vertex   5.135820e+01 1.629763e+00 0.000000e+00
    endloop
  endfacet
  facet normal 0.000000e+00 0.000000e+00 -1.000000e+00
    outer loop
      vertex   5.135820e+01 1.629763e+00 0.000000e+00
      vertex   5.204322e+01 1.559132e+00 0.000000e+00
      vertex   5.138901e+01 1.593750e+00 0.000000e+00
    endloop
  endfacet
  facet normal 0.000000e+00 0.000000e+00 -1.000000e+00
    outer loop
      vertex   5.138901e+01 1.593750e+00 0.000000e+00
      vertex   5.204322e+01 1.559132e+00 0.000000e+00
      vertex   5.142296e+01 1.560869e+00 0.000000e+00
    endloop
  endfacet
  facet normal 0.000000e+00 0.000000e+00 -1.000000e+00
    outer loop
      vertex   5.142296e+01 1.560869e+00 0.000000e+00
      vertex   5.204322e+01 1.559132e+00 0.000000e+00
      vertex   5.146001e+01 1.531451e+00 0.000000e+00
    endloop
  endfacet
  facet normal 0.000000e+00 0.000000e+00 -1.000000e+00
    outer loop
      vertex   5.146001e+01 1.531451e+00 0.000000e+00
      vertex   5.204322e+01 1.559132e+00 0.000000e+00
      vertex   5.150015e+01 1.505823e+00 0.000000e+00
    endloop
  endfacet
  facet normal 0.000000e+00 0.000000e+00 -1.000000e+00
    outer loop
      vertex   5.150015e+01 1.505823e+00 0.000000e+00
      vertex   5.204322e+01 1.559132e+00 0.000000e+00
      vertex   5.154332e+01 1.484314e+00 0.000000e+00
    endloop
  endfacet
  facet normal 0.000000e+00 0.000000e+00 -1.000000e+00
    outer loop
      vertex   5.154332e+01 1.484314e+00 0.000000e+00
      vertex   5.204322e+01 1.559132e+00 0.000000e+00
      vertex   5.158950e+01 1.467253e+00 0.000000e+00
    endloop
  endfacet
  facet normal 0.000000e+00 0.000000e+00 -1.000000e+00
    outer loop
      vertex   5.158950e+01 1.467253e+00 0.000000e+00
      vertex   5.204322e+01 1.559132e+00 0.000000e+00
      vertex   5.163865e+01 1.454968e+00 0.000000e+00
    endloop
  endfacet
  facet normal 0.000000e+00 0.000000e+00 -1.000000e+00
    outer loop
      vertex   5.163865e+01 1.454968e+00 0.000000e+00
      vertex   5.204322e+01 1.559132e+00 0.000000e+00
      vertex   5.169074e+01 1.447788e+00 0.000000e+00
    endloop
  endfacet
  facet normal 0.000000e+00 0.000000e+00 -1.000000e+00
    outer loop
      vertex   5.169074e+01 1.447788e+00 0.000000e+00
      vertex   5.204322e+01 1.559132e+00 0.000000e+00
      vertex   5.201458e+01 1.535907e+00 0.000000e+00
    endloop
  endfacet
  facet normal 0.000000e+00 0.000000e+00 -1.000000e+00
    outer loop
      vertex   5.169074e+01 1.447788e+00 0.000000e+00
      vertex   5.201458e+01 1.535907e+00 0.000000e+00
      vertex   5.198433e+01 1.514947e+00 0.000000e+00
    endloop
  endfacet
  facet normal 0.000000e+00 0.000000e+00 -1.000000e+00
    outer loop
      vertex   5.198433e+01 1.514947e+00 0.000000e+00
      vertex   5.195252e+01 1.496409e+00 0.000000e+00
      vertex   5.169074e+01 1.447788e+00 0.000000e+00
    endloop
  endfacet
  facet normal 0.000000e+00 0.000000e+00 -1.000000e+00
    outer loop
      vertex   5.169074e+01 1.447788e+00 0.000000e+00
      vertex   5.195252e+01 1.496409e+00 0.000000e+00
      vertex   5.191920e+01 1.480453e+00 0.000000e+00
    endloop
  endfacet
  facet normal 0.000000e+00 0.000000e+00 -1.000000e+00
    outer loop
      vertex   5.169074e+01 1.447788e+00 0.000000e+00
      vertex   5.191920e+01 1.480453e+00 0.000000e+00
      vertex   5.188444e+01 1.467236e+00 0.000000e+00
    endloop
  endfacet
  facet normal 0.000000e+00 0.000000e+00 -1.000000e+00
    outer loop
      vertex   5.188444e+01 1.467236e+00 0.000000e+00
      vertex   5.184828e+01 1.456918e+00 0.000000e+00
      vertex   5.169074e+01 1.447788e+00 0.000000e+00
    endloop
  endfacet
  facet normal 0.000000e+00 0.000000e+00 -1.000000e+00
    outer loop
      vertex   5.169074e+01 1.447788e+00 0.000000e+00
      vertex   5.184828e+01 1.456918e+00 0.000000e+00
      vertex   5.181077e+01 1.449655e+00 0.000000e+00
    endloop
  endfacet
  facet normal 0.000000e+00 0.000000e+00 -1.000000e+00
    outer loop
      vertex   5.169074e+01 1.447788e+00 0.000000e+00
      vertex   5.181077e+01 1.449655e+00 0.000000e+00
      vertex   5.173195e+01 1.444932e+00 0.000000e+00
    endloop
  endfacet
  facet normal 0.000000e+00 0.000000e+00 -1.000000e+00
    outer loop
      vertex   5.173195e+01 1.444932e+00 0.000000e+00
      vertex   5.181077e+01 1.449655e+00 0.000000e+00
      vertex   5.177198e+01 1.445607e+00 0.000000e+00
    endloop
  endfacet
  facet normal 0.000000e+00 0.000000e+00 -1.000000e+00
    outer loop
      vertex   5.123042e+01 2.089913e+00 0.000000e+00
      vertex   5.123643e+01 2.138699e+00 0.000000e+00
      vertex   5.206904e+01 2.455970e+00 0.000000e+00
    endloop
  endfacet
  facet normal 0.000000e+00 0.000000e+00 -1.000000e+00
    outer loop
      vertex   5.206904e+01 2.455970e+00 0.000000e+00
      vertex   5.123643e+01 2.138699e+00 0.000000e+00
      vertex   5.124598e+01 2.186675e+00 0.000000e+00
    endloop
  endfacet
  facet normal 0.000000e+00 0.000000e+00 -1.000000e+00
    outer loop
      vertex   5.206904e+01 2.455970e+00 0.000000e+00
      vertex   5.124598e+01 2.186675e+00 0.000000e+00
      vertex   5.125911e+01 2.233511e+00 0.000000e+00
    endloop
  endfacet
  facet normal 0.000000e+00 0.000000e+00 -1.000000e+00
    outer loop
      vertex   5.125911e+01 2.233511e+00 0.000000e+00
      vertex   5.127587e+01 2.278879e+00 0.000000e+00
      vertex   5.206904e+01 2.455970e+00 0.000000e+00
    endloop
  endfacet
  facet normal 0.000000e+00 0.000000e+00 -1.000000e+00
    outer loop
      vertex   5.206904e+01 2.455970e+00 0.000000e+00
      vertex   5.127587e+01 2.278879e+00 0.000000e+00
      vertex   5.129627e+01 2.322451e+00 0.000000e+00
    endloop
  endfacet
  facet normal 0.000000e+00 0.000000e+00 -1.000000e+00
    outer loop
      vertex   5.206904e+01 2.455970e+00 0.000000e+00
      vertex   5.129627e+01 2.322451e+00 0.000000e+00
      vertex   5.132037e+01 2.363897e+00 0.000000e+00
    endloop
  endfacet
  facet normal 0.000000e+00 0.000000e+00 -1.000000e+00
    outer loop
      vertex   5.132037e+01 2.363897e+00 0.000000e+00
      vertex   5.134818e+01 2.402889e+00 0.000000e+00
      vertex   5.206904e+01 2.455970e+00 0.000000e+00
    endloop
  endfacet
  facet normal 0.000000e+00 0.000000e+00 -1.000000e+00
    outer loop
      vertex   5.206904e+01 2.455970e+00 0.000000e+00
      vertex   5.134818e+01 2.402889e+00 0.000000e+00
      vertex   5.137975e+01 2.439099e+00 0.000000e+00
    endloop
  endfacet
  facet normal -0.000000e+00 0.000000e+00 -1.000000e+00
    outer loop
      vertex   5.206904e+01 2.455970e+00 0.000000e+00
      vertex   5.137975e+01 2.439099e+00 0.000000e+00
      vertex   5.141510e+01 2.472197e+00 0.000000e+00
    endloop
  endfacet
  facet normal 0.000000e+00 0.000000e+00 -1.000000e+00
    outer loop
      vertex   5.141510e+01 2.472197e+00 0.000000e+00
      vertex   5.145428e+01 2.501855e+00 0.000000e+00
      vertex   5.206904e+01 2.455970e+00 0.000000e+00
    endloop
  endfacet
  facet normal 0.000000e+00 0.000000e+00 -1.000000e+00
    outer loop
      vertex   5.206904e+01 2.455970e+00 0.000000e+00
      vertex   5.145428e+01 2.501855e+00 0.000000e+00
      vertex   5.149732e+01 2.527745e+00 0.000000e+00
    endloop
  endfacet
endsolid
