solid ASCII
  facet normal 0.000000e+00 0.000000e+00 1.000000e+00
    outer loop
      vertex   8.113431e+01 1.311838e+01 4.000000e-01
      vertex   8.104179e+01 1.289827e+01 4.000000e-01
      vertex   8.123147e+01 1.272582e+01 4.000000e-01
    endloop
  endfacet
  facet normal 0.000000e+00 0.000000e+00 1.000000e+00
    outer loop
      vertex   8.123147e+01 1.272582e+01 4.000000e-01
      vertex   8.104179e+01 1.289827e+01 4.000000e-01
      vertex   8.095107e+01 1.261177e+01 4.000000e-01
    endloop
  endfacet
  facet normal 0.000000e+00 0.000000e+00 1.000000e+00
    outer loop
      vertex   8.123147e+01 1.272582e+01 4.000000e-01
      vertex   8.095107e+01 1.261177e+01 4.000000e-01
      vertex   8.096366e+01 1.195378e+01 4.000000e-01
    endloop
  endfacet
  facet normal 0.000000e+00 0.000000e+00 1.000000e+00
    outer loop
      vertex   8.096366e+01 1.195378e+01 4.000000e-01
      vertex   8.095107e+01 1.261177e+01 4.000000e-01
      vertex   8.080805e+01 1.184678e+01 4.000000e-01
    endloop
  endfacet
  facet normal -0.000000e+00 0.000000e+00 1.000000e+00
    outer loop
      vertex   8.113431e+01 1.311838e+01 4.000000e-01
      vertex   8.123147e+01 1.272582e+01 4.000000e-01
      vertex   8.121712e+01 1.327625e+01 4.000000e-01
    endloop
  endfacet
  facet normal 0.000000e+00 0.000000e+00 1.000000e+00
    outer loop
      vertex   8.121712e+01 1.327625e+01 4.000000e-01
      vertex   8.123147e+01 1.272582e+01 4.000000e-01
      vertex   8.131934e+01 1.309545e+01 4.000000e-01
    endloop
  endfacet
  facet normal -0.000000e+00 0.000000e+00 1.000000e+00
    outer loop
      vertex   8.121712e+01 1.327625e+01 4.000000e-01
      vertex   8.131934e+01 1.309545e+01 4.000000e-01
      vertex   8.134447e+01 1.331085e+01 4.000000e-01
    endloop
  endfacet
  facet normal 0.000000e+00 0.000000e+00 1.000000e+00
    outer loop
      vertex   8.134764e+01 1.347480e+01 4.000000e-01
      vertex   8.131273e+01 1.342658e+01 4.000000e-01
      vertex   8.134447e+01 1.331085e+01 4.000000e-01
    endloop
  endfacet
  facet normal 0.000000e+00 0.000000e+00 1.000000e+00
    outer loop
      vertex   8.134447e+01 1.331085e+01 4.000000e-01
      vertex   8.131273e+01 1.342658e+01 4.000000e-01
      vertex   8.121712e+01 1.327625e+01 4.000000e-01
    endloop
  endfacet
  facet normal 9.932596e-01 -1.159113e-01 0.000000e+00
    outer loop
      vertex   8.134447e+01 1.331085e+01 4.000000e-01
      vertex   8.131934e+01 1.309545e+01 4.000000e-01
      vertex   8.134447e+01 1.331085e+01 0.000000e+00
    endloop
  endfacet
  facet normal 9.932596e-01 -1.159113e-01 0.000000e+00
    outer loop
      vertex   8.134447e+01 1.331085e+01 0.000000e+00
      vertex   8.131934e+01 1.309545e+01 4.000000e-01
      vertex   8.131934e+01 1.309545e+01 0.000000e+00
    endloop
  endfacet
  facet normal 9.728875e-01 -2.312788e-01 0.000000e+00
    outer loop
      vertex   8.131934e+01 1.309545e+01 4.000000e-01
      vertex   8.123147e+01 1.272582e+01 4.000000e-01
      vertex   8.131934e+01 1.309545e+01 0.000000e+00
    endloop
  endfacet
  facet normal 9.728875e-01 -2.312788e-01 0.000000e+00
    outer loop
      vertex   8.131934e+01 1.309545e+01 0.000000e+00
      vertex   8.123147e+01 1.272582e+01 4.000000e-01
      vertex   8.123147e+01 1.272582e+01 0.000000e+00
    endloop
  endfacet
  facet normal 9.447737e-01 -3.277233e-01 0.000000e+00
    outer loop
      vertex   8.123147e+01 1.272582e+01 4.000000e-01
      vertex   8.096366e+01 1.195378e+01 4.000000e-01
      vertex   8.123147e+01 1.272582e+01 0.000000e+00
    endloop
  endfacet
  facet normal 9.447737e-01 -3.277233e-01 0.000000e+00
    outer loop
      vertex   8.123147e+01 1.272582e+01 0.000000e+00
      vertex   8.096366e+01 1.195378e+01 4.000000e-01
      vertex   8.096366e+01 1.195378e+01 0.000000e+00
    endloop
  endfacet
  facet normal 5.666001e-01 -8.239929e-01 0.000000e+00
    outer loop
      vertex   8.096366e+01 1.195378e+01 4.000000e-01
      vertex   8.080805e+01 1.184678e+01 4.000000e-01
      vertex   8.096366e+01 1.195378e+01 0.000000e+00
    endloop
  endfacet
  facet normal 5.666001e-01 -8.239929e-01 0.000000e+00
    outer loop
      vertex   8.096366e+01 1.195378e+01 0.000000e+00
      vertex   8.080805e+01 1.184678e+01 4.000000e-01
      vertex   8.080805e+01 1.184678e+01 0.000000e+00
    endloop
  endfacet
  facet normal -9.829682e-01 1.837757e-01 0.000000e+00
    outer loop
      vertex   8.080805e+01 1.184678e+01 4.000000e-01
      vertex   8.095107e+01 1.261177e+01 4.000000e-01
      vertex   8.080805e+01 1.184678e+01 0.000000e+00
    endloop
  endfacet
  facet normal -9.829682e-01 1.837757e-01 0.000000e+00
    outer loop
      vertex   8.080805e+01 1.184678e+01 0.000000e+00
      vertex   8.095107e+01 1.261177e+01 4.000000e-01
      vertex   8.095107e+01 1.261177e+01 0.000000e+00
    endloop
  endfacet
  facet normal -9.533415e-01 3.018941e-01 0.000000e+00
    outer loop
      vertex   8.095107e+01 1.261177e+01 4.000000e-01
      vertex   8.104179e+01 1.289827e+01 4.000000e-01
      vertex   8.095107e+01 1.261177e+01 0.000000e+00
    endloop
  endfacet
  facet normal -9.533415e-01 3.018941e-01 0.000000e+00
    outer loop
      vertex   8.095107e+01 1.261177e+01 0.000000e+00
      vertex   8.104179e+01 1.289827e+01 4.000000e-01
      vertex   8.104179e+01 1.289827e+01 0.000000e+00
    endloop
  endfacet
  facet normal -9.218782e-01 3.874799e-01 0.000000e+00
    outer loop
      vertex   8.104179e+01 1.289827e+01 4.000000e-01
      vertex   8.113431e+01 1.311838e+01 4.000000e-01
      vertex   8.104179e+01 1.289827e+01 0.000000e+00
    endloop
  endfacet
  facet normal -9.218782e-01 3.874799e-01 0.000000e+00
    outer loop
      vertex   8.104179e+01 1.289827e+01 0.000000e+00
      vertex   8.113431e+01 1.311838e+01 4.000000e-01
      vertex   8.113431e+01 1.311838e+01 0.000000e+00
    endloop
  endfacet
  facet normal -8.855586e-01 4.645277e-01 0.000000e+00
    outer loop
      vertex   8.113431e+01 1.311838e+01 4.000000e-01
      vertex   8.121712e+01 1.327625e+01 4.000000e-01
      vertex   8.113431e+01 1.311838e+01 0.000000e+00
    endloop
  endfacet
  facet normal -8.855586e-01 4.645277e-01 0.000000e+00
    outer loop
      vertex   8.113431e+01 1.311838e+01 0.000000e+00
      vertex   8.121712e+01 1.327625e+01 4.000000e-01
      vertex   8.121712e+01 1.327625e+01 0.000000e+00
    endloop
  endfacet
  facet normal -8.438086e-01 5.366443e-01 0.000000e+00
    outer loop
      vertex   8.121712e+01 1.327625e+01 4.000000e-01
      vertex   8.131273e+01 1.342658e+01 4.000000e-01
      vertex   8.121712e+01 1.327625e+01 0.000000e+00
    endloop
  endfacet
  facet normal -8.438086e-01 5.366443e-01 0.000000e+00
    outer loop
      vertex   8.121712e+01 1.327625e+01 0.000000e+00
      vertex   8.131273e+01 1.342658e+01 4.000000e-01
      vertex   8.131273e+01 1.342658e+01 0.000000e+00
    endloop
  endfacet
  facet normal -8.100027e-01 5.864262e-01 0.000000e+00
    outer loop
      vertex   8.131273e+01 1.342658e+01 4.000000e-01
      vertex   8.134764e+01 1.347480e+01 4.000000e-01
      vertex   8.131273e+01 1.342658e+01 0.000000e+00
    endloop
  endfacet
  facet normal -8.100027e-01 5.864262e-01 0.000000e+00
    outer loop
      vertex   8.131273e+01 1.342658e+01 0.000000e+00
      vertex   8.134764e+01 1.347480e+01 4.000000e-01
      vertex   8.134764e+01 1.347480e+01 0.000000e+00
    endloop
  endfacet
  facet normal 9.998134e-01 -1.931726e-02 0.000000e+00
    outer loop
      vertex   8.134764e+01 1.347480e+01 4.000000e-01
      vertex   8.134447e+01 1.331085e+01 4.000000e-01
      vertex   8.134764e+01 1.347480e+01 0.000000e+00
    endloop
  endfacet
  facet normal 9.998134e-01 -1.931726e-02 0.000000e+00
    outer loop
      vertex   8.134764e+01 1.347480e+01 0.000000e+00
      vertex   8.134447e+01 1.331085e+01 4.000000e-01
      vertex   8.134447e+01 1.331085e+01 0.000000e+00
    endloop
  endfacet
  facet normal 0.000000e+00 0.000000e+00 -1.000000e+00
    outer loop
      vertex   8.080805e+01 1.184678e+01 0.000000e+00
      vertex   8.095107e+01 1.261177e+01 0.000000e+00
      vertex   8.096366e+01 1.195378e+01 0.000000e+00
    endloop
  endfacet
  facet normal 0.000000e+00 0.000000e+00 -1.000000e+00
    outer loop
      vertex   8.096366e+01 1.195378e+01 0.000000e+00
      vertex   8.095107e+01 1.261177e+01 0.000000e+00
      vertex   8.123147e+01 1.272582e+01 0.000000e+00
    endloop
  endfacet
  facet normal -0.000000e+00 0.000000e+00 -1.000000e+00
    outer loop
      vertex   8.123147e+01 1.272582e+01 0.000000e+00
      vertex   8.095107e+01 1.261177e+01 0.000000e+00
      vertex   8.104179e+01 1.289827e+01 0.000000e+00
    endloop
  endfacet
  facet normal 0.000000e+00 0.000000e+00 -1.000000e+00
    outer loop
      vertex   8.123147e+01 1.272582e+01 0.000000e+00
      vertex   8.104179e+01 1.289827e+01 0.000000e+00
      vertex   8.113431e+01 1.311838e+01 0.000000e+00
    endloop
  endfacet
  facet normal 0.000000e+00 0.000000e+00 -1.000000e+00
    outer loop
      vertex   8.113431e+01 1.311838e+01 0.000000e+00
      vertex   8.121712e+01 1.327625e+01 0.000000e+00
      vertex   8.123147e+01 1.272582e+01 0.000000e+00
    endloop
  endfacet
  facet normal 0.000000e+00 0.000000e+00 -1.000000e+00
    outer loop
      vertex   8.123147e+01 1.272582e+01 0.000000e+00
      vertex   8.121712e+01 1.327625e+01 0.000000e+00
      vertex   8.131934e+01 1.309545e+01 0.000000e+00
    endloop
  endfacet
  facet normal 0.000000e+00 0.000000e+00 -1.000000e+00
    outer loop
      vertex   8.131934e+01 1.309545e+01 0.000000e+00
      vertex   8.121712e+01 1.327625e+01 0.000000e+00
      vertex   8.134447e+01 1.331085e+01 0.000000e+00
    endloop
  endfacet
  facet normal -0.000000e+00 0.000000e+00 -1.000000e+00
    outer loop
      vertex   8.134447e+01 1.331085e+01 0.000000e+00
      vertex   8.121712e+01 1.327625e+01 0.000000e+00
      vertex   8.131273e+01 1.342658e+01 0.000000e+00
    endloop
  endfacet
  facet normal 0.000000e+00 0.000000e+00 -1.000000e+00
    outer loop
      vertex   8.134447e+01 1.331085e+01 0.000000e+00
      vertex   8.131273e+01 1.342658e+01 0.000000e+00
      vertex   8.134764e+01 1.347480e+01 0.000000e+00
    endloop
  endfacet
endsolid
