solid ASCII
  facet normal 0.000000e+00 -0.000000e+00 1.000000e+00
    outer loop
      vertex   1.342940e+01 9.345418e+00 4.000000e-01
      vertex   1.378238e+01 1.400071e+01 4.000000e-01
      vertex   1.240926e+01 9.323646e+00 4.000000e-01
    endloop
  endfacet
  facet normal -9.595032e-01 2.816976e-01 0.000000e+00
    outer loop
      vertex   1.240926e+01 9.323646e+00 4.000000e-01
      vertex   1.378238e+01 1.400071e+01 4.000000e-01
      vertex   1.240926e+01 9.323646e+00 0.000000e+00
    endloop
  endfacet
  facet normal -9.595032e-01 2.816976e-01 0.000000e+00
    outer loop
      vertex   1.240926e+01 9.323646e+00 0.000000e+00
      vertex   1.378238e+01 1.400071e+01 4.000000e-01
      vertex   1.378238e+01 1.400071e+01 0.000000e+00
    endloop
  endfacet
  facet normal 9.971377e-01 -7.560631e-02 0.000000e+00
    outer loop
      vertex   1.378238e+01 1.400071e+01 4.000000e-01
      vertex   1.342940e+01 9.345418e+00 4.000000e-01
      vertex   1.378238e+01 1.400071e+01 0.000000e+00
    endloop
  endfacet
  facet normal 9.971377e-01 -7.560631e-02 0.000000e+00
    outer loop
      vertex   1.378238e+01 1.400071e+01 0.000000e+00
      vertex   1.342940e+01 9.345418e+00 4.000000e-01
      vertex   1.342940e+01 9.345418e+00 0.000000e+00
    endloop
  endfacet
  facet normal 2.133632e-02 -9.997724e-01 0.000000e+00
    outer loop
      vertex   1.342940e+01 9.345418e+00 4.000000e-01
      vertex   1.240926e+01 9.323646e+00 4.000000e-01
      vertex   1.342940e+01 9.345418e+00 0.000000e+00
    endloop
  endfacet
  facet normal 2.133632e-02 -9.997724e-01 0.000000e+00
    outer loop
      vertex   1.342940e+01 9.345418e+00 0.000000e+00
      vertex   1.240926e+01 9.323646e+00 4.000000e-01
      vertex   1.240926e+01 9.323646e+00 0.000000e+00
    endloop
  endfacet
  facet normal 0.000000e+00 0.000000e+00 -1.000000e+00
    outer loop
      vertex   1.240926e+01 9.323646e+00 0.000000e+00
      vertex   1.378238e+01 1.400071e+01 0.000000e+00
      vertex   1.342940e+01 9.345418e+00 0.000000e+00
    endloop
  endfacet
endsolid
