solid ASCII
  facet normal 0.000000e+00 0.000000e+00 1.000000e+00
    outer loop
      vertex   5.324873e+01 1.462631e+01 4.000000e-01
      vertex   5.317572e+01 1.464647e+01 4.000000e-01
      vertex   5.336180e+01 1.289676e+01 4.000000e-01
    endloop
  endfacet
  facet normal 0.000000e+00 0.000000e+00 1.000000e+00
    outer loop
      vertex   5.336180e+01 1.289676e+01 4.000000e-01
      vertex   5.317572e+01 1.464647e+01 4.000000e-01
      vertex   5.294485e+01 1.468025e+01 4.000000e-01
    endloop
  endfacet
  facet normal 0.000000e+00 0.000000e+00 1.000000e+00
    outer loop
      vertex   5.336180e+01 1.289676e+01 4.000000e-01
      vertex   5.294485e+01 1.468025e+01 4.000000e-01
      vertex   5.272888e+01 1.469253e+01 4.000000e-01
    endloop
  endfacet
  facet normal 0.000000e+00 0.000000e+00 1.000000e+00
    outer loop
      vertex   5.222770e+01 1.177482e+01 4.000000e-01
      vertex   5.287726e+01 1.188248e+01 4.000000e-01
      vertex   5.272888e+01 1.469253e+01 4.000000e-01
    endloop
  endfacet
  facet normal 0.000000e+00 0.000000e+00 1.000000e+00
    outer loop
      vertex   5.272888e+01 1.469253e+01 4.000000e-01
      vertex   5.287726e+01 1.188248e+01 4.000000e-01
      vertex   5.317348e+01 1.221783e+01 4.000000e-01
    endloop
  endfacet
  facet normal 0.000000e+00 0.000000e+00 1.000000e+00
    outer loop
      vertex   5.272888e+01 1.469253e+01 4.000000e-01
      vertex   5.317348e+01 1.221783e+01 4.000000e-01
      vertex   5.336180e+01 1.289676e+01 4.000000e-01
    endloop
  endfacet
  facet normal 0.000000e+00 -0.000000e+00 1.000000e+00
    outer loop
      vertex   5.265422e+01 1.181440e+01 4.000000e-01
      vertex   5.280615e+01 1.185421e+01 4.000000e-01
      vertex   5.222770e+01 1.177482e+01 4.000000e-01
    endloop
  endfacet
  facet normal 0.000000e+00 0.000000e+00 1.000000e+00
    outer loop
      vertex   5.222770e+01 1.177482e+01 4.000000e-01
      vertex   5.280615e+01 1.185421e+01 4.000000e-01
      vertex   5.287726e+01 1.188248e+01 4.000000e-01
    endloop
  endfacet
  facet normal 0.000000e+00 0.000000e+00 1.000000e+00
    outer loop
      vertex   5.287726e+01 1.188248e+01 4.000000e-01
      vertex   5.294382e+01 1.191735e+01 4.000000e-01
      vertex   5.317348e+01 1.221783e+01 4.000000e-01
    endloop
  endfacet
  facet normal 0.000000e+00 0.000000e+00 1.000000e+00
    outer loop
      vertex   5.317348e+01 1.221783e+01 4.000000e-01
      vertex   5.294382e+01 1.191735e+01 4.000000e-01
      vertex   5.300482e+01 1.195960e+01 4.000000e-01
    endloop
  endfacet
  facet normal 0.000000e+00 0.000000e+00 1.000000e+00
    outer loop
      vertex   5.317348e+01 1.221783e+01 4.000000e-01
      vertex   5.300482e+01 1.195960e+01 4.000000e-01
      vertex   5.303293e+01 1.198374e+01 4.000000e-01
    endloop
  endfacet
  facet normal 0.000000e+00 0.000000e+00 1.000000e+00
    outer loop
      vertex   5.303293e+01 1.198374e+01 4.000000e-01
      vertex   5.305928e+01 1.201001e+01 4.000000e-01
      vertex   5.317348e+01 1.221783e+01 4.000000e-01
    endloop
  endfacet
  facet normal 0.000000e+00 0.000000e+00 1.000000e+00
    outer loop
      vertex   5.317348e+01 1.221783e+01 4.000000e-01
      vertex   5.305928e+01 1.201001e+01 4.000000e-01
      vertex   5.308375e+01 1.203850e+01 4.000000e-01
    endloop
  endfacet
  facet normal 0.000000e+00 0.000000e+00 1.000000e+00
    outer loop
      vertex   5.317348e+01 1.221783e+01 4.000000e-01
      vertex   5.308375e+01 1.203850e+01 4.000000e-01
      vertex   5.310621e+01 1.206933e+01 4.000000e-01
    endloop
  endfacet
  facet normal 0.000000e+00 0.000000e+00 1.000000e+00
    outer loop
      vertex   5.310621e+01 1.206933e+01 4.000000e-01
      vertex   5.312654e+01 1.210258e+01 4.000000e-01
      vertex   5.317348e+01 1.221783e+01 4.000000e-01
    endloop
  endfacet
  facet normal 0.000000e+00 0.000000e+00 1.000000e+00
    outer loop
      vertex   5.317348e+01 1.221783e+01 4.000000e-01
      vertex   5.312654e+01 1.210258e+01 4.000000e-01
      vertex   5.314461e+01 1.213835e+01 4.000000e-01
    endloop
  endfacet
  facet normal 0.000000e+00 0.000000e+00 1.000000e+00
    outer loop
      vertex   5.317348e+01 1.221783e+01 4.000000e-01
      vertex   5.314461e+01 1.213835e+01 4.000000e-01
      vertex   5.316030e+01 1.217673e+01 4.000000e-01
    endloop
  endfacet
  facet normal 0.000000e+00 -0.000000e+00 1.000000e+00
    outer loop
      vertex   5.336180e+01 1.289676e+01 4.000000e-01
      vertex   5.354361e+01 1.422512e+01 4.000000e-01
      vertex   5.324873e+01 1.462631e+01 4.000000e-01
    endloop
  endfacet
  facet normal 0.000000e+00 0.000000e+00 1.000000e+00
    outer loop
      vertex   5.324873e+01 1.462631e+01 4.000000e-01
      vertex   5.354361e+01 1.422512e+01 4.000000e-01
      vertex   5.331719e+01 1.460022e+01 4.000000e-01
    endloop
  endfacet
  facet normal 0.000000e+00 0.000000e+00 1.000000e+00
    outer loop
      vertex   5.331719e+01 1.460022e+01 4.000000e-01
      vertex   5.354361e+01 1.422512e+01 4.000000e-01
      vertex   5.334922e+01 1.458467e+01 4.000000e-01
    endloop
  endfacet
  facet normal 0.000000e+00 0.000000e+00 1.000000e+00
    outer loop
      vertex   5.334922e+01 1.458467e+01 4.000000e-01
      vertex   5.354361e+01 1.422512e+01 4.000000e-01
      vertex   5.337952e+01 1.456732e+01 4.000000e-01
    endloop
  endfacet
  facet normal 0.000000e+00 0.000000e+00 1.000000e+00
    outer loop
      vertex   5.337952e+01 1.456732e+01 4.000000e-01
      vertex   5.354361e+01 1.422512e+01 4.000000e-01
      vertex   5.340791e+01 1.454804e+01 4.000000e-01
    endloop
  endfacet
  facet normal 0.000000e+00 0.000000e+00 1.000000e+00
    outer loop
      vertex   5.340791e+01 1.454804e+01 4.000000e-01
      vertex   5.354361e+01 1.422512e+01 4.000000e-01
      vertex   5.343419e+01 1.452673e+01 4.000000e-01
    endloop
  endfacet
  facet normal 0.000000e+00 0.000000e+00 1.000000e+00
    outer loop
      vertex   5.343419e+01 1.452673e+01 4.000000e-01
      vertex   5.354361e+01 1.422512e+01 4.000000e-01
      vertex   5.345816e+01 1.450327e+01 4.000000e-01
    endloop
  endfacet
  facet normal 0.000000e+00 0.000000e+00 1.000000e+00
    outer loop
      vertex   5.345816e+01 1.450327e+01 4.000000e-01
      vertex   5.354361e+01 1.422512e+01 4.000000e-01
      vertex   5.347963e+01 1.447755e+01 4.000000e-01
    endloop
  endfacet
  facet normal 0.000000e+00 0.000000e+00 1.000000e+00
    outer loop
      vertex   5.347963e+01 1.447755e+01 4.000000e-01
      vertex   5.354361e+01 1.422512e+01 4.000000e-01
      vertex   5.349841e+01 1.444947e+01 4.000000e-01
    endloop
  endfacet
  facet normal 0.000000e+00 0.000000e+00 1.000000e+00
    outer loop
      vertex   5.349841e+01 1.444947e+01 4.000000e-01
      vertex   5.354361e+01 1.422512e+01 4.000000e-01
      vertex   5.351430e+01 1.441892e+01 4.000000e-01
    endloop
  endfacet
  facet normal 0.000000e+00 0.000000e+00 1.000000e+00
    outer loop
      vertex   5.351430e+01 1.441892e+01 4.000000e-01
      vertex   5.354361e+01 1.422512e+01 4.000000e-01
      vertex   5.352710e+01 1.438577e+01 4.000000e-01
    endloop
  endfacet
  facet normal 0.000000e+00 0.000000e+00 1.000000e+00
    outer loop
      vertex   5.352710e+01 1.438577e+01 4.000000e-01
      vertex   5.354361e+01 1.422512e+01 4.000000e-01
      vertex   5.353663e+01 1.434993e+01 4.000000e-01
    endloop
  endfacet
  facet normal 0.000000e+00 0.000000e+00 1.000000e+00
    outer loop
      vertex   5.353663e+01 1.434993e+01 4.000000e-01
      vertex   5.354361e+01 1.422512e+01 4.000000e-01
      vertex   5.354508e+01 1.426972e+01 4.000000e-01
    endloop
  endfacet
  facet normal 0.000000e+00 0.000000e+00 1.000000e+00
    outer loop
      vertex   5.353663e+01 1.434993e+01 4.000000e-01
      vertex   5.354508e+01 1.426972e+01 4.000000e-01
      vertex   5.354269e+01 1.431128e+01 4.000000e-01
    endloop
  endfacet
  facet normal 9.636173e-01 -2.672857e-01 0.000000e+00
    outer loop
      vertex   5.336180e+01 1.289676e+01 4.000000e-01
      vertex   5.317348e+01 1.221783e+01 4.000000e-01
      vertex   5.336180e+01 1.289676e+01 0.000000e+00
    endloop
  endfacet
  facet normal 9.636173e-01 -2.672857e-01 0.000000e+00
    outer loop
      vertex   5.336180e+01 1.289676e+01 0.000000e+00
      vertex   5.317348e+01 1.221783e+01 4.000000e-01
      vertex   5.317348e+01 1.221783e+01 0.000000e+00
    endloop
  endfacet
  facet normal 9.521913e-01 -3.055023e-01 0.000000e+00
    outer loop
      vertex   5.317348e+01 1.221783e+01 4.000000e-01
      vertex   5.316030e+01 1.217673e+01 4.000000e-01
      vertex   5.317348e+01 1.221783e+01 0.000000e+00
    endloop
  endfacet
  facet normal 9.521913e-01 -3.055023e-01 0.000000e+00
    outer loop
      vertex   5.317348e+01 1.221783e+01 0.000000e+00
      vertex   5.316030e+01 1.217673e+01 4.000000e-01
      vertex   5.316030e+01 1.217673e+01 0.000000e+00
    endloop
  endfacet
  facet normal 9.256544e-01 -3.783702e-01 0.000000e+00
    outer loop
      vertex   5.316030e+01 1.217673e+01 4.000000e-01
      vertex   5.314461e+01 1.213835e+01 4.000000e-01
      vertex   5.316030e+01 1.217673e+01 0.000000e+00
    endloop
  endfacet
  facet normal 9.256544e-01 -3.783702e-01 0.000000e+00
    outer loop
      vertex   5.316030e+01 1.217673e+01 0.000000e+00
      vertex   5.314461e+01 1.213835e+01 4.000000e-01
      vertex   5.314461e+01 1.213835e+01 0.000000e+00
    endloop
  endfacet
  facet normal 8.925609e-01 -4.509268e-01 0.000000e+00
    outer loop
      vertex   5.314461e+01 1.213835e+01 4.000000e-01
      vertex   5.312654e+01 1.210258e+01 4.000000e-01
      vertex   5.314461e+01 1.213835e+01 0.000000e+00
    endloop
  endfacet
  facet normal 8.925609e-01 -4.509268e-01 0.000000e+00
    outer loop
      vertex   5.314461e+01 1.213835e+01 0.000000e+00
      vertex   5.312654e+01 1.210258e+01 4.000000e-01
      vertex   5.312654e+01 1.210258e+01 0.000000e+00
    endloop
  endfacet
  facet normal 8.531901e-01 -5.216000e-01 0.000000e+00
    outer loop
      vertex   5.312654e+01 1.210258e+01 4.000000e-01
      vertex   5.310621e+01 1.206933e+01 4.000000e-01
      vertex   5.312654e+01 1.210258e+01 0.000000e+00
    endloop
  endfacet
  facet normal 8.531901e-01 -5.216000e-01 0.000000e+00
    outer loop
      vertex   5.312654e+01 1.210258e+01 0.000000e+00
      vertex   5.310621e+01 1.206933e+01 4.000000e-01
      vertex   5.310621e+01 1.206933e+01 0.000000e+00
    endloop
  endfacet
  facet normal 8.082321e-01 -5.888640e-01 0.000000e+00
    outer loop
      vertex   5.310621e+01 1.206933e+01 4.000000e-01
      vertex   5.308375e+01 1.203850e+01 4.000000e-01
      vertex   5.310621e+01 1.206933e+01 0.000000e+00
    endloop
  endfacet
  facet normal 8.082321e-01 -5.888640e-01 0.000000e+00
    outer loop
      vertex   5.310621e+01 1.206933e+01 0.000000e+00
      vertex   5.308375e+01 1.203850e+01 4.000000e-01
      vertex   5.308375e+01 1.203850e+01 0.000000e+00
    endloop
  endfacet
  facet normal 7.587353e-01 -6.513991e-01 0.000000e+00
    outer loop
      vertex   5.308375e+01 1.203850e+01 4.000000e-01
      vertex   5.305928e+01 1.201001e+01 4.000000e-01
      vertex   5.308375e+01 1.203850e+01 0.000000e+00
    endloop
  endfacet
  facet normal 7.587353e-01 -6.513991e-01 0.000000e+00
    outer loop
      vertex   5.308375e+01 1.203850e+01 0.000000e+00
      vertex   5.305928e+01 1.201001e+01 4.000000e-01
      vertex   5.305928e+01 1.201001e+01 0.000000e+00
    endloop
  endfacet
  facet normal 7.059937e-01 -7.082181e-01 0.000000e+00
    outer loop
      vertex   5.305928e+01 1.201001e+01 4.000000e-01
      vertex   5.303293e+01 1.198374e+01 4.000000e-01
      vertex   5.305928e+01 1.201001e+01 0.000000e+00
    endloop
  endfacet
  facet normal 7.059937e-01 -7.082181e-01 0.000000e+00
    outer loop
      vertex   5.305928e+01 1.201001e+01 0.000000e+00
      vertex   5.303293e+01 1.198374e+01 4.000000e-01
      vertex   5.303293e+01 1.198374e+01 0.000000e+00
    endloop
  endfacet
  facet normal 6.514021e-01 -7.587327e-01 0.000000e+00
    outer loop
      vertex   5.303293e+01 1.198374e+01 4.000000e-01
      vertex   5.300482e+01 1.195960e+01 4.000000e-01
      vertex   5.303293e+01 1.198374e+01 0.000000e+00
    endloop
  endfacet
  facet normal 6.514021e-01 -7.587327e-01 0.000000e+00
    outer loop
      vertex   5.303293e+01 1.198374e+01 0.000000e+00
      vertex   5.300482e+01 1.195960e+01 4.000000e-01
      vertex   5.300482e+01 1.195960e+01 0.000000e+00
    endloop
  endfacet
  facet normal 5.693788e-01 -8.220753e-01 0.000000e+00
    outer loop
      vertex   5.300482e+01 1.195960e+01 4.000000e-01
      vertex   5.294382e+01 1.191735e+01 4.000000e-01
      vertex   5.300482e+01 1.195960e+01 0.000000e+00
    endloop
  endfacet
  facet normal 5.693788e-01 -8.220753e-01 0.000000e+00
    outer loop
      vertex   5.300482e+01 1.195960e+01 0.000000e+00
      vertex   5.294382e+01 1.191735e+01 4.000000e-01
      vertex   5.294382e+01 1.191735e+01 0.000000e+00
    endloop
  endfacet
  facet normal 4.641386e-01 -8.857626e-01 0.000000e+00
    outer loop
      vertex   5.294382e+01 1.191735e+01 4.000000e-01
      vertex   5.287726e+01 1.188248e+01 4.000000e-01
      vertex   5.294382e+01 1.191735e+01 0.000000e+00
    endloop
  endfacet
  facet normal 4.641386e-01 -8.857626e-01 0.000000e+00
    outer loop
      vertex   5.294382e+01 1.191735e+01 0.000000e+00
      vertex   5.287726e+01 1.188248e+01 4.000000e-01
      vertex   5.287726e+01 1.188248e+01 0.000000e+00
    endloop
  endfacet
  facet normal 3.694062e-01 -9.292680e-01 0.000000e+00
    outer loop
      vertex   5.287726e+01 1.188248e+01 4.000000e-01
      vertex   5.280615e+01 1.185421e+01 4.000000e-01
      vertex   5.287726e+01 1.188248e+01 0.000000e+00
    endloop
  endfacet
  facet normal 3.694062e-01 -9.292680e-01 0.000000e+00
    outer loop
      vertex   5.287726e+01 1.188248e+01 0.000000e+00
      vertex   5.280615e+01 1.185421e+01 4.000000e-01
      vertex   5.280615e+01 1.185421e+01 0.000000e+00
    endloop
  endfacet
  facet normal 2.534672e-01 -9.673440e-01 0.000000e+00
    outer loop
      vertex   5.280615e+01 1.185421e+01 4.000000e-01
      vertex   5.265422e+01 1.181440e+01 4.000000e-01
      vertex   5.280615e+01 1.185421e+01 0.000000e+00
    endloop
  endfacet
  facet normal 2.534672e-01 -9.673440e-01 0.000000e+00
    outer loop
      vertex   5.280615e+01 1.185421e+01 0.000000e+00
      vertex   5.265422e+01 1.181440e+01 4.000000e-01
      vertex   5.265422e+01 1.181440e+01 0.000000e+00
    endloop
  endfacet
  facet normal 9.238944e-02 -9.957229e-01 0.000000e+00
    outer loop
      vertex   5.265422e+01 1.181440e+01 4.000000e-01
      vertex   5.222770e+01 1.177482e+01 4.000000e-01
      vertex   5.265422e+01 1.181440e+01 0.000000e+00
    endloop
  endfacet
  facet normal 9.238944e-02 -9.957229e-01 0.000000e+00
    outer loop
      vertex   5.265422e+01 1.181440e+01 0.000000e+00
      vertex   5.222770e+01 1.177482e+01 4.000000e-01
      vertex   5.222770e+01 1.177482e+01 0.000000e+00
    endloop
  endfacet
  facet normal -9.855662e-01 1.692904e-01 0.000000e+00
    outer loop
      vertex   5.222770e+01 1.177482e+01 4.000000e-01
      vertex   5.272888e+01 1.469253e+01 4.000000e-01
      vertex   5.222770e+01 1.177482e+01 0.000000e+00
    endloop
  endfacet
  facet normal -9.855662e-01 1.692904e-01 0.000000e+00
    outer loop
      vertex   5.222770e+01 1.177482e+01 0.000000e+00
      vertex   5.272888e+01 1.469253e+01 4.000000e-01
      vertex   5.272888e+01 1.469253e+01 0.000000e+00
    endloop
  endfacet
  facet normal 5.678552e-02 9.983864e-01 0.000000e+00
    outer loop
      vertex   5.272888e+01 1.469253e+01 4.000000e-01
      vertex   5.294485e+01 1.468025e+01 4.000000e-01
      vertex   5.272888e+01 1.469253e+01 0.000000e+00
    endloop
  endfacet
  facet normal 5.678552e-02 9.983864e-01 0.000000e+00
    outer loop
      vertex   5.272888e+01 1.469253e+01 0.000000e+00
      vertex   5.294485e+01 1.468025e+01 4.000000e-01
      vertex   5.294485e+01 1.468025e+01 0.000000e+00
    endloop
  endfacet
  facet normal 1.447644e-01 9.894662e-01 0.000000e+00
    outer loop
      vertex   5.294485e+01 1.468025e+01 4.000000e-01
      vertex   5.317572e+01 1.464647e+01 4.000000e-01
      vertex   5.294485e+01 1.468025e+01 0.000000e+00
    endloop
  endfacet
  facet normal 1.447644e-01 9.894662e-01 0.000000e+00
    outer loop
      vertex   5.294485e+01 1.468025e+01 0.000000e+00
      vertex   5.317572e+01 1.464647e+01 4.000000e-01
      vertex   5.317572e+01 1.464647e+01 0.000000e+00
    endloop
  endfacet
  facet normal 2.661855e-01 9.639218e-01 0.000000e+00
    outer loop
      vertex   5.317572e+01 1.464647e+01 4.000000e-01
      vertex   5.324873e+01 1.462631e+01 4.000000e-01
      vertex   5.317572e+01 1.464647e+01 0.000000e+00
    endloop
  endfacet
  facet normal 2.661855e-01 9.639218e-01 0.000000e+00
    outer loop
      vertex   5.317572e+01 1.464647e+01 0.000000e+00
      vertex   5.324873e+01 1.462631e+01 4.000000e-01
      vertex   5.324873e+01 1.462631e+01 0.000000e+00
    endloop
  endfacet
  facet normal 3.561301e-01 9.344364e-01 0.000000e+00
    outer loop
      vertex   5.324873e+01 1.462631e+01 4.000000e-01
      vertex   5.331719e+01 1.460022e+01 4.000000e-01
      vertex   5.324873e+01 1.462631e+01 0.000000e+00
    endloop
  endfacet
  facet normal 3.561301e-01 9.344364e-01 0.000000e+00
    outer loop
      vertex   5.324873e+01 1.462631e+01 0.000000e+00
      vertex   5.331719e+01 1.460022e+01 4.000000e-01
      vertex   5.331719e+01 1.460022e+01 0.000000e+00
    endloop
  endfacet
  facet normal 4.365700e-01 8.996703e-01 0.000000e+00
    outer loop
      vertex   5.331719e+01 1.460022e+01 4.000000e-01
      vertex   5.334922e+01 1.458467e+01 4.000000e-01
      vertex   5.331719e+01 1.460022e+01 0.000000e+00
    endloop
  endfacet
  facet normal 4.365700e-01 8.996703e-01 0.000000e+00
    outer loop
      vertex   5.331719e+01 1.460022e+01 0.000000e+00
      vertex   5.334922e+01 1.458467e+01 4.000000e-01
      vertex   5.334922e+01 1.458467e+01 0.000000e+00
    endloop
  endfacet
  facet normal 4.969508e-01 8.677787e-01 0.000000e+00
    outer loop
      vertex   5.334922e+01 1.458467e+01 4.000000e-01
      vertex   5.337952e+01 1.456732e+01 4.000000e-01
      vertex   5.334922e+01 1.458467e+01 0.000000e+00
    endloop
  endfacet
  facet normal 4.969508e-01 8.677787e-01 0.000000e+00
    outer loop
      vertex   5.334922e+01 1.458467e+01 0.000000e+00
      vertex   5.337952e+01 1.456732e+01 4.000000e-01
      vertex   5.337952e+01 1.456732e+01 0.000000e+00
    endloop
  endfacet
  facet normal 5.618046e-01 8.272700e-01 0.000000e+00
    outer loop
      vertex   5.337952e+01 1.456732e+01 4.000000e-01
      vertex   5.340791e+01 1.454804e+01 4.000000e-01
      vertex   5.337952e+01 1.456732e+01 0.000000e+00
    endloop
  endfacet
  facet normal 5.618046e-01 8.272700e-01 0.000000e+00
    outer loop
      vertex   5.337952e+01 1.456732e+01 0.000000e+00
      vertex   5.340791e+01 1.454804e+01 4.000000e-01
      vertex   5.340791e+01 1.454804e+01 0.000000e+00
    endloop
  endfacet
  facet normal 6.299330e-01 7.766495e-01 0.000000e+00
    outer loop
      vertex   5.340791e+01 1.454804e+01 4.000000e-01
      vertex   5.343419e+01 1.452673e+01 4.000000e-01
      vertex   5.340791e+01 1.454804e+01 0.000000e+00
    endloop
  endfacet
  facet normal 6.299330e-01 7.766495e-01 0.000000e+00
    outer loop
      vertex   5.340791e+01 1.454804e+01 0.000000e+00
      vertex   5.343419e+01 1.452673e+01 4.000000e-01
      vertex   5.343419e+01 1.452673e+01 0.000000e+00
    endloop
  endfacet
  facet normal 6.994112e-01 7.147195e-01 0.000000e+00
    outer loop
      vertex   5.343419e+01 1.452673e+01 4.000000e-01
      vertex   5.345816e+01 1.450327e+01 4.000000e-01
      vertex   5.343419e+01 1.452673e+01 0.000000e+00
    endloop
  endfacet
  facet normal 6.994112e-01 7.147195e-01 0.000000e+00
    outer loop
      vertex   5.343419e+01 1.452673e+01 0.000000e+00
      vertex   5.345816e+01 1.450327e+01 4.000000e-01
      vertex   5.345816e+01 1.450327e+01 0.000000e+00
    endloop
  endfacet
  facet normal 7.675813e-01 6.409516e-01 0.000000e+00
    outer loop
      vertex   5.345816e+01 1.450327e+01 4.000000e-01
      vertex   5.347963e+01 1.447755e+01 4.000000e-01
      vertex   5.345816e+01 1.450327e+01 0.000000e+00
    endloop
  endfacet
  facet normal 7.675813e-01 6.409516e-01 0.000000e+00
    outer loop
      vertex   5.345816e+01 1.450327e+01 0.000000e+00
      vertex   5.347963e+01 1.447755e+01 4.000000e-01
      vertex   5.347963e+01 1.447755e+01 0.000000e+00
    endloop
  endfacet
  facet normal 8.312639e-01 5.558779e-01 0.000000e+00
    outer loop
      vertex   5.347963e+01 1.447755e+01 4.000000e-01
      vertex   5.349841e+01 1.444947e+01 4.000000e-01
      vertex   5.347963e+01 1.447755e+01 0.000000e+00
    endloop
  endfacet
  facet normal 8.312639e-01 5.558779e-01 0.000000e+00
    outer loop
      vertex   5.347963e+01 1.447755e+01 0.000000e+00
      vertex   5.349841e+01 1.444947e+01 4.000000e-01
      vertex   5.349841e+01 1.444947e+01 0.000000e+00
    endloop
  endfacet
  facet normal 8.872243e-01 4.613383e-01 0.000000e+00
    outer loop
      vertex   5.349841e+01 1.444947e+01 4.000000e-01
      vertex   5.351430e+01 1.441892e+01 4.000000e-01
      vertex   5.349841e+01 1.444947e+01 0.000000e+00
    endloop
  endfacet
  facet normal 8.872243e-01 4.613383e-01 0.000000e+00
    outer loop
      vertex   5.349841e+01 1.444947e+01 0.000000e+00
      vertex   5.351430e+01 1.441892e+01 4.000000e-01
      vertex   5.351430e+01 1.441892e+01 0.000000e+00
    endloop
  endfacet
  facet normal 9.327957e-01 3.604056e-01 0.000000e+00
    outer loop
      vertex   5.351430e+01 1.441892e+01 4.000000e-01
      vertex   5.352710e+01 1.438577e+01 4.000000e-01
      vertex   5.351430e+01 1.441892e+01 0.000000e+00
    endloop
  endfacet
  facet normal 9.327957e-01 3.604056e-01 0.000000e+00
    outer loop
      vertex   5.351430e+01 1.441892e+01 0.000000e+00
      vertex   5.352710e+01 1.438577e+01 4.000000e-01
      vertex   5.352710e+01 1.438577e+01 0.000000e+00
    endloop
  endfacet
  facet normal 9.664309e-01 2.569268e-01 0.000000e+00
    outer loop
      vertex   5.352710e+01 1.438577e+01 4.000000e-01
      vertex   5.353663e+01 1.434993e+01 4.000000e-01
      vertex   5.352710e+01 1.438577e+01 0.000000e+00
    endloop
  endfacet
  facet normal 9.664309e-01 2.569268e-01 0.000000e+00
    outer loop
      vertex   5.352710e+01 1.438577e+01 0.000000e+00
      vertex   5.353663e+01 1.434993e+01 4.000000e-01
      vertex   5.353663e+01 1.434993e+01 0.000000e+00
    endloop
  endfacet
  facet normal 9.879423e-01 1.548227e-01 0.000000e+00
    outer loop
      vertex   5.353663e+01 1.434993e+01 4.000000e-01
      vertex   5.354269e+01 1.431128e+01 4.000000e-01
      vertex   5.353663e+01 1.434993e+01 0.000000e+00
    endloop
  endfacet
  facet normal 9.879423e-01 1.548227e-01 0.000000e+00
    outer loop
      vertex   5.353663e+01 1.434993e+01 0.000000e+00
      vertex   5.354269e+01 1.431128e+01 4.000000e-01
      vertex   5.354269e+01 1.431128e+01 0.000000e+00
    endloop
  endfacet
  facet normal 9.983499e-01 5.742411e-02 0.000000e+00
    outer loop
      vertex   5.354269e+01 1.431128e+01 4.000000e-01
      vertex   5.354508e+01 1.426972e+01 4.000000e-01
      vertex   5.354269e+01 1.431128e+01 0.000000e+00
    endloop
  endfacet
  facet normal 9.983499e-01 5.742411e-02 0.000000e+00
    outer loop
      vertex   5.354269e+01 1.431128e+01 0.000000e+00
      vertex   5.354508e+01 1.426972e+01 4.000000e-01
      vertex   5.354508e+01 1.426972e+01 0.000000e+00
    endloop
  endfacet
  facet normal 9.994578e-01 -3.292574e-02 0.000000e+00
    outer loop
      vertex   5.354508e+01 1.426972e+01 4.000000e-01
      vertex   5.354361e+01 1.422512e+01 4.000000e-01
      vertex   5.354508e+01 1.426972e+01 0.000000e+00
    endloop
  endfacet
  facet normal 9.994578e-01 -3.292574e-02 0.000000e+00
    outer loop
      vertex   5.354508e+01 1.426972e+01 0.000000e+00
      vertex   5.354361e+01 1.422512e+01 4.000000e-01
      vertex   5.354361e+01 1.422512e+01 0.000000e+00
    endloop
  endfacet
  facet normal 9.907633e-01 -1.356025e-01 0.000000e+00
    outer loop
      vertex   5.354361e+01 1.422512e+01 4.000000e-01
      vertex   5.336180e+01 1.289676e+01 4.000000e-01
      vertex   5.354361e+01 1.422512e+01 0.000000e+00
    endloop
  endfacet
  facet normal 9.907633e-01 -1.356025e-01 0.000000e+00
    outer loop
      vertex   5.354361e+01 1.422512e+01 0.000000e+00
      vertex   5.336180e+01 1.289676e+01 4.000000e-01
      vertex   5.336180e+01 1.289676e+01 0.000000e+00
    endloop
  endfacet
  facet normal -0.000000e+00 -0.000000e+00 -1.000000e+00
    outer loop
      vertex   5.294485e+01 1.468025e+01 0.000000e+00
      vertex   5.336180e+01 1.289676e+01 0.000000e+00
      vertex   5.272888e+01 1.469253e+01 0.000000e+00
    endloop
  endfacet
  facet normal 0.000000e+00 0.000000e+00 -1.000000e+00
    outer loop
      vertex   5.272888e+01 1.469253e+01 0.000000e+00
      vertex   5.336180e+01 1.289676e+01 0.000000e+00
      vertex   5.317348e+01 1.221783e+01 0.000000e+00
    endloop
  endfacet
  facet normal 0.000000e+00 0.000000e+00 -1.000000e+00
    outer loop
      vertex   5.272888e+01 1.469253e+01 0.000000e+00
      vertex   5.317348e+01 1.221783e+01 0.000000e+00
      vertex   5.287726e+01 1.188248e+01 0.000000e+00
    endloop
  endfacet
  facet normal 0.000000e+00 0.000000e+00 -1.000000e+00
    outer loop
      vertex   5.287726e+01 1.188248e+01 0.000000e+00
      vertex   5.317348e+01 1.221783e+01 0.000000e+00
      vertex   5.294382e+01 1.191735e+01 0.000000e+00
    endloop
  endfacet
  facet normal 0.000000e+00 0.000000e+00 -1.000000e+00
    outer loop
      vertex   5.294382e+01 1.191735e+01 0.000000e+00
      vertex   5.317348e+01 1.221783e+01 0.000000e+00
      vertex   5.300482e+01 1.195960e+01 0.000000e+00
    endloop
  endfacet
  facet normal 0.000000e+00 0.000000e+00 -1.000000e+00
    outer loop
      vertex   5.300482e+01 1.195960e+01 0.000000e+00
      vertex   5.317348e+01 1.221783e+01 0.000000e+00
      vertex   5.303293e+01 1.198374e+01 0.000000e+00
    endloop
  endfacet
  facet normal 0.000000e+00 0.000000e+00 -1.000000e+00
    outer loop
      vertex   5.303293e+01 1.198374e+01 0.000000e+00
      vertex   5.317348e+01 1.221783e+01 0.000000e+00
      vertex   5.305928e+01 1.201001e+01 0.000000e+00
    endloop
  endfacet
  facet normal 0.000000e+00 0.000000e+00 -1.000000e+00
    outer loop
      vertex   5.305928e+01 1.201001e+01 0.000000e+00
      vertex   5.317348e+01 1.221783e+01 0.000000e+00
      vertex   5.308375e+01 1.203850e+01 0.000000e+00
    endloop
  endfacet
  facet normal 0.000000e+00 0.000000e+00 -1.000000e+00
    outer loop
      vertex   5.308375e+01 1.203850e+01 0.000000e+00
      vertex   5.317348e+01 1.221783e+01 0.000000e+00
      vertex   5.310621e+01 1.206933e+01 0.000000e+00
    endloop
  endfacet
  facet normal 0.000000e+00 0.000000e+00 -1.000000e+00
    outer loop
      vertex   5.310621e+01 1.206933e+01 0.000000e+00
      vertex   5.317348e+01 1.221783e+01 0.000000e+00
      vertex   5.312654e+01 1.210258e+01 0.000000e+00
    endloop
  endfacet
  facet normal 0.000000e+00 0.000000e+00 -1.000000e+00
    outer loop
      vertex   5.312654e+01 1.210258e+01 0.000000e+00
      vertex   5.317348e+01 1.221783e+01 0.000000e+00
      vertex   5.314461e+01 1.213835e+01 0.000000e+00
    endloop
  endfacet
  facet normal 0.000000e+00 0.000000e+00 -1.000000e+00
    outer loop
      vertex   5.314461e+01 1.213835e+01 0.000000e+00
      vertex   5.317348e+01 1.221783e+01 0.000000e+00
      vertex   5.316030e+01 1.217673e+01 0.000000e+00
    endloop
  endfacet
  facet normal 0.000000e+00 0.000000e+00 -1.000000e+00
    outer loop
      vertex   5.294485e+01 1.468025e+01 0.000000e+00
      vertex   5.317572e+01 1.464647e+01 0.000000e+00
      vertex   5.336180e+01 1.289676e+01 0.000000e+00
    endloop
  endfacet
  facet normal 0.000000e+00 0.000000e+00 -1.000000e+00
    outer loop
      vertex   5.336180e+01 1.289676e+01 0.000000e+00
      vertex   5.317572e+01 1.464647e+01 0.000000e+00
      vertex   5.324873e+01 1.462631e+01 0.000000e+00
    endloop
  endfacet
  facet normal 0.000000e+00 0.000000e+00 -1.000000e+00
    outer loop
      vertex   5.336180e+01 1.289676e+01 0.000000e+00
      vertex   5.324873e+01 1.462631e+01 0.000000e+00
      vertex   5.354361e+01 1.422512e+01 0.000000e+00
    endloop
  endfacet
  facet normal 0.000000e+00 0.000000e+00 -1.000000e+00
    outer loop
      vertex   5.354361e+01 1.422512e+01 0.000000e+00
      vertex   5.324873e+01 1.462631e+01 0.000000e+00
      vertex   5.331719e+01 1.460022e+01 0.000000e+00
    endloop
  endfacet
  facet normal 0.000000e+00 0.000000e+00 -1.000000e+00
    outer loop
      vertex   5.354361e+01 1.422512e+01 0.000000e+00
      vertex   5.331719e+01 1.460022e+01 0.000000e+00
      vertex   5.334922e+01 1.458467e+01 0.000000e+00
    endloop
  endfacet
  facet normal 0.000000e+00 0.000000e+00 -1.000000e+00
    outer loop
      vertex   5.334922e+01 1.458467e+01 0.000000e+00
      vertex   5.337952e+01 1.456732e+01 0.000000e+00
      vertex   5.354361e+01 1.422512e+01 0.000000e+00
    endloop
  endfacet
  facet normal 0.000000e+00 0.000000e+00 -1.000000e+00
    outer loop
      vertex   5.354361e+01 1.422512e+01 0.000000e+00
      vertex   5.337952e+01 1.456732e+01 0.000000e+00
      vertex   5.340791e+01 1.454804e+01 0.000000e+00
    endloop
  endfacet
  facet normal 0.000000e+00 0.000000e+00 -1.000000e+00
    outer loop
      vertex   5.354361e+01 1.422512e+01 0.000000e+00
      vertex   5.340791e+01 1.454804e+01 0.000000e+00
      vertex   5.343419e+01 1.452673e+01 0.000000e+00
    endloop
  endfacet
  facet normal 0.000000e+00 0.000000e+00 -1.000000e+00
    outer loop
      vertex   5.343419e+01 1.452673e+01 0.000000e+00
      vertex   5.345816e+01 1.450327e+01 0.000000e+00
      vertex   5.354361e+01 1.422512e+01 0.000000e+00
    endloop
  endfacet
  facet normal 0.000000e+00 0.000000e+00 -1.000000e+00
    outer loop
      vertex   5.354361e+01 1.422512e+01 0.000000e+00
      vertex   5.345816e+01 1.450327e+01 0.000000e+00
      vertex   5.347963e+01 1.447755e+01 0.000000e+00
    endloop
  endfacet
  facet normal 0.000000e+00 0.000000e+00 -1.000000e+00
    outer loop
      vertex   5.354361e+01 1.422512e+01 0.000000e+00
      vertex   5.347963e+01 1.447755e+01 0.000000e+00
      vertex   5.349841e+01 1.444947e+01 0.000000e+00
    endloop
  endfacet
  facet normal 0.000000e+00 0.000000e+00 -1.000000e+00
    outer loop
      vertex   5.349841e+01 1.444947e+01 0.000000e+00
      vertex   5.351430e+01 1.441892e+01 0.000000e+00
      vertex   5.354361e+01 1.422512e+01 0.000000e+00
    endloop
  endfacet
  facet normal 0.000000e+00 0.000000e+00 -1.000000e+00
    outer loop
      vertex   5.354361e+01 1.422512e+01 0.000000e+00
      vertex   5.351430e+01 1.441892e+01 0.000000e+00
      vertex   5.352710e+01 1.438577e+01 0.000000e+00
    endloop
  endfacet
  facet normal 0.000000e+00 0.000000e+00 -1.000000e+00
    outer loop
      vertex   5.354361e+01 1.422512e+01 0.000000e+00
      vertex   5.352710e+01 1.438577e+01 0.000000e+00
      vertex   5.353663e+01 1.434993e+01 0.000000e+00
    endloop
  endfacet
  facet normal -0.000000e+00 -0.000000e+00 -1.000000e+00
    outer loop
      vertex   5.354269e+01 1.431128e+01 0.000000e+00
      vertex   5.354508e+01 1.426972e+01 0.000000e+00
      vertex   5.353663e+01 1.434993e+01 0.000000e+00
    endloop
  endfacet
  facet normal 0.000000e+00 0.000000e+00 -1.000000e+00
    outer loop
      vertex   5.353663e+01 1.434993e+01 0.000000e+00
      vertex   5.354508e+01 1.426972e+01 0.000000e+00
      vertex   5.354361e+01 1.422512e+01 0.000000e+00
    endloop
  endfacet
  facet normal 0.000000e+00 -0.000000e+00 -1.000000e+00
    outer loop
      vertex   5.272888e+01 1.469253e+01 0.000000e+00
      vertex   5.287726e+01 1.188248e+01 0.000000e+00
      vertex   5.222770e+01 1.177482e+01 0.000000e+00
    endloop
  endfacet
  facet normal 0.000000e+00 0.000000e+00 -1.000000e+00
    outer loop
      vertex   5.222770e+01 1.177482e+01 0.000000e+00
      vertex   5.287726e+01 1.188248e+01 0.000000e+00
      vertex   5.280615e+01 1.185421e+01 0.000000e+00
    endloop
  endfacet
  facet normal 0.000000e+00 0.000000e+00 -1.000000e+00
    outer loop
      vertex   5.222770e+01 1.177482e+01 0.000000e+00
      vertex   5.280615e+01 1.185421e+01 0.000000e+00
      vertex   5.265422e+01 1.181440e+01 0.000000e+00
    endloop
  endfacet
endsolid
