solid ASCII
  facet normal 0.000000e+00 0.000000e+00 1.000000e+00
    outer loop
      vertex   5.644157e+01 1.435122e+01 4.000000e-01
      vertex   5.817414e+01 1.435545e+01 4.000000e-01
      vertex   5.683457e+01 1.663659e+01 4.000000e-01
    endloop
  endfacet
  facet normal 0.000000e+00 0.000000e+00 1.000000e+00
    outer loop
      vertex   5.683457e+01 1.663659e+01 4.000000e-01
      vertex   5.817414e+01 1.435545e+01 4.000000e-01
      vertex   6.113223e+01 1.435492e+01 4.000000e-01
    endloop
  endfacet
  facet normal -0.000000e+00 0.000000e+00 1.000000e+00
    outer loop
      vertex   5.683457e+01 1.663659e+01 4.000000e-01
      vertex   6.113223e+01 1.435492e+01 4.000000e-01
      vertex   6.326543e+01 1.664022e+01 4.000000e-01
    endloop
  endfacet
  facet normal 0.000000e+00 0.000000e+00 1.000000e+00
    outer loop
      vertex   6.326543e+01 1.664022e+01 4.000000e-01
      vertex   6.113223e+01 1.435492e+01 4.000000e-01
      vertex   6.288563e+01 1.435751e+01 4.000000e-01
    endloop
  endfacet
  facet normal 0.000000e+00 0.000000e+00 1.000000e+00
    outer loop
      vertex   5.658889e+01 5.258732e+00 4.000000e-01
      vertex   5.953276e+01 5.268923e+00 4.000000e-01
      vertex   5.817414e+01 1.435545e+01 4.000000e-01
    endloop
  endfacet
  facet normal 0.000000e+00 0.000000e+00 1.000000e+00
    outer loop
      vertex   5.817414e+01 1.435545e+01 4.000000e-01
      vertex   5.953276e+01 5.268923e+00 4.000000e-01
      vertex   6.113223e+01 1.435492e+01 4.000000e-01
    endloop
  endfacet
  facet normal 9.848565e-01 -1.733716e-01 0.000000e+00
    outer loop
      vertex   6.113223e+01 1.435492e+01 4.000000e-01
      vertex   5.953276e+01 5.268923e+00 4.000000e-01
      vertex   6.113223e+01 1.435492e+01 0.000000e+00
    endloop
  endfacet
  facet normal 9.848565e-01 -1.733716e-01 0.000000e+00
    outer loop
      vertex   6.113223e+01 1.435492e+01 0.000000e+00
      vertex   5.953276e+01 5.268923e+00 4.000000e-01
      vertex   5.953276e+01 5.268923e+00 0.000000e+00
    endloop
  endfacet
  facet normal 3.461912e-03 -9.999940e-01 0.000000e+00
    outer loop
      vertex   5.953276e+01 5.268923e+00 4.000000e-01
      vertex   5.658889e+01 5.258732e+00 4.000000e-01
      vertex   5.953276e+01 5.268923e+00 0.000000e+00
    endloop
  endfacet
  facet normal 3.461912e-03 -9.999940e-01 0.000000e+00
    outer loop
      vertex   5.953276e+01 5.268923e+00 0.000000e+00
      vertex   5.658889e+01 5.258732e+00 4.000000e-01
      vertex   5.658889e+01 5.258732e+00 0.000000e+00
    endloop
  endfacet
  facet normal -9.851528e-01 1.716796e-01 0.000000e+00
    outer loop
      vertex   5.658889e+01 5.258732e+00 4.000000e-01
      vertex   5.817414e+01 1.435545e+01 4.000000e-01
      vertex   5.658889e+01 5.258732e+00 0.000000e+00
    endloop
  endfacet
  facet normal -9.851528e-01 1.716796e-01 0.000000e+00
    outer loop
      vertex   5.658889e+01 5.258732e+00 0.000000e+00
      vertex   5.817414e+01 1.435545e+01 4.000000e-01
      vertex   5.817414e+01 1.435545e+01 0.000000e+00
    endloop
  endfacet
  facet normal 2.441078e-03 -9.999970e-01 0.000000e+00
    outer loop
      vertex   5.817414e+01 1.435545e+01 4.000000e-01
      vertex   5.644157e+01 1.435122e+01 4.000000e-01
      vertex   5.817414e+01 1.435545e+01 0.000000e+00
    endloop
  endfacet
  facet normal 2.441078e-03 -9.999970e-01 0.000000e+00
    outer loop
      vertex   5.817414e+01 1.435545e+01 0.000000e+00
      vertex   5.644157e+01 1.435122e+01 4.000000e-01
      vertex   5.644157e+01 1.435122e+01 0.000000e+00
    endloop
  endfacet
  facet normal -9.855346e-01 1.694742e-01 0.000000e+00
    outer loop
      vertex   5.644157e+01 1.435122e+01 4.000000e-01
      vertex   5.683457e+01 1.663659e+01 4.000000e-01
      vertex   5.644157e+01 1.435122e+01 0.000000e+00
    endloop
  endfacet
  facet normal -9.855346e-01 1.694742e-01 0.000000e+00
    outer loop
      vertex   5.644157e+01 1.435122e+01 0.000000e+00
      vertex   5.683457e+01 1.663659e+01 4.000000e-01
      vertex   5.683457e+01 1.663659e+01 0.000000e+00
    endloop
  endfacet
  facet normal -5.647750e-04 9.999998e-01 0.000000e+00
    outer loop
      vertex   5.683457e+01 1.663659e+01 4.000000e-01
      vertex   6.326543e+01 1.664022e+01 4.000000e-01
      vertex   5.683457e+01 1.663659e+01 0.000000e+00
    endloop
  endfacet
  facet normal -5.647750e-04 9.999998e-01 0.000000e+00
    outer loop
      vertex   5.683457e+01 1.663659e+01 0.000000e+00
      vertex   6.326543e+01 1.664022e+01 4.000000e-01
      vertex   6.326543e+01 1.664022e+01 0.000000e+00
    endloop
  endfacet
  facet normal 9.864396e-01 -1.641248e-01 0.000000e+00
    outer loop
      vertex   6.326543e+01 1.664022e+01 4.000000e-01
      vertex   6.288563e+01 1.435751e+01 4.000000e-01
      vertex   6.326543e+01 1.664022e+01 0.000000e+00
    endloop
  endfacet
  facet normal 9.864396e-01 -1.641248e-01 0.000000e+00
    outer loop
      vertex   6.326543e+01 1.664022e+01 0.000000e+00
      vertex   6.288563e+01 1.435751e+01 4.000000e-01
      vertex   6.288563e+01 1.435751e+01 0.000000e+00
    endloop
  endfacet
  facet normal 1.475850e-03 -9.999989e-01 0.000000e+00
    outer loop
      vertex   6.288563e+01 1.435751e+01 4.000000e-01
      vertex   6.113223e+01 1.435492e+01 4.000000e-01
      vertex   6.288563e+01 1.435751e+01 0.000000e+00
    endloop
  endfacet
  facet normal 1.475850e-03 -9.999989e-01 0.000000e+00
    outer loop
      vertex   6.288563e+01 1.435751e+01 0.000000e+00
      vertex   6.113223e+01 1.435492e+01 4.000000e-01
      vertex   6.113223e+01 1.435492e+01 0.000000e+00
    endloop
  endfacet
  facet normal 0.000000e+00 0.000000e+00 -1.000000e+00
    outer loop
      vertex   5.644157e+01 1.435122e+01 0.000000e+00
      vertex   5.683457e+01 1.663659e+01 0.000000e+00
      vertex   5.817414e+01 1.435545e+01 0.000000e+00
    endloop
  endfacet
  facet normal 0.000000e+00 0.000000e+00 -1.000000e+00
    outer loop
      vertex   5.817414e+01 1.435545e+01 0.000000e+00
      vertex   5.683457e+01 1.663659e+01 0.000000e+00
      vertex   6.113223e+01 1.435492e+01 0.000000e+00
    endloop
  endfacet
  facet normal 0.000000e+00 0.000000e+00 -1.000000e+00
    outer loop
      vertex   5.817414e+01 1.435545e+01 0.000000e+00
      vertex   6.113223e+01 1.435492e+01 0.000000e+00
      vertex   5.953276e+01 5.268923e+00 0.000000e+00
    endloop
  endfacet
  facet normal 0.000000e+00 0.000000e+00 -1.000000e+00
    outer loop
      vertex   5.683457e+01 1.663659e+01 0.000000e+00
      vertex   6.326543e+01 1.664022e+01 0.000000e+00
      vertex   6.113223e+01 1.435492e+01 0.000000e+00
    endloop
  endfacet
  facet normal 0.000000e+00 0.000000e+00 -1.000000e+00
    outer loop
      vertex   6.113223e+01 1.435492e+01 0.000000e+00
      vertex   6.326543e+01 1.664022e+01 0.000000e+00
      vertex   6.288563e+01 1.435751e+01 0.000000e+00
    endloop
  endfacet
  facet normal -0.000000e+00 0.000000e+00 -1.000000e+00
    outer loop
      vertex   5.953276e+01 5.268923e+00 0.000000e+00
      vertex   5.658889e+01 5.258732e+00 0.000000e+00
      vertex   5.817414e+01 1.435545e+01 0.000000e+00
    endloop
  endfacet
endsolid
