solid ASCII
  facet normal 0.000000e+00 0.000000e+00 1.000000e+00
    outer loop
      vertex   3.974118e+01 8.821082e-01 4.000000e-01
      vertex   4.045499e+01 1.876197e+00 4.000000e-01
      vertex   3.974735e+01 3.170148e+00 4.000000e-01
    endloop
  endfacet
  facet normal 0.000000e+00 0.000000e+00 1.000000e+00
    outer loop
      vertex   3.974735e+01 3.170148e+00 4.000000e-01
      vertex   4.045499e+01 1.876197e+00 4.000000e-01
      vertex   4.049955e+01 2.196450e+00 4.000000e-01
    endloop
  endfacet
  facet normal 0.000000e+00 0.000000e+00 1.000000e+00
    outer loop
      vertex   3.974735e+01 3.170148e+00 4.000000e-01
      vertex   4.049955e+01 2.196450e+00 4.000000e-01
      vertex   4.045855e+01 2.862404e+00 4.000000e-01
    endloop
  endfacet
  facet normal 0.000000e+00 0.000000e+00 1.000000e+00
    outer loop
      vertex   4.045855e+01 2.862404e+00 4.000000e-01
      vertex   4.049955e+01 2.196450e+00 4.000000e-01
      vertex   4.050946e+01 2.224899e+00 4.000000e-01
    endloop
  endfacet
  facet normal 0.000000e+00 0.000000e+00 1.000000e+00
    outer loop
      vertex   4.045855e+01 2.862404e+00 4.000000e-01
      vertex   4.050946e+01 2.224899e+00 4.000000e-01
      vertex   4.052123e+01 2.250947e+00 4.000000e-01
    endloop
  endfacet
  facet normal -0.000000e+00 0.000000e+00 1.000000e+00
    outer loop
      vertex   3.974118e+01 8.821082e-01 4.000000e-01
      vertex   4.045248e+01 8.553295e-01 4.000000e-01
      vertex   4.045499e+01 1.876197e+00 4.000000e-01
    endloop
  endfacet
  facet normal 0.000000e+00 -0.000000e+00 1.000000e+00
    outer loop
      vertex   4.052123e+01 2.250947e+00 4.000000e-01
      vertex   4.053477e+01 2.274711e+00 4.000000e-01
      vertex   4.045855e+01 2.862404e+00 4.000000e-01
    endloop
  endfacet
  facet normal 0.000000e+00 0.000000e+00 1.000000e+00
    outer loop
      vertex   4.045855e+01 2.862404e+00 4.000000e-01
      vertex   4.053477e+01 2.274711e+00 4.000000e-01
      vertex   4.054997e+01 2.296303e+00 4.000000e-01
    endloop
  endfacet
  facet normal 0.000000e+00 0.000000e+00 1.000000e+00
    outer loop
      vertex   4.045855e+01 2.862404e+00 4.000000e-01
      vertex   4.054997e+01 2.296303e+00 4.000000e-01
      vertex   4.058498e+01 2.333433e+00 4.000000e-01
    endloop
  endfacet
  facet normal 0.000000e+00 -0.000000e+00 1.000000e+00
    outer loop
      vertex   4.058498e+01 2.333433e+00 4.000000e-01
      vertex   4.062543e+01 2.363257e+00 4.000000e-01
      vertex   4.045855e+01 2.862404e+00 4.000000e-01
    endloop
  endfacet
  facet normal 0.000000e+00 0.000000e+00 1.000000e+00
    outer loop
      vertex   4.045855e+01 2.862404e+00 4.000000e-01
      vertex   4.062543e+01 2.363257e+00 4.000000e-01
      vertex   4.067053e+01 2.386690e+00 4.000000e-01
    endloop
  endfacet
  facet normal 0.000000e+00 0.000000e+00 1.000000e+00
    outer loop
      vertex   4.045855e+01 2.862404e+00 4.000000e-01
      vertex   4.067053e+01 2.386690e+00 4.000000e-01
      vertex   4.077144e+01 2.418054e+00 4.000000e-01
    endloop
  endfacet
  facet normal -0.000000e+00 0.000000e+00 1.000000e+00
    outer loop
      vertex   4.045855e+01 2.862404e+00 4.000000e-01
      vertex   4.077144e+01 2.418054e+00 4.000000e-01
      vertex   4.109421e+01 3.200550e+00 4.000000e-01
    endloop
  endfacet
  facet normal 0.000000e+00 0.000000e+00 1.000000e+00
    outer loop
      vertex   4.109421e+01 3.200550e+00 4.000000e-01
      vertex   4.077144e+01 2.418054e+00 4.000000e-01
      vertex   4.117643e+01 2.465941e+00 4.000000e-01
    endloop
  endfacet
  facet normal -0.000000e+00 0.000000e+00 1.000000e+00
    outer loop
      vertex   4.109421e+01 3.200550e+00 4.000000e-01
      vertex   4.117643e+01 2.465941e+00 4.000000e-01
      vertex   4.117767e+01 3.217840e+00 4.000000e-01
    endloop
  endfacet
  facet normal 0.000000e+00 0.000000e+00 1.000000e+00
    outer loop
      vertex   4.045855e+01 2.862404e+00 4.000000e-01
      vertex   4.044435e+01 3.175964e+00 4.000000e-01
      vertex   3.974735e+01 3.170148e+00 4.000000e-01
    endloop
  endfacet
  facet normal 5.933837e-01 -8.049197e-01 0.000000e+00
    outer loop
      vertex   4.062543e+01 2.363257e+00 4.000000e-01
      vertex   4.058498e+01 2.333433e+00 4.000000e-01
      vertex   4.062543e+01 2.363257e+00 0.000000e+00
    endloop
  endfacet
  facet normal 5.933837e-01 -8.049197e-01 0.000000e+00
    outer loop
      vertex   4.062543e+01 2.363257e+00 0.000000e+00
      vertex   4.058498e+01 2.333433e+00 4.000000e-01
      vertex   4.058498e+01 2.333433e+00 0.000000e+00
    endloop
  endfacet
  facet normal 7.276481e-01 -6.859506e-01 0.000000e+00
    outer loop
      vertex   4.058498e+01 2.333433e+00 4.000000e-01
      vertex   4.054997e+01 2.296303e+00 4.000000e-01
      vertex   4.058498e+01 2.333433e+00 0.000000e+00
    endloop
  endfacet
  facet normal 7.276481e-01 -6.859506e-01 0.000000e+00
    outer loop
      vertex   4.058498e+01 2.333433e+00 0.000000e+00
      vertex   4.054997e+01 2.296303e+00 4.000000e-01
      vertex   4.054997e+01 2.296303e+00 0.000000e+00
    endloop
  endfacet
  facet normal 8.176232e-01 -5.757537e-01 0.000000e+00
    outer loop
      vertex   4.054997e+01 2.296303e+00 4.000000e-01
      vertex   4.053477e+01 2.274711e+00 4.000000e-01
      vertex   4.054997e+01 2.296303e+00 0.000000e+00
    endloop
  endfacet
  facet normal 8.176232e-01 -5.757537e-01 0.000000e+00
    outer loop
      vertex   4.054997e+01 2.296303e+00 0.000000e+00
      vertex   4.053477e+01 2.274711e+00 4.000000e-01
      vertex   4.053477e+01 2.274711e+00 0.000000e+00
    endloop
  endfacet
  facet normal 8.688665e-01 -4.950465e-01 0.000000e+00
    outer loop
      vertex   4.053477e+01 2.274711e+00 4.000000e-01
      vertex   4.052123e+01 2.250947e+00 4.000000e-01
      vertex   4.053477e+01 2.274711e+00 0.000000e+00
    endloop
  endfacet
  facet normal 8.688665e-01 -4.950465e-01 0.000000e+00
    outer loop
      vertex   4.053477e+01 2.274711e+00 0.000000e+00
      vertex   4.052123e+01 2.250947e+00 4.000000e-01
      vertex   4.052123e+01 2.250947e+00 0.000000e+00
    endloop
  endfacet
  facet normal 9.112522e-01 -4.118488e-01 0.000000e+00
    outer loop
      vertex   4.052123e+01 2.250947e+00 4.000000e-01
      vertex   4.050946e+01 2.224899e+00 4.000000e-01
      vertex   4.052123e+01 2.250947e+00 0.000000e+00
    endloop
  endfacet
  facet normal 9.112522e-01 -4.118488e-01 0.000000e+00
    outer loop
      vertex   4.052123e+01 2.250947e+00 0.000000e+00
      vertex   4.050946e+01 2.224899e+00 4.000000e-01
      vertex   4.050946e+01 2.224899e+00 0.000000e+00
    endloop
  endfacet
  facet normal 9.443892e-01 -3.288297e-01 0.000000e+00
    outer loop
      vertex   4.050946e+01 2.224899e+00 4.000000e-01
      vertex   4.049955e+01 2.196450e+00 4.000000e-01
      vertex   4.050946e+01 2.224899e+00 0.000000e+00
    endloop
  endfacet
  facet normal 9.443892e-01 -3.288297e-01 0.000000e+00
    outer loop
      vertex   4.050946e+01 2.224899e+00 0.000000e+00
      vertex   4.049955e+01 2.196450e+00 4.000000e-01
      vertex   4.049955e+01 2.196450e+00 0.000000e+00
    endloop
  endfacet
  facet normal 9.904593e-01 -1.378056e-01 0.000000e+00
    outer loop
      vertex   4.049955e+01 2.196450e+00 4.000000e-01
      vertex   4.045499e+01 1.876197e+00 4.000000e-01
      vertex   4.049955e+01 2.196450e+00 0.000000e+00
    endloop
  endfacet
  facet normal 9.904593e-01 -1.378056e-01 0.000000e+00
    outer loop
      vertex   4.049955e+01 2.196450e+00 0.000000e+00
      vertex   4.045499e+01 1.876197e+00 4.000000e-01
      vertex   4.045499e+01 1.876197e+00 0.000000e+00
    endloop
  endfacet
  facet normal 9.999970e-01 -2.459762e-03 0.000000e+00
    outer loop
      vertex   4.045499e+01 1.876197e+00 4.000000e-01
      vertex   4.045248e+01 8.553295e-01 4.000000e-01
      vertex   4.045499e+01 1.876197e+00 0.000000e+00
    endloop
  endfacet
  facet normal 9.999970e-01 -2.459762e-03 0.000000e+00
    outer loop
      vertex   4.045499e+01 1.876197e+00 0.000000e+00
      vertex   4.045248e+01 8.553295e-01 4.000000e-01
      vertex   4.045248e+01 8.553295e-01 0.000000e+00
    endloop
  endfacet
  facet normal -3.762058e-02 -9.992921e-01 -0.000000e+00
    outer loop
      vertex   4.045248e+01 8.553295e-01 4.000000e-01
      vertex   3.974118e+01 8.821082e-01 4.000000e-01
      vertex   4.045248e+01 8.553295e-01 0.000000e+00
    endloop
  endfacet
  facet normal -3.762058e-02 -9.992921e-01 0.000000e+00
    outer loop
      vertex   4.045248e+01 8.553295e-01 0.000000e+00
      vertex   3.974118e+01 8.821082e-01 4.000000e-01
      vertex   3.974118e+01 8.821082e-01 0.000000e+00
    endloop
  endfacet
  facet normal -9.999964e-01 2.699201e-03 0.000000e+00
    outer loop
      vertex   3.974118e+01 8.821082e-01 4.000000e-01
      vertex   3.974735e+01 3.170148e+00 4.000000e-01
      vertex   3.974118e+01 8.821082e-01 0.000000e+00
    endloop
  endfacet
  facet normal -9.999964e-01 2.699201e-03 0.000000e+00
    outer loop
      vertex   3.974118e+01 8.821082e-01 0.000000e+00
      vertex   3.974735e+01 3.170148e+00 4.000000e-01
      vertex   3.974735e+01 3.170148e+00 0.000000e+00
    endloop
  endfacet
  facet normal -8.343458e-03 9.999652e-01 0.000000e+00
    outer loop
      vertex   3.974735e+01 3.170148e+00 4.000000e-01
      vertex   4.044435e+01 3.175964e+00 4.000000e-01
      vertex   3.974735e+01 3.170148e+00 0.000000e+00
    endloop
  endfacet
  facet normal -8.343458e-03 9.999652e-01 0.000000e+00
    outer loop
      vertex   3.974735e+01 3.170148e+00 0.000000e+00
      vertex   4.044435e+01 3.175964e+00 4.000000e-01
      vertex   4.044435e+01 3.175964e+00 0.000000e+00
    endloop
  endfacet
  facet normal 9.989756e-01 4.525131e-02 0.000000e+00
    outer loop
      vertex   4.044435e+01 3.175964e+00 4.000000e-01
      vertex   4.045855e+01 2.862404e+00 4.000000e-01
      vertex   4.044435e+01 3.175964e+00 0.000000e+00
    endloop
  endfacet
  facet normal 9.989756e-01 4.525131e-02 0.000000e+00
    outer loop
      vertex   4.044435e+01 3.175964e+00 0.000000e+00
      vertex   4.045855e+01 2.862404e+00 4.000000e-01
      vertex   4.045855e+01 2.862404e+00 0.000000e+00
    endloop
  endfacet
  facet normal -4.696441e-01 8.828558e-01 0.000000e+00
    outer loop
      vertex   4.045855e+01 2.862404e+00 4.000000e-01
      vertex   4.109421e+01 3.200550e+00 4.000000e-01
      vertex   4.045855e+01 2.862404e+00 0.000000e+00
    endloop
  endfacet
  facet normal -4.696441e-01 8.828558e-01 0.000000e+00
    outer loop
      vertex   4.045855e+01 2.862404e+00 0.000000e+00
      vertex   4.109421e+01 3.200550e+00 4.000000e-01
      vertex   4.109421e+01 3.200550e+00 0.000000e+00
    endloop
  endfacet
  facet normal -2.028797e-01 9.792037e-01 0.000000e+00
    outer loop
      vertex   4.109421e+01 3.200550e+00 4.000000e-01
      vertex   4.117767e+01 3.217840e+00 4.000000e-01
      vertex   4.109421e+01 3.200550e+00 0.000000e+00
    endloop
  endfacet
  facet normal -2.028797e-01 9.792037e-01 0.000000e+00
    outer loop
      vertex   4.109421e+01 3.200550e+00 0.000000e+00
      vertex   4.117767e+01 3.217840e+00 4.000000e-01
      vertex   4.117767e+01 3.217840e+00 0.000000e+00
    endloop
  endfacet
  facet normal 9.999986e-01 -1.648669e-03 0.000000e+00
    outer loop
      vertex   4.117767e+01 3.217840e+00 4.000000e-01
      vertex   4.117643e+01 2.465941e+00 4.000000e-01
      vertex   4.117767e+01 3.217840e+00 0.000000e+00
    endloop
  endfacet
  facet normal 9.999986e-01 -1.648669e-03 0.000000e+00
    outer loop
      vertex   4.117767e+01 3.217840e+00 0.000000e+00
      vertex   4.117643e+01 2.465941e+00 4.000000e-01
      vertex   4.117643e+01 2.465941e+00 0.000000e+00
    endloop
  endfacet
  facet normal 1.174258e-01 -9.930817e-01 0.000000e+00
    outer loop
      vertex   4.117643e+01 2.465941e+00 4.000000e-01
      vertex   4.077144e+01 2.418054e+00 4.000000e-01
      vertex   4.117643e+01 2.465941e+00 0.000000e+00
    endloop
  endfacet
  facet normal 1.174258e-01 -9.930817e-01 0.000000e+00
    outer loop
      vertex   4.117643e+01 2.465941e+00 0.000000e+00
      vertex   4.077144e+01 2.418054e+00 4.000000e-01
      vertex   4.077144e+01 2.418054e+00 0.000000e+00
    endloop
  endfacet
  facet normal 2.968074e-01 -9.549374e-01 0.000000e+00
    outer loop
      vertex   4.077144e+01 2.418054e+00 4.000000e-01
      vertex   4.067053e+01 2.386690e+00 4.000000e-01
      vertex   4.077144e+01 2.418054e+00 0.000000e+00
    endloop
  endfacet
  facet normal 2.968074e-01 -9.549374e-01 0.000000e+00
    outer loop
      vertex   4.077144e+01 2.418054e+00 0.000000e+00
      vertex   4.067053e+01 2.386690e+00 4.000000e-01
      vertex   4.067053e+01 2.386690e+00 0.000000e+00
    endloop
  endfacet
  facet normal 4.610565e-01 -8.873708e-01 0.000000e+00
    outer loop
      vertex   4.067053e+01 2.386690e+00 4.000000e-01
      vertex   4.062543e+01 2.363257e+00 4.000000e-01
      vertex   4.067053e+01 2.386690e+00 0.000000e+00
    endloop
  endfacet
  facet normal 4.610565e-01 -8.873708e-01 0.000000e+00
    outer loop
      vertex   4.067053e+01 2.386690e+00 0.000000e+00
      vertex   4.062543e+01 2.363257e+00 4.000000e-01
      vertex   4.062543e+01 2.363257e+00 0.000000e+00
    endloop
  endfacet
  facet normal 0.000000e+00 0.000000e+00 -1.000000e+00
    outer loop
      vertex   4.045248e+01 8.553295e-01 0.000000e+00
      vertex   3.974118e+01 8.821082e-01 0.000000e+00
      vertex   4.045499e+01 1.876197e+00 0.000000e+00
    endloop
  endfacet
  facet normal -0.000000e+00 0.000000e+00 -1.000000e+00
    outer loop
      vertex   4.045499e+01 1.876197e+00 0.000000e+00
      vertex   3.974118e+01 8.821082e-01 0.000000e+00
      vertex   3.974735e+01 3.170148e+00 0.000000e+00
    endloop
  endfacet
  facet normal 0.000000e+00 0.000000e+00 -1.000000e+00
    outer loop
      vertex   4.045499e+01 1.876197e+00 0.000000e+00
      vertex   3.974735e+01 3.170148e+00 0.000000e+00
      vertex   4.049955e+01 2.196450e+00 0.000000e+00
    endloop
  endfacet
  facet normal 0.000000e+00 0.000000e+00 -1.000000e+00
    outer loop
      vertex   4.049955e+01 2.196450e+00 0.000000e+00
      vertex   3.974735e+01 3.170148e+00 0.000000e+00
      vertex   4.045855e+01 2.862404e+00 0.000000e+00
    endloop
  endfacet
  facet normal 0.000000e+00 0.000000e+00 -1.000000e+00
    outer loop
      vertex   4.049955e+01 2.196450e+00 0.000000e+00
      vertex   4.045855e+01 2.862404e+00 0.000000e+00
      vertex   4.050946e+01 2.224899e+00 0.000000e+00
    endloop
  endfacet
  facet normal 0.000000e+00 0.000000e+00 -1.000000e+00
    outer loop
      vertex   4.050946e+01 2.224899e+00 0.000000e+00
      vertex   4.045855e+01 2.862404e+00 0.000000e+00
      vertex   4.052123e+01 2.250947e+00 0.000000e+00
    endloop
  endfacet
  facet normal 0.000000e+00 0.000000e+00 -1.000000e+00
    outer loop
      vertex   4.052123e+01 2.250947e+00 0.000000e+00
      vertex   4.045855e+01 2.862404e+00 0.000000e+00
      vertex   4.053477e+01 2.274711e+00 0.000000e+00
    endloop
  endfacet
  facet normal 0.000000e+00 0.000000e+00 -1.000000e+00
    outer loop
      vertex   4.053477e+01 2.274711e+00 0.000000e+00
      vertex   4.045855e+01 2.862404e+00 0.000000e+00
      vertex   4.054997e+01 2.296303e+00 0.000000e+00
    endloop
  endfacet
  facet normal 0.000000e+00 0.000000e+00 -1.000000e+00
    outer loop
      vertex   4.054997e+01 2.296303e+00 0.000000e+00
      vertex   4.045855e+01 2.862404e+00 0.000000e+00
      vertex   4.058498e+01 2.333433e+00 0.000000e+00
    endloop
  endfacet
  facet normal 0.000000e+00 0.000000e+00 -1.000000e+00
    outer loop
      vertex   4.058498e+01 2.333433e+00 0.000000e+00
      vertex   4.045855e+01 2.862404e+00 0.000000e+00
      vertex   4.062543e+01 2.363257e+00 0.000000e+00
    endloop
  endfacet
  facet normal 0.000000e+00 0.000000e+00 -1.000000e+00
    outer loop
      vertex   4.062543e+01 2.363257e+00 0.000000e+00
      vertex   4.045855e+01 2.862404e+00 0.000000e+00
      vertex   4.067053e+01 2.386690e+00 0.000000e+00
    endloop
  endfacet
  facet normal 0.000000e+00 0.000000e+00 -1.000000e+00
    outer loop
      vertex   4.067053e+01 2.386690e+00 0.000000e+00
      vertex   4.045855e+01 2.862404e+00 0.000000e+00
      vertex   4.077144e+01 2.418054e+00 0.000000e+00
    endloop
  endfacet
  facet normal 0.000000e+00 0.000000e+00 -1.000000e+00
    outer loop
      vertex   4.077144e+01 2.418054e+00 0.000000e+00
      vertex   4.045855e+01 2.862404e+00 0.000000e+00
      vertex   4.109421e+01 3.200550e+00 0.000000e+00
    endloop
  endfacet
  facet normal 0.000000e+00 0.000000e+00 -1.000000e+00
    outer loop
      vertex   4.077144e+01 2.418054e+00 0.000000e+00
      vertex   4.109421e+01 3.200550e+00 0.000000e+00
      vertex   4.117643e+01 2.465941e+00 0.000000e+00
    endloop
  endfacet
  facet normal 0.000000e+00 0.000000e+00 -1.000000e+00
    outer loop
      vertex   4.117643e+01 2.465941e+00 0.000000e+00
      vertex   4.109421e+01 3.200550e+00 0.000000e+00
      vertex   4.117767e+01 3.217840e+00 0.000000e+00
    endloop
  endfacet
  facet normal 0.000000e+00 0.000000e+00 -1.000000e+00
    outer loop
      vertex   3.974735e+01 3.170148e+00 0.000000e+00
      vertex   4.044435e+01 3.175964e+00 0.000000e+00
      vertex   4.045855e+01 2.862404e+00 0.000000e+00
    endloop
  endfacet
endsolid
