solid ASCII
  facet normal 0.000000e+00 0.000000e+00 1.000000e+00
    outer loop
      vertex   8.154724e+01 1.293699e+01 4.000000e-01
      vertex   8.150222e+01 1.285658e+01 4.000000e-01
      vertex   8.184567e+01 1.197280e+01 4.000000e-01
    endloop
  endfacet
  facet normal 0.000000e+00 0.000000e+00 1.000000e+00
    outer loop
      vertex   8.184567e+01 1.197280e+01 4.000000e-01
      vertex   8.150222e+01 1.285658e+01 4.000000e-01
      vertex   8.148222e+01 1.282330e+01 4.000000e-01
    endloop
  endfacet
  facet normal 0.000000e+00 0.000000e+00 1.000000e+00
    outer loop
      vertex   8.184567e+01 1.197280e+01 4.000000e-01
      vertex   8.148222e+01 1.282330e+01 4.000000e-01
      vertex   8.144862e+01 1.275523e+01 4.000000e-01
    endloop
  endfacet
  facet normal 0.000000e+00 0.000000e+00 1.000000e+00
    outer loop
      vertex   8.144862e+01 1.275523e+01 4.000000e-01
      vertex   8.142319e+01 1.268545e+01 4.000000e-01
      vertex   8.184567e+01 1.197280e+01 4.000000e-01
    endloop
  endfacet
  facet normal 0.000000e+00 0.000000e+00 1.000000e+00
    outer loop
      vertex   8.184567e+01 1.197280e+01 4.000000e-01
      vertex   8.142319e+01 1.268545e+01 4.000000e-01
      vertex   8.140550e+01 1.261430e+01 4.000000e-01
    endloop
  endfacet
  facet normal 0.000000e+00 0.000000e+00 1.000000e+00
    outer loop
      vertex   8.184567e+01 1.197280e+01 4.000000e-01
      vertex   8.140550e+01 1.261430e+01 4.000000e-01
      vertex   8.139251e+01 1.250579e+01 4.000000e-01
    endloop
  endfacet
  facet normal 0.000000e+00 0.000000e+00 1.000000e+00
    outer loop
      vertex   8.139251e+01 1.250579e+01 4.000000e-01
      vertex   8.139449e+01 1.239622e+01 4.000000e-01
      vertex   8.184567e+01 1.197280e+01 4.000000e-01
    endloop
  endfacet
  facet normal 0.000000e+00 0.000000e+00 1.000000e+00
    outer loop
      vertex   8.184567e+01 1.197280e+01 4.000000e-01
      vertex   8.139449e+01 1.239622e+01 4.000000e-01
      vertex   8.141784e+01 1.225053e+01 4.000000e-01
    endloop
  endfacet
  facet normal 0.000000e+00 0.000000e+00 1.000000e+00
    outer loop
      vertex   8.184567e+01 1.197280e+01 4.000000e-01
      vertex   8.141784e+01 1.225053e+01 4.000000e-01
      vertex   8.147542e+01 1.207307e+01 4.000000e-01
    endloop
  endfacet
  facet normal 0.000000e+00 0.000000e+00 1.000000e+00
    outer loop
      vertex   8.147542e+01 1.207307e+01 4.000000e-01
      vertex   8.159685e+01 1.184323e+01 4.000000e-01
      vertex   8.184567e+01 1.197280e+01 4.000000e-01
    endloop
  endfacet
  facet normal 0.000000e+00 0.000000e+00 1.000000e+00
    outer loop
      vertex   8.221382e+01 1.327073e+01 4.000000e-01
      vertex   8.203612e+01 1.324377e+01 4.000000e-01
      vertex   8.184567e+01 1.197280e+01 4.000000e-01
    endloop
  endfacet
  facet normal 0.000000e+00 -0.000000e+00 1.000000e+00
    outer loop
      vertex   8.184567e+01 1.197280e+01 4.000000e-01
      vertex   8.203612e+01 1.324377e+01 4.000000e-01
      vertex   8.181167e+01 1.316488e+01 4.000000e-01
    endloop
  endfacet
  facet normal 0.000000e+00 0.000000e+00 1.000000e+00
    outer loop
      vertex   8.184567e+01 1.197280e+01 4.000000e-01
      vertex   8.181167e+01 1.316488e+01 4.000000e-01
      vertex   8.168764e+01 1.308718e+01 4.000000e-01
    endloop
  endfacet
  facet normal 0.000000e+00 0.000000e+00 1.000000e+00
    outer loop
      vertex   8.168764e+01 1.308718e+01 4.000000e-01
      vertex   8.160188e+01 1.300758e+01 4.000000e-01
      vertex   8.184567e+01 1.197280e+01 4.000000e-01
    endloop
  endfacet
  facet normal 0.000000e+00 0.000000e+00 1.000000e+00
    outer loop
      vertex   8.184567e+01 1.197280e+01 4.000000e-01
      vertex   8.160188e+01 1.300758e+01 4.000000e-01
      vertex   8.154724e+01 1.293699e+01 4.000000e-01
    endloop
  endfacet
  facet normal -8.841868e-01 -4.671335e-01 -0.000000e+00
    outer loop
      vertex   8.159685e+01 1.184323e+01 4.000000e-01
      vertex   8.147542e+01 1.207307e+01 4.000000e-01
      vertex   8.159685e+01 1.184323e+01 0.000000e+00
    endloop
  endfacet
  facet normal -8.841868e-01 -4.671335e-01 0.000000e+00
    outer loop
      vertex   8.159685e+01 1.184323e+01 0.000000e+00
      vertex   8.147542e+01 1.207307e+01 4.000000e-01
      vertex   8.147542e+01 1.207307e+01 0.000000e+00
    endloop
  endfacet
  facet normal -9.511738e-01 -3.086556e-01 -0.000000e+00
    outer loop
      vertex   8.147542e+01 1.207307e+01 4.000000e-01
      vertex   8.141784e+01 1.225053e+01 4.000000e-01
      vertex   8.147542e+01 1.207307e+01 0.000000e+00
    endloop
  endfacet
  facet normal -9.511738e-01 -3.086556e-01 0.000000e+00
    outer loop
      vertex   8.147542e+01 1.207307e+01 0.000000e+00
      vertex   8.141784e+01 1.225053e+01 4.000000e-01
      vertex   8.141784e+01 1.225053e+01 0.000000e+00
    endloop
  endfacet
  facet normal -9.873975e-01 -1.582598e-01 -0.000000e+00
    outer loop
      vertex   8.141784e+01 1.225053e+01 4.000000e-01
      vertex   8.139449e+01 1.239622e+01 4.000000e-01
      vertex   8.141784e+01 1.225053e+01 0.000000e+00
    endloop
  endfacet
  facet normal -9.873975e-01 -1.582598e-01 0.000000e+00
    outer loop
      vertex   8.141784e+01 1.225053e+01 0.000000e+00
      vertex   8.139449e+01 1.239622e+01 4.000000e-01
      vertex   8.139449e+01 1.239622e+01 0.000000e+00
    endloop
  endfacet
  facet normal -9.998381e-01 -1.799643e-02 -0.000000e+00
    outer loop
      vertex   8.139449e+01 1.239622e+01 4.000000e-01
      vertex   8.139251e+01 1.250579e+01 4.000000e-01
      vertex   8.139449e+01 1.239622e+01 0.000000e+00
    endloop
  endfacet
  facet normal -9.998381e-01 -1.799643e-02 0.000000e+00
    outer loop
      vertex   8.139449e+01 1.239622e+01 0.000000e+00
      vertex   8.139251e+01 1.250579e+01 4.000000e-01
      vertex   8.139251e+01 1.250579e+01 0.000000e+00
    endloop
  endfacet
  facet normal -9.929168e-01 1.188118e-01 0.000000e+00
    outer loop
      vertex   8.139251e+01 1.250579e+01 4.000000e-01
      vertex   8.140550e+01 1.261430e+01 4.000000e-01
      vertex   8.139251e+01 1.250579e+01 0.000000e+00
    endloop
  endfacet
  facet normal -9.929168e-01 1.188118e-01 0.000000e+00
    outer loop
      vertex   8.139251e+01 1.250579e+01 0.000000e+00
      vertex   8.140550e+01 1.261430e+01 4.000000e-01
      vertex   8.140550e+01 1.261430e+01 0.000000e+00
    endloop
  endfacet
  facet normal -9.704516e-01 2.412958e-01 0.000000e+00
    outer loop
      vertex   8.140550e+01 1.261430e+01 4.000000e-01
      vertex   8.142319e+01 1.268545e+01 4.000000e-01
      vertex   8.140550e+01 1.261430e+01 0.000000e+00
    endloop
  endfacet
  facet normal -9.704516e-01 2.412958e-01 0.000000e+00
    outer loop
      vertex   8.140550e+01 1.261430e+01 0.000000e+00
      vertex   8.142319e+01 1.268545e+01 4.000000e-01
      vertex   8.142319e+01 1.268545e+01 0.000000e+00
    endloop
  endfacet
  facet normal -9.395746e-01 3.423443e-01 0.000000e+00
    outer loop
      vertex   8.142319e+01 1.268545e+01 4.000000e-01
      vertex   8.144862e+01 1.275523e+01 4.000000e-01
      vertex   8.142319e+01 1.268545e+01 0.000000e+00
    endloop
  endfacet
  facet normal -9.395746e-01 3.423443e-01 0.000000e+00
    outer loop
      vertex   8.142319e+01 1.268545e+01 0.000000e+00
      vertex   8.144862e+01 1.275523e+01 4.000000e-01
      vertex   8.144862e+01 1.275523e+01 0.000000e+00
    endloop
  endfacet
  facet normal -8.967038e-01 4.426311e-01 0.000000e+00
    outer loop
      vertex   8.144862e+01 1.275523e+01 4.000000e-01
      vertex   8.148222e+01 1.282330e+01 4.000000e-01
      vertex   8.144862e+01 1.275523e+01 0.000000e+00
    endloop
  endfacet
  facet normal -8.967038e-01 4.426311e-01 0.000000e+00
    outer loop
      vertex   8.144862e+01 1.275523e+01 0.000000e+00
      vertex   8.148222e+01 1.282330e+01 4.000000e-01
      vertex   8.148222e+01 1.282330e+01 0.000000e+00
    endloop
  endfacet
  facet normal -8.571126e-01 5.151290e-01 0.000000e+00
    outer loop
      vertex   8.148222e+01 1.282330e+01 4.000000e-01
      vertex   8.150222e+01 1.285658e+01 4.000000e-01
      vertex   8.148222e+01 1.282330e+01 0.000000e+00
    endloop
  endfacet
  facet normal -8.571126e-01 5.151290e-01 0.000000e+00
    outer loop
      vertex   8.148222e+01 1.282330e+01 0.000000e+00
      vertex   8.150222e+01 1.285658e+01 4.000000e-01
      vertex   8.150222e+01 1.285658e+01 0.000000e+00
    endloop
  endfacet
  facet normal -8.725411e-01 4.885408e-01 0.000000e+00
    outer loop
      vertex   8.150222e+01 1.285658e+01 4.000000e-01
      vertex   8.154724e+01 1.293699e+01 4.000000e-01
      vertex   8.150222e+01 1.285658e+01 0.000000e+00
    endloop
  endfacet
  facet normal -8.725411e-01 4.885408e-01 0.000000e+00
    outer loop
      vertex   8.150222e+01 1.285658e+01 0.000000e+00
      vertex   8.154724e+01 1.293699e+01 4.000000e-01
      vertex   8.154724e+01 1.293699e+01 0.000000e+00
    endloop
  endfacet
  facet normal -7.907556e-01 6.121320e-01 0.000000e+00
    outer loop
      vertex   8.154724e+01 1.293699e+01 4.000000e-01
      vertex   8.160188e+01 1.300758e+01 4.000000e-01
      vertex   8.154724e+01 1.293699e+01 0.000000e+00
    endloop
  endfacet
  facet normal -7.907556e-01 6.121320e-01 0.000000e+00
    outer loop
      vertex   8.154724e+01 1.293699e+01 0.000000e+00
      vertex   8.160188e+01 1.300758e+01 4.000000e-01
      vertex   8.160188e+01 1.300758e+01 0.000000e+00
    endloop
  endfacet
  facet normal -6.802727e-01 7.329591e-01 0.000000e+00
    outer loop
      vertex   8.160188e+01 1.300758e+01 4.000000e-01
      vertex   8.168764e+01 1.308718e+01 4.000000e-01
      vertex   8.160188e+01 1.300758e+01 0.000000e+00
    endloop
  endfacet
  facet normal -6.802727e-01 7.329591e-01 0.000000e+00
    outer loop
      vertex   8.160188e+01 1.300758e+01 0.000000e+00
      vertex   8.168764e+01 1.308718e+01 4.000000e-01
      vertex   8.168764e+01 1.308718e+01 0.000000e+00
    endloop
  endfacet
  facet normal -5.308898e-01 8.474409e-01 0.000000e+00
    outer loop
      vertex   8.168764e+01 1.308718e+01 4.000000e-01
      vertex   8.181167e+01 1.316488e+01 4.000000e-01
      vertex   8.168764e+01 1.308718e+01 0.000000e+00
    endloop
  endfacet
  facet normal -5.308898e-01 8.474409e-01 0.000000e+00
    outer loop
      vertex   8.168764e+01 1.308718e+01 0.000000e+00
      vertex   8.181167e+01 1.316488e+01 4.000000e-01
      vertex   8.181167e+01 1.316488e+01 0.000000e+00
    endloop
  endfacet
  facet normal -3.316239e-01 9.434117e-01 0.000000e+00
    outer loop
      vertex   8.181167e+01 1.316488e+01 4.000000e-01
      vertex   8.203612e+01 1.324377e+01 4.000000e-01
      vertex   8.181167e+01 1.316488e+01 0.000000e+00
    endloop
  endfacet
  facet normal -3.316239e-01 9.434117e-01 0.000000e+00
    outer loop
      vertex   8.181167e+01 1.316488e+01 0.000000e+00
      vertex   8.203612e+01 1.324377e+01 4.000000e-01
      vertex   8.203612e+01 1.324377e+01 0.000000e+00
    endloop
  endfacet
  facet normal -1.500039e-01 9.886854e-01 0.000000e+00
    outer loop
      vertex   8.203612e+01 1.324377e+01 4.000000e-01
      vertex   8.221382e+01 1.327073e+01 4.000000e-01
      vertex   8.203612e+01 1.324377e+01 0.000000e+00
    endloop
  endfacet
  facet normal -1.500039e-01 9.886854e-01 0.000000e+00
    outer loop
      vertex   8.203612e+01 1.324377e+01 0.000000e+00
      vertex   8.221382e+01 1.327073e+01 4.000000e-01
      vertex   8.221382e+01 1.327073e+01 0.000000e+00
    endloop
  endfacet
  facet normal 9.620477e-01 -2.728813e-01 0.000000e+00
    outer loop
      vertex   8.221382e+01 1.327073e+01 4.000000e-01
      vertex   8.184567e+01 1.197280e+01 4.000000e-01
      vertex   8.221382e+01 1.327073e+01 0.000000e+00
    endloop
  endfacet
  facet normal 9.620477e-01 -2.728813e-01 0.000000e+00
    outer loop
      vertex   8.221382e+01 1.327073e+01 0.000000e+00
      vertex   8.184567e+01 1.197280e+01 4.000000e-01
      vertex   8.184567e+01 1.197280e+01 0.000000e+00
    endloop
  endfacet
  facet normal 4.618745e-01 -8.869453e-01 0.000000e+00
    outer loop
      vertex   8.184567e+01 1.197280e+01 4.000000e-01
      vertex   8.159685e+01 1.184323e+01 4.000000e-01
      vertex   8.184567e+01 1.197280e+01 0.000000e+00
    endloop
  endfacet
  facet normal 4.618745e-01 -8.869453e-01 0.000000e+00
    outer loop
      vertex   8.184567e+01 1.197280e+01 0.000000e+00
      vertex   8.159685e+01 1.184323e+01 4.000000e-01
      vertex   8.159685e+01 1.184323e+01 0.000000e+00
    endloop
  endfacet
  facet normal 0.000000e+00 0.000000e+00 -1.000000e+00
    outer loop
      vertex   8.142319e+01 1.268545e+01 0.000000e+00
      vertex   8.144862e+01 1.275523e+01 0.000000e+00
      vertex   8.184567e+01 1.197280e+01 0.000000e+00
    endloop
  endfacet
  facet normal 0.000000e+00 0.000000e+00 -1.000000e+00
    outer loop
      vertex   8.184567e+01 1.197280e+01 0.000000e+00
      vertex   8.144862e+01 1.275523e+01 0.000000e+00
      vertex   8.148222e+01 1.282330e+01 0.000000e+00
    endloop
  endfacet
  facet normal 0.000000e+00 0.000000e+00 -1.000000e+00
    outer loop
      vertex   8.184567e+01 1.197280e+01 0.000000e+00
      vertex   8.148222e+01 1.282330e+01 0.000000e+00
      vertex   8.150222e+01 1.285658e+01 0.000000e+00
    endloop
  endfacet
  facet normal 0.000000e+00 0.000000e+00 -1.000000e+00
    outer loop
      vertex   8.150222e+01 1.285658e+01 0.000000e+00
      vertex   8.154724e+01 1.293699e+01 0.000000e+00
      vertex   8.184567e+01 1.197280e+01 0.000000e+00
    endloop
  endfacet
  facet normal 0.000000e+00 0.000000e+00 -1.000000e+00
    outer loop
      vertex   8.184567e+01 1.197280e+01 0.000000e+00
      vertex   8.154724e+01 1.293699e+01 0.000000e+00
      vertex   8.160188e+01 1.300758e+01 0.000000e+00
    endloop
  endfacet
  facet normal 0.000000e+00 0.000000e+00 -1.000000e+00
    outer loop
      vertex   8.184567e+01 1.197280e+01 0.000000e+00
      vertex   8.160188e+01 1.300758e+01 0.000000e+00
      vertex   8.168764e+01 1.308718e+01 0.000000e+00
    endloop
  endfacet
  facet normal 0.000000e+00 0.000000e+00 -1.000000e+00
    outer loop
      vertex   8.168764e+01 1.308718e+01 0.000000e+00
      vertex   8.181167e+01 1.316488e+01 0.000000e+00
      vertex   8.184567e+01 1.197280e+01 0.000000e+00
    endloop
  endfacet
  facet normal 0.000000e+00 0.000000e+00 -1.000000e+00
    outer loop
      vertex   8.184567e+01 1.197280e+01 0.000000e+00
      vertex   8.181167e+01 1.316488e+01 0.000000e+00
      vertex   8.203612e+01 1.324377e+01 0.000000e+00
    endloop
  endfacet
  facet normal 0.000000e+00 0.000000e+00 -1.000000e+00
    outer loop
      vertex   8.184567e+01 1.197280e+01 0.000000e+00
      vertex   8.203612e+01 1.324377e+01 0.000000e+00
      vertex   8.221382e+01 1.327073e+01 0.000000e+00
    endloop
  endfacet
  facet normal 0.000000e+00 0.000000e+00 -1.000000e+00
    outer loop
      vertex   8.159685e+01 1.184323e+01 0.000000e+00
      vertex   8.147542e+01 1.207307e+01 0.000000e+00
      vertex   8.184567e+01 1.197280e+01 0.000000e+00
    endloop
  endfacet
  facet normal 0.000000e+00 0.000000e+00 -1.000000e+00
    outer loop
      vertex   8.184567e+01 1.197280e+01 0.000000e+00
      vertex   8.147542e+01 1.207307e+01 0.000000e+00
      vertex   8.141784e+01 1.225053e+01 0.000000e+00
    endloop
  endfacet
  facet normal 0.000000e+00 0.000000e+00 -1.000000e+00
    outer loop
      vertex   8.184567e+01 1.197280e+01 0.000000e+00
      vertex   8.141784e+01 1.225053e+01 0.000000e+00
      vertex   8.139449e+01 1.239622e+01 0.000000e+00
    endloop
  endfacet
  facet normal 0.000000e+00 0.000000e+00 -1.000000e+00
    outer loop
      vertex   8.139449e+01 1.239622e+01 0.000000e+00
      vertex   8.139251e+01 1.250579e+01 0.000000e+00
      vertex   8.184567e+01 1.197280e+01 0.000000e+00
    endloop
  endfacet
  facet normal 0.000000e+00 0.000000e+00 -1.000000e+00
    outer loop
      vertex   8.184567e+01 1.197280e+01 0.000000e+00
      vertex   8.139251e+01 1.250579e+01 0.000000e+00
      vertex   8.140550e+01 1.261430e+01 0.000000e+00
    endloop
  endfacet
  facet normal 0.000000e+00 0.000000e+00 -1.000000e+00
    outer loop
      vertex   8.184567e+01 1.197280e+01 0.000000e+00
      vertex   8.140550e+01 1.261430e+01 0.000000e+00
      vertex   8.142319e+01 1.268545e+01 0.000000e+00
    endloop
  endfacet
endsolid
