solid ASCII
  facet normal -0.000000e+00 0.000000e+00 1.000000e+00
    outer loop
      vertex   7.816166e+01 1.357785e+01 4.000000e-01
      vertex   7.912995e+01 1.272729e+01 4.000000e-01
      vertex   7.819977e+01 1.361495e+01 4.000000e-01
    endloop
  endfacet
  facet normal 0.000000e+00 0.000000e+00 1.000000e+00
    outer loop
      vertex   7.819977e+01 1.361495e+01 4.000000e-01
      vertex   7.912995e+01 1.272729e+01 4.000000e-01
      vertex   7.915765e+01 1.278606e+01 4.000000e-01
    endloop
  endfacet
  facet normal 0.000000e+00 0.000000e+00 1.000000e+00
    outer loop
      vertex   7.819977e+01 1.361495e+01 4.000000e-01
      vertex   7.915765e+01 1.278606e+01 4.000000e-01
      vertex   7.918127e+01 1.284710e+01 4.000000e-01
    endloop
  endfacet
  facet normal 0.000000e+00 0.000000e+00 1.000000e+00
    outer loop
      vertex   7.816166e+01 1.357785e+01 4.000000e-01
      vertex   7.812659e+01 1.353749e+01 4.000000e-01
      vertex   7.912995e+01 1.272729e+01 4.000000e-01
    endloop
  endfacet
  facet normal 0.000000e+00 0.000000e+00 1.000000e+00
    outer loop
      vertex   7.912995e+01 1.272729e+01 4.000000e-01
      vertex   7.812659e+01 1.353749e+01 4.000000e-01
      vertex   7.809462e+01 1.349420e+01 4.000000e-01
    endloop
  endfacet
  facet normal 0.000000e+00 0.000000e+00 1.000000e+00
    outer loop
      vertex   7.912995e+01 1.272729e+01 4.000000e-01
      vertex   7.809462e+01 1.349420e+01 4.000000e-01
      vertex   7.909829e+01 1.267121e+01 4.000000e-01
    endloop
  endfacet
  facet normal 0.000000e+00 0.000000e+00 1.000000e+00
    outer loop
      vertex   7.909829e+01 1.267121e+01 4.000000e-01
      vertex   7.809462e+01 1.349420e+01 4.000000e-01
      vertex   7.806576e+01 1.344828e+01 4.000000e-01
    endloop
  endfacet
  facet normal 0.000000e+00 0.000000e+00 1.000000e+00
    outer loop
      vertex   7.909829e+01 1.267121e+01 4.000000e-01
      vertex   7.806576e+01 1.344828e+01 4.000000e-01
      vertex   7.804004e+01 1.340005e+01 4.000000e-01
    endloop
  endfacet
  facet normal 0.000000e+00 0.000000e+00 1.000000e+00
    outer loop
      vertex   7.804004e+01 1.340005e+01 4.000000e-01
      vertex   7.801751e+01 1.334982e+01 4.000000e-01
      vertex   7.909829e+01 1.267121e+01 4.000000e-01
    endloop
  endfacet
  facet normal 0.000000e+00 0.000000e+00 1.000000e+00
    outer loop
      vertex   7.909829e+01 1.267121e+01 4.000000e-01
      vertex   7.801751e+01 1.334982e+01 4.000000e-01
      vertex   7.906279e+01 1.261825e+01 4.000000e-01
    endloop
  endfacet
  facet normal 0.000000e+00 0.000000e+00 1.000000e+00
    outer loop
      vertex   7.906279e+01 1.261825e+01 4.000000e-01
      vertex   7.801751e+01 1.334982e+01 4.000000e-01
      vertex   7.799819e+01 1.329790e+01 4.000000e-01
    endloop
  endfacet
  facet normal 0.000000e+00 0.000000e+00 1.000000e+00
    outer loop
      vertex   7.906279e+01 1.261825e+01 4.000000e-01
      vertex   7.799819e+01 1.329790e+01 4.000000e-01
      vertex   7.902355e+01 1.256883e+01 4.000000e-01
    endloop
  endfacet
  facet normal 0.000000e+00 0.000000e+00 1.000000e+00
    outer loop
      vertex   7.902355e+01 1.256883e+01 4.000000e-01
      vertex   7.799819e+01 1.329790e+01 4.000000e-01
      vertex   7.798212e+01 1.324462e+01 4.000000e-01
    endloop
  endfacet
  facet normal 0.000000e+00 0.000000e+00 1.000000e+00
    outer loop
      vertex   7.902355e+01 1.256883e+01 4.000000e-01
      vertex   7.798212e+01 1.324462e+01 4.000000e-01
      vertex   7.898071e+01 1.252338e+01 4.000000e-01
    endloop
  endfacet
  facet normal 0.000000e+00 0.000000e+00 1.000000e+00
    outer loop
      vertex   7.898071e+01 1.252338e+01 4.000000e-01
      vertex   7.798212e+01 1.324462e+01 4.000000e-01
      vertex   7.796932e+01 1.319027e+01 4.000000e-01
    endloop
  endfacet
  facet normal 0.000000e+00 0.000000e+00 1.000000e+00
    outer loop
      vertex   7.898071e+01 1.252338e+01 4.000000e-01
      vertex   7.796932e+01 1.319027e+01 4.000000e-01
      vertex   7.795984e+01 1.313517e+01 4.000000e-01
    endloop
  endfacet
  facet normal 0.000000e+00 0.000000e+00 1.000000e+00
    outer loop
      vertex   7.795984e+01 1.313517e+01 4.000000e-01
      vertex   7.795369e+01 1.307964e+01 4.000000e-01
      vertex   7.898071e+01 1.252338e+01 4.000000e-01
    endloop
  endfacet
  facet normal 0.000000e+00 0.000000e+00 1.000000e+00
    outer loop
      vertex   7.898071e+01 1.252338e+01 4.000000e-01
      vertex   7.795369e+01 1.307964e+01 4.000000e-01
      vertex   7.795093e+01 1.302399e+01 4.000000e-01
    endloop
  endfacet
  facet normal 0.000000e+00 0.000000e+00 1.000000e+00
    outer loop
      vertex   7.898071e+01 1.252338e+01 4.000000e-01
      vertex   7.795093e+01 1.302399e+01 4.000000e-01
      vertex   7.795156e+01 1.296853e+01 4.000000e-01
    endloop
  endfacet
  facet normal 0.000000e+00 0.000000e+00 1.000000e+00
    outer loop
      vertex   7.795156e+01 1.296853e+01 4.000000e-01
      vertex   7.795564e+01 1.291357e+01 4.000000e-01
      vertex   7.898071e+01 1.252338e+01 4.000000e-01
    endloop
  endfacet
  facet normal 0.000000e+00 0.000000e+00 1.000000e+00
    outer loop
      vertex   7.898071e+01 1.252338e+01 4.000000e-01
      vertex   7.795564e+01 1.291357e+01 4.000000e-01
      vertex   7.796318e+01 1.285944e+01 4.000000e-01
    endloop
  endfacet
  facet normal 0.000000e+00 0.000000e+00 1.000000e+00
    outer loop
      vertex   7.898071e+01 1.252338e+01 4.000000e-01
      vertex   7.796318e+01 1.285944e+01 4.000000e-01
      vertex   7.797423e+01 1.280643e+01 4.000000e-01
    endloop
  endfacet
  facet normal 0.000000e+00 0.000000e+00 1.000000e+00
    outer loop
      vertex   7.898071e+01 1.252338e+01 4.000000e-01
      vertex   7.797423e+01 1.280643e+01 4.000000e-01
      vertex   7.893436e+01 1.248231e+01 4.000000e-01
    endloop
  endfacet
  facet normal 0.000000e+00 0.000000e+00 1.000000e+00
    outer loop
      vertex   7.893436e+01 1.248231e+01 4.000000e-01
      vertex   7.797423e+01 1.280643e+01 4.000000e-01
      vertex   7.798882e+01 1.275487e+01 4.000000e-01
    endloop
  endfacet
  facet normal 0.000000e+00 0.000000e+00 1.000000e+00
    outer loop
      vertex   7.893436e+01 1.248231e+01 4.000000e-01
      vertex   7.798882e+01 1.275487e+01 4.000000e-01
      vertex   7.800697e+01 1.270507e+01 4.000000e-01
    endloop
  endfacet
  facet normal 0.000000e+00 0.000000e+00 1.000000e+00
    outer loop
      vertex   7.800697e+01 1.270507e+01 4.000000e-01
      vertex   7.802872e+01 1.265734e+01 4.000000e-01
      vertex   7.893436e+01 1.248231e+01 4.000000e-01
    endloop
  endfacet
  facet normal 0.000000e+00 0.000000e+00 1.000000e+00
    outer loop
      vertex   7.893436e+01 1.248231e+01 4.000000e-01
      vertex   7.802872e+01 1.265734e+01 4.000000e-01
      vertex   7.805410e+01 1.261199e+01 4.000000e-01
    endloop
  endfacet
  facet normal 0.000000e+00 0.000000e+00 1.000000e+00
    outer loop
      vertex   7.893436e+01 1.248231e+01 4.000000e-01
      vertex   7.805410e+01 1.261199e+01 4.000000e-01
      vertex   7.808315e+01 1.256934e+01 4.000000e-01
    endloop
  endfacet
  facet normal 0.000000e+00 0.000000e+00 1.000000e+00
    outer loop
      vertex   7.808315e+01 1.256934e+01 4.000000e-01
      vertex   7.811589e+01 1.252970e+01 4.000000e-01
      vertex   7.893436e+01 1.248231e+01 4.000000e-01
    endloop
  endfacet
  facet normal 0.000000e+00 0.000000e+00 1.000000e+00
    outer loop
      vertex   7.893436e+01 1.248231e+01 4.000000e-01
      vertex   7.811589e+01 1.252970e+01 4.000000e-01
      vertex   7.815236e+01 1.249338e+01 4.000000e-01
    endloop
  endfacet
  facet normal 0.000000e+00 0.000000e+00 1.000000e+00
    outer loop
      vertex   7.893436e+01 1.248231e+01 4.000000e-01
      vertex   7.815236e+01 1.249338e+01 4.000000e-01
      vertex   7.819259e+01 1.246070e+01 4.000000e-01
    endloop
  endfacet
  facet normal 0.000000e+00 0.000000e+00 1.000000e+00
    outer loop
      vertex   7.893436e+01 1.248231e+01 4.000000e-01
      vertex   7.819259e+01 1.246070e+01 4.000000e-01
      vertex   7.888463e+01 1.244606e+01 4.000000e-01
    endloop
  endfacet
  facet normal 0.000000e+00 0.000000e+00 1.000000e+00
    outer loop
      vertex   7.888463e+01 1.244606e+01 4.000000e-01
      vertex   7.819259e+01 1.246070e+01 4.000000e-01
      vertex   7.823662e+01 1.243196e+01 4.000000e-01
    endloop
  endfacet
  facet normal 0.000000e+00 0.000000e+00 1.000000e+00
    outer loop
      vertex   7.888463e+01 1.244606e+01 4.000000e-01
      vertex   7.823662e+01 1.243196e+01 4.000000e-01
      vertex   7.883162e+01 1.241505e+01 4.000000e-01
    endloop
  endfacet
  facet normal 0.000000e+00 0.000000e+00 1.000000e+00
    outer loop
      vertex   7.883162e+01 1.241505e+01 4.000000e-01
      vertex   7.823662e+01 1.243196e+01 4.000000e-01
      vertex   7.828447e+01 1.240749e+01 4.000000e-01
    endloop
  endfacet
  facet normal 0.000000e+00 0.000000e+00 1.000000e+00
    outer loop
      vertex   7.883162e+01 1.241505e+01 4.000000e-01
      vertex   7.828447e+01 1.240749e+01 4.000000e-01
      vertex   7.877546e+01 1.238970e+01 4.000000e-01
    endloop
  endfacet
  facet normal 0.000000e+00 0.000000e+00 1.000000e+00
    outer loop
      vertex   7.877546e+01 1.238970e+01 4.000000e-01
      vertex   7.828447e+01 1.240749e+01 4.000000e-01
      vertex   7.833618e+01 1.238759e+01 4.000000e-01
    endloop
  endfacet
  facet normal 0.000000e+00 0.000000e+00 1.000000e+00
    outer loop
      vertex   7.877546e+01 1.238970e+01 4.000000e-01
      vertex   7.833618e+01 1.238759e+01 4.000000e-01
      vertex   7.871625e+01 1.237044e+01 4.000000e-01
    endloop
  endfacet
  facet normal 0.000000e+00 0.000000e+00 1.000000e+00
    outer loop
      vertex   7.871625e+01 1.237044e+01 4.000000e-01
      vertex   7.833618e+01 1.238759e+01 4.000000e-01
      vertex   7.839177e+01 1.237259e+01 4.000000e-01
    endloop
  endfacet
  facet normal 0.000000e+00 0.000000e+00 1.000000e+00
    outer loop
      vertex   7.871625e+01 1.237044e+01 4.000000e-01
      vertex   7.839177e+01 1.237259e+01 4.000000e-01
      vertex   7.845129e+01 1.236278e+01 4.000000e-01
    endloop
  endfacet
  facet normal 0.000000e+00 0.000000e+00 1.000000e+00
    outer loop
      vertex   7.871625e+01 1.237044e+01 4.000000e-01
      vertex   7.845129e+01 1.236278e+01 4.000000e-01
      vertex   7.865412e+01 1.235770e+01 4.000000e-01
    endloop
  endfacet
  facet normal 0.000000e+00 0.000000e+00 1.000000e+00
    outer loop
      vertex   7.865412e+01 1.235770e+01 4.000000e-01
      vertex   7.845129e+01 1.236278e+01 4.000000e-01
      vertex   7.852152e+01 1.235344e+01 4.000000e-01
    endloop
  endfacet
  facet normal 0.000000e+00 0.000000e+00 1.000000e+00
    outer loop
      vertex   7.865412e+01 1.235770e+01 4.000000e-01
      vertex   7.852152e+01 1.235344e+01 4.000000e-01
      vertex   7.858917e+01 1.235189e+01 4.000000e-01
    endloop
  endfacet
  facet normal -0.000000e+00 0.000000e+00 1.000000e+00
    outer loop
      vertex   7.819977e+01 1.361495e+01 4.000000e-01
      vertex   7.918127e+01 1.284710e+01 4.000000e-01
      vertex   7.860122e+01 1.378903e+01 4.000000e-01
    endloop
  endfacet
  facet normal 0.000000e+00 0.000000e+00 1.000000e+00
    outer loop
      vertex   7.860122e+01 1.378903e+01 4.000000e-01
      vertex   7.918127e+01 1.284710e+01 4.000000e-01
      vertex   7.920071e+01 1.290998e+01 4.000000e-01
    endloop
  endfacet
  facet normal 0.000000e+00 0.000000e+00 1.000000e+00
    outer loop
      vertex   7.860122e+01 1.378903e+01 4.000000e-01
      vertex   7.920071e+01 1.290998e+01 4.000000e-01
      vertex   7.921585e+01 1.297427e+01 4.000000e-01
    endloop
  endfacet
  facet normal 0.000000e+00 -0.000000e+00 1.000000e+00
    outer loop
      vertex   7.921585e+01 1.297427e+01 4.000000e-01
      vertex   7.922657e+01 1.303956e+01 4.000000e-01
      vertex   7.860122e+01 1.378903e+01 4.000000e-01
    endloop
  endfacet
  facet normal 0.000000e+00 0.000000e+00 1.000000e+00
    outer loop
      vertex   7.860122e+01 1.378903e+01 4.000000e-01
      vertex   7.922657e+01 1.303956e+01 4.000000e-01
      vertex   7.923276e+01 1.310542e+01 4.000000e-01
    endloop
  endfacet
  facet normal 0.000000e+00 0.000000e+00 1.000000e+00
    outer loop
      vertex   7.860122e+01 1.378903e+01 4.000000e-01
      vertex   7.923276e+01 1.310542e+01 4.000000e-01
      vertex   7.884536e+01 1.375532e+01 4.000000e-01
    endloop
  endfacet
  facet normal 0.000000e+00 0.000000e+00 1.000000e+00
    outer loop
      vertex   7.884536e+01 1.375532e+01 4.000000e-01
      vertex   7.923276e+01 1.310542e+01 4.000000e-01
      vertex   7.923430e+01 1.317142e+01 4.000000e-01
    endloop
  endfacet
  facet normal 0.000000e+00 0.000000e+00 1.000000e+00
    outer loop
      vertex   7.884536e+01 1.375532e+01 4.000000e-01
      vertex   7.923430e+01 1.317142e+01 4.000000e-01
      vertex   7.923109e+01 1.323714e+01 4.000000e-01
    endloop
  endfacet
  facet normal 0.000000e+00 0.000000e+00 1.000000e+00
    outer loop
      vertex   7.923109e+01 1.323714e+01 4.000000e-01
      vertex   7.922300e+01 1.330216e+01 4.000000e-01
      vertex   7.884536e+01 1.375532e+01 4.000000e-01
    endloop
  endfacet
  facet normal 0.000000e+00 0.000000e+00 1.000000e+00
    outer loop
      vertex   7.884536e+01 1.375532e+01 4.000000e-01
      vertex   7.922300e+01 1.330216e+01 4.000000e-01
      vertex   7.920992e+01 1.336605e+01 4.000000e-01
    endloop
  endfacet
  facet normal 0.000000e+00 0.000000e+00 1.000000e+00
    outer loop
      vertex   7.884536e+01 1.375532e+01 4.000000e-01
      vertex   7.920992e+01 1.336605e+01 4.000000e-01
      vertex   7.919174e+01 1.342838e+01 4.000000e-01
    endloop
  endfacet
  facet normal 0.000000e+00 0.000000e+00 1.000000e+00
    outer loop
      vertex   7.919174e+01 1.342838e+01 4.000000e-01
      vertex   7.916834e+01 1.348874e+01 4.000000e-01
      vertex   7.884536e+01 1.375532e+01 4.000000e-01
    endloop
  endfacet
  facet normal 0.000000e+00 0.000000e+00 1.000000e+00
    outer loop
      vertex   7.884536e+01 1.375532e+01 4.000000e-01
      vertex   7.916834e+01 1.348874e+01 4.000000e-01
      vertex   7.913960e+01 1.354669e+01 4.000000e-01
    endloop
  endfacet
  facet normal 0.000000e+00 0.000000e+00 1.000000e+00
    outer loop
      vertex   7.884536e+01 1.375532e+01 4.000000e-01
      vertex   7.913960e+01 1.354669e+01 4.000000e-01
      vertex   7.910542e+01 1.360181e+01 4.000000e-01
    endloop
  endfacet
  facet normal 0.000000e+00 0.000000e+00 1.000000e+00
    outer loop
      vertex   7.910542e+01 1.360181e+01 4.000000e-01
      vertex   7.906568e+01 1.365368e+01 4.000000e-01
      vertex   7.884536e+01 1.375532e+01 4.000000e-01
    endloop
  endfacet
  facet normal 0.000000e+00 0.000000e+00 1.000000e+00
    outer loop
      vertex   7.884536e+01 1.375532e+01 4.000000e-01
      vertex   7.906568e+01 1.365368e+01 4.000000e-01
      vertex   7.902027e+01 1.370188e+01 4.000000e-01
    endloop
  endfacet
  facet normal -0.000000e+00 0.000000e+00 1.000000e+00
    outer loop
      vertex   7.848223e+01 1.377930e+01 4.000000e-01
      vertex   7.839718e+01 1.375653e+01 4.000000e-01
      vertex   7.860122e+01 1.378903e+01 4.000000e-01
    endloop
  endfacet
  facet normal 0.000000e+00 0.000000e+00 1.000000e+00
    outer loop
      vertex   7.860122e+01 1.378903e+01 4.000000e-01
      vertex   7.839718e+01 1.375653e+01 4.000000e-01
      vertex   7.834327e+01 1.373289e+01 4.000000e-01
    endloop
  endfacet
  facet normal 0.000000e+00 0.000000e+00 1.000000e+00
    outer loop
      vertex   7.860122e+01 1.378903e+01 4.000000e-01
      vertex   7.834327e+01 1.373289e+01 4.000000e-01
      vertex   7.829212e+01 1.370180e+01 4.000000e-01
    endloop
  endfacet
  facet normal -0.000000e+00 0.000000e+00 1.000000e+00
    outer loop
      vertex   7.829212e+01 1.370180e+01 4.000000e-01
      vertex   7.824414e+01 1.366269e+01 4.000000e-01
      vertex   7.860122e+01 1.378903e+01 4.000000e-01
    endloop
  endfacet
  facet normal 0.000000e+00 0.000000e+00 1.000000e+00
    outer loop
      vertex   7.860122e+01 1.378903e+01 4.000000e-01
      vertex   7.824414e+01 1.366269e+01 4.000000e-01
      vertex   7.819977e+01 1.361495e+01 4.000000e-01
    endloop
  endfacet
  facet normal 3.093453e-01 -9.509498e-01 0.000000e+00
    outer loop
      vertex   7.877546e+01 1.238970e+01 4.000000e-01
      vertex   7.871625e+01 1.237044e+01 4.000000e-01
      vertex   7.877546e+01 1.238970e+01 0.000000e+00
    endloop
  endfacet
  facet normal 3.093453e-01 -9.509498e-01 0.000000e+00
    outer loop
      vertex   7.877546e+01 1.238970e+01 0.000000e+00
      vertex   7.871625e+01 1.237044e+01 4.000000e-01
      vertex   7.871625e+01 1.237044e+01 0.000000e+00
    endloop
  endfacet
  facet normal 2.009662e-01 -9.795982e-01 0.000000e+00
    outer loop
      vertex   7.871625e+01 1.237044e+01 4.000000e-01
      vertex   7.865412e+01 1.235770e+01 4.000000e-01
      vertex   7.871625e+01 1.237044e+01 0.000000e+00
    endloop
  endfacet
  facet normal 2.009662e-01 -9.795982e-01 0.000000e+00
    outer loop
      vertex   7.871625e+01 1.237044e+01 0.000000e+00
      vertex   7.865412e+01 1.235770e+01 4.000000e-01
      vertex   7.865412e+01 1.235770e+01 0.000000e+00
    endloop
  endfacet
  facet normal 8.909293e-02 -9.960233e-01 0.000000e+00
    outer loop
      vertex   7.865412e+01 1.235770e+01 4.000000e-01
      vertex   7.858917e+01 1.235189e+01 4.000000e-01
      vertex   7.865412e+01 1.235770e+01 0.000000e+00
    endloop
  endfacet
  facet normal 8.909293e-02 -9.960233e-01 0.000000e+00
    outer loop
      vertex   7.865412e+01 1.235770e+01 0.000000e+00
      vertex   7.858917e+01 1.235189e+01 4.000000e-01
      vertex   7.858917e+01 1.235189e+01 0.000000e+00
    endloop
  endfacet
  facet normal -2.294386e-02 -9.997368e-01 -0.000000e+00
    outer loop
      vertex   7.858917e+01 1.235189e+01 4.000000e-01
      vertex   7.852152e+01 1.235344e+01 4.000000e-01
      vertex   7.858917e+01 1.235189e+01 0.000000e+00
    endloop
  endfacet
  facet normal -2.294386e-02 -9.997368e-01 0.000000e+00
    outer loop
      vertex   7.858917e+01 1.235189e+01 0.000000e+00
      vertex   7.852152e+01 1.235344e+01 4.000000e-01
      vertex   7.852152e+01 1.235344e+01 0.000000e+00
    endloop
  endfacet
  facet normal -1.318143e-01 -9.912744e-01 -0.000000e+00
    outer loop
      vertex   7.852152e+01 1.235344e+01 4.000000e-01
      vertex   7.845129e+01 1.236278e+01 4.000000e-01
      vertex   7.852152e+01 1.235344e+01 0.000000e+00
    endloop
  endfacet
  facet normal -1.318143e-01 -9.912744e-01 0.000000e+00
    outer loop
      vertex   7.852152e+01 1.235344e+01 0.000000e+00
      vertex   7.845129e+01 1.236278e+01 4.000000e-01
      vertex   7.845129e+01 1.236278e+01 0.000000e+00
    endloop
  endfacet
  facet normal -1.625888e-01 -9.866939e-01 -0.000000e+00
    outer loop
      vertex   7.845129e+01 1.236278e+01 4.000000e-01
      vertex   7.839177e+01 1.237259e+01 4.000000e-01
      vertex   7.845129e+01 1.236278e+01 0.000000e+00
    endloop
  endfacet
  facet normal -1.625888e-01 -9.866939e-01 0.000000e+00
    outer loop
      vertex   7.845129e+01 1.236278e+01 0.000000e+00
      vertex   7.839177e+01 1.237259e+01 4.000000e-01
      vertex   7.839177e+01 1.237259e+01 0.000000e+00
    endloop
  endfacet
  facet normal -2.606276e-01 -9.654394e-01 -0.000000e+00
    outer loop
      vertex   7.839177e+01 1.237259e+01 4.000000e-01
      vertex   7.833618e+01 1.238759e+01 4.000000e-01
      vertex   7.839177e+01 1.237259e+01 0.000000e+00
    endloop
  endfacet
  facet normal -2.606276e-01 -9.654394e-01 0.000000e+00
    outer loop
      vertex   7.839177e+01 1.237259e+01 0.000000e+00
      vertex   7.833618e+01 1.238759e+01 4.000000e-01
      vertex   7.833618e+01 1.238759e+01 0.000000e+00
    endloop
  endfacet
  facet normal -3.591285e-01 -9.332881e-01 -0.000000e+00
    outer loop
      vertex   7.833618e+01 1.238759e+01 4.000000e-01
      vertex   7.828447e+01 1.240749e+01 4.000000e-01
      vertex   7.833618e+01 1.238759e+01 0.000000e+00
    endloop
  endfacet
  facet normal -3.591285e-01 -9.332881e-01 0.000000e+00
    outer loop
      vertex   7.833618e+01 1.238759e+01 0.000000e+00
      vertex   7.828447e+01 1.240749e+01 4.000000e-01
      vertex   7.828447e+01 1.240749e+01 0.000000e+00
    endloop
  endfacet
  facet normal -4.553372e-01 -8.903191e-01 -0.000000e+00
    outer loop
      vertex   7.828447e+01 1.240749e+01 4.000000e-01
      vertex   7.823662e+01 1.243196e+01 4.000000e-01
      vertex   7.828447e+01 1.240749e+01 0.000000e+00
    endloop
  endfacet
  facet normal -4.553372e-01 -8.903191e-01 0.000000e+00
    outer loop
      vertex   7.828447e+01 1.240749e+01 0.000000e+00
      vertex   7.823662e+01 1.243196e+01 4.000000e-01
      vertex   7.823662e+01 1.243196e+01 0.000000e+00
    endloop
  endfacet
  facet normal -5.465626e-01 -8.374182e-01 -0.000000e+00
    outer loop
      vertex   7.823662e+01 1.243196e+01 4.000000e-01
      vertex   7.819259e+01 1.246070e+01 4.000000e-01
      vertex   7.823662e+01 1.243196e+01 0.000000e+00
    endloop
  endfacet
  facet normal -5.465626e-01 -8.374182e-01 0.000000e+00
    outer loop
      vertex   7.823662e+01 1.243196e+01 0.000000e+00
      vertex   7.819259e+01 1.246070e+01 4.000000e-01
      vertex   7.819259e+01 1.246070e+01 0.000000e+00
    endloop
  endfacet
  facet normal -6.305274e-01 -7.761670e-01 -0.000000e+00
    outer loop
      vertex   7.819259e+01 1.246070e+01 4.000000e-01
      vertex   7.815236e+01 1.249338e+01 4.000000e-01
      vertex   7.819259e+01 1.246070e+01 0.000000e+00
    endloop
  endfacet
  facet normal -6.305274e-01 -7.761670e-01 0.000000e+00
    outer loop
      vertex   7.819259e+01 1.246070e+01 0.000000e+00
      vertex   7.815236e+01 1.249338e+01 4.000000e-01
      vertex   7.815236e+01 1.249338e+01 0.000000e+00
    endloop
  endfacet
  facet normal -7.056227e-01 -7.085878e-01 -0.000000e+00
    outer loop
      vertex   7.815236e+01 1.249338e+01 4.000000e-01
      vertex   7.811589e+01 1.252970e+01 4.000000e-01
      vertex   7.815236e+01 1.249338e+01 0.000000e+00
    endloop
  endfacet
  facet normal -7.056227e-01 -7.085878e-01 0.000000e+00
    outer loop
      vertex   7.815236e+01 1.249338e+01 0.000000e+00
      vertex   7.811589e+01 1.252970e+01 4.000000e-01
      vertex   7.811589e+01 1.252970e+01 0.000000e+00
    endloop
  endfacet
  facet normal -7.710040e-01 -6.368303e-01 -0.000000e+00
    outer loop
      vertex   7.811589e+01 1.252970e+01 4.000000e-01
      vertex   7.808315e+01 1.256934e+01 4.000000e-01
      vertex   7.811589e+01 1.252970e+01 0.000000e+00
    endloop
  endfacet
  facet normal -7.710040e-01 -6.368303e-01 0.000000e+00
    outer loop
      vertex   7.811589e+01 1.252970e+01 0.000000e+00
      vertex   7.808315e+01 1.256934e+01 4.000000e-01
      vertex   7.808315e+01 1.256934e+01 0.000000e+00
    endloop
  endfacet
  facet normal -8.265311e-01 -5.628910e-01 -0.000000e+00
    outer loop
      vertex   7.808315e+01 1.256934e+01 4.000000e-01
      vertex   7.805410e+01 1.261199e+01 4.000000e-01
      vertex   7.808315e+01 1.256934e+01 0.000000e+00
    endloop
  endfacet
  facet normal -8.265311e-01 -5.628910e-01 0.000000e+00
    outer loop
      vertex   7.808315e+01 1.256934e+01 0.000000e+00
      vertex   7.805410e+01 1.261199e+01 4.000000e-01
      vertex   7.805410e+01 1.261199e+01 0.000000e+00
    endloop
  endfacet
  facet normal -8.726055e-01 -4.884258e-01 -0.000000e+00
    outer loop
      vertex   7.805410e+01 1.261199e+01 4.000000e-01
      vertex   7.802872e+01 1.265734e+01 4.000000e-01
      vertex   7.805410e+01 1.261199e+01 0.000000e+00
    endloop
  endfacet
  facet normal -8.726055e-01 -4.884258e-01 0.000000e+00
    outer loop
      vertex   7.805410e+01 1.261199e+01 0.000000e+00
      vertex   7.802872e+01 1.265734e+01 4.000000e-01
      vertex   7.802872e+01 1.265734e+01 0.000000e+00
    endloop
  endfacet
  facet normal -9.099727e-01 -4.146682e-01 -0.000000e+00
    outer loop
      vertex   7.802872e+01 1.265734e+01 4.000000e-01
      vertex   7.800697e+01 1.270507e+01 4.000000e-01
      vertex   7.802872e+01 1.265734e+01 0.000000e+00
    endloop
  endfacet
  facet normal -9.099727e-01 -4.146682e-01 0.000000e+00
    outer loop
      vertex   7.802872e+01 1.265734e+01 0.000000e+00
      vertex   7.800697e+01 1.270507e+01 4.000000e-01
      vertex   7.800697e+01 1.270507e+01 0.000000e+00
    endloop
  endfacet
  facet normal -9.395417e-01 -3.424346e-01 -0.000000e+00
    outer loop
      vertex   7.800697e+01 1.270507e+01 4.000000e-01
      vertex   7.798882e+01 1.275487e+01 4.000000e-01
      vertex   7.800697e+01 1.270507e+01 0.000000e+00
    endloop
  endfacet
  facet normal -9.395417e-01 -3.424346e-01 0.000000e+00
    outer loop
      vertex   7.800697e+01 1.270507e+01 0.000000e+00
      vertex   7.798882e+01 1.275487e+01 4.000000e-01
      vertex   7.798882e+01 1.275487e+01 0.000000e+00
    endloop
  endfacet
  facet normal -9.622468e-01 -2.721783e-01 -0.000000e+00
    outer loop
      vertex   7.798882e+01 1.275487e+01 4.000000e-01
      vertex   7.797423e+01 1.280643e+01 4.000000e-01
      vertex   7.798882e+01 1.275487e+01 0.000000e+00
    endloop
  endfacet
  facet normal -9.622468e-01 -2.721783e-01 0.000000e+00
    outer loop
      vertex   7.798882e+01 1.275487e+01 0.000000e+00
      vertex   7.797423e+01 1.280643e+01 4.000000e-01
      vertex   7.797423e+01 1.280643e+01 0.000000e+00
    endloop
  endfacet
  facet normal -9.789571e-01 -2.040663e-01 -0.000000e+00
    outer loop
      vertex   7.797423e+01 1.280643e+01 4.000000e-01
      vertex   7.796318e+01 1.285944e+01 4.000000e-01
      vertex   7.797423e+01 1.280643e+01 0.000000e+00
    endloop
  endfacet
  facet normal -9.789571e-01 -2.040663e-01 0.000000e+00
    outer loop
      vertex   7.797423e+01 1.280643e+01 0.000000e+00
      vertex   7.796318e+01 1.285944e+01 4.000000e-01
      vertex   7.796318e+01 1.285944e+01 0.000000e+00
    endloop
  endfacet
  facet normal -9.904247e-01 -1.380544e-01 -0.000000e+00
    outer loop
      vertex   7.796318e+01 1.285944e+01 4.000000e-01
      vertex   7.795564e+01 1.291357e+01 4.000000e-01
      vertex   7.796318e+01 1.285944e+01 0.000000e+00
    endloop
  endfacet
  facet normal -9.904247e-01 -1.380544e-01 0.000000e+00
    outer loop
      vertex   7.796318e+01 1.285944e+01 0.000000e+00
      vertex   7.795564e+01 1.291357e+01 4.000000e-01
      vertex   7.795564e+01 1.291357e+01 0.000000e+00
    endloop
  endfacet
  facet normal -9.972617e-01 -7.395273e-02 -0.000000e+00
    outer loop
      vertex   7.795564e+01 1.291357e+01 4.000000e-01
      vertex   7.795156e+01 1.296853e+01 4.000000e-01
      vertex   7.795564e+01 1.291357e+01 0.000000e+00
    endloop
  endfacet
  facet normal -9.972617e-01 -7.395273e-02 0.000000e+00
    outer loop
      vertex   7.795564e+01 1.291357e+01 0.000000e+00
      vertex   7.795156e+01 1.296853e+01 4.000000e-01
      vertex   7.795156e+01 1.296853e+01 0.000000e+00
    endloop
  endfacet
  facet normal -9.999341e-01 -1.147789e-02 -0.000000e+00
    outer loop
      vertex   7.795156e+01 1.296853e+01 4.000000e-01
      vertex   7.795093e+01 1.302399e+01 4.000000e-01
      vertex   7.795156e+01 1.296853e+01 0.000000e+00
    endloop
  endfacet
  facet normal -9.999341e-01 -1.147789e-02 0.000000e+00
    outer loop
      vertex   7.795156e+01 1.296853e+01 0.000000e+00
      vertex   7.795093e+01 1.302399e+01 4.000000e-01
      vertex   7.795093e+01 1.302399e+01 0.000000e+00
    endloop
  endfacet
  facet normal -9.987638e-01 4.970820e-02 0.000000e+00
    outer loop
      vertex   7.795093e+01 1.302399e+01 4.000000e-01
      vertex   7.795369e+01 1.307964e+01 4.000000e-01
      vertex   7.795093e+01 1.302399e+01 0.000000e+00
    endloop
  endfacet
  facet normal -9.987638e-01 4.970820e-02 0.000000e+00
    outer loop
      vertex   7.795093e+01 1.302399e+01 0.000000e+00
      vertex   7.795369e+01 1.307964e+01 4.000000e-01
      vertex   7.795369e+01 1.307964e+01 0.000000e+00
    endloop
  endfacet
  facet normal -9.939350e-01 1.099691e-01 0.000000e+00
    outer loop
      vertex   7.795369e+01 1.307964e+01 4.000000e-01
      vertex   7.795984e+01 1.313517e+01 4.000000e-01
      vertex   7.795369e+01 1.307964e+01 0.000000e+00
    endloop
  endfacet
  facet normal -9.939350e-01 1.099691e-01 0.000000e+00
    outer loop
      vertex   7.795369e+01 1.307964e+01 0.000000e+00
      vertex   7.795984e+01 1.313517e+01 4.000000e-01
      vertex   7.795984e+01 1.313517e+01 0.000000e+00
    endloop
  endfacet
  facet normal -9.855007e-01 1.696713e-01 0.000000e+00
    outer loop
      vertex   7.795984e+01 1.313517e+01 4.000000e-01
      vertex   7.796932e+01 1.319027e+01 4.000000e-01
      vertex   7.795984e+01 1.313517e+01 0.000000e+00
    endloop
  endfacet
  facet normal -9.855007e-01 1.696713e-01 0.000000e+00
    outer loop
      vertex   7.795984e+01 1.313517e+01 0.000000e+00
      vertex   7.796932e+01 1.319027e+01 4.000000e-01
      vertex   7.796932e+01 1.319027e+01 0.000000e+00
    endloop
  endfacet
  facet normal -9.733874e-01 2.291657e-01 0.000000e+00
    outer loop
      vertex   7.796932e+01 1.319027e+01 4.000000e-01
      vertex   7.798212e+01 1.324462e+01 4.000000e-01
      vertex   7.796932e+01 1.319027e+01 0.000000e+00
    endloop
  endfacet
  facet normal -9.733874e-01 2.291657e-01 0.000000e+00
    outer loop
      vertex   7.796932e+01 1.319027e+01 0.000000e+00
      vertex   7.798212e+01 1.324462e+01 4.000000e-01
      vertex   7.798212e+01 1.324462e+01 0.000000e+00
    endloop
  endfacet
  facet normal -9.573987e-01 2.887694e-01 0.000000e+00
    outer loop
      vertex   7.798212e+01 1.324462e+01 4.000000e-01
      vertex   7.799819e+01 1.329790e+01 4.000000e-01
      vertex   7.798212e+01 1.324462e+01 0.000000e+00
    endloop
  endfacet
  facet normal -9.573987e-01 2.887694e-01 0.000000e+00
    outer loop
      vertex   7.798212e+01 1.324462e+01 0.000000e+00
      vertex   7.799819e+01 1.329790e+01 4.000000e-01
      vertex   7.799819e+01 1.329790e+01 0.000000e+00
    endloop
  endfacet
  facet normal -9.372176e-01 3.487452e-01 0.000000e+00
    outer loop
      vertex   7.799819e+01 1.329790e+01 4.000000e-01
      vertex   7.801751e+01 1.334982e+01 4.000000e-01
      vertex   7.799819e+01 1.329790e+01 0.000000e+00
    endloop
  endfacet
  facet normal -9.372176e-01 3.487452e-01 0.000000e+00
    outer loop
      vertex   7.799819e+01 1.329790e+01 0.000000e+00
      vertex   7.801751e+01 1.334982e+01 4.000000e-01
      vertex   7.801751e+01 1.334982e+01 0.000000e+00
    endloop
  endfacet
  facet normal -9.124103e-01 4.092767e-01 0.000000e+00
    outer loop
      vertex   7.801751e+01 1.334982e+01 4.000000e-01
      vertex   7.804004e+01 1.340005e+01 4.000000e-01
      vertex   7.801751e+01 1.334982e+01 0.000000e+00
    endloop
  endfacet
  facet normal -9.124103e-01 4.092767e-01 0.000000e+00
    outer loop
      vertex   7.801751e+01 1.334982e+01 0.000000e+00
      vertex   7.804004e+01 1.340005e+01 4.000000e-01
      vertex   7.804004e+01 1.340005e+01 0.000000e+00
    endloop
  endfacet
  facet normal -8.824339e-01 4.704364e-01 0.000000e+00
    outer loop
      vertex   7.804004e+01 1.340005e+01 4.000000e-01
      vertex   7.806576e+01 1.344828e+01 4.000000e-01
      vertex   7.804004e+01 1.340005e+01 0.000000e+00
    endloop
  endfacet
  facet normal -8.824339e-01 4.704364e-01 0.000000e+00
    outer loop
      vertex   7.804004e+01 1.340005e+01 0.000000e+00
      vertex   7.806576e+01 1.344828e+01 4.000000e-01
      vertex   7.806576e+01 1.344828e+01 0.000000e+00
    endloop
  endfacet
  facet normal -8.466522e-01 5.321466e-01 0.000000e+00
    outer loop
      vertex   7.806576e+01 1.344828e+01 4.000000e-01
      vertex   7.809462e+01 1.349420e+01 4.000000e-01
      vertex   7.806576e+01 1.344828e+01 0.000000e+00
    endloop
  endfacet
  facet normal -8.466522e-01 5.321466e-01 0.000000e+00
    outer loop
      vertex   7.806576e+01 1.344828e+01 0.000000e+00
      vertex   7.809462e+01 1.349420e+01 4.000000e-01
      vertex   7.809462e+01 1.349420e+01 0.000000e+00
    endloop
  endfacet
  facet normal -8.043677e-01 5.941319e-01 0.000000e+00
    outer loop
      vertex   7.809462e+01 1.349420e+01 4.000000e-01
      vertex   7.812659e+01 1.353749e+01 4.000000e-01
      vertex   7.809462e+01 1.349420e+01 0.000000e+00
    endloop
  endfacet
  facet normal -8.043677e-01 5.941319e-01 0.000000e+00
    outer loop
      vertex   7.809462e+01 1.349420e+01 0.000000e+00
      vertex   7.812659e+01 1.353749e+01 4.000000e-01
      vertex   7.812659e+01 1.353749e+01 0.000000e+00
    endloop
  endfacet
  facet normal -7.548741e-01 6.558697e-01 0.000000e+00
    outer loop
      vertex   7.812659e+01 1.353749e+01 4.000000e-01
      vertex   7.816166e+01 1.357785e+01 4.000000e-01
      vertex   7.812659e+01 1.353749e+01 0.000000e+00
    endloop
  endfacet
  facet normal -7.548741e-01 6.558697e-01 0.000000e+00
    outer loop
      vertex   7.812659e+01 1.353749e+01 0.000000e+00
      vertex   7.816166e+01 1.357785e+01 4.000000e-01
      vertex   7.816166e+01 1.357785e+01 0.000000e+00
    endloop
  endfacet
  facet normal -6.975396e-01 7.165462e-01 0.000000e+00
    outer loop
      vertex   7.816166e+01 1.357785e+01 4.000000e-01
      vertex   7.819977e+01 1.361495e+01 4.000000e-01
      vertex   7.816166e+01 1.357785e+01 0.000000e+00
    endloop
  endfacet
  facet normal -6.975396e-01 7.165462e-01 0.000000e+00
    outer loop
      vertex   7.816166e+01 1.357785e+01 0.000000e+00
      vertex   7.819977e+01 1.361495e+01 4.000000e-01
      vertex   7.819977e+01 1.361495e+01 0.000000e+00
    endloop
  endfacet
  facet normal -7.324522e-01 6.808184e-01 0.000000e+00
    outer loop
      vertex   7.819977e+01 1.361495e+01 4.000000e-01
      vertex   7.824414e+01 1.366269e+01 4.000000e-01
      vertex   7.819977e+01 1.361495e+01 0.000000e+00
    endloop
  endfacet
  facet normal -7.324522e-01 6.808184e-01 0.000000e+00
    outer loop
      vertex   7.819977e+01 1.361495e+01 0.000000e+00
      vertex   7.824414e+01 1.366269e+01 4.000000e-01
      vertex   7.824414e+01 1.366269e+01 0.000000e+00
    endloop
  endfacet
  facet normal -6.319134e-01 7.750390e-01 0.000000e+00
    outer loop
      vertex   7.824414e+01 1.366269e+01 4.000000e-01
      vertex   7.829212e+01 1.370180e+01 4.000000e-01
      vertex   7.824414e+01 1.366269e+01 0.000000e+00
    endloop
  endfacet
  facet normal -6.319134e-01 7.750390e-01 0.000000e+00
    outer loop
      vertex   7.824414e+01 1.366269e+01 0.000000e+00
      vertex   7.829212e+01 1.370180e+01 4.000000e-01
      vertex   7.829212e+01 1.370180e+01 0.000000e+00
    endloop
  endfacet
  facet normal -5.193119e-01 8.545848e-01 0.000000e+00
    outer loop
      vertex   7.829212e+01 1.370180e+01 4.000000e-01
      vertex   7.834327e+01 1.373289e+01 4.000000e-01
      vertex   7.829212e+01 1.370180e+01 0.000000e+00
    endloop
  endfacet
  facet normal -5.193119e-01 8.545848e-01 0.000000e+00
    outer loop
      vertex   7.829212e+01 1.370180e+01 0.000000e+00
      vertex   7.834327e+01 1.373289e+01 4.000000e-01
      vertex   7.834327e+01 1.373289e+01 0.000000e+00
    endloop
  endfacet
  facet normal -4.016186e-01 9.158070e-01 0.000000e+00
    outer loop
      vertex   7.834327e+01 1.373289e+01 4.000000e-01
      vertex   7.839718e+01 1.375653e+01 4.000000e-01
      vertex   7.834327e+01 1.373289e+01 0.000000e+00
    endloop
  endfacet
  facet normal -4.016186e-01 9.158070e-01 0.000000e+00
    outer loop
      vertex   7.834327e+01 1.373289e+01 0.000000e+00
      vertex   7.839718e+01 1.375653e+01 4.000000e-01
      vertex   7.839718e+01 1.375653e+01 0.000000e+00
    endloop
  endfacet
  facet normal -2.585834e-01 9.659889e-01 0.000000e+00
    outer loop
      vertex   7.839718e+01 1.375653e+01 4.000000e-01
      vertex   7.848223e+01 1.377930e+01 4.000000e-01
      vertex   7.839718e+01 1.375653e+01 0.000000e+00
    endloop
  endfacet
  facet normal -2.585834e-01 9.659889e-01 0.000000e+00
    outer loop
      vertex   7.839718e+01 1.375653e+01 0.000000e+00
      vertex   7.848223e+01 1.377930e+01 4.000000e-01
      vertex   7.848223e+01 1.377930e+01 0.000000e+00
    endloop
  endfacet
  facet normal -8.155790e-02 9.966686e-01 0.000000e+00
    outer loop
      vertex   7.848223e+01 1.377930e+01 4.000000e-01
      vertex   7.860122e+01 1.378903e+01 4.000000e-01
      vertex   7.848223e+01 1.377930e+01 0.000000e+00
    endloop
  endfacet
  facet normal -8.155790e-02 9.966686e-01 0.000000e+00
    outer loop
      vertex   7.848223e+01 1.377930e+01 0.000000e+00
      vertex   7.860122e+01 1.378903e+01 4.000000e-01
      vertex   7.860122e+01 1.378903e+01 0.000000e+00
    endloop
  endfacet
  facet normal 1.368026e-01 9.905983e-01 0.000000e+00
    outer loop
      vertex   7.860122e+01 1.378903e+01 4.000000e-01
      vertex   7.884536e+01 1.375532e+01 4.000000e-01
      vertex   7.860122e+01 1.378903e+01 0.000000e+00
    endloop
  endfacet
  facet normal 1.368026e-01 9.905983e-01 0.000000e+00
    outer loop
      vertex   7.860122e+01 1.378903e+01 0.000000e+00
      vertex   7.884536e+01 1.375532e+01 4.000000e-01
      vertex   7.884536e+01 1.375532e+01 0.000000e+00
    endloop
  endfacet
  facet normal 2.922158e-01 9.563524e-01 0.000000e+00
    outer loop
      vertex   7.884536e+01 1.375532e+01 4.000000e-01
      vertex   7.902027e+01 1.370188e+01 4.000000e-01
      vertex   7.884536e+01 1.375532e+01 0.000000e+00
    endloop
  endfacet
  facet normal 2.922158e-01 9.563524e-01 0.000000e+00
    outer loop
      vertex   7.884536e+01 1.375532e+01 0.000000e+00
      vertex   7.902027e+01 1.370188e+01 4.000000e-01
      vertex   7.902027e+01 1.370188e+01 0.000000e+00
    endloop
  endfacet
  facet normal 7.277646e-01 6.858271e-01 0.000000e+00
    outer loop
      vertex   7.902027e+01 1.370188e+01 4.000000e-01
      vertex   7.906568e+01 1.365368e+01 4.000000e-01
      vertex   7.902027e+01 1.370188e+01 0.000000e+00
    endloop
  endfacet
  facet normal 7.277646e-01 6.858271e-01 0.000000e+00
    outer loop
      vertex   7.902027e+01 1.370188e+01 0.000000e+00
      vertex   7.906568e+01 1.365368e+01 4.000000e-01
      vertex   7.906568e+01 1.365368e+01 0.000000e+00
    endloop
  endfacet
  facet normal 7.938045e-01 6.081730e-01 0.000000e+00
    outer loop
      vertex   7.906568e+01 1.365368e+01 4.000000e-01
      vertex   7.910542e+01 1.360181e+01 4.000000e-01
      vertex   7.906568e+01 1.365368e+01 0.000000e+00
    endloop
  endfacet
  facet normal 7.938045e-01 6.081730e-01 0.000000e+00
    outer loop
      vertex   7.906568e+01 1.365368e+01 0.000000e+00
      vertex   7.910542e+01 1.360181e+01 4.000000e-01
      vertex   7.910542e+01 1.360181e+01 0.000000e+00
    endloop
  endfacet
  facet normal 8.498816e-01 5.269737e-01 0.000000e+00
    outer loop
      vertex   7.910542e+01 1.360181e+01 4.000000e-01
      vertex   7.913960e+01 1.354669e+01 4.000000e-01
      vertex   7.910542e+01 1.360181e+01 0.000000e+00
    endloop
  endfacet
  facet normal 8.498816e-01 5.269737e-01 0.000000e+00
    outer loop
      vertex   7.910542e+01 1.360181e+01 0.000000e+00
      vertex   7.913960e+01 1.354669e+01 4.000000e-01
      vertex   7.913960e+01 1.354669e+01 0.000000e+00
    endloop
  endfacet
  facet normal 8.959244e-01 4.442066e-01 0.000000e+00
    outer loop
      vertex   7.913960e+01 1.354669e+01 4.000000e-01
      vertex   7.916834e+01 1.348874e+01 4.000000e-01
      vertex   7.913960e+01 1.354669e+01 0.000000e+00
    endloop
  endfacet
  facet normal 8.959244e-01 4.442066e-01 0.000000e+00
    outer loop
      vertex   7.913960e+01 1.354669e+01 0.000000e+00
      vertex   7.916834e+01 1.348874e+01 4.000000e-01
      vertex   7.916834e+01 1.348874e+01 0.000000e+00
    endloop
  endfacet
  facet normal 9.323740e-01 3.614950e-01 0.000000e+00
    outer loop
      vertex   7.916834e+01 1.348874e+01 4.000000e-01
      vertex   7.919174e+01 1.342838e+01 4.000000e-01
      vertex   7.916834e+01 1.348874e+01 0.000000e+00
    endloop
  endfacet
  facet normal 9.323740e-01 3.614950e-01 0.000000e+00
    outer loop
      vertex   7.916834e+01 1.348874e+01 0.000000e+00
      vertex   7.919174e+01 1.342838e+01 4.000000e-01
      vertex   7.919174e+01 1.342838e+01 0.000000e+00
    endloop
  endfacet
  facet normal 9.599920e-01 2.800273e-01 0.000000e+00
    outer loop
      vertex   7.919174e+01 1.342838e+01 4.000000e-01
      vertex   7.920992e+01 1.336605e+01 4.000000e-01
      vertex   7.919174e+01 1.342838e+01 0.000000e+00
    endloop
  endfacet
  facet normal 9.599920e-01 2.800273e-01 0.000000e+00
    outer loop
      vertex   7.919174e+01 1.342838e+01 0.000000e+00
      vertex   7.920992e+01 1.336605e+01 4.000000e-01
      vertex   7.920992e+01 1.336605e+01 0.000000e+00
    endloop
  endfacet
  facet normal 9.796812e-01 2.005609e-01 0.000000e+00
    outer loop
      vertex   7.920992e+01 1.336605e+01 4.000000e-01
      vertex   7.922300e+01 1.330216e+01 4.000000e-01
      vertex   7.920992e+01 1.336605e+01 0.000000e+00
    endloop
  endfacet
  facet normal 9.796812e-01 2.005609e-01 0.000000e+00
    outer loop
      vertex   7.920992e+01 1.336605e+01 0.000000e+00
      vertex   7.922300e+01 1.330216e+01 4.000000e-01
      vertex   7.922300e+01 1.330216e+01 0.000000e+00
    endloop
  endfacet
  facet normal 9.923472e-01 1.234793e-01 0.000000e+00
    outer loop
      vertex   7.922300e+01 1.330216e+01 4.000000e-01
      vertex   7.923109e+01 1.323714e+01 4.000000e-01
      vertex   7.922300e+01 1.330216e+01 0.000000e+00
    endloop
  endfacet
  facet normal 9.923472e-01 1.234793e-01 0.000000e+00
    outer loop
      vertex   7.922300e+01 1.330216e+01 0.000000e+00
      vertex   7.923109e+01 1.323714e+01 4.000000e-01
      vertex   7.923109e+01 1.323714e+01 0.000000e+00
    endloop
  endfacet
  facet normal 9.988051e-01 4.887096e-02 0.000000e+00
    outer loop
      vertex   7.923109e+01 1.323714e+01 4.000000e-01
      vertex   7.923430e+01 1.317142e+01 4.000000e-01
      vertex   7.923109e+01 1.323714e+01 0.000000e+00
    endloop
  endfacet
  facet normal 9.988051e-01 4.887096e-02 0.000000e+00
    outer loop
      vertex   7.923109e+01 1.323714e+01 0.000000e+00
      vertex   7.923430e+01 1.317142e+01 4.000000e-01
      vertex   7.923430e+01 1.317142e+01 0.000000e+00
    endloop
  endfacet
  facet normal 9.997264e-01 -2.338974e-02 0.000000e+00
    outer loop
      vertex   7.923430e+01 1.317142e+01 4.000000e-01
      vertex   7.923276e+01 1.310542e+01 4.000000e-01
      vertex   7.923430e+01 1.317142e+01 0.000000e+00
    endloop
  endfacet
  facet normal 9.997264e-01 -2.338974e-02 0.000000e+00
    outer loop
      vertex   7.923430e+01 1.317142e+01 0.000000e+00
      vertex   7.923276e+01 1.310542e+01 4.000000e-01
      vertex   7.923276e+01 1.310542e+01 0.000000e+00
    endloop
  endfacet
  facet normal 9.956125e-01 -9.357221e-02 0.000000e+00
    outer loop
      vertex   7.923276e+01 1.310542e+01 4.000000e-01
      vertex   7.922657e+01 1.303956e+01 4.000000e-01
      vertex   7.923276e+01 1.310542e+01 0.000000e+00
    endloop
  endfacet
  facet normal 9.956125e-01 -9.357221e-02 0.000000e+00
    outer loop
      vertex   7.923276e+01 1.310542e+01 0.000000e+00
      vertex   7.922657e+01 1.303956e+01 4.000000e-01
      vertex   7.922657e+01 1.303956e+01 0.000000e+00
    endloop
  endfacet
  facet normal 9.867856e-01 -1.620316e-01 0.000000e+00
    outer loop
      vertex   7.922657e+01 1.303956e+01 4.000000e-01
      vertex   7.921585e+01 1.297427e+01 4.000000e-01
      vertex   7.922657e+01 1.303956e+01 0.000000e+00
    endloop
  endfacet
  facet normal 9.867856e-01 -1.620316e-01 0.000000e+00
    outer loop
      vertex   7.922657e+01 1.303956e+01 0.000000e+00
      vertex   7.921585e+01 1.297427e+01 4.000000e-01
      vertex   7.921585e+01 1.297427e+01 0.000000e+00
    endloop
  endfacet
  facet normal 9.733881e-01 -2.291628e-01 0.000000e+00
    outer loop
      vertex   7.921585e+01 1.297427e+01 4.000000e-01
      vertex   7.920071e+01 1.290998e+01 4.000000e-01
      vertex   7.921585e+01 1.297427e+01 0.000000e+00
    endloop
  endfacet
  facet normal 9.733881e-01 -2.291628e-01 0.000000e+00
    outer loop
      vertex   7.921585e+01 1.297427e+01 0.000000e+00
      vertex   7.920071e+01 1.290998e+01 4.000000e-01
      vertex   7.920071e+01 1.290998e+01 0.000000e+00
    endloop
  endfacet
  facet normal 9.553854e-01 -2.953620e-01 0.000000e+00
    outer loop
      vertex   7.920071e+01 1.290998e+01 4.000000e-01
      vertex   7.918127e+01 1.284710e+01 4.000000e-01
      vertex   7.920071e+01 1.290998e+01 0.000000e+00
    endloop
  endfacet
  facet normal 9.553854e-01 -2.953620e-01 0.000000e+00
    outer loop
      vertex   7.920071e+01 1.290998e+01 0.000000e+00
      vertex   7.918127e+01 1.284710e+01 4.000000e-01
      vertex   7.918127e+01 1.284710e+01 0.000000e+00
    endloop
  endfacet
  facet normal 9.325687e-01 -3.609925e-01 0.000000e+00
    outer loop
      vertex   7.918127e+01 1.284710e+01 4.000000e-01
      vertex   7.915765e+01 1.278606e+01 4.000000e-01
      vertex   7.918127e+01 1.284710e+01 0.000000e+00
    endloop
  endfacet
  facet normal 9.325687e-01 -3.609925e-01 0.000000e+00
    outer loop
      vertex   7.918127e+01 1.284710e+01 0.000000e+00
      vertex   7.915765e+01 1.278606e+01 4.000000e-01
      vertex   7.915765e+01 1.278606e+01 0.000000e+00
    endloop
  endfacet
  facet normal 9.045589e-01 -4.263488e-01 0.000000e+00
    outer loop
      vertex   7.915765e+01 1.278606e+01 4.000000e-01
      vertex   7.912995e+01 1.272729e+01 4.000000e-01
      vertex   7.915765e+01 1.278606e+01 0.000000e+00
    endloop
  endfacet
  facet normal 9.045589e-01 -4.263488e-01 0.000000e+00
    outer loop
      vertex   7.915765e+01 1.278606e+01 0.000000e+00
      vertex   7.912995e+01 1.272729e+01 4.000000e-01
      vertex   7.912995e+01 1.272729e+01 0.000000e+00
    endloop
  endfacet
  facet normal 8.708125e-01 -4.916153e-01 0.000000e+00
    outer loop
      vertex   7.912995e+01 1.272729e+01 4.000000e-01
      vertex   7.909829e+01 1.267121e+01 4.000000e-01
      vertex   7.912995e+01 1.272729e+01 0.000000e+00
    endloop
  endfacet
  facet normal 8.708125e-01 -4.916153e-01 0.000000e+00
    outer loop
      vertex   7.912995e+01 1.272729e+01 0.000000e+00
      vertex   7.909829e+01 1.267121e+01 4.000000e-01
      vertex   7.909829e+01 1.267121e+01 0.000000e+00
    endloop
  endfacet
  facet normal 8.306361e-01 -5.568157e-01 0.000000e+00
    outer loop
      vertex   7.909829e+01 1.267121e+01 4.000000e-01
      vertex   7.906279e+01 1.261825e+01 4.000000e-01
      vertex   7.909829e+01 1.267121e+01 0.000000e+00
    endloop
  endfacet
  facet normal 8.306361e-01 -5.568157e-01 0.000000e+00
    outer loop
      vertex   7.909829e+01 1.267121e+01 0.000000e+00
      vertex   7.906279e+01 1.261825e+01 4.000000e-01
      vertex   7.906279e+01 1.261825e+01 0.000000e+00
    endloop
  endfacet
  facet normal 7.832155e-01 -6.217504e-01 0.000000e+00
    outer loop
      vertex   7.906279e+01 1.261825e+01 4.000000e-01
      vertex   7.902355e+01 1.256883e+01 4.000000e-01
      vertex   7.906279e+01 1.261825e+01 0.000000e+00
    endloop
  endfacet
  facet normal 7.832155e-01 -6.217504e-01 0.000000e+00
    outer loop
      vertex   7.906279e+01 1.261825e+01 0.000000e+00
      vertex   7.902355e+01 1.256883e+01 4.000000e-01
      vertex   7.902355e+01 1.256883e+01 0.000000e+00
    endloop
  endfacet
  facet normal 7.276728e-01 -6.859244e-01 0.000000e+00
    outer loop
      vertex   7.902355e+01 1.256883e+01 4.000000e-01
      vertex   7.898071e+01 1.252338e+01 4.000000e-01
      vertex   7.902355e+01 1.256883e+01 0.000000e+00
    endloop
  endfacet
  facet normal 7.276728e-01 -6.859244e-01 0.000000e+00
    outer loop
      vertex   7.902355e+01 1.256883e+01 0.000000e+00
      vertex   7.898071e+01 1.252338e+01 4.000000e-01
      vertex   7.898071e+01 1.252338e+01 0.000000e+00
    endloop
  endfacet
  facet normal 6.631637e-01 -7.484744e-01 0.000000e+00
    outer loop
      vertex   7.898071e+01 1.252338e+01 4.000000e-01
      vertex   7.893436e+01 1.248231e+01 4.000000e-01
      vertex   7.898071e+01 1.252338e+01 0.000000e+00
    endloop
  endfacet
  facet normal 6.631637e-01 -7.484744e-01 0.000000e+00
    outer loop
      vertex   7.898071e+01 1.252338e+01 0.000000e+00
      vertex   7.893436e+01 1.248231e+01 4.000000e-01
      vertex   7.893436e+01 1.248231e+01 0.000000e+00
    endloop
  endfacet
  facet normal 5.890264e-01 -8.081138e-01 0.000000e+00
    outer loop
      vertex   7.893436e+01 1.248231e+01 4.000000e-01
      vertex   7.888463e+01 1.244606e+01 4.000000e-01
      vertex   7.893436e+01 1.248231e+01 0.000000e+00
    endloop
  endfacet
  facet normal 5.890264e-01 -8.081138e-01 0.000000e+00
    outer loop
      vertex   7.893436e+01 1.248231e+01 0.000000e+00
      vertex   7.888463e+01 1.244606e+01 4.000000e-01
      vertex   7.888463e+01 1.244606e+01 0.000000e+00
    endloop
  endfacet
  facet normal 5.049832e-01 -8.631292e-01 0.000000e+00
    outer loop
      vertex   7.888463e+01 1.244606e+01 4.000000e-01
      vertex   7.883162e+01 1.241505e+01 4.000000e-01
      vertex   7.888463e+01 1.244606e+01 0.000000e+00
    endloop
  endfacet
  facet normal 5.049832e-01 -8.631292e-01 0.000000e+00
    outer loop
      vertex   7.888463e+01 1.244606e+01 0.000000e+00
      vertex   7.883162e+01 1.241505e+01 4.000000e-01
      vertex   7.883162e+01 1.241505e+01 0.000000e+00
    endloop
  endfacet
  facet normal 4.113713e-01 -9.114679e-01 0.000000e+00
    outer loop
      vertex   7.883162e+01 1.241505e+01 4.000000e-01
      vertex   7.877546e+01 1.238970e+01 4.000000e-01
      vertex   7.883162e+01 1.241505e+01 0.000000e+00
    endloop
  endfacet
  facet normal 4.113713e-01 -9.114679e-01 0.000000e+00
    outer loop
      vertex   7.883162e+01 1.241505e+01 0.000000e+00
      vertex   7.877546e+01 1.238970e+01 4.000000e-01
      vertex   7.877546e+01 1.238970e+01 0.000000e+00
    endloop
  endfacet
  facet normal 0.000000e+00 0.000000e+00 -1.000000e+00
    outer loop
      vertex   7.809462e+01 1.349420e+01 0.000000e+00
      vertex   7.812659e+01 1.353749e+01 0.000000e+00
      vertex   7.912995e+01 1.272729e+01 0.000000e+00
    endloop
  endfacet
  facet normal 0.000000e+00 0.000000e+00 -1.000000e+00
    outer loop
      vertex   7.912995e+01 1.272729e+01 0.000000e+00
      vertex   7.812659e+01 1.353749e+01 0.000000e+00
      vertex   7.816166e+01 1.357785e+01 0.000000e+00
    endloop
  endfacet
  facet normal 0.000000e+00 0.000000e+00 -1.000000e+00
    outer loop
      vertex   7.912995e+01 1.272729e+01 0.000000e+00
      vertex   7.816166e+01 1.357785e+01 0.000000e+00
      vertex   7.819977e+01 1.361495e+01 0.000000e+00
    endloop
  endfacet
  facet normal 0.000000e+00 -0.000000e+00 -1.000000e+00
    outer loop
      vertex   7.824414e+01 1.366269e+01 0.000000e+00
      vertex   7.860122e+01 1.378903e+01 0.000000e+00
      vertex   7.819977e+01 1.361495e+01 0.000000e+00
    endloop
  endfacet
  facet normal 0.000000e+00 0.000000e+00 -1.000000e+00
    outer loop
      vertex   7.819977e+01 1.361495e+01 0.000000e+00
      vertex   7.860122e+01 1.378903e+01 0.000000e+00
      vertex   7.918127e+01 1.284710e+01 0.000000e+00
    endloop
  endfacet
  facet normal 0.000000e+00 0.000000e+00 -1.000000e+00
    outer loop
      vertex   7.819977e+01 1.361495e+01 0.000000e+00
      vertex   7.918127e+01 1.284710e+01 0.000000e+00
      vertex   7.915765e+01 1.278606e+01 0.000000e+00
    endloop
  endfacet
  facet normal 0.000000e+00 0.000000e+00 -1.000000e+00
    outer loop
      vertex   7.824414e+01 1.366269e+01 0.000000e+00
      vertex   7.829212e+01 1.370180e+01 0.000000e+00
      vertex   7.860122e+01 1.378903e+01 0.000000e+00
    endloop
  endfacet
  facet normal 0.000000e+00 0.000000e+00 -1.000000e+00
    outer loop
      vertex   7.860122e+01 1.378903e+01 0.000000e+00
      vertex   7.829212e+01 1.370180e+01 0.000000e+00
      vertex   7.834327e+01 1.373289e+01 0.000000e+00
    endloop
  endfacet
  facet normal 0.000000e+00 0.000000e+00 -1.000000e+00
    outer loop
      vertex   7.860122e+01 1.378903e+01 0.000000e+00
      vertex   7.834327e+01 1.373289e+01 0.000000e+00
      vertex   7.839718e+01 1.375653e+01 0.000000e+00
    endloop
  endfacet
  facet normal 0.000000e+00 0.000000e+00 -1.000000e+00
    outer loop
      vertex   7.839718e+01 1.375653e+01 0.000000e+00
      vertex   7.848223e+01 1.377930e+01 0.000000e+00
      vertex   7.860122e+01 1.378903e+01 0.000000e+00
    endloop
  endfacet
  facet normal -0.000000e+00 -0.000000e+00 -1.000000e+00
    outer loop
      vertex   7.884536e+01 1.375532e+01 0.000000e+00
      vertex   7.923276e+01 1.310542e+01 0.000000e+00
      vertex   7.860122e+01 1.378903e+01 0.000000e+00
    endloop
  endfacet
  facet normal 0.000000e+00 0.000000e+00 -1.000000e+00
    outer loop
      vertex   7.860122e+01 1.378903e+01 0.000000e+00
      vertex   7.923276e+01 1.310542e+01 0.000000e+00
      vertex   7.922657e+01 1.303956e+01 0.000000e+00
    endloop
  endfacet
  facet normal 0.000000e+00 0.000000e+00 -1.000000e+00
    outer loop
      vertex   7.860122e+01 1.378903e+01 0.000000e+00
      vertex   7.922657e+01 1.303956e+01 0.000000e+00
      vertex   7.921585e+01 1.297427e+01 0.000000e+00
    endloop
  endfacet
  facet normal -0.000000e+00 -0.000000e+00 -1.000000e+00
    outer loop
      vertex   7.902027e+01 1.370188e+01 0.000000e+00
      vertex   7.906568e+01 1.365368e+01 0.000000e+00
      vertex   7.884536e+01 1.375532e+01 0.000000e+00
    endloop
  endfacet
  facet normal 0.000000e+00 0.000000e+00 -1.000000e+00
    outer loop
      vertex   7.884536e+01 1.375532e+01 0.000000e+00
      vertex   7.906568e+01 1.365368e+01 0.000000e+00
      vertex   7.910542e+01 1.360181e+01 0.000000e+00
    endloop
  endfacet
  facet normal 0.000000e+00 0.000000e+00 -1.000000e+00
    outer loop
      vertex   7.884536e+01 1.375532e+01 0.000000e+00
      vertex   7.910542e+01 1.360181e+01 0.000000e+00
      vertex   7.913960e+01 1.354669e+01 0.000000e+00
    endloop
  endfacet
  facet normal -0.000000e+00 -0.000000e+00 -1.000000e+00
    outer loop
      vertex   7.913960e+01 1.354669e+01 0.000000e+00
      vertex   7.916834e+01 1.348874e+01 0.000000e+00
      vertex   7.884536e+01 1.375532e+01 0.000000e+00
    endloop
  endfacet
  facet normal 0.000000e+00 0.000000e+00 -1.000000e+00
    outer loop
      vertex   7.884536e+01 1.375532e+01 0.000000e+00
      vertex   7.916834e+01 1.348874e+01 0.000000e+00
      vertex   7.919174e+01 1.342838e+01 0.000000e+00
    endloop
  endfacet
  facet normal 0.000000e+00 0.000000e+00 -1.000000e+00
    outer loop
      vertex   7.884536e+01 1.375532e+01 0.000000e+00
      vertex   7.919174e+01 1.342838e+01 0.000000e+00
      vertex   7.920992e+01 1.336605e+01 0.000000e+00
    endloop
  endfacet
  facet normal -0.000000e+00 -0.000000e+00 -1.000000e+00
    outer loop
      vertex   7.920992e+01 1.336605e+01 0.000000e+00
      vertex   7.922300e+01 1.330216e+01 0.000000e+00
      vertex   7.884536e+01 1.375532e+01 0.000000e+00
    endloop
  endfacet
  facet normal 0.000000e+00 0.000000e+00 -1.000000e+00
    outer loop
      vertex   7.884536e+01 1.375532e+01 0.000000e+00
      vertex   7.922300e+01 1.330216e+01 0.000000e+00
      vertex   7.923109e+01 1.323714e+01 0.000000e+00
    endloop
  endfacet
  facet normal 0.000000e+00 0.000000e+00 -1.000000e+00
    outer loop
      vertex   7.884536e+01 1.375532e+01 0.000000e+00
      vertex   7.923109e+01 1.323714e+01 0.000000e+00
      vertex   7.923430e+01 1.317142e+01 0.000000e+00
    endloop
  endfacet
  facet normal -0.000000e+00 0.000000e+00 -1.000000e+00
    outer loop
      vertex   7.923430e+01 1.317142e+01 0.000000e+00
      vertex   7.923276e+01 1.310542e+01 0.000000e+00
      vertex   7.884536e+01 1.375532e+01 0.000000e+00
    endloop
  endfacet
  facet normal -0.000000e+00 0.000000e+00 -1.000000e+00
    outer loop
      vertex   7.921585e+01 1.297427e+01 0.000000e+00
      vertex   7.920071e+01 1.290998e+01 0.000000e+00
      vertex   7.860122e+01 1.378903e+01 0.000000e+00
    endloop
  endfacet
  facet normal 0.000000e+00 0.000000e+00 -1.000000e+00
    outer loop
      vertex   7.860122e+01 1.378903e+01 0.000000e+00
      vertex   7.920071e+01 1.290998e+01 0.000000e+00
      vertex   7.918127e+01 1.284710e+01 0.000000e+00
    endloop
  endfacet
  facet normal -0.000000e+00 0.000000e+00 -1.000000e+00
    outer loop
      vertex   7.915765e+01 1.278606e+01 0.000000e+00
      vertex   7.912995e+01 1.272729e+01 0.000000e+00
      vertex   7.819977e+01 1.361495e+01 0.000000e+00
    endloop
  endfacet
  facet normal -0.000000e+00 0.000000e+00 -1.000000e+00
    outer loop
      vertex   7.912995e+01 1.272729e+01 0.000000e+00
      vertex   7.909829e+01 1.267121e+01 0.000000e+00
      vertex   7.809462e+01 1.349420e+01 0.000000e+00
    endloop
  endfacet
  facet normal 0.000000e+00 -0.000000e+00 -1.000000e+00
    outer loop
      vertex   7.809462e+01 1.349420e+01 0.000000e+00
      vertex   7.909829e+01 1.267121e+01 0.000000e+00
      vertex   7.806576e+01 1.344828e+01 0.000000e+00
    endloop
  endfacet
  facet normal 0.000000e+00 -0.000000e+00 -1.000000e+00
    outer loop
      vertex   7.806576e+01 1.344828e+01 0.000000e+00
      vertex   7.909829e+01 1.267121e+01 0.000000e+00
      vertex   7.804004e+01 1.340005e+01 0.000000e+00
    endloop
  endfacet
  facet normal 0.000000e+00 -0.000000e+00 -1.000000e+00
    outer loop
      vertex   7.804004e+01 1.340005e+01 0.000000e+00
      vertex   7.909829e+01 1.267121e+01 0.000000e+00
      vertex   7.801751e+01 1.334982e+01 0.000000e+00
    endloop
  endfacet
  facet normal 0.000000e+00 0.000000e+00 -1.000000e+00
    outer loop
      vertex   7.801751e+01 1.334982e+01 0.000000e+00
      vertex   7.909829e+01 1.267121e+01 0.000000e+00
      vertex   7.906279e+01 1.261825e+01 0.000000e+00
    endloop
  endfacet
  facet normal 0.000000e+00 -0.000000e+00 -1.000000e+00
    outer loop
      vertex   7.801751e+01 1.334982e+01 0.000000e+00
      vertex   7.906279e+01 1.261825e+01 0.000000e+00
      vertex   7.799819e+01 1.329790e+01 0.000000e+00
    endloop
  endfacet
  facet normal 0.000000e+00 0.000000e+00 -1.000000e+00
    outer loop
      vertex   7.799819e+01 1.329790e+01 0.000000e+00
      vertex   7.906279e+01 1.261825e+01 0.000000e+00
      vertex   7.902355e+01 1.256883e+01 0.000000e+00
    endloop
  endfacet
  facet normal 0.000000e+00 -0.000000e+00 -1.000000e+00
    outer loop
      vertex   7.799819e+01 1.329790e+01 0.000000e+00
      vertex   7.902355e+01 1.256883e+01 0.000000e+00
      vertex   7.798212e+01 1.324462e+01 0.000000e+00
    endloop
  endfacet
  facet normal 0.000000e+00 0.000000e+00 -1.000000e+00
    outer loop
      vertex   7.798212e+01 1.324462e+01 0.000000e+00
      vertex   7.902355e+01 1.256883e+01 0.000000e+00
      vertex   7.898071e+01 1.252338e+01 0.000000e+00
    endloop
  endfacet
  facet normal 0.000000e+00 -0.000000e+00 -1.000000e+00
    outer loop
      vertex   7.798212e+01 1.324462e+01 0.000000e+00
      vertex   7.898071e+01 1.252338e+01 0.000000e+00
      vertex   7.796932e+01 1.319027e+01 0.000000e+00
    endloop
  endfacet
  facet normal 0.000000e+00 -0.000000e+00 -1.000000e+00
    outer loop
      vertex   7.796932e+01 1.319027e+01 0.000000e+00
      vertex   7.898071e+01 1.252338e+01 0.000000e+00
      vertex   7.795984e+01 1.313517e+01 0.000000e+00
    endloop
  endfacet
  facet normal 0.000000e+00 -0.000000e+00 -1.000000e+00
    outer loop
      vertex   7.795984e+01 1.313517e+01 0.000000e+00
      vertex   7.898071e+01 1.252338e+01 0.000000e+00
      vertex   7.795369e+01 1.307964e+01 0.000000e+00
    endloop
  endfacet
  facet normal 0.000000e+00 -0.000000e+00 -1.000000e+00
    outer loop
      vertex   7.795369e+01 1.307964e+01 0.000000e+00
      vertex   7.898071e+01 1.252338e+01 0.000000e+00
      vertex   7.795093e+01 1.302399e+01 0.000000e+00
    endloop
  endfacet
  facet normal 0.000000e+00 0.000000e+00 -1.000000e+00
    outer loop
      vertex   7.795093e+01 1.302399e+01 0.000000e+00
      vertex   7.898071e+01 1.252338e+01 0.000000e+00
      vertex   7.795156e+01 1.296853e+01 0.000000e+00
    endloop
  endfacet
  facet normal 0.000000e+00 0.000000e+00 -1.000000e+00
    outer loop
      vertex   7.795156e+01 1.296853e+01 0.000000e+00
      vertex   7.898071e+01 1.252338e+01 0.000000e+00
      vertex   7.795564e+01 1.291357e+01 0.000000e+00
    endloop
  endfacet
  facet normal 0.000000e+00 0.000000e+00 -1.000000e+00
    outer loop
      vertex   7.795564e+01 1.291357e+01 0.000000e+00
      vertex   7.898071e+01 1.252338e+01 0.000000e+00
      vertex   7.796318e+01 1.285944e+01 0.000000e+00
    endloop
  endfacet
  facet normal 0.000000e+00 0.000000e+00 -1.000000e+00
    outer loop
      vertex   7.796318e+01 1.285944e+01 0.000000e+00
      vertex   7.898071e+01 1.252338e+01 0.000000e+00
      vertex   7.797423e+01 1.280643e+01 0.000000e+00
    endloop
  endfacet
  facet normal 0.000000e+00 0.000000e+00 -1.000000e+00
    outer loop
      vertex   7.797423e+01 1.280643e+01 0.000000e+00
      vertex   7.898071e+01 1.252338e+01 0.000000e+00
      vertex   7.798882e+01 1.275487e+01 0.000000e+00
    endloop
  endfacet
  facet normal 0.000000e+00 0.000000e+00 -1.000000e+00
    outer loop
      vertex   7.798882e+01 1.275487e+01 0.000000e+00
      vertex   7.898071e+01 1.252338e+01 0.000000e+00
      vertex   7.800697e+01 1.270507e+01 0.000000e+00
    endloop
  endfacet
  facet normal 0.000000e+00 0.000000e+00 -1.000000e+00
    outer loop
      vertex   7.800697e+01 1.270507e+01 0.000000e+00
      vertex   7.898071e+01 1.252338e+01 0.000000e+00
      vertex   7.893436e+01 1.248231e+01 0.000000e+00
    endloop
  endfacet
  facet normal 0.000000e+00 0.000000e+00 -1.000000e+00
    outer loop
      vertex   7.800697e+01 1.270507e+01 0.000000e+00
      vertex   7.893436e+01 1.248231e+01 0.000000e+00
      vertex   7.802872e+01 1.265734e+01 0.000000e+00
    endloop
  endfacet
  facet normal 0.000000e+00 0.000000e+00 -1.000000e+00
    outer loop
      vertex   7.802872e+01 1.265734e+01 0.000000e+00
      vertex   7.893436e+01 1.248231e+01 0.000000e+00
      vertex   7.805410e+01 1.261199e+01 0.000000e+00
    endloop
  endfacet
  facet normal 0.000000e+00 0.000000e+00 -1.000000e+00
    outer loop
      vertex   7.805410e+01 1.261199e+01 0.000000e+00
      vertex   7.893436e+01 1.248231e+01 0.000000e+00
      vertex   7.808315e+01 1.256934e+01 0.000000e+00
    endloop
  endfacet
  facet normal 0.000000e+00 0.000000e+00 -1.000000e+00
    outer loop
      vertex   7.808315e+01 1.256934e+01 0.000000e+00
      vertex   7.893436e+01 1.248231e+01 0.000000e+00
      vertex   7.811589e+01 1.252970e+01 0.000000e+00
    endloop
  endfacet
  facet normal 0.000000e+00 0.000000e+00 -1.000000e+00
    outer loop
      vertex   7.811589e+01 1.252970e+01 0.000000e+00
      vertex   7.893436e+01 1.248231e+01 0.000000e+00
      vertex   7.815236e+01 1.249338e+01 0.000000e+00
    endloop
  endfacet
  facet normal 0.000000e+00 0.000000e+00 -1.000000e+00
    outer loop
      vertex   7.815236e+01 1.249338e+01 0.000000e+00
      vertex   7.893436e+01 1.248231e+01 0.000000e+00
      vertex   7.819259e+01 1.246070e+01 0.000000e+00
    endloop
  endfacet
  facet normal 0.000000e+00 0.000000e+00 -1.000000e+00
    outer loop
      vertex   7.819259e+01 1.246070e+01 0.000000e+00
      vertex   7.893436e+01 1.248231e+01 0.000000e+00
      vertex   7.888463e+01 1.244606e+01 0.000000e+00
    endloop
  endfacet
  facet normal 0.000000e+00 0.000000e+00 -1.000000e+00
    outer loop
      vertex   7.819259e+01 1.246070e+01 0.000000e+00
      vertex   7.888463e+01 1.244606e+01 0.000000e+00
      vertex   7.823662e+01 1.243196e+01 0.000000e+00
    endloop
  endfacet
  facet normal 0.000000e+00 0.000000e+00 -1.000000e+00
    outer loop
      vertex   7.823662e+01 1.243196e+01 0.000000e+00
      vertex   7.888463e+01 1.244606e+01 0.000000e+00
      vertex   7.883162e+01 1.241505e+01 0.000000e+00
    endloop
  endfacet
  facet normal 0.000000e+00 0.000000e+00 -1.000000e+00
    outer loop
      vertex   7.823662e+01 1.243196e+01 0.000000e+00
      vertex   7.883162e+01 1.241505e+01 0.000000e+00
      vertex   7.828447e+01 1.240749e+01 0.000000e+00
    endloop
  endfacet
  facet normal 0.000000e+00 0.000000e+00 -1.000000e+00
    outer loop
      vertex   7.828447e+01 1.240749e+01 0.000000e+00
      vertex   7.883162e+01 1.241505e+01 0.000000e+00
      vertex   7.877546e+01 1.238970e+01 0.000000e+00
    endloop
  endfacet
  facet normal 0.000000e+00 0.000000e+00 -1.000000e+00
    outer loop
      vertex   7.828447e+01 1.240749e+01 0.000000e+00
      vertex   7.877546e+01 1.238970e+01 0.000000e+00
      vertex   7.833618e+01 1.238759e+01 0.000000e+00
    endloop
  endfacet
  facet normal 0.000000e+00 0.000000e+00 -1.000000e+00
    outer loop
      vertex   7.833618e+01 1.238759e+01 0.000000e+00
      vertex   7.877546e+01 1.238970e+01 0.000000e+00
      vertex   7.871625e+01 1.237044e+01 0.000000e+00
    endloop
  endfacet
  facet normal 0.000000e+00 0.000000e+00 -1.000000e+00
    outer loop
      vertex   7.833618e+01 1.238759e+01 0.000000e+00
      vertex   7.871625e+01 1.237044e+01 0.000000e+00
      vertex   7.839177e+01 1.237259e+01 0.000000e+00
    endloop
  endfacet
  facet normal 0.000000e+00 0.000000e+00 -1.000000e+00
    outer loop
      vertex   7.839177e+01 1.237259e+01 0.000000e+00
      vertex   7.871625e+01 1.237044e+01 0.000000e+00
      vertex   7.845129e+01 1.236278e+01 0.000000e+00
    endloop
  endfacet
  facet normal 0.000000e+00 0.000000e+00 -1.000000e+00
    outer loop
      vertex   7.845129e+01 1.236278e+01 0.000000e+00
      vertex   7.871625e+01 1.237044e+01 0.000000e+00
      vertex   7.865412e+01 1.235770e+01 0.000000e+00
    endloop
  endfacet
  facet normal 0.000000e+00 0.000000e+00 -1.000000e+00
    outer loop
      vertex   7.845129e+01 1.236278e+01 0.000000e+00
      vertex   7.865412e+01 1.235770e+01 0.000000e+00
      vertex   7.852152e+01 1.235344e+01 0.000000e+00
    endloop
  endfacet
  facet normal 0.000000e+00 0.000000e+00 -1.000000e+00
    outer loop
      vertex   7.852152e+01 1.235344e+01 0.000000e+00
      vertex   7.865412e+01 1.235770e+01 0.000000e+00
      vertex   7.858917e+01 1.235189e+01 0.000000e+00
    endloop
  endfacet
endsolid
