solid ASCII
  facet normal -0.000000e+00 0.000000e+00 1.000000e+00
    outer loop
      vertex   4.714352e+01 4.158710e+00 4.000000e-01
      vertex   4.707928e+01 4.134043e+00 4.000000e-01
      vertex   4.718889e+01 4.167820e+00 4.000000e-01
    endloop
  endfacet
  facet normal 0.000000e+00 0.000000e+00 1.000000e+00
    outer loop
      vertex   4.718889e+01 4.167820e+00 4.000000e-01
      vertex   4.707928e+01 4.134043e+00 4.000000e-01
      vertex   4.750864e+01 4.120408e+00 4.000000e-01
    endloop
  endfacet
  facet normal 0.000000e+00 0.000000e+00 1.000000e+00
    outer loop
      vertex   4.718889e+01 4.167820e+00 4.000000e-01
      vertex   4.750864e+01 4.120408e+00 4.000000e-01
      vertex   4.745498e+01 4.147501e+00 4.000000e-01
    endloop
  endfacet
  facet normal 0.000000e+00 0.000000e+00 1.000000e+00
    outer loop
      vertex   4.707928e+01 4.134043e+00 4.000000e-01
      vertex   4.700285e+01 4.083411e+00 4.000000e-01
      vertex   4.750864e+01 4.120408e+00 4.000000e-01
    endloop
  endfacet
  facet normal 0.000000e+00 0.000000e+00 1.000000e+00
    outer loop
      vertex   4.750864e+01 4.120408e+00 4.000000e-01
      vertex   4.700285e+01 4.083411e+00 4.000000e-01
      vertex   4.693989e+01 4.016398e+00 4.000000e-01
    endloop
  endfacet
  facet normal 0.000000e+00 0.000000e+00 1.000000e+00
    outer loop
      vertex   4.750864e+01 4.120408e+00 4.000000e-01
      vertex   4.693989e+01 4.016398e+00 4.000000e-01
      vertex   4.689363e+01 3.937258e+00 4.000000e-01
    endloop
  endfacet
  facet normal 0.000000e+00 0.000000e+00 1.000000e+00
    outer loop
      vertex   4.750864e+01 4.120408e+00 4.000000e-01
      vertex   4.689363e+01 3.937258e+00 4.000000e-01
      vertex   4.755813e+01 4.086645e+00 4.000000e-01
    endloop
  endfacet
  facet normal 0.000000e+00 0.000000e+00 1.000000e+00
    outer loop
      vertex   4.755813e+01 4.086645e+00 4.000000e-01
      vertex   4.689363e+01 3.937258e+00 4.000000e-01
      vertex   4.686728e+01 3.850245e+00 4.000000e-01
    endloop
  endfacet
  facet normal 0.000000e+00 0.000000e+00 1.000000e+00
    outer loop
      vertex   4.755813e+01 4.086645e+00 4.000000e-01
      vertex   4.686728e+01 3.850245e+00 4.000000e-01
      vertex   4.760246e+01 4.046924e+00 4.000000e-01
    endloop
  endfacet
  facet normal 0.000000e+00 0.000000e+00 1.000000e+00
    outer loop
      vertex   4.760246e+01 4.046924e+00 4.000000e-01
      vertex   4.686728e+01 3.850245e+00 4.000000e-01
      vertex   4.686251e+01 3.782377e+00 4.000000e-01
    endloop
  endfacet
  facet normal 0.000000e+00 0.000000e+00 1.000000e+00
    outer loop
      vertex   4.760246e+01 4.046924e+00 4.000000e-01
      vertex   4.686251e+01 3.782377e+00 4.000000e-01
      vertex   4.687211e+01 3.714267e+00 4.000000e-01
    endloop
  endfacet
  facet normal -0.000000e+00 0.000000e+00 1.000000e+00
    outer loop
      vertex   4.687211e+01 3.714267e+00 4.000000e-01
      vertex   4.688716e+01 3.669612e+00 4.000000e-01
      vertex   4.760246e+01 4.046924e+00 4.000000e-01
    endloop
  endfacet
  facet normal 0.000000e+00 0.000000e+00 1.000000e+00
    outer loop
      vertex   4.760246e+01 4.046924e+00 4.000000e-01
      vertex   4.688716e+01 3.669612e+00 4.000000e-01
      vertex   4.764061e+01 4.001955e+00 4.000000e-01
    endloop
  endfacet
  facet normal 0.000000e+00 0.000000e+00 1.000000e+00
    outer loop
      vertex   4.764061e+01 4.001955e+00 4.000000e-01
      vertex   4.688716e+01 3.669612e+00 4.000000e-01
      vertex   4.767159e+01 3.952449e+00 4.000000e-01
    endloop
  endfacet
  facet normal 0.000000e+00 0.000000e+00 1.000000e+00
    outer loop
      vertex   4.767159e+01 3.952449e+00 4.000000e-01
      vertex   4.688716e+01 3.669612e+00 4.000000e-01
      vertex   4.769438e+01 3.899118e+00 4.000000e-01
    endloop
  endfacet
  facet normal 0.000000e+00 0.000000e+00 1.000000e+00
    outer loop
      vertex   4.769438e+01 3.899118e+00 4.000000e-01
      vertex   4.688716e+01 3.669612e+00 4.000000e-01
      vertex   4.770240e+01 3.871240e+00 4.000000e-01
    endloop
  endfacet
  facet normal 0.000000e+00 0.000000e+00 1.000000e+00
    outer loop
      vertex   4.770240e+01 3.871240e+00 4.000000e-01
      vertex   4.688716e+01 3.669612e+00 4.000000e-01
      vertex   4.770800e+01 3.842673e+00 4.000000e-01
    endloop
  endfacet
  facet normal 0.000000e+00 0.000000e+00 1.000000e+00
    outer loop
      vertex   4.770800e+01 3.842673e+00 4.000000e-01
      vertex   4.688716e+01 3.669612e+00 4.000000e-01
      vertex   4.771104e+01 3.813504e+00 4.000000e-01
    endloop
  endfacet
  facet normal 0.000000e+00 0.000000e+00 1.000000e+00
    outer loop
      vertex   4.771104e+01 3.813504e+00 4.000000e-01
      vertex   4.688716e+01 3.669612e+00 4.000000e-01
      vertex   4.771142e+01 3.783824e+00 4.000000e-01
    endloop
  endfacet
  facet normal 0.000000e+00 0.000000e+00 1.000000e+00
    outer loop
      vertex   4.771142e+01 3.783824e+00 4.000000e-01
      vertex   4.688716e+01 3.669612e+00 4.000000e-01
      vertex   4.770900e+01 3.753720e+00 4.000000e-01
    endloop
  endfacet
  facet normal 0.000000e+00 0.000000e+00 1.000000e+00
    outer loop
      vertex   4.770900e+01 3.753720e+00 4.000000e-01
      vertex   4.688716e+01 3.669612e+00 4.000000e-01
      vertex   4.770366e+01 3.723282e+00 4.000000e-01
    endloop
  endfacet
  facet normal 0.000000e+00 0.000000e+00 1.000000e+00
    outer loop
      vertex   4.770366e+01 3.723282e+00 4.000000e-01
      vertex   4.688716e+01 3.669612e+00 4.000000e-01
      vertex   4.769526e+01 3.692599e+00 4.000000e-01
    endloop
  endfacet
  facet normal 0.000000e+00 0.000000e+00 1.000000e+00
    outer loop
      vertex   4.769526e+01 3.692599e+00 4.000000e-01
      vertex   4.688716e+01 3.669612e+00 4.000000e-01
      vertex   4.768370e+01 3.661759e+00 4.000000e-01
    endloop
  endfacet
  facet normal 0.000000e+00 0.000000e+00 1.000000e+00
    outer loop
      vertex   4.768370e+01 3.661759e+00 4.000000e-01
      vertex   4.688716e+01 3.669612e+00 4.000000e-01
      vertex   4.766982e+01 3.627873e+00 4.000000e-01
    endloop
  endfacet
  facet normal 0.000000e+00 0.000000e+00 1.000000e+00
    outer loop
      vertex   4.766982e+01 3.627873e+00 4.000000e-01
      vertex   4.688716e+01 3.669612e+00 4.000000e-01
      vertex   4.765296e+01 3.596432e+00 4.000000e-01
    endloop
  endfacet
  facet normal 0.000000e+00 0.000000e+00 1.000000e+00
    outer loop
      vertex   4.765296e+01 3.596432e+00 4.000000e-01
      vertex   4.688716e+01 3.669612e+00 4.000000e-01
      vertex   4.763335e+01 3.567435e+00 4.000000e-01
    endloop
  endfacet
  facet normal 0.000000e+00 0.000000e+00 1.000000e+00
    outer loop
      vertex   4.763335e+01 3.567435e+00 4.000000e-01
      vertex   4.688716e+01 3.669612e+00 4.000000e-01
      vertex   4.761120e+01 3.540881e+00 4.000000e-01
    endloop
  endfacet
  facet normal 0.000000e+00 0.000000e+00 1.000000e+00
    outer loop
      vertex   4.761120e+01 3.540881e+00 4.000000e-01
      vertex   4.688716e+01 3.669612e+00 4.000000e-01
      vertex   4.758674e+01 3.516771e+00 4.000000e-01
    endloop
  endfacet
  facet normal 0.000000e+00 0.000000e+00 1.000000e+00
    outer loop
      vertex   4.758674e+01 3.516771e+00 4.000000e-01
      vertex   4.688716e+01 3.669612e+00 4.000000e-01
      vertex   4.756020e+01 3.495103e+00 4.000000e-01
    endloop
  endfacet
  facet normal 0.000000e+00 0.000000e+00 1.000000e+00
    outer loop
      vertex   4.756020e+01 3.495103e+00 4.000000e-01
      vertex   4.688716e+01 3.669612e+00 4.000000e-01
      vertex   4.753179e+01 3.475876e+00 4.000000e-01
    endloop
  endfacet
  facet normal 0.000000e+00 0.000000e+00 1.000000e+00
    outer loop
      vertex   4.753179e+01 3.475876e+00 4.000000e-01
      vertex   4.688716e+01 3.669612e+00 4.000000e-01
      vertex   4.750174e+01 3.459091e+00 4.000000e-01
    endloop
  endfacet
  facet normal 0.000000e+00 0.000000e+00 1.000000e+00
    outer loop
      vertex   4.750174e+01 3.459091e+00 4.000000e-01
      vertex   4.688716e+01 3.669612e+00 4.000000e-01
      vertex   4.747027e+01 3.444747e+00 4.000000e-01
    endloop
  endfacet
  facet normal 0.000000e+00 0.000000e+00 1.000000e+00
    outer loop
      vertex   4.747027e+01 3.444747e+00 4.000000e-01
      vertex   4.688716e+01 3.669612e+00 4.000000e-01
      vertex   4.743761e+01 3.432844e+00 4.000000e-01
    endloop
  endfacet
  facet normal 0.000000e+00 0.000000e+00 1.000000e+00
    outer loop
      vertex   4.743761e+01 3.432844e+00 4.000000e-01
      vertex   4.688716e+01 3.669612e+00 4.000000e-01
      vertex   4.740398e+01 3.423380e+00 4.000000e-01
    endloop
  endfacet
  facet normal 0.000000e+00 0.000000e+00 1.000000e+00
    outer loop
      vertex   4.740398e+01 3.423380e+00 4.000000e-01
      vertex   4.688716e+01 3.669612e+00 4.000000e-01
      vertex   4.736960e+01 3.416355e+00 4.000000e-01
    endloop
  endfacet
  facet normal 0.000000e+00 0.000000e+00 1.000000e+00
    outer loop
      vertex   4.736960e+01 3.416355e+00 4.000000e-01
      vertex   4.688716e+01 3.669612e+00 4.000000e-01
      vertex   4.690008e+01 3.635252e+00 4.000000e-01
    endloop
  endfacet
  facet normal 0.000000e+00 0.000000e+00 1.000000e+00
    outer loop
      vertex   4.736960e+01 3.416355e+00 4.000000e-01
      vertex   4.690008e+01 3.635252e+00 4.000000e-01
      vertex   4.691605e+01 3.603323e+00 4.000000e-01
    endloop
  endfacet
  facet normal 0.000000e+00 0.000000e+00 1.000000e+00
    outer loop
      vertex   4.691605e+01 3.603323e+00 4.000000e-01
      vertex   4.693485e+01 3.573824e+00 4.000000e-01
      vertex   4.736960e+01 3.416355e+00 4.000000e-01
    endloop
  endfacet
  facet normal 0.000000e+00 0.000000e+00 1.000000e+00
    outer loop
      vertex   4.736960e+01 3.416355e+00 4.000000e-01
      vertex   4.693485e+01 3.573824e+00 4.000000e-01
      vertex   4.695625e+01 3.546757e+00 4.000000e-01
    endloop
  endfacet
  facet normal 0.000000e+00 0.000000e+00 1.000000e+00
    outer loop
      vertex   4.736960e+01 3.416355e+00 4.000000e-01
      vertex   4.695625e+01 3.546757e+00 4.000000e-01
      vertex   4.698003e+01 3.522121e+00 4.000000e-01
    endloop
  endfacet
  facet normal 0.000000e+00 0.000000e+00 1.000000e+00
    outer loop
      vertex   4.698003e+01 3.522121e+00 4.000000e-01
      vertex   4.700596e+01 3.499917e+00 4.000000e-01
      vertex   4.736960e+01 3.416355e+00 4.000000e-01
    endloop
  endfacet
  facet normal 0.000000e+00 0.000000e+00 1.000000e+00
    outer loop
      vertex   4.736960e+01 3.416355e+00 4.000000e-01
      vertex   4.700596e+01 3.499917e+00 4.000000e-01
      vertex   4.703382e+01 3.480146e+00 4.000000e-01
    endloop
  endfacet
  facet normal 0.000000e+00 0.000000e+00 1.000000e+00
    outer loop
      vertex   4.736960e+01 3.416355e+00 4.000000e-01
      vertex   4.703382e+01 3.480146e+00 4.000000e-01
      vertex   4.706340e+01 3.462808e+00 4.000000e-01
    endloop
  endfacet
  facet normal 0.000000e+00 0.000000e+00 1.000000e+00
    outer loop
      vertex   4.706340e+01 3.462808e+00 4.000000e-01
      vertex   4.709446e+01 3.447904e+00 4.000000e-01
      vertex   4.736960e+01 3.416355e+00 4.000000e-01
    endloop
  endfacet
  facet normal 0.000000e+00 0.000000e+00 1.000000e+00
    outer loop
      vertex   4.736960e+01 3.416355e+00 4.000000e-01
      vertex   4.709446e+01 3.447904e+00 4.000000e-01
      vertex   4.712678e+01 3.435435e+00 4.000000e-01
    endloop
  endfacet
  facet normal 0.000000e+00 0.000000e+00 1.000000e+00
    outer loop
      vertex   4.736960e+01 3.416355e+00 4.000000e-01
      vertex   4.712678e+01 3.435435e+00 4.000000e-01
      vertex   4.716014e+01 3.425400e+00 4.000000e-01
    endloop
  endfacet
  facet normal 0.000000e+00 0.000000e+00 1.000000e+00
    outer loop
      vertex   4.716014e+01 3.425400e+00 4.000000e-01
      vertex   4.719431e+01 3.417801e+00 4.000000e-01
      vertex   4.736960e+01 3.416355e+00 4.000000e-01
    endloop
  endfacet
  facet normal 0.000000e+00 0.000000e+00 1.000000e+00
    outer loop
      vertex   4.736960e+01 3.416355e+00 4.000000e-01
      vertex   4.719431e+01 3.417801e+00 4.000000e-01
      vertex   4.722908e+01 3.412638e+00 4.000000e-01
    endloop
  endfacet
  facet normal 0.000000e+00 0.000000e+00 1.000000e+00
    outer loop
      vertex   4.736960e+01 3.416355e+00 4.000000e-01
      vertex   4.722908e+01 3.412638e+00 4.000000e-01
      vertex   4.729950e+01 3.409621e+00 4.000000e-01
    endloop
  endfacet
  facet normal 0.000000e+00 0.000000e+00 1.000000e+00
    outer loop
      vertex   4.745498e+01 4.147501e+00 4.000000e-01
      vertex   4.739816e+01 4.167214e+00 4.000000e-01
      vertex   4.718889e+01 4.167820e+00 4.000000e-01
    endloop
  endfacet
  facet normal -0.000000e+00 0.000000e+00 1.000000e+00
    outer loop
      vertex   4.718889e+01 4.167820e+00 4.000000e-01
      vertex   4.739816e+01 4.167214e+00 4.000000e-01
      vertex   4.721877e+01 4.174958e+00 4.000000e-01
    endloop
  endfacet
  facet normal -0.000000e+00 0.000000e+00 1.000000e+00
    outer loop
      vertex   4.721877e+01 4.174958e+00 4.000000e-01
      vertex   4.739816e+01 4.167214e+00 4.000000e-01
      vertex   4.733918e+01 4.178834e+00 4.000000e-01
    endloop
  endfacet
  facet normal 0.000000e+00 0.000000e+00 1.000000e+00
    outer loop
      vertex   4.721877e+01 4.174958e+00 4.000000e-01
      vertex   4.733918e+01 4.178834e+00 4.000000e-01
      vertex   4.727905e+01 4.181653e+00 4.000000e-01
    endloop
  endfacet
  facet normal 4.147841e-01 -9.099199e-01 0.000000e+00
    outer loop
      vertex   4.750174e+01 3.459091e+00 4.000000e-01
      vertex   4.747027e+01 3.444747e+00 4.000000e-01
      vertex   4.750174e+01 3.459091e+00 0.000000e+00
    endloop
  endfacet
  facet normal 4.147841e-01 -9.099199e-01 0.000000e+00
    outer loop
      vertex   4.750174e+01 3.459091e+00 0.000000e+00
      vertex   4.747027e+01 3.444747e+00 4.000000e-01
      vertex   4.747027e+01 3.444747e+00 0.000000e+00
    endloop
  endfacet
  facet normal 3.424310e-01 -9.395430e-01 0.000000e+00
    outer loop
      vertex   4.747027e+01 3.444747e+00 4.000000e-01
      vertex   4.743761e+01 3.432844e+00 4.000000e-01
      vertex   4.747027e+01 3.444747e+00 0.000000e+00
    endloop
  endfacet
  facet normal 3.424310e-01 -9.395430e-01 0.000000e+00
    outer loop
      vertex   4.747027e+01 3.444747e+00 0.000000e+00
      vertex   4.743761e+01 3.432844e+00 4.000000e-01
      vertex   4.743761e+01 3.432844e+00 0.000000e+00
    endloop
  endfacet
  facet normal 2.708809e-01 -9.626129e-01 0.000000e+00
    outer loop
      vertex   4.743761e+01 3.432844e+00 4.000000e-01
      vertex   4.740398e+01 3.423380e+00 4.000000e-01
      vertex   4.743761e+01 3.432844e+00 0.000000e+00
    endloop
  endfacet
  facet normal 2.708809e-01 -9.626129e-01 0.000000e+00
    outer loop
      vertex   4.743761e+01 3.432844e+00 0.000000e+00
      vertex   4.740398e+01 3.423380e+00 4.000000e-01
      vertex   4.740398e+01 3.423380e+00 0.000000e+00
    endloop
  endfacet
  facet normal 2.001960e-01 -9.797559e-01 0.000000e+00
    outer loop
      vertex   4.740398e+01 3.423380e+00 4.000000e-01
      vertex   4.736960e+01 3.416355e+00 4.000000e-01
      vertex   4.740398e+01 3.423380e+00 0.000000e+00
    endloop
  endfacet
  facet normal 2.001960e-01 -9.797559e-01 0.000000e+00
    outer loop
      vertex   4.740398e+01 3.423380e+00 0.000000e+00
      vertex   4.736960e+01 3.416355e+00 4.000000e-01
      vertex   4.736960e+01 3.416355e+00 0.000000e+00
    endloop
  endfacet
  facet normal 9.561239e-02 -9.954186e-01 0.000000e+00
    outer loop
      vertex   4.736960e+01 3.416355e+00 4.000000e-01
      vertex   4.729950e+01 3.409621e+00 4.000000e-01
      vertex   4.736960e+01 3.416355e+00 0.000000e+00
    endloop
  endfacet
  facet normal 9.561239e-02 -9.954186e-01 0.000000e+00
    outer loop
      vertex   4.736960e+01 3.416355e+00 0.000000e+00
      vertex   4.729950e+01 3.409621e+00 4.000000e-01
      vertex   4.729950e+01 3.409621e+00 0.000000e+00
    endloop
  endfacet
  facet normal -4.279727e-02 -9.990838e-01 -0.000000e+00
    outer loop
      vertex   4.729950e+01 3.409621e+00 4.000000e-01
      vertex   4.722908e+01 3.412638e+00 4.000000e-01
      vertex   4.729950e+01 3.409621e+00 0.000000e+00
    endloop
  endfacet
  facet normal -4.279727e-02 -9.990838e-01 0.000000e+00
    outer loop
      vertex   4.729950e+01 3.409621e+00 0.000000e+00
      vertex   4.722908e+01 3.412638e+00 4.000000e-01
      vertex   4.722908e+01 3.412638e+00 0.000000e+00
    endloop
  endfacet
  facet normal -1.468994e-01 -9.891514e-01 -0.000000e+00
    outer loop
      vertex   4.722908e+01 3.412638e+00 4.000000e-01
      vertex   4.719431e+01 3.417801e+00 4.000000e-01
      vertex   4.722908e+01 3.412638e+00 0.000000e+00
    endloop
  endfacet
  facet normal -1.468994e-01 -9.891514e-01 0.000000e+00
    outer loop
      vertex   4.722908e+01 3.412638e+00 0.000000e+00
      vertex   4.719431e+01 3.417801e+00 4.000000e-01
      vertex   4.719431e+01 3.417801e+00 0.000000e+00
    endloop
  endfacet
  facet normal -2.170622e-01 -9.761578e-01 -0.000000e+00
    outer loop
      vertex   4.719431e+01 3.417801e+00 4.000000e-01
      vertex   4.716014e+01 3.425400e+00 4.000000e-01
      vertex   4.719431e+01 3.417801e+00 0.000000e+00
    endloop
  endfacet
  facet normal -2.170622e-01 -9.761578e-01 0.000000e+00
    outer loop
      vertex   4.719431e+01 3.417801e+00 0.000000e+00
      vertex   4.716014e+01 3.425400e+00 4.000000e-01
      vertex   4.716014e+01 3.425400e+00 0.000000e+00
    endloop
  endfacet
  facet normal -2.880557e-01 -9.576137e-01 -0.000000e+00
    outer loop
      vertex   4.716014e+01 3.425400e+00 4.000000e-01
      vertex   4.712678e+01 3.435435e+00 4.000000e-01
      vertex   4.716014e+01 3.425400e+00 0.000000e+00
    endloop
  endfacet
  facet normal -2.880557e-01 -9.576137e-01 0.000000e+00
    outer loop
      vertex   4.716014e+01 3.425400e+00 0.000000e+00
      vertex   4.712678e+01 3.435435e+00 4.000000e-01
      vertex   4.712678e+01 3.435435e+00 0.000000e+00
    endloop
  endfacet
  facet normal -3.599491e-01 -9.329719e-01 -0.000000e+00
    outer loop
      vertex   4.712678e+01 3.435435e+00 4.000000e-01
      vertex   4.709446e+01 3.447904e+00 4.000000e-01
      vertex   4.712678e+01 3.435435e+00 0.000000e+00
    endloop
  endfacet
  facet normal -3.599491e-01 -9.329719e-01 0.000000e+00
    outer loop
      vertex   4.712678e+01 3.435435e+00 0.000000e+00
      vertex   4.709446e+01 3.447904e+00 4.000000e-01
      vertex   4.709446e+01 3.447904e+00 0.000000e+00
    endloop
  endfacet
  facet normal -4.326326e-01 -9.015703e-01 -0.000000e+00
    outer loop
      vertex   4.709446e+01 3.447904e+00 4.000000e-01
      vertex   4.706340e+01 3.462808e+00 4.000000e-01
      vertex   4.709446e+01 3.447904e+00 0.000000e+00
    endloop
  endfacet
  facet normal -4.326326e-01 -9.015703e-01 0.000000e+00
    outer loop
      vertex   4.709446e+01 3.447904e+00 0.000000e+00
      vertex   4.706340e+01 3.462808e+00 4.000000e-01
      vertex   4.706340e+01 3.462808e+00 0.000000e+00
    endloop
  endfacet
  facet normal -5.057564e-01 -8.626763e-01 -0.000000e+00
    outer loop
      vertex   4.706340e+01 3.462808e+00 4.000000e-01
      vertex   4.703382e+01 3.480146e+00 4.000000e-01
      vertex   4.706340e+01 3.462808e+00 0.000000e+00
    endloop
  endfacet
  facet normal -5.057564e-01 -8.626763e-01 0.000000e+00
    outer loop
      vertex   4.706340e+01 3.462808e+00 0.000000e+00
      vertex   4.703382e+01 3.480146e+00 4.000000e-01
      vertex   4.703382e+01 3.480146e+00 0.000000e+00
    endloop
  endfacet
  facet normal -5.786709e-01 -8.155612e-01 -0.000000e+00
    outer loop
      vertex   4.703382e+01 3.480146e+00 4.000000e-01
      vertex   4.700596e+01 3.499917e+00 4.000000e-01
      vertex   4.703382e+01 3.480146e+00 0.000000e+00
    endloop
  endfacet
  facet normal -5.786709e-01 -8.155612e-01 0.000000e+00
    outer loop
      vertex   4.703382e+01 3.480146e+00 0.000000e+00
      vertex   4.700596e+01 3.499917e+00 4.000000e-01
      vertex   4.700596e+01 3.499917e+00 0.000000e+00
    endloop
  endfacet
  facet normal -6.503796e-01 -7.596094e-01 -0.000000e+00
    outer loop
      vertex   4.700596e+01 3.499917e+00 4.000000e-01
      vertex   4.698003e+01 3.522121e+00 4.000000e-01
      vertex   4.700596e+01 3.499917e+00 0.000000e+00
    endloop
  endfacet
  facet normal -6.503796e-01 -7.596094e-01 0.000000e+00
    outer loop
      vertex   4.700596e+01 3.499917e+00 0.000000e+00
      vertex   4.698003e+01 3.522121e+00 4.000000e-01
      vertex   4.698003e+01 3.522121e+00 0.000000e+00
    endloop
  endfacet
  facet normal -7.195289e-01 -6.944625e-01 -0.000000e+00
    outer loop
      vertex   4.698003e+01 3.522121e+00 4.000000e-01
      vertex   4.695625e+01 3.546757e+00 4.000000e-01
      vertex   4.698003e+01 3.522121e+00 0.000000e+00
    endloop
  endfacet
  facet normal -7.195289e-01 -6.944625e-01 0.000000e+00
    outer loop
      vertex   4.698003e+01 3.522121e+00 0.000000e+00
      vertex   4.695625e+01 3.546757e+00 4.000000e-01
      vertex   4.695625e+01 3.546757e+00 0.000000e+00
    endloop
  endfacet
  facet normal -7.844578e-01 -6.201822e-01 -0.000000e+00
    outer loop
      vertex   4.695625e+01 3.546757e+00 4.000000e-01
      vertex   4.693485e+01 3.573824e+00 4.000000e-01
      vertex   4.695625e+01 3.546757e+00 0.000000e+00
    endloop
  endfacet
  facet normal -7.844578e-01 -6.201822e-01 0.000000e+00
    outer loop
      vertex   4.695625e+01 3.546757e+00 0.000000e+00
      vertex   4.693485e+01 3.573824e+00 4.000000e-01
      vertex   4.693485e+01 3.573824e+00 0.000000e+00
    endloop
  endfacet
  facet normal -8.433284e-01 -5.373986e-01 -0.000000e+00
    outer loop
      vertex   4.693485e+01 3.573824e+00 4.000000e-01
      vertex   4.691605e+01 3.603323e+00 4.000000e-01
      vertex   4.693485e+01 3.573824e+00 0.000000e+00
    endloop
  endfacet
  facet normal -8.433284e-01 -5.373986e-01 0.000000e+00
    outer loop
      vertex   4.693485e+01 3.573824e+00 0.000000e+00
      vertex   4.691605e+01 3.603323e+00 4.000000e-01
      vertex   4.691605e+01 3.603323e+00 0.000000e+00
    endloop
  endfacet
  facet normal -8.943372e-01 -4.473935e-01 -0.000000e+00
    outer loop
      vertex   4.691605e+01 3.603323e+00 4.000000e-01
      vertex   4.690008e+01 3.635252e+00 4.000000e-01
      vertex   4.691605e+01 3.603323e+00 0.000000e+00
    endloop
  endfacet
  facet normal -8.943372e-01 -4.473935e-01 0.000000e+00
    outer loop
      vertex   4.691605e+01 3.603323e+00 0.000000e+00
      vertex   4.690008e+01 3.635252e+00 4.000000e-01
      vertex   4.690008e+01 3.635252e+00 0.000000e+00
    endloop
  endfacet
  facet normal -9.359731e-01 -3.520714e-01 -0.000000e+00
    outer loop
      vertex   4.690008e+01 3.635252e+00 4.000000e-01
      vertex   4.688716e+01 3.669612e+00 4.000000e-01
      vertex   4.690008e+01 3.635252e+00 0.000000e+00
    endloop
  endfacet
  facet normal -9.359731e-01 -3.520714e-01 0.000000e+00
    outer loop
      vertex   4.690008e+01 3.635252e+00 0.000000e+00
      vertex   4.688716e+01 3.669612e+00 4.000000e-01
      vertex   4.688716e+01 3.669612e+00 0.000000e+00
    endloop
  endfacet
  facet normal -9.476502e-01 -3.193103e-01 -0.000000e+00
    outer loop
      vertex   4.688716e+01 3.669612e+00 4.000000e-01
      vertex   4.687211e+01 3.714267e+00 4.000000e-01
      vertex   4.688716e+01 3.669612e+00 0.000000e+00
    endloop
  endfacet
  facet normal -9.476502e-01 -3.193103e-01 0.000000e+00
    outer loop
      vertex   4.688716e+01 3.669612e+00 0.000000e+00
      vertex   4.687211e+01 3.714267e+00 4.000000e-01
      vertex   4.687211e+01 3.714267e+00 0.000000e+00
    endloop
  endfacet
  facet normal -9.902194e-01 -1.395190e-01 -0.000000e+00
    outer loop
      vertex   4.687211e+01 3.714267e+00 4.000000e-01
      vertex   4.686251e+01 3.782377e+00 4.000000e-01
      vertex   4.687211e+01 3.714267e+00 0.000000e+00
    endloop
  endfacet
  facet normal -9.902194e-01 -1.395190e-01 0.000000e+00
    outer loop
      vertex   4.687211e+01 3.714267e+00 0.000000e+00
      vertex   4.686251e+01 3.782377e+00 4.000000e-01
      vertex   4.686251e+01 3.782377e+00 0.000000e+00
    endloop
  endfacet
  facet normal -9.975433e-01 7.005314e-02 0.000000e+00
    outer loop
      vertex   4.686251e+01 3.782377e+00 4.000000e-01
      vertex   4.686728e+01 3.850245e+00 4.000000e-01
      vertex   4.686251e+01 3.782377e+00 0.000000e+00
    endloop
  endfacet
  facet normal -9.975433e-01 7.005314e-02 0.000000e+00
    outer loop
      vertex   4.686251e+01 3.782377e+00 0.000000e+00
      vertex   4.686728e+01 3.850245e+00 4.000000e-01
      vertex   4.686728e+01 3.850245e+00 0.000000e+00
    endloop
  endfacet
  facet normal -9.570692e-01 2.898595e-01 0.000000e+00
    outer loop
      vertex   4.686728e+01 3.850245e+00 4.000000e-01
      vertex   4.689363e+01 3.937258e+00 4.000000e-01
      vertex   4.686728e+01 3.850245e+00 0.000000e+00
    endloop
  endfacet
  facet normal -9.570692e-01 2.898595e-01 0.000000e+00
    outer loop
      vertex   4.686728e+01 3.850245e+00 0.000000e+00
      vertex   4.689363e+01 3.937258e+00 4.000000e-01
      vertex   4.689363e+01 3.937258e+00 0.000000e+00
    endloop
  endfacet
  facet normal -8.633191e-01 5.046585e-01 0.000000e+00
    outer loop
      vertex   4.689363e+01 3.937258e+00 4.000000e-01
      vertex   4.693989e+01 4.016398e+00 4.000000e-01
      vertex   4.689363e+01 3.937258e+00 0.000000e+00
    endloop
  endfacet
  facet normal -8.633191e-01 5.046585e-01 0.000000e+00
    outer loop
      vertex   4.689363e+01 3.937258e+00 0.000000e+00
      vertex   4.693989e+01 4.016398e+00 4.000000e-01
      vertex   4.693989e+01 4.016398e+00 0.000000e+00
    endloop
  endfacet
  facet normal -7.288239e-01 6.847011e-01 0.000000e+00
    outer loop
      vertex   4.693989e+01 4.016398e+00 4.000000e-01
      vertex   4.700285e+01 4.083411e+00 4.000000e-01
      vertex   4.693989e+01 4.016398e+00 0.000000e+00
    endloop
  endfacet
  facet normal -7.288239e-01 6.847011e-01 0.000000e+00
    outer loop
      vertex   4.693989e+01 4.016398e+00 0.000000e+00
      vertex   4.700285e+01 4.083411e+00 4.000000e-01
      vertex   4.700285e+01 4.083411e+00 0.000000e+00
    endloop
  endfacet
  facet normal -5.522475e-01 8.336802e-01 0.000000e+00
    outer loop
      vertex   4.700285e+01 4.083411e+00 4.000000e-01
      vertex   4.707928e+01 4.134043e+00 4.000000e-01
      vertex   4.700285e+01 4.083411e+00 0.000000e+00
    endloop
  endfacet
  facet normal -5.522475e-01 8.336802e-01 0.000000e+00
    outer loop
      vertex   4.700285e+01 4.083411e+00 0.000000e+00
      vertex   4.707928e+01 4.134043e+00 4.000000e-01
      vertex   4.707928e+01 4.134043e+00 0.000000e+00
    endloop
  endfacet
  facet normal -3.584606e-01 9.335449e-01 0.000000e+00
    outer loop
      vertex   4.707928e+01 4.134043e+00 4.000000e-01
      vertex   4.714352e+01 4.158710e+00 4.000000e-01
      vertex   4.707928e+01 4.134043e+00 0.000000e+00
    endloop
  endfacet
  facet normal -3.584606e-01 9.335449e-01 0.000000e+00
    outer loop
      vertex   4.707928e+01 4.134043e+00 0.000000e+00
      vertex   4.714352e+01 4.158710e+00 4.000000e-01
      vertex   4.714352e+01 4.158710e+00 0.000000e+00
    endloop
  endfacet
  facet normal -1.968942e-01 9.804247e-01 0.000000e+00
    outer loop
      vertex   4.714352e+01 4.158710e+00 4.000000e-01
      vertex   4.718889e+01 4.167820e+00 4.000000e-01
      vertex   4.714352e+01 4.158710e+00 0.000000e+00
    endloop
  endfacet
  facet normal -1.968942e-01 9.804247e-01 0.000000e+00
    outer loop
      vertex   4.714352e+01 4.158710e+00 0.000000e+00
      vertex   4.718889e+01 4.167820e+00 4.000000e-01
      vertex   4.718889e+01 4.167820e+00 0.000000e+00
    endloop
  endfacet
  facet normal -2.323093e-01 9.726420e-01 0.000000e+00
    outer loop
      vertex   4.718889e+01 4.167820e+00 4.000000e-01
      vertex   4.721877e+01 4.174958e+00 4.000000e-01
      vertex   4.718889e+01 4.167820e+00 0.000000e+00
    endloop
  endfacet
  facet normal -2.323093e-01 9.726420e-01 0.000000e+00
    outer loop
      vertex   4.718889e+01 4.167820e+00 0.000000e+00
      vertex   4.721877e+01 4.174958e+00 4.000000e-01
      vertex   4.721877e+01 4.174958e+00 0.000000e+00
    endloop
  endfacet
  facet normal -1.103882e-01 9.938885e-01 0.000000e+00
    outer loop
      vertex   4.721877e+01 4.174958e+00 4.000000e-01
      vertex   4.727905e+01 4.181653e+00 4.000000e-01
      vertex   4.721877e+01 4.174958e+00 0.000000e+00
    endloop
  endfacet
  facet normal -1.103882e-01 9.938885e-01 0.000000e+00
    outer loop
      vertex   4.721877e+01 4.174958e+00 0.000000e+00
      vertex   4.727905e+01 4.181653e+00 4.000000e-01
      vertex   4.727905e+01 4.181653e+00 0.000000e+00
    endloop
  endfacet
  facet normal 4.681926e-02 9.989034e-01 0.000000e+00
    outer loop
      vertex   4.727905e+01 4.181653e+00 4.000000e-01
      vertex   4.733918e+01 4.178834e+00 4.000000e-01
      vertex   4.727905e+01 4.181653e+00 0.000000e+00
    endloop
  endfacet
  facet normal 4.681926e-02 9.989034e-01 0.000000e+00
    outer loop
      vertex   4.727905e+01 4.181653e+00 0.000000e+00
      vertex   4.733918e+01 4.178834e+00 4.000000e-01
      vertex   4.733918e+01 4.178834e+00 0.000000e+00
    endloop
  endfacet
  facet normal 1.933252e-01 9.811347e-01 0.000000e+00
    outer loop
      vertex   4.733918e+01 4.178834e+00 4.000000e-01
      vertex   4.739816e+01 4.167214e+00 4.000000e-01
      vertex   4.733918e+01 4.178834e+00 0.000000e+00
    endloop
  endfacet
  facet normal 1.933252e-01 9.811347e-01 0.000000e+00
    outer loop
      vertex   4.733918e+01 4.178834e+00 0.000000e+00
      vertex   4.739816e+01 4.167214e+00 4.000000e-01
      vertex   4.739816e+01 4.167214e+00 0.000000e+00
    endloop
  endfacet
  facet normal 3.277684e-01 9.447581e-01 0.000000e+00
    outer loop
      vertex   4.739816e+01 4.167214e+00 4.000000e-01
      vertex   4.745498e+01 4.147501e+00 4.000000e-01
      vertex   4.739816e+01 4.167214e+00 0.000000e+00
    endloop
  endfacet
  facet normal 3.277684e-01 9.447581e-01 0.000000e+00
    outer loop
      vertex   4.739816e+01 4.167214e+00 0.000000e+00
      vertex   4.745498e+01 4.147501e+00 4.000000e-01
      vertex   4.745498e+01 4.147501e+00 0.000000e+00
    endloop
  endfacet
  facet normal 4.507247e-01 8.926630e-01 0.000000e+00
    outer loop
      vertex   4.745498e+01 4.147501e+00 4.000000e-01
      vertex   4.750864e+01 4.120408e+00 4.000000e-01
      vertex   4.745498e+01 4.147501e+00 0.000000e+00
    endloop
  endfacet
  facet normal 4.507247e-01 8.926630e-01 0.000000e+00
    outer loop
      vertex   4.745498e+01 4.147501e+00 0.000000e+00
      vertex   4.750864e+01 4.120408e+00 4.000000e-01
      vertex   4.750864e+01 4.120408e+00 0.000000e+00
    endloop
  endfacet
  facet normal 5.635346e-01 8.260924e-01 0.000000e+00
    outer loop
      vertex   4.750864e+01 4.120408e+00 4.000000e-01
      vertex   4.755813e+01 4.086645e+00 4.000000e-01
      vertex   4.750864e+01 4.120408e+00 0.000000e+00
    endloop
  endfacet
  facet normal 5.635346e-01 8.260924e-01 0.000000e+00
    outer loop
      vertex   4.750864e+01 4.120408e+00 0.000000e+00
      vertex   4.755813e+01 4.086645e+00 4.000000e-01
      vertex   4.755813e+01 4.086645e+00 0.000000e+00
    endloop
  endfacet
  facet normal 6.673776e-01 7.447195e-01 0.000000e+00
    outer loop
      vertex   4.755813e+01 4.086645e+00 4.000000e-01
      vertex   4.760246e+01 4.046924e+00 4.000000e-01
      vertex   4.755813e+01 4.086645e+00 0.000000e+00
    endloop
  endfacet
  facet normal 6.673776e-01 7.447195e-01 0.000000e+00
    outer loop
      vertex   4.755813e+01 4.086645e+00 0.000000e+00
      vertex   4.760246e+01 4.046924e+00 4.000000e-01
      vertex   4.760246e+01 4.046924e+00 0.000000e+00
    endloop
  endfacet
  facet normal 7.625356e-01 6.469463e-01 0.000000e+00
    outer loop
      vertex   4.760246e+01 4.046924e+00 4.000000e-01
      vertex   4.764061e+01 4.001955e+00 4.000000e-01
      vertex   4.760246e+01 4.046924e+00 0.000000e+00
    endloop
  endfacet
  facet normal 7.625356e-01 6.469463e-01 0.000000e+00
    outer loop
      vertex   4.760246e+01 4.046924e+00 0.000000e+00
      vertex   4.764061e+01 4.001955e+00 4.000000e-01
      vertex   4.764061e+01 4.001955e+00 0.000000e+00
    endloop
  endfacet
  facet normal 8.477263e-01 5.304340e-01 0.000000e+00
    outer loop
      vertex   4.764061e+01 4.001955e+00 4.000000e-01
      vertex   4.767159e+01 3.952449e+00 4.000000e-01
      vertex   4.764061e+01 4.001955e+00 0.000000e+00
    endloop
  endfacet
  facet normal 8.477263e-01 5.304340e-01 0.000000e+00
    outer loop
      vertex   4.764061e+01 4.001955e+00 0.000000e+00
      vertex   4.767159e+01 3.952449e+00 4.000000e-01
      vertex   4.767159e+01 3.952449e+00 0.000000e+00
    endloop
  endfacet
  facet normal 9.195168e-01 3.930507e-01 0.000000e+00
    outer loop
      vertex   4.767159e+01 3.952449e+00 4.000000e-01
      vertex   4.769438e+01 3.899118e+00 4.000000e-01
      vertex   4.767159e+01 3.952449e+00 0.000000e+00
    endloop
  endfacet
  facet normal 9.195168e-01 3.930507e-01 0.000000e+00
    outer loop
      vertex   4.767159e+01 3.952449e+00 0.000000e+00
      vertex   4.769438e+01 3.899118e+00 4.000000e-01
      vertex   4.769438e+01 3.899118e+00 0.000000e+00
    endloop
  endfacet
  facet normal 9.610480e-01 2.763814e-01 0.000000e+00
    outer loop
      vertex   4.769438e+01 3.899118e+00 4.000000e-01
      vertex   4.770240e+01 3.871240e+00 4.000000e-01
      vertex   4.769438e+01 3.899118e+00 0.000000e+00
    endloop
  endfacet
  facet normal 9.610480e-01 2.763814e-01 0.000000e+00
    outer loop
      vertex   4.769438e+01 3.899118e+00 0.000000e+00
      vertex   4.770240e+01 3.871240e+00 4.000000e-01
      vertex   4.770240e+01 3.871240e+00 0.000000e+00
    endloop
  endfacet
  facet normal 9.813500e-01 1.922293e-01 0.000000e+00
    outer loop
      vertex   4.770240e+01 3.871240e+00 4.000000e-01
      vertex   4.770800e+01 3.842673e+00 4.000000e-01
      vertex   4.770240e+01 3.871240e+00 0.000000e+00
    endloop
  endfacet
  facet normal 9.813500e-01 1.922293e-01 0.000000e+00
    outer loop
      vertex   4.770240e+01 3.871240e+00 0.000000e+00
      vertex   4.770800e+01 3.842673e+00 4.000000e-01
      vertex   4.770800e+01 3.842673e+00 0.000000e+00
    endloop
  endfacet
  facet normal 9.945806e-01 1.039683e-01 0.000000e+00
    outer loop
      vertex   4.770800e+01 3.842673e+00 4.000000e-01
      vertex   4.771104e+01 3.813504e+00 4.000000e-01
      vertex   4.770800e+01 3.842673e+00 0.000000e+00
    endloop
  endfacet
  facet normal 9.945806e-01 1.039683e-01 0.000000e+00
    outer loop
      vertex   4.770800e+01 3.842673e+00 0.000000e+00
      vertex   4.771104e+01 3.813504e+00 4.000000e-01
      vertex   4.771104e+01 3.813504e+00 0.000000e+00
    endloop
  endfacet
  facet normal 9.999194e-01 1.269726e-02 0.000000e+00
    outer loop
      vertex   4.771104e+01 3.813504e+00 4.000000e-01
      vertex   4.771142e+01 3.783824e+00 4.000000e-01
      vertex   4.771104e+01 3.813504e+00 0.000000e+00
    endloop
  endfacet
  facet normal 9.999194e-01 1.269726e-02 0.000000e+00
    outer loop
      vertex   4.771104e+01 3.813504e+00 0.000000e+00
      vertex   4.771142e+01 3.783824e+00 4.000000e-01
      vertex   4.771142e+01 3.783824e+00 0.000000e+00
    endloop
  endfacet
  facet normal 9.967823e-01 -8.015687e-02 0.000000e+00
    outer loop
      vertex   4.771142e+01 3.783824e+00 4.000000e-01
      vertex   4.770900e+01 3.753720e+00 4.000000e-01
      vertex   4.771142e+01 3.783824e+00 0.000000e+00
    endloop
  endfacet
  facet normal 9.967823e-01 -8.015687e-02 0.000000e+00
    outer loop
      vertex   4.771142e+01 3.783824e+00 0.000000e+00
      vertex   4.770900e+01 3.753720e+00 4.000000e-01
      vertex   4.770900e+01 3.753720e+00 0.000000e+00
    endloop
  endfacet
  facet normal 9.849351e-01 -1.729243e-01 0.000000e+00
    outer loop
      vertex   4.770900e+01 3.753720e+00 4.000000e-01
      vertex   4.770366e+01 3.723282e+00 4.000000e-01
      vertex   4.770900e+01 3.753720e+00 0.000000e+00
    endloop
  endfacet
  facet normal 9.849351e-01 -1.729243e-01 0.000000e+00
    outer loop
      vertex   4.770900e+01 3.753720e+00 0.000000e+00
      vertex   4.770366e+01 3.723282e+00 4.000000e-01
      vertex   4.770366e+01 3.723282e+00 0.000000e+00
    endloop
  endfacet
  facet normal 9.645688e-01 -2.638316e-01 0.000000e+00
    outer loop
      vertex   4.770366e+01 3.723282e+00 4.000000e-01
      vertex   4.769526e+01 3.692599e+00 4.000000e-01
      vertex   4.770366e+01 3.723282e+00 0.000000e+00
    endloop
  endfacet
  facet normal 9.645688e-01 -2.638316e-01 0.000000e+00
    outer loop
      vertex   4.770366e+01 3.723282e+00 0.000000e+00
      vertex   4.769526e+01 3.692599e+00 4.000000e-01
      vertex   4.769526e+01 3.692599e+00 0.000000e+00
    endloop
  endfacet
  facet normal 9.363118e-01 -3.511697e-01 0.000000e+00
    outer loop
      vertex   4.769526e+01 3.692599e+00 4.000000e-01
      vertex   4.768370e+01 3.661759e+00 4.000000e-01
      vertex   4.769526e+01 3.692599e+00 0.000000e+00
    endloop
  endfacet
  facet normal 9.363118e-01 -3.511697e-01 0.000000e+00
    outer loop
      vertex   4.769526e+01 3.692599e+00 0.000000e+00
      vertex   4.768370e+01 3.661759e+00 4.000000e-01
      vertex   4.768370e+01 3.661759e+00 0.000000e+00
    endloop
  endfacet
  facet normal 9.254091e-01 -3.789697e-01 0.000000e+00
    outer loop
      vertex   4.768370e+01 3.661759e+00 4.000000e-01
      vertex   4.766982e+01 3.627873e+00 4.000000e-01
      vertex   4.768370e+01 3.661759e+00 0.000000e+00
    endloop
  endfacet
  facet normal 9.254091e-01 -3.789697e-01 0.000000e+00
    outer loop
      vertex   4.768370e+01 3.661759e+00 0.000000e+00
      vertex   4.766982e+01 3.627873e+00 4.000000e-01
      vertex   4.766982e+01 3.627873e+00 0.000000e+00
    endloop
  endfacet
  facet normal 8.813226e-01 -4.725150e-01 0.000000e+00
    outer loop
      vertex   4.766982e+01 3.627873e+00 4.000000e-01
      vertex   4.765296e+01 3.596432e+00 4.000000e-01
      vertex   4.766982e+01 3.627873e+00 0.000000e+00
    endloop
  endfacet
  facet normal 8.813226e-01 -4.725150e-01 0.000000e+00
    outer loop
      vertex   4.766982e+01 3.627873e+00 0.000000e+00
      vertex   4.765296e+01 3.596432e+00 4.000000e-01
      vertex   4.765296e+01 3.596432e+00 0.000000e+00
    endloop
  endfacet
  facet normal 8.283072e-01 -5.602742e-01 0.000000e+00
    outer loop
      vertex   4.765296e+01 3.596432e+00 4.000000e-01
      vertex   4.763335e+01 3.567435e+00 4.000000e-01
      vertex   4.765296e+01 3.596432e+00 0.000000e+00
    endloop
  endfacet
  facet normal 8.283072e-01 -5.602742e-01 0.000000e+00
    outer loop
      vertex   4.765296e+01 3.596432e+00 0.000000e+00
      vertex   4.763335e+01 3.567435e+00 4.000000e-01
      vertex   4.763335e+01 3.567435e+00 0.000000e+00
    endloop
  endfacet
  facet normal 7.679428e-01 -6.405184e-01 0.000000e+00
    outer loop
      vertex   4.763335e+01 3.567435e+00 4.000000e-01
      vertex   4.761120e+01 3.540881e+00 4.000000e-01
      vertex   4.763335e+01 3.567435e+00 0.000000e+00
    endloop
  endfacet
  facet normal 7.679428e-01 -6.405184e-01 0.000000e+00
    outer loop
      vertex   4.763335e+01 3.567435e+00 0.000000e+00
      vertex   4.761120e+01 3.540881e+00 4.000000e-01
      vertex   4.761120e+01 3.540881e+00 0.000000e+00
    endloop
  endfacet
  facet normal 7.020318e-01 -7.121456e-01 0.000000e+00
    outer loop
      vertex   4.761120e+01 3.540881e+00 4.000000e-01
      vertex   4.758674e+01 3.516771e+00 4.000000e-01
      vertex   4.761120e+01 3.540881e+00 0.000000e+00
    endloop
  endfacet
  facet normal 7.020318e-01 -7.121456e-01 0.000000e+00
    outer loop
      vertex   4.761120e+01 3.540881e+00 0.000000e+00
      vertex   4.758674e+01 3.516771e+00 4.000000e-01
      vertex   4.758674e+01 3.516771e+00 0.000000e+00
    endloop
  endfacet
  facet normal 6.323539e-01 -7.746797e-01 0.000000e+00
    outer loop
      vertex   4.758674e+01 3.516771e+00 4.000000e-01
      vertex   4.756020e+01 3.495103e+00 4.000000e-01
      vertex   4.758674e+01 3.516771e+00 0.000000e+00
    endloop
  endfacet
  facet normal 6.323539e-01 -7.746797e-01 0.000000e+00
    outer loop
      vertex   4.758674e+01 3.516771e+00 0.000000e+00
      vertex   4.756020e+01 3.495103e+00 4.000000e-01
      vertex   4.756020e+01 3.495103e+00 0.000000e+00
    endloop
  endfacet
  facet normal 5.604783e-01 -8.281691e-01 0.000000e+00
    outer loop
      vertex   4.756020e+01 3.495103e+00 4.000000e-01
      vertex   4.753179e+01 3.475876e+00 4.000000e-01
      vertex   4.756020e+01 3.495103e+00 0.000000e+00
    endloop
  endfacet
  facet normal 5.604783e-01 -8.281691e-01 0.000000e+00
    outer loop
      vertex   4.756020e+01 3.495103e+00 0.000000e+00
      vertex   4.753179e+01 3.475876e+00 4.000000e-01
      vertex   4.753179e+01 3.475876e+00 0.000000e+00
    endloop
  endfacet
  facet normal 4.876555e-01 -8.730361e-01 0.000000e+00
    outer loop
      vertex   4.753179e+01 3.475876e+00 4.000000e-01
      vertex   4.750174e+01 3.459091e+00 4.000000e-01
      vertex   4.753179e+01 3.475876e+00 0.000000e+00
    endloop
  endfacet
  facet normal 4.876555e-01 -8.730361e-01 0.000000e+00
    outer loop
      vertex   4.753179e+01 3.475876e+00 0.000000e+00
      vertex   4.750174e+01 3.459091e+00 4.000000e-01
      vertex   4.750174e+01 3.459091e+00 0.000000e+00
    endloop
  endfacet
  facet normal 0.000000e+00 -0.000000e+00 -1.000000e+00
    outer loop
      vertex   4.714352e+01 4.158710e+00 0.000000e+00
      vertex   4.718889e+01 4.167820e+00 0.000000e+00
      vertex   4.707928e+01 4.134043e+00 0.000000e+00
    endloop
  endfacet
  facet normal 0.000000e+00 0.000000e+00 -1.000000e+00
    outer loop
      vertex   4.707928e+01 4.134043e+00 0.000000e+00
      vertex   4.718889e+01 4.167820e+00 0.000000e+00
      vertex   4.750864e+01 4.120408e+00 0.000000e+00
    endloop
  endfacet
  facet normal 0.000000e+00 -0.000000e+00 -1.000000e+00
    outer loop
      vertex   4.707928e+01 4.134043e+00 0.000000e+00
      vertex   4.750864e+01 4.120408e+00 0.000000e+00
      vertex   4.700285e+01 4.083411e+00 0.000000e+00
    endloop
  endfacet
  facet normal 0.000000e+00 -0.000000e+00 -1.000000e+00
    outer loop
      vertex   4.700285e+01 4.083411e+00 0.000000e+00
      vertex   4.750864e+01 4.120408e+00 0.000000e+00
      vertex   4.693989e+01 4.016398e+00 0.000000e+00
    endloop
  endfacet
  facet normal 0.000000e+00 -0.000000e+00 -1.000000e+00
    outer loop
      vertex   4.693989e+01 4.016398e+00 0.000000e+00
      vertex   4.750864e+01 4.120408e+00 0.000000e+00
      vertex   4.689363e+01 3.937258e+00 0.000000e+00
    endloop
  endfacet
  facet normal 0.000000e+00 0.000000e+00 -1.000000e+00
    outer loop
      vertex   4.689363e+01 3.937258e+00 0.000000e+00
      vertex   4.750864e+01 4.120408e+00 0.000000e+00
      vertex   4.755813e+01 4.086645e+00 0.000000e+00
    endloop
  endfacet
  facet normal 0.000000e+00 -0.000000e+00 -1.000000e+00
    outer loop
      vertex   4.689363e+01 3.937258e+00 0.000000e+00
      vertex   4.755813e+01 4.086645e+00 0.000000e+00
      vertex   4.686728e+01 3.850245e+00 0.000000e+00
    endloop
  endfacet
  facet normal 0.000000e+00 0.000000e+00 -1.000000e+00
    outer loop
      vertex   4.686728e+01 3.850245e+00 0.000000e+00
      vertex   4.755813e+01 4.086645e+00 0.000000e+00
      vertex   4.760246e+01 4.046924e+00 0.000000e+00
    endloop
  endfacet
  facet normal 0.000000e+00 -0.000000e+00 -1.000000e+00
    outer loop
      vertex   4.686728e+01 3.850245e+00 0.000000e+00
      vertex   4.760246e+01 4.046924e+00 0.000000e+00
      vertex   4.686251e+01 3.782377e+00 0.000000e+00
    endloop
  endfacet
  facet normal 0.000000e+00 0.000000e+00 -1.000000e+00
    outer loop
      vertex   4.686251e+01 3.782377e+00 0.000000e+00
      vertex   4.760246e+01 4.046924e+00 0.000000e+00
      vertex   4.687211e+01 3.714267e+00 0.000000e+00
    endloop
  endfacet
  facet normal 0.000000e+00 0.000000e+00 -1.000000e+00
    outer loop
      vertex   4.687211e+01 3.714267e+00 0.000000e+00
      vertex   4.760246e+01 4.046924e+00 0.000000e+00
      vertex   4.688716e+01 3.669612e+00 0.000000e+00
    endloop
  endfacet
  facet normal 0.000000e+00 0.000000e+00 -1.000000e+00
    outer loop
      vertex   4.688716e+01 3.669612e+00 0.000000e+00
      vertex   4.760246e+01 4.046924e+00 0.000000e+00
      vertex   4.764061e+01 4.001955e+00 0.000000e+00
    endloop
  endfacet
  facet normal 0.000000e+00 0.000000e+00 -1.000000e+00
    outer loop
      vertex   4.688716e+01 3.669612e+00 0.000000e+00
      vertex   4.764061e+01 4.001955e+00 0.000000e+00
      vertex   4.767159e+01 3.952449e+00 0.000000e+00
    endloop
  endfacet
  facet normal 0.000000e+00 -0.000000e+00 -1.000000e+00
    outer loop
      vertex   4.721877e+01 4.174958e+00 0.000000e+00
      vertex   4.739816e+01 4.167214e+00 0.000000e+00
      vertex   4.718889e+01 4.167820e+00 0.000000e+00
    endloop
  endfacet
  facet normal 0.000000e+00 0.000000e+00 -1.000000e+00
    outer loop
      vertex   4.718889e+01 4.167820e+00 0.000000e+00
      vertex   4.739816e+01 4.167214e+00 0.000000e+00
      vertex   4.745498e+01 4.147501e+00 0.000000e+00
    endloop
  endfacet
  facet normal 0.000000e+00 0.000000e+00 -1.000000e+00
    outer loop
      vertex   4.718889e+01 4.167820e+00 0.000000e+00
      vertex   4.745498e+01 4.147501e+00 0.000000e+00
      vertex   4.750864e+01 4.120408e+00 0.000000e+00
    endloop
  endfacet
  facet normal 0.000000e+00 -0.000000e+00 -1.000000e+00
    outer loop
      vertex   4.727905e+01 4.181653e+00 0.000000e+00
      vertex   4.733918e+01 4.178834e+00 0.000000e+00
      vertex   4.721877e+01 4.174958e+00 0.000000e+00
    endloop
  endfacet
  facet normal 0.000000e+00 0.000000e+00 -1.000000e+00
    outer loop
      vertex   4.721877e+01 4.174958e+00 0.000000e+00
      vertex   4.733918e+01 4.178834e+00 0.000000e+00
      vertex   4.739816e+01 4.167214e+00 0.000000e+00
    endloop
  endfacet
  facet normal 0.000000e+00 -0.000000e+00 -1.000000e+00
    outer loop
      vertex   4.767159e+01 3.952449e+00 0.000000e+00
      vertex   4.769438e+01 3.899118e+00 0.000000e+00
      vertex   4.688716e+01 3.669612e+00 0.000000e+00
    endloop
  endfacet
  facet normal 0.000000e+00 0.000000e+00 -1.000000e+00
    outer loop
      vertex   4.688716e+01 3.669612e+00 0.000000e+00
      vertex   4.769438e+01 3.899118e+00 0.000000e+00
      vertex   4.770240e+01 3.871240e+00 0.000000e+00
    endloop
  endfacet
  facet normal 0.000000e+00 0.000000e+00 -1.000000e+00
    outer loop
      vertex   4.688716e+01 3.669612e+00 0.000000e+00
      vertex   4.770240e+01 3.871240e+00 0.000000e+00
      vertex   4.770800e+01 3.842673e+00 0.000000e+00
    endloop
  endfacet
  facet normal 0.000000e+00 -0.000000e+00 -1.000000e+00
    outer loop
      vertex   4.770800e+01 3.842673e+00 0.000000e+00
      vertex   4.771104e+01 3.813504e+00 0.000000e+00
      vertex   4.688716e+01 3.669612e+00 0.000000e+00
    endloop
  endfacet
  facet normal 0.000000e+00 0.000000e+00 -1.000000e+00
    outer loop
      vertex   4.688716e+01 3.669612e+00 0.000000e+00
      vertex   4.771104e+01 3.813504e+00 0.000000e+00
      vertex   4.771142e+01 3.783824e+00 0.000000e+00
    endloop
  endfacet
  facet normal 0.000000e+00 0.000000e+00 -1.000000e+00
    outer loop
      vertex   4.688716e+01 3.669612e+00 0.000000e+00
      vertex   4.771142e+01 3.783824e+00 0.000000e+00
      vertex   4.770900e+01 3.753720e+00 0.000000e+00
    endloop
  endfacet
  facet normal 0.000000e+00 0.000000e+00 -1.000000e+00
    outer loop
      vertex   4.770900e+01 3.753720e+00 0.000000e+00
      vertex   4.770366e+01 3.723282e+00 0.000000e+00
      vertex   4.688716e+01 3.669612e+00 0.000000e+00
    endloop
  endfacet
  facet normal 0.000000e+00 0.000000e+00 -1.000000e+00
    outer loop
      vertex   4.688716e+01 3.669612e+00 0.000000e+00
      vertex   4.770366e+01 3.723282e+00 0.000000e+00
      vertex   4.769526e+01 3.692599e+00 0.000000e+00
    endloop
  endfacet
  facet normal 0.000000e+00 0.000000e+00 -1.000000e+00
    outer loop
      vertex   4.688716e+01 3.669612e+00 0.000000e+00
      vertex   4.769526e+01 3.692599e+00 0.000000e+00
      vertex   4.768370e+01 3.661759e+00 0.000000e+00
    endloop
  endfacet
  facet normal -0.000000e+00 0.000000e+00 -1.000000e+00
    outer loop
      vertex   4.768370e+01 3.661759e+00 0.000000e+00
      vertex   4.766982e+01 3.627873e+00 0.000000e+00
      vertex   4.688716e+01 3.669612e+00 0.000000e+00
    endloop
  endfacet
  facet normal 0.000000e+00 0.000000e+00 -1.000000e+00
    outer loop
      vertex   4.688716e+01 3.669612e+00 0.000000e+00
      vertex   4.766982e+01 3.627873e+00 0.000000e+00
      vertex   4.765296e+01 3.596432e+00 0.000000e+00
    endloop
  endfacet
  facet normal 0.000000e+00 0.000000e+00 -1.000000e+00
    outer loop
      vertex   4.688716e+01 3.669612e+00 0.000000e+00
      vertex   4.765296e+01 3.596432e+00 0.000000e+00
      vertex   4.763335e+01 3.567435e+00 0.000000e+00
    endloop
  endfacet
  facet normal -0.000000e+00 0.000000e+00 -1.000000e+00
    outer loop
      vertex   4.763335e+01 3.567435e+00 0.000000e+00
      vertex   4.761120e+01 3.540881e+00 0.000000e+00
      vertex   4.688716e+01 3.669612e+00 0.000000e+00
    endloop
  endfacet
  facet normal 0.000000e+00 0.000000e+00 -1.000000e+00
    outer loop
      vertex   4.688716e+01 3.669612e+00 0.000000e+00
      vertex   4.761120e+01 3.540881e+00 0.000000e+00
      vertex   4.758674e+01 3.516771e+00 0.000000e+00
    endloop
  endfacet
  facet normal 0.000000e+00 0.000000e+00 -1.000000e+00
    outer loop
      vertex   4.688716e+01 3.669612e+00 0.000000e+00
      vertex   4.758674e+01 3.516771e+00 0.000000e+00
      vertex   4.756020e+01 3.495103e+00 0.000000e+00
    endloop
  endfacet
  facet normal -0.000000e+00 0.000000e+00 -1.000000e+00
    outer loop
      vertex   4.756020e+01 3.495103e+00 0.000000e+00
      vertex   4.753179e+01 3.475876e+00 0.000000e+00
      vertex   4.688716e+01 3.669612e+00 0.000000e+00
    endloop
  endfacet
  facet normal 0.000000e+00 0.000000e+00 -1.000000e+00
    outer loop
      vertex   4.688716e+01 3.669612e+00 0.000000e+00
      vertex   4.753179e+01 3.475876e+00 0.000000e+00
      vertex   4.750174e+01 3.459091e+00 0.000000e+00
    endloop
  endfacet
  facet normal 0.000000e+00 0.000000e+00 -1.000000e+00
    outer loop
      vertex   4.688716e+01 3.669612e+00 0.000000e+00
      vertex   4.750174e+01 3.459091e+00 0.000000e+00
      vertex   4.747027e+01 3.444747e+00 0.000000e+00
    endloop
  endfacet
  facet normal -0.000000e+00 0.000000e+00 -1.000000e+00
    outer loop
      vertex   4.747027e+01 3.444747e+00 0.000000e+00
      vertex   4.743761e+01 3.432844e+00 0.000000e+00
      vertex   4.688716e+01 3.669612e+00 0.000000e+00
    endloop
  endfacet
  facet normal 0.000000e+00 0.000000e+00 -1.000000e+00
    outer loop
      vertex   4.688716e+01 3.669612e+00 0.000000e+00
      vertex   4.743761e+01 3.432844e+00 0.000000e+00
      vertex   4.740398e+01 3.423380e+00 0.000000e+00
    endloop
  endfacet
  facet normal 0.000000e+00 0.000000e+00 -1.000000e+00
    outer loop
      vertex   4.688716e+01 3.669612e+00 0.000000e+00
      vertex   4.740398e+01 3.423380e+00 0.000000e+00
      vertex   4.736960e+01 3.416355e+00 0.000000e+00
    endloop
  endfacet
  facet normal 0.000000e+00 0.000000e+00 -1.000000e+00
    outer loop
      vertex   4.729950e+01 3.409621e+00 0.000000e+00
      vertex   4.722908e+01 3.412638e+00 0.000000e+00
      vertex   4.736960e+01 3.416355e+00 0.000000e+00
    endloop
  endfacet
  facet normal -0.000000e+00 0.000000e+00 -1.000000e+00
    outer loop
      vertex   4.736960e+01 3.416355e+00 0.000000e+00
      vertex   4.722908e+01 3.412638e+00 0.000000e+00
      vertex   4.719431e+01 3.417801e+00 0.000000e+00
    endloop
  endfacet
  facet normal 0.000000e+00 0.000000e+00 -1.000000e+00
    outer loop
      vertex   4.736960e+01 3.416355e+00 0.000000e+00
      vertex   4.719431e+01 3.417801e+00 0.000000e+00
      vertex   4.716014e+01 3.425400e+00 0.000000e+00
    endloop
  endfacet
  facet normal 0.000000e+00 0.000000e+00 -1.000000e+00
    outer loop
      vertex   4.716014e+01 3.425400e+00 0.000000e+00
      vertex   4.712678e+01 3.435435e+00 0.000000e+00
      vertex   4.736960e+01 3.416355e+00 0.000000e+00
    endloop
  endfacet
  facet normal 0.000000e+00 0.000000e+00 -1.000000e+00
    outer loop
      vertex   4.736960e+01 3.416355e+00 0.000000e+00
      vertex   4.712678e+01 3.435435e+00 0.000000e+00
      vertex   4.709446e+01 3.447904e+00 0.000000e+00
    endloop
  endfacet
  facet normal 0.000000e+00 0.000000e+00 -1.000000e+00
    outer loop
      vertex   4.736960e+01 3.416355e+00 0.000000e+00
      vertex   4.709446e+01 3.447904e+00 0.000000e+00
      vertex   4.706340e+01 3.462808e+00 0.000000e+00
    endloop
  endfacet
  facet normal 0.000000e+00 0.000000e+00 -1.000000e+00
    outer loop
      vertex   4.706340e+01 3.462808e+00 0.000000e+00
      vertex   4.703382e+01 3.480146e+00 0.000000e+00
      vertex   4.736960e+01 3.416355e+00 0.000000e+00
    endloop
  endfacet
  facet normal 0.000000e+00 0.000000e+00 -1.000000e+00
    outer loop
      vertex   4.736960e+01 3.416355e+00 0.000000e+00
      vertex   4.703382e+01 3.480146e+00 0.000000e+00
      vertex   4.700596e+01 3.499917e+00 0.000000e+00
    endloop
  endfacet
  facet normal 0.000000e+00 0.000000e+00 -1.000000e+00
    outer loop
      vertex   4.736960e+01 3.416355e+00 0.000000e+00
      vertex   4.700596e+01 3.499917e+00 0.000000e+00
      vertex   4.698003e+01 3.522121e+00 0.000000e+00
    endloop
  endfacet
  facet normal 0.000000e+00 0.000000e+00 -1.000000e+00
    outer loop
      vertex   4.698003e+01 3.522121e+00 0.000000e+00
      vertex   4.695625e+01 3.546757e+00 0.000000e+00
      vertex   4.736960e+01 3.416355e+00 0.000000e+00
    endloop
  endfacet
  facet normal 0.000000e+00 0.000000e+00 -1.000000e+00
    outer loop
      vertex   4.736960e+01 3.416355e+00 0.000000e+00
      vertex   4.695625e+01 3.546757e+00 0.000000e+00
      vertex   4.693485e+01 3.573824e+00 0.000000e+00
    endloop
  endfacet
  facet normal 0.000000e+00 0.000000e+00 -1.000000e+00
    outer loop
      vertex   4.736960e+01 3.416355e+00 0.000000e+00
      vertex   4.693485e+01 3.573824e+00 0.000000e+00
      vertex   4.691605e+01 3.603323e+00 0.000000e+00
    endloop
  endfacet
  facet normal 0.000000e+00 0.000000e+00 -1.000000e+00
    outer loop
      vertex   4.691605e+01 3.603323e+00 0.000000e+00
      vertex   4.690008e+01 3.635252e+00 0.000000e+00
      vertex   4.736960e+01 3.416355e+00 0.000000e+00
    endloop
  endfacet
  facet normal 0.000000e+00 0.000000e+00 -1.000000e+00
    outer loop
      vertex   4.736960e+01 3.416355e+00 0.000000e+00
      vertex   4.690008e+01 3.635252e+00 0.000000e+00
      vertex   4.688716e+01 3.669612e+00 0.000000e+00
    endloop
  endfacet
endsolid
