solid ASCII
  facet normal 1.000000e+00 0.000000e+00 0.000000e+00
    outer loop
      vertex   5.059290e+00 1.177818e+01 0.000000e+00
      vertex   5.059290e+00 2.187818e+01 0.000000e+00
      vertex   5.059290e+00 1.177818e+01 4.000000e-01
    endloop
  endfacet
  facet normal 1.000000e+00 -0.000000e+00 0.000000e+00
    outer loop
      vertex   5.059290e+00 1.177818e+01 4.000000e-01
      vertex   5.059290e+00 2.187818e+01 0.000000e+00
      vertex   5.059290e+00 2.187818e+01 4.000000e-01
    endloop
  endfacet
  facet normal 0.000000e+00 -1.000000e+00 0.000000e+00
    outer loop
      vertex   -1.254071e+01 1.177818e+01 0.000000e+00
      vertex   5.059290e+00 1.177818e+01 0.000000e+00
      vertex   -1.254071e+01 1.177818e+01 4.000000e-01
    endloop
  endfacet
  facet normal 0.000000e+00 -1.000000e+00 0.000000e+00
    outer loop
      vertex   -1.254071e+01 1.177818e+01 4.000000e-01
      vertex   5.059290e+00 1.177818e+01 0.000000e+00
      vertex   5.059290e+00 1.177818e+01 4.000000e-01
    endloop
  endfacet
  facet normal -1.000000e+00 0.000000e+00 0.000000e+00
    outer loop
      vertex   -1.254071e+01 2.187818e+01 0.000000e+00
      vertex   -1.254071e+01 1.177818e+01 0.000000e+00
      vertex   -1.254071e+01 2.187818e+01 4.000000e-01
    endloop
  endfacet
  facet normal -1.000000e+00 -0.000000e+00 0.000000e+00
    outer loop
      vertex   -1.254071e+01 2.187818e+01 4.000000e-01
      vertex   -1.254071e+01 1.177818e+01 0.000000e+00
      vertex   -1.254071e+01 1.177818e+01 4.000000e-01
    endloop
  endfacet
  facet normal 0.000000e+00 1.000000e+00 -0.000000e+00
    outer loop
      vertex   5.059290e+00 2.187818e+01 0.000000e+00
      vertex   -1.254071e+01 2.187818e+01 0.000000e+00
      vertex   5.059290e+00 2.187818e+01 4.000000e-01
    endloop
  endfacet
  facet normal 0.000000e+00 1.000000e+00 0.000000e+00
    outer loop
      vertex   5.059290e+00 2.187818e+01 4.000000e-01
      vertex   -1.254071e+01 2.187818e+01 0.000000e+00
      vertex   -1.254071e+01 2.187818e+01 4.000000e-01
    endloop
  endfacet
  facet normal 0.000000e+00 0.000000e+00 -1.000000e+00
    outer loop
      vertex   -1.254071e+01 2.187818e+01 0.000000e+00
      vertex   5.059290e+00 2.187818e+01 0.000000e+00
      vertex   -1.254071e+01 1.177818e+01 0.000000e+00
    endloop
  endfacet
  facet normal 0.000000e+00 0.000000e+00 -1.000000e+00
    outer loop
      vertex   -1.254071e+01 1.177818e+01 0.000000e+00
      vertex   5.059290e+00 2.187818e+01 0.000000e+00
      vertex   5.059290e+00 1.177818e+01 0.000000e+00
    endloop
  endfacet
  facet normal 0.000000e+00 0.000000e+00 1.000000e+00
    outer loop
      vertex   5.059290e+00 2.187818e+01 4.000000e-01
      vertex   -1.254071e+01 2.187818e+01 4.000000e-01
      vertex   5.059290e+00 1.177818e+01 4.000000e-01
    endloop
  endfacet
  facet normal 0.000000e+00 0.000000e+00 1.000000e+00
    outer loop
      vertex   5.059290e+00 1.177818e+01 4.000000e-01
      vertex   -1.254071e+01 2.187818e+01 4.000000e-01
      vertex   -1.254071e+01 1.177818e+01 4.000000e-01
    endloop
  endfacet
endsolid
