solid ASCII
  facet normal -1.000000e+00 8.793846e-17 0.000000e+00
    outer loop
      vertex   6.659290e+00 3.357818e+01 0.000000e+00
      vertex   6.659290e+00 2.347818e+01 0.000000e+00
      vertex   6.659290e+00 3.357818e+01 4.000000e-01
    endloop
  endfacet
  facet normal -1.000000e+00 8.793846e-17 0.000000e+00
    outer loop
      vertex   6.659290e+00 3.357818e+01 4.000000e-01
      vertex   6.659290e+00 2.347818e+01 0.000000e+00
      vertex   6.659290e+00 2.347818e+01 4.000000e-01
    endloop
  endfacet
  facet normal 0.000000e+00 1.000000e+00 -0.000000e+00
    outer loop
      vertex   2.425929e+01 3.357818e+01 0.000000e+00
      vertex   6.659290e+00 3.357818e+01 0.000000e+00
      vertex   2.425929e+01 3.357818e+01 4.000000e-01
    endloop
  endfacet
  facet normal 0.000000e+00 1.000000e+00 0.000000e+00
    outer loop
      vertex   2.425929e+01 3.357818e+01 4.000000e-01
      vertex   6.659290e+00 3.357818e+01 0.000000e+00
      vertex   6.659290e+00 3.357818e+01 4.000000e-01
    endloop
  endfacet
  facet normal 1.000000e+00 0.000000e+00 0.000000e+00
    outer loop
      vertex   2.425929e+01 2.347818e+01 0.000000e+00
      vertex   2.425929e+01 3.357818e+01 0.000000e+00
      vertex   2.425929e+01 2.347818e+01 4.000000e-01
    endloop
  endfacet
  facet normal 1.000000e+00 -0.000000e+00 0.000000e+00
    outer loop
      vertex   2.425929e+01 2.347818e+01 4.000000e-01
      vertex   2.425929e+01 3.357818e+01 0.000000e+00
      vertex   2.425929e+01 3.357818e+01 4.000000e-01
    endloop
  endfacet
  facet normal 0.000000e+00 -1.000000e+00 0.000000e+00
    outer loop
      vertex   6.659290e+00 2.347818e+01 0.000000e+00
      vertex   2.425929e+01 2.347818e+01 0.000000e+00
      vertex   6.659290e+00 2.347818e+01 4.000000e-01
    endloop
  endfacet
  facet normal 0.000000e+00 -1.000000e+00 0.000000e+00
    outer loop
      vertex   6.659290e+00 2.347818e+01 4.000000e-01
      vertex   2.425929e+01 2.347818e+01 0.000000e+00
      vertex   2.425929e+01 2.347818e+01 4.000000e-01
    endloop
  endfacet
  facet normal 0.000000e+00 0.000000e+00 -1.000000e+00
    outer loop
      vertex   2.425929e+01 2.347818e+01 0.000000e+00
      vertex   6.659290e+00 2.347818e+01 0.000000e+00
      vertex   2.425929e+01 3.357818e+01 0.000000e+00
    endloop
  endfacet
  facet normal -0.000000e+00 0.000000e+00 -1.000000e+00
    outer loop
      vertex   2.425929e+01 3.357818e+01 0.000000e+00
      vertex   6.659290e+00 2.347818e+01 0.000000e+00
      vertex   6.659290e+00 3.357818e+01 0.000000e+00
    endloop
  endfacet
  facet normal 0.000000e+00 0.000000e+00 1.000000e+00
    outer loop
      vertex   6.659290e+00 2.347818e+01 4.000000e-01
      vertex   2.425929e+01 2.347818e+01 4.000000e-01
      vertex   6.659290e+00 3.357818e+01 4.000000e-01
    endloop
  endfacet
  facet normal -0.000000e+00 0.000000e+00 1.000000e+00
    outer loop
      vertex   6.659290e+00 3.357818e+01 4.000000e-01
      vertex   2.425929e+01 2.347818e+01 4.000000e-01
      vertex   2.425929e+01 3.357818e+01 4.000000e-01
    endloop
  endfacet
endsolid
